<svg width="226" height="153" viewBox="0 0 226 153" fill="none" xmlns="http://www.w3.org/2000/svg">
<g clip-path="url(#clip0_250_249)">
<path d="M147.917 100.352L101.447 19.2551L134.831 0L192.616 100.352H147.917Z" fill="black"/>
<path d="M24.1418 88.9907L57.5257 69.6055L75.1894 100.353H30.6199L24.1418 88.9907Z" fill="black"/>
<path d="M89.6572 152.089H99.1584V113.492H89.6572V152.089Z" fill="black"/>
<path d="M208.725 152.999C198.101 152.999 191.709 147.492 191.364 139.729H201.383C201.383 142.158 202.895 145.714 209.373 145.844C213.692 145.844 215.721 143.285 215.721 141.377C215.462 138.341 211.662 138.081 207.602 137.431C203.543 136.78 200.088 136.043 197.583 134.742C194.387 133.094 192.227 129.538 192.227 125.461C192.227 118.566 198.187 113.102 208.12 113.102C217.751 113.102 223.841 118.176 224.488 125.721H214.814C214.728 123.683 214.339 120.474 208.639 120.474C204.795 120.474 202.247 121.255 202.031 123.943C202.031 127.89 210.021 127.63 216.24 129.278C222.2 130.795 226 134.525 226 139.729C226 149.313 218.269 152.999 208.725 152.999" fill="black"/>
<path d="M63.2696 54.5567L96.6535 35.2148L134.097 100.353H99.1584V109.893H89.6572V100.309L63.2696 54.5567Z" fill="black"/>
<path fill-rule="evenodd" clip-rule="evenodd" d="M64.1334 153C53.0774 153 44.0944 143.936 44.0944 132.964C44.0944 121.862 53.0774 113.102 64.1334 113.102C68.3226 113.102 72.1231 114.229 75.4485 116.528V100.352H84.9497V152.089H75.4485V149.53C72.1231 151.699 68.3226 153 64.1334 153V153ZM53.207 132.964C53.207 138.948 58.3031 143.936 64.3925 143.936C70.3524 143.936 75.4485 138.948 75.4485 132.964C75.4485 126.979 70.3524 121.862 64.3925 121.862C58.3031 121.862 53.207 126.979 53.207 132.964" fill="black"/>
<path fill-rule="evenodd" clip-rule="evenodd" d="M134.356 100.352H143.728V152.089H134.356V149.53C131.16 151.699 127.23 153 122.912 153C111.985 153 103.002 143.936 103.002 132.964C103.002 121.862 111.985 113.102 122.912 113.102C127.23 113.102 131.031 114.229 134.356 116.528V100.352V100.352ZM112.244 132.964C112.244 138.948 117.34 143.936 123.171 143.936C129.26 143.936 134.356 138.948 134.356 132.964C134.356 126.979 129.26 121.862 123.171 121.862C117.34 121.862 112.244 126.979 112.244 132.964Z" fill="black"/>
<path fill-rule="evenodd" clip-rule="evenodd" d="M166.833 152.999C155.95 152.999 146.924 143.936 146.924 132.964C146.924 121.862 155.95 113.102 166.833 113.102C171.022 113.102 174.952 114.229 178.148 116.528V113.449H187.65V152.089H178.148V149.53C174.952 151.698 171.152 152.999 166.833 152.999ZM156.166 132.964C156.166 138.948 161.262 143.936 167.222 143.936C173.182 143.936 178.148 138.948 178.148 132.964C178.148 126.979 173.182 121.862 167.222 121.862C161.262 121.862 156.166 126.979 156.166 132.964Z" fill="black"/>
<path fill-rule="evenodd" clip-rule="evenodd" d="M9.15574 132.964C9.15574 138.948 14.2519 143.936 20.2117 143.936C26.3012 143.936 31.3973 138.948 31.3973 132.964C31.3973 126.979 26.3012 121.862 20.2117 121.862C14.2519 121.862 9.15574 126.979 9.15574 132.964V132.964ZM19.9526 152.999C9.02618 152.999 0 143.936 0 132.964C0 121.862 9.02618 113.102 19.9526 113.102C24.1418 113.102 28.0719 114.229 31.3973 116.528V113.449H40.769V152.089H31.3973V149.53C28.2014 151.698 24.2714 152.999 19.9526 152.999Z" fill="black"/>
</g>
<defs>
<clipPath id="clip0_250_249">
<rect width="226" height="153" fill="white"/>
</clipPath>
</defs>
</svg>
