<svg width="347" height="100" viewBox="0 0 347 100" fill="none" xmlns="http://www.w3.org/2000/svg">
<path d="M127.677 66.7374C120.642 62.7445 111.42 60.4629 101.533 60.4629C91.5509 60.4629 82.3293 62.7445 75.3893 66.7374C70.2556 69.7796 67.3085 74.533 67.3085 79.9519C67.3085 85.3708 70.2556 90.0292 75.3893 93.1665C82.4244 97.1593 91.646 99.441 101.533 99.441C111.515 99.441 120.737 97.1593 127.677 93.1665C132.811 90.1243 135.758 85.3708 135.758 79.9519C135.758 74.533 132.811 69.8747 127.677 66.7374ZM101.438 97.6347C95.1635 97.6347 84.6109 93.927 84.6109 79.9519C84.6109 67.6881 93.072 62.2692 101.438 62.2692C112.751 62.2692 119.311 68.924 119.311 79.9519C119.501 91.7404 113.512 97.6347 101.438 97.6347Z" fill="black"/>
<path d="M347 62.8395V61.0332H318.575V62.8395H324.564V78.1455H300.702V62.8395H306.881V61.3184V61.0332H278.361V62.8395H284.54V97.1592H278.361V98.8705H306.881V97.1592H300.702V79.9518H324.564V97.1592H318.575V98.8705H346.81H347V97.1592H340.821V62.8395H347Z" fill="black"/>
<path d="M170.458 60.4629H169.507L139.656 97.1593H132.811V98.9656H149.923V97.1593H141.842L149.067 88.413H175.877L183.958 97.3495H176.162V99.1558H211.908V97.2544H203.922L170.458 60.4629ZM150.589 86.4166L161.616 72.7267L174.356 86.4166H150.589Z" fill="black"/>
<path d="M49.1504 64.7423C48.6751 64.5521 47.249 63.6015 44.8723 62.6508C42.3055 61.7001 38.1225 60.3691 32.7986 60.3691C24.2425 60.3691 16.3518 61.9853 10.4575 65.0275C3.61261 68.45 0 73.6787 0 79.8582C0 92.6924 11.9786 99.3472 34.7951 99.3472C40.4041 99.3472 45.2526 97.9212 49.2455 95.0691L56.0904 98.7768H57.4214V84.0412H56.0904L55.9953 84.1363V84.2313C55.9953 84.3264 54.8545 87.6538 51.7173 90.9812C48.8652 94.0234 43.6364 97.731 35.0803 97.731C29.3762 97.731 24.7178 95.6395 21.6756 91.6467C19.2989 88.6045 17.8729 84.3264 17.8729 80.0483C17.8729 68.545 26.8093 62.3656 35.0803 62.3656C40.7844 62.3656 45.9181 64.1719 49.911 67.5943C53.3334 70.4464 55.2348 73.7738 55.9953 76.0554V76.1505H57.4214V61.1297H56.0904L49.1504 64.7423Z" fill="black"/>
<path d="M259.727 64.7423C259.252 64.5521 257.826 63.6015 255.449 62.6508C252.882 61.7001 248.699 60.3691 243.375 60.3691C234.819 60.3691 226.928 61.9853 221.034 65.0275C214.189 68.45 210.577 73.6787 210.577 79.8582C210.577 92.6924 222.555 99.3472 245.372 99.3472C250.981 99.3472 255.829 97.9212 259.822 95.0691L266.667 98.7768H267.998V84.0412H266.667L266.572 84.1363V84.2313C266.572 84.3264 265.431 87.6538 262.294 90.9812C259.442 94.0234 254.213 97.731 245.657 97.731C239.953 97.731 235.295 95.6395 232.252 91.6467C229.876 88.6045 228.45 84.3264 228.45 80.0483C228.45 68.545 237.386 62.3656 245.657 62.3656C251.361 62.3656 256.495 64.1719 260.488 67.5943C263.91 70.4464 265.812 73.7738 266.572 76.0554V76.1505H267.998V61.1297H266.667L259.727 64.7423Z" fill="black"/>
<path d="M194.605 31.7527V23.6719H188.521C188.426 29.2809 193.179 31.2774 194.605 31.7527Z" fill="black"/>
<path d="M205.158 31.7527C205.348 31.6576 205.633 31.6576 206.013 31.3724C208.105 25.7634 211.242 23.7669 211.432 23.6719C209.531 23.6719 206.679 23.6719 205.253 23.6719V31.7527H205.158Z" fill="black"/>
<path d="M144.599 26.3339L145.455 24.7178C144.979 24.6227 144.409 24.6227 143.839 24.7178L144.599 26.3339Z" fill="black"/>
<path d="M150.398 25.0979C150.018 23.4817 149.828 21.2951 149.828 20.1543C148.212 20.5346 146.881 20.5346 146.596 20.5346V23.7669C148.212 24.1472 148.972 24.4324 150.398 25.0979Z" fill="black"/>
<path d="M145.455 23.5773V20.5352C145.265 20.5352 144.029 20.5352 143.839 20.5352V23.5773C143.839 23.5773 144.219 23.5773 144.694 23.5773C145.075 23.5773 145.455 23.5773 145.455 23.5773Z" fill="black"/>
<path d="M160.19 29.6616C161.521 27.57 161.521 25.9539 161.521 25.9539C161.521 23.6722 160.095 21.7709 159.145 21.0103C156.578 18.9188 151.064 19.9646 151.064 19.9646C150.969 20.8202 150.969 23.387 151.634 25.7637C154.106 27.0947 158.669 29.1862 160.19 29.6616Z" fill="black"/>
<path d="M154.106 32.3227C153.536 31.372 152.3 30.0411 150.208 31.1819C150.208 31.1819 150.113 33.0833 151.064 33.7488C151.444 34.129 152.49 35.3649 152.11 36.3156C152.014 36.7909 149.733 38.6923 149.162 39.2627C148.022 40.2134 148.212 40.7838 148.212 40.7838C148.402 41.8296 147.641 43.7309 148.307 44.5866C148.402 44.6816 148.402 44.6816 148.402 44.6816C149.067 44.6816 150.208 43.0655 150.208 42.6852C150.208 42.4951 149.543 41.5444 149.543 41.3542C149.638 41.1641 149.733 41.2592 150.018 40.8789C150.113 40.7838 150.113 40.4035 150.113 40.3085C150.208 39.643 153.345 37.0762 153.916 36.7909C154.867 36.2205 154.106 35.46 154.106 35.46C152.965 34.129 154.011 32.4178 154.106 32.3227Z" fill="black"/>
<path d="M142.698 24.7176C142.698 24.7176 138.8 25.2881 136.043 28.045C135.853 28.2352 135.663 28.045 135.663 28.045C135.663 28.045 135.663 27.8549 135.758 27.5697C136.899 26.0486 140.416 23.7669 142.508 23.5768V20.2494C141.652 20.1543 140.891 19.8691 140.606 19.8691C138.61 21.6754 134.807 24.5275 131.195 26.1437C130.814 27.95 132.05 28.7105 132.05 29.5661C132.05 29.7563 131.955 29.9464 131.86 30.0415C131.195 30.7069 128.057 32.9886 127.677 33.8442C127.487 34.4146 128.152 38.5976 128.152 40.0237C128.152 41.0694 129.008 41.6398 129.008 41.6398C129.388 42.1152 130.909 44.0165 131.575 44.0165C132.05 43.8264 132.716 40.9743 131.099 41.2596C130.244 41.3546 130.244 41.2596 130.434 40.7842C130.434 40.5941 130.339 40.3089 130.054 40.2138C129.008 39.7384 128.723 34.5097 130.054 34.0343C134.712 32.228 138.039 30.9922 138.23 28.9006C139.656 30.802 136.328 32.4182 136.233 32.4182C136.423 33.2738 137.089 34.6998 136.899 35.3653C136.804 35.8406 137.089 37.6469 137.089 37.6469C137.564 38.6927 137.564 42.4954 137.089 42.9708C136.994 43.0659 136.899 43.4461 136.708 43.6363C136.328 44.1116 135.568 44.7771 135.378 45.7278C135.282 46.2982 138.23 45.7278 138.135 44.8722C138.135 44.682 137.944 44.3017 138.135 44.0165C138.23 43.8264 138.515 43.9215 138.705 43.8264C138.895 43.6363 139.18 43.256 139.085 42.8757C138.61 41.5448 138.515 38.9779 138.895 37.742C138.99 37.3617 139.085 35.4604 138.99 34.89C138.99 34.4146 139.846 30.9922 139.846 30.8971C140.796 31.0872 141.937 31.3724 144.029 31.3724C144.029 30.3267 144.029 29.9464 144.029 26.9993L142.698 24.7176Z" fill="black"/>
<path d="M152.68 30.2301C151.349 28.1386 150.874 27.1879 150.779 26.5224C148.972 25.3816 147.071 24.9062 146.596 24.9062C146.215 25.4767 145.265 27.283 145.265 27.283C145.265 30.2301 145.265 30.6104 145.265 31.6561C147.831 31.2758 150.303 29.1843 152.68 30.2301Z" fill="black"/>
<path d="M161.236 30.1356C162.187 30.3258 162.662 30.3257 163.803 30.5159C164.469 23.766 162.757 22.34 160.381 21.4844C161.331 22.1499 164.183 25.8575 161.236 30.1356Z" fill="black"/>
<path d="M123.494 17.8737C123.399 17.7786 123.399 17.3033 123.684 16.8279C123.589 16.8279 123.019 16.8279 123.019 16.8279C123.019 16.8279 123.019 16.8279 123.019 16.7329L122.828 14.9266L124.35 14.7364C124.35 14.7364 124.35 14.3562 124.255 14.166C123.114 14.166 121.783 14.6414 121.498 14.6414C121.307 16.1625 121.973 16.6378 121.973 16.6378C122.543 17.2082 122.924 19.2046 123.019 19.3948C123.399 19.5849 124.159 19.4899 124.54 19.4899C123.019 19.2997 123.494 17.8737 123.494 17.8737Z" fill="black"/>
<path d="M131.194 16.543C131.004 16.7331 130.054 17.0183 129.578 17.4937C129.959 18.4443 127.487 21.7717 127.487 24.0534C127.487 24.1484 127.487 24.0534 127.487 24.1484C127.962 23.578 130.244 21.6767 131.004 21.2013C131.48 19.8704 131.67 17.4937 131.194 16.543Z" fill="black"/>
<path d="M123.114 20.726C123.114 20.726 123.114 20.821 123.209 21.1062C123.399 21.9619 123.399 22.2471 124.255 22.2471C124.35 22.2471 126.061 22.3421 125.871 21.2964C125.871 21.2013 126.346 20.9161 126.251 20.726C126.251 20.3457 126.156 20.5358 126.156 20.5358C125.681 20.6309 123.779 20.821 123.114 20.726Z" fill="black"/>
<path d="M122.353 12.6436C121.783 13.0239 121.498 13.2141 121.498 13.4993C121.593 13.4993 121.973 13.4042 122.448 13.3091C122.638 13.3091 122.924 13.2141 123.114 13.2141C123.304 13.2141 123.684 13.119 123.969 13.119C123.304 12.0732 121.973 10.1719 121.973 10.1719C121.973 10.1719 121.973 10.2669 121.973 10.7423C121.688 11.693 122.353 12.6436 122.353 12.6436Z" fill="black"/>
<path d="M130.909 29.7558C130.339 28.4249 129.769 27.189 131.004 22.4355C129.959 23.2912 128.152 24.9073 127.677 25.7629C127.202 27.189 128.628 28.5199 128.723 29.1854C128.818 30.2312 123.114 31.9424 122.924 32.0375C122.448 32.2276 122.068 32.8931 122.068 33.3684C122.068 33.8438 120.927 37.0761 120.927 37.2662C120.832 37.6465 120.452 39.738 120.452 39.738C120.547 40.4035 120.547 42.5901 120.547 42.5901C123.114 42.0197 122.163 40.0232 122.068 40.0232C122.068 39.9282 122.163 39.9282 122.258 39.8331C122.353 39.6429 122.448 39.1676 122.353 38.8824C121.973 38.4071 122.163 38.2169 122.163 38.2169C122.638 36.3156 123.684 33.8438 124.445 33.4635C124.54 33.3684 127.202 32.9881 127.962 32.8931C128.247 32.1325 131.004 29.8509 130.909 29.7558Z" fill="black"/>
<path d="M150.779 35.4609C150.208 34.8905 148.877 32.9892 148.972 31.6582C148.117 31.8483 147.071 32.3237 147.071 32.3237C147.166 33.9399 148.877 34.7004 148.877 36.0314C148.877 36.6968 146.976 38.1229 146.406 38.7883C145.265 39.739 145.455 40.3094 145.455 40.3094C145.835 41.1651 144.979 42.7812 145.55 43.827C145.55 43.922 145.645 43.922 145.74 43.922C146.406 43.922 147.546 42.4009 147.546 41.9256C147.546 41.8305 146.406 40.7848 146.881 40.7848C147.546 40.6897 147.451 40.3094 147.451 39.8341C147.451 38.8834 151.159 36.7919 151.159 36.5067C151.064 36.0314 150.874 35.6511 150.779 35.4609Z" fill="black"/>
<path d="M132.621 34.1298C132.811 35.4607 133.951 36.5065 134.142 36.9818C134.617 38.3128 134.712 40.2142 134.807 40.4994C134.902 41.9254 134.237 43.2564 133.476 43.3514C133.096 43.4465 132.145 44.6824 132.145 44.8725C132.525 45.4429 134.617 45.0627 134.617 45.0627C134.997 44.9676 135.092 44.112 135.092 44.112C134.712 43.1613 135.568 43.0662 135.663 43.0662C136.518 43.0662 136.233 41.9254 136.233 41.9254C136.043 41.4501 135.568 37.9325 135.853 36.5065C136.043 35.5558 135.663 33.5594 135.473 32.7988C134.902 33.1791 134.142 33.5594 132.621 34.1298Z" fill="black"/>
<path d="M159.335 20.4407C159.43 20.5357 159.81 20.8209 159.81 20.8209C166.085 20.916 165.419 28.9018 165.419 29.3771L169.127 28.0462C165.514 17.4935 161.141 19.2998 159.335 20.4407Z" fill="black"/>
<path d="M160.761 41.8296C160.666 41.3543 159.43 38.5022 159.81 36.4107C159.62 36.3156 158.479 35.7452 158.004 35.3649C157.338 34.9847 156.007 34.2241 155.057 33.2734C155.057 33.2734 154.581 33.9389 154.676 34.7945C157.529 35.9353 159.145 38.5973 159.05 42.0197C159.05 42.6852 157.909 44.1112 157.909 44.1112C157.243 45.0619 157.243 45.4422 157.243 45.4422C158.574 45.6323 160 45.3471 160 45.3471C160.095 45.2521 160.095 44.6816 160 44.4915C159.335 43.826 160.095 43.3507 160.095 43.3507C160.571 42.8753 160.856 42.4 160.761 41.8296Z" fill="black"/>
<path d="M130.054 11.1223C130.434 10.2667 130.244 9.69623 130.149 9.60117C129.768 9.41103 128.342 8.55542 127.867 8.08008C127.772 8.08008 127.962 9.12583 128.057 9.41103C128.247 9.98144 128.628 10.0765 128.628 10.0765C128.628 10.0765 127.962 10.4568 127.677 10.6469C128.057 10.6469 129.103 10.2667 130.054 11.1223Z" fill="black"/>
<path d="M126.726 17.0186C127.107 16.8284 128.342 15.1172 128.533 14.6419L127.487 14.0714C127.487 14.0714 127.487 14.0714 127.487 13.9764C128.057 12.8356 128.533 12.075 128.533 12.075C128.533 12.075 128.533 12.075 128.628 12.075L129.768 12.6454C129.959 12.1701 129.959 12.1701 130.149 11.9799C129.578 11.4095 128.152 11.3145 127.582 11.3145C127.202 11.8849 126.631 12.9306 126.631 13.5961C126.536 14.4517 125.585 16.163 125.585 16.163L126.726 17.0186Z" fill="black"/>
<path d="M124.73 16.8272C124.635 16.7322 124.54 17.0174 124.54 17.3026C124.445 17.4927 124.635 17.4927 124.635 17.6829C124.635 18.0631 124.635 18.5385 125.015 18.8237C125.205 19.0138 125.585 19.204 126.061 19.204C126.156 19.204 126.631 19.1089 126.916 18.7286C127.011 18.6335 127.107 18.8237 127.297 18.7286C127.392 18.6335 127.392 18.5385 127.297 18.5385C126.441 18.2533 125.395 17.5878 124.73 16.8272Z" fill="black"/>
<path d="M138.8 15.8765C138.99 16.7321 139.846 19.2039 142.127 19.5842L142.222 19.3941C139.751 17.3025 141.082 8.46118 133.286 7.7957C130.814 7.60556 130.054 8.27103 130.054 8.3661C130.054 8.3661 130.434 8.84145 130.719 8.84145C136.043 8.46117 137.374 12.1689 138.8 15.8765Z" fill="black"/>
<path d="M136.518 13.5944C135.853 11.9783 133.952 9.88677 131.575 9.60156C131.765 13.1191 127.867 17.3021 128.247 17.112C129.198 16.4465 129.768 16.4465 130.529 15.9711C130.909 15.781 131.575 14.9254 131.575 14.9254C133.666 17.0169 131.765 24.147 131.575 25.0977C135.568 23.1964 139.275 19.964 139.751 19.6788C138.23 18.538 137.279 15.3057 136.518 13.5944Z" fill="black"/>
<path d="M120.737 13.0241C120.832 12.834 121.307 12.1685 121.593 12.0734C121.212 11.8833 120.167 11.4079 119.691 11.4079C119.691 11.3129 120.167 12.4537 120.737 13.0241Z" fill="black"/>
<path d="M204.017 11.9785H195.556V32.038C196.887 32.4182 198.123 32.6084 199.834 32.6084C199.834 32.6084 202.591 32.6084 204.017 32.038C204.017 27.2845 204.017 11.9785 204.017 11.9785ZM201.355 24.1473C201.355 24.5276 201.26 24.6226 201.26 24.6226H200.119H198.978C198.978 24.6226 198.883 24.4325 198.883 24.1473C198.883 24.0522 198.883 23.767 198.883 23.767H201.45V24.1473H201.355ZM202.876 22.8163C202.876 22.8163 201.735 22.8163 199.834 22.8163C198.028 22.8163 196.887 22.8163 196.887 22.8163V13.1193H202.971V22.8163H202.876Z" fill="black"/>
<path d="M190.898 16.3528L191.088 12.7402H189.852L190.042 16.3528H190.898Z" fill="black"/>
<path d="M181.771 13.2157L181.296 15.3072L178.348 15.4973V16.9234H181.105V17.0184C181.105 17.0184 179.299 17.2086 179.014 17.3987C179.014 17.3987 179.014 17.5888 179.014 17.779C178.158 17.874 175.021 18.3494 174.736 18.9198C174.546 19.4902 173.215 21.962 173.12 22.4373C172.93 23.0077 172.169 23.7683 171.979 23.8634C171.599 24.0535 170.838 23.8634 170.458 23.4831C170.363 23.388 169.982 23.0077 169.887 23.1028C169.792 23.1979 169.697 23.2929 169.697 23.4831C169.317 23.2929 169.127 22.9127 168.747 22.6275C168.747 22.6275 168.556 22.6275 168.366 22.7225C168.176 22.8176 168.366 22.9127 168.366 22.9127C168.937 23.4831 169.697 24.2436 170.363 24.9091C171.979 26.7154 174.07 28.8069 176.257 29.2823C173.975 30.1379 171.408 31.0886 167.796 31.0886C162.662 30.9935 157.909 29.5675 152.585 26.4302C155.057 33.6554 162.092 34.6061 162.947 37.0779C163.423 38.599 163.423 41.0708 163.138 42.0214C163.042 42.5919 161.046 44.4932 161.331 45.0636C161.426 45.2538 162.757 45.4439 163.233 45.2538C163.423 45.2538 163.613 45.2538 163.708 45.1587C163.803 45.0636 163.898 44.4932 163.803 44.3031C163.803 44.208 163.613 44.1129 163.613 44.1129C163.423 43.7327 163.803 43.4475 164.088 43.4475C164.564 43.4475 164.944 42.9721 164.754 42.5918C164.373 41.6412 164.278 36.2223 164.278 36.2223C164.373 35.5568 164.278 34.7012 163.613 34.416C161.997 33.9406 160.666 31.5639 160.571 30.8984C161.711 31.2787 164.373 31.9442 167.796 31.9442C173.975 31.9442 177.208 28.9971 182.722 28.9971C187.095 28.9971 189.091 30.8984 190.232 31.4688C192.514 32.6097 195.081 33.7505 198.693 34.0357L198.598 36.4124C198.598 36.5075 198.598 36.6025 198.503 36.6025H196.031C196.031 36.6025 196.031 36.6976 196.031 36.9828C196.031 37.0779 196.031 37.1729 196.031 37.1729L196.411 37.6483C197.362 37.6483 203.637 37.6483 204.492 37.6483C204.587 37.6483 204.873 37.1729 204.873 37.1729C204.873 37.1729 204.968 37.0779 204.968 36.9828C204.968 36.7927 204.968 36.6025 204.968 36.6025H202.211C202.116 36.6025 202.116 36.5075 202.116 36.4124L202.021 34.0357C205.728 33.8455 208.105 32.6097 208.2 32.5146C208.2 32.5146 208.77 29.9477 210.957 27.0957C212.098 25.5746 214.665 22.4373 220.464 22.4373C220.464 22.4373 220.654 22.4373 220.654 22.0571C220.654 21.6768 220.464 21.6768 220.464 21.6768C219.323 21.6768 217.136 21.8669 215.996 22.0571C215.52 22.0571 215.14 22.0571 214.95 22.0571C214.379 21.962 213.904 21.3916 213.904 20.631C213.904 20.536 213.904 16.1628 213.904 14.4516H214.95L215.045 17.0184H215.425C215.996 17.0184 216.091 17.5888 216.091 17.5888L216.186 18.4445H216.566L216.661 17.5888C216.661 17.5888 216.756 17.0184 217.327 17.0184H217.707L218.182 10.934H217.231C216.661 10.934 216.661 10.3636 216.661 10.3636C216.661 10.3636 216.661 9.98336 216.281 9.98336C216.091 9.98336 215.901 10.3636 215.901 10.3636C215.901 10.3636 215.901 10.934 215.33 10.934H214.379L214.57 13.5009H213.619C213.619 13.3108 213.619 9.69816 213.619 9.69816H213.999C213.999 9.69816 214.094 9.60309 214.094 9.50802C214.094 9.41295 214.094 9.31787 214.094 9.31787C214.094 9.31787 208.865 8.36719 200.214 8.36719C191.753 8.36719 186.429 9.41295 186.429 9.41295C186.429 9.41295 186.429 9.50801 186.429 9.60308C186.429 9.69815 186.524 9.79321 186.524 9.79321H186.905V20.3458C186.905 20.4409 186.905 21.962 186.524 22.4373C186.429 22.5324 186.429 22.5324 186.334 22.5324C186.144 22.5324 186.144 22.4373 186.144 22.3423C185.954 21.8669 185.288 20.4409 185.288 20.3458H185.859C185.859 20.3458 185.954 20.2508 185.954 20.1557C185.954 20.0606 185.859 19.9656 185.859 19.9656H183.292C185.288 19.5853 185.574 18.5395 185.574 17.5888C185.669 13.3108 185.479 12.1699 185.193 10.839C185.098 10.3636 184.718 9.69816 184.718 9.69816L182.341 12.5502L181.771 13.2157ZM216.851 12.9305L216.471 16.9234H215.045L214.855 12.9305H216.851ZM176.447 28.3316C176.352 28.4266 175.877 28.5217 175.877 28.7119C175.877 28.902 175.877 28.902 175.972 29.0921C174.641 28.902 173.405 27.9513 172.074 26.7154C172.169 26.6203 175.116 23.2929 175.306 23.0077C175.687 23.5782 176.732 24.9091 176.922 25.2894C178.158 27.3809 177.208 27.9513 176.447 28.3316ZM179.87 27.3809C179.679 26.8105 178.919 24.3387 178.824 23.8634C178.634 23.2929 177.873 21.7719 177.683 21.5817C177.588 21.5817 177.303 21.7719 177.303 21.7719C177.303 21.7719 176.447 21.2014 176.827 20.631C177.303 20.0606 179.775 20.4409 180.25 20.4409V25.2894C180.25 25.3845 180.345 26.4302 179.87 27.3809ZM189.662 11.6946C190.137 11.6946 190.137 11.2192 190.137 11.2192C190.137 11.2192 190.137 11.0291 190.327 11.0291C190.517 11.0291 190.517 11.2192 190.517 11.2192C190.517 11.2192 190.517 11.6946 191.088 11.6946H191.753L191.278 17.0184H191.088C190.517 17.0184 190.422 17.5888 190.422 17.5888L190.327 18.1592H189.947L189.852 17.5888C189.852 17.5888 189.757 17.0184 189.186 17.0184H188.996L188.521 11.6946H189.662ZM200.595 36.9828C200.595 37.0779 200.595 37.1729 200.499 37.1729H198.978C198.883 37.1729 198.883 37.0779 198.883 36.9828L198.788 34.6061C199.264 34.7012 200.404 34.7012 200.785 34.6061L200.595 36.9828ZM206.774 32.3245C206.774 32.3245 203.827 33.7505 199.739 33.7505C197.838 33.7505 196.031 33.6554 194.415 33.085C192.894 32.6097 187.095 30.2329 187.095 23.4831V22.7225H194.32V10.7439H204.968V22.6275H212.098L213.144 23.4831C208.2 26.6203 206.774 32.3245 206.774 32.3245Z" fill="black"/>
<path d="M177.968 12.0737C177.018 10.9329 175.116 9.98219 172.644 8.84137L170.743 5.79918C170.743 5.79918 170.743 5.79919 170.743 5.70412C167.416 0.380281 164.659 0 163.993 0H163.898C163.233 0 162.757 0.380275 162.472 0.855618C162.092 1.71123 162.377 2.85206 163.138 4.18302C164.468 6.08438 167.796 7.41534 170.933 8.65123C171.408 8.84137 171.884 9.03151 172.264 9.12657L176.257 15.4962H176.162C175.972 15.4962 175.496 15.4962 175.591 15.6863C175.687 16.0666 176.067 15.6863 176.162 16.1617C176.352 16.8271 177.778 16.7321 177.778 16.7321L177.303 15.4011H176.922L173.12 9.31671C175.116 10.1723 176.922 10.8378 177.778 11.8836L177.873 11.9786C177.968 11.9786 177.968 11.9786 177.968 11.8836C178.063 12.1688 178.063 12.1688 177.968 12.0737ZM171.123 8.27096C168.081 6.94 164.849 5.70411 163.613 3.99288C162.947 2.94713 162.567 1.90137 162.947 1.23589C163.042 0.855612 163.423 0.760551 163.898 0.760551C163.898 0.760551 163.898 0.760551 163.993 0.760551C165.324 0.760551 167.796 2.18658 170.268 6.17946L171.789 8.55617C171.599 8.36603 171.313 8.36603 171.123 8.27096Z" fill="black"/>
<path d="M127.582 9.60221C124.73 9.50714 123.399 10.9332 123.399 10.9332C123.399 10.9332 124.35 11.9789 124.54 12.3592C125.11 13.2148 125.015 13.9754 125.015 14.6408C125.585 13.7852 125.395 12.3592 126.346 10.8381C126.726 10.3628 127.202 9.98248 127.677 9.88742C127.582 9.69728 127.582 9.69728 127.582 9.60221Z" fill="black"/>
<path d="M181.961 12.9293L182.151 11.4082L182.341 11.218L182.246 10.5526L183.862 9.88709C183.767 9.69695 183.767 9.69695 183.958 9.41175C184.053 9.31668 184.623 8.74627 184.813 8.55614C185.003 7.51038 183.482 6.74983 182.532 7.03503C182.151 7.03503 181.391 7.1301 180.915 7.03503C180.82 7.03503 180.535 7.03503 180.535 7.03503L180.44 7.22517C180.44 7.32024 181.105 8.08078 181.391 8.36599C181.581 8.55612 180.82 9.31668 181.201 9.41175C181.201 9.41175 181.391 9.41175 181.391 9.50682C181.391 9.50682 181.391 9.69695 181.391 9.88709L181.486 9.98216C181.486 10.0772 181.486 10.4575 181.581 10.5526C181.676 10.6476 182.246 10.7427 182.246 10.7427C182.246 10.7427 182.246 10.7427 182.246 10.8378L182.056 10.9328C181.961 10.9328 181.676 11.123 181.961 11.3131C182.056 11.4082 182.151 11.5033 182.151 11.5033C182.056 11.5983 181.771 11.6934 181.771 12.1687C181.771 12.6441 181.866 13.0243 181.961 13.2145V12.9293Z" fill="black"/>
<path d="M182.246 30.8965C177.873 30.8965 174.261 34.414 174.261 38.8822C174.261 43.3505 177.778 46.868 182.246 46.868C186.619 46.868 190.232 43.3505 190.232 38.8822C190.232 34.414 186.619 30.8965 182.246 30.8965ZM182.817 37.5513L182.722 37.6463L182.627 32.0373C184.148 32.1324 185.574 32.7028 186.81 33.8436L182.817 37.5513ZM182.722 40.0231V39.928L186.715 43.8258C185.574 44.8715 184.148 45.442 182.532 45.442L182.722 40.0231ZM188.996 38.502L183.387 38.4069L187.285 34.414C188.426 35.5548 188.996 36.9809 188.996 38.502ZM187.19 43.2554L183.387 39.2625L188.996 39.1674C188.901 40.3083 188.521 41.5441 187.855 42.5899C187.665 42.78 187.475 43.0653 187.19 43.2554ZM181.201 38.3118L175.592 38.4069C175.592 37.5513 175.782 36.8858 176.067 36.1253C176.257 35.4598 176.732 34.7943 177.208 34.2239L180.915 38.0266L181.201 38.3118ZM181.771 39.928C181.771 39.928 181.771 39.8329 181.771 39.928L181.866 45.537C180.345 45.442 178.919 44.8716 177.683 43.7307L181.771 39.928ZM181.866 37.6463V37.7414L177.873 33.8436C179.014 32.7978 180.44 32.2274 182.056 32.2274L181.866 37.6463ZM181.201 39.2625C181.296 39.2625 181.201 39.2625 181.201 39.2625L177.303 43.2554C176.257 42.1146 175.687 40.6885 175.496 39.0724L181.201 39.2625Z" fill="black"/>
<path d="M219.989 24.5293C217.041 24.5293 214.284 25.6701 212.193 27.8567C210.101 29.9482 208.961 32.7052 208.961 35.6523C208.961 38.5044 210.006 41.2614 212.003 43.3529C212.098 43.4479 212.193 43.543 212.383 43.7331L212.478 43.8282C214.57 45.7296 217.231 46.7753 220.084 46.7753C226.263 46.7753 231.207 41.8318 231.207 35.6523C231.112 29.4729 226.168 24.5293 219.989 24.5293ZM226.738 28.332L220.654 34.2263L220.559 34.3214V34.2263L220.464 25.6701C222.841 25.8603 225.027 26.8109 226.738 28.332ZM220.464 37.1734C220.464 37.1734 220.464 37.0783 220.559 37.1734L226.643 43.0677C224.837 44.5887 222.745 45.5394 220.369 45.6345C220.464 45.6345 220.464 37.1734 220.464 37.1734ZM221.415 35.177L227.309 28.9975C228.83 30.8038 229.781 32.9904 229.876 35.272L221.415 35.177ZM221.415 36.4129L229.971 36.3178C229.876 38.6945 228.925 40.786 227.404 42.5923L221.415 36.4129ZM219.513 34.2263C219.513 34.2263 219.513 34.4164 219.418 34.3214L213.334 28.4271C215.14 26.8109 217.231 25.9553 219.608 25.8603L219.513 34.2263ZM219.228 37.0784C219.228 37.0784 219.323 37.0783 219.323 37.1734L219.418 45.6345C217.136 45.5394 214.95 44.5887 213.144 43.0677L219.228 37.0784ZM218.372 34.9868L218.467 35.0819C218.562 35.177 218.372 35.177 218.372 35.177L209.911 35.272C210.006 32.8953 210.862 30.6137 212.478 28.9975L218.372 34.9868ZM210.101 36.1277L218.562 36.2227C218.658 36.2227 218.658 36.2227 218.658 36.3178V36.4129L212.763 42.4973C211.242 40.8811 210.292 38.5994 210.196 36.3178V36.1277H210.101Z" fill="black"/>
</svg>
