<svg width="348" height="109" viewBox="0 0 348 109" fill="none" xmlns="http://www.w3.org/2000/svg">
<g clip-path="url(#clip0_248_204)">
<path d="M243.783 8.36777C243.783 8.36777 237.26 10.9609 229.673 19.3107C222.086 27.6606 217.667 37.0499 220.937 39.5469C222.193 40.4961 225.09 40.6768 230.346 35.9313C235.197 31.726 239.004 26.4544 241.469 20.531C244.864 12.2659 243.783 8.46946 243.783 8.37907V8.36777ZM285.306 23.3896C276.876 19.0734 270.714 13.7856 264.304 10.5146C258.188 7.37912 254.233 6.06846 249.288 6.72944C248.599 6.85222 247.918 7.0221 247.252 7.23789C247.252 7.23789 249.798 15.9211 239.664 30.5079C229.401 45.2981 220.088 45.1964 217.441 41.1344C214.668 36.8465 218.25 28.1069 224.23 20.3276C230.493 12.1924 241.492 5.44702 241.492 5.44702C241.492 5.44702 237.984 3.30589 229.373 8.18134C220.971 12.9156 206.51 24.2144 193.089 43.2699C179.669 62.3254 177.01 72.8108 175.086 81.0646C173.163 89.3184 174.911 98.1597 184.077 98.1597C193.242 98.1597 203.913 84.2 206.923 79.3471C212.518 70.3081 216.168 56.4444 208.552 58.3482C204.801 59.286 201.763 63.4327 199.845 67.4269C198.634 69.9922 197.708 72.6824 197.084 75.449C194.423 76.5442 191.924 77.9962 189.655 79.7652C187.132 81.6316 184.773 83.7107 182.606 85.9796C182.606 85.9796 182.639 79.381 187.907 68.7036C193.174 58.0262 202.843 53.1508 208.32 52.6932C213.254 52.2977 219.675 56.4783 214.233 71.9012C208.79 87.3241 192.733 106.075 175.867 106.306C160.302 106.521 150.118 86.6857 171.782 52.0717C195.76 13.8308 223.885 2.09691 233.017 0.791894C242.148 -0.513123 245.119 3.50927 245.119 3.50927C250.615 1.25744 256.552 0.280042 262.482 0.650659C273.634 1.40203 282.256 9.28298 293.64 14.8194C290.681 17.6441 287.858 20.6101 285.312 23.3896H285.306ZM335.406 10.5146C327.677 15.4635 316.984 19.9491 306.709 18.9887C304.107 21.6722 301.323 24.7794 298.534 28.169C316.35 31.6886 331.96 20.6666 340.26 11.2829C343.286 7.90909 345.885 4.17702 348 0.170457C344.221 4.10046 339.992 7.57241 335.4 10.5146H335.406ZM311.677 60.6363C311.812 60.4017 311.922 60.1536 312.005 59.8962C311.952 59.4888 311.761 59.1118 311.463 58.8281C311.166 58.5443 310.78 58.371 310.37 58.3369C308.673 58.2578 306.359 58.5799 300.288 65.2914C295.252 70.8338 290.917 76.9738 287.382 83.5729C283.908 89.9116 282.5 94.6345 284.497 95.8548C285.146 96.1904 285.898 96.2671 286.602 96.0694C287.954 95.7474 289.487 94.482 291.818 91.7872C292.91 90.5217 294.121 88.7308 295.569 86.7479C299.586 81.2906 309.68 64.1106 311.677 60.6363V60.6363ZM248.615 67.9353C249.628 65.2914 250.918 60.0996 248.236 58.0601C245.356 55.8964 238.012 60.9752 237.973 66.184C237.922 71.517 243.144 73.9294 244.394 74.2683C245.107 74.4604 245.356 74.4322 245.701 73.8616C246.809 71.9559 247.783 69.9757 248.615 67.9353V67.9353ZM243.059 77.6354C241.239 76.7963 239.542 75.7149 238.012 74.4208C236.479 73.1364 235.197 71.5791 234.233 69.8279C234.131 69.6584 234.029 69.7883 233.916 69.9409C233.803 70.0934 233.35 70.5058 229.435 76.2343C225.52 81.9628 219.506 93.8323 224.948 95.8548C228.434 97.1485 234.233 91.0528 237.396 87.0134C239.55 84.194 241.504 81.2263 243.24 78.1325C243.404 77.7879 243.24 77.7088 243.065 77.6354H243.059ZM304.803 91.3465C303.326 93.708 301.64 98.2388 306.5 95.4198C312.446 91.9906 320.916 79.1607 320.916 79.1607H324.758C321.262 84.5275 317.37 89.6262 313.114 94.4142C307.088 101.08 299.739 107.137 294.562 106.538C288.514 105.832 290.409 97.9055 290.409 97.9055C290.409 97.9055 281.758 107.103 275.773 106.442C267.688 105.549 270.154 95.5723 270.154 95.5723C270.154 95.5723 261.011 106.775 254.782 106.43C245.017 105.866 247.472 94.0018 250.188 85.6463C251.642 81.1776 252.989 77.6693 252.989 77.6693C252.989 77.6693 252.021 77.9235 249.939 78.2342C248.853 78.3867 246.872 78.4997 246.872 78.4997C246.872 78.4997 242.805 85.6632 239.551 89.9681C236.298 94.2729 222.47 109.114 214.334 106.142C206.81 103.397 209.299 91.8945 213.678 82.7537C220.071 69.4268 238.052 50.2809 248.423 52.8118C259.173 55.4162 248.666 75.0027 248.666 75.0027C248.666 75.0027 248.666 75.0762 248.779 75.127C248.994 75.2061 249.554 75.2683 250.85 75.014C252.193 74.7406 253.508 74.3493 254.782 73.8446C254.782 73.8446 265.588 51.2469 277.526 36.4624C289.464 21.6778 313.278 -3.78414 322.625 2.37373C324.888 3.88778 323.869 9.1022 320.792 15.4296C319.405 15.8792 317.997 16.2563 316.571 16.5594C318.63 12.8252 319.994 9.67844 320.401 7.48081C321.81 -0.15721 303.948 15.955 291.184 33.2648C283.496 43.7001 276.666 54.7393 270.76 66.2744C273.066 64.8702 275.266 63.3012 277.345 61.5797C283.039 56.8659 288.449 51.8217 293.549 46.4731C298.46 41.453 303.066 36.1444 307.343 30.5757C308.702 30.51 310.056 30.3705 311.4 30.1576C306.737 36.4772 301.652 42.4754 296.18 48.1115C291.088 53.2525 285.577 58.7832 280.791 62.8C276.516 66.4303 272.006 69.7763 267.291 72.8164C267.291 72.8164 256.129 95.2955 262.199 96.7361C265.77 97.5948 272.819 86.7535 272.819 86.7535C272.819 86.7535 282.019 72.7373 287.563 66.4156C295.128 57.8285 301.64 52.857 308.146 52.7666C311.937 52.6988 314.172 56.7212 314.172 56.7212L315.954 53.9643H326.93C326.93 53.9643 306.432 88.6969 304.791 91.3126L304.803 91.3465ZM335.4 10.5146C327.672 15.4635 316.978 19.9491 306.704 18.9887C304.101 21.6722 301.318 24.7794 298.528 28.169C316.345 31.6886 331.955 20.6666 340.255 11.2829C343.282 7.90941 345.884 4.17732 348 0.170457C344.221 4.10046 339.992 7.57241 335.4 10.5146V10.5146ZM181.253 27.5532H170.815L164.914 37.0725H175.352L181.253 27.5532ZM131.827 60.5176C136.268 54.4388 148.523 33.1349 148.523 33.1349C148.471 32.7279 148.281 32.351 147.985 32.0672C147.688 31.7834 147.303 31.6099 146.893 31.5756C145.196 31.4965 142.367 32.0671 136.749 39.0893C131.131 46.1116 126.769 51.6989 123.589 57.5121C120.104 63.8564 118.582 68.3308 120.585 69.5454C121.235 69.8705 121.981 69.9469 122.684 69.7601C123.985 69.4324 125.688 68.1274 128.025 65.4439C129.122 64.1897 130.367 62.5006 131.827 60.5176ZM75.8145 31.7055C72.929 29.5305 65.5909 34.6207 65.5513 39.8181C65.506 45.1568 72.1539 46.7895 73.0139 46.8291C73.2669 46.8501 73.5205 46.7971 73.7438 46.6765C73.8972 46.5872 74.0196 46.4531 74.0946 46.2924C74.8762 44.7587 75.5786 43.1861 76.1993 41.5807C77.212 38.9368 78.4963 33.745 75.8145 31.7055V31.7055ZM71.4637 50.0831C69.474 49.4625 67.5725 48.5891 65.8059 47.4844C64.0939 46.37 62.7017 44.8299 61.7662 43.0157C61.6644 42.8462 61.5512 42.9761 61.4494 43.1287C61.3475 43.2812 60.7591 44.0156 56.8326 49.7668C52.9061 55.5179 47.0899 67.28 52.5383 69.3025C56.0122 70.6188 61.8794 64.4722 65.0647 60.4498C67.4484 57.2888 69.6509 53.9956 71.6617 50.5859C71.7918 50.2413 71.6617 50.1622 71.4693 50.1001L71.4637 50.0831ZM156.721 53.6253H160.546C160.546 53.6253 141.383 81.3075 130.559 80.0194C124.517 79.3133 126.31 71.8673 126.31 71.8673C126.31 71.8673 117.824 81.7877 110.027 79.7765C102.955 77.963 107.521 66.2179 107.521 66.2179C106.717 66.5399 91.4131 83.765 80.6576 79.6353C69.4042 75.2965 75.2487 60.8735 77.3874 56.5348C79.2035 52.8796 81.2121 49.3205 81.2121 49.3205C81.2121 49.3205 79.4864 49.8063 78.3832 50.0549C77.2799 50.3035 75.6844 50.6198 75.6844 50.6198C75.6844 50.6198 70.3604 59.2578 67.1072 63.5683C63.8539 67.8788 50.0263 82.6916 41.879 79.7426C33.7318 76.7936 35.7516 65.41 40.3288 56.3709C47.7518 41.7107 65.3646 23.6947 75.9729 26.429C86.6888 29.1577 77.8174 46.5127 77.8174 46.5127C77.8174 46.5127 79.9504 46.7895 85.0594 43.3095C92.4145 38.2984 102.123 24.8189 112.635 26.4007C117.592 27.1465 122.208 32.2027 115.894 41.8067C113.88 44.8913 110.503 47.6482 107.917 44.9196C106.304 43.2247 107.713 40.1345 109.405 38.0216C110.063 37.1603 110.924 36.4738 111.91 36.0226C112.897 35.5714 113.979 35.3694 115.063 35.4342C115.063 35.4342 116.8 31.4796 112.381 31.5361C108.805 31.6039 99.7527 39.9255 94.6437 48.3318C89.959 56.0489 82.8585 69.1951 89.9873 72.0594C96.5221 74.692 108.958 59.9527 114.718 52.2299C120.477 44.5071 133.603 27.0052 144.613 26.3047C148.404 26.0561 150.662 29.5079 150.662 29.5079L151.935 27.4967H162.945C162.945 27.4967 142.209 62.0486 140.591 64.6643C139.318 66.7094 137.626 71.308 142.288 68.7319C146.95 66.1557 156.721 53.6253 156.721 53.6253ZM150.729 108.99C142.623 103.386 132.915 100.558 123.063 100.928C120.396 101.001 117.784 101.7 115.439 102.969C113.093 104.238 111.08 106.041 109.563 108.233C105.365 100.917 97.0652 96.4254 84.2333 96.5271C63.4975 96.7643 42.9314 106.312 26.6369 106.301C11.0214 106.301 -0.367767 96.4988 -1.03632e-05 79.0929C0.684584 48.5465 26.5351 21.0394 45.8282 8.66154C56.9514 1.54892 66.2528 -0.563968 72.335 0.119613C76.7707 0.611113 82.106 5.72949 78.7396 13.2715C73.7947 24.2935 66.9657 23.3896 67.2203 18.1187C67.3618 14.6895 69.6475 12.5314 71.3675 11.3394C72.4594 10.588 74.3888 10.3733 75.3958 10.3507C76.3746 9.5259 77.0932 3.49232 69.1723 5.47527C61.2513 7.45822 51.6331 15.2544 42.5014 25.3273C33.3697 35.4003 19.1516 54.4388 15.6382 74.4321C13.9974 83.7029 15.0724 100.612 37.0869 100.42C55.7576 100.267 83.2772 87.9908 108.568 88.245C118.384 88.341 126.927 90.985 133.586 95.0864C140.127 99.1088 147.968 104.984 150.752 108.995" fill="#E61D2B"/>
</g>
<defs>
<clipPath id="clip0_248_204">
<rect width="348" height="109" fill="white"/>
</clipPath>
</defs>
</svg>
