<svg width="954" height="224" viewBox="0 0 954 224" fill="none" xmlns="http://www.w3.org/2000/svg">
<g clip-path="url(#clip0_11_66)">
<rect y="160" width="954" height="32" fill="#FF9213"/>
<path d="M0 176C0 176 19.4287 180 32 180C44.5713 180 51.7259 178.717 64 176C64 176 83.406 172 96 172C108.594 172 128 176 128 176" stroke="#2F2D28" stroke-width="2"/>
<path d="M128 176C128 176 147.429 180 160 180C172.571 180 179.726 178.717 192 176C192 176 211.406 172 224 172C236.594 172 256 176 256 176" stroke="#2F2D28" stroke-width="2"/>
<path d="M256 176C256 176 275.429 180 288 180C300.571 180 307.726 178.717 320 176C320 176 339.406 172 352 172C364.594 172 384 176 384 176" stroke="#2F2D28" stroke-width="2"/>
<path d="M384 176C384 176 403.429 180 416 180C428.571 180 435.726 178.717 448 176C448 176 467.406 172 480 172C492.594 172 512 176 512 176" stroke="#2F2D28" stroke-width="2"/>
<path d="M512 176C512 176 531.429 180 544 180C556.571 180 563.726 178.717 576 176C576 176 595.406 172 608 172C620.594 172 640 176 640 176" stroke="#2F2D28" stroke-width="2"/>
<path d="M640 176C640 176 659.429 180 672 180C684.571 180 691.726 178.717 704 176C704 176 723.406 172 736 172C748.594 172 768 176 768 176" stroke="#2F2D28" stroke-width="2"/>
<path d="M768 176C768 176 787.429 180 800 180C812.571 180 819.726 178.717 832 176C832 176 851.406 172 864 172C876.594 172 896 176 896 176" stroke="#2F2D28" stroke-width="2"/>
<path d="M896 176C896 176 915.429 180 928 180C940.571 180 947.726 178.717 960 176C960 176 979.406 172 992 172C1004.59 172 1024 176 1024 176" stroke="#2F2D28" stroke-width="2"/>
<path d="M-128 176C-128 176 -108.571 180 -96 180C-83.4287 180 -76.2741 178.717 -64 176C-64 176 -44.594 172 -32 172C-19.406 172 0 176 0 176" stroke="#2F2D28" stroke-width="2"/>
</g>
<g clip-path="url(#clip1_11_66)">
<rect y="128" width="954" height="32" fill="#FFF613"/>
<path d="M0 144C0 144 14.4981 148 24 148C33.5019 148 48 144 48 144C48 144 62.4981 140 72 140C81.5019 140 96 144 96 144" stroke="#2F2D28" stroke-width="2"/>
<path d="M96 144C96 144 110.498 148 120 148C129.502 148 144 144 144 144C144 144 158.498 140 168 140C177.502 140 192 144 192 144" stroke="#2F2D28" stroke-width="2"/>
<path d="M192 144C192 144 206.498 148 216 148C225.502 148 240 144 240 144C240 144 254.498 140 264 140C273.502 140 288 144 288 144" stroke="#2F2D28" stroke-width="2"/>
<path d="M288 144C288 144 302.498 148 312 148C321.502 148 336 144 336 144C336 144 350.498 140 360 140C369.502 140 384 144 384 144" stroke="#2F2D28" stroke-width="2"/>
<path d="M384 144C384 144 398.498 148 408 148C417.502 148 432 144 432 144C432 144 446.498 140 456 140C465.502 140 480 144 480 144" stroke="#2F2D28" stroke-width="2"/>
<path d="M480 144C480 144 494.498 148 504 148C513.502 148 528 144 528 144C528 144 542.498 140 552 140C561.502 140 576 144 576 144" stroke="#2F2D28" stroke-width="2"/>
<path d="M576 144C576 144 590.498 148 600 148C609.502 148 624 144 624 144C624 144 638.498 140 648 140C657.502 140 672 144 672 144" stroke="#2F2D28" stroke-width="2"/>
<path d="M672 144C672 144 686.498 148 696 148C705.502 148 720 144 720 144C720 144 734.498 140 744 140C753.502 140 768 144 768 144" stroke="#2F2D28" stroke-width="2"/>
<path d="M768 144C768 144 782.498 148 792 148C801.502 148 816 144 816 144C816 144 830.498 140 840 140C849.502 140 864 144 864 144" stroke="#2F2D28" stroke-width="2"/>
<path d="M864 144C864 144 878.498 148 888 148C897.502 148 912 144 912 144C912 144 926.498 140 936 140C945.502 140 960 144 960 144" stroke="#2F2D28" stroke-width="2"/>
<path d="M-92 144C-92 144 -80.5713 148 -68 148C-55.4287 148 -56.2741 146.717 -44 144C-44 144 -32.594 140 -20 140C-7.40597 140 0 144 0 144" stroke="#2F2D28" stroke-width="2"/>
</g>
<g clip-path="url(#clip2_11_66)">
<rect y="96" width="954" height="32" fill="#26FF13"/>
<path d="M0 112C0 112 9.55931 116 16 116C22.4407 116 32 112 32 112C32 112 41.5593 108 48 108C54.4407 108 64 112 64 112" stroke="#2F2D28" stroke-width="2"/>
<path d="M64 112C64 112 73.5593 116 80 116C86.4407 116 96 112 96 112C96 112 105.559 108 112 108C118.441 108 128 112 128 112" stroke="#2F2D28" stroke-width="2"/>
<path d="M128 112C128 112 137.559 116 144 116C150.441 116 160 112 160 112C160 112 169.559 108 176 108C182.441 108 192 112 192 112" stroke="#2F2D28" stroke-width="2"/>
<path d="M192 112C192 112 201.559 116 208 116C214.441 116 224 112 224 112C224 112 233.559 108 240 108C246.441 108 256 112 256 112" stroke="#2F2D28" stroke-width="2"/>
<path d="M256 112C256 112 265.559 116 272 116C278.441 116 288 112 288 112C288 112 297.559 108 304 108C310.441 108 320 112 320 112" stroke="#2F2D28" stroke-width="2"/>
<path d="M320 112C320 112 329.559 116 336 116C342.441 116 352 112 352 112C352 112 361.559 108 368 108C374.441 108 384 112 384 112" stroke="#2F2D28" stroke-width="2"/>
<path d="M384 112C384 112 393.559 116 400 116C406.441 116 416 112 416 112C416 112 425.559 108 432 108C438.441 108 448 112 448 112" stroke="#2F2D28" stroke-width="2"/>
<path d="M448 112C448 112 457.559 116 464 116C470.441 116 480 112 480 112C480 112 489.559 108 496 108C502.441 108 512 112 512 112" stroke="#2F2D28" stroke-width="2"/>
<path d="M512 112C512 112 521.559 116 528 116C534.441 116 544 112 544 112C544 112 553.559 108 560 108C566.441 108 576 112 576 112" stroke="#2F2D28" stroke-width="2"/>
<path d="M576 112C576 112 585.559 116 592 116C598.441 116 608 112 608 112C608 112 617.559 108 624 108C630.441 108 640 112 640 112" stroke="#2F2D28" stroke-width="2"/>
<path d="M640 112C640 112 649.559 116 656 116C662.441 116 672 112 672 112C672 112 681.559 108 688 108C694.441 108 704 112 704 112" stroke="#2F2D28" stroke-width="2"/>
<path d="M704 112C704 112 713.559 116 720 116C726.441 116 736 112 736 112C736 112 745.559 108 752 108C758.441 108 768 112 768 112" stroke="#2F2D28" stroke-width="2"/>
<path d="M768 112C768 112 777.559 116 784 116C790.441 116 800 112 800 112C800 112 809.559 108 816 108C822.441 108 832 112 832 112" stroke="#2F2D28" stroke-width="2"/>
<path d="M832 112C832 112 841.559 116 848 116C854.441 116 864 112 864 112C864 112 873.559 108 880 108C886.441 108 896 112 896 112" stroke="#2F2D28" stroke-width="2"/>
<path d="M896 112C896 112 905.559 116 912 116C918.441 116 928 112 928 112C928 112 937.559 108 944 108C950.441 108 960 112 960 112" stroke="#2F2D28" stroke-width="2"/>
<path d="M-64 112C-64 112 -54.4407 116 -48 116C-41.5593 116 -32 112 -32 112C-32 112 -22.4407 108 -16 108C-9.55931 108 0 112 0 112" stroke="#2F2D28" stroke-width="2"/>
</g>
<g clip-path="url(#clip3_11_66)">
<rect y="64" width="954" height="32" fill="#13FFFF"/>
<path d="M0 80C0 80 5.55931 84 12 84C18.4407 84 24 80 24 80C24 80 29.5593 76 36 76C42.4407 76 48 80 48 80" stroke="#2F2D28" stroke-width="2"/>
<path d="M48 80C48 80 53.5593 84 60 84C66.4407 84 72 80 72 80C72 80 77.5593 76 84 76C90.4407 76 96 80 96 80" stroke="#2F2D28" stroke-width="2"/>
<path d="M96 80C96 80 101.559 84 108 84C114.441 84 120 80 120 80C120 80 125.559 76 132 76C138.441 76 144 80 144 80" stroke="#2F2D28" stroke-width="2"/>
<path d="M144 80C144 80 149.559 84 156 84C162.441 84 168 80 168 80C168 80 173.559 76 180 76C186.441 76 192 80 192 80" stroke="#2F2D28" stroke-width="2"/>
<path d="M192 80C192 80 197.559 84 204 84C210.441 84 216 80 216 80C216 80 221.559 76 228 76C234.441 76 240 80 240 80" stroke="#2F2D28" stroke-width="2"/>
<path d="M240 80C240 80 245.559 84 252 84C258.441 84 264 80 264 80C264 80 269.559 76 276 76C282.441 76 288 80 288 80" stroke="#2F2D28" stroke-width="2"/>
<path d="M288 80C288 80 293.559 84 300 84C306.441 84 312 80 312 80C312 80 317.559 76 324 76C330.441 76 336 80 336 80" stroke="#2F2D28" stroke-width="2"/>
<path d="M336 80C336 80 341.559 84 348 84C354.441 84 360 80 360 80C360 80 365.559 76 372 76C378.441 76 384 80 384 80" stroke="#2F2D28" stroke-width="2"/>
<path d="M384 80C384 80 389.559 84 396 84C402.441 84 408 80 408 80C408 80 413.559 76 420 76C426.441 76 432 80 432 80" stroke="#2F2D28" stroke-width="2"/>
<path d="M432 80C432 80 437.559 84 444 84C450.441 84 456 80 456 80C456 80 461.559 76 468 76C474.441 76 480 80 480 80" stroke="#2F2D28" stroke-width="2"/>
<path d="M480 80C480 80 485.559 84 492 84C498.441 84 504 80 504 80C504 80 509.559 76 516 76C522.441 76 528 80 528 80" stroke="#2F2D28" stroke-width="2"/>
<path d="M528 80C528 80 533.559 84 540 84C546.441 84 552 80 552 80C552 80 557.559 76 564 76C570.441 76 576 80 576 80" stroke="#2F2D28" stroke-width="2"/>
<path d="M576 80C576 80 581.559 84 588 84C594.441 84 600 80 600 80C600 80 605.559 76 612 76C618.441 76 624 80 624 80" stroke="#2F2D28" stroke-width="2"/>
<path d="M624 80C624 80 629.559 84 636 84C642.441 84 648 80 648 80C648 80 653.559 76 660 76C666.441 76 672 80 672 80" stroke="#2F2D28" stroke-width="2"/>
<path d="M672 80C672 80 677.559 84 684 84C690.441 84 696 80 696 80C696 80 701.559 76 708 76C714.441 76 720 80 720 80" stroke="#2F2D28" stroke-width="2"/>
<path d="M720 80C720 80 725.559 84 732 84C738.441 84 744 80 744 80C744 80 749.559 76 756 76C762.441 76 768 80 768 80" stroke="#2F2D28" stroke-width="2"/>
<path d="M768 80C768 80 773.559 84 780 84C786.441 84 792 80 792 80C792 80 797.559 76 804 76C810.441 76 816 80 816 80" stroke="#2F2D28" stroke-width="2"/>
<path d="M816 80C816 80 821.559 84 828 84C834.441 84 840 80 840 80C840 80 845.559 76 852 76C858.441 76 864 80 864 80" stroke="#2F2D28" stroke-width="2"/>
<path d="M864 80C864 80 869.559 84 876 84C882.441 84 888 80 888 80C888 80 893.559 76 900 76C906.441 76 912 80 912 80" stroke="#2F2D28" stroke-width="2"/>
<path d="M912 80C912 80 917.559 84 924 84C930.441 84 936 80 936 80C936 80 941.559 76 948 76C954.441 76 960 80 960 80" stroke="#2F2D28" stroke-width="2"/>
<path d="M-48 80C-48 80 -42.4407 84 -36 84C-29.5593 84 -24 80 -24 80C-24 80 -18.4407 76 -12 76C-5.55931 76 0 80 0 80" stroke="#2F2D28" stroke-width="2"/>
</g>
<g clip-path="url(#clip4_11_66)">
<rect y="32" width="954" height="32" fill="#1339FF"/>
<path d="M0 48C0 48 4.50704 52 8 52C11.493 52 16 48 16 48C16 48 20.507 44 24 44C27.493 44 32 48 32 48" stroke="#2F2D28" stroke-width="2"/>
<path d="M32 48C32 48 36.507 52 40 52C43.493 52 48 48 48 48C48 48 52.507 44 56 44C59.493 44 64 48 64 48" stroke="#2F2D28" stroke-width="2"/>
<path d="M64 48C64 48 68.507 52 72 52C75.493 52 80 48 80 48C80 48 84.507 44 88 44C91.493 44 96 48 96 48" stroke="#2F2D28" stroke-width="2"/>
<path d="M96 48C96 48 100.507 52 104 52C107.493 52 112 48 112 48C112 48 116.507 44 120 44C123.493 44 128 48 128 48" stroke="#2F2D28" stroke-width="2"/>
<path d="M128 48C128 48 132.507 52 136 52C139.493 52 144 48 144 48C144 48 148.507 44 152 44C155.493 44 160 48 160 48" stroke="#2F2D28" stroke-width="2"/>
<path d="M160 48C160 48 164.507 52 168 52C171.493 52 176 48 176 48C176 48 180.507 44 184 44C187.493 44 192 48 192 48" stroke="#2F2D28" stroke-width="2"/>
<path d="M192 48C192 48 196.507 52 200 52C203.493 52 208 48 208 48C208 48 212.507 44 216 44C219.493 44 224 48 224 48" stroke="#2F2D28" stroke-width="2"/>
<path d="M224 48C224 48 228.507 52 232 52C235.493 52 240 48 240 48C240 48 244.507 44 248 44C251.493 44 256 48 256 48" stroke="#2F2D28" stroke-width="2"/>
<path d="M256 48C256 48 260.507 52 264 52C267.493 52 272 48 272 48C272 48 276.507 44 280 44C283.493 44 288 48 288 48" stroke="#2F2D28" stroke-width="2"/>
<path d="M288 48C288 48 292.507 52 296 52C299.493 52 304 48 304 48C304 48 308.507 44 312 44C315.493 44 320 48 320 48" stroke="#2F2D28" stroke-width="2"/>
<path d="M320 48C320 48 324.507 52 328 52C331.493 52 336 48 336 48C336 48 340.507 44 344 44C347.493 44 352 48 352 48" stroke="#2F2D28" stroke-width="2"/>
<path d="M352 48C352 48 356.507 52 360 52C363.493 52 368 48 368 48C368 48 372.507 44 376 44C379.493 44 384 48 384 48" stroke="#2F2D28" stroke-width="2"/>
<path d="M384 48C384 48 388.507 52 392 52C395.493 52 400 48 400 48C400 48 404.507 44 408 44C411.493 44 416 48 416 48" stroke="#2F2D28" stroke-width="2"/>
<path d="M416 48C416 48 420.507 52 424 52C427.493 52 432 48 432 48C432 48 436.507 44 440 44C443.493 44 448 48 448 48" stroke="#2F2D28" stroke-width="2"/>
<path d="M448 48C448 48 452.507 52 456 52C459.493 52 464 48 464 48C464 48 468.507 44 472 44C475.493 44 480 48 480 48" stroke="#2F2D28" stroke-width="2"/>
<path d="M480 48C480 48 484.507 52 488 52C491.493 52 496 48 496 48C496 48 500.507 44 504 44C507.493 44 512 48 512 48" stroke="#2F2D28" stroke-width="2"/>
<path d="M512 48C512 48 516.507 52 520 52C523.493 52 528 48 528 48C528 48 532.507 44 536 44C539.493 44 544 48 544 48" stroke="#2F2D28" stroke-width="2"/>
<path d="M544 48C544 48 548.507 52 552 52C555.493 52 560 48 560 48C560 48 564.507 44 568 44C571.493 44 576 48 576 48" stroke="#2F2D28" stroke-width="2"/>
<path d="M576 48C576 48 580.507 52 584 52C587.493 52 592 48 592 48C592 48 596.507 44 600 44C603.493 44 608 48 608 48" stroke="#2F2D28" stroke-width="2"/>
<path d="M608 48C608 48 612.507 52 616 52C619.493 52 624 48 624 48C624 48 628.507 44 632 44C635.493 44 640 48 640 48" stroke="#2F2D28" stroke-width="2"/>
<path d="M640 48C640 48 644.507 52 648 52C651.493 52 656 48 656 48C656 48 660.507 44 664 44C667.493 44 672 48 672 48" stroke="#2F2D28" stroke-width="2"/>
<path d="M672 48C672 48 676.507 52 680 52C683.493 52 688 48 688 48C688 48 692.507 44 696 44C699.493 44 704 48 704 48" stroke="#2F2D28" stroke-width="2"/>
<path d="M704 48C704 48 708.507 52 712 52C715.493 52 720 48 720 48C720 48 724.507 44 728 44C731.493 44 736 48 736 48" stroke="#2F2D28" stroke-width="2"/>
<path d="M736 48C736 48 740.507 52 744 52C747.493 52 752 48 752 48C752 48 756.507 44 760 44C763.493 44 768 48 768 48" stroke="#2F2D28" stroke-width="2"/>
<path d="M768 48C768 48 772.507 52 776 52C779.493 52 784 48 784 48C784 48 788.507 44 792 44C795.493 44 800 48 800 48" stroke="#2F2D28" stroke-width="2"/>
<path d="M800 48C800 48 804.507 52 808 52C811.493 52 816 48 816 48C816 48 820.507 44 824 44C827.493 44 832 48 832 48" stroke="#2F2D28" stroke-width="2"/>
<path d="M832 48C832 48 836.507 52 840 52C843.493 52 848 48 848 48C848 48 852.507 44 856 44C859.493 44 864 48 864 48" stroke="#2F2D28" stroke-width="2"/>
<path d="M864 48C864 48 868.507 52 872 52C875.493 52 880 48 880 48C880 48 884.507 44 888 44C891.493 44 896 48 896 48" stroke="#2F2D28" stroke-width="2"/>
<path d="M896 48C896 48 900.507 52 904 52C907.493 52 912 48 912 48C912 48 916.507 44 920 44C923.493 44 928 48 928 48" stroke="#2F2D28" stroke-width="2"/>
<path d="M928 48C928 48 932.507 52 936 52C939.493 52 944 48 944 48C944 48 948.507 44 952 44C955.493 44 960 48 960 48" stroke="#2F2D28" stroke-width="2"/>
<path d="M-32 48C-32 48 -27.493 52 -24 52C-20.507 52 -16 48 -16 48C-16 48 -11.493 44 -8 44C-4.50704 44 0 48 0 48" stroke="#2F2D28" stroke-width="2"/>
</g>
<g clip-path="url(#clip5_11_66)">
<rect width="954" height="32" fill="#FF13F6"/>
<path d="M0 16C0 16 1.79086 20 4 20C6.20914 20 8 16 8 16C8 16 9.79086 12 12 12C14.2091 12 16 16 16 16" stroke="#2F2D28" stroke-width="2"/>
<path d="M16 16C16 16 17.7909 20 20 20C22.2091 20 24 16 24 16C24 16 25.7909 12 28 12C30.2091 12 32 16 32 16" stroke="#2F2D28" stroke-width="2"/>
<path d="M32 16C32 16 33.7909 20 36 20C38.2091 20 40 16 40 16C40 16 41.7909 12 44 12C46.2091 12 48 16 48 16" stroke="#2F2D28" stroke-width="2"/>
<path d="M48 16C48 16 49.7909 20 52 20C54.2091 20 56 16 56 16C56 16 57.7909 12 60 12C62.2091 12 64 16 64 16" stroke="#2F2D28" stroke-width="2"/>
<path d="M64 16C64 16 65.7909 20 68 20C70.2091 20 72 16 72 16C72 16 73.7909 12 76 12C78.2091 12 80 16 80 16" stroke="#2F2D28" stroke-width="2"/>
<path d="M80 16C80 16 81.7909 20 84 20C86.2091 20 88 16 88 16C88 16 89.7909 12 92 12C94.2091 12 96 16 96 16" stroke="#2F2D28" stroke-width="2"/>
<path d="M96 16C96 16 97.7909 20 100 20C102.209 20 104 16 104 16C104 16 105.791 12 108 12C110.209 12 112 16 112 16" stroke="#2F2D28" stroke-width="2"/>
<path d="M112 16C112 16 113.791 20 116 20C118.209 20 120 16 120 16C120 16 121.791 12 124 12C126.209 12 128 16 128 16" stroke="#2F2D28" stroke-width="2"/>
<path d="M128 16C128 16 129.791 20 132 20C134.209 20 136 16 136 16C136 16 137.791 12 140 12C142.209 12 144 16 144 16" stroke="#2F2D28" stroke-width="2"/>
<path d="M144 16C144 16 145.791 20 148 20C150.209 20 152 16 152 16C152 16 153.791 12 156 12C158.209 12 160 16 160 16" stroke="#2F2D28" stroke-width="2"/>
<path d="M160 16C160 16 161.791 20 164 20C166.209 20 168 16 168 16C168 16 169.791 12 172 12C174.209 12 176 16 176 16" stroke="#2F2D28" stroke-width="2"/>
<path d="M176 16C176 16 177.791 20 180 20C182.209 20 184 16 184 16C184 16 185.791 12 188 12C190.209 12 192 16 192 16" stroke="#2F2D28" stroke-width="2"/>
<path d="M192 16C192 16 193.791 20 196 20C198.209 20 200 16 200 16C200 16 201.791 12 204 12C206.209 12 208 16 208 16" stroke="#2F2D28" stroke-width="2"/>
<path d="M208 16C208 16 209.791 20 212 20C214.209 20 216 16 216 16C216 16 217.791 12 220 12C222.209 12 224 16 224 16" stroke="#2F2D28" stroke-width="2"/>
<path d="M224 16C224 16 225.791 20 228 20C230.209 20 232 16 232 16C232 16 233.791 12 236 12C238.209 12 240 16 240 16" stroke="#2F2D28" stroke-width="2"/>
<path d="M240 16C240 16 241.791 20 244 20C246.209 20 248 16 248 16C248 16 249.791 12 252 12C254.209 12 256 16 256 16" stroke="#2F2D28" stroke-width="2"/>
<path d="M256 16C256 16 257.791 20 260 20C262.209 20 264 16 264 16C264 16 265.791 12 268 12C270.209 12 272 16 272 16" stroke="#2F2D28" stroke-width="2"/>
<path d="M272 16C272 16 273.791 20 276 20C278.209 20 280 16 280 16C280 16 281.791 12 284 12C286.209 12 288 16 288 16" stroke="#2F2D28" stroke-width="2"/>
<path d="M288 16C288 16 289.791 20 292 20C294.209 20 296 16 296 16C296 16 297.791 12 300 12C302.209 12 304 16 304 16" stroke="#2F2D28" stroke-width="2"/>
<path d="M304 16C304 16 305.791 20 308 20C310.209 20 312 16 312 16C312 16 313.791 12 316 12C318.209 12 320 16 320 16" stroke="#2F2D28" stroke-width="2"/>
<path d="M320 16C320 16 321.791 20 324 20C326.209 20 328 16 328 16C328 16 329.791 12 332 12C334.209 12 336 16 336 16" stroke="#2F2D28" stroke-width="2"/>
<path d="M336 16C336 16 337.791 20 340 20C342.209 20 344 16 344 16C344 16 345.791 12 348 12C350.209 12 352 16 352 16" stroke="#2F2D28" stroke-width="2"/>
<path d="M352 16C352 16 353.791 20 356 20C358.209 20 360 16 360 16C360 16 361.791 12 364 12C366.209 12 368 16 368 16" stroke="#2F2D28" stroke-width="2"/>
<path d="M368 16C368 16 369.791 20 372 20C374.209 20 376 16 376 16C376 16 377.791 12 380 12C382.209 12 384 16 384 16" stroke="#2F2D28" stroke-width="2"/>
<path d="M384 16C384 16 385.791 20 388 20C390.209 20 392 16 392 16C392 16 393.791 12 396 12C398.209 12 400 16 400 16" stroke="#2F2D28" stroke-width="2"/>
<path d="M400 16C400 16 401.791 20 404 20C406.209 20 408 16 408 16C408 16 409.791 12 412 12C414.209 12 416 16 416 16" stroke="#2F2D28" stroke-width="2"/>
<path d="M416 16C416 16 417.791 20 420 20C422.209 20 424 16 424 16C424 16 425.791 12 428 12C430.209 12 432 16 432 16" stroke="#2F2D28" stroke-width="2"/>
<path d="M432 16C432 16 433.791 20 436 20C438.209 20 440 16 440 16C440 16 441.791 12 444 12C446.209 12 448 16 448 16" stroke="#2F2D28" stroke-width="2"/>
<path d="M448 16C448 16 449.791 20 452 20C454.209 20 456 16 456 16C456 16 457.791 12 460 12C462.209 12 464 16 464 16" stroke="#2F2D28" stroke-width="2"/>
<path d="M464 16C464 16 465.791 20 468 20C470.209 20 472 16 472 16C472 16 473.791 12 476 12C478.209 12 480 16 480 16" stroke="#2F2D28" stroke-width="2"/>
<path d="M480 16C480 16 481.791 20 484 20C486.209 20 488 16 488 16C488 16 489.791 12 492 12C494.209 12 496 16 496 16" stroke="#2F2D28" stroke-width="2"/>
<path d="M496 16C496 16 497.791 20 500 20C502.209 20 504 16 504 16C504 16 505.791 12 508 12C510.209 12 512 16 512 16" stroke="#2F2D28" stroke-width="2"/>
<path d="M512 16C512 16 513.791 20 516 20C518.209 20 520 16 520 16C520 16 521.791 12 524 12C526.209 12 528 16 528 16" stroke="#2F2D28" stroke-width="2"/>
<path d="M528 16C528 16 529.791 20 532 20C534.209 20 536 16 536 16C536 16 537.791 12 540 12C542.209 12 544 16 544 16" stroke="#2F2D28" stroke-width="2"/>
<path d="M544 16C544 16 545.791 20 548 20C550.209 20 552 16 552 16C552 16 553.791 12 556 12C558.209 12 560 16 560 16" stroke="#2F2D28" stroke-width="2"/>
<path d="M560 16C560 16 561.791 20 564 20C566.209 20 568 16 568 16C568 16 569.791 12 572 12C574.209 12 576 16 576 16" stroke="#2F2D28" stroke-width="2"/>
<path d="M576 16C576 16 577.791 20 580 20C582.209 20 584 16 584 16C584 16 585.791 12 588 12C590.209 12 592 16 592 16" stroke="#2F2D28" stroke-width="2"/>
<path d="M592 16C592 16 593.791 20 596 20C598.209 20 600 16 600 16C600 16 601.791 12 604 12C606.209 12 608 16 608 16" stroke="#2F2D28" stroke-width="2"/>
<path d="M608 16C608 16 609.791 20 612 20C614.209 20 616 16 616 16C616 16 617.791 12 620 12C622.209 12 624 16 624 16" stroke="#2F2D28" stroke-width="2"/>
<path d="M624 16C624 16 625.791 20 628 20C630.209 20 632 16 632 16C632 16 633.791 12 636 12C638.209 12 640 16 640 16" stroke="#2F2D28" stroke-width="2"/>
<path d="M640 16C640 16 641.791 20 644 20C646.209 20 648 16 648 16C648 16 649.791 12 652 12C654.209 12 656 16 656 16" stroke="#2F2D28" stroke-width="2"/>
<path d="M656 16C656 16 657.791 20 660 20C662.209 20 664 16 664 16C664 16 665.791 12 668 12C670.209 12 672 16 672 16" stroke="#2F2D28" stroke-width="2"/>
<path d="M672 16C672 16 673.791 20 676 20C678.209 20 680 16 680 16C680 16 681.791 12 684 12C686.209 12 688 16 688 16" stroke="#2F2D28" stroke-width="2"/>
<path d="M688 16C688 16 689.791 20 692 20C694.209 20 696 16 696 16C696 16 697.791 12 700 12C702.209 12 704 16 704 16" stroke="#2F2D28" stroke-width="2"/>
<path d="M704 16C704 16 705.791 20 708 20C710.209 20 712 16 712 16C712 16 713.791 12 716 12C718.209 12 720 16 720 16" stroke="#2F2D28" stroke-width="2"/>
<path d="M720 16C720 16 721.791 20 724 20C726.209 20 728 16 728 16C728 16 729.791 12 732 12C734.209 12 736 16 736 16" stroke="#2F2D28" stroke-width="2"/>
<path d="M736 16C736 16 737.791 20 740 20C742.209 20 744 16 744 16C744 16 745.791 12 748 12C750.209 12 752 16 752 16" stroke="#2F2D28" stroke-width="2"/>
<path d="M752 16C752 16 753.791 20 756 20C758.209 20 760 16 760 16C760 16 761.791 12 764 12C766.209 12 768 16 768 16" stroke="#2F2D28" stroke-width="2"/>
<path d="M768 16C768 16 769.791 20 772 20C774.209 20 776 16 776 16C776 16 777.791 12 780 12C782.209 12 784 16 784 16" stroke="#2F2D28" stroke-width="2"/>
<path d="M784 16C784 16 785.791 20 788 20C790.209 20 792 16 792 16C792 16 793.791 12 796 12C798.209 12 800 16 800 16" stroke="#2F2D28" stroke-width="2"/>
<path d="M800 16C800 16 801.791 20 804 20C806.209 20 808 16 808 16C808 16 809.791 12 812 12C814.209 12 816 16 816 16" stroke="#2F2D28" stroke-width="2"/>
<path d="M816 16C816 16 817.791 20 820 20C822.209 20 824 16 824 16C824 16 825.791 12 828 12C830.209 12 832 16 832 16" stroke="#2F2D28" stroke-width="2"/>
<path d="M832 16C832 16 833.791 20 836 20C838.209 20 840 16 840 16C840 16 841.791 12 844 12C846.209 12 848 16 848 16" stroke="#2F2D28" stroke-width="2"/>
<path d="M848 16C848 16 849.791 20 852 20C854.209 20 856 16 856 16C856 16 857.791 12 860 12C862.209 12 864 16 864 16" stroke="#2F2D28" stroke-width="2"/>
<path d="M864 16C864 16 865.791 20 868 20C870.209 20 872 16 872 16C872 16 873.791 12 876 12C878.209 12 880 16 880 16" stroke="#2F2D28" stroke-width="2"/>
<path d="M880 16C880 16 881.791 20 884 20C886.209 20 888 16 888 16C888 16 889.791 12 892 12C894.209 12 896 16 896 16" stroke="#2F2D28" stroke-width="2"/>
<path d="M896 16C896 16 897.791 20 900 20C902.209 20 904 16 904 16C904 16 905.791 12 908 12C910.209 12 912 16 912 16" stroke="#2F2D28" stroke-width="2"/>
<path d="M912 16C912 16 913.791 20 916 20C918.209 20 920 16 920 16C920 16 921.791 12 924 12C926.209 12 928 16 928 16" stroke="#2F2D28" stroke-width="2"/>
<path d="M928 16C928 16 929.791 20 932 20C934.209 20 936 16 936 16C936 16 937.791 12 940 12C942.209 12 944 16 944 16" stroke="#2F2D28" stroke-width="2"/>
<path d="M944 16C944 16 945.791 20 948 20C950.209 20 952 16 952 16C952 16 953.791 12 956 12C958.209 12 960 16 960 16" stroke="#2F2D28" stroke-width="2"/>
<path d="M-16 16C-16 16 -14.2091 20 -12 20C-9.79086 20 -8 16 -8 16C-8 16 -6.20914 12 -4 12C-1.79086 12 0 16 0 16" stroke="#2F2D28" stroke-width="2"/>
</g>
<g clip-path="url(#clip6_11_66)">
<rect y="192" width="954" height="32" fill="#FF1313"/>
<path d="M0 208C0 208 27.4287 212 40 212C52.5713 212 67.7259 210.717 80 208C80 208 107.406 204 120 204C132.594 204 160 208 160 208" stroke="#2F2D28" stroke-width="2"/>
<path d="M160 208C160 208 187.429 212 200 212C212.571 212 227.726 210.717 240 208C240 208 267.406 204 280 204C292.594 204 320 208 320 208" stroke="#2F2D28" stroke-width="2"/>
<path d="M320 208C320 208 347.429 212 360 212C372.571 212 387.726 210.717 400 208C400 208 427.406 204 440 204C452.594 204 480 208 480 208" stroke="#2F2D28" stroke-width="2"/>
<path d="M480 208C480 208 507.429 212 520 212C532.571 212 547.726 210.717 560 208C560 208 587.406 204 600 204C612.594 204 640 208 640 208" stroke="#2F2D28" stroke-width="2"/>
<path d="M640 208C640 208 667.429 212 680 212C692.571 212 707.726 210.717 720 208C720 208 747.406 204 760 204C772.594 204 800 208 800 208" stroke="#2F2D28" stroke-width="2"/>
<path d="M800 208C800 208 827.429 212 840 212C852.571 212 867.726 210.717 880 208C880 208 907.406 204 920 204C932.594 204 960 208 960 208" stroke="#2F2D28" stroke-width="2"/>
<path d="M-160 208C-160 208 -132.571 212 -120 212C-107.429 212 -92.2741 210.717 -80 208C-80 208 -52.594 204 -40 204C-27.406 204 0 208 0 208" stroke="#2F2D28" stroke-width="2"/>
</g>
<defs>
<clipPath id="clip0_11_66">
<rect width="954" height="32" fill="white" transform="translate(0 160)"/>
</clipPath>
<clipPath id="clip1_11_66">
<rect width="954" height="32" fill="white" transform="translate(0 128)"/>
</clipPath>
<clipPath id="clip2_11_66">
<rect width="954" height="32" fill="white" transform="translate(0 96)"/>
</clipPath>
<clipPath id="clip3_11_66">
<rect width="954" height="32" fill="white" transform="translate(0 64)"/>
</clipPath>
<clipPath id="clip4_11_66">
<rect width="954" height="32" fill="white" transform="translate(0 32)"/>
</clipPath>
<clipPath id="clip5_11_66">
<rect width="954" height="32" fill="white"/>
</clipPath>
<clipPath id="clip6_11_66">
<rect width="954" height="32" fill="white" transform="translate(0 192)"/>
</clipPath>
</defs>
</svg>
