<svg width="226" height="84" viewBox="0 0 226 84" fill="none" xmlns="http://www.w3.org/2000/svg">
<path d="M0 4C0 1.79086 1.79086 0 4 0H222C224.209 0 226 1.79086 226 4V28H0V4Z" fill="#F1F1F1"/>
<path d="M51.5645 10.9844C52.7819 10.9844 53.7292 11.3001 54.4062 11.9316C55.0898 12.5566 55.4316 13.5625 55.4316 14.9492V22H53.1367V15.3789C53.1367 14.5391 52.9642 13.9108 52.6191 13.4941C52.2741 13.071 51.7402 12.8594 51.0176 12.8594C49.9694 12.8594 49.2402 13.1816 48.8301 13.8262C48.4264 14.4707 48.2246 15.4049 48.2246 16.6289V22H45.9297V11.1895H47.7168L48.0391 12.6543H48.166C48.4004 12.2767 48.6901 11.9674 49.0352 11.7266C49.3867 11.4792 49.7773 11.2936 50.207 11.1699C50.6432 11.0462 51.0957 10.9844 51.5645 10.9844ZM60.9395 22H58.6445V11.1895H60.9395V22ZM63.127 6.67773V6.87305C62.9707 7.06185 62.7591 7.28971 62.4922 7.55664C62.2253 7.81706 61.9355 8.09375 61.623 8.38672C61.3105 8.67318 61.0013 8.94987 60.6953 9.2168C60.3893 9.47721 60.1126 9.69857 59.8652 9.88086H58.332V9.62695C58.5469 9.37956 58.7845 9.08333 59.0449 8.73828C59.3118 8.39323 59.5723 8.03841 59.8262 7.67383C60.0866 7.30924 60.3047 6.97721 60.4805 6.67773H63.127ZM71.4668 22H63.2539V20.584L68.7129 12.957H63.5859V11.1895H71.3105V12.752L65.959 20.2324H71.4668V22ZM76.0957 6.80469V14.1484C76.0957 14.4805 76.0827 14.8451 76.0566 15.2422C76.0306 15.6328 76.0046 16.0007 75.9785 16.3457H76.0273C76.1966 16.1178 76.3984 15.8509 76.6328 15.5449C76.8737 15.2389 77.1016 14.972 77.3164 14.7441L80.6172 11.1895H83.2539L78.9277 15.8379L83.5371 22H80.8418L77.3848 17.2539L76.0957 18.3574V22H73.8008V6.80469H76.0957ZM83.6348 11.1895H86.1348L88.3516 17.3613C88.4492 17.6413 88.5371 17.918 88.6152 18.1914C88.6999 18.4583 88.7715 18.722 88.8301 18.9824C88.8952 19.2428 88.9473 19.5033 88.9863 19.7637H89.0449C89.11 19.4251 89.2012 19.0475 89.3184 18.6309C89.4421 18.2077 89.5788 17.7845 89.7285 17.3613L91.8574 11.1895H94.3281L89.6895 23.4844C89.4225 24.1875 89.0938 24.7865 88.7031 25.2812C88.319 25.7826 87.8633 26.1602 87.3359 26.4141C86.8086 26.6745 86.2064 26.8047 85.5293 26.8047C85.2038 26.8047 84.9206 26.7852 84.6797 26.7461C84.4388 26.7135 84.2337 26.6777 84.0645 26.6387V24.8027C84.2012 24.8353 84.3737 24.8646 84.582 24.8906C84.7904 24.9167 85.0052 24.9297 85.2266 24.9297C85.6367 24.9297 85.9915 24.8483 86.291 24.6855C86.5905 24.5228 86.8444 24.2917 87.0527 23.9922C87.2611 23.6992 87.4336 23.3639 87.5703 22.9863L87.9512 21.9707L83.6348 11.1895ZM92.3066 6.67773V6.87305C92.1504 7.06185 91.9388 7.28971 91.6719 7.55664C91.4049 7.81706 91.1152 8.09375 90.8027 8.38672C90.4902 8.67318 90.181 8.94987 89.875 9.2168C89.569 9.47721 89.2923 9.69857 89.0449 9.88086H87.5117V9.62695C87.7266 9.37956 87.9642 9.08333 88.2246 8.73828C88.4915 8.39323 88.752 8.03841 89.0059 7.67383C89.2663 7.30924 89.4844 6.97721 89.6602 6.67773H92.3066ZM103.459 6.80469V14.1484C103.459 14.4805 103.446 14.8451 103.42 15.2422C103.394 15.6328 103.368 16.0007 103.342 16.3457H103.391C103.56 16.1178 103.762 15.8509 103.996 15.5449C104.237 15.2389 104.465 14.972 104.68 14.7441L107.98 11.1895H110.617L106.291 15.8379L110.9 22H108.205L104.748 17.2539L103.459 18.3574V22H101.164V6.80469H103.459ZM122.199 16.5703C122.199 17.4688 122.082 18.2663 121.848 18.9629C121.613 19.6595 121.271 20.2487 120.822 20.7305C120.373 21.2057 119.833 21.5703 119.201 21.8242C118.57 22.0716 117.857 22.1953 117.062 22.1953C116.32 22.1953 115.64 22.0716 115.021 21.8242C114.403 21.5703 113.866 21.2057 113.41 20.7305C112.961 20.2487 112.613 19.6595 112.365 18.9629C112.118 18.2663 111.994 17.4688 111.994 16.5703C111.994 15.3789 112.199 14.3698 112.609 13.543C113.026 12.7096 113.618 12.0749 114.387 11.6387C115.155 11.2025 116.07 10.9844 117.131 10.9844C118.127 10.9844 119.006 11.2025 119.768 11.6387C120.529 12.0749 121.125 12.7096 121.555 13.543C121.984 14.3763 122.199 15.3854 122.199 16.5703ZM114.357 16.5703C114.357 17.3581 114.452 18.0319 114.641 18.5918C114.836 19.1517 115.135 19.5814 115.539 19.8809C115.943 20.1738 116.464 20.3203 117.102 20.3203C117.74 20.3203 118.26 20.1738 118.664 19.8809C119.068 19.5814 119.364 19.1517 119.553 18.5918C119.742 18.0319 119.836 17.3581 119.836 16.5703C119.836 15.7826 119.742 15.1152 119.553 14.5684C119.364 14.015 119.068 13.5951 118.664 13.3086C118.26 13.0156 117.736 12.8691 117.092 12.8691C116.141 12.8691 115.448 13.1882 115.012 13.8262C114.576 14.4642 114.357 15.3789 114.357 16.5703ZM130.471 10.9844C131.688 10.9844 132.635 11.3001 133.312 11.9316C133.996 12.5566 134.338 13.5625 134.338 14.9492V22H132.043V15.3789C132.043 14.5391 131.87 13.9108 131.525 13.4941C131.18 13.071 130.646 12.8594 129.924 12.8594C128.876 12.8594 128.146 13.1816 127.736 13.8262C127.333 14.4707 127.131 15.4049 127.131 16.6289V22H124.836V11.1895H126.623L126.945 12.6543H127.072C127.307 12.2767 127.596 11.9674 127.941 11.7266C128.293 11.4792 128.684 11.2936 129.113 11.1699C129.549 11.0462 130.002 10.9844 130.471 10.9844ZM141.574 20.3398C141.874 20.3398 142.17 20.3138 142.463 20.2617C142.756 20.2031 143.023 20.1348 143.264 20.0566V21.7949C143.01 21.9056 142.681 22 142.277 22.0781C141.874 22.1562 141.454 22.1953 141.018 22.1953C140.406 22.1953 139.855 22.0944 139.367 21.8926C138.879 21.6842 138.492 21.3294 138.205 20.8281C137.919 20.3268 137.775 19.6335 137.775 18.748V12.9375H136.301V11.9121L137.883 11.1016L138.635 8.78711H140.08V11.1895H143.176V12.9375H140.08V18.7188C140.08 19.2656 140.217 19.6725 140.49 19.9395C140.764 20.2064 141.125 20.3398 141.574 20.3398ZM150.939 10.9844C151.122 10.9844 151.32 10.9941 151.535 11.0137C151.75 11.0332 151.936 11.0592 152.092 11.0918L151.877 13.2402C151.74 13.2012 151.571 13.1719 151.369 13.1523C151.174 13.1328 150.998 13.123 150.842 13.123C150.432 13.123 150.041 13.1914 149.67 13.3281C149.299 13.4583 148.97 13.6602 148.684 13.9336C148.397 14.2005 148.173 14.5358 148.01 14.9395C147.847 15.3431 147.766 15.8118 147.766 16.3457V22H145.461V11.1895H147.258L147.57 13.0938H147.678C147.893 12.7096 148.16 12.3581 148.479 12.0391C148.798 11.7201 149.162 11.4661 149.572 11.2773C149.989 11.082 150.445 10.9844 150.939 10.9844ZM158.332 10.9844C159.699 10.9844 160.731 11.2871 161.428 11.8926C162.131 12.498 162.482 13.4421 162.482 14.7246V22H160.852L160.412 20.4668H160.334C160.028 20.8574 159.712 21.1797 159.387 21.4336C159.061 21.6875 158.684 21.8763 158.254 22C157.831 22.1302 157.313 22.1953 156.701 22.1953C156.057 22.1953 155.48 22.0781 154.973 21.8438C154.465 21.6029 154.064 21.2383 153.771 20.75C153.479 20.2617 153.332 19.6432 153.332 18.8945C153.332 17.7812 153.745 16.9447 154.572 16.3848C155.406 15.8249 156.662 15.5156 158.342 15.457L160.217 15.3887V14.8223C160.217 14.0736 160.041 13.5397 159.689 13.2207C159.344 12.9017 158.856 12.7422 158.225 12.7422C157.684 12.7422 157.16 12.8203 156.652 12.9766C156.145 13.1328 155.65 13.3249 155.168 13.5527L154.426 11.9316C154.953 11.6517 155.552 11.4238 156.223 11.248C156.9 11.0723 157.603 10.9844 158.332 10.9844ZM160.207 16.834L158.811 16.8828C157.665 16.9219 156.861 17.1172 156.398 17.4688C155.936 17.8203 155.705 18.3021 155.705 18.9141C155.705 19.4479 155.865 19.8385 156.184 20.0859C156.503 20.3268 156.923 20.4473 157.443 20.4473C158.238 20.4473 158.895 20.2227 159.416 19.7734C159.943 19.3177 160.207 18.6504 160.207 17.7715V16.834ZM172.961 18.9141C172.961 19.6237 172.788 20.2227 172.443 20.7109C172.098 21.1992 171.594 21.5703 170.93 21.8242C170.272 22.0716 169.465 22.1953 168.508 22.1953C167.753 22.1953 167.102 22.14 166.555 22.0293C166.014 21.9251 165.503 21.7624 165.021 21.541V19.5586C165.536 19.7995 166.112 20.0078 166.75 20.1836C167.395 20.3594 168.003 20.4473 168.576 20.4473C169.331 20.4473 169.875 20.3301 170.207 20.0957C170.539 19.8548 170.705 19.5358 170.705 19.1387C170.705 18.9043 170.637 18.696 170.5 18.5137C170.37 18.3249 170.122 18.1328 169.758 17.9375C169.4 17.7357 168.872 17.4948 168.176 17.2148C167.492 16.9414 166.916 16.668 166.447 16.3945C165.979 16.1211 165.624 15.7923 165.383 15.4082C165.142 15.0176 165.021 14.5195 165.021 13.9141C165.021 12.957 165.399 12.2311 166.154 11.7363C166.916 11.235 167.922 10.9844 169.172 10.9844C169.836 10.9844 170.461 11.0527 171.047 11.1895C171.639 11.3197 172.219 11.5117 172.785 11.7656L172.062 13.4941C171.574 13.2793 171.083 13.1035 170.588 12.9668C170.1 12.8236 169.602 12.752 169.094 12.752C168.501 12.752 168.049 12.8431 167.736 13.0254C167.43 13.2077 167.277 13.4681 167.277 13.8066C167.277 14.0605 167.352 14.2754 167.502 14.4512C167.652 14.627 167.909 14.8027 168.273 14.9785C168.645 15.1543 169.159 15.3724 169.816 15.6328C170.461 15.8802 171.018 16.1406 171.486 16.4141C171.962 16.681 172.326 17.0098 172.58 17.4004C172.834 17.791 172.961 18.2956 172.961 18.9141ZM179.465 20.3398C179.764 20.3398 180.061 20.3138 180.354 20.2617C180.646 20.2031 180.913 20.1348 181.154 20.0566V21.7949C180.9 21.9056 180.572 22 180.168 22.0781C179.764 22.1562 179.344 22.1953 178.908 22.1953C178.296 22.1953 177.746 22.0944 177.258 21.8926C176.77 21.6842 176.382 21.3294 176.096 20.8281C175.809 20.3268 175.666 19.6335 175.666 18.748V12.9375H174.191V11.9121L175.773 11.1016L176.525 8.78711H177.971V11.1895H181.066V12.9375H177.971V18.7188C177.971 19.2656 178.107 19.6725 178.381 19.9395C178.654 20.2064 179.016 20.3398 179.465 20.3398Z" fill="#FCFEFE"/>
<rect y="28" width="226" height="28" fill="#7D7D7D"/>
<path d="M43.9277 46.9141C43.9277 47.6237 43.7552 48.2227 43.4102 48.7109C43.0651 49.1992 42.5605 49.5703 41.8965 49.8242C41.2389 50.0716 40.4316 50.1953 39.4746 50.1953C38.7194 50.1953 38.0684 50.14 37.5215 50.0293C36.9811 49.9251 36.4701 49.7624 35.9883 49.541V47.5586C36.5026 47.7995 37.0788 48.0078 37.7168 48.1836C38.3613 48.3594 38.9701 48.4473 39.543 48.4473C40.2982 48.4473 40.8418 48.3301 41.1738 48.0957C41.5059 47.8548 41.6719 47.5358 41.6719 47.1387C41.6719 46.9043 41.6035 46.696 41.4668 46.5137C41.3366 46.3249 41.0892 46.1328 40.7246 45.9375C40.3665 45.7357 39.8392 45.4948 39.1426 45.2148C38.459 44.9414 37.8828 44.668 37.4141 44.3945C36.9453 44.1211 36.5905 43.7923 36.3496 43.4082C36.1087 43.0176 35.9883 42.5195 35.9883 41.9141C35.9883 40.957 36.3659 40.2311 37.1211 39.7363C37.8828 39.235 38.8887 38.9844 40.1387 38.9844C40.8027 38.9844 41.4277 39.0527 42.0137 39.1895C42.6061 39.3197 43.1855 39.5117 43.752 39.7656L43.0293 41.4941C42.541 41.2793 42.0495 41.1035 41.5547 40.9668C41.0664 40.8236 40.5684 40.752 40.0605 40.752C39.4681 40.752 39.0156 40.8431 38.7031 41.0254C38.3971 41.2077 38.2441 41.4681 38.2441 41.8066C38.2441 42.0605 38.319 42.2754 38.4688 42.4512C38.6185 42.627 38.8757 42.8027 39.2402 42.9785C39.6113 43.1543 40.1257 43.3724 40.7832 43.6328C41.4277 43.8802 41.9844 44.1406 42.4531 44.4141C42.9284 44.681 43.293 45.0098 43.5469 45.4004C43.8008 45.791 43.9277 46.2956 43.9277 46.9141ZM50.4316 48.3398C50.7311 48.3398 51.0273 48.3138 51.3203 48.2617C51.6133 48.2031 51.8802 48.1348 52.1211 48.0566V49.7949C51.8672 49.9056 51.5384 50 51.1348 50.0781C50.7311 50.1562 50.3112 50.1953 49.875 50.1953C49.263 50.1953 48.7129 50.0944 48.2246 49.8926C47.7363 49.6842 47.349 49.3294 47.0625 48.8281C46.776 48.3268 46.6328 47.6335 46.6328 46.748V40.9375H45.1582V39.9121L46.7402 39.1016L47.4922 36.7871H48.9375V39.1895H52.0332V40.9375H48.9375V46.7188C48.9375 47.2656 49.0742 47.6725 49.3477 47.9395C49.6211 48.2064 49.9824 48.3398 50.4316 48.3398ZM59.7969 38.9844C59.9792 38.9844 60.1777 38.9941 60.3926 39.0137C60.6074 39.0332 60.793 39.0592 60.9492 39.0918L60.7344 41.2402C60.5977 41.2012 60.4284 41.1719 60.2266 41.1523C60.0312 41.1328 59.8555 41.123 59.6992 41.123C59.2891 41.123 58.8984 41.1914 58.5273 41.3281C58.1562 41.4583 57.8275 41.6602 57.541 41.9336C57.2546 42.2005 57.0299 42.5358 56.8672 42.9395C56.7044 43.3431 56.623 43.8118 56.623 44.3457V50H54.3184V39.1895H56.1152L56.4277 41.0938H56.5352C56.75 40.7096 57.0169 40.3581 57.3359 40.0391C57.6549 39.7201 58.0195 39.4661 58.4297 39.2773C58.8464 39.082 59.3021 38.9844 59.7969 38.9844ZM56.3203 37.8809C56.1445 37.5814 55.9069 37.2526 55.6074 36.8945C55.3145 36.5299 55.0085 36.1751 54.6895 35.8301C54.377 35.485 54.097 35.1855 53.8496 34.9316V34.6777H55.4023C55.7474 34.9121 56.112 35.1855 56.4961 35.498C56.8867 35.804 57.2513 36.1361 57.5898 36.4941C57.9349 36.1361 58.3027 35.8008 58.6934 35.4883C59.0905 35.1758 59.4648 34.9056 59.8164 34.6777H61.3789V34.9316C61.1315 35.179 60.8451 35.4785 60.5195 35.8301C60.2005 36.1751 59.8913 36.5299 59.5918 36.8945C59.2988 37.2526 59.0645 37.5814 58.8887 37.8809H56.3203ZM67.2578 38.9844C68.2214 38.9844 69.0482 39.1829 69.7383 39.5801C70.4284 39.9772 70.959 40.5404 71.3301 41.2695C71.7012 41.9987 71.8867 42.8711 71.8867 43.8867V45.1172H64.6699C64.696 46.1654 64.9759 46.9727 65.5098 47.5391C66.0501 48.1055 66.8053 48.3887 67.7754 48.3887C68.4655 48.3887 69.084 48.3236 69.6309 48.1934C70.1842 48.0566 70.7539 47.8581 71.3398 47.5977V49.4629C70.7995 49.7168 70.2493 49.9023 69.6895 50.0195C69.1296 50.1367 68.459 50.1953 67.6777 50.1953C66.6165 50.1953 65.6823 49.9902 64.875 49.5801C64.0742 49.1634 63.446 48.5449 62.9902 47.7246C62.541 46.9043 62.3164 45.8854 62.3164 44.668C62.3164 43.457 62.5215 42.4284 62.9316 41.582C63.3418 40.7357 63.918 40.0911 64.6602 39.6484C65.4023 39.2057 66.2682 38.9844 67.2578 38.9844ZM67.2578 40.7129C66.5352 40.7129 65.9492 40.9473 65.5 41.416C65.0573 41.8848 64.7969 42.5716 64.7188 43.4766H69.6406C69.6341 42.9362 69.543 42.4577 69.3672 42.041C69.1979 41.6243 68.9375 41.2988 68.5859 41.0645C68.2409 40.8301 67.7982 40.7129 67.2578 40.7129ZM78.1074 50.1953C76.8184 50.1953 75.7832 49.7266 75.002 48.7891C74.2272 47.8451 73.8398 46.4551 73.8398 44.6191C73.8398 42.7637 74.2337 41.3607 75.0215 40.4102C75.8158 39.4596 76.8607 38.9844 78.1562 38.9844C78.7031 38.9844 79.1816 39.0592 79.5918 39.209C80.002 39.3522 80.3535 39.5475 80.6465 39.7949C80.946 40.0423 81.1999 40.319 81.4082 40.625H81.5156C81.4831 40.4232 81.444 40.1335 81.3984 39.7559C81.3594 39.3717 81.3398 39.0169 81.3398 38.6914V34.8047H83.6445V50H81.8477L81.4375 48.5254H81.3398C81.1445 48.8379 80.8971 49.1211 80.5977 49.375C80.3047 49.6224 79.9531 49.821 79.543 49.9707C79.1393 50.1204 78.6608 50.1953 78.1074 50.1953ZM78.752 48.3301C79.735 48.3301 80.4284 48.0469 80.832 47.4805C81.2357 46.9141 81.444 46.0645 81.457 44.9316V44.6289C81.457 43.418 81.2617 42.4902 80.8711 41.8457C80.4805 41.1947 79.7676 40.8691 78.7324 40.8691C77.9056 40.8691 77.2741 41.2044 76.8379 41.875C76.4082 42.5391 76.1934 43.4668 76.1934 44.6582C76.1934 45.8496 76.4082 46.7611 76.8379 47.3926C77.2741 48.0176 77.9121 48.3301 78.752 48.3301ZM92.5703 38.9844C93.7878 38.9844 94.735 39.3001 95.4121 39.9316C96.0957 40.5566 96.4375 41.5625 96.4375 42.9492V50H94.1426V43.3789C94.1426 42.5391 93.9701 41.9108 93.625 41.4941C93.2799 41.071 92.7461 40.8594 92.0234 40.8594C90.9753 40.8594 90.2461 41.1816 89.8359 41.8262C89.4323 42.4707 89.2305 43.4049 89.2305 44.6289V50H86.9355V39.1895H88.7227L89.0449 40.6543H89.1719C89.4062 40.2767 89.696 39.9674 90.041 39.7266C90.3926 39.4792 90.7832 39.2936 91.2129 39.1699C91.6491 39.0462 92.1016 38.9844 92.5703 38.9844ZM101.945 50H99.6504V39.1895H101.945V50ZM104.133 34.6777V34.873C103.977 35.0618 103.765 35.2897 103.498 35.5566C103.231 35.8171 102.941 36.0938 102.629 36.3867C102.316 36.6732 102.007 36.9499 101.701 37.2168C101.395 37.4772 101.118 37.6986 100.871 37.8809H99.3379V37.627C99.5527 37.3796 99.7904 37.0833 100.051 36.7383C100.318 36.3932 100.578 36.0384 100.832 35.6738C101.092 35.3092 101.311 34.9772 101.486 34.6777H104.133ZM112.727 34.8047V42.1484C112.727 42.4805 112.714 42.8451 112.688 43.2422C112.661 43.6328 112.635 44.0007 112.609 44.3457H112.658C112.827 44.1178 113.029 43.8509 113.264 43.5449C113.505 43.2389 113.732 42.972 113.947 42.7441L117.248 39.1895H119.885L115.559 43.8379L120.168 50H117.473L114.016 45.2539L112.727 46.3574V50H110.432V34.8047H112.727ZM131.467 44.5703C131.467 45.4688 131.35 46.2663 131.115 46.9629C130.881 47.6595 130.539 48.2487 130.09 48.7305C129.641 49.2057 129.1 49.5703 128.469 49.8242C127.837 50.0716 127.124 50.1953 126.33 50.1953C125.588 50.1953 124.908 50.0716 124.289 49.8242C123.671 49.5703 123.133 49.2057 122.678 48.7305C122.229 48.2487 121.88 47.6595 121.633 46.9629C121.385 46.2663 121.262 45.4688 121.262 44.5703C121.262 43.3789 121.467 42.3698 121.877 41.543C122.294 40.7096 122.886 40.0749 123.654 39.6387C124.423 39.2025 125.337 38.9844 126.398 38.9844C127.395 38.9844 128.273 39.2025 129.035 39.6387C129.797 40.0749 130.393 40.7096 130.822 41.543C131.252 42.3763 131.467 43.3854 131.467 44.5703ZM123.625 44.5703C123.625 45.3581 123.719 46.0319 123.908 46.5918C124.104 47.1517 124.403 47.5814 124.807 47.8809C125.21 48.1738 125.731 48.3203 126.369 48.3203C127.007 48.3203 127.528 48.1738 127.932 47.8809C128.335 47.5814 128.632 47.1517 128.82 46.5918C129.009 46.0319 129.104 45.3581 129.104 44.5703C129.104 43.7826 129.009 43.1152 128.82 42.5684C128.632 42.015 128.335 41.5951 127.932 41.3086C127.528 41.0156 127.004 40.8691 126.359 40.8691C125.409 40.8691 124.715 41.1882 124.279 41.8262C123.843 42.4642 123.625 43.3789 123.625 44.5703ZM139.738 38.9844C140.956 38.9844 141.903 39.3001 142.58 39.9316C143.264 40.5566 143.605 41.5625 143.605 42.9492V50H141.311V43.3789C141.311 42.5391 141.138 41.9108 140.793 41.4941C140.448 41.071 139.914 40.8594 139.191 40.8594C138.143 40.8594 137.414 41.1816 137.004 41.8262C136.6 42.4707 136.398 43.4049 136.398 44.6289V50H134.104V39.1895H135.891L136.213 40.6543H136.34C136.574 40.2767 136.864 39.9674 137.209 39.7266C137.561 39.4792 137.951 39.2936 138.381 39.1699C138.817 39.0462 139.27 38.9844 139.738 38.9844ZM150.842 48.3398C151.141 48.3398 151.438 48.3138 151.73 48.2617C152.023 48.2031 152.29 48.1348 152.531 48.0566V49.7949C152.277 49.9056 151.949 50 151.545 50.0781C151.141 50.1562 150.721 50.1953 150.285 50.1953C149.673 50.1953 149.123 50.0944 148.635 49.8926C148.146 49.6842 147.759 49.3294 147.473 48.8281C147.186 48.3268 147.043 47.6335 147.043 46.748V40.9375H145.568V39.9121L147.15 39.1016L147.902 36.7871H149.348V39.1895H152.443V40.9375H149.348V46.7188C149.348 47.2656 149.484 47.6725 149.758 47.9395C150.031 48.2064 150.393 48.3398 150.842 48.3398ZM160.207 38.9844C160.389 38.9844 160.588 38.9941 160.803 39.0137C161.018 39.0332 161.203 39.0592 161.359 39.0918L161.145 41.2402C161.008 41.2012 160.839 41.1719 160.637 41.1523C160.441 41.1328 160.266 41.123 160.109 41.123C159.699 41.123 159.309 41.1914 158.938 41.3281C158.566 41.4583 158.238 41.6602 157.951 41.9336C157.665 42.2005 157.44 42.5358 157.277 42.9395C157.115 43.3431 157.033 43.8118 157.033 44.3457V50H154.729V39.1895H156.525L156.838 41.0938H156.945C157.16 40.7096 157.427 40.3581 157.746 40.0391C158.065 39.7201 158.43 39.4661 158.84 39.2773C159.257 39.082 159.712 38.9844 160.207 38.9844ZM167.6 38.9844C168.967 38.9844 169.999 39.2871 170.695 39.8926C171.398 40.498 171.75 41.4421 171.75 42.7246V50H170.119L169.68 48.4668H169.602C169.296 48.8574 168.98 49.1797 168.654 49.4336C168.329 49.6875 167.951 49.8763 167.521 50C167.098 50.1302 166.581 50.1953 165.969 50.1953C165.324 50.1953 164.748 50.0781 164.24 49.8438C163.732 49.6029 163.332 49.2383 163.039 48.75C162.746 48.2617 162.6 47.6432 162.6 46.8945C162.6 45.7812 163.013 44.9447 163.84 44.3848C164.673 43.8249 165.93 43.5156 167.609 43.457L169.484 43.3887V42.8223C169.484 42.0736 169.309 41.5397 168.957 41.2207C168.612 40.9017 168.124 40.7422 167.492 40.7422C166.952 40.7422 166.428 40.8203 165.92 40.9766C165.412 41.1328 164.917 41.3249 164.436 41.5527L163.693 39.9316C164.221 39.6517 164.82 39.4238 165.49 39.248C166.167 39.0723 166.87 38.9844 167.6 38.9844ZM169.475 44.834L168.078 44.8828C166.932 44.9219 166.128 45.1172 165.666 45.4688C165.204 45.8203 164.973 46.3021 164.973 46.9141C164.973 47.4479 165.132 47.8385 165.451 48.0859C165.77 48.3268 166.19 48.4473 166.711 48.4473C167.505 48.4473 168.163 48.2227 168.684 47.7734C169.211 47.3177 169.475 46.6504 169.475 45.7715V44.834ZM182.229 46.9141C182.229 47.6237 182.056 48.2227 181.711 48.7109C181.366 49.1992 180.861 49.5703 180.197 49.8242C179.54 50.0716 178.732 50.1953 177.775 50.1953C177.02 50.1953 176.369 50.14 175.822 50.0293C175.282 49.9251 174.771 49.7624 174.289 49.541V47.5586C174.803 47.7995 175.38 48.0078 176.018 48.1836C176.662 48.3594 177.271 48.4473 177.844 48.4473C178.599 48.4473 179.143 48.3301 179.475 48.0957C179.807 47.8548 179.973 47.5358 179.973 47.1387C179.973 46.9043 179.904 46.696 179.768 46.5137C179.637 46.3249 179.39 46.1328 179.025 45.9375C178.667 45.7357 178.14 45.4948 177.443 45.2148C176.76 44.9414 176.184 44.668 175.715 44.3945C175.246 44.1211 174.891 43.7923 174.65 43.4082C174.41 43.0176 174.289 42.5195 174.289 41.9141C174.289 40.957 174.667 40.2311 175.422 39.7363C176.184 39.235 177.189 38.9844 178.439 38.9844C179.104 38.9844 179.729 39.0527 180.314 39.1895C180.907 39.3197 181.486 39.5117 182.053 39.7656L181.33 41.4941C180.842 41.2793 180.35 41.1035 179.855 40.9668C179.367 40.8236 178.869 40.752 178.361 40.752C177.769 40.752 177.316 40.8431 177.004 41.0254C176.698 41.2077 176.545 41.4681 176.545 41.8066C176.545 42.0605 176.62 42.2754 176.77 42.4512C176.919 42.627 177.176 42.8027 177.541 42.9785C177.912 43.1543 178.426 43.3724 179.084 43.6328C179.729 43.8802 180.285 44.1406 180.754 44.4141C181.229 44.681 181.594 45.0098 181.848 45.4004C182.102 45.791 182.229 46.2956 182.229 46.9141ZM188.732 48.3398C189.032 48.3398 189.328 48.3138 189.621 48.2617C189.914 48.2031 190.181 48.1348 190.422 48.0566V49.7949C190.168 49.9056 189.839 50 189.436 50.0781C189.032 50.1562 188.612 50.1953 188.176 50.1953C187.564 50.1953 187.014 50.0944 186.525 49.8926C186.037 49.6842 185.65 49.3294 185.363 48.8281C185.077 48.3268 184.934 47.6335 184.934 46.748V40.9375H183.459V39.9121L185.041 39.1016L185.793 36.7871H187.238V39.1895H190.334V40.9375H187.238V46.7188C187.238 47.2656 187.375 47.6725 187.648 47.9395C187.922 48.2064 188.283 48.3398 188.732 48.3398Z" fill="#FCFEFE"/>
<path d="M0 56H226V80C226 82.2091 224.209 84 222 84H4C1.79086 84 0 82.2091 0 80V56Z" fill="black"/>
<path d="M40.666 78L36.5547 67.1895H38.9863L41.2129 73.5371C41.3561 73.9408 41.4863 74.377 41.6035 74.8457C41.7207 75.3145 41.8021 75.7083 41.8477 76.0273H41.9258C41.9714 75.6953 42.0592 75.2982 42.1895 74.8359C42.3197 74.3672 42.4531 73.9342 42.5898 73.5371L44.8164 67.1895H47.2383L43.127 78H40.666ZM47.248 67.1895H49.748L51.9648 73.3613C52.0625 73.6413 52.1504 73.918 52.2285 74.1914C52.3132 74.4583 52.3848 74.722 52.4434 74.9824C52.5085 75.2428 52.5605 75.5033 52.5996 75.7637H52.6582C52.7233 75.4251 52.8145 75.0475 52.9316 74.6309C53.0553 74.2077 53.1921 73.7845 53.3418 73.3613L55.4707 67.1895H57.9414L53.3027 79.4844C53.0358 80.1875 52.707 80.7865 52.3164 81.2812C51.9323 81.7826 51.4766 82.1602 50.9492 82.4141C50.4219 82.6745 49.8197 82.8047 49.1426 82.8047C48.8171 82.8047 48.5339 82.7852 48.293 82.7461C48.0521 82.7135 47.847 82.6777 47.6777 82.6387V80.8027C47.8145 80.8353 47.987 80.8646 48.1953 80.8906C48.4036 80.9167 48.6185 80.9297 48.8398 80.9297C49.25 80.9297 49.6048 80.8483 49.9043 80.6855C50.2038 80.5228 50.4577 80.2917 50.666 79.9922C50.8743 79.6992 51.0469 79.3639 51.1836 78.9863L51.5645 77.9707L47.248 67.1895ZM66.8477 74.9141C66.8477 75.6237 66.6751 76.2227 66.3301 76.7109C65.985 77.1992 65.4805 77.5703 64.8164 77.8242C64.1589 78.0716 63.3516 78.1953 62.3945 78.1953C61.6393 78.1953 60.9883 78.14 60.4414 78.0293C59.901 77.9251 59.39 77.7624 58.9082 77.541V75.5586C59.4225 75.7995 59.9987 76.0078 60.6367 76.1836C61.2812 76.3594 61.89 76.4473 62.4629 76.4473C63.2181 76.4473 63.7617 76.3301 64.0938 76.0957C64.4258 75.8548 64.5918 75.5358 64.5918 75.1387C64.5918 74.9043 64.5234 74.696 64.3867 74.5137C64.2565 74.3249 64.0091 74.1328 63.6445 73.9375C63.2865 73.7357 62.7591 73.4948 62.0625 73.2148C61.3789 72.9414 60.8027 72.668 60.334 72.3945C59.8652 72.1211 59.5104 71.7923 59.2695 71.4082C59.0286 71.0176 58.9082 70.5195 58.9082 69.9141C58.9082 68.957 59.2858 68.2311 60.041 67.7363C60.8027 67.235 61.8086 66.9844 63.0586 66.9844C63.7227 66.9844 64.3477 67.0527 64.9336 67.1895C65.526 67.3197 66.1055 67.5117 66.6719 67.7656L65.9492 69.4941C65.4609 69.2793 64.9694 69.1035 64.4746 68.9668C63.9863 68.8236 63.4883 68.752 62.9805 68.752C62.388 68.752 61.9355 68.8431 61.623 69.0254C61.3171 69.2077 61.1641 69.4681 61.1641 69.8066C61.1641 70.0605 61.2389 70.2754 61.3887 70.4512C61.5384 70.627 61.7956 70.8027 62.1602 70.9785C62.5312 71.1543 63.0456 71.3724 63.7031 71.6328C64.3477 71.8802 64.9043 72.1406 65.373 72.4141C65.8483 72.681 66.2129 73.0098 66.4668 73.4004C66.7207 73.791 66.8477 74.2956 66.8477 74.9141ZM78.8984 72.5703C78.8984 73.4688 78.7812 74.2663 78.5469 74.9629C78.3125 75.6595 77.9707 76.2487 77.5215 76.7305C77.0723 77.2057 76.5319 77.5703 75.9004 77.8242C75.2689 78.0716 74.556 78.1953 73.7617 78.1953C73.0195 78.1953 72.3392 78.0716 71.7207 77.8242C71.1022 77.5703 70.5651 77.2057 70.1094 76.7305C69.6602 76.2487 69.3118 75.6595 69.0645 74.9629C68.8171 74.2663 68.6934 73.4688 68.6934 72.5703C68.6934 71.3789 68.8984 70.3698 69.3086 69.543C69.7253 68.7096 70.3177 68.0749 71.0859 67.6387C71.8542 67.2025 72.7689 66.9844 73.8301 66.9844C74.8262 66.9844 75.7051 67.2025 76.4668 67.6387C77.2285 68.0749 77.8242 68.7096 78.2539 69.543C78.6836 70.3763 78.8984 71.3854 78.8984 72.5703ZM71.0566 72.5703C71.0566 73.3581 71.151 74.0319 71.3398 74.5918C71.5352 75.1517 71.8346 75.5814 72.2383 75.8809C72.6419 76.1738 73.1628 76.3203 73.8008 76.3203C74.4388 76.3203 74.9596 76.1738 75.3633 75.8809C75.7669 75.5814 76.0632 75.1517 76.252 74.5918C76.4408 74.0319 76.5352 73.3581 76.5352 72.5703C76.5352 71.7826 76.4408 71.1152 76.252 70.5684C76.0632 70.015 75.7669 69.5951 75.3633 69.3086C74.9596 69.0156 74.4355 68.8691 73.791 68.8691C72.8405 68.8691 72.1471 69.1882 71.7109 69.8262C71.2747 70.4642 71.0566 71.3789 71.0566 72.5703ZM83.8301 62.8047V70.1484C83.8301 70.4805 83.8171 70.8451 83.791 71.2422C83.765 71.6328 83.7389 72.0007 83.7129 72.3457H83.7617C83.931 72.1178 84.1328 71.8509 84.3672 71.5449C84.6081 71.2389 84.8359 70.972 85.0508 70.7441L88.3516 67.1895H90.9883L86.6621 71.8379L91.2715 78H88.5762L85.1191 73.2539L83.8301 74.3574V78H81.5352V62.8047H83.8301ZM91.3691 67.1895H93.8691L96.0859 73.3613C96.1836 73.6413 96.2715 73.918 96.3496 74.1914C96.4342 74.4583 96.5059 74.722 96.5645 74.9824C96.6296 75.2428 96.6816 75.5033 96.7207 75.7637H96.7793C96.8444 75.4251 96.9355 75.0475 97.0527 74.6309C97.1764 74.2077 97.3132 73.7845 97.4629 73.3613L99.5918 67.1895H102.062L97.4238 79.4844C97.1569 80.1875 96.8281 80.7865 96.4375 81.2812C96.0534 81.7826 95.5977 82.1602 95.0703 82.4141C94.543 82.6745 93.9408 82.8047 93.2637 82.8047C92.9382 82.8047 92.6549 82.7852 92.4141 82.7461C92.1732 82.7135 91.9681 82.6777 91.7988 82.6387V80.8027C91.9355 80.8353 92.1081 80.8646 92.3164 80.8906C92.5247 80.9167 92.7396 80.9297 92.9609 80.9297C93.3711 80.9297 93.7259 80.8483 94.0254 80.6855C94.3249 80.5228 94.5788 80.2917 94.7871 79.9922C94.9954 79.6992 95.168 79.3639 95.3047 78.9863L95.6855 77.9707L91.3691 67.1895ZM100.041 62.6777V62.873C99.8848 63.0618 99.6732 63.2897 99.4062 63.5566C99.1393 63.8171 98.8496 64.0938 98.5371 64.3867C98.2246 64.6732 97.9154 64.9499 97.6094 65.2168C97.3034 65.4772 97.0267 65.6986 96.7793 65.8809H95.2461V65.627C95.4609 65.3796 95.6986 65.0833 95.959 64.7383C96.2259 64.3932 96.4863 64.0384 96.7402 63.6738C97.0007 63.3092 97.2188 62.9772 97.3945 62.6777H100.041ZM111.193 62.8047V70.1484C111.193 70.4805 111.18 70.8451 111.154 71.2422C111.128 71.6328 111.102 72.0007 111.076 72.3457H111.125C111.294 72.1178 111.496 71.8509 111.73 71.5449C111.971 71.2389 112.199 70.972 112.414 70.7441L115.715 67.1895H118.352L114.025 71.8379L118.635 78H115.939L112.482 73.2539L111.193 74.3574V78H108.898V62.8047H111.193ZM129.934 72.5703C129.934 73.4688 129.816 74.2663 129.582 74.9629C129.348 75.6595 129.006 76.2487 128.557 76.7305C128.107 77.2057 127.567 77.5703 126.936 77.8242C126.304 78.0716 125.591 78.1953 124.797 78.1953C124.055 78.1953 123.374 78.0716 122.756 77.8242C122.137 77.5703 121.6 77.2057 121.145 76.7305C120.695 76.2487 120.347 75.6595 120.1 74.9629C119.852 74.2663 119.729 73.4688 119.729 72.5703C119.729 71.3789 119.934 70.3698 120.344 69.543C120.76 68.7096 121.353 68.0749 122.121 67.6387C122.889 67.2025 123.804 66.9844 124.865 66.9844C125.861 66.9844 126.74 67.2025 127.502 67.6387C128.264 68.0749 128.859 68.7096 129.289 69.543C129.719 70.3763 129.934 71.3854 129.934 72.5703ZM122.092 72.5703C122.092 73.3581 122.186 74.0319 122.375 74.5918C122.57 75.1517 122.87 75.5814 123.273 75.8809C123.677 76.1738 124.198 76.3203 124.836 76.3203C125.474 76.3203 125.995 76.1738 126.398 75.8809C126.802 75.5814 127.098 75.1517 127.287 74.5918C127.476 74.0319 127.57 73.3581 127.57 72.5703C127.57 71.7826 127.476 71.1152 127.287 70.5684C127.098 70.015 126.802 69.5951 126.398 69.3086C125.995 69.0156 125.471 68.8691 124.826 68.8691C123.876 68.8691 123.182 69.1882 122.746 69.8262C122.31 70.4642 122.092 71.3789 122.092 72.5703ZM138.205 66.9844C139.423 66.9844 140.37 67.3001 141.047 67.9316C141.73 68.5566 142.072 69.5625 142.072 70.9492V78H139.777V71.3789C139.777 70.5391 139.605 69.9108 139.26 69.4941C138.915 69.071 138.381 68.8594 137.658 68.8594C136.61 68.8594 135.881 69.1816 135.471 69.8262C135.067 70.4707 134.865 71.4049 134.865 72.6289V78H132.57V67.1895H134.357L134.68 68.6543H134.807C135.041 68.2767 135.331 67.9674 135.676 67.7266C136.027 67.4792 136.418 67.2936 136.848 67.1699C137.284 67.0462 137.736 66.9844 138.205 66.9844ZM149.309 76.3398C149.608 76.3398 149.904 76.3138 150.197 76.2617C150.49 76.2031 150.757 76.1348 150.998 76.0566V77.7949C150.744 77.9056 150.415 78 150.012 78.0781C149.608 78.1562 149.188 78.1953 148.752 78.1953C148.14 78.1953 147.59 78.0944 147.102 77.8926C146.613 77.6842 146.226 77.3294 145.939 76.8281C145.653 76.3268 145.51 75.6335 145.51 74.748V68.9375H144.035V67.9121L145.617 67.1016L146.369 64.7871H147.814V67.1895H150.91V68.9375H147.814V74.7188C147.814 75.2656 147.951 75.6725 148.225 75.9395C148.498 76.2064 148.859 76.3398 149.309 76.3398ZM158.674 66.9844C158.856 66.9844 159.055 66.9941 159.27 67.0137C159.484 67.0332 159.67 67.0592 159.826 67.0918L159.611 69.2402C159.475 69.2012 159.305 69.1719 159.104 69.1523C158.908 69.1328 158.732 69.123 158.576 69.123C158.166 69.123 157.775 69.1914 157.404 69.3281C157.033 69.4583 156.704 69.6602 156.418 69.9336C156.132 70.2005 155.907 70.5358 155.744 70.9395C155.581 71.3431 155.5 71.8118 155.5 72.3457V78H153.195V67.1895H154.992L155.305 69.0938H155.412C155.627 68.7096 155.894 68.3581 156.213 68.0391C156.532 67.7201 156.896 67.4661 157.307 67.2773C157.723 67.082 158.179 66.9844 158.674 66.9844ZM166.066 66.9844C167.434 66.9844 168.465 67.2871 169.162 67.8926C169.865 68.498 170.217 69.4421 170.217 70.7246V78H168.586L168.146 76.4668H168.068C167.762 76.8574 167.447 77.1797 167.121 77.4336C166.796 77.6875 166.418 77.8763 165.988 78C165.565 78.1302 165.048 78.1953 164.436 78.1953C163.791 78.1953 163.215 78.0781 162.707 77.8438C162.199 77.6029 161.799 77.2383 161.506 76.75C161.213 76.2617 161.066 75.6432 161.066 74.8945C161.066 73.7812 161.48 72.9447 162.307 72.3848C163.14 71.8249 164.396 71.5156 166.076 71.457L167.951 71.3887V70.8223C167.951 70.0736 167.775 69.5397 167.424 69.2207C167.079 68.9017 166.59 68.7422 165.959 68.7422C165.419 68.7422 164.895 68.8203 164.387 68.9766C163.879 69.1328 163.384 69.3249 162.902 69.5527L162.16 67.9316C162.688 67.6517 163.286 67.4238 163.957 67.248C164.634 67.0723 165.337 66.9844 166.066 66.9844ZM167.941 72.834L166.545 72.8828C165.399 72.9219 164.595 73.1172 164.133 73.4688C163.671 73.8203 163.439 74.3021 163.439 74.9141C163.439 75.4479 163.599 75.8385 163.918 76.0859C164.237 76.3268 164.657 76.4473 165.178 76.4473C165.972 76.4473 166.63 76.2227 167.15 75.7734C167.678 75.3177 167.941 74.6504 167.941 73.7715V72.834ZM180.695 74.9141C180.695 75.6237 180.523 76.2227 180.178 76.7109C179.833 77.1992 179.328 77.5703 178.664 77.8242C178.007 78.0716 177.199 78.1953 176.242 78.1953C175.487 78.1953 174.836 78.14 174.289 78.0293C173.749 77.9251 173.238 77.7624 172.756 77.541V75.5586C173.27 75.7995 173.846 76.0078 174.484 76.1836C175.129 76.3594 175.738 76.4473 176.311 76.4473C177.066 76.4473 177.609 76.3301 177.941 76.0957C178.273 75.8548 178.439 75.5358 178.439 75.1387C178.439 74.9043 178.371 74.696 178.234 74.5137C178.104 74.3249 177.857 74.1328 177.492 73.9375C177.134 73.7357 176.607 73.4948 175.91 73.2148C175.227 72.9414 174.65 72.668 174.182 72.3945C173.713 72.1211 173.358 71.7923 173.117 71.4082C172.876 71.0176 172.756 70.5195 172.756 69.9141C172.756 68.957 173.133 68.2311 173.889 67.7363C174.65 67.235 175.656 66.9844 176.906 66.9844C177.57 66.9844 178.195 67.0527 178.781 67.1895C179.374 67.3197 179.953 67.5117 180.52 67.7656L179.797 69.4941C179.309 69.2793 178.817 69.1035 178.322 68.9668C177.834 68.8236 177.336 68.752 176.828 68.752C176.236 68.752 175.783 68.8431 175.471 69.0254C175.165 69.2077 175.012 69.4681 175.012 69.8066C175.012 70.0605 175.087 70.2754 175.236 70.4512C175.386 70.627 175.643 70.8027 176.008 70.9785C176.379 71.1543 176.893 71.3724 177.551 71.6328C178.195 71.8802 178.752 72.1406 179.221 72.4141C179.696 72.681 180.061 73.0098 180.314 73.4004C180.568 73.791 180.695 74.2956 180.695 74.9141ZM187.199 76.3398C187.499 76.3398 187.795 76.3138 188.088 76.2617C188.381 76.2031 188.648 76.1348 188.889 76.0566V77.7949C188.635 77.9056 188.306 78 187.902 78.0781C187.499 78.1562 187.079 78.1953 186.643 78.1953C186.031 78.1953 185.48 78.0944 184.992 77.8926C184.504 77.6842 184.117 77.3294 183.83 76.8281C183.544 76.3268 183.4 75.6335 183.4 74.748V68.9375H181.926V67.9121L183.508 67.1016L184.26 64.7871H185.705V67.1895H188.801V68.9375H185.705V74.7188C185.705 75.2656 185.842 75.6725 186.115 75.9395C186.389 76.2064 186.75 76.3398 187.199 76.3398Z" fill="#FCFEFE"/>
<rect x="1" y="1" width="224" height="82" rx="3" stroke="#726F68" stroke-width="2"/>
</svg>
