<svg width="100" height="100" viewBox="0 0 100 100" fill="none" xmlns="http://www.w3.org/2000/svg">
<path d="M20.5125 70H11.5818V35.3145H0.144775V27.8818H31.9495V35.3145H20.5125V70Z" fill="#E7A118"/>
<path d="M46.1602 46.3481H62.8691V68.1851C60.6605 68.9149 58.3654 69.5007 55.9839 69.9424C53.6024 70.3649 50.904 70.5762 47.8887 70.5762C43.7018 70.5762 40.1488 69.7503 37.2295 68.0986C34.3102 66.4469 32.092 64.0078 30.5747 60.7812C29.0575 57.5547 28.2988 53.5887 28.2988 48.8833C28.2988 44.466 29.1439 40.644 30.834 37.4175C32.5433 34.1909 35.0304 31.6942 38.2954 29.9272C41.5796 28.1603 45.584 27.2769 50.3086 27.2769C52.5365 27.2769 54.7355 27.5169 56.9058 27.9971C59.076 28.4772 61.0446 29.1014 62.8115 29.8696L59.8442 37.0142C58.5575 36.3612 57.0882 35.8138 55.4365 35.3721C53.7848 34.9303 52.0563 34.7095 50.251 34.7095C47.6582 34.7095 45.4015 35.3049 43.481 36.4956C41.5796 37.6864 40.1008 39.3573 39.0444 41.5083C38.0073 43.6401 37.4888 46.1561 37.4888 49.0562C37.4888 51.8026 37.8633 54.2417 38.6123 56.3735C39.3613 58.4862 40.5425 60.1475 42.1558 61.3574C43.7691 62.5482 45.8721 63.1436 48.4649 63.1436C49.7324 63.1436 50.7983 63.0859 51.6626 62.9707C52.5461 62.8363 53.3719 62.7018 54.1401 62.5674V53.7808H46.1602V46.3481Z" fill="#E7A118"/>
<path d="M99.6082 48.5376C99.6082 53.2814 98.6959 57.2474 96.8714 60.4355C95.066 63.6045 92.4444 65.9956 89.0066 67.6089C85.5688 69.203 81.4299 70 76.5901 70H64.6633V27.8818H77.8865C82.3038 27.8818 86.1354 28.6693 89.3811 30.2441C92.6269 31.7998 95.1428 34.1141 96.929 37.187C98.7151 40.2407 99.6082 44.0243 99.6082 48.5376ZM90.3318 48.7681C90.3318 45.6567 89.8709 43.1024 88.949 41.105C88.0463 39.0884 86.7019 37.5999 84.9158 36.6396C83.1489 35.6794 80.9594 35.1992 78.3474 35.1992H73.594V62.625H77.4256C81.7853 62.625 85.0214 61.4631 87.134 59.1392C89.2659 56.8153 90.3318 53.3582 90.3318 48.7681Z" fill="#E7A118"/>
<rect y="74" width="100" height="8" fill="#E7A118"/>
</svg>
