<svg width="347" height="106" viewBox="0 0 347 106" fill="none" xmlns="http://www.w3.org/2000/svg">
<g clip-path="url(#clip0_254_66)">
<path d="M316.264 102.808L301.576 86.2757L287.548 102.808H258.364L286.953 69.7225L258.364 37.1055H289.078L302.852 52.9565L316.604 37.1055H345.193L317.263 69.5097L347 102.808H316.264Z" fill="#FF5000"/>
<path d="M201.186 102.809V0H258.364V23.3191H225.545V37.1064H258.364V59.3617H225.545V79.4894H258.364V102.809H201.186Z" fill="#FF5000"/>
<path d="M177.911 -0.000812937V42.3609L177.039 41.68C171.746 35.6375 164.456 33.8716 156.719 33.8716C140.926 33.8716 129.766 44.1056 125.621 58.3396C120.86 42.7439 108.128 33.8716 89.9968 33.8716C75.2666 33.8716 63.2146 39.9992 57.1779 50.8928V37.1056H27.5474V23.3183H60.3663V-0.0859375H0V102.723H27.6325V59.3822L54.7123 59.1482C53.852 62.4403 53.4234 65.8304 53.437 69.2332C53.437 90.5098 69.6551 105.829 90.422 105.829C107.915 105.829 118.905 97.6588 125.048 82.7014H101.666C98.4992 87.1482 96.6924 88.2119 90.4432 88.2119C86.7521 88.0708 83.2556 86.5184 80.6735 83.8744C78.0914 81.2304 76.6204 77.6962 76.5632 73.9992H124.261C126.28 91.0205 139.523 105.914 157.654 105.914C161.645 105.815 165.557 104.78 169.075 102.891C172.593 101.003 175.62 98.3144 177.911 95.0418V102.744H201.292V-0.000812937H177.911ZM77.626 59.3822C78.1959 56.4067 79.7779 53.7207 82.1031 51.7812C84.4283 49.8417 87.3529 48.7684 90.3795 48.7439C93.4675 48.5995 96.499 49.6078 98.8867 51.5732C101.274 53.5387 102.848 56.3214 103.303 59.3822H77.626ZM162.649 86.5524C153.849 86.5524 148.344 78.2758 148.344 69.6801C148.344 60.4461 153.105 51.6375 162.649 51.6375C172.193 51.6375 176.529 60.4461 176.529 69.6801C176.529 78.4886 172.278 86.5524 162.649 86.5524Z" fill="#33006F"/>
</g>
<defs>
<clipPath id="clip0_254_66">
<rect width="347" height="106" fill="white"/>
</clipPath>
</defs>
</svg>
