<svg width="700" height="173" viewBox="0 0 700 173" fill="none" xmlns="http://www.w3.org/2000/svg">
<g clip-path="url(#clip0_255_167)">
<path fill-rule="evenodd" clip-rule="evenodd" d="M173.054 173.113V-0.0988446H-0.257477V173.113H173.054Z" fill="#1E3258"/>
<path fill-rule="evenodd" clip-rule="evenodd" d="M127.889 43.2785H113.595V44.668H117.368V128.347H113.595V129.836H129.675V128.347H124.217V94.2994H128.981C135.731 94.2994 139.602 90.7263 139.602 85.8629V52.4107C139.602 47.5463 136.327 43.2785 127.889 43.2785V43.2785ZM124.217 44.668H127.79C131.264 44.5689 132.754 47.7455 132.754 50.2272V87.4507C132.853 90.1307 131.264 92.6115 128.188 92.6115H124.217V44.668" fill="white"/>
<path fill-rule="evenodd" clip-rule="evenodd" d="M52.2521 44.3703C52.2521 45.7599 51.4572 45.6598 50.8625 45.1633C48.4799 43.5755 45.7007 42.3842 43.1199 42.3842C38.9503 42.3842 33.0938 44.4685 32.9946 53.2042V117.327C33.0938 128.543 38.4547 130.628 43.7146 130.628C47.8842 130.727 49.8694 128.543 51.4572 127.748C52.3512 127.452 53.3433 128.247 53.3433 129.933H55.0312V89.1363H58.5051V87.7468H44.0129V89.1363H48.1816V124.175C48.1816 127.054 46.2964 129.238 43.8146 129.238C41.432 129.238 39.645 126.956 39.645 124.175V50.6233C39.645 48.6381 40.0425 43.972 43.1199 43.972C49.0755 43.972 52.2521 61.4424 52.2521 70.4746H53.939V43.1771H52.2521V44.3703Z" fill="white"/>
<path fill-rule="evenodd" clip-rule="evenodd" d="M87.1921 94.2002L91.0634 128.347H87.2912V129.836H101.585V128.347H97.813L88.2843 43.1784H82.2295L73.2956 123.581C72.799 126.46 72.6008 128.248 68.4321 128.347V129.836H79.1512V128.347C76.0747 128.347 74.6851 126.36 74.9825 124.376L78.3573 94.2002H87.1921ZM78.5565 92.7106L82.7251 55.2898L86.9929 92.7106H78.5565Z" fill="white"/>
</g>
<g clip-path="url(#clip1_255_167)">
<path fill-rule="evenodd" clip-rule="evenodd" d="M700.054 173.113V-0.0988446H526.743V173.113H700.054Z" fill="#1E3258"/>
<path fill-rule="evenodd" clip-rule="evenodd" d="M654.889 43.2785H640.595V44.668H644.368V128.347H640.595V129.836H656.675V128.347H651.217V94.2994H655.981C662.731 94.2994 666.602 90.7263 666.602 85.8629V52.4107C666.602 47.5463 663.327 43.2785 654.889 43.2785V43.2785ZM651.217 44.668H654.79C658.264 44.5689 659.754 47.7455 659.754 50.2272V87.4507C659.853 90.1307 658.264 92.6115 655.188 92.6115H651.217V44.668" fill="white"/>
<path fill-rule="evenodd" clip-rule="evenodd" d="M579.252 44.3703C579.252 45.7599 578.457 45.6598 577.862 45.1633C575.48 43.5755 572.701 42.3842 570.12 42.3842C565.95 42.3842 560.094 44.4685 559.995 53.2042V117.327C560.094 128.543 565.455 130.628 570.715 130.628C574.884 130.727 576.869 128.543 578.457 127.748C579.351 127.452 580.343 128.247 580.343 129.933H582.031V89.1363H585.505V87.7468H571.013V89.1363H575.182V124.175C575.182 127.054 573.296 129.238 570.815 129.238C568.432 129.238 566.645 126.956 566.645 124.175V50.6233C566.645 48.6381 567.042 43.972 570.12 43.972C576.076 43.972 579.252 61.4424 579.252 70.4746H580.939V43.1771H579.252V44.3703Z" fill="white"/>
<path fill-rule="evenodd" clip-rule="evenodd" d="M614.192 94.2002L618.063 128.347H614.291V129.836H628.585V128.347H624.813L615.284 43.1784H609.229L600.296 123.581C599.799 126.46 599.601 128.248 595.432 128.347V129.836H606.151V128.347C603.075 128.347 601.685 126.36 601.982 124.376L605.357 94.2002H614.192ZM605.556 92.7106L609.725 55.2898L613.993 92.7106H605.556Z" fill="white"/>
</g>
<g clip-path="url(#clip2_255_167)">
<path d="M410.26 96.418H462.985V42.9851H410.26V96.418Z" fill="url(#paint0_linear_255_167)"/>
<path d="M294.58 71.8207C293.314 66.3678 290.224 62.5566 285.309 60.3894C282.561 59.1978 279.507 58.6019 276.146 58.6019C269.712 58.6019 264.425 61.0261 260.286 65.8751C256.147 70.7242 254.079 78.0142 254.079 87.7472C254.079 97.5536 256.32 104.493 260.802 108.567C265.283 112.639 270.379 114.676 276.092 114.676C281.694 114.676 286.284 113.071 289.863 109.858C293.441 106.646 295.646 102.436 296.477 97.2312H277.989V83.9033H311.279V126.758H300.219L298.538 116.79C295.32 120.566 292.429 123.227 289.863 124.772C285.452 127.468 280.031 128.816 273.597 128.816C263.007 128.816 254.331 125.154 247.573 117.825C240.524 110.463 237 100.393 237 87.6137C237 74.6916 240.56 64.3319 247.681 56.5351C254.802 48.7384 264.218 44.8403 275.929 44.8403C286.085 44.8403 294.245 47.4137 300.408 52.5606C306.57 57.7076 310.104 64.1278 311.008 71.8207H294.58" fill="#100F0D"/>
<path d="M357.541 97.6633C356.493 98.2854 355.44 98.7868 354.378 99.1733C353.311 99.5563 351.852 99.912 349.997 100.24L346.284 100.899C342.803 101.484 340.302 102.198 338.785 103.039C336.216 104.465 334.931 106.678 334.931 109.676C334.931 112.345 335.714 114.275 337.285 115.463C338.854 116.652 340.762 117.243 343.009 117.243C346.574 117.243 349.858 116.257 352.86 114.283C355.866 112.309 357.424 108.709 357.541 103.479V97.6633ZM347.564 90.368C350.601 90.0025 352.773 89.5459 354.078 88.9966C356.426 88.0457 357.599 86.5654 357.599 84.5541C357.599 82.1042 356.698 80.4129 354.898 79.4801C353.1 78.5477 350.462 78.0813 346.98 78.0813C343.073 78.0813 340.306 78.996 338.684 80.8238C337.523 82.1771 336.749 84.006 336.362 86.3095H320.621C320.966 81.0804 322.498 76.7835 325.22 73.4195C329.55 68.1537 336.985 65.5201 347.525 65.5201C354.384 65.5201 360.478 66.819 365.805 69.4159C371.132 72.0114 373.795 76.9117 373.795 84.115V111.542C373.795 113.443 373.832 115.747 373.909 118.452C374.026 120.5 374.35 121.891 374.882 122.621C375.417 123.352 376.22 123.956 377.287 124.431V126.734H359.542C359.046 125.527 358.705 124.395 358.512 123.334C358.322 122.274 358.168 121.067 358.054 119.713C355.79 122.054 353.179 124.047 350.225 125.693C346.694 127.631 342.702 128.6 338.25 128.6C332.57 128.6 327.878 127.055 324.175 123.965C320.47 120.875 318.618 116.496 318.618 110.828C318.618 103.479 321.597 98.1571 327.555 94.8659C330.822 93.0748 335.629 91.7935 341.973 91.0268L347.564 90.368" fill="#100F0D"/>
<path d="M420.402 85.1481C418.272 81.6458 414.822 79.8933 410.047 79.8933C404.31 79.8933 400.369 82.5478 398.223 87.8575C397.112 90.6746 396.558 94.2503 396.558 98.5851C396.558 105.448 398.425 110.27 402.16 113.051C404.381 114.676 407.007 115.488 410.044 115.488C414.448 115.488 417.807 113.828 420.121 110.505C422.435 107.182 423.592 102.757 423.592 97.2306C423.592 92.679 422.527 88.6521 420.402 85.1481V85.1481ZM432.418 74.0415C437.305 79.1342 439.747 86.6115 439.747 96.4715C439.747 106.874 437.359 114.803 432.585 120.256C427.81 125.711 421.661 128.437 414.142 128.437C409.348 128.437 405.364 127.263 402.195 124.916C400.462 123.615 398.765 121.719 397.107 119.227V150H381.611V67.7028H396.613V76.4255C398.308 73.8613 400.116 71.8394 402.032 70.3579C405.533 67.7215 409.7 66.4027 414.53 66.4027C421.571 66.4027 427.534 68.9488 432.418 74.0415" fill="#100F0D"/>
</g>
<path d="M229 93L214 84.3397V101.66L229 93ZM181 94.5L215.5 94.5V91.5L181 91.5V94.5Z" fill="#185EE7"/>
<path d="M519 93L504 84.3397V101.66L519 93ZM471 94.5L505.5 94.5V91.5L471 91.5V94.5Z" fill="#185EE7"/>
<defs>
<linearGradient id="paint0_linear_255_167" x1="410.185" y1="96.1668" x2="463.159" y2="43.1545" gradientUnits="userSpaceOnUse">
<stop stop-color="#8DA0D6"/>
<stop offset="1" stop-color="#223F6E"/>
</linearGradient>
<clipPath id="clip0_255_167">
<rect width="173" height="173" fill="white"/>
</clipPath>
<clipPath id="clip1_255_167">
<rect width="173" height="173" fill="white" transform="translate(527)"/>
</clipPath>
<clipPath id="clip2_255_167">
<rect width="226" height="107" fill="white" transform="translate(237 43)"/>
</clipPath>
</defs>
</svg>
