<svg width="192" height="212" viewBox="0 0 192 212" fill="none" xmlns="http://www.w3.org/2000/svg">
<rect width="192" height="212" rx="4" fill="#EBE9E7"/>
<path d="M19.56 47.9998V19.5998H31.56C32.7867 19.5998 33.9067 19.8531 34.92 20.3598C35.9333 20.8665 36.8133 21.5598 37.56 22.4398C38.3333 23.2931 38.92 24.2531 39.32 25.3198C39.7467 26.3598 39.96 27.4265 39.96 28.5198C39.96 29.8798 39.6933 31.1598 39.16 32.3598C38.6533 33.5598 37.92 34.5731 36.96 35.3998C36.0267 36.2265 34.92 36.7731 33.64 37.0398L40.6 47.9998H37.44L30.76 37.5198H22.36V47.9998H19.56ZM22.36 35.0398H31.64C32.76 35.0398 33.7333 34.7331 34.56 34.1198C35.3867 33.5065 36.0267 32.7065 36.48 31.7198C36.9333 30.7065 37.16 29.6398 37.16 28.5198C37.16 27.3731 36.8933 26.3198 36.36 25.3598C35.8533 24.3731 35.16 23.5865 34.28 22.9998C33.4267 22.3865 32.4667 22.0798 31.4 22.0798H22.36V35.0398Z" fill="#2F2D28"/>
<path d="M43.1403 41.9998C43.1403 40.6931 43.5136 39.5731 44.2603 38.6398C45.007 37.6798 46.0336 36.9465 47.3403 36.4398C48.6736 35.9065 50.207 35.6398 51.9403 35.6398C52.9536 35.6398 54.007 35.7198 55.1003 35.8798C56.1936 36.0398 57.167 36.2798 58.0203 36.5998V34.8398C58.0203 33.0798 57.5003 31.6798 56.4603 30.6398C55.4203 29.5998 53.9803 29.0798 52.1403 29.0798C51.0203 29.0798 49.9136 29.2931 48.8203 29.7198C47.7536 30.1198 46.6336 30.7198 45.4603 31.5198L44.4203 29.5998C45.7803 28.6665 47.1136 27.9731 48.4203 27.5198C49.727 27.0398 51.0603 26.7998 52.4203 26.7998C54.9803 26.7998 57.007 27.5331 58.5003 28.9998C59.9936 30.4665 60.7403 32.4931 60.7403 35.0798V44.7198C60.7403 45.0931 60.8203 45.3731 60.9803 45.5598C61.1403 45.7198 61.3936 45.8131 61.7403 45.8398V47.9998C61.447 48.0265 61.1936 48.0531 60.9803 48.0798C60.767 48.1065 60.607 48.1065 60.5003 48.0798C59.8336 48.0531 59.327 47.8398 58.9803 47.4398C58.6336 47.0398 58.447 46.6131 58.4203 46.1598L58.3803 44.6398C57.447 45.8398 56.2336 46.7731 54.7403 47.4398C53.247 48.0798 51.727 48.3998 50.1803 48.3998C48.847 48.3998 47.6336 48.1198 46.5403 47.5598C45.4736 46.9731 44.6336 46.1998 44.0203 45.2398C43.4336 44.2531 43.1403 43.1731 43.1403 41.9998ZM57.1003 43.5998C57.3936 43.2265 57.6203 42.8665 57.7803 42.5198C57.9403 42.1731 58.0203 41.8665 58.0203 41.5998V38.5598C57.1136 38.2131 56.167 37.9465 55.1803 37.7598C54.2203 37.5731 53.247 37.4798 52.2603 37.4798C50.3136 37.4798 48.7403 37.8665 47.5403 38.6398C46.3403 39.4131 45.7403 40.4665 45.7403 41.7998C45.7403 42.5731 45.9403 43.3065 46.3403 43.9998C46.7403 44.6665 47.327 45.2265 48.1003 45.6798C48.8736 46.1065 49.7803 46.3198 50.8203 46.3198C52.127 46.3198 53.3403 46.0665 54.4603 45.5598C55.607 45.0531 56.487 44.3998 57.1003 43.5998Z" fill="#2F2D28"/>
<path d="M66.7372 18.7998H69.4572V43.2798C69.4572 44.3198 69.6439 44.9998 70.0172 45.3198C70.3905 45.6398 70.8439 45.7998 71.3772 45.7998C71.8572 45.7998 72.3372 45.7465 72.8172 45.6398C73.2972 45.5331 73.7105 45.4265 74.0572 45.3198L74.5372 47.5198C74.0305 47.7331 73.4039 47.9065 72.6572 48.0398C71.9372 48.1731 71.3105 48.2398 70.7772 48.2398C69.5505 48.2398 68.5639 47.8798 67.8172 47.1598C67.0972 46.4398 66.7372 45.4531 66.7372 44.1998V18.7998Z" fill="#2F2D28"/>
<path d="M86.5156 48.3998C85.0223 48.3998 83.6356 48.1198 82.3556 47.5598C81.0756 46.9731 79.969 46.1865 79.0356 45.1998C78.1023 44.1865 77.369 43.0265 76.8356 41.7198C76.329 40.4131 76.0756 39.0131 76.0756 37.5198C76.0756 35.5731 76.5156 33.7865 77.3956 32.1598C78.3023 30.5331 79.5423 29.2398 81.1156 28.2798C82.689 27.2931 84.4756 26.7998 86.4756 26.7998C88.529 26.7998 90.3156 27.2931 91.8356 28.2798C93.3823 29.2665 94.5956 30.5731 95.4756 32.1998C96.3556 33.7998 96.7956 35.5598 96.7956 37.4798C96.7956 37.6931 96.7956 37.9065 96.7956 38.1198C96.7956 38.3065 96.7823 38.4531 96.7556 38.5598H78.9156C79.049 40.0531 79.4623 41.3865 80.1556 42.5598C80.8756 43.7065 81.7956 44.6265 82.9156 45.3198C84.0623 45.9865 85.3023 46.3198 86.6356 46.3198C87.9956 46.3198 89.2756 45.9731 90.4756 45.2798C91.7023 44.5865 92.5556 43.6798 93.0356 42.5598L95.3956 43.1998C94.969 44.1865 94.3156 45.0798 93.4356 45.8798C92.5556 46.6798 91.5156 47.3065 90.3156 47.7598C89.1423 48.1865 87.8756 48.3998 86.5156 48.3998ZM78.8356 36.5998H94.2356C94.129 35.0798 93.7156 33.7465 92.9956 32.5998C92.3023 31.4531 91.3823 30.5598 90.2356 29.9198C89.1156 29.2531 87.8756 28.9198 86.5156 28.9198C85.1556 28.9198 83.9156 29.2531 82.7956 29.9198C81.6756 30.5598 80.7556 31.4665 80.0356 32.6398C79.3423 33.7865 78.9423 35.1065 78.8356 36.5998Z" fill="#2F2D28"/>
<path d="M126.685 27.1598H129.365L120.405 47.9998H118.045L113.685 37.6398L109.365 47.9998H107.005L98.0453 27.1598H100.685L108.285 45.1998L112.125 35.7998L108.605 27.1998H111.045L113.685 33.9598L116.365 27.1998H118.765L115.285 35.7998L119.125 45.1998L126.685 27.1598Z" fill="#2F2D28"/>
<path d="M130.797 41.9998C130.797 40.6931 131.17 39.5731 131.917 38.6398C132.663 37.6798 133.69 36.9465 134.997 36.4398C136.33 35.9065 137.863 35.6398 139.597 35.6398C140.61 35.6398 141.663 35.7198 142.757 35.8798C143.85 36.0398 144.823 36.2798 145.677 36.5998V34.8398C145.677 33.0798 145.157 31.6798 144.117 30.6398C143.077 29.5998 141.637 29.0798 139.797 29.0798C138.677 29.0798 137.57 29.2931 136.477 29.7198C135.41 30.1198 134.29 30.7198 133.117 31.5198L132.077 29.5998C133.437 28.6665 134.77 27.9731 136.077 27.5198C137.383 27.0398 138.717 26.7998 140.077 26.7998C142.637 26.7998 144.663 27.5331 146.157 28.9998C147.65 30.4665 148.397 32.4931 148.397 35.0798V44.7198C148.397 45.0931 148.477 45.3731 148.637 45.5598C148.797 45.7198 149.05 45.8131 149.397 45.8398V47.9998C149.103 48.0265 148.85 48.0531 148.637 48.0798C148.423 48.1065 148.263 48.1065 148.157 48.0798C147.49 48.0531 146.983 47.8398 146.637 47.4398C146.29 47.0398 146.103 46.6131 146.077 46.1598L146.037 44.6398C145.103 45.8398 143.89 46.7731 142.397 47.4398C140.903 48.0798 139.383 48.3998 137.837 48.3998C136.503 48.3998 135.29 48.1198 134.197 47.5598C133.13 46.9731 132.29 46.1998 131.677 45.2398C131.09 44.2531 130.797 43.1731 130.797 41.9998ZM144.757 43.5998C145.05 43.2265 145.277 42.8665 145.437 42.5198C145.597 42.1731 145.677 41.8665 145.677 41.5998V38.5598C144.77 38.2131 143.823 37.9465 142.837 37.7598C141.877 37.5731 140.903 37.4798 139.917 37.4798C137.97 37.4798 136.397 37.8665 135.197 38.6398C133.997 39.4131 133.397 40.4665 133.397 41.7998C133.397 42.5731 133.597 43.3065 133.997 43.9998C134.397 44.6665 134.983 45.2265 135.757 45.6798C136.53 46.1065 137.437 46.3198 138.477 46.3198C139.783 46.3198 140.997 46.0665 142.117 45.5598C143.263 45.0531 144.143 44.3998 144.757 43.5998Z" fill="#2F2D28"/>
<path d="M154.848 54.3998C155.222 54.4265 155.582 54.4398 155.928 54.4398C156.275 54.4665 156.528 54.4531 156.688 54.3998C157.008 54.3465 157.315 54.1598 157.608 53.8398C157.902 53.5198 158.248 52.9065 158.648 51.9998C159.048 51.0931 159.608 49.7598 160.328 47.9998L151.248 27.1598H154.128L161.768 45.1998L168.808 27.1598H171.528L160.728 54.0398C160.542 54.5465 160.262 55.0131 159.888 55.4398C159.515 55.8931 159.048 56.2398 158.488 56.4798C157.955 56.7465 157.288 56.8931 156.488 56.9198C156.248 56.9465 155.995 56.9465 155.728 56.9198C155.488 56.9198 155.195 56.8931 154.848 56.8398V54.3998Z" fill="#2F2D28"/>
<path d="M18.96 95.9998V67.9998H27.56C32.4933 67.9998 36.12 69.2531 38.44 71.7598C40.7867 74.2665 41.96 77.7065 41.96 82.0798C41.96 86.3731 40.7867 89.7731 38.44 92.2798C36.12 94.7598 32.4933 95.9998 27.56 95.9998H18.96ZM22.32 93.1998H27.48C30.2 93.1998 32.36 92.7598 33.96 91.8798C35.5867 90.9731 36.7467 89.6931 37.44 88.0398C38.1333 86.3598 38.48 84.3731 38.48 82.0798C38.48 79.7331 38.1333 77.7198 37.44 76.0398C36.7467 74.3598 35.5867 73.0665 33.96 72.1598C32.36 71.2531 30.2 70.7998 27.48 70.7998H22.32V93.1998Z" fill="#2F2D28"/>
<path d="M46.8116 95.9998V67.9998H50.7316L60.8116 87.5198L70.8116 67.9998H74.7716V95.9998H71.4116V73.9998L62.0516 91.9998H59.5316L50.1716 74.0398V95.9998H46.8116Z" fill="#2F2D28"/>
<path d="M100.185 96.4798C98.1314 96.4798 96.3447 96.1065 94.8247 95.3598C93.3047 94.6131 92.1314 93.5731 91.3047 92.2398C90.478 90.9065 90.0647 89.3598 90.0647 87.5998H93.5847C93.5847 88.6931 93.838 89.7065 94.3447 90.6398C94.8514 91.5465 95.5847 92.2798 96.5447 92.8398C97.5314 93.3731 98.7447 93.6398 100.185 93.6398C102.078 93.6398 103.545 93.1865 104.585 92.2798C105.625 91.3731 106.145 90.2398 106.145 88.8798C106.145 87.7598 105.905 86.8665 105.425 86.1998C104.945 85.5065 104.291 84.9465 103.465 84.5198C102.665 84.0931 101.731 83.7198 100.665 83.3998C99.6247 83.0798 98.5314 82.7198 97.3847 82.3198C95.2247 81.5731 93.6247 80.6531 92.5847 79.5598C91.5447 78.4398 91.0247 76.9865 91.0247 75.1998C90.998 73.7065 91.3447 72.3865 92.0647 71.2398C92.7847 70.0665 93.798 69.1598 95.1047 68.5198C96.438 67.8531 98.0114 67.5198 99.8247 67.5198C101.611 67.5198 103.158 67.8531 104.465 68.5198C105.798 69.1865 106.825 70.1065 107.545 71.2798C108.291 72.4531 108.678 73.7865 108.705 75.2798H105.185C105.185 74.5065 104.985 73.7465 104.585 72.9998C104.185 72.2265 103.571 71.5998 102.745 71.1198C101.945 70.6398 100.931 70.3998 99.7047 70.3998C98.1847 70.3731 96.9314 70.7598 95.9447 71.5598C94.9847 72.3598 94.5047 73.4665 94.5047 74.8798C94.5047 76.0798 94.838 76.9998 95.5047 77.6398C96.198 78.2798 97.158 78.8131 98.3847 79.2398C99.6114 79.6398 101.025 80.1065 102.625 80.6398C103.958 81.1198 105.158 81.6798 106.225 82.3198C107.291 82.9598 108.118 83.7865 108.705 84.7998C109.318 85.8131 109.625 87.1065 109.625 88.6798C109.625 90.0131 109.278 91.2798 108.585 92.4798C107.891 93.6531 106.838 94.6131 105.425 95.3598C104.038 96.1065 102.291 96.4798 100.185 96.4798Z" fill="#2F2D28"/>
<path d="M120.79 96.4798C119.136 96.4798 117.763 96.1998 116.67 95.6398C115.576 95.0798 114.763 94.3331 114.23 93.3998C113.696 92.4665 113.43 91.4531 113.43 90.3598C113.43 88.3331 114.203 86.7731 115.75 85.6798C117.296 84.5865 119.403 84.0398 122.07 84.0398H127.43V83.7998C127.43 82.0665 126.976 80.7598 126.07 79.8798C125.163 78.9731 123.95 78.5198 122.43 78.5198C121.123 78.5198 119.99 78.8531 119.03 79.5198C118.096 80.1598 117.51 81.1065 117.27 82.3598H113.83C113.963 80.9198 114.443 79.7065 115.27 78.7198C116.123 77.7331 117.176 76.9865 118.43 76.4798C119.683 75.9465 121.016 75.6798 122.43 75.6798C125.203 75.6798 127.283 76.4265 128.67 77.9198C130.083 79.3865 130.79 81.3465 130.79 83.7998V95.9998H127.79L127.59 92.4398C127.03 93.5598 126.203 94.5198 125.11 95.3198C124.043 96.0931 122.603 96.4798 120.79 96.4798ZM121.31 93.6398C122.59 93.6398 123.683 93.3065 124.59 92.6398C125.523 91.9731 126.23 91.1065 126.71 90.0398C127.19 88.9731 127.43 87.8531 127.43 86.6798V86.6398H122.35C120.376 86.6398 118.976 86.9865 118.15 87.6798C117.35 88.3465 116.95 89.1865 116.95 90.1998C116.95 91.2398 117.323 92.0798 118.07 92.7198C118.843 93.3331 119.923 93.6398 121.31 93.6398Z" fill="#2F2D28"/>
<path d="M135.83 95.9998V76.1598H138.87L139.07 79.7198C139.71 78.4665 140.63 77.4798 141.83 76.7598C143.03 76.0398 144.39 75.6798 145.91 75.6798C148.257 75.6798 150.124 76.3998 151.51 77.8398C152.924 79.2531 153.63 81.4398 153.63 84.3998V95.9998H150.27V84.7598C150.27 80.6265 148.564 78.5598 145.15 78.5598C143.444 78.5598 142.017 79.1865 140.87 80.4398C139.75 81.6665 139.19 83.4265 139.19 85.7198V95.9998H135.83Z" fill="#2F2D28"/>
<path d="M166.321 96.4798C163.948 96.4798 161.974 95.8798 160.401 94.6798C158.828 93.4798 157.908 91.8531 157.641 89.7998H161.081C161.294 90.8398 161.841 91.7465 162.721 92.5198C163.628 93.2665 164.841 93.6398 166.361 93.6398C167.774 93.6398 168.814 93.3465 169.481 92.7598C170.148 92.1465 170.481 91.4265 170.481 90.5998C170.481 89.3998 170.041 88.5998 169.161 88.1998C168.308 87.7998 167.094 87.4398 165.521 87.1198C164.454 86.9065 163.388 86.5998 162.321 86.1998C161.254 85.7998 160.361 85.2398 159.641 84.5198C158.921 83.7731 158.561 82.7998 158.561 81.5998C158.561 79.8665 159.201 78.4531 160.481 77.3598C161.788 76.2398 163.548 75.6798 165.761 75.6798C167.868 75.6798 169.588 76.2131 170.921 77.2798C172.281 78.3198 173.068 79.8131 173.281 81.7598H169.961C169.828 80.7465 169.388 79.9598 168.641 79.3998C167.921 78.8131 166.948 78.5198 165.721 78.5198C164.521 78.5198 163.588 78.7731 162.921 79.2798C162.281 79.7865 161.961 80.4531 161.961 81.2798C161.961 82.0798 162.374 82.7065 163.201 83.1598C164.054 83.6131 165.201 83.9998 166.641 84.3198C167.868 84.5865 169.028 84.9198 170.121 85.3198C171.241 85.6931 172.148 86.2665 172.841 87.0398C173.561 87.7865 173.921 88.8798 173.921 90.3198C173.948 92.1065 173.268 93.5865 171.881 94.7598C170.521 95.9065 168.668 96.4798 166.321 96.4798Z" fill="#2F2D28"/>
<path d="M37.72 124.28C37.72 126.6 36.92 128.533 35.32 130.08C33.7467 131.6 31.3333 132.36 28.08 132.36H22.72V144H19.08V116.12H28.08C31.2267 116.12 33.6133 116.88 35.24 118.4C36.8933 119.92 37.72 121.88 37.72 124.28ZM28.08 129.36C30.1067 129.36 31.6 128.92 32.56 128.04C33.52 127.16 34 125.906 34 124.28C34 120.84 32.0267 119.12 28.08 119.12H22.72V129.36H28.08Z" fill="#2F2D28"/>
<path d="M51.8041 144.36C49.7507 144.36 47.8841 143.893 46.2041 142.96C44.5507 142.026 43.2441 140.706 42.2841 139C41.3507 137.266 40.8841 135.266 40.8841 133C40.8841 130.76 41.3641 128.786 42.3241 127.08C43.3107 125.346 44.6441 124.026 46.3241 123.12C48.0041 122.186 49.8841 121.72 51.9641 121.72C54.0441 121.72 55.9241 122.186 57.6041 123.12C59.2841 124.026 60.6041 125.333 61.5641 127.04C62.5507 128.746 63.0441 130.733 63.0441 133C63.0441 135.266 62.5374 137.266 61.5241 139C60.5374 140.706 59.1907 142.026 57.4841 142.96C55.7774 143.893 53.8841 144.36 51.8041 144.36ZM51.8041 141.16C53.1107 141.16 54.3374 140.853 55.4841 140.24C56.6307 139.626 57.5507 138.706 58.2441 137.48C58.9641 136.253 59.3241 134.76 59.3241 133C59.3241 131.24 58.9774 129.746 58.2841 128.52C57.5907 127.293 56.6841 126.386 55.5641 125.8C54.4441 125.186 53.2307 124.88 51.9241 124.88C50.5907 124.88 49.3641 125.186 48.2441 125.8C47.1507 126.386 46.2707 127.293 45.6041 128.52C44.9374 129.746 44.6041 131.24 44.6041 133C44.6041 134.786 44.9241 136.293 45.5641 137.52C46.2307 138.746 47.1107 139.666 48.2041 140.28C49.2974 140.866 50.4974 141.16 51.8041 141.16Z" fill="#2F2D28"/>
<path d="M71.47 126.12C72.19 124.866 73.2567 123.826 74.67 123C76.11 122.146 77.7767 121.72 79.67 121.72C81.6167 121.72 83.3767 122.186 84.95 123.12C86.55 124.053 87.8033 125.373 88.71 127.08C89.6167 128.76 90.07 130.72 90.07 132.96C90.07 135.173 89.6167 137.146 88.71 138.88C87.8033 140.613 86.55 141.96 84.95 142.92C83.3767 143.88 81.6167 144.36 79.67 144.36C77.8033 144.36 76.15 143.946 74.71 143.12C73.2967 142.266 72.2167 141.213 71.47 139.96V154.4H67.83V122.08H71.47V126.12ZM86.35 132.96C86.35 131.306 86.0167 129.866 85.35 128.64C84.6833 127.413 83.7767 126.48 82.63 125.84C81.51 125.2 80.27 124.88 78.91 124.88C77.5767 124.88 76.3367 125.213 75.19 125.88C74.07 126.52 73.1633 127.466 72.47 128.72C71.8033 129.946 71.47 131.373 71.47 133C71.47 134.653 71.8033 136.106 72.47 137.36C73.1633 138.586 74.07 139.533 75.19 140.2C76.3367 140.84 77.5767 141.16 78.91 141.16C80.27 141.16 81.51 140.84 82.63 140.2C83.7767 139.533 84.6833 138.586 85.35 137.36C86.0167 136.106 86.35 134.64 86.35 132.96Z" fill="#2F2D28"/>
<path d="M98.5013 126.12C99.2213 124.866 100.288 123.826 101.701 123C103.141 122.146 104.808 121.72 106.701 121.72C108.648 121.72 110.408 122.186 111.981 123.12C113.581 124.053 114.835 125.373 115.741 127.08C116.648 128.76 117.101 130.72 117.101 132.96C117.101 135.173 116.648 137.146 115.741 138.88C114.835 140.613 113.581 141.96 111.981 142.92C110.408 143.88 108.648 144.36 106.701 144.36C104.835 144.36 103.181 143.946 101.741 143.12C100.328 142.266 99.2479 141.213 98.5013 139.96V154.4H94.8613V122.08H98.5013V126.12ZM113.381 132.96C113.381 131.306 113.048 129.866 112.381 128.64C111.715 127.413 110.808 126.48 109.661 125.84C108.541 125.2 107.301 124.88 105.941 124.88C104.608 124.88 103.368 125.213 102.221 125.88C101.101 126.52 100.195 127.466 99.5013 128.72C98.8346 129.946 98.5013 131.373 98.5013 133C98.5013 134.653 98.8346 136.106 99.5013 137.36C100.195 138.586 101.101 139.533 102.221 140.2C103.368 140.84 104.608 141.16 105.941 141.16C107.301 141.16 108.541 140.84 109.661 140.2C110.808 139.533 111.715 138.586 112.381 137.36C113.048 136.106 113.381 134.64 113.381 132.96Z" fill="#2F2D28"/>
<path d="M123.772 118.52C123.079 118.52 122.492 118.28 122.012 117.8C121.532 117.32 121.293 116.733 121.293 116.04C121.293 115.346 121.532 114.76 122.012 114.28C122.492 113.8 123.079 113.56 123.772 113.56C124.439 113.56 124.999 113.8 125.452 114.28C125.932 114.76 126.173 115.346 126.173 116.04C126.173 116.733 125.932 117.32 125.452 117.8C124.999 118.28 124.439 118.52 123.772 118.52ZM125.533 122.08V144H121.893V122.08H125.533Z" fill="#2F2D28"/>
<path d="M142.416 121.68C145.083 121.68 147.243 122.493 148.896 124.12C150.55 125.72 151.376 128.04 151.376 131.08V144H147.776V131.6C147.776 129.413 147.23 127.746 146.136 126.6C145.043 125.426 143.55 124.84 141.656 124.84C139.736 124.84 138.203 125.44 137.056 126.64C135.936 127.84 135.376 129.586 135.376 131.88V144H131.736V122.08H135.376V125.2C136.096 124.08 137.07 123.213 138.296 122.6C139.55 121.986 140.923 121.68 142.416 121.68Z" fill="#2F2D28"/>
<path d="M165.082 144.36C163.402 144.36 161.896 144.08 160.562 143.52C159.229 142.933 158.176 142.133 157.402 141.12C156.629 140.08 156.202 138.893 156.122 137.56H159.882C159.989 138.653 160.496 139.546 161.402 140.24C162.336 140.933 163.549 141.28 165.042 141.28C166.429 141.28 167.522 140.973 168.322 140.36C169.122 139.746 169.522 138.973 169.522 138.04C169.522 137.08 169.096 136.373 168.242 135.92C167.389 135.44 166.069 134.973 164.282 134.52C162.656 134.093 161.322 133.666 160.282 133.24C159.269 132.786 158.389 132.133 157.642 131.28C156.922 130.4 156.562 129.253 156.562 127.84C156.562 126.72 156.896 125.693 157.562 124.76C158.229 123.826 159.176 123.093 160.402 122.56C161.629 122 163.029 121.72 164.602 121.72C167.029 121.72 168.989 122.333 170.482 123.56C171.976 124.786 172.776 126.466 172.882 128.6H169.242C169.162 127.453 168.696 126.533 167.842 125.84C167.016 125.146 165.896 124.8 164.482 124.8C163.176 124.8 162.136 125.08 161.362 125.64C160.589 126.2 160.202 126.933 160.202 127.84C160.202 128.56 160.429 129.16 160.882 129.64C161.362 130.093 161.949 130.466 162.642 130.76C163.362 131.026 164.349 131.333 165.602 131.68C167.176 132.106 168.456 132.533 169.442 132.96C170.429 133.36 171.269 133.973 171.962 134.8C172.682 135.626 173.056 136.706 173.082 138.04C173.082 139.24 172.749 140.32 172.082 141.28C171.416 142.24 170.469 143 169.242 143.56C168.042 144.093 166.656 144.36 165.082 144.36Z" fill="#2F2D28"/>
<path d="M30.7656 194H28.0703L26.9961 187.203H20.9219L19.8477 194H17.2305V193.922L22.6797 163.355H25.3555L30.7656 194ZM26.6445 184.801L23.9688 168.238L21.2734 184.801H26.6445Z" fill="#2F2D28"/>
<path d="M44.9453 199C44.9453 200.471 44.2096 201.207 42.7383 201.207H36.5664C35.069 201.207 34.3203 200.276 34.3203 198.414C34.3203 198.193 34.3268 197.86 34.3398 197.418C34.3659 196.988 34.3789 196.676 34.3789 196.48H36.9375V199H42.3672V194H38.0898C36.931 194 35.9674 193.616 35.1992 192.847C34.431 192.066 34.0469 191.09 34.0469 189.918V178.804C34.0469 177.685 34.3854 176.754 35.0625 176.012C35.7396 175.256 36.6315 174.879 37.7383 174.879C38.0378 174.879 39.5807 175.094 42.3672 175.523V174.996H44.9453V199ZM42.3672 191.715V177.359C40.3099 177.229 39.112 177.164 38.7734 177.164C37.3411 177.164 36.625 177.893 36.625 179.351V189.527C36.625 190.985 37.3411 191.715 38.7734 191.715H42.3672Z" fill="#2F2D28"/>
<path d="M59.8477 191.793C59.8477 193.264 59.1185 194 57.6602 194H51.4102C49.9518 194 49.2227 193.264 49.2227 191.793V177.203C49.2227 175.732 49.9518 174.996 51.4102 174.996H57.6602C59.1185 174.996 59.8477 175.732 59.8477 177.203V184.039L58.9688 184.957H51.7422V191.832H57.3281V188.355H59.8477V191.793ZM57.3281 182.887V177.164H51.7422V182.887H57.3281Z" fill="#2F2D28"/>
<path d="M75.0625 194H72.4648V177.32L66.7422 177.476V194H64.1445V174.996H66.7422V175.523C67.7578 175.393 68.7799 175.256 69.8086 175.113C71.0586 174.957 72.0872 174.879 72.8945 174.879C74.3398 174.879 75.0625 175.588 75.0625 177.008V194Z" fill="#2F2D28"/>
<path d="M89.8086 191.793C89.8086 193.264 89.0794 194 87.6211 194H81.4492C79.9909 194 79.2617 193.264 79.2617 191.793V177.203C79.2617 175.732 79.9909 174.996 81.4492 174.996H87.6211C89.0794 174.996 89.8086 175.732 89.8086 177.203V180.992H87.25V177.281H81.8594V191.715H87.25V187.476H89.8086V191.793Z" fill="#2F2D28"/>
<path d="M104.73 174.996L100.16 193.844L98.2656 201.207H95.707L97.6211 193.844L92.9336 174.996H95.6094L98.8516 189.957L102.133 174.996H104.73Z" fill="#2F2D28"/>
<path d="M125.941 165.836H118.812V177.437H125.375V179.879H118.812V194H116.098V163.433H125.941V165.836Z" fill="#2F2D28"/>
<path d="M141.938 191.832C141.938 192.47 141.736 192.991 141.332 193.394C140.928 193.798 140.408 194 139.77 194H129.691V163.433H139.691C140.329 163.433 140.85 163.635 141.254 164.039C141.658 164.443 141.859 164.963 141.859 165.601V174.683C141.859 175.491 141.495 176.168 140.766 176.715C140.049 177.144 139.333 177.574 138.617 178.004L140.922 179.488C141.599 179.905 141.938 180.556 141.938 181.441V191.832ZM139.125 175.035V165.836H132.406V176.871H136.41L139.125 175.035ZM139.203 191.597V181.031L136.449 179.234H132.406V191.597H139.203Z" fill="#2F2D28"/>
</svg>
