<svg width="302" height="208" viewBox="0 0 302 208" fill="none" xmlns="http://www.w3.org/2000/svg">
<rect width="302" height="208" rx="4" fill="#EBE9E7"/>
<path d="M26.88 48.4803C25.04 48.4803 23.3333 48.1336 21.76 47.4403C20.1867 46.7203 18.8267 45.7736 17.68 44.6003L19.68 42.2803C20.6133 43.2669 21.7067 44.0669 22.96 44.6803C24.24 45.2669 25.56 45.5603 26.92 45.5603C28.6533 45.5603 30 45.1736 30.96 44.4003C31.92 43.6003 32.4 42.5603 32.4 41.2803C32.4 40.3736 32.2 39.6536 31.8 39.1203C31.4267 38.5869 30.9067 38.1336 30.24 37.7603C29.6 37.3869 28.8667 37.0136 28.04 36.6403L24.28 35.0003C23.4533 34.6536 22.6267 34.2003 21.8 33.6403C21 33.0803 20.32 32.3603 19.76 31.4803C19.2267 30.6003 18.96 29.5203 18.96 28.2403C18.96 26.9069 19.3067 25.7203 20 24.6803C20.72 23.6136 21.7067 22.7869 22.96 22.2003C24.2133 21.5869 25.6267 21.2803 27.2 21.2803C28.7733 21.2803 30.2267 21.5869 31.56 22.2003C32.8933 22.7869 34.0267 23.5603 34.96 24.5203L33.16 26.6803C32.36 25.9069 31.4667 25.3069 30.48 24.8803C29.52 24.4269 28.4267 24.2003 27.2 24.2003C25.7333 24.2003 24.5467 24.5469 23.64 25.2403C22.76 25.9336 22.32 26.8669 22.32 28.0403C22.32 28.8669 22.5333 29.5603 22.96 30.1203C23.4133 30.6536 23.9733 31.0936 24.64 31.4403C25.3067 31.7869 25.9867 32.1069 26.68 32.4003L30.4 34.0003C31.4133 34.4269 32.32 34.9469 33.12 35.5603C33.9467 36.1469 34.6 36.8803 35.08 37.7603C35.56 38.6136 35.8 39.6936 35.8 41.0003C35.8 42.3869 35.44 43.6536 34.72 44.8003C34 45.9203 32.9733 46.8136 31.64 47.4803C30.3067 48.1469 28.72 48.4803 26.88 48.4803Z" fill="#2F2D28"/>
<path d="M48.2072 48.4803C46.6339 48.4803 45.1539 48.0803 43.7672 47.2803C42.4072 46.4803 41.3005 45.3203 40.4472 43.8003C39.6205 42.2803 39.2072 40.4536 39.2072 38.3203C39.2072 36.1336 39.6205 34.2803 40.4472 32.7603C41.3005 31.2403 42.4072 30.0803 43.7672 29.2803C45.1539 28.4803 46.6339 28.0803 48.2072 28.0803C49.8072 28.0803 51.2872 28.4803 52.6472 29.2803C54.0072 30.0803 55.1005 31.2403 55.9272 32.7603C56.7805 34.2803 57.2072 36.1336 57.2072 38.3203C57.2072 40.4536 56.7805 42.2803 55.9272 43.8003C55.1005 45.3203 54.0072 46.4803 52.6472 47.2803C51.2872 48.0803 49.8072 48.4803 48.2072 48.4803ZM48.2072 45.7603C49.8872 45.7603 51.2339 45.0803 52.2472 43.7203C53.2872 42.3336 53.8072 40.5336 53.8072 38.3203C53.8072 36.0803 53.2872 34.2669 52.2472 32.8803C51.2339 31.4936 49.8872 30.8003 48.2072 30.8003C46.5539 30.8003 45.2072 31.4936 44.1672 32.8803C43.1272 34.2669 42.6072 36.0803 42.6072 38.3203C42.6072 40.5336 43.1272 42.3336 44.1672 43.7203C45.2072 45.0803 46.5539 45.7603 48.2072 45.7603Z" fill="#2F2D28"/>
<path d="M68.0069 48.4803C65.9535 48.4803 64.4469 47.8403 63.4869 46.5603C62.5269 45.2536 62.0469 43.3603 62.0469 40.8803V28.5603H65.3669V40.4403C65.3669 42.2536 65.6469 43.5736 66.2069 44.4003C66.7935 45.2269 67.7269 45.6403 69.0069 45.6403C70.0202 45.6403 70.9135 45.3869 71.6869 44.8803C72.4869 44.3469 73.3402 43.5069 74.2469 42.3603V28.5603H77.5269V48.0003H74.8069L74.5269 44.9603H74.4069C73.5002 46.0269 72.5402 46.8803 71.5269 47.5203C70.5135 48.1603 69.3402 48.4803 68.0069 48.4803Z" fill="#2F2D28"/>
<path d="M84.0847 48.0003V28.5603H86.8047L87.0847 32.0803H87.2047C87.8714 30.8536 88.6847 29.8803 89.6447 29.1603C90.6047 28.4403 91.6314 28.0803 92.7247 28.0803C93.498 28.0803 94.1914 28.2136 94.8047 28.4803L94.1647 31.3603C93.8447 31.2536 93.5514 31.1736 93.2847 31.1203C93.018 31.0669 92.6847 31.0403 92.2847 31.0403C91.458 31.0403 90.5914 31.3736 89.6847 32.0403C88.8047 32.7069 88.0314 33.8669 87.3647 35.5203V48.0003H84.0847Z" fill="#2F2D28"/>
<path d="M105.241 48.4803C103.535 48.4803 101.988 48.0803 100.601 47.2803C99.2146 46.4803 98.1213 45.3203 97.3213 43.8003C96.5213 42.2803 96.1212 40.4536 96.1212 38.3203C96.1212 36.1336 96.5479 34.2803 97.4013 32.7603C98.2813 31.2403 99.4279 30.0803 100.841 29.2803C102.281 28.4803 103.828 28.0803 105.481 28.0803C106.761 28.0803 107.855 28.3069 108.761 28.7603C109.695 29.2136 110.495 29.7469 111.161 30.3603L109.481 32.5203C108.921 32.0136 108.321 31.6003 107.681 31.2803C107.068 30.9603 106.375 30.8003 105.601 30.8003C104.428 30.8003 103.375 31.1203 102.441 31.7603C101.535 32.3736 100.815 33.2536 100.281 34.4003C99.7746 35.5203 99.5212 36.8269 99.5212 38.3203C99.5212 40.5336 100.068 42.3336 101.161 43.7203C102.281 45.0803 103.735 45.7603 105.521 45.7603C106.428 45.7603 107.268 45.5736 108.041 45.2003C108.815 44.8003 109.495 44.3336 110.081 43.8003L111.521 46.0003C110.641 46.7736 109.668 47.3869 108.601 47.8403C107.535 48.2669 106.415 48.4803 105.241 48.4803Z" fill="#2F2D28"/>
<path d="M122.824 48.4803C121.091 48.4803 119.517 48.0803 118.104 47.2803C116.691 46.4536 115.571 45.2803 114.744 43.7603C113.917 42.2403 113.504 40.4269 113.504 38.3203C113.504 36.1869 113.917 34.3603 114.744 32.8403C115.597 31.3203 116.691 30.1469 118.024 29.3203C119.357 28.4936 120.757 28.0803 122.224 28.0803C124.704 28.0803 126.611 28.9069 127.944 30.5603C129.304 32.2136 129.984 34.4269 129.984 37.2003C129.984 37.5469 129.971 37.8936 129.944 38.2403C129.944 38.5603 129.917 38.8403 129.864 39.0803H116.744C116.877 41.1336 117.517 42.7736 118.664 44.0003C119.837 45.2269 121.357 45.8403 123.224 45.8403C124.157 45.8403 125.011 45.7069 125.784 45.4403C126.584 45.1469 127.344 44.7736 128.064 44.3203L129.224 46.4803C128.397 47.0136 127.451 47.4803 126.384 47.8803C125.344 48.2803 124.157 48.4803 122.824 48.4803ZM116.704 36.7203H127.104C127.104 34.7469 126.677 33.2536 125.824 32.2403C124.997 31.2003 123.824 30.6803 122.304 30.6803C120.944 30.6803 119.717 31.2136 118.624 32.2803C117.557 33.3203 116.917 34.8003 116.704 36.7203Z" fill="#2F2D28"/>
<path d="M150.396 48.4803C148.556 48.4803 146.849 48.1336 145.276 47.4403C143.702 46.7203 142.342 45.7736 141.196 44.6003L143.196 42.2803C144.129 43.2669 145.222 44.0669 146.476 44.6803C147.756 45.2669 149.076 45.5603 150.436 45.5603C152.169 45.5603 153.516 45.1736 154.476 44.4003C155.436 43.6003 155.916 42.5603 155.916 41.2803C155.916 40.3736 155.716 39.6536 155.316 39.1203C154.942 38.5869 154.422 38.1336 153.756 37.7603C153.116 37.3869 152.382 37.0136 151.556 36.6403L147.796 35.0003C146.969 34.6536 146.142 34.2003 145.316 33.6403C144.516 33.0803 143.836 32.3603 143.276 31.4803C142.742 30.6003 142.476 29.5203 142.476 28.2403C142.476 26.9069 142.822 25.7203 143.516 24.6803C144.236 23.6136 145.222 22.7869 146.476 22.2003C147.729 21.5869 149.142 21.2803 150.716 21.2803C152.289 21.2803 153.742 21.5869 155.076 22.2003C156.409 22.7869 157.542 23.5603 158.476 24.5203L156.676 26.6803C155.876 25.9069 154.982 25.3069 153.996 24.8803C153.036 24.4269 151.942 24.2003 150.716 24.2003C149.249 24.2003 148.062 24.5469 147.156 25.2403C146.276 25.9336 145.836 26.8669 145.836 28.0403C145.836 28.8669 146.049 29.5603 146.476 30.1203C146.929 30.6536 147.489 31.0936 148.156 31.4403C148.822 31.7869 149.502 32.1069 150.196 32.4003L153.916 34.0003C154.929 34.4269 155.836 34.9469 156.636 35.5603C157.462 36.1469 158.116 36.8803 158.596 37.7603C159.076 38.6136 159.316 39.6936 159.316 41.0003C159.316 42.3869 158.956 43.6536 158.236 44.8003C157.516 45.9203 156.489 46.8136 155.156 47.4803C153.822 48.1469 152.236 48.4803 150.396 48.4803Z" fill="#2F2D28"/>
<path d="M168.643 48.4803C167.016 48.4803 165.656 48.0003 164.563 47.0403C163.496 46.0536 162.963 44.6936 162.963 42.9603C162.963 40.8269 163.909 39.2003 165.803 38.0803C167.723 36.9336 170.749 36.1336 174.883 35.6803C174.883 34.8536 174.763 34.0669 174.523 33.3203C174.309 32.5736 173.909 31.9736 173.323 31.5203C172.763 31.0403 171.949 30.8003 170.883 30.8003C169.763 30.8003 168.709 31.0136 167.723 31.4403C166.736 31.8669 165.856 32.3469 165.083 32.8803L163.803 30.6003C164.709 30.0136 165.816 29.4536 167.123 28.9203C168.456 28.3603 169.896 28.0803 171.443 28.0803C173.816 28.0803 175.536 28.8136 176.603 30.2803C177.669 31.7203 178.203 33.6536 178.203 36.0803V48.0003H175.483L175.203 45.6803H175.083C174.176 46.4269 173.176 47.0803 172.083 47.6403C171.016 48.2003 169.869 48.4803 168.643 48.4803ZM169.603 45.8403C170.536 45.8403 171.416 45.6136 172.243 45.1603C173.069 44.7069 173.949 44.0669 174.883 43.2403V37.8403C171.656 38.2403 169.389 38.8403 168.083 39.6403C166.803 40.4403 166.163 41.4669 166.163 42.7203C166.163 43.8136 166.496 44.6136 167.163 45.1203C167.829 45.6003 168.643 45.8403 169.603 45.8403Z" fill="#2F2D28"/>
<path d="M184.319 48.0003V28.5603H187.039L187.319 31.3603H187.439C188.372 30.4269 189.359 29.6536 190.399 29.0403C191.439 28.4003 192.626 28.0803 193.959 28.0803C196.012 28.0803 197.506 28.7336 198.439 30.0403C199.399 31.3203 199.879 33.2003 199.879 35.6803V48.0003H196.599V36.1203C196.599 34.3069 196.306 32.9869 195.719 32.1603C195.132 31.3336 194.199 30.9203 192.919 30.9203C191.932 30.9203 191.039 31.1736 190.239 31.6803C189.466 32.1869 188.586 32.9336 187.599 33.9203V48.0003H184.319Z" fill="#2F2D28"/>
<path d="M211.274 48.4803C209.887 48.4803 208.567 48.2269 207.314 47.7203C206.061 47.1869 204.967 46.5469 204.034 45.8003L205.674 43.6003C206.527 44.2669 207.407 44.8269 208.314 45.2803C209.221 45.7069 210.247 45.9203 211.394 45.9203C212.674 45.9203 213.634 45.6269 214.274 45.0403C214.914 44.4269 215.234 43.7069 215.234 42.8803C215.234 42.2136 215.007 41.6536 214.554 41.2003C214.127 40.7469 213.567 40.3736 212.874 40.0803C212.207 39.7603 211.514 39.4669 210.794 39.2003C209.887 38.8536 208.994 38.4669 208.114 38.0403C207.234 37.5869 206.514 37.0136 205.954 36.3203C205.394 35.6003 205.114 34.6936 205.114 33.6003C205.114 32.0269 205.701 30.7203 206.874 29.6803C208.074 28.6136 209.727 28.0803 211.834 28.0803C213.034 28.0803 214.154 28.2936 215.194 28.7203C216.234 29.1469 217.127 29.6669 217.874 30.2803L216.274 32.3603C215.607 31.8536 214.914 31.4403 214.194 31.1203C213.474 30.8003 212.687 30.6403 211.834 30.6403C210.607 30.6403 209.701 30.9203 209.114 31.4803C208.554 32.0403 208.274 32.6936 208.274 33.4403C208.274 34.0536 208.474 34.5603 208.874 34.9603C209.274 35.3336 209.794 35.6669 210.434 35.9603C211.074 36.2269 211.754 36.5069 212.474 36.8003C213.407 37.1469 214.327 37.5469 215.234 38.0003C216.141 38.4269 216.887 39.0136 217.474 39.7603C218.087 40.4803 218.394 41.4536 218.394 42.6803C218.394 43.7203 218.114 44.6803 217.554 45.5603C217.021 46.4403 216.221 47.1469 215.154 47.6803C214.114 48.2136 212.821 48.4803 211.274 48.4803Z" fill="#2F2D28"/>
<path d="M231.28 48.0003V21.7603H238.76C240.733 21.7603 242.453 22.0003 243.92 22.4803C245.386 22.9603 246.533 23.7736 247.36 24.9203C248.186 26.0403 248.6 27.5603 248.6 29.4803C248.6 32.2269 247.706 34.2669 245.92 35.6003C244.133 36.9336 241.8 37.6003 238.92 37.6003H234.6V48.0003H231.28ZM234.6 34.8803H238.52C240.813 34.8803 242.506 34.4536 243.6 33.6003C244.72 32.7203 245.28 31.3469 245.28 29.4803C245.28 27.5869 244.693 26.2803 243.52 25.5603C242.373 24.8136 240.653 24.4403 238.36 24.4403H234.6V34.8803Z" fill="#2F2D28"/>
<path d="M253.616 48.0003V28.5603H256.336L256.616 32.0803H256.736C257.403 30.8536 258.216 29.8803 259.176 29.1603C260.136 28.4403 261.163 28.0803 262.256 28.0803C263.029 28.0803 263.723 28.2136 264.336 28.4803L263.696 31.3603C263.376 31.2536 263.083 31.1736 262.816 31.1203C262.549 31.0669 262.216 31.0403 261.816 31.0403C260.989 31.0403 260.123 31.3736 259.216 32.0403C258.336 32.7069 257.563 33.8669 256.896 35.5203V48.0003H253.616Z" fill="#2F2D28"/>
<path d="M274.652 48.4803C273.079 48.4803 271.599 48.0803 270.212 47.2803C268.852 46.4803 267.746 45.3203 266.893 43.8003C266.066 42.2803 265.652 40.4536 265.652 38.3203C265.652 36.1336 266.066 34.2803 266.893 32.7603C267.746 31.2403 268.852 30.0803 270.212 29.2803C271.599 28.4803 273.079 28.0803 274.652 28.0803C276.252 28.0803 277.732 28.4803 279.092 29.2803C280.452 30.0803 281.546 31.2403 282.372 32.7603C283.226 34.2803 283.652 36.1336 283.652 38.3203C283.652 40.4536 283.226 42.2803 282.372 43.8003C281.546 45.3203 280.452 46.4803 279.092 47.2803C277.732 48.0803 276.252 48.4803 274.652 48.4803ZM274.652 45.7603C276.332 45.7603 277.679 45.0803 278.693 43.7203C279.733 42.3336 280.253 40.5336 280.253 38.3203C280.253 36.0803 279.733 34.2669 278.693 32.8803C277.679 31.4936 276.332 30.8003 274.652 30.8003C272.999 30.8003 271.653 31.4936 270.613 32.8803C269.573 34.2669 269.053 36.0803 269.053 38.3203C269.053 40.5336 269.573 42.3336 270.613 43.7203C271.653 45.0803 272.999 45.7603 274.652 45.7603Z" fill="#2F2D28"/>
<path d="M30.6094 97.0003H24.457V83.5628H22.7383V97.0003H16.5859V68.9925H22.7383V80.1643H24.457V68.9925H30.6094V97.0003Z" fill="#2F2D28"/>
<path d="M44.9453 97.0003H40.0234V96.1214C39.6068 96.9156 38.4154 97.3128 36.4492 97.3128C33.4154 97.3128 31.8984 96.1279 31.8984 93.7581V89.2073C31.8984 88.1917 32.263 87.3063 32.9922 86.5511C33.7344 85.7958 35.2188 84.8518 37.4453 83.719C38.7344 83.068 39.3789 82.5471 39.3789 82.1565V78.7971C39.3789 78.055 39.0599 77.6839 38.4219 77.6839C37.6927 77.6839 37.3281 78.5888 37.3281 80.3987C37.3281 80.7242 37.3477 81.206 37.3867 81.844C37.4388 82.482 37.4648 82.9638 37.4648 83.2893H32.0938V78.7581C32.0938 75.6982 34.3073 74.1682 38.7344 74.1682C42.875 74.1682 44.9453 75.7633 44.9453 78.9534V97.0003ZM39.3789 92.762V86.9221C38.1029 87.2346 37.4648 87.8076 37.4648 88.6409V92.762C37.4648 93.4521 37.7969 93.7971 38.4609 93.7971C39.0729 93.7971 39.3789 93.4521 39.3789 92.762Z" fill="#2F2D28"/>
<path d="M59.3008 87.3909H51.8203V92.6839C51.8203 93.4521 52.1458 93.8362 52.7969 93.8362C53.4349 93.8362 53.7539 93.4521 53.7539 92.6839V88.1136H59.3008V92.7229C59.3008 95.7828 57.1198 97.3128 52.7578 97.3128C48.4349 97.3128 46.2734 95.7177 46.2734 92.5276V78.9534C46.2734 75.7633 48.4349 74.1682 52.7578 74.1682C57.1198 74.1682 59.3008 75.6982 59.3008 78.7581V87.3909ZM53.7539 83.9925V78.7971C53.7539 78.055 53.4349 77.6839 52.7969 77.6839C52.1458 77.6839 51.8203 78.055 51.8203 78.7971V83.9925H53.7539Z" fill="#2F2D28"/>
<path d="M71.5859 97.0003H68.0703C65.5573 97.0003 64.0534 96.6227 63.5586 95.8675C63.0638 95.1123 62.8164 93.6604 62.8164 91.512V77.6839H60.3359V74.3245H62.8164V69.7542H68.3828V74.3245H71.3906V77.6839H68.3828V91.4729C68.3828 92.137 68.5781 92.5862 68.9688 92.8206C69.3724 93.0419 70.2448 93.1526 71.5859 93.1526V97.0003Z" fill="#2F2D28"/>
<path d="M83.6562 97.0003H80.1406C77.6276 97.0003 76.1237 96.6227 75.6289 95.8675C75.1341 95.1123 74.8867 93.6604 74.8867 91.512V77.6839H72.4062V74.3245H74.8867V69.7542H80.4531V74.3245H83.4609V77.6839H80.4531V91.4729C80.4531 92.137 80.6484 92.5862 81.0391 92.8206C81.4427 93.0419 82.3151 93.1526 83.6562 93.1526V97.0003Z" fill="#2F2D28"/>
<path d="M97.7383 87.3909H90.2578V92.6839C90.2578 93.4521 90.5833 93.8362 91.2344 93.8362C91.8724 93.8362 92.1914 93.4521 92.1914 92.6839V88.1136H97.7383V92.7229C97.7383 95.7828 95.5573 97.3128 91.1953 97.3128C86.8724 97.3128 84.7109 95.7177 84.7109 92.5276V78.9534C84.7109 75.7633 86.8724 74.1682 91.1953 74.1682C95.5573 74.1682 97.7383 75.6982 97.7383 78.7581V87.3909ZM92.1914 83.9925V78.7971C92.1914 78.055 91.8724 77.6839 91.2344 77.6839C90.5833 77.6839 90.2578 78.055 90.2578 78.7971V83.9925H92.1914Z" fill="#2F2D28"/>
<path d="M112.035 97.0003H106.469V78.7971C106.469 78.107 106.15 77.762 105.512 77.762C104.874 77.762 104.555 78.094 104.555 78.7581V97.0003H98.9883V74.3245H104.555V75.0862C105.297 74.4742 106.443 74.1682 107.992 74.1682C108.995 74.1682 109.919 74.4417 110.766 74.9886C111.612 75.5354 112.035 76.3362 112.035 77.3909V97.0003Z" fill="#2F2D28"/>
<path d="M113.246 87.8792H118.793V92.6839C118.793 93.4521 119.105 93.8362 119.73 93.8362C120.355 93.8362 120.668 93.1005 120.668 91.6292C120.668 89.7151 120.284 88.4781 119.516 87.9182C116.612 86.3948 114.861 85.3336 114.262 84.7346C113.663 84.1227 113.363 83.2112 113.363 82.0003V78.9534C113.363 75.7633 115.525 74.1682 119.848 74.1682C124.053 74.1682 126.156 75.6982 126.156 78.7581V83.2307H120.727L120.844 80.5159C120.844 78.6279 120.499 77.6839 119.809 77.6839C119.118 77.6839 118.773 78.2763 118.773 79.4612C118.773 80.6852 118.923 81.6096 119.223 82.2346C119.535 82.8596 121.241 83.9339 124.34 85.4573C125.629 86.3818 126.273 87.6057 126.273 89.1292V92.5276C126.273 95.7177 124.079 97.3128 119.691 97.3128C115.395 97.3128 113.246 95.7828 113.246 92.7229V87.8792Z" fill="#2F2D28"/>
<path d="M140.453 84.3636H134.906V78.7971C134.906 78.055 134.587 77.6839 133.949 77.6839C133.298 77.6839 132.973 78.055 132.973 78.7971V92.6839C132.973 93.4521 133.298 93.8362 133.949 93.8362C134.587 93.8362 134.906 93.4521 134.906 92.6839V87.1956H140.453V92.7229C140.453 95.7828 138.311 97.3128 134.027 97.3128C129.626 97.3128 127.426 95.7177 127.426 92.5276V78.9534C127.426 75.7633 129.626 74.1682 134.027 74.1682C138.311 74.1682 140.453 75.6982 140.453 78.7581V84.3636Z" fill="#2F2D28"/>
<path d="M154.75 97.0003H149.203V78.719C149.203 78.0289 148.884 77.6839 148.246 77.6839C147.595 77.6839 147.27 78.0159 147.27 78.68V97.0003H141.723V68.9925H147.27V75.0081C147.934 74.4482 149.086 74.1682 150.727 74.1682C151.82 74.1682 152.764 74.4547 153.559 75.0276C154.353 75.6005 154.75 76.3623 154.75 77.3128V97.0003Z" fill="#2F2D28"/>
<path d="M179.164 74.3245L175.277 97.0003H169.164L167.426 87.7229L165.844 97.0003H159.438L155.551 74.3245H160.922L162.836 86.6487L164.555 74.3245H170.16L171.879 86.6487L173.793 74.3245H179.164Z" fill="#2F2D28"/>
<path d="M192.973 87.3909H185.492V92.6839C185.492 93.4521 185.818 93.8362 186.469 93.8362C187.107 93.8362 187.426 93.4521 187.426 92.6839V88.1136H192.973V92.7229C192.973 95.7828 190.792 97.3128 186.43 97.3128C182.107 97.3128 179.945 95.7177 179.945 92.5276V78.9534C179.945 75.7633 182.107 74.1682 186.43 74.1682C190.792 74.1682 192.973 75.6982 192.973 78.7581V87.3909ZM187.426 83.9925V78.7971C187.426 78.055 187.107 77.6839 186.469 77.6839C185.818 77.6839 185.492 78.055 185.492 78.7971V83.9925H187.426Z" fill="#2F2D28"/>
<path d="M199.711 73.0745H194.145V68.9925H199.711V73.0745ZM199.711 97.0003H194.145V74.3245H199.711V97.0003Z" fill="#2F2D28"/>
<path d="M206.488 97.0003H200.922V68.9925H206.488V97.0003Z" fill="#2F2D28"/>
<path d="M220.785 87.3909H213.305V92.6839C213.305 93.4521 213.63 93.8362 214.281 93.8362C214.919 93.8362 215.238 93.4521 215.238 92.6839V88.1136H220.785V92.7229C220.785 95.7828 218.604 97.3128 214.242 97.3128C209.919 97.3128 207.758 95.7177 207.758 92.5276V78.9534C207.758 75.7633 209.919 74.1682 214.242 74.1682C218.604 74.1682 220.785 75.6982 220.785 78.7581V87.3909ZM215.238 83.9925V78.7971C215.238 78.055 214.919 77.6839 214.281 77.6839C213.63 77.6839 213.305 78.055 213.305 78.7971V83.9925H215.238Z" fill="#2F2D28"/>
<path d="M235.238 83.719H229.672V78.7971C229.672 78.107 229.353 77.762 228.715 77.762C228.077 77.762 227.758 78.094 227.758 78.7581V97.0003H222.191V74.3245H227.758V75.0862C228.5 74.4742 229.646 74.1682 231.195 74.1682C232.302 74.1682 233.253 74.4677 234.047 75.0667C234.841 75.6526 235.238 76.4274 235.238 77.3909V83.719Z" fill="#2F2D28"/>
<path d="M37.88 129.72C37.88 132.68 37.32 134.987 36.2 136.64C35.1067 138.267 33.56 139.4 31.56 140.04C29.56 140.68 27.2267 141 24.56 141H18.72V118.48H24.56C27.2267 118.48 29.56 118.907 31.56 119.76C33.56 120.587 35.1067 121.827 36.2 123.48C37.32 125.134 37.88 127.214 37.88 129.72ZM20.56 139.4H24.88C27.0933 139.4 29.0267 139.147 30.68 138.64C32.36 138.134 33.6533 137.187 34.56 135.8C35.4933 134.414 35.96 132.387 35.96 129.72C35.96 127.534 35.4933 125.734 34.56 124.32C33.6533 122.88 32.36 121.827 30.68 121.16C29.0267 120.467 27.0933 120.12 24.88 120.12H20.56V139.4Z" fill="#2F2D28"/>
<path d="M46.445 141.36C44.9517 141.36 43.7117 140.987 42.725 140.24C41.7383 139.494 41.005 138.494 40.525 137.24C40.045 135.96 39.805 134.547 39.805 133C39.805 131.4 40.045 129.974 40.525 128.72C41.0317 127.44 41.7783 126.44 42.765 125.72C43.7517 124.974 44.9783 124.6 46.445 124.6C48.0183 124.6 49.2717 124.987 50.205 125.76C51.1383 126.507 51.805 127.374 52.205 128.36H52.285V124.76H54.125V141H52.605L52.285 137.64H52.205C51.7783 138.627 51.0983 139.494 50.165 140.24C49.2317 140.987 47.9917 141.36 46.445 141.36ZM47.125 139.68C48.8317 139.68 50.1117 139.094 50.965 137.92C51.8183 136.747 52.245 135.12 52.245 133.04C52.245 130.827 51.7917 129.16 50.885 128.04C50.005 126.92 48.7517 126.36 47.125 126.36C45.2317 126.36 43.845 127 42.965 128.28C42.085 129.534 41.645 131.107 41.645 133C41.645 134.974 42.0983 136.587 43.005 137.84C43.9117 139.067 45.285 139.68 47.125 139.68Z" fill="#2F2D28"/>
<path d="M57.7284 141V124.76H59.2884L59.5284 128.92C59.7951 127.774 60.4218 126.787 61.4084 125.96C62.3951 125.134 63.7818 124.734 65.5684 124.76H66.4484V126.8H65.5684C63.7551 126.8 62.4218 127.094 61.5684 127.68C60.7151 128.24 60.1551 129 59.8884 129.96C59.6484 130.92 59.5284 131.987 59.5284 133.16V141H57.7284Z" fill="#2F2D28"/>
<path d="M70.9356 141.04H69.0956V118.48H70.9356V134.32L80.7356 124.76H83.1756L75.8156 131.84L83.2956 141.04H81.0156L74.4956 133.12L70.9356 136.6V141.04Z" fill="#2F2D28"/>
<path d="M92.5734 141.4C90.8401 141.4 89.4001 140.987 88.2534 140.16C87.1334 139.334 86.2934 138.28 85.7334 137C85.1734 135.694 84.9068 134.347 84.9334 132.96C84.9334 131.52 85.2268 130.174 85.8134 128.92C86.4001 127.667 87.2534 126.667 88.3734 125.92C89.5201 125.147 90.9068 124.76 92.5334 124.76C94.5601 124.76 96.2268 125.427 97.5334 126.76C98.8668 128.067 99.6134 129.827 99.7734 132.04C99.8001 132.174 99.8134 132.334 99.8134 132.52C99.8134 132.707 99.8134 132.88 99.8134 133.04H86.6934C86.6934 135.094 87.2001 136.734 88.2134 137.96C89.2268 139.187 90.6801 139.8 92.5734 139.8C93.9334 139.8 95.1068 139.44 96.0934 138.72C97.1068 138 97.7334 137.027 97.9734 135.8H99.7734C99.4534 137.454 98.6401 138.8 97.3334 139.84C96.0534 140.88 94.4668 141.4 92.5734 141.4ZM86.8134 131.84H97.9334C97.9068 131.147 97.7068 130.374 97.3334 129.52C96.9868 128.667 96.4134 127.92 95.6134 127.28C94.8401 126.64 93.8134 126.32 92.5334 126.32C90.7734 126.32 89.4268 126.867 88.4934 127.96C87.5601 129.054 87.0001 130.347 86.8134 131.84Z" fill="#2F2D28"/>
<path d="M103.666 141V124.76H105.226L105.466 128.92C105.733 127.774 106.359 126.787 107.346 125.96C108.333 125.134 109.719 124.734 111.506 124.76H112.386V126.8H111.506C109.693 126.8 108.359 127.094 107.506 127.68C106.653 128.24 106.093 129 105.826 129.96C105.586 130.92 105.466 131.987 105.466 133.16V141H103.666Z" fill="#2F2D28"/>
<path d="M134.437 141.52C132.277 141.52 130.41 141.067 128.837 140.16C127.264 139.227 126.037 137.894 125.157 136.16C124.304 134.4 123.89 132.294 123.917 129.84C123.917 126.134 124.89 123.254 126.837 121.2C128.81 119.12 131.464 118.08 134.797 118.08C137.517 118.08 139.744 118.747 141.477 120.08C143.21 121.387 144.317 123.294 144.797 125.8L143.037 126C142.584 123.867 141.637 122.307 140.197 121.32C138.784 120.307 136.984 119.8 134.797 119.8C131.784 119.8 129.53 120.667 128.037 122.4C126.544 124.134 125.744 126.587 125.637 129.76C125.637 132.934 126.437 135.414 128.037 137.2C129.664 138.96 131.904 139.84 134.757 139.84C137.13 139.84 139.064 139.187 140.557 137.88C142.077 136.547 142.944 134.654 143.157 132.2H136.277V130.68H145.237V141H143.917L143.437 135.52H143.357C143.224 136.08 142.944 136.707 142.517 137.4C142.117 138.094 141.557 138.76 140.837 139.4C140.144 140.014 139.264 140.52 138.197 140.92C137.157 141.32 135.904 141.52 134.437 141.52Z" fill="#2F2D28"/>
<path d="M148.978 141V124.76H150.538L150.778 128.92C151.045 127.774 151.672 126.787 152.658 125.96C153.645 125.134 155.032 124.734 156.818 124.76H157.698V126.8H156.818C155.005 126.8 153.672 127.094 152.818 127.68C151.965 128.24 151.405 129 151.138 129.96C150.898 130.92 150.778 131.987 150.778 133.16V141H148.978Z" fill="#2F2D28"/>
<path d="M166.673 141.4C164.14 141.4 162.233 140.627 160.953 139.08C159.7 137.507 159.073 135.52 159.073 133.12C159.073 130.667 159.713 128.667 160.993 127.12C162.273 125.547 164.166 124.76 166.673 124.76C169.126 124.76 170.993 125.534 172.273 127.08C173.58 128.6 174.233 130.614 174.233 133.12C174.233 134.694 173.953 136.107 173.393 137.36C172.86 138.587 172.033 139.574 170.913 140.32C169.82 141.04 168.406 141.4 166.673 141.4ZM166.673 139.76C168.166 139.76 169.326 139.427 170.153 138.76C170.98 138.094 171.553 137.254 171.873 136.24C172.22 135.2 172.393 134.147 172.393 133.08C172.393 131.987 172.22 130.934 171.873 129.92C171.553 128.88 170.98 128.027 170.153 127.36C169.326 126.667 168.166 126.32 166.673 126.32C165.18 126.32 164.02 126.667 163.193 127.36C162.366 128.027 161.78 128.88 161.433 129.92C161.086 130.934 160.913 131.987 160.913 133.08C160.913 134.147 161.086 135.2 161.433 136.24C161.78 137.254 162.366 138.094 163.193 138.76C164.02 139.427 165.18 139.76 166.673 139.76Z" fill="#2F2D28"/>
<path d="M180.961 141C180.108 141 179.561 140.76 179.321 140.28C179.081 139.8 178.961 139.227 178.961 138.56V126.24H176.281V124.76C177.241 124.76 177.908 124.707 178.281 124.6C178.654 124.467 178.881 124.107 178.961 123.52C179.041 122.934 179.081 121.947 179.081 120.56H180.721V124.76H184.521V126.24H180.721V139.44H184.521V141H180.961Z" fill="#2F2D28"/>
<path d="M194.566 141.4C192.832 141.4 191.392 140.987 190.246 140.16C189.126 139.334 188.286 138.28 187.726 137C187.166 135.694 186.899 134.347 186.926 132.96C186.926 131.52 187.219 130.174 187.806 128.92C188.392 127.667 189.246 126.667 190.366 125.92C191.512 125.147 192.899 124.76 194.526 124.76C196.552 124.76 198.219 125.427 199.526 126.76C200.859 128.067 201.606 129.827 201.766 132.04C201.792 132.174 201.806 132.334 201.806 132.52C201.806 132.707 201.806 132.88 201.806 133.04H188.686C188.686 135.094 189.192 136.734 190.206 137.96C191.219 139.187 192.672 139.8 194.566 139.8C195.926 139.8 197.099 139.44 198.086 138.72C199.099 138 199.726 137.027 199.966 135.8H201.766C201.446 137.454 200.632 138.8 199.326 139.84C198.046 140.88 196.459 141.4 194.566 141.4ZM188.806 131.84H199.926C199.899 131.147 199.699 130.374 199.326 129.52C198.979 128.667 198.406 127.92 197.606 127.28C196.832 126.64 195.806 126.32 194.526 126.32C192.766 126.32 191.419 126.867 190.486 127.96C189.552 129.054 188.992 130.347 188.806 131.84Z" fill="#2F2D28"/>
<path d="M211.338 141.4C209.978 141.4 208.871 141.174 208.018 140.72C207.165 140.24 206.511 139.68 206.058 139.04C205.605 138.4 205.285 137.787 205.098 137.2C204.938 136.614 204.858 136.187 204.858 135.92H206.658C206.658 135.947 206.671 136.174 206.698 136.6C206.751 137 206.911 137.467 207.178 138C207.445 138.534 207.898 139 208.538 139.4C209.205 139.774 210.151 139.96 211.378 139.96C212.231 139.96 213.031 139.867 213.778 139.68C214.551 139.467 215.165 139.147 215.618 138.72C216.098 138.267 216.338 137.68 216.338 136.96C216.311 136.107 216.031 135.454 215.498 135C214.965 134.52 214.271 134.16 213.418 133.92C212.565 133.68 211.671 133.467 210.738 133.28C209.805 133.094 208.911 132.84 208.058 132.52C207.231 132.2 206.551 131.734 206.018 131.12C205.511 130.507 205.271 129.667 205.298 128.6C205.298 127.347 205.885 126.32 207.058 125.52C208.231 124.72 209.738 124.32 211.578 124.32C212.271 124.32 212.991 124.4 213.738 124.56C214.511 124.72 215.231 125 215.898 125.4C216.565 125.8 217.098 126.36 217.498 127.08C217.898 127.774 218.071 128.667 218.018 129.76H216.258C216.311 128.934 216.178 128.267 215.858 127.76C215.538 127.227 215.111 126.827 214.578 126.56C214.071 126.294 213.538 126.12 212.978 126.04C212.418 125.934 211.911 125.88 211.458 125.88C210.205 125.88 209.138 126.12 208.258 126.6C207.405 127.054 206.978 127.734 206.978 128.64C206.978 129.467 207.245 130.094 207.778 130.52C208.311 130.92 209.005 131.24 209.858 131.48C210.711 131.694 211.605 131.907 212.538 132.12C213.471 132.307 214.351 132.574 215.178 132.92C216.031 133.24 216.725 133.72 217.258 134.36C217.818 135 218.098 135.894 218.098 137.04C218.098 138.054 217.791 138.894 217.178 139.56C216.565 140.2 215.738 140.667 214.698 140.96C213.685 141.254 212.565 141.4 211.338 141.4Z" fill="#2F2D28"/>
<path d="M227.997 141.4C226.451 141.4 225.131 141.04 224.038 140.32C222.944 139.574 222.117 138.574 221.557 137.32C220.997 136.067 220.717 134.667 220.717 133.12C220.717 131.52 220.997 130.094 221.557 128.84C222.144 127.587 222.984 126.6 224.077 125.88C225.171 125.134 226.491 124.76 228.038 124.76C229.131 124.76 230.051 124.96 230.798 125.36C231.571 125.734 232.184 126.187 232.637 126.72C233.091 127.227 233.424 127.72 233.637 128.2C233.877 128.654 234.038 128.974 234.118 129.16H234.197L234.518 124.76H236.077V147.4H234.238V137.04H234.158C234.078 137.227 233.904 137.547 233.637 138C233.397 138.454 233.037 138.947 232.557 139.48C232.077 140.014 231.464 140.467 230.717 140.84C229.971 141.214 229.064 141.4 227.997 141.4ZM228.197 139.68C229.824 139.68 231.211 139.107 232.357 137.96C233.531 136.814 234.118 135.187 234.118 133.08C234.118 131.027 233.571 129.427 232.477 128.28C231.411 127.107 230.077 126.52 228.477 126.52C227.144 126.52 226.038 126.84 225.158 127.48C224.278 128.094 223.611 128.907 223.158 129.92C222.731 130.907 222.518 131.96 222.518 133.08C222.518 134.2 222.704 135.267 223.077 136.28C223.477 137.294 224.091 138.12 224.917 138.76C225.771 139.374 226.864 139.68 228.197 139.68Z" fill="#2F2D28"/>
<path d="M245.83 141.4C244.124 141.4 242.817 141.014 241.91 140.24C241.004 139.467 240.377 138.467 240.03 137.24C239.71 135.987 239.55 134.654 239.55 133.24V124.76H241.35V133.24C241.35 134.467 241.47 135.574 241.71 136.56C241.977 137.52 242.457 138.294 243.15 138.88C243.87 139.44 244.91 139.72 246.27 139.72C247.55 139.72 248.564 139.427 249.31 138.84C250.084 138.227 250.657 137.454 251.03 136.52C251.404 135.56 251.617 134.547 251.67 133.48L251.71 124.76H253.55V141H252.03L251.71 137.12H251.63C251.47 137.68 251.15 138.294 250.67 138.96C250.19 139.627 249.55 140.2 248.75 140.68C247.977 141.16 247.004 141.4 245.83 141.4Z" fill="#2F2D28"/>
<path d="M264.409 141.4C262.676 141.4 261.236 140.987 260.089 140.16C258.969 139.334 258.129 138.28 257.569 137C257.009 135.694 256.743 134.347 256.769 132.96C256.769 131.52 257.063 130.174 257.649 128.92C258.236 127.667 259.089 126.667 260.209 125.92C261.356 125.147 262.743 124.76 264.369 124.76C266.396 124.76 268.063 125.427 269.369 126.76C270.703 128.067 271.449 129.827 271.609 132.04C271.636 132.174 271.649 132.334 271.649 132.52C271.649 132.707 271.649 132.88 271.649 133.04H258.529C258.529 135.094 259.036 136.734 260.049 137.96C261.063 139.187 262.516 139.8 264.409 139.8C265.769 139.8 266.943 139.44 267.929 138.72C268.943 138 269.569 137.027 269.809 135.8H271.609C271.289 137.454 270.476 138.8 269.169 139.84C267.889 140.88 266.303 141.4 264.409 141.4ZM258.649 131.84H269.769C269.743 131.147 269.543 130.374 269.169 129.52C268.823 128.667 268.249 127.92 267.449 127.28C266.676 126.64 265.649 126.32 264.369 126.32C262.609 126.32 261.263 126.867 260.329 127.96C259.396 129.054 258.836 130.347 258.649 131.84Z" fill="#2F2D28"/>
<path d="M18.4 189V186.2H22.32V163.88H18.4V161.08H29.6V163.88H25.68V186.2H29.6V189H18.4Z" fill="#2F2D28"/>
<path d="M35.7356 161.08H47.2156C49.5356 161.08 51.349 161.734 52.6556 163.04C53.989 164.347 54.6556 166.094 54.6556 168.28C54.6556 169.32 54.509 170.2 54.2156 170.92C53.9223 171.64 53.549 172.24 53.0956 172.72C52.6423 173.174 52.149 173.52 51.6156 173.76C51.0823 173.974 50.589 174.12 50.1356 174.2V174.44C50.6423 174.467 51.2023 174.6 51.8156 174.84C52.4556 175.08 53.0556 175.467 53.6156 176C54.1756 176.507 54.6423 177.174 55.0156 178C55.4156 178.8 55.6156 179.774 55.6156 180.92C55.6156 182.067 55.429 183.134 55.0556 184.12C54.709 185.107 54.2156 185.96 53.5756 186.68C52.9356 187.4 52.1756 187.974 51.2956 188.4C50.4156 188.8 49.4556 189 48.4156 189H35.7356V161.08ZM39.0956 186.04H47.3756C48.8156 186.04 49.949 185.68 50.7756 184.96C51.6023 184.214 52.0156 183.134 52.0156 181.72V180.36C52.0156 178.947 51.6023 177.88 50.7756 177.16C49.949 176.414 48.8156 176.04 47.3756 176.04H39.0956V186.04ZM39.0956 173.16H46.8156C48.149 173.16 49.189 172.827 49.9356 172.16C50.6823 171.494 51.0556 170.534 51.0556 169.28V167.92C51.0556 166.667 50.6823 165.707 49.9356 165.04C49.189 164.374 48.149 164.04 46.8156 164.04H39.0956V173.16Z" fill="#2F2D28"/>
<path d="M83.6284 165.48H83.4284L81.0684 170.16L74.3884 182.32L67.7084 170.16L65.3484 165.48H65.1484V189H61.8684V161.08H66.3484L74.3484 176.12H74.5484L82.5884 161.08H86.9084V189H83.6284V165.48Z" fill="#2F2D28"/>
<path d="M103.783 189V161.08H114.903C117.409 161.08 119.329 161.8 120.662 163.24C122.022 164.654 122.702 166.6 122.702 169.08C122.702 171.56 122.022 173.52 120.662 174.96C119.329 176.374 117.409 177.08 114.903 177.08H107.143V189H103.783ZM107.143 174.12H114.903C116.236 174.12 117.262 173.774 117.982 173.08C118.729 172.387 119.103 171.4 119.103 170.12V168.04C119.103 166.76 118.729 165.774 117.982 165.08C117.262 164.387 116.236 164.04 114.903 164.04H107.143V174.12Z" fill="#2F2D28"/>
<path d="M131.12 189C130 189 129.147 188.694 128.56 188.08C128 187.44 127.72 186.64 127.72 185.68V159.4H130.92V186.2H133.96V189H131.12Z" fill="#2F2D28"/>
<path d="M146.379 189.48C144.965 189.48 143.685 189.227 142.539 188.72C141.419 188.214 140.445 187.494 139.619 186.56C138.819 185.6 138.192 184.467 137.739 183.16C137.312 181.827 137.099 180.334 137.099 178.68C137.099 177.054 137.312 175.574 137.739 174.24C138.192 172.907 138.819 171.774 139.619 170.84C140.445 169.88 141.419 169.147 142.539 168.64C143.685 168.134 144.965 167.88 146.379 167.88C147.765 167.88 149.005 168.134 150.099 168.64C151.192 169.147 152.125 169.854 152.899 170.76C153.672 171.64 154.259 172.694 154.659 173.92C155.085 175.147 155.299 176.494 155.299 177.96V179.48H140.459V180.44C140.459 181.32 140.592 182.147 140.859 182.92C141.152 183.667 141.552 184.32 142.059 184.88C142.592 185.44 143.232 185.88 143.979 186.2C144.752 186.52 145.619 186.68 146.579 186.68C147.885 186.68 149.019 186.374 149.979 185.76C150.965 185.147 151.725 184.267 152.259 183.12L154.539 184.76C153.872 186.174 152.832 187.32 151.419 188.2C150.005 189.054 148.325 189.48 146.379 189.48ZM146.379 170.56C145.499 170.56 144.699 170.72 143.979 171.04C143.259 171.334 142.632 171.76 142.099 172.32C141.592 172.88 141.192 173.547 140.899 174.32C140.605 175.067 140.459 175.894 140.459 176.8V177.08H151.859V176.64C151.859 174.8 151.352 173.334 150.339 172.24C149.352 171.12 148.032 170.56 146.379 170.56Z" fill="#2F2D28"/>
<path d="M157.543 189L165.183 178.6L157.863 168.36H161.623L166.863 176.04H166.983L172.423 168.36H175.983L168.703 178.36L176.143 189H172.383L167.023 180.92H166.903L161.103 189H157.543Z" fill="#2F2D28"/>
<path d="M197.99 189.48C195.723 189.48 193.79 189.054 192.19 188.2C190.59 187.32 189.23 186.12 188.11 184.6L190.59 182.52C191.576 183.827 192.67 184.827 193.87 185.52C195.07 186.187 196.483 186.52 198.11 186.52C200.11 186.52 201.63 186.04 202.67 185.08C203.736 184.12 204.27 182.84 204.27 181.24C204.27 179.907 203.87 178.88 203.07 178.16C202.27 177.44 200.95 176.867 199.11 176.44L196.83 175.92C194.27 175.334 192.31 174.454 190.95 173.28C189.616 172.08 188.95 170.4 188.95 168.24C188.95 167.014 189.176 165.92 189.63 164.96C190.083 164 190.71 163.2 191.51 162.56C192.336 161.92 193.31 161.44 194.43 161.12C195.576 160.774 196.83 160.6 198.19 160.6C200.296 160.6 202.096 160.987 203.59 161.76C205.11 162.534 206.39 163.667 207.43 165.16L204.91 167C204.136 165.934 203.203 165.094 202.11 164.48C201.016 163.867 199.656 163.56 198.03 163.56C196.243 163.56 194.83 163.947 193.79 164.72C192.776 165.467 192.27 166.6 192.27 168.12C192.27 169.454 192.696 170.467 193.55 171.16C194.43 171.827 195.75 172.36 197.51 172.76L199.79 173.28C202.536 173.894 204.523 174.827 205.75 176.08C206.976 177.334 207.59 179 207.59 181.08C207.59 182.36 207.363 183.52 206.91 184.56C206.483 185.6 205.856 186.48 205.03 187.2C204.203 187.92 203.19 188.48 201.99 188.88C200.816 189.28 199.483 189.48 197.99 189.48Z" fill="#2F2D28"/>
<path d="M228.072 189C226.872 189 226.005 188.68 225.472 188.04C224.965 187.4 224.645 186.6 224.512 185.64H224.312C223.859 186.92 223.112 187.88 222.072 188.52C221.032 189.16 219.792 189.48 218.352 189.48C216.165 189.48 214.459 188.92 213.232 187.8C212.032 186.68 211.432 185.16 211.432 183.24C211.432 181.294 212.139 179.8 213.552 178.76C214.992 177.72 217.219 177.2 220.232 177.2H224.312V175.16C224.312 173.694 223.912 172.574 223.112 171.8C222.312 171.027 221.085 170.64 219.432 170.64C218.179 170.64 217.125 170.92 216.272 171.48C215.445 172.04 214.752 172.787 214.192 173.72L212.272 171.92C212.832 170.8 213.725 169.854 214.952 169.08C216.179 168.28 217.725 167.88 219.592 167.88C222.099 167.88 224.045 168.494 225.432 169.72C226.819 170.947 227.512 172.654 227.512 174.84V186.2H229.872V189H228.072ZM218.872 186.76C219.672 186.76 220.405 186.667 221.072 186.48C221.739 186.294 222.312 186.027 222.792 185.68C223.272 185.334 223.645 184.934 223.912 184.48C224.179 184.027 224.312 183.534 224.312 183V179.6H220.072C218.232 179.6 216.885 179.867 216.032 180.4C215.205 180.934 214.792 181.707 214.792 182.72V183.56C214.792 184.574 215.152 185.36 215.872 185.92C216.619 186.48 217.619 186.76 218.872 186.76Z" fill="#2F2D28"/>
<path d="M234.439 189V168.36H237.639V171.72H237.799C238.306 170.547 239.012 169.614 239.919 168.92C240.852 168.227 242.092 167.88 243.639 167.88C245.772 167.88 247.452 168.574 248.679 169.96C249.932 171.32 250.559 173.254 250.559 175.76V189H247.359V176.32C247.359 172.614 245.799 170.76 242.679 170.76C242.039 170.76 241.412 170.84 240.799 171C240.212 171.16 239.679 171.4 239.199 171.72C238.719 172.04 238.332 172.454 238.039 172.96C237.772 173.44 237.639 174.014 237.639 174.68V189H234.439Z" fill="#2F2D28"/>
<path d="M263.373 189.48C261.453 189.48 259.84 189.12 258.533 188.4C257.253 187.654 256.147 186.667 255.213 185.44L257.493 183.6C258.293 184.614 259.187 185.4 260.173 185.96C261.16 186.494 262.307 186.76 263.613 186.76C264.973 186.76 266.027 186.467 266.773 185.88C267.547 185.294 267.933 184.467 267.933 183.4C267.933 182.6 267.667 181.92 267.133 181.36C266.627 180.774 265.693 180.374 264.333 180.16L262.693 179.92C261.733 179.787 260.853 179.587 260.053 179.32C259.253 179.027 258.547 178.654 257.933 178.2C257.347 177.72 256.88 177.134 256.533 176.44C256.213 175.747 256.053 174.92 256.053 173.96C256.053 172.947 256.24 172.067 256.613 171.32C256.987 170.547 257.493 169.907 258.133 169.4C258.8 168.894 259.587 168.52 260.493 168.28C261.4 168.014 262.373 167.88 263.413 167.88C265.093 167.88 266.493 168.174 267.613 168.76C268.76 169.347 269.76 170.16 270.613 171.2L268.493 173.12C268.04 172.48 267.373 171.907 266.493 171.4C265.613 170.867 264.507 170.6 263.173 170.6C261.84 170.6 260.827 170.894 260.133 171.48C259.467 172.04 259.133 172.814 259.133 173.8C259.133 174.814 259.467 175.547 260.133 176C260.827 176.454 261.813 176.787 263.093 177L264.693 177.24C266.987 177.587 268.613 178.254 269.573 179.24C270.533 180.2 271.013 181.467 271.013 183.04C271.013 185.04 270.333 186.614 268.973 187.76C267.613 188.907 265.747 189.48 263.373 189.48Z" fill="#2F2D28"/>
</svg>
