<svg width="238" height="208" viewBox="0 0 238 208" fill="none" xmlns="http://www.w3.org/2000/svg">
<rect width="238" height="208" rx="4" fill="#EBE9E7"/>
<path d="M33.7539 34.5625H42.9141V46.125C39.5547 47.5833 36.2214 48.3125 32.9141 48.3125C28.3958 48.3125 24.7826 46.9974 22.0742 44.3672C19.3789 41.724 18.0312 38.4688 18.0312 34.6016C18.0312 30.526 19.431 27.1341 22.2305 24.4258C25.0299 21.7174 28.5391 20.3633 32.7578 20.3633C34.2943 20.3633 35.7526 20.5326 37.1328 20.8711C38.513 21.1966 40.2578 21.8021 42.3672 22.6875V26.6719C39.112 24.7839 35.8828 23.8398 32.6797 23.8398C29.6979 23.8398 27.1849 24.8555 25.1406 26.8867C23.0964 28.918 22.0742 31.4115 22.0742 34.3672C22.0742 37.4661 23.0964 39.9987 25.1406 41.9648C27.1849 43.931 29.8151 44.9141 33.0312 44.9141C34.5938 44.9141 36.4622 44.556 38.6367 43.8398L39.0078 43.7227V38.0391H33.7539V34.5625Z" fill="#2F2D28"/>
<path d="M49.9648 22.4727C50.5508 22.4727 51.0521 22.6745 51.4688 23.0781C51.8854 23.4818 52.0938 23.9766 52.0938 24.5625C52.0938 25.1354 51.8854 25.6302 51.4688 26.0469C51.0521 26.4635 50.5508 26.6719 49.9648 26.6719C49.418 26.6719 48.9362 26.4635 48.5195 26.0469C48.1029 25.6172 47.8945 25.1224 47.8945 24.5625C47.8945 24.0156 48.1029 23.5339 48.5195 23.1172C48.9362 22.6875 49.418 22.4727 49.9648 22.4727ZM48.207 30.0312H51.7617V48H48.207V30.0312Z" fill="#2F2D28"/>
<path d="M56.9961 20.7148H60.5508V48H56.9961V20.7148Z" fill="#2F2D28"/>
<path d="M65.7852 20.7148H69.3398V48H65.7852V20.7148Z" fill="#2F2D28"/>
<path d="M92.875 36.5547L89.9062 34.7578C88.0443 33.625 86.7161 32.5117 85.9219 31.418C85.1406 30.3112 84.75 29.0417 84.75 27.6094C84.75 25.4609 85.4922 23.7161 86.9766 22.375C88.474 21.0339 90.4141 20.3633 92.7969 20.3633C95.0755 20.3633 97.1654 21.0013 99.0664 22.2773V26.7109C97.1003 24.8229 94.9844 23.8789 92.7188 23.8789C91.4427 23.8789 90.3945 24.1784 89.5742 24.7773C88.7539 25.3633 88.3438 26.1185 88.3438 27.043C88.3438 27.8633 88.6432 28.6315 89.2422 29.3477C89.8411 30.0638 90.8112 30.8125 92.1523 31.5938L95.1406 33.3516C98.474 35.3307 100.141 37.8568 100.141 40.9297C100.141 43.1172 99.4049 44.8945 97.9336 46.2617C96.4753 47.6289 94.5742 48.3125 92.2305 48.3125C89.5352 48.3125 87.0807 47.4857 84.8672 45.832V40.8711C86.9766 43.5404 89.418 44.875 92.1914 44.875C93.4154 44.875 94.431 44.5365 95.2383 43.8594C96.0586 43.1693 96.4688 42.3099 96.4688 41.2812C96.4688 39.6146 95.2708 38.0391 92.875 36.5547Z" fill="#2F2D28"/>
<path d="M115.238 37.1992V44.8359C115.238 45.4479 115.447 45.7539 115.863 45.7539C116.293 45.7539 116.964 45.4349 117.875 44.7969V46.9648C117.068 47.4857 116.417 47.8372 115.922 48.0195C115.44 48.2148 114.932 48.3125 114.398 48.3125C112.875 48.3125 111.977 47.7135 111.703 46.5156C110.193 47.6875 108.585 48.2734 106.879 48.2734C105.629 48.2734 104.587 47.8633 103.754 47.043C102.921 46.2096 102.504 45.168 102.504 43.918C102.504 42.7852 102.908 41.776 103.715 40.8906C104.535 39.9922 105.694 39.2826 107.191 38.7617L111.742 37.1992V36.2422C111.742 34.0807 110.661 33 108.5 33C106.56 33 104.672 34.0026 102.836 36.0078V32.1211C104.216 30.4935 106.202 29.6797 108.793 29.6797C110.733 29.6797 112.289 30.1875 113.461 31.2031C113.852 31.5286 114.203 31.9648 114.516 32.5117C114.828 33.0456 115.023 33.5859 115.102 34.1328C115.193 34.6667 115.238 35.6888 115.238 37.1992ZM111.742 44.4453V39.1133L109.359 40.0312C108.148 40.513 107.289 41.0013 106.781 41.4961C106.286 41.9779 106.039 42.5833 106.039 43.3125C106.039 44.0547 106.273 44.6602 106.742 45.1289C107.224 45.5977 107.842 45.832 108.598 45.832C109.73 45.832 110.779 45.3698 111.742 44.4453Z" fill="#2F2D28"/>
<path d="M124.574 30.0312V32.3164C126.163 30.5586 127.966 29.6797 129.984 29.6797C131.104 29.6797 132.146 29.9727 133.109 30.5586C134.073 31.1315 134.802 31.9258 135.297 32.9414C135.805 33.944 136.059 35.5391 136.059 37.7266V48H132.504V37.7656C132.504 35.9297 132.224 34.6211 131.664 33.8398C131.104 33.0456 130.167 32.6484 128.852 32.6484C127.172 32.6484 125.746 33.4883 124.574 35.168V48H120.941V30.0312H124.574Z" fill="#2F2D28"/>
<path d="M140.141 46.7109V42.8828C141.143 43.5859 142.165 44.1589 143.207 44.6016C144.262 45.0312 145.147 45.2461 145.863 45.2461C146.605 45.2461 147.243 45.0638 147.777 44.6992C148.311 44.3346 148.578 43.8984 148.578 43.3906C148.578 42.8698 148.402 42.4401 148.051 42.1016C147.712 41.75 146.97 41.2487 145.824 40.5977C143.533 39.3216 142.029 38.2344 141.312 37.3359C140.609 36.4245 140.258 35.4349 140.258 34.3672C140.258 32.987 140.792 31.8607 141.859 30.9883C142.94 30.1159 144.327 29.6797 146.02 29.6797C147.777 29.6797 149.581 30.1745 151.43 31.1641V34.6797C149.32 33.4036 147.595 32.7656 146.254 32.7656C145.564 32.7656 145.004 32.9154 144.574 33.2148C144.158 33.5013 143.949 33.8854 143.949 34.3672C143.949 34.7839 144.138 35.181 144.516 35.5586C144.906 35.9362 145.583 36.3919 146.547 36.9258L147.816 37.6484C150.811 39.3411 152.309 41.2161 152.309 43.2734C152.309 44.7448 151.729 45.9557 150.57 46.9062C149.424 47.8438 147.947 48.3125 146.137 48.3125C145.069 48.3125 144.118 48.2018 143.285 47.9805C142.452 47.7461 141.404 47.3229 140.141 46.7109Z" fill="#2F2D28"/>
<path d="M189.75 20.7148H193.383V48H189.457V26.7695L181.059 37.3164H180.336L171.859 26.7695V48H167.953V20.7148H171.625L180.707 31.9258L189.75 20.7148Z" fill="#2F2D28"/>
<path d="M196.957 20.6758H219.75V24.1523H210.238V48H206.312V24.1523H196.957V20.6758Z" fill="#2F2D28"/>
<path d="M25.7461 98V72.3555H15.9805V68.918H39.3789V72.3555H29.6133V98H25.7461Z" fill="#2F2D28"/>
<path d="M54.2031 92.6289V86.5742C53.3307 86.6523 52.224 86.763 50.8828 86.9062C49.5547 87.0365 48.4805 87.2253 47.6602 87.4727C46.6836 87.7721 45.8763 88.2344 45.2383 88.8594C44.6003 89.4714 44.2812 90.3307 44.2812 91.4375C44.2812 92.6875 44.6328 93.6315 45.3359 94.2695C46.0391 94.9076 47.0677 95.2266 48.4219 95.2266C49.5807 95.2266 50.6289 94.9792 51.5664 94.4844C52.5039 93.9766 53.3828 93.3581 54.2031 92.6289ZM54.2031 95.6758C53.9036 95.8971 53.5 96.2096 52.9922 96.6133C52.4974 97.0039 52.0156 97.3164 51.5469 97.5508C50.8958 97.8893 50.2643 98.1497 49.6523 98.332C49.0534 98.5143 48.207 98.6055 47.1133 98.6055C46.2148 98.6055 45.362 98.4362 44.5547 98.0977C43.7474 97.7591 43.0378 97.2839 42.4258 96.6719C41.8398 96.0729 41.3711 95.3372 41.0195 94.4648C40.668 93.5794 40.4922 92.6484 40.4922 91.6719C40.4922 90.1615 40.8112 88.8789 41.4492 87.8242C42.0872 86.7565 43.0964 85.9102 44.4766 85.2852C45.7005 84.7253 47.1458 84.3411 48.8125 84.1328C50.4792 83.9115 52.276 83.7487 54.2031 83.6445V82.9414C54.2031 82.082 54.0729 81.3919 53.8125 80.8711C53.5521 80.3372 53.1875 79.9271 52.7188 79.6406C52.25 79.3411 51.6771 79.1458 51 79.0547C50.3229 78.9505 49.6263 78.8984 48.9102 78.8984C48.0638 78.8984 47.0677 79.0286 45.9219 79.2891C44.776 79.5365 43.6302 79.901 42.4844 80.3828H42.2695V76.6523C42.9466 76.457 43.9167 76.2422 45.1797 76.0078C46.4427 75.7734 47.6927 75.6562 48.9297 75.6562C50.4271 75.6562 51.6901 75.7734 52.7188 76.0078C53.7474 76.2422 54.6719 76.6654 55.4922 77.2773C56.2865 77.8763 56.8789 78.651 57.2695 79.6016C57.6602 80.5521 57.8555 81.7109 57.8555 83.0781V98H54.2031V95.6758Z" fill="#2F2D28"/>
<path d="M80.1797 98H76.5078V85.5781C76.5078 84.5755 76.4557 83.6445 76.3516 82.7852C76.2604 81.9128 76.0781 81.2161 75.8047 80.6953C75.5052 80.1484 75.0885 79.7448 74.5547 79.4844C74.0208 79.2109 73.2917 79.0742 72.3672 79.0742C71.4557 79.0742 70.5117 79.3216 69.5352 79.8164C68.5716 80.2982 67.6276 80.9297 66.7031 81.7109V98H63.0312V67.6094H66.7031V78.6055C67.7969 77.6289 68.8776 76.8802 69.9453 76.3594C71.013 75.8385 72.1393 75.5781 73.3242 75.5781C75.4727 75.5781 77.1523 76.2878 78.3633 77.707C79.5742 79.1133 80.1797 81.1576 80.1797 83.8398V98Z" fill="#2F2D28"/>
<path d="M103.285 87.1016C103.285 90.7734 102.4 93.612 100.629 95.6172C98.8581 97.6094 96.5013 98.6055 93.5586 98.6055C90.5247 98.6055 88.1354 97.5768 86.3906 95.5195C84.6589 93.4492 83.793 90.6432 83.793 87.1016C83.793 83.4557 84.6849 80.6237 86.4688 78.6055C88.2656 76.5872 90.6289 75.5781 93.5586 75.5781C96.5013 75.5781 98.8581 76.5872 100.629 78.6055C102.4 80.6107 103.285 83.4427 103.285 87.1016ZM99.4961 87.1016C99.4961 84.276 98.9818 82.1797 97.9531 80.8125C96.9245 79.4323 95.4596 78.7422 93.5586 78.7422C91.6445 78.7422 90.1667 79.4323 89.125 80.8125C88.0964 82.1797 87.582 84.276 87.582 87.1016C87.582 89.8359 88.0964 91.9128 89.125 93.332C90.1667 94.7383 91.6445 95.4414 93.5586 95.4414C95.4466 95.4414 96.9049 94.7513 97.9336 93.3711C98.9753 91.9779 99.4961 89.888 99.4961 87.1016Z" fill="#2F2D28"/>
<path d="M131.82 98V85.3828C131.82 84.3802 131.781 83.4557 131.703 82.6094C131.625 81.75 131.462 81.0794 131.215 80.5977C130.954 80.0768 130.583 79.6927 130.102 79.4453C129.62 79.1979 128.969 79.0742 128.148 79.0742C127.393 79.0742 126.579 79.3086 125.707 79.7773C124.848 80.2331 123.956 80.8971 123.031 81.7695C123.044 81.9909 123.057 82.2578 123.07 82.5703C123.096 82.8698 123.109 83.2279 123.109 83.6445V98H119.438V85.3828C119.438 84.3802 119.398 83.4557 119.32 82.6094C119.242 81.75 119.079 81.0794 118.832 80.5977C118.572 80.0768 118.201 79.6927 117.719 79.4453C117.237 79.1979 116.586 79.0742 115.766 79.0742C114.971 79.0742 114.138 79.3216 113.266 79.8164C112.393 80.3112 111.547 80.9427 110.727 81.7109V98H107.055V76.1836H110.727V78.6055C111.69 77.6419 112.641 76.8997 113.578 76.3789C114.529 75.8451 115.57 75.5781 116.703 75.5781C117.992 75.5781 119.132 75.8711 120.121 76.457C121.124 77.043 121.885 78.0065 122.406 79.3477C123.513 78.1107 124.594 77.1732 125.648 76.5352C126.703 75.8971 127.849 75.5781 129.086 75.5781C130.023 75.5781 130.876 75.7279 131.645 76.0273C132.413 76.3138 133.083 76.7826 133.656 77.4336C134.242 78.0977 134.691 78.9245 135.004 79.9141C135.329 80.9036 135.492 82.1471 135.492 83.6445V98H131.82Z" fill="#2F2D28"/>
<path d="M152.836 92.6289V86.5742C151.964 86.6523 150.857 86.763 149.516 86.9062C148.188 87.0365 147.113 87.2253 146.293 87.4727C145.316 87.7721 144.509 88.2344 143.871 88.8594C143.233 89.4714 142.914 90.3307 142.914 91.4375C142.914 92.6875 143.266 93.6315 143.969 94.2695C144.672 94.9076 145.701 95.2266 147.055 95.2266C148.214 95.2266 149.262 94.9792 150.199 94.4844C151.137 93.9766 152.016 93.3581 152.836 92.6289ZM152.836 95.6758C152.536 95.8971 152.133 96.2096 151.625 96.6133C151.13 97.0039 150.648 97.3164 150.18 97.5508C149.529 97.8893 148.897 98.1497 148.285 98.332C147.686 98.5143 146.84 98.6055 145.746 98.6055C144.848 98.6055 143.995 98.4362 143.188 98.0977C142.38 97.7591 141.671 97.2839 141.059 96.6719C140.473 96.0729 140.004 95.3372 139.652 94.4648C139.301 93.5794 139.125 92.6484 139.125 91.6719C139.125 90.1615 139.444 88.8789 140.082 87.8242C140.72 86.7565 141.729 85.9102 143.109 85.2852C144.333 84.7253 145.779 84.3411 147.445 84.1328C149.112 83.9115 150.909 83.7487 152.836 83.6445V82.9414C152.836 82.082 152.706 81.3919 152.445 80.8711C152.185 80.3372 151.82 79.9271 151.352 79.6406C150.883 79.3411 150.31 79.1458 149.633 79.0547C148.956 78.9505 148.259 78.8984 147.543 78.8984C146.697 78.8984 145.701 79.0286 144.555 79.2891C143.409 79.5365 142.263 79.901 141.117 80.3828H140.902V76.6523C141.579 76.457 142.549 76.2422 143.812 76.0078C145.076 75.7734 146.326 75.6562 147.562 75.6562C149.06 75.6562 150.323 75.7734 151.352 76.0078C152.38 76.2422 153.305 76.6654 154.125 77.2773C154.919 77.8763 155.512 78.651 155.902 79.6016C156.293 80.5521 156.488 81.7109 156.488 83.0781V98H152.836V95.6758Z" fill="#2F2D28"/>
<path d="M36.2344 136.426C36.2344 136.634 36.2279 136.816 36.2148 136.973C36.2018 137.129 36.1758 137.266 36.1367 137.383C36.1107 137.5 36.0716 137.604 36.0195 137.695C35.9674 137.786 35.8763 137.897 35.7461 138.027C35.6159 138.158 35.3424 138.359 34.9258 138.633C34.5091 138.893 33.9883 139.154 33.3633 139.414C32.7513 139.661 32.0417 139.87 31.2344 140.039C30.4401 140.221 29.5677 140.312 28.6172 140.312C26.9766 140.312 25.4922 140.039 24.1641 139.492C22.849 138.945 21.7227 138.138 20.7852 137.07C19.8607 136.003 19.1445 134.688 18.6367 133.125C18.1419 131.549 17.8945 129.74 17.8945 127.695C17.8945 125.599 18.1615 123.73 18.6953 122.09C19.2422 120.449 20.0039 119.062 20.9805 117.93C21.957 116.784 23.1224 115.911 24.4766 115.312C25.8438 114.714 27.3542 114.414 29.0078 114.414C29.737 114.414 30.4466 114.486 31.1367 114.629C31.8268 114.759 32.4648 114.928 33.0508 115.137C33.6367 115.345 34.1576 115.586 34.6133 115.859C35.069 116.133 35.3815 116.361 35.5508 116.543C35.7331 116.712 35.8503 116.842 35.9023 116.934C35.9544 117.025 35.9935 117.135 36.0195 117.266C36.0586 117.383 36.0846 117.526 36.0977 117.695C36.1237 117.865 36.1367 118.066 36.1367 118.301C36.1367 118.561 36.1237 118.783 36.0977 118.965C36.0716 119.147 36.0326 119.303 35.9805 119.434C35.9284 119.551 35.8633 119.642 35.7852 119.707C35.7201 119.759 35.6354 119.785 35.5312 119.785C35.349 119.785 35.0951 119.661 34.7695 119.414C34.444 119.154 34.0208 118.874 33.5 118.574C32.9922 118.262 32.3672 117.982 31.625 117.734C30.8958 117.474 30.0169 117.344 28.9883 117.344C27.8685 117.344 26.8464 117.572 25.9219 118.027C25.0104 118.47 24.2292 119.128 23.5781 120C22.9271 120.872 22.4193 121.94 22.0547 123.203C21.7031 124.453 21.5273 125.885 21.5273 127.5C21.5273 129.102 21.6966 130.521 22.0352 131.758C22.3867 132.982 22.8815 134.01 23.5195 134.844C24.1706 135.664 24.9648 136.289 25.9023 136.719C26.8398 137.135 27.901 137.344 29.0859 137.344C30.0885 137.344 30.9609 137.22 31.7031 136.973C32.4583 136.725 33.0964 136.452 33.6172 136.152C34.151 135.84 34.5872 135.56 34.9258 135.312C35.2643 135.065 35.5312 134.941 35.7266 134.941C35.8177 134.941 35.8958 134.961 35.9609 135C36.026 135.039 36.0781 135.117 36.1172 135.234C36.1562 135.339 36.1823 135.488 36.1953 135.684C36.2214 135.879 36.2344 136.126 36.2344 136.426Z" fill="#2F2D28"/>
<path d="M53.5586 139.531C53.5586 139.688 53.5065 139.805 53.4023 139.883C53.2982 139.961 53.1549 140.02 52.9727 140.059C52.7904 140.098 52.5234 140.117 52.1719 140.117C51.8333 140.117 51.5599 140.098 51.3516 140.059C51.1562 140.02 51.013 139.961 50.9219 139.883C50.8307 139.805 50.7852 139.688 50.7852 139.531V137.773C50.0169 138.594 49.1576 139.232 48.207 139.688C47.2695 140.143 46.2734 140.371 45.2188 140.371C44.2943 140.371 43.4544 140.247 42.6992 140C41.957 139.766 41.319 139.421 40.7852 138.965C40.2643 138.509 39.8542 137.949 39.5547 137.285C39.2682 136.621 39.125 135.866 39.125 135.02C39.125 134.03 39.3268 133.171 39.7305 132.441C40.1341 131.712 40.7135 131.107 41.4688 130.625C42.224 130.143 43.1484 129.785 44.2422 129.551C45.3359 129.303 46.5664 129.18 47.9336 129.18H50.3555V127.812C50.3555 127.135 50.2839 126.536 50.1406 126.016C49.9974 125.495 49.763 125.065 49.4375 124.727C49.125 124.375 48.7148 124.115 48.207 123.945C47.6992 123.763 47.0742 123.672 46.332 123.672C45.5378 123.672 44.8216 123.77 44.1836 123.965C43.5586 124.147 43.0052 124.355 42.5234 124.59C42.0547 124.811 41.6576 125.02 41.332 125.215C41.0195 125.397 40.7852 125.488 40.6289 125.488C40.5247 125.488 40.4336 125.462 40.3555 125.41C40.2773 125.358 40.2057 125.28 40.1406 125.176C40.0885 125.072 40.0495 124.941 40.0234 124.785C39.9974 124.616 39.9844 124.434 39.9844 124.238C39.9844 123.913 40.0039 123.659 40.043 123.477C40.0951 123.281 40.2057 123.099 40.375 122.93C40.5573 122.76 40.8633 122.565 41.293 122.344C41.7227 122.109 42.2174 121.901 42.7773 121.719C43.3372 121.523 43.9492 121.367 44.6133 121.25C45.2773 121.12 45.9479 121.055 46.625 121.055C47.888 121.055 48.9622 121.198 49.8477 121.484C50.7331 121.771 51.4492 122.194 51.9961 122.754C52.543 123.301 52.9401 123.984 53.1875 124.805C53.4349 125.625 53.5586 126.582 53.5586 127.676V139.531ZM50.3555 131.504H47.6016C46.7161 131.504 45.9479 131.582 45.2969 131.738C44.6458 131.882 44.1055 132.103 43.6758 132.402C43.2461 132.689 42.9271 133.04 42.7188 133.457C42.5234 133.861 42.4258 134.329 42.4258 134.863C42.4258 135.775 42.7122 136.504 43.2852 137.051C43.8711 137.585 44.6849 137.852 45.7266 137.852C46.5729 137.852 47.3542 137.637 48.0703 137.207C48.7995 136.777 49.5612 136.12 50.3555 135.234V131.504Z" fill="#2F2D28"/>
<path d="M62.7188 139.512C62.7188 139.616 62.6927 139.707 62.6406 139.785C62.5885 139.85 62.5039 139.909 62.3867 139.961C62.2695 140.013 62.1068 140.052 61.8984 140.078C61.6901 140.104 61.4232 140.117 61.0977 140.117C60.7852 140.117 60.5247 140.104 60.3164 140.078C60.1081 140.052 59.9388 140.013 59.8086 139.961C59.6914 139.909 59.6068 139.85 59.5547 139.785C59.5156 139.707 59.4961 139.616 59.4961 139.512V113.418C59.4961 113.314 59.5156 113.223 59.5547 113.145C59.6068 113.066 59.6914 113.001 59.8086 112.949C59.9388 112.897 60.1081 112.858 60.3164 112.832C60.5247 112.806 60.7852 112.793 61.0977 112.793C61.4232 112.793 61.6901 112.806 61.8984 112.832C62.1068 112.858 62.2695 112.897 62.3867 112.949C62.5039 113.001 62.5885 113.066 62.6406 113.145C62.6927 113.223 62.7188 113.314 62.7188 113.418V139.512Z" fill="#2F2D28"/>
<path d="M71.8984 139.512C71.8984 139.616 71.8724 139.707 71.8203 139.785C71.7682 139.85 71.6836 139.909 71.5664 139.961C71.4492 140.013 71.2865 140.052 71.0781 140.078C70.8698 140.104 70.6029 140.117 70.2773 140.117C69.9648 140.117 69.7044 140.104 69.4961 140.078C69.2878 140.052 69.1185 140.013 68.9883 139.961C68.8711 139.909 68.7865 139.85 68.7344 139.785C68.6953 139.707 68.6758 139.616 68.6758 139.512V121.934C68.6758 121.842 68.6953 121.758 68.7344 121.68C68.7865 121.602 68.8711 121.536 68.9883 121.484C69.1185 121.432 69.2878 121.393 69.4961 121.367C69.7044 121.341 69.9648 121.328 70.2773 121.328C70.6029 121.328 70.8698 121.341 71.0781 121.367C71.2865 121.393 71.4492 121.432 71.5664 121.484C71.6836 121.536 71.7682 121.602 71.8203 121.68C71.8724 121.758 71.8984 121.842 71.8984 121.934V139.512ZM72.2695 115.996C72.2695 116.751 72.1263 117.266 71.8398 117.539C71.5534 117.812 71.026 117.949 70.2578 117.949C69.5026 117.949 68.9818 117.819 68.6953 117.559C68.4219 117.285 68.2852 116.777 68.2852 116.035C68.2852 115.28 68.4284 114.766 68.7148 114.492C69.0013 114.219 69.5286 114.082 70.2969 114.082C71.0521 114.082 71.5664 114.219 71.8398 114.492C72.1263 114.753 72.2695 115.254 72.2695 115.996Z" fill="#2F2D28"/>
<path d="M94.0273 130.488C94.0273 132.012 93.8581 133.385 93.5195 134.609C93.194 135.82 92.7057 136.855 92.0547 137.715C91.4167 138.574 90.6289 139.232 89.6914 139.688C88.7539 140.143 87.6797 140.371 86.4688 140.371C85.9089 140.371 85.388 140.312 84.9062 140.195C84.4375 140.091 83.9753 139.915 83.5195 139.668C83.0638 139.421 82.6081 139.108 82.1523 138.73C81.6966 138.353 81.2148 137.897 80.707 137.363V139.512C80.707 139.616 80.681 139.707 80.6289 139.785C80.5768 139.863 80.4922 139.928 80.375 139.98C80.2578 140.02 80.1081 140.052 79.9258 140.078C79.7565 140.104 79.5352 140.117 79.2617 140.117C79.0013 140.117 78.7799 140.104 78.5977 140.078C78.4154 140.052 78.2656 140.02 78.1484 139.98C78.0312 139.928 77.9531 139.863 77.9141 139.785C77.875 139.707 77.8555 139.616 77.8555 139.512V113.418C77.8555 113.314 77.875 113.223 77.9141 113.145C77.9661 113.066 78.0508 113.001 78.168 112.949C78.2982 112.897 78.4674 112.858 78.6758 112.832C78.8841 112.806 79.1445 112.793 79.457 112.793C79.7826 112.793 80.0495 112.806 80.2578 112.832C80.4661 112.858 80.6289 112.897 80.7461 112.949C80.8633 113.001 80.9479 113.066 81 113.145C81.0521 113.223 81.0781 113.314 81.0781 113.418V123.945C81.599 123.411 82.1003 122.962 82.582 122.598C83.0768 122.233 83.5586 121.94 84.0273 121.719C84.4961 121.484 84.9648 121.315 85.4336 121.211C85.9023 121.107 86.3971 121.055 86.918 121.055C88.194 121.055 89.2812 121.309 90.1797 121.816C91.0911 122.324 91.8268 123.008 92.3867 123.867C92.9596 124.714 93.3763 125.71 93.6367 126.855C93.8971 128.001 94.0273 129.212 94.0273 130.488ZM90.6289 130.859C90.6289 129.961 90.5573 129.089 90.4141 128.242C90.2839 127.396 90.0495 126.647 89.7109 125.996C89.3724 125.345 88.9232 124.824 88.3633 124.434C87.8034 124.03 87.1068 123.828 86.2734 123.828C85.8568 123.828 85.4466 123.887 85.043 124.004C84.6393 124.121 84.2292 124.316 83.8125 124.59C83.3958 124.863 82.9596 125.215 82.5039 125.645C82.0612 126.074 81.5859 126.615 81.0781 127.266V134.277C81.9635 135.358 82.8099 136.185 83.6172 136.758C84.4245 137.318 85.2643 137.598 86.1367 137.598C86.944 137.598 87.6341 137.402 88.207 137.012C88.7799 136.621 89.2422 136.107 89.5938 135.469C89.9583 134.818 90.2188 134.095 90.375 133.301C90.5443 132.493 90.6289 131.68 90.6289 130.859Z" fill="#2F2D28"/>
<path d="M109.145 123.086C109.145 123.372 109.138 123.613 109.125 123.809C109.112 124.004 109.086 124.16 109.047 124.277C109.008 124.382 108.956 124.466 108.891 124.531C108.839 124.583 108.76 124.609 108.656 124.609C108.552 124.609 108.422 124.583 108.266 124.531C108.122 124.466 107.953 124.408 107.758 124.355C107.576 124.29 107.367 124.232 107.133 124.18C106.898 124.128 106.645 124.102 106.371 124.102C106.046 124.102 105.727 124.167 105.414 124.297C105.102 124.427 104.77 124.642 104.418 124.941C104.079 125.241 103.721 125.638 103.344 126.133C102.966 126.628 102.549 127.233 102.094 127.949V139.512C102.094 139.616 102.068 139.707 102.016 139.785C101.964 139.85 101.879 139.909 101.762 139.961C101.645 140.013 101.482 140.052 101.273 140.078C101.065 140.104 100.798 140.117 100.473 140.117C100.16 140.117 99.8997 140.104 99.6914 140.078C99.4831 140.052 99.3138 140.013 99.1836 139.961C99.0664 139.909 98.9818 139.85 98.9297 139.785C98.8906 139.707 98.8711 139.616 98.8711 139.512V121.934C98.8711 121.829 98.8906 121.745 98.9297 121.68C98.9688 121.602 99.0469 121.536 99.1641 121.484C99.2812 121.419 99.431 121.38 99.6133 121.367C99.7956 121.341 100.036 121.328 100.336 121.328C100.622 121.328 100.857 121.341 101.039 121.367C101.234 121.38 101.384 121.419 101.488 121.484C101.592 121.536 101.664 121.602 101.703 121.68C101.755 121.745 101.781 121.829 101.781 121.934V124.492C102.263 123.789 102.712 123.216 103.129 122.773C103.559 122.331 103.962 121.986 104.34 121.738C104.717 121.478 105.089 121.302 105.453 121.211C105.831 121.107 106.208 121.055 106.586 121.055C106.755 121.055 106.944 121.068 107.152 121.094C107.374 121.107 107.602 121.139 107.836 121.191C108.07 121.243 108.279 121.302 108.461 121.367C108.656 121.432 108.793 121.497 108.871 121.562C108.949 121.628 109.001 121.693 109.027 121.758C109.053 121.81 109.073 121.882 109.086 121.973C109.112 122.064 109.125 122.201 109.125 122.383C109.138 122.552 109.145 122.786 109.145 123.086Z" fill="#2F2D28"/>
<path d="M116.039 139.512C116.039 139.616 116.013 139.707 115.961 139.785C115.909 139.85 115.824 139.909 115.707 139.961C115.59 140.013 115.427 140.052 115.219 140.078C115.01 140.104 114.743 140.117 114.418 140.117C114.105 140.117 113.845 140.104 113.637 140.078C113.428 140.052 113.259 140.013 113.129 139.961C113.012 139.909 112.927 139.85 112.875 139.785C112.836 139.707 112.816 139.616 112.816 139.512V121.934C112.816 121.842 112.836 121.758 112.875 121.68C112.927 121.602 113.012 121.536 113.129 121.484C113.259 121.432 113.428 121.393 113.637 121.367C113.845 121.341 114.105 121.328 114.418 121.328C114.743 121.328 115.01 121.341 115.219 121.367C115.427 121.393 115.59 121.432 115.707 121.484C115.824 121.536 115.909 121.602 115.961 121.68C116.013 121.758 116.039 121.842 116.039 121.934V139.512ZM116.41 115.996C116.41 116.751 116.267 117.266 115.98 117.539C115.694 117.812 115.167 117.949 114.398 117.949C113.643 117.949 113.122 117.819 112.836 117.559C112.562 117.285 112.426 116.777 112.426 116.035C112.426 115.28 112.569 114.766 112.855 114.492C113.142 114.219 113.669 114.082 114.438 114.082C115.193 114.082 115.707 114.219 115.98 114.492C116.267 114.753 116.41 115.254 116.41 115.996Z" fill="#2F2D28"/>
<path d="M35.92 185.74V189H19.66V160.34H23.52V185.74H35.92Z" fill="#2F2D28"/>
<path d="M50.3469 179.88C48.7069 179.933 47.3069 180.067 46.1469 180.28C45.0002 180.48 44.0602 180.747 43.3269 181.08C42.6069 181.413 42.0802 181.807 41.7469 182.26C41.4269 182.713 41.2669 183.22 41.2669 183.78C41.2669 184.313 41.3535 184.773 41.5269 185.16C41.7002 185.547 41.9335 185.867 42.2269 186.12C42.5335 186.36 42.8869 186.54 43.2869 186.66C43.7002 186.767 44.1402 186.82 44.6069 186.82C45.2335 186.82 45.8069 186.76 46.3269 186.64C46.8469 186.507 47.3335 186.32 47.7869 186.08C48.2535 185.84 48.6935 185.553 49.1069 185.22C49.5335 184.887 49.9469 184.507 50.3469 184.08V179.88ZM38.8469 171.6C39.9669 170.52 41.1735 169.713 42.4669 169.18C43.7602 168.647 45.1935 168.38 46.7669 168.38C47.9002 168.38 48.9069 168.567 49.7869 168.94C50.6669 169.313 51.4069 169.833 52.0069 170.5C52.6069 171.167 53.0602 171.973 53.3669 172.92C53.6735 173.867 53.8269 174.907 53.8269 176.04V189H52.2469C51.9002 189 51.6335 188.947 51.4469 188.84C51.2602 188.72 51.1135 188.493 51.0069 188.16L50.6069 186.24C50.0735 186.733 49.5535 187.173 49.0469 187.56C48.5402 187.933 48.0069 188.253 47.4469 188.52C46.8869 188.773 46.2869 188.967 45.6469 189.1C45.0202 189.247 44.3202 189.32 43.5469 189.32C42.7602 189.32 42.0202 189.213 41.3269 189C40.6335 188.773 40.0269 188.44 39.5069 188C39.0002 187.56 38.5935 187.007 38.2869 186.34C37.9935 185.66 37.8469 184.86 37.8469 183.94C37.8469 183.14 38.0669 182.373 38.5069 181.64C38.9469 180.893 39.6602 180.233 40.6469 179.66C41.6335 179.087 42.9202 178.62 44.5069 178.26C46.0935 177.887 48.0402 177.673 50.3469 177.62V176.04C50.3469 174.467 50.0069 173.28 49.3269 172.48C48.6469 171.667 47.6535 171.26 46.3469 171.26C45.4669 171.26 44.7269 171.373 44.1269 171.6C43.5402 171.813 43.0269 172.06 42.5869 172.34C42.1602 172.607 41.7869 172.853 41.4669 173.08C41.1602 173.293 40.8535 173.4 40.5469 173.4C40.3069 173.4 40.1002 173.34 39.9269 173.22C39.7535 173.087 39.6069 172.927 39.4869 172.74L38.8469 171.6Z" fill="#2F2D28"/>
<path d="M65.1963 189.32C63.5963 189.32 62.3629 188.873 61.4963 187.98C60.6429 187.087 60.2163 185.8 60.2163 184.12V171.72H57.7762C57.5629 171.72 57.3829 171.66 57.2363 171.54C57.0896 171.407 57.0163 171.207 57.0163 170.94V169.52L60.3363 169.1L61.1562 162.84C61.1963 162.64 61.2829 162.48 61.4163 162.36C61.5629 162.227 61.7496 162.16 61.9762 162.16H63.7762V169.14H69.6362V171.72H63.7762V183.88C63.7762 184.733 63.9829 185.367 64.3963 185.78C64.8096 186.193 65.3429 186.4 65.9963 186.4C66.3696 186.4 66.6896 186.353 66.9562 186.26C67.2362 186.153 67.4763 186.04 67.6763 185.92C67.8763 185.8 68.0429 185.693 68.1763 185.6C68.3229 185.493 68.4496 185.44 68.5563 185.44C68.7429 185.44 68.9096 185.553 69.0563 185.78L70.0963 187.48C69.4829 188.053 68.7429 188.507 67.8763 188.84C67.0096 189.16 66.1163 189.32 65.1963 189.32Z" fill="#2F2D28"/>
<path d="M81.735 168.42C83.215 168.42 84.5483 168.667 85.735 169.16C86.9217 169.653 87.935 170.353 88.775 171.26C89.615 172.167 90.255 173.267 90.695 174.56C91.1483 175.84 91.375 177.273 91.375 178.86C91.375 180.46 91.1483 181.9 90.695 183.18C90.255 184.46 89.615 185.553 88.775 186.46C87.935 187.367 86.9217 188.067 85.735 188.56C84.5483 189.04 83.215 189.28 81.735 189.28C80.2417 189.28 78.895 189.04 77.695 188.56C76.5083 188.067 75.495 187.367 74.655 186.46C73.815 185.553 73.1683 184.46 72.715 183.18C72.275 181.9 72.055 180.46 72.055 178.86C72.055 177.273 72.275 175.84 72.715 174.56C73.1683 173.267 73.815 172.167 74.655 171.26C75.495 170.353 76.5083 169.653 77.695 169.16C78.895 168.667 80.2417 168.42 81.735 168.42ZM81.735 186.5C83.735 186.5 85.2283 185.833 86.215 184.5C87.2017 183.153 87.695 181.28 87.695 178.88C87.695 176.467 87.2017 174.587 86.215 173.24C85.2283 171.893 83.735 171.22 81.735 171.22C80.7217 171.22 79.835 171.393 79.075 171.74C78.3283 172.087 77.7017 172.587 77.195 173.24C76.7017 173.893 76.3283 174.7 76.075 175.66C75.835 176.607 75.715 177.68 75.715 178.88C75.715 181.28 76.2083 183.153 77.195 184.5C78.195 185.833 79.7083 186.5 81.735 186.5Z" fill="#2F2D28"/>
</svg>
