<svg aria-hidden="true" style="position: absolute; width: 0; height: 0; overflow: hidden;" version="1.1" xmlns="http://www.w3.org/2000/svg" xmlns:xlink="http://www.w3.org/1999/xlink">
<defs>
<symbol id="icon-icon-layout" viewBox="0 0 32 32">
<path d="M1.333 0h12.667c0.736 0 1.333 0.597 1.333 1.333v7.067c0 0.736-0.597 1.333-1.333 1.333h-12.667c-0.736 0-1.333-0.597-1.333-1.333v-7.067c0-0.736 0.597-1.333 1.333-1.333z"></path>
<path d="M18 0h12.667c0.736 0 1.333 0.597 1.333 1.333v7.067c0 0.736-0.597 1.333-1.333 1.333h-12.667c-0.736 0-1.333-0.597-1.333-1.333v-7.067c0-0.736 0.597-1.333 1.333-1.333z"></path>
<path d="M1.333 22.267h29.333c0.736 0 1.333 0.597 1.333 1.333v7.067c0 0.736-0.597 1.333-1.333 1.333h-29.333c-0.736 0-1.333-0.597-1.333-1.333v-7.067c0-0.736 0.597-1.333 1.333-1.333z"></path>
<path d="M1.333 11.067h7.067c0.736 0 1.333 0.597 1.333 1.333v7.067c0 0.736-0.597 1.333-1.333 1.333h-7.067c-0.736 0-1.333-0.597-1.333-1.333v-7.067c0-0.736 0.597-1.333 1.333-1.333z"></path>
<path d="M12.4 11.067h7.067c0.736 0 1.333 0.597 1.333 1.333v7.067c0 0.736-0.597 1.333-1.333 1.333h-7.067c-0.736 0-1.333-0.597-1.333-1.333v-7.067c0-0.736 0.597-1.333 1.333-1.333z"></path>
<path d="M23.6 11.067h7.067c0.736 0 1.333 0.597 1.333 1.333v7.067c0 0.736-0.597 1.333-1.333 1.333h-7.067c-0.736 0-1.333-0.597-1.333-1.333v-7.067c0-0.736 0.597-1.333 1.333-1.333z"></path>
</symbol>
<symbol id="icon-home" viewBox="0 0 32 32">
<path d="M32 18.451l-16-12.42-16 12.42v-5.064l16-12.42 16 12.42zM28 18v12h-8v-8h-8v8h-8v-12l12-9z"></path>
</symbol>
<symbol id="icon-pencil2" viewBox="0 0 32 32">
<path d="M12 20l4-2 14-14-2-2-14 14-2 4zM9.041 27.097c-0.989-2.085-2.052-3.149-4.137-4.137l3.097-8.525 4-2.435 12-12h-6l-12 12-6 20 20-6 12-12v-6l-12 12-2.435 4z"></path>
</symbol>
<symbol id="icon-paint-format" viewBox="0 0 32 32">
<path d="M32 18v-12h-6v-2c0-1.1-0.9-2-2-2h-22c-1.1 0-2 0.9-2 2v6c0 1.1 0.9 2 2 2h22c1.1 0 2-0.9 2-2v-2h4v8h-18v4h-1c-0.552 0-1 0.448-1 1v10c0 0.552 0.448 1 1 1h4c0.552 0 1-0.448 1-1v-10c0-0.552-0.448-1-1-1h-1v-2h18zM24 6h-22v-2h22v2z"></path>
</symbol>
<symbol id="icon-images" viewBox="0 0 36 32">
<path d="M34 4h-2v-2c0-1.1-0.9-2-2-2h-28c-1.1 0-2 0.9-2 2v24c0 1.1 0.9 2 2 2h2v2c0 1.1 0.9 2 2 2h28c1.1 0 2-0.9 2-2v-24c0-1.1-0.9-2-2-2zM4 6v20h-1.996c-0.001-0.001-0.003-0.002-0.004-0.004v-23.993c0.001-0.001 0.002-0.003 0.004-0.004h27.993c0.001 0.001 0.003 0.002 0.004 0.004v1.996h-24c-1.1 0-2 0.9-2 2v0zM34 29.996c-0.001 0.001-0.002 0.003-0.004 0.004h-27.993c-0.001-0.001-0.003-0.002-0.004-0.004v-23.993c0.001-0.001 0.002-0.003 0.004-0.004h27.993c0.001 0.001 0.003 0.002 0.004 0.004v23.993z"></path>
<path d="M30 11c0 1.657-1.343 3-3 3s-3-1.343-3-3 1.343-3 3-3 3 1.343 3 3z"></path>
<path d="M32 28h-24v-4l7-12 8 10h2l7-6z"></path>
</symbol>
<symbol id="icon-files-empty" viewBox="0 0 32 32">
<path d="M28.681 11.159c-0.694-0.947-1.662-2.053-2.724-3.116s-2.169-2.030-3.116-2.724c-1.612-1.182-2.393-1.319-2.841-1.319h-11.5c-1.379 0-2.5 1.122-2.5 2.5v23c0 1.378 1.121 2.5 2.5 2.5h19c1.378 0 2.5-1.122 2.5-2.5v-15.5c0-0.448-0.137-1.23-1.319-2.841zM24.543 9.457c0.959 0.959 1.712 1.825 2.268 2.543h-4.811v-4.811c0.718 0.556 1.584 1.309 2.543 2.268v0zM28 29.5c0 0.271-0.229 0.5-0.5 0.5h-19c-0.271 0-0.5-0.229-0.5-0.5v-23c0-0.271 0.229-0.5 0.5-0.5 0 0 11.499-0 11.5 0v7c0 0.552 0.448 1 1 1h7v15.5z"></path>
<path d="M18.841 1.319c-1.612-1.182-2.393-1.319-2.841-1.319h-11.5c-1.378 0-2.5 1.121-2.5 2.5v23c0 1.207 0.86 2.217 2 2.45v-25.45c0-0.271 0.229-0.5 0.5-0.5h15.215c-0.301-0.248-0.595-0.477-0.873-0.681z"></path>
</symbol>
<symbol id="icon-circle-right" viewBox="0 0 32 32">
<path d="M16 0c-8.837 0-16 7.163-16 16s7.163 16 16 16 16-7.163 16-16-7.163-16-16-16zM16 29c-7.18 0-13-5.82-13-13s5.82-13 13-13 13 5.82 13 13-5.82 13-13 13z"></path>
<path d="M11.086 22.086l2.829 2.829 8.914-8.914-8.914-8.914-2.828 2.828 6.086 6.086z"></path>
</symbol>
<symbol id="icon-circle-down" viewBox="0 0 32 32">
<path d="M32 16c0-8.837-7.163-16-16-16s-16 7.163-16 16 7.163 16 16 16 16-7.163 16-16zM3 16c0-7.18 5.82-13 13-13s13 5.82 13 13-5.82 13-13 13-13-5.82-13-13z"></path>
<path d="M9.914 11.086l-2.829 2.829 8.914 8.914 8.914-8.914-2.828-2.828-6.086 6.086z"></path>
</symbol>
<symbol id="icon-font" viewBox="0 0 32 32">
<path d="M24.987 0.506c-2.829 0-4.644-0.506-7.558-0.506-9.415 0-13.806 5.362-13.806 10.809 0 3.209 1.52 4.264 4.518 4.264-0.211-0.464-0.591-0.971-0.591-3.251 0-6.375 2.406-8.233 5.489-8.36 0 0-2.529 24.793-9.868 27.767v0.771h9.894l3.376-16h6.183l1.377-4h-6.716l1.623-7.693c1.858 0.38 3.673 0.76 5.235 0.76 1.942 0 3.715-0.591 4.686-5.066-1.182 0.38-2.449 0.506-3.842 0.506z"></path>
</symbol>
</defs>
</svg>
