<svg width="330" height="204" viewBox="0 0 330 204" fill="none" xmlns="http://www.w3.org/2000/svg">
<rect width="330" height="204" rx="4" fill="#EBE9E7"/>
<path d="M21.957 46.0039V21.8047H17.9141V20.8086H31.4492C32.9336 20.8086 34.1836 20.8867 35.1992 21.043C36.2148 21.1862 37.1914 21.5703 38.1289 22.1953C39.0664 22.8203 39.737 23.5951 40.1406 24.5195C40.5573 25.431 40.7656 26.2969 40.7656 27.1172C40.7656 30.2292 38.3763 32.2669 33.5977 33.2305V33.3281C38.9883 34.2005 41.6836 36.4401 41.6836 40.0469C41.6836 40.9323 41.4427 41.8698 40.9609 42.8594C40.4792 43.8359 39.7109 44.6823 38.6563 45.3984C37.6016 46.1146 36.5208 46.5638 35.4141 46.7461C34.3203 46.9154 32.9401 47 31.2734 47H17.9141V46.0039H21.957ZM30.6094 21.8047H26.6055V32.8008H30.1992C32.6341 32.8008 34.1901 32.3255 34.8672 31.375C35.5443 30.4245 35.8828 28.9271 35.8828 26.8828C35.8828 25.2812 35.6615 24.1159 35.2188 23.3867C34.776 22.6576 34.2096 22.2148 33.5195 22.0586C32.8425 21.8893 31.8724 21.8047 30.6094 21.8047ZM30.1602 33.7969H26.6055V46.0039H30.2773C31.6445 46.0039 32.7318 45.8997 33.5391 45.6914C34.3594 45.4831 35.056 44.9297 35.6289 44.0312C36.2018 43.1198 36.4883 41.694 36.4883 39.7539C36.4883 37.6836 36.0521 36.1732 35.1797 35.2227C34.3203 34.2721 32.6471 33.7969 30.1602 33.7969Z" fill="#2F2D28"/>
<path d="M45.6875 39.2852C45.6875 37.0326 46.4622 35.1185 48.0117 33.543C49.5612 31.9544 51.4818 31.1602 53.7734 31.1602C56.013 31.1602 57.9076 31.9219 59.457 33.4453C61.0195 34.9557 61.8008 36.8503 61.8008 39.1289C61.8008 41.4596 60.9935 43.4388 59.3789 45.0664C57.7643 46.681 55.8568 47.4883 53.6563 47.4883C51.4948 47.4883 49.6263 46.7005 48.0508 45.125C46.4753 43.5365 45.6875 41.5898 45.6875 39.2852ZM57.4063 39.2852C57.4063 36.8893 57.3216 35.3073 57.1524 34.5391C56.9961 33.7708 56.6315 33.1654 56.0586 32.7227C55.4987 32.2669 54.724 32.0391 53.7344 32.0391C52.7969 32.0391 52.0221 32.2734 51.4102 32.7422C50.8112 33.1979 50.4401 33.8099 50.2969 34.5781C50.1537 35.3464 50.082 36.9284 50.082 39.3242C50.082 41.7331 50.1667 43.3281 50.3359 44.1094C50.5182 44.8906 50.9024 45.5026 51.4883 45.9453C52.0872 46.388 52.8359 46.6094 53.7344 46.6094C54.6458 46.6094 55.401 46.388 56 45.9453C56.612 45.4896 56.9961 44.8646 57.1524 44.0703C57.3216 43.263 57.4063 41.668 57.4063 39.2852Z" fill="#2F2D28"/>
<path d="M81.1758 20.5156V46.0039H83.8125V47H81.625C80.2448 47 78.7865 47.0781 77.25 47.2344V44.0312H77.1719C76.1302 46.3359 74.4635 47.4883 72.1719 47.4883C70.3359 47.4883 68.7149 46.6745 67.3086 45.0469C65.9154 43.4062 65.2188 41.5508 65.2188 39.4805C65.2188 37.2669 65.9544 35.3268 67.4258 33.6602C68.9102 31.9935 70.655 31.1602 72.6602 31.1602C74.7044 31.1602 76.2083 32.0781 77.1719 33.9141H77.25V21.8047H73.6953V20.8086H77.25C78.5651 20.8086 79.8737 20.7109 81.1758 20.5156ZM72.7774 32.0391C71.3581 32.0391 70.4662 32.5729 70.1016 33.6406C69.75 34.6953 69.5742 36.8438 69.5742 40.0859C69.5742 42.8854 69.8021 44.6497 70.2578 45.3789C70.7135 46.1081 71.4492 46.4727 72.4649 46.4727C73.5586 46.4727 74.5221 46.1016 75.3555 45.3594C76.1888 44.6172 76.7357 43.7708 76.9961 42.8203C77.2565 41.8698 77.3867 40.3268 77.3867 38.1914C77.3867 36.1602 76.9766 34.6302 76.1563 33.6016C75.3359 32.5599 74.2096 32.0391 72.7774 32.0391Z" fill="#2F2D28"/>
<path d="M86.5469 39.2852C86.5469 37.0326 87.3216 35.1185 88.8711 33.543C90.4206 31.9544 92.3412 31.1602 94.6328 31.1602C96.8724 31.1602 98.7669 31.9219 100.316 33.4453C101.879 34.9557 102.66 36.8503 102.66 39.1289C102.66 41.4596 101.853 43.4388 100.238 45.0664C98.6237 46.681 96.7162 47.4883 94.5156 47.4883C92.3542 47.4883 90.4857 46.7005 88.9102 45.125C87.3346 43.5365 86.5469 41.5898 86.5469 39.2852ZM98.2656 39.2852C98.2656 36.8893 98.181 35.3073 98.0117 34.5391C97.8555 33.7708 97.4909 33.1654 96.918 32.7227C96.3581 32.2669 95.5833 32.0391 94.5938 32.0391C93.6563 32.0391 92.8815 32.2734 92.2695 32.7422C91.6706 33.1979 91.2995 33.8099 91.1563 34.5781C91.013 35.3464 90.9414 36.9284 90.9414 39.3242C90.9414 41.7331 91.026 43.3281 91.1953 44.1094C91.3776 44.8906 91.7617 45.5026 92.3477 45.9453C92.9466 46.388 93.6953 46.6094 94.5938 46.6094C95.5052 46.6094 96.2604 46.388 96.8594 45.9453C97.4714 45.4896 97.8555 44.8646 98.0117 44.0703C98.181 43.263 98.2656 41.668 98.2656 39.2852Z" fill="#2F2D28"/>
<path d="M108.363 46.0039V32.6445H105.59V31.6484H107.367C109.125 31.6484 110.72 31.5508 112.152 31.3555V35.1641H112.23C113.572 32.4948 115.466 31.1602 117.914 31.1602C119.06 31.1602 119.997 31.4531 120.727 32.0391C121.469 32.625 121.97 33.3151 122.23 34.1094C122.504 34.9036 122.641 36.1341 122.641 37.8008V46.0039H125.688V47H116.234V46.0039H118.832V36.2383C118.832 34.7409 118.734 33.7057 118.539 33.1328C118.357 32.5599 117.868 32.2734 117.074 32.2734C115.811 32.2734 114.672 32.9245 113.656 34.2266C112.654 35.5156 112.152 37.2539 112.152 39.4414V46.0039H114.711V47H105.59V46.0039H108.363Z" fill="#2F2D28"/>
<path d="M129.75 23.8359C129.75 23.263 129.958 22.7682 130.375 22.3516C130.805 21.9349 131.306 21.7266 131.879 21.7266C132.452 21.7266 132.947 21.9349 133.363 22.3516C133.793 22.7552 134.008 23.25 134.008 23.8359C134.008 24.4479 133.799 24.9557 133.383 25.3594C132.966 25.763 132.465 25.9648 131.879 25.9648C131.293 25.9648 130.792 25.763 130.375 25.3594C129.958 24.9427 129.75 24.4349 129.75 23.8359ZM133.676 31.3555V46.0039H136.234V47H127.152V46.0039H129.887V32.6445H127.152V31.6484H129.926C131.254 31.6484 132.504 31.5508 133.676 31.3555Z" fill="#2F2D28"/>
<path d="M148.5 20.8086H157.895L163.5 39.3242H163.578L169.223 20.8086H178.383V21.8047H174.496V46.0039H178.383V47H166.059V46.0039H170.062V21.3555H169.984L162.191 47H161.293L153.5 21.3555H153.422V46.0039H157.426V47H148.5V46.0039H152.426V21.8047H148.5V20.8086Z" fill="#2F2D28"/>
<path d="M182.211 20.8086H204.535L205.219 29.7148H204.223C203.611 26.7331 202.797 24.6693 201.781 23.5234C200.779 22.3776 199.457 21.8047 197.816 21.8047H195.688V46.0039H200.375V47H186.371V46.0039H191.059V21.8047H188.93C187.289 21.8047 185.961 22.3776 184.945 23.5234C183.943 24.6693 183.135 26.7331 182.523 29.7148H181.527L182.211 20.8086Z" fill="#2F2D28"/>
<path d="M30.4 92.72C28.16 92.72 26.16 92.0133 24.4 90.6C22.64 89.1867 21.2667 87.3333 20.28 85.04C19.2933 82.72 18.8 80.2933 18.8 77.76C18.8 75.2267 19.2933 72.8133 20.28 70.52C21.2667 68.2 22.64 66.3333 24.4 64.92C26.16 63.5067 28.16 62.8 30.4 62.8C32.64 62.8 34.64 63.5067 36.4 64.92C38.16 66.3333 39.5333 68.2 40.52 70.52C41.5067 72.8133 42 75.2267 42 77.76C42 80.2933 41.5067 82.72 40.52 85.04C39.5333 87.3333 38.16 89.1867 36.4 90.6C34.64 92.0133 32.64 92.72 30.4 92.72ZM30.4 91.44C33.0133 91.44 34.8933 90.2533 36.04 87.88C37.1867 85.48 37.76 82.1067 37.76 77.76C37.76 73.3867 37.1867 70.0133 36.04 67.64C34.8933 65.2667 33.0133 64.08 30.4 64.08C27.7867 64.08 25.9067 65.2667 24.76 67.64C23.6133 70.0133 23.04 73.3867 23.04 77.76C23.04 82.1067 23.6133 85.48 24.76 87.88C25.9067 90.2533 27.7867 91.44 30.4 91.44Z" fill="#2F2D28"/>
<path d="M45.1278 91.04H47.2078C47.5278 91.04 47.7545 90.9733 47.8878 90.84C48.0212 90.7067 48.0878 90.48 48.0878 90.16V65.36C48.0878 65.04 48.0212 64.8133 47.8878 64.68C47.7545 64.5467 47.5278 64.48 47.2078 64.48H45.1278V63.52H50.9678V90.16C50.9678 90.48 51.0345 90.7067 51.1678 90.84C51.3012 90.9733 51.5278 91.04 51.8478 91.04H53.9278V92H45.1278V91.04Z" fill="#2F2D28"/>
<path d="M63.7491 92.48C62.4957 92.48 61.3224 92.0667 60.2291 91.24C59.1624 90.3867 58.3091 89.2267 57.6691 87.76C57.0291 86.2933 56.7091 84.6667 56.7091 82.88C56.7091 81.0933 57.0291 79.4667 57.6691 78C58.3091 76.5333 59.1624 75.3867 60.2291 74.56C61.3224 73.7067 62.4957 73.28 63.7491 73.28C64.7891 73.28 65.7224 73.6267 66.5491 74.32C67.3757 74.9867 67.9891 75.8 68.3891 76.76L68.5491 76.72V65.36C68.5491 65.04 68.4824 64.8133 68.3491 64.68C68.2157 64.5467 67.9891 64.48 67.6691 64.48H64.7891V63.52H71.4291V90.16C71.4291 90.48 71.4957 90.7067 71.6291 90.84C71.7624 90.9733 71.9891 91.04 72.3091 91.04H74.3891V92H68.5491V89.04L68.3891 89C67.8824 90.0667 67.2291 90.92 66.4291 91.56C65.6557 92.1733 64.7624 92.48 63.7491 92.48ZM64.1891 91.36C64.9891 91.36 65.7224 91.0667 66.3891 90.48C67.0557 89.8933 67.5757 89.0933 67.9491 88.08C68.3491 87.04 68.5491 85.92 68.5491 84.72V81.04C68.5491 79.84 68.3491 78.7333 67.9491 77.72C67.5757 76.68 67.0557 75.8667 66.3891 75.28C65.7224 74.6933 64.9891 74.4 64.1891 74.4C62.8824 74.4 61.8957 75.1333 61.2291 76.6C60.5624 78.0667 60.2291 80.16 60.2291 82.88C60.2291 85.6 60.5624 87.6933 61.2291 89.16C61.8957 90.6267 62.8824 91.36 64.1891 91.36Z" fill="#2F2D28"/>
<path d="M100.938 92.72C99.8184 92.72 98.7118 92.48 97.6184 92C96.5518 91.4933 95.6184 90.9467 94.8184 90.36C93.6984 89.5067 93.0318 89.08 92.8184 89.08C92.2851 89.08 91.9384 89.6533 91.7784 90.8L91.6184 92.4H90.6984L90.4184 79.76H91.3784C91.5384 81.7333 92.0851 83.6267 93.0184 85.44C93.9784 87.2267 95.1651 88.68 96.5784 89.8C97.9918 90.8933 99.4451 91.44 100.938 91.44C103.125 91.44 104.712 90.9067 105.698 89.84C106.712 88.7733 107.218 87.4933 107.218 86C107.218 84.6933 106.832 83.6667 106.058 82.92C105.312 82.1733 104.205 81.5067 102.738 80.92L96.6584 78.48C94.5518 77.6267 92.9918 76.5333 91.9784 75.2C90.9918 73.84 90.4984 72.2133 90.4984 70.32C90.4984 67.76 91.2451 65.8667 92.7384 64.64C94.2318 63.4133 96.0984 62.8 98.3384 62.8C100.098 62.8 102.045 63.6 104.178 65.2C104.445 65.3867 104.712 65.56 104.978 65.72C105.245 65.8533 105.485 65.92 105.698 65.92C106.152 65.92 106.418 65.6 106.498 64.96L106.658 63.52H107.618L108.018 73.92H107.058C106.632 72 105.952 70.2933 105.018 68.8C104.112 67.3067 103.045 66.1467 101.818 65.32C100.592 64.4933 99.3251 64.08 98.0184 64.08C96.5251 64.08 95.2984 64.5733 94.3384 65.56C93.3784 66.52 92.8984 67.8667 92.8984 69.6C92.8984 70.8 93.2051 71.7333 93.8184 72.4C94.4318 73.0667 95.3384 73.64 96.5384 74.12L104.258 77.2C106.045 77.92 107.378 78.9467 108.258 80.28C109.165 81.6133 109.618 83.0133 109.618 84.48C109.618 85.8933 109.298 87.2267 108.658 88.48C108.045 89.7333 107.085 90.76 105.778 91.56C104.498 92.3333 102.885 92.72 100.938 92.72Z" fill="#2F2D28"/>
<path d="M119.943 92.48C118.743 92.48 117.743 92.0533 116.943 91.2C116.17 90.3467 115.783 89.1867 115.783 87.72V74.88H112.823V73.76H113.703C114.903 73.76 115.836 73.12 116.503 71.84C117.196 70.5333 117.543 69.0933 117.543 67.52V66.08H118.663V73.76H123.623V74.88H118.663V87.92C118.663 88.72 118.823 89.3867 119.143 89.92C119.463 90.4533 120.01 90.72 120.783 90.72C122.676 90.72 123.623 89.12 123.623 85.92H124.343C124.343 87.7067 124.076 89.2533 123.543 90.56C123.036 91.84 121.836 92.48 119.943 92.48Z" fill="#2F2D28"/>
<path d="M132.728 92.48C131.314 92.48 130.088 92.1333 129.048 91.44C128.034 90.7467 127.528 89.52 127.528 87.76C127.528 86.4 127.874 85.3333 128.568 84.56C129.261 83.7867 130.061 83.24 130.968 82.92C131.901 82.5733 133.021 82.28 134.328 82.04L138.008 81.36V77.96C138.008 75.48 136.768 74.24 134.288 74.24C133.381 74.24 132.554 74.48 131.808 74.96C131.061 75.4133 130.688 75.9333 130.688 76.52C130.688 76.7867 130.728 76.9867 130.808 77.12C130.861 77.2 130.941 77.28 131.048 77.36C131.181 77.44 131.301 77.4933 131.408 77.52C131.888 77.6533 132.248 77.84 132.488 78.08C132.754 78.32 132.888 78.6533 132.888 79.08C132.888 79.64 132.714 80.04 132.368 80.28C132.048 80.52 131.634 80.64 131.128 80.64C130.541 80.64 130.008 80.4133 129.528 79.96C129.048 79.5067 128.808 78.8533 128.808 78C128.808 77.0133 129.074 76.16 129.608 75.44C130.168 74.72 130.874 74.1867 131.728 73.84C132.608 73.4667 133.501 73.28 134.408 73.28C136.168 73.28 137.688 73.7467 138.968 74.68C140.248 75.5867 140.888 77.0133 140.888 78.96V88.8C140.888 90.1333 141.301 90.8 142.128 90.8C142.794 90.8 143.274 90.4133 143.568 89.64C143.861 88.8667 144.008 87.92 144.008 86.8H144.728C144.728 88.4 144.488 89.7467 144.008 90.84C143.554 91.9333 142.728 92.48 141.528 92.48C140.381 92.48 139.514 92.1467 138.928 91.48C138.368 90.7867 138.061 89.84 138.008 88.64L137.808 88.56C137.408 89.4933 136.754 90.3867 135.848 91.24C134.968 92.0667 133.928 92.48 132.728 92.48ZM133.368 91.04C134.568 91.04 135.501 90.5733 136.168 89.64C136.861 88.68 137.474 87.4667 138.008 86V82.2L134.528 82.96C133.248 83.2267 132.314 83.76 131.728 84.56C131.168 85.3333 130.888 86.44 130.888 87.88C130.888 89.1067 131.141 89.9467 131.648 90.4C132.154 90.8267 132.728 91.04 133.368 91.04Z" fill="#2F2D28"/>
<path d="M146.973 91.04H148.653C148.973 91.04 149.2 90.9733 149.333 90.84C149.466 90.7067 149.533 90.48 149.533 90.16V75.6C149.533 75.28 149.466 75.0533 149.333 74.92C149.2 74.7867 148.973 74.72 148.653 74.72H146.973V73.76H152.413V77.04L152.573 77.08C153.186 75.8 153.946 74.8533 154.853 74.24C155.76 73.6 156.76 73.28 157.853 73.28C159.8 73.28 161.173 73.88 161.973 75.08C162.8 76.28 163.213 77.72 163.213 79.4V90.16C163.213 90.48 163.28 90.7067 163.413 90.84C163.546 90.9733 163.773 91.04 164.093 91.04H165.773V92H157.773V91.04H159.453C159.773 91.04 160 90.9733 160.133 90.84C160.266 90.7067 160.333 90.48 160.333 90.16V78.64C160.333 77.4667 160.093 76.4667 159.613 75.64C159.16 74.8133 158.373 74.4 157.253 74.4C156.32 74.4 155.48 74.7333 154.733 75.4C154.013 76.04 153.44 76.9333 153.013 78.08C152.613 79.2 152.413 80.4533 152.413 81.84V90.16C152.413 90.48 152.48 90.7067 152.613 90.84C152.746 90.9733 152.973 91.04 153.293 91.04H154.973V92H146.973V91.04Z" fill="#2F2D28"/>
<path d="M176.015 92.48C174.761 92.48 173.588 92.0667 172.495 91.24C171.428 90.3867 170.575 89.2267 169.935 87.76C169.295 86.2933 168.975 84.6667 168.975 82.88C168.975 81.0933 169.295 79.4667 169.935 78C170.575 76.5333 171.428 75.3867 172.495 74.56C173.588 73.7067 174.761 73.28 176.015 73.28C177.055 73.28 177.988 73.6267 178.815 74.32C179.641 74.9867 180.255 75.8 180.655 76.76L180.815 76.72V65.36C180.815 65.04 180.748 64.8133 180.615 64.68C180.481 64.5467 180.255 64.48 179.935 64.48H177.055V63.52H183.695V90.16C183.695 90.48 183.761 90.7067 183.895 90.84C184.028 90.9733 184.255 91.04 184.575 91.04H186.655V92H180.815V89.04L180.655 89C180.148 90.0667 179.495 90.92 178.695 91.56C177.921 92.1733 177.028 92.48 176.015 92.48ZM176.455 91.36C177.255 91.36 177.988 91.0667 178.655 90.48C179.321 89.8933 179.841 89.0933 180.215 88.08C180.615 87.04 180.815 85.92 180.815 84.72V81.04C180.815 79.84 180.615 78.7333 180.215 77.72C179.841 76.68 179.321 75.8667 178.655 75.28C177.988 74.6933 177.255 74.4 176.455 74.4C175.148 74.4 174.161 75.1333 173.495 76.6C172.828 78.0667 172.495 80.16 172.495 82.88C172.495 85.6 172.828 87.6933 173.495 89.16C174.161 90.6267 175.148 91.36 176.455 91.36Z" fill="#2F2D28"/>
<path d="M194.993 92.48C193.58 92.48 192.353 92.1333 191.313 91.44C190.3 90.7467 189.793 89.52 189.793 87.76C189.793 86.4 190.14 85.3333 190.833 84.56C191.526 83.7867 192.326 83.24 193.233 82.92C194.166 82.5733 195.286 82.28 196.593 82.04L200.273 81.36V77.96C200.273 75.48 199.033 74.24 196.553 74.24C195.646 74.24 194.82 74.48 194.073 74.96C193.326 75.4133 192.953 75.9333 192.953 76.52C192.953 76.7867 192.993 76.9867 193.073 77.12C193.126 77.2 193.206 77.28 193.313 77.36C193.446 77.44 193.566 77.4933 193.673 77.52C194.153 77.6533 194.513 77.84 194.753 78.08C195.02 78.32 195.153 78.6533 195.153 79.08C195.153 79.64 194.98 80.04 194.633 80.28C194.313 80.52 193.9 80.64 193.393 80.64C192.806 80.64 192.273 80.4133 191.793 79.96C191.313 79.5067 191.073 78.8533 191.073 78C191.073 77.0133 191.34 76.16 191.873 75.44C192.433 74.72 193.14 74.1867 193.993 73.84C194.873 73.4667 195.766 73.28 196.673 73.28C198.433 73.28 199.953 73.7467 201.233 74.68C202.513 75.5867 203.153 77.0133 203.153 78.96V88.8C203.153 90.1333 203.566 90.8 204.393 90.8C205.06 90.8 205.54 90.4133 205.833 89.64C206.126 88.8667 206.273 87.92 206.273 86.8H206.993C206.993 88.4 206.753 89.7467 206.273 90.84C205.82 91.9333 204.993 92.48 203.793 92.48C202.646 92.48 201.78 92.1467 201.193 91.48C200.633 90.7867 200.326 89.84 200.273 88.64L200.073 88.56C199.673 89.4933 199.02 90.3867 198.113 91.24C197.233 92.0667 196.193 92.48 194.993 92.48ZM195.633 91.04C196.833 91.04 197.766 90.5733 198.433 89.64C199.126 88.68 199.74 87.4667 200.273 86V82.2L196.793 82.96C195.513 83.2267 194.58 83.76 193.993 84.56C193.433 85.3333 193.153 86.44 193.153 87.88C193.153 89.1067 193.406 89.9467 193.913 90.4C194.42 90.8267 194.993 91.04 195.633 91.04Z" fill="#2F2D28"/>
<path d="M209.239 91.04H210.919C211.239 91.04 211.465 90.9733 211.599 90.84C211.732 90.7067 211.799 90.48 211.799 90.16V75.6C211.799 75.28 211.732 75.0533 211.599 74.92C211.465 74.7867 211.239 74.72 210.919 74.72H209.239V73.76H214.679V77.76L214.839 77.8C215.399 76.4133 216.119 75.32 216.999 74.52C217.905 73.6933 218.865 73.28 219.879 73.28C220.892 73.28 221.719 73.5733 222.359 74.16C222.999 74.7467 223.319 75.5467 223.319 76.56C223.319 77.1467 223.105 77.72 222.679 78.28C222.279 78.84 221.759 79.12 221.119 79.12C220.612 79.12 220.185 78.9867 219.839 78.72C219.492 78.4533 219.319 78.08 219.319 77.6C219.319 77.04 219.585 76.56 220.119 76.16C220.359 76 220.532 75.8533 220.639 75.72C220.772 75.5867 220.839 75.4133 220.839 75.2C220.839 74.96 220.719 74.7733 220.479 74.64C220.265 74.48 219.959 74.4 219.559 74.4C218.732 74.4 217.932 74.8 217.159 75.6C216.412 76.4 215.812 77.44 215.359 78.72C214.905 80 214.679 81.3333 214.679 82.72V90.16C214.679 90.48 214.745 90.7067 214.879 90.84C215.012 90.9733 215.239 91.04 215.559 91.04H217.239V92H209.239V91.04Z" fill="#2F2D28"/>
<path d="M233.085 92.48C231.832 92.48 230.658 92.0667 229.565 91.24C228.498 90.3867 227.645 89.2267 227.005 87.76C226.365 86.2933 226.045 84.6667 226.045 82.88C226.045 81.0933 226.365 79.4667 227.005 78C227.645 76.5333 228.498 75.3867 229.565 74.56C230.658 73.7067 231.832 73.28 233.085 73.28C234.125 73.28 235.058 73.6267 235.885 74.32C236.712 74.9867 237.325 75.8 237.725 76.76L237.885 76.72V65.36C237.885 65.04 237.818 64.8133 237.685 64.68C237.552 64.5467 237.325 64.48 237.005 64.48H234.125V63.52H240.765V90.16C240.765 90.48 240.832 90.7067 240.965 90.84C241.098 90.9733 241.325 91.04 241.645 91.04H243.725V92H237.885V89.04L237.725 89C237.218 90.0667 236.565 90.92 235.765 91.56C234.992 92.1733 234.098 92.48 233.085 92.48ZM233.525 91.36C234.325 91.36 235.058 91.0667 235.725 90.48C236.392 89.8933 236.912 89.0933 237.285 88.08C237.685 87.04 237.885 85.92 237.885 84.72V81.04C237.885 79.84 237.685 78.7333 237.285 77.72C236.912 76.68 236.392 75.8667 235.725 75.28C235.058 74.6933 234.325 74.4 233.525 74.4C232.218 74.4 231.232 75.1333 230.565 76.6C229.898 78.0667 229.565 80.16 229.565 82.88C229.565 85.6 229.898 87.6933 230.565 89.16C231.232 90.6267 232.218 91.36 233.525 91.36Z" fill="#2F2D28"/>
<path d="M264.154 90.72H267.994C268.714 90.72 269.074 90.36 269.074 89.64V65.76C269.074 65.3867 268.994 65.12 268.834 64.96C268.674 64.7733 268.394 64.68 267.994 64.68H266.554C264.874 64.68 263.421 65.5333 262.194 67.24C261.421 68.3333 260.901 69.7067 260.634 71.36C260.368 72.9867 260.234 74.1867 260.234 74.96H259.114L259.434 63.52H282.394L282.714 74.96H281.594C281.594 74.1867 281.461 72.9867 281.194 71.36C280.928 69.7067 280.408 68.3333 279.634 67.24C278.408 65.5333 276.954 64.68 275.274 64.68H273.834C273.434 64.68 273.154 64.7733 272.994 64.96C272.834 65.12 272.754 65.3867 272.754 65.76V89.64C272.754 90.36 273.114 90.72 273.834 90.72H277.674V92H264.154V90.72Z" fill="#2F2D28"/>
<path d="M292.709 90.72H296.549C297.269 90.72 297.629 90.36 297.629 89.64V65.76C297.629 65.3867 297.549 65.12 297.389 64.96C297.229 64.7733 296.949 64.68 296.549 64.68H295.109C293.429 64.68 291.976 65.5333 290.749 67.24C289.976 68.3333 289.456 69.7067 289.189 71.36C288.922 72.9867 288.789 74.1867 288.789 74.96H287.669L287.989 63.52H310.949L311.269 74.96H310.149C310.149 74.1867 310.016 72.9867 309.749 71.36C309.482 69.7067 308.962 68.3333 308.189 67.24C306.962 65.5333 305.509 64.68 303.829 64.68H302.389C301.989 64.68 301.709 64.7733 301.549 64.96C301.389 65.12 301.309 65.3867 301.309 65.76V89.64C301.309 90.36 301.669 90.72 302.389 90.72H306.229V92H292.709V90.72Z" fill="#2F2D28"/>
<path d="M17.6 138.16L21.28 137.56V108.44L17.6 107.88V107H30.16C34.1067 107 37.04 107.84 38.96 109.52C40.88 111.2 41.84 113.627 41.84 116.8C41.84 119.973 40.88 122.4 38.96 124.08C37.04 125.76 34.1067 126.6 30.16 126.6H25.68V137.56L29.36 138.16V139H17.6V138.16ZM29.6 125.64C34.5333 125.64 37 122.96 37 117.6V116C37 110.667 34.5333 108 29.6 108H25.68V125.64H29.6Z" fill="#2F2D28"/>
<path d="M44.4238 138.2L47.2238 137.8V119.48L44.4238 119.08V118.28H51.2238V121.36C52.9038 119.067 54.7971 117.92 56.9038 117.92C57.9171 117.92 58.8104 118.187 59.5838 118.72C60.3571 119.227 60.7438 119.96 60.7438 120.92C60.7438 121.613 60.5171 122.2 60.0638 122.68C59.6104 123.133 59.0104 123.36 58.2638 123.36C57.4104 123.36 56.7171 123.027 56.1838 122.36C56.4771 121.987 56.6238 121.587 56.6238 121.16C56.6238 120.707 56.4638 120.347 56.1438 120.08C55.8504 119.787 55.4504 119.64 54.9438 119.64C54.3838 119.64 53.8104 119.907 53.2238 120.44C52.6371 120.947 51.9704 121.747 51.2238 122.84V137.8L54.4238 138.2V139H44.4238V138.2Z" fill="#2F2D28"/>
<path d="M68.7191 139.4C67.0124 139.4 65.6124 138.96 64.5191 138.08C63.4257 137.173 62.8791 135.84 62.8791 134.08C62.8791 131.573 63.9324 129.8 66.0391 128.76C68.1457 127.693 70.5857 127.16 73.3591 127.16H76.0391V124.08C76.0391 122.693 75.8791 121.627 75.5591 120.88C75.2657 120.107 74.7991 119.573 74.1591 119.28C73.5191 118.96 72.6524 118.8 71.5591 118.8C70.3057 118.8 69.3724 119.053 68.7591 119.56C68.1457 120.04 67.8391 120.693 67.8391 121.52C67.8391 122.293 68.2124 122.8 68.9591 123.04C68.9591 123.707 68.7057 124.293 68.1991 124.8C67.6924 125.307 67.0924 125.56 66.3991 125.56C65.6524 125.56 65.0524 125.36 64.5991 124.96C64.1457 124.533 63.9191 123.893 63.9191 123.04C63.9191 121.493 64.6924 120.253 66.2391 119.32C67.7857 118.387 69.7191 117.92 72.0391 117.92C77.3724 117.92 80.0391 120.24 80.0391 124.88V136.32C80.0391 136.907 80.1591 137.36 80.3991 137.68C80.6657 137.973 81.0391 138.12 81.5191 138.12C81.9724 138.12 82.3324 137.973 82.5991 137.68C82.8657 137.36 82.9991 136.933 82.9991 136.4H83.8391C83.8391 137.333 83.5324 138.067 82.9191 138.6C82.3324 139.133 81.5057 139.4 80.4391 139.4C79.2124 139.4 78.1724 139.053 77.3191 138.36C76.4924 137.64 76.0657 136.533 76.0391 135.04C75.3991 136.4 74.4124 137.467 73.0791 138.24C71.7724 139.013 70.3191 139.4 68.7191 139.4ZM70.9191 137.64C71.6391 137.64 72.3724 137.427 73.1191 137C73.8924 136.573 74.5457 135.96 75.0791 135.16C75.6124 134.333 75.9324 133.347 76.0391 132.2V128.04H73.3591C71.1724 128.04 69.5324 128.533 68.4391 129.52C67.3724 130.48 66.8391 131.84 66.8391 133.6C66.8391 135.067 67.1857 136.107 67.8791 136.72C68.5724 137.333 69.5857 137.64 70.9191 137.64Z" fill="#2F2D28"/>
<path d="M93.0944 139.4C91.3344 139.4 89.921 138.96 88.8544 138.08C87.8144 137.2 87.2944 135.8 87.2944 133.88V119.48L84.4544 119.08V118.28H87.2944V114.96L91.2944 113.96V118.28H96.4944V119.08L91.2944 119.48V133.8C91.2944 136.627 92.3077 138.04 94.3344 138.04C94.761 138.04 95.161 137.973 95.5344 137.84C95.9344 137.707 96.2411 137.573 96.4544 137.44C96.6944 137.307 96.841 137.213 96.8944 137.16L97.4144 137.8C96.2144 138.867 94.7744 139.4 93.0944 139.4Z" fill="#2F2D28"/>
<path d="M105.282 139.4C103.575 139.4 102.175 138.96 101.082 138.08C99.9882 137.173 99.4416 135.84 99.4416 134.08C99.4416 131.573 100.495 129.8 102.602 128.76C104.708 127.693 107.148 127.16 109.922 127.16H112.602V124.08C112.602 122.693 112.442 121.627 112.122 120.88C111.828 120.107 111.362 119.573 110.722 119.28C110.082 118.96 109.215 118.8 108.122 118.8C106.868 118.8 105.935 119.053 105.322 119.56C104.708 120.04 104.402 120.693 104.402 121.52C104.402 122.293 104.775 122.8 105.522 123.04C105.522 123.707 105.268 124.293 104.762 124.8C104.255 125.307 103.655 125.56 102.962 125.56C102.215 125.56 101.615 125.36 101.162 124.96C100.708 124.533 100.482 123.893 100.482 123.04C100.482 121.493 101.255 120.253 102.802 119.32C104.348 118.387 106.282 117.92 108.602 117.92C113.935 117.92 116.602 120.24 116.602 124.88V136.32C116.602 136.907 116.722 137.36 116.962 137.68C117.228 137.973 117.602 138.12 118.082 138.12C118.535 138.12 118.895 137.973 119.162 137.68C119.428 137.36 119.562 136.933 119.562 136.4H120.402C120.402 137.333 120.095 138.067 119.482 138.6C118.895 139.133 118.068 139.4 117.002 139.4C115.775 139.4 114.735 139.053 113.882 138.36C113.055 137.64 112.628 136.533 112.602 135.04C111.962 136.4 110.975 137.467 109.642 138.24C108.335 139.013 106.882 139.4 105.282 139.4ZM107.482 137.64C108.202 137.64 108.935 137.427 109.682 137C110.455 136.573 111.108 135.96 111.642 135.16C112.175 134.333 112.495 133.347 112.602 132.2V128.04H109.922C107.735 128.04 106.095 128.533 105.002 129.52C103.935 130.48 103.402 131.84 103.402 133.6C103.402 135.067 103.748 136.107 104.442 136.72C105.135 137.333 106.148 137.64 107.482 137.64Z" fill="#2F2D28"/>
<path d="M39.04 183H30.84V182.28H33.44L30.64 174.56H21.84L19.04 182.28H21.64V183H15.6V182.28H17.08C17.4533 182.28 17.7067 182.093 17.84 181.72L26.64 157.8H28L36.8 181.72C36.9333 182.093 37.1867 182.28 37.56 182.28H39.04V183ZM26.28 162.52L22.28 173.44H30.24L26.28 162.52Z" fill="#2F2D28"/>
<path d="M50.4563 165.24C51.4963 165.24 52.3363 165.68 52.9763 166.56C53.6429 167.44 53.9763 168.547 53.9763 169.88C53.9763 171.213 53.4296 171.88 52.3363 171.88C51.6963 171.88 51.1763 171.68 50.7763 171.28C51.1229 170.507 51.2963 169.72 51.2963 168.92C51.2963 167.507 50.7096 166.8 49.5363 166.8C48.5496 166.8 47.6696 167.627 46.8963 169.28C46.1496 170.907 45.7763 173.28 45.7763 176.4V181.72C45.7763 182.093 45.9629 182.28 46.3363 182.28H49.0163V183H40.4563V182.28H42.3363C42.7096 182.28 42.8963 182.093 42.8963 181.72V167C42.8963 166.627 42.7096 166.44 42.3363 166.44H40.4563V165.72H42.4163C44.0163 165.72 45.1363 165.64 45.7763 165.48V170.6C46.2029 168.76 46.8296 167.413 47.6563 166.56C48.4829 165.68 49.4163 165.24 50.4563 165.24Z" fill="#2F2D28"/>
<path d="M65.6041 173.68L65.6441 172.28V170.88C65.6441 167.76 64.6307 166.2 62.6041 166.2C61.7241 166.2 61.0307 166.507 60.5241 167.12C60.0441 167.707 59.8041 168.4 59.8041 169.2C59.8041 170 59.9107 170.693 60.1241 171.28C59.6707 171.68 59.0441 171.88 58.2441 171.88C57.4441 171.88 57.0441 171.227 57.0441 169.92C57.0441 168.613 57.5507 167.507 58.5641 166.6C59.6041 165.693 61.0707 165.24 62.9641 165.24C66.6707 165.24 68.5241 167.427 68.5241 171.8V180C68.5241 181.44 68.9241 182.16 69.7241 182.16C70.0974 182.16 70.4174 181.987 70.6841 181.64C70.9774 181.293 71.1241 180.893 71.1241 180.44C71.1241 179.987 71.0841 179.56 71.0041 179.16L71.7641 179.04C71.8707 179.44 71.9241 179.88 71.9241 180.36C71.9241 181.32 71.6307 182.08 71.0441 182.64C70.4841 183.2 69.7374 183.48 68.8041 183.48C67.8707 183.48 67.1107 183.107 66.5241 182.36C65.9374 181.587 65.6441 180.44 65.6441 178.92V178.2C65.1907 180.013 64.4707 181.347 63.4841 182.2C62.4974 183.053 61.3507 183.48 60.0441 183.48C58.7641 183.48 57.7241 183.08 56.9241 182.28C56.1507 181.453 55.7641 180.373 55.7641 179.04C55.7641 177.68 56.3907 176.48 57.6441 175.44C58.8974 174.373 60.6974 173.84 63.0441 173.84C63.5507 173.84 64.4041 173.907 65.6041 174.04V173.68ZM60.9641 181.96C62.0841 181.96 63.0841 181.333 63.9641 180.08C64.8707 178.8 65.4041 177.013 65.5641 174.72C65.2974 174.693 64.9241 174.68 64.4441 174.68C62.3107 174.68 60.7774 175.133 59.8441 176.04C58.9374 176.92 58.4841 177.947 58.4841 179.12C58.4841 179.893 58.7107 180.56 59.1641 181.12C59.6174 181.68 60.2174 181.96 60.9641 181.96Z" fill="#2F2D28"/>
<path d="M76.1634 190.36V167C76.1634 166.627 75.9768 166.44 75.6034 166.44H73.7234V165.72H75.6834C77.2834 165.72 78.4034 165.64 79.0434 165.48V171.08C79.4968 169.16 80.2168 167.707 81.2034 166.72C82.2168 165.733 83.3368 165.24 84.5634 165.24C86.2434 165.24 87.7234 166.08 89.0034 167.76C90.2834 169.44 90.9234 171.667 90.9234 174.44C90.9234 177.213 90.1901 179.413 88.7234 181.04C87.2834 182.667 85.3901 183.48 83.0434 183.48C81.5768 183.48 80.2434 183.12 79.0434 182.4V190.36C79.0434 190.733 79.2301 190.92 79.6034 190.92H82.2834V191.64H73.7234V190.92H75.6034C75.9768 190.92 76.1634 190.733 76.1634 190.36ZM87.8834 174.52C87.8834 172.04 87.4968 170.133 86.7234 168.8C85.9501 167.44 84.9634 166.76 83.7634 166.76C82.5901 166.76 81.5101 167.547 80.5234 169.12C79.5368 170.693 79.0434 172.96 79.0434 175.92V181.32C80.2168 182.093 81.4968 182.48 82.8834 182.48C84.2968 182.48 85.4834 181.773 86.4434 180.36C87.4034 178.947 87.8834 177 87.8834 174.52Z" fill="#2F2D28"/>
<path d="M102.203 165.24C104.043 165.24 105.497 165.853 106.563 167.08C107.63 168.307 108.163 170.107 108.163 172.48C108.163 172.96 108.137 173.493 108.083 174.08H97.1634V174.36C97.1634 176.893 97.6168 178.893 98.5234 180.36C99.4568 181.8 100.643 182.52 102.083 182.52C103.55 182.52 104.75 182.147 105.683 181.4C106.617 180.653 107.257 179.587 107.603 178.2L108.363 178.36C108.043 179.987 107.31 181.253 106.163 182.16C105.017 183.04 103.697 183.48 102.203 183.48C99.8834 183.48 97.9501 182.667 96.4034 181.04C94.8834 179.413 94.1234 177.2 94.1234 174.4C94.1234 171.573 94.8968 169.347 96.4434 167.72C97.9901 166.067 99.9101 165.24 102.203 165.24ZM105.403 171.12C105.403 167.84 104.177 166.2 101.723 166.2C100.497 166.2 99.4434 166.867 98.5634 168.2C97.7101 169.533 97.2568 171.227 97.2034 173.28H105.243C105.35 172.373 105.403 171.653 105.403 171.12Z" fill="#2F2D28"/>
<path d="M121.78 165.72H126.86V166.44H125.38C125.14 166.44 124.953 166.627 124.82 167L117.9 185.52C117.82 185.76 117.686 186.12 117.5 186.6L117.06 187.68C116.98 187.92 116.86 188.24 116.7 188.64C116.54 189.067 116.406 189.387 116.3 189.6C116.193 189.84 116.06 190.12 115.9 190.44C115.713 190.84 115.446 191.213 115.1 191.56C114.753 191.933 114.393 192.12 114.02 192.12C113.646 192.12 113.246 191.88 112.82 191.4C112.42 190.947 112.18 190.453 112.1 189.92C114.526 188.88 116.18 187.147 117.06 184.72L117.74 182.88L111.82 167C111.686 166.627 111.5 166.44 111.26 166.44H109.78V165.72H116.58V166.44H114.58L119.18 179.08L123.82 166.44H121.78V165.72Z" fill="#2F2D28"/>
</svg>
