<svg width="249" height="112" viewBox="0 0 249 112" fill="none" xmlns="http://www.w3.org/2000/svg">
<rect width="249" height="112" rx="4" fill="#EBE9E7"/>
<path d="M23.6875 28.0391L27.0391 35H29.3242L29.3359 34.8594L25.7149 27.5703C26.1836 27.3672 26.6133 27.1211 27.0039 26.832C27.3945 26.543 27.7305 26.2109 28.0117 25.8359C28.293 25.4609 28.5117 25.043 28.668 24.582C28.832 24.1211 28.9141 23.6133 28.9141 23.0586C28.9141 22.1992 28.7617 21.4531 28.457 20.8203C28.1602 20.1797 27.75 19.6484 27.2266 19.2266C26.6953 18.8047 26.0781 18.4883 25.375 18.2773C24.6719 18.0664 23.9219 17.9531 23.125 17.9375H18.1211V35H20.2774V28.0391H23.6875ZM20.2774 26.2578V19.7188H23.125C23.6484 19.7266 24.1289 19.8008 24.5664 19.9414C25.0117 20.082 25.3945 20.2891 25.7149 20.5625C26.0352 20.8438 26.2852 21.1914 26.4649 21.6055C26.6445 22.0117 26.7344 22.4883 26.7344 23.0352C26.7344 23.5508 26.6406 24.0078 26.4531 24.4062C26.2656 24.7969 26.0117 25.1289 25.6914 25.4023C25.3633 25.6758 24.9844 25.8867 24.5547 26.0352C24.125 26.1758 23.668 26.25 23.1836 26.2578H20.2774Z" fill="#2F2D28"/>
<path d="M31.8438 28.543V28.8008C31.8438 29.7148 31.9766 30.5625 32.2422 31.3438C32.5078 32.125 32.8906 32.8047 33.3906 33.3828C33.8828 33.9609 34.4844 34.4141 35.1953 34.7422C35.9141 35.0703 36.7227 35.2344 37.6211 35.2344C38.5117 35.2344 39.3125 35.0703 40.0234 34.7422C40.7344 34.4141 41.3399 33.9609 41.8399 33.3828C42.332 32.8047 42.7109 32.125 42.9766 31.3438C43.2422 30.5625 43.375 29.7148 43.375 28.8008V28.543C43.375 27.6289 43.2422 26.7812 42.9766 26C42.7109 25.2109 42.332 24.5273 41.8399 23.9492C41.3399 23.3711 40.7305 22.918 40.0117 22.5898C39.3008 22.2539 38.4961 22.0859 37.5977 22.0859C36.707 22.0859 35.9063 22.2539 35.1953 22.5898C34.4844 22.918 33.8828 23.3711 33.3906 23.9492C32.8906 24.5273 32.5078 25.2109 32.2422 26C31.9766 26.7812 31.8438 27.6289 31.8438 28.543ZM34.0117 28.8008V28.543C34.0117 27.9258 34.0859 27.3359 34.2344 26.7734C34.3828 26.2031 34.6094 25.7031 34.9141 25.2734C35.2109 24.8438 35.582 24.5039 36.0274 24.2539C36.4727 23.9961 36.9961 23.8672 37.5977 23.8672C38.1992 23.8672 38.7227 23.9961 39.168 24.2539C39.6211 24.5039 40 24.8438 40.3047 25.2734C40.6016 25.7031 40.8242 26.2031 40.9727 26.7734C41.1289 27.3359 41.207 27.9258 41.207 28.543V28.8008C41.207 29.4258 41.1328 30.0234 40.9844 30.5938C40.8359 31.1562 40.6133 31.6523 40.3164 32.082C40.0117 32.5117 39.6328 32.8516 39.1797 33.1016C38.7344 33.3516 38.2149 33.4766 37.6211 33.4766C37.0195 33.4766 36.4922 33.3516 36.0391 33.1016C35.5859 32.8516 35.2109 32.5117 34.9141 32.082C34.6094 31.6523 34.3828 31.1562 34.2344 30.5938C34.0859 30.0234 34.0117 29.4258 34.0117 28.8008Z" fill="#2F2D28"/>
<path d="M57.6133 28.8008V28.5547C57.6133 27.8906 57.5586 27.2617 57.4492 26.668C57.3399 26.0664 57.1797 25.5195 56.9688 25.0273C56.7656 24.5898 56.5313 24.1953 56.2656 23.8438C56 23.4844 55.6992 23.1797 55.3633 22.9297C54.9883 22.6641 54.5703 22.457 54.1094 22.3086C53.6484 22.1602 53.1445 22.0859 52.5977 22.0859C52.1602 22.0859 51.7539 22.1289 51.3789 22.2148C51.0039 22.3008 50.6602 22.4258 50.3477 22.5898C50.0977 22.7227 49.8633 22.8828 49.6445 23.0703C49.4258 23.25 49.2266 23.4531 49.0469 23.6797V17H46.8789V35H48.8711L48.9766 33.5586C49.1172 33.7383 49.2656 33.9023 49.4219 34.0508C49.5781 34.1992 49.7422 34.3359 49.9141 34.4609C50.2734 34.7109 50.6758 34.9023 51.1211 35.0352C51.5742 35.168 52.0742 35.2344 52.6211 35.2344C53.0977 35.2344 53.5391 35.1758 53.9453 35.0586C54.3594 34.9414 54.7383 34.7773 55.082 34.5664C55.5586 34.2617 55.9649 33.8789 56.3008 33.418C56.6445 32.9492 56.9219 32.4219 57.1328 31.8359C57.2891 31.3906 57.4063 30.9141 57.4844 30.4062C57.5703 29.8906 57.6133 29.3555 57.6133 28.8008ZM55.4453 28.5547V28.8008C55.4453 29.1758 55.4219 29.543 55.375 29.9023C55.3281 30.2617 55.2539 30.5977 55.1524 30.9102C55.0274 31.3242 54.8594 31.6992 54.6484 32.0352C54.4375 32.3711 54.1758 32.6484 53.8633 32.8672C53.6289 33.0391 53.3633 33.1719 53.0664 33.2656C52.7695 33.3516 52.4414 33.3945 52.082 33.3945C51.707 33.3945 51.3633 33.3477 51.0508 33.2539C50.7383 33.1523 50.457 33.0117 50.207 32.832C49.957 32.6523 49.7344 32.4453 49.5391 32.2109C49.3516 31.9688 49.1875 31.707 49.0469 31.4258V25.8828C49.1797 25.6016 49.3399 25.3438 49.5274 25.1094C49.7227 24.8672 49.9453 24.6562 50.1953 24.4766C50.4375 24.3047 50.7149 24.1719 51.0274 24.0781C51.3399 23.9766 51.6836 23.9258 52.0586 23.9258C52.4024 23.9258 52.7149 23.9648 52.9961 24.043C53.2774 24.1211 53.5313 24.2305 53.7578 24.3711C54.0859 24.5664 54.3633 24.8359 54.5899 25.1797C54.8164 25.5234 55 25.9023 55.1406 26.3164C55.2422 26.6523 55.3164 27.0117 55.3633 27.3945C55.418 27.7695 55.4453 28.1562 55.4453 28.5547Z" fill="#2F2D28"/>
<path d="M60.6719 28.543V28.8008C60.6719 29.7148 60.8047 30.5625 61.0703 31.3438C61.3359 32.125 61.7188 32.8047 62.2188 33.3828C62.7109 33.9609 63.3125 34.4141 64.0234 34.7422C64.7422 35.0703 65.5508 35.2344 66.4492 35.2344C67.3399 35.2344 68.1406 35.0703 68.8516 34.7422C69.5625 34.4141 70.168 33.9609 70.668 33.3828C71.1602 32.8047 71.5391 32.125 71.8047 31.3438C72.0703 30.5625 72.2031 29.7148 72.2031 28.8008V28.543C72.2031 27.6289 72.0703 26.7812 71.8047 26C71.5391 25.2109 71.1602 24.5273 70.668 23.9492C70.168 23.3711 69.5586 22.918 68.8399 22.5898C68.1289 22.2539 67.3242 22.0859 66.4258 22.0859C65.5352 22.0859 64.7344 22.2539 64.0234 22.5898C63.3125 22.918 62.7109 23.3711 62.2188 23.9492C61.7188 24.5273 61.3359 25.2109 61.0703 26C60.8047 26.7812 60.6719 27.6289 60.6719 28.543ZM62.8399 28.8008V28.543C62.8399 27.9258 62.9141 27.3359 63.0625 26.7734C63.2109 26.2031 63.4375 25.7031 63.7422 25.2734C64.0391 24.8438 64.4102 24.5039 64.8555 24.2539C65.3008 23.9961 65.8242 23.8672 66.4258 23.8672C67.0274 23.8672 67.5508 23.9961 67.9961 24.2539C68.4492 24.5039 68.8281 24.8438 69.1328 25.2734C69.4297 25.7031 69.6524 26.2031 69.8008 26.7734C69.957 27.3359 70.0352 27.9258 70.0352 28.543V28.8008C70.0352 29.4258 69.9609 30.0234 69.8125 30.5938C69.6641 31.1562 69.4414 31.6523 69.1445 32.082C68.8399 32.5117 68.4609 32.8516 68.0078 33.1016C67.5625 33.3516 67.043 33.4766 66.4492 33.4766C65.8477 33.4766 65.3203 33.3516 64.8672 33.1016C64.4141 32.8516 64.0391 32.5117 63.7422 32.082C63.4375 31.6523 63.2109 31.1562 63.0625 30.5938C62.9141 30.0234 62.8399 29.4258 62.8399 28.8008Z" fill="#2F2D28"/>
<path d="M80.8281 19.25H78.6484V22.3203H75.3203V23.9961H78.6484V30.8867C78.6484 31.668 78.75 32.3359 78.9531 32.8906C79.1641 33.4375 79.4492 33.8828 79.8086 34.2266C80.168 34.5781 80.5899 34.8359 81.0742 35C81.5664 35.1562 82.0938 35.2344 82.6563 35.2344C82.9922 35.2344 83.3281 35.2188 83.6641 35.1875C84.0078 35.1562 84.332 35.1094 84.6367 35.0469C84.9414 34.9922 85.2227 34.9258 85.4805 34.8477C85.7383 34.7617 85.957 34.6641 86.1367 34.5547L85.832 33.0195C85.6992 33.0508 85.5274 33.0898 85.3164 33.1367C85.1133 33.1758 84.8945 33.2148 84.6602 33.2539C84.418 33.293 84.1719 33.3281 83.9219 33.3594C83.6719 33.3828 83.4297 33.3945 83.1953 33.3945C82.875 33.3945 82.5703 33.3555 82.2813 33.2773C82 33.1992 81.75 33.0625 81.5313 32.8672C81.3125 32.6797 81.1406 32.4258 81.0156 32.1055C80.8906 31.7852 80.8281 31.3789 80.8281 30.8867V23.9961H85.6563V22.3203H80.8281V19.25Z" fill="#2F2D28"/>
<path d="M89.5 28.543V28.8008C89.5 29.7148 89.6328 30.5625 89.8985 31.3438C90.1641 32.125 90.5469 32.8047 91.0469 33.3828C91.5391 33.9609 92.1406 34.4141 92.8516 34.7422C93.5703 35.0703 94.3789 35.2344 95.2774 35.2344C96.168 35.2344 96.9688 35.0703 97.6797 34.7422C98.3906 34.4141 98.9961 33.9609 99.4961 33.3828C99.9883 32.8047 100.367 32.125 100.633 31.3438C100.898 30.5625 101.031 29.7148 101.031 28.8008V28.543C101.031 27.6289 100.898 26.7812 100.633 26C100.367 25.2109 99.9883 24.5273 99.4961 23.9492C98.9961 23.3711 98.3867 22.918 97.668 22.5898C96.957 22.2539 96.1524 22.0859 95.2539 22.0859C94.3633 22.0859 93.5625 22.2539 92.8516 22.5898C92.1406 22.918 91.5391 23.3711 91.0469 23.9492C90.5469 24.5273 90.1641 25.2109 89.8985 26C89.6328 26.7812 89.5 27.6289 89.5 28.543ZM91.668 28.8008V28.543C91.668 27.9258 91.7422 27.3359 91.8906 26.7734C92.0391 26.2031 92.2656 25.7031 92.5703 25.2734C92.8672 24.8438 93.2383 24.5039 93.6836 24.2539C94.1289 23.9961 94.6524 23.8672 95.2539 23.8672C95.8555 23.8672 96.3789 23.9961 96.8242 24.2539C97.2774 24.5039 97.6563 24.8438 97.961 25.2734C98.2578 25.7031 98.4805 26.2031 98.6289 26.7734C98.7852 27.3359 98.8633 27.9258 98.8633 28.543V28.8008C98.8633 29.4258 98.7891 30.0234 98.6406 30.5938C98.4922 31.1562 98.2695 31.6523 97.9727 32.082C97.668 32.5117 97.2891 32.8516 96.836 33.1016C96.3906 33.3516 95.8711 33.4766 95.2774 33.4766C94.6758 33.4766 94.1485 33.3516 93.6953 33.1016C93.2422 32.8516 92.8672 32.5117 92.5703 32.082C92.2656 31.6523 92.0391 31.1562 91.8906 30.5938C91.7422 30.0234 91.668 29.4258 91.668 28.8008Z" fill="#2F2D28"/>
<path d="M121.316 17.9375H118.633V35H120.742V28.1914L120.566 21.3125L123.461 30.2539H124.703L127.855 21.0664L127.68 28.1914V35H129.789V17.9375H127.094L124.094 26.4688L121.316 17.9375Z" fill="#2F2D28"/>
<path d="M132.742 28.543V28.8008C132.742 29.7148 132.875 30.5625 133.141 31.3438C133.406 32.125 133.789 32.8047 134.289 33.3828C134.781 33.9609 135.383 34.4141 136.094 34.7422C136.813 35.0703 137.621 35.2344 138.52 35.2344C139.41 35.2344 140.211 35.0703 140.922 34.7422C141.633 34.4141 142.238 33.9609 142.738 33.3828C143.23 32.8047 143.609 32.125 143.875 31.3438C144.141 30.5625 144.273 29.7148 144.273 28.8008V28.543C144.273 27.6289 144.141 26.7812 143.875 26C143.609 25.2109 143.23 24.5273 142.738 23.9492C142.238 23.3711 141.629 22.918 140.91 22.5898C140.199 22.2539 139.395 22.0859 138.496 22.0859C137.605 22.0859 136.805 22.2539 136.094 22.5898C135.383 22.918 134.781 23.3711 134.289 23.9492C133.789 24.5273 133.406 25.2109 133.141 26C132.875 26.7812 132.742 27.6289 132.742 28.543ZM134.91 28.8008V28.543C134.91 27.9258 134.984 27.3359 135.133 26.7734C135.281 26.2031 135.508 25.7031 135.813 25.2734C136.109 24.8438 136.48 24.5039 136.926 24.2539C137.371 23.9961 137.895 23.8672 138.496 23.8672C139.098 23.8672 139.621 23.9961 140.066 24.2539C140.52 24.5039 140.898 24.8438 141.203 25.2734C141.5 25.7031 141.723 26.2031 141.871 26.7734C142.027 27.3359 142.105 27.9258 142.105 28.543V28.8008C142.105 29.4258 142.031 30.0234 141.883 30.5938C141.734 31.1562 141.512 31.6523 141.215 32.082C140.91 32.5117 140.531 32.8516 140.078 33.1016C139.633 33.3516 139.113 33.4766 138.52 33.4766C137.918 33.4766 137.391 33.3516 136.938 33.1016C136.484 32.8516 136.109 32.5117 135.813 32.082C135.508 31.6523 135.281 31.1562 135.133 30.5938C134.984 30.0234 134.91 29.4258 134.91 28.8008Z" fill="#2F2D28"/>
<path d="M147.766 35H149.934V25.9062C150.082 25.6328 150.254 25.3828 150.449 25.1562C150.652 24.9297 150.871 24.7305 151.105 24.5586C151.395 24.3633 151.711 24.2109 152.055 24.1016C152.398 23.9844 152.77 23.9258 153.168 23.9258C153.629 23.9258 154.035 23.9805 154.387 24.0898C154.746 24.1992 155.051 24.375 155.301 24.6172C155.543 24.8594 155.727 25.1758 155.852 25.5664C155.977 25.957 156.039 26.4336 156.039 26.9961V35H158.207V26.9492C158.207 26.1055 158.102 25.3789 157.891 24.7695C157.688 24.1523 157.395 23.6445 157.012 23.2461C156.629 22.8477 156.164 22.5547 155.617 22.3672C155.078 22.1797 154.477 22.0859 153.813 22.0859C153.32 22.0938 152.852 22.168 152.406 22.3086C151.969 22.4414 151.563 22.6328 151.188 22.8828C150.938 23.0469 150.699 23.2422 150.473 23.4688C150.254 23.6875 150.051 23.9297 149.863 24.1953L149.711 22.3203H147.766V35Z" fill="#2F2D28"/>
<path d="M161.57 28.543V28.8008C161.57 29.7148 161.703 30.5625 161.969 31.3438C162.234 32.125 162.617 32.8047 163.117 33.3828C163.609 33.9609 164.211 34.4141 164.922 34.7422C165.641 35.0703 166.449 35.2344 167.348 35.2344C168.238 35.2344 169.039 35.0703 169.75 34.7422C170.461 34.4141 171.066 33.9609 171.566 33.3828C172.059 32.8047 172.438 32.125 172.703 31.3438C172.969 30.5625 173.102 29.7148 173.102 28.8008V28.543C173.102 27.6289 172.969 26.7812 172.703 26C172.438 25.2109 172.059 24.5273 171.566 23.9492C171.066 23.3711 170.457 22.918 169.738 22.5898C169.027 22.2539 168.223 22.0859 167.324 22.0859C166.434 22.0859 165.633 22.2539 164.922 22.5898C164.211 22.918 163.609 23.3711 163.117 23.9492C162.617 24.5273 162.234 25.2109 161.969 26C161.703 26.7812 161.57 27.6289 161.57 28.543ZM163.738 28.8008V28.543C163.738 27.9258 163.813 27.3359 163.961 26.7734C164.109 26.2031 164.336 25.7031 164.641 25.2734C164.938 24.8438 165.309 24.5039 165.754 24.2539C166.199 23.9961 166.723 23.8672 167.324 23.8672C167.926 23.8672 168.449 23.9961 168.895 24.2539C169.348 24.5039 169.727 24.8438 170.031 25.2734C170.328 25.7031 170.551 26.2031 170.699 26.7734C170.855 27.3359 170.934 27.9258 170.934 28.543V28.8008C170.934 29.4258 170.859 30.0234 170.711 30.5938C170.563 31.1562 170.34 31.6523 170.043 32.082C169.738 32.5117 169.359 32.8516 168.906 33.1016C168.461 33.3516 167.941 33.4766 167.348 33.4766C166.746 33.4766 166.219 33.3516 165.766 33.1016C165.313 32.8516 164.938 32.5117 164.641 32.082C164.336 31.6523 164.109 31.1562 163.961 30.5938C163.813 30.0234 163.738 29.4258 163.738 28.8008Z" fill="#2F2D28"/>
<path d="M23.32 63.288C22.168 63.288 21.104 63.08 20.128 62.664C19.168 62.248 18.328 61.68 17.608 60.96L18.808 59.568C19.4 60.16 20.088 60.64 20.872 61.008C21.656 61.36 22.504 61.536 23.416 61.536C24.504 61.536 25.344 61.304 25.936 60.84C26.544 60.376 26.848 59.776 26.848 59.04C26.848 58.624 26.776 58.272 26.632 57.984C26.488 57.696 26.288 57.448 26.032 57.24C25.776 57.032 25.472 56.848 25.12 56.688C24.784 56.528 24.416 56.36 24.016 56.184L21.76 55.2C21.36 55.04 20.96 54.848 20.56 54.624C20.16 54.4 19.792 54.128 19.456 53.808C19.136 53.488 18.872 53.112 18.664 52.68C18.456 52.232 18.352 51.72 18.352 51.144C18.352 50.552 18.48 50 18.736 49.488C18.992 48.976 19.344 48.536 19.792 48.168C20.256 47.784 20.8 47.488 21.424 47.28C22.064 47.072 22.76 46.968 23.512 46.968C24.504 46.968 25.416 47.152 26.248 47.52C27.08 47.872 27.784 48.336 28.36 48.912L27.304 50.208C26.792 49.744 26.224 49.384 25.6 49.128C24.976 48.856 24.256 48.72 23.44 48.72C22.528 48.72 21.792 48.928 21.232 49.344C20.672 49.744 20.392 50.304 20.392 51.024C20.392 51.408 20.472 51.736 20.632 52.008C20.808 52.264 21.024 52.496 21.28 52.704C21.552 52.896 21.856 53.064 22.192 53.208C22.528 53.352 22.864 53.496 23.2 53.64L25.408 54.6C25.888 54.792 26.336 55.016 26.752 55.272C27.184 55.512 27.552 55.8 27.856 56.136C28.176 56.456 28.424 56.84 28.6 57.288C28.792 57.72 28.888 58.224 28.888 58.8C28.888 59.424 28.76 60.008 28.504 60.552C28.248 61.096 27.88 61.576 27.4 61.992C26.92 62.392 26.336 62.712 25.648 62.952C24.96 63.176 24.184 63.288 23.32 63.288Z" fill="#2F2D28"/>
<path d="M37.5906 63.288C36.8226 63.288 36.0866 63.152 35.3826 62.88C34.6946 62.608 34.0866 62.216 33.5586 61.704C33.0306 61.176 32.6066 60.536 32.2866 59.784C31.9826 59.016 31.8306 58.152 31.8306 57.192C31.8306 56.216 31.9826 55.352 32.2866 54.6C32.6066 53.832 33.0306 53.184 33.5586 52.656C34.0866 52.128 34.6946 51.728 35.3826 51.456C36.0866 51.184 36.8226 51.048 37.5906 51.048C38.3586 51.048 39.0866 51.184 39.7746 51.456C40.4786 51.728 41.0946 52.128 41.6226 52.656C42.1506 53.184 42.5666 53.832 42.8706 54.6C43.1906 55.352 43.3506 56.216 43.3506 57.192C43.3506 58.152 43.1906 59.016 42.8706 59.784C42.5666 60.536 42.1506 61.176 41.6226 61.704C41.0946 62.216 40.4786 62.608 39.7746 62.88C39.0866 63.152 38.3586 63.288 37.5906 63.288ZM37.5906 61.656C38.1506 61.656 38.6546 61.552 39.1026 61.344C39.5666 61.12 39.9586 60.816 40.2786 60.432C40.6146 60.032 40.8706 59.56 41.0466 59.016C41.2226 58.472 41.3106 57.864 41.3106 57.192C41.3106 56.52 41.2226 55.912 41.0466 55.368C40.8706 54.808 40.6146 54.328 40.2786 53.928C39.9586 53.528 39.5666 53.224 39.1026 53.016C38.6546 52.792 38.1506 52.68 37.5906 52.68C37.0306 52.68 36.5186 52.792 36.0546 53.016C35.6066 53.224 35.2146 53.528 34.8786 53.928C34.5586 54.328 34.3106 54.808 34.1346 55.368C33.9586 55.912 33.8706 56.52 33.8706 57.192C33.8706 57.864 33.9586 58.472 34.1346 59.016C34.3106 59.56 34.5586 60.032 34.8786 60.432C35.2146 60.816 35.6066 61.12 36.0546 61.344C36.5186 61.552 37.0306 61.656 37.5906 61.656Z" fill="#2F2D28"/>
<path d="M50.6853 63.288C49.2773 63.288 48.2453 62.896 47.5893 62.112C46.9493 61.312 46.6293 60.136 46.6293 58.584V51.336H48.6213V58.32C48.6213 59.424 48.8213 60.248 49.2213 60.792C49.6373 61.32 50.3333 61.584 51.3093 61.584C51.9813 61.584 52.5893 61.416 53.1333 61.08C53.6773 60.728 54.2773 60.176 54.9333 59.424V51.336H56.9013V63H55.2933L55.1253 60.96H55.0293C54.4373 61.648 53.7893 62.208 53.0853 62.64C52.3973 63.072 51.5973 63.288 50.6853 63.288Z" fill="#2F2D28"/>
<path d="M62.6759 63V51.336H64.3079L64.4759 54.096H64.5479C65.1559 53.152 65.8999 52.408 66.7799 51.864C67.6759 51.32 68.6679 51.048 69.7559 51.048C70.1879 51.048 70.5879 51.088 70.9559 51.168C71.3239 51.232 71.6919 51.352 72.0599 51.528L71.6039 53.232C71.1879 53.088 70.8359 52.984 70.5479 52.92C70.2759 52.856 69.9079 52.824 69.4439 52.824C68.5639 52.824 67.7159 53.08 66.8999 53.592C66.0999 54.088 65.3479 54.944 64.6439 56.16V63H62.6759Z" fill="#2F2D28"/>
<path d="M81.8665 63.288C80.9545 63.288 80.1065 63.152 79.3225 62.88C78.5545 62.608 77.8825 62.216 77.3065 61.704C76.7305 61.176 76.2825 60.536 75.9625 59.784C75.6425 59.016 75.4825 58.152 75.4825 57.192C75.4825 56.216 75.6505 55.352 75.9865 54.6C76.3385 53.832 76.8105 53.184 77.4025 52.656C77.9945 52.128 78.6825 51.728 79.4665 51.456C80.2665 51.184 81.1065 51.048 81.9865 51.048C82.9465 51.048 83.7705 51.216 84.4585 51.552C85.1625 51.888 85.7545 52.288 86.2345 52.752L85.2505 54.024C84.7705 53.608 84.2665 53.28 83.7385 53.04C83.2265 52.8 82.6665 52.68 82.0585 52.68C81.3865 52.68 80.7705 52.792 80.2105 53.016C79.6505 53.224 79.1705 53.528 78.7705 53.928C78.3865 54.328 78.0825 54.808 77.8585 55.368C77.6345 55.912 77.5225 56.52 77.5225 57.192C77.5225 57.864 77.6265 58.472 77.8345 59.016C78.0585 59.56 78.3625 60.032 78.7465 60.432C79.1465 60.816 79.6185 61.12 80.1625 61.344C80.7225 61.552 81.3385 61.656 82.0105 61.656C82.7305 61.656 83.3865 61.52 83.9785 61.248C84.5865 60.96 85.1305 60.608 85.6105 60.192L86.4985 61.464C85.8425 62.04 85.1225 62.488 84.3385 62.808C83.5545 63.128 82.7305 63.288 81.8665 63.288Z" fill="#2F2D28"/>
<path d="M95.8731 63.288C94.9931 63.288 94.1691 63.152 93.4011 62.88C92.6491 62.608 91.9851 62.208 91.4091 61.68C90.8491 61.152 90.4011 60.512 90.0651 59.76C89.7451 58.992 89.5851 58.12 89.5851 57.144C89.5851 56.2 89.7451 55.352 90.0651 54.6C90.4011 53.848 90.8411 53.208 91.3851 52.68C91.9451 52.152 92.5771 51.752 93.2811 51.48C94.0011 51.192 94.7531 51.048 95.5371 51.048C96.3691 51.048 97.1131 51.184 97.7691 51.456C98.4411 51.712 99.0011 52.08 99.4491 52.56C99.9131 53.04 100.265 53.616 100.505 54.288C100.745 54.96 100.865 55.704 100.865 56.52C100.865 56.744 100.857 56.96 100.841 57.168C100.825 57.376 100.801 57.56 100.769 57.72H91.5771C91.7051 59.048 92.1851 60.048 93.0171 60.72C93.8651 61.376 94.8971 61.704 96.1131 61.704C96.8171 61.704 97.4491 61.608 98.0091 61.416C98.5851 61.208 99.1371 60.936 99.6651 60.6L100.385 61.896C99.8091 62.28 99.1451 62.608 98.3931 62.88C97.6571 63.152 96.8171 63.288 95.8731 63.288ZM95.5851 52.608C95.1051 52.608 94.6411 52.688 94.1931 52.848C93.7611 53.008 93.3691 53.24 93.0171 53.544C92.6651 53.832 92.3691 54.2 92.1291 54.648C91.8891 55.096 91.7211 55.608 91.6251 56.184H99.0651C98.9851 54.984 98.6331 54.088 98.0091 53.496C97.4011 52.904 96.5931 52.608 95.5851 52.608Z" fill="#2F2D28"/>
<path d="M125.158 63.288C124.182 63.288 123.278 63.104 122.446 62.736C121.614 62.368 120.886 61.84 120.262 61.152C119.654 60.448 119.174 59.592 118.822 58.584C118.47 57.56 118.294 56.408 118.294 55.128C118.294 53.864 118.47 52.728 118.822 51.72C119.174 50.712 119.662 49.856 120.286 49.152C120.91 48.448 121.654 47.912 122.518 47.544C123.382 47.16 124.326 46.968 125.35 46.968C126.294 46.968 127.126 47.16 127.846 47.544C128.582 47.928 129.182 48.376 129.646 48.888L128.518 50.16C128.102 49.728 127.638 49.384 127.126 49.128C126.614 48.856 126.022 48.72 125.35 48.72C124.598 48.72 123.91 48.872 123.286 49.176C122.678 49.464 122.158 49.888 121.726 50.448C121.294 50.992 120.958 51.656 120.718 52.44C120.478 53.224 120.358 54.104 120.358 55.08C120.358 56.072 120.478 56.968 120.718 57.768C120.958 58.552 121.294 59.224 121.726 59.784C122.158 60.344 122.678 60.776 123.286 61.08C123.91 61.384 124.598 61.536 125.35 61.536C126.07 61.536 126.71 61.384 127.27 61.08C127.846 60.776 128.39 60.344 128.902 59.784L130.03 61.008C129.406 61.728 128.702 62.288 127.918 62.688C127.134 63.088 126.214 63.288 125.158 63.288Z" fill="#2F2D28"/>
<path d="M138.325 63.288C137.557 63.288 136.821 63.152 136.117 62.88C135.429 62.608 134.821 62.216 134.293 61.704C133.765 61.176 133.341 60.536 133.021 59.784C132.717 59.016 132.565 58.152 132.565 57.192C132.565 56.216 132.717 55.352 133.021 54.6C133.341 53.832 133.765 53.184 134.293 52.656C134.821 52.128 135.429 51.728 136.117 51.456C136.821 51.184 137.557 51.048 138.325 51.048C139.093 51.048 139.821 51.184 140.509 51.456C141.213 51.728 141.829 52.128 142.357 52.656C142.885 53.184 143.301 53.832 143.605 54.6C143.925 55.352 144.085 56.216 144.085 57.192C144.085 58.152 143.925 59.016 143.605 59.784C143.301 60.536 142.885 61.176 142.357 61.704C141.829 62.216 141.213 62.608 140.509 62.88C139.821 63.152 139.093 63.288 138.325 63.288ZM138.325 61.656C138.885 61.656 139.389 61.552 139.837 61.344C140.301 61.12 140.693 60.816 141.013 60.432C141.349 60.032 141.605 59.56 141.781 59.016C141.957 58.472 142.045 57.864 142.045 57.192C142.045 56.52 141.957 55.912 141.781 55.368C141.605 54.808 141.349 54.328 141.013 53.928C140.693 53.528 140.301 53.224 139.837 53.016C139.389 52.792 138.885 52.68 138.325 52.68C137.765 52.68 137.253 52.792 136.789 53.016C136.341 53.224 135.949 53.528 135.613 53.928C135.293 54.328 135.045 54.808 134.869 55.368C134.693 55.912 134.605 56.52 134.605 57.192C134.605 57.864 134.693 58.472 134.869 59.016C135.045 59.56 135.293 60.032 135.613 60.432C135.949 60.816 136.341 61.12 136.789 61.344C137.253 61.552 137.765 61.656 138.325 61.656Z" fill="#2F2D28"/>
<path d="M152.02 63.288C151.252 63.288 150.556 63.152 149.932 62.88C149.324 62.608 148.796 62.216 148.348 61.704C147.9 61.176 147.556 60.536 147.316 59.784C147.076 59.032 146.956 58.168 146.956 57.192C146.956 56.248 147.1 55.4 147.388 54.648C147.692 53.88 148.084 53.232 148.564 52.704C149.06 52.176 149.628 51.768 150.268 51.48C150.908 51.192 151.572 51.048 152.26 51.048C152.964 51.048 153.588 51.184 154.132 51.456C154.692 51.712 155.228 52.08 155.74 52.56H155.812L155.716 50.4V45.912H157.684V63H156.052L155.884 61.464H155.812C155.332 61.96 154.756 62.392 154.084 62.76C153.428 63.112 152.74 63.288 152.02 63.288ZM152.428 61.632C153.58 61.632 154.676 61.048 155.716 59.88V54.072C155.188 53.576 154.668 53.224 154.156 53.016C153.66 52.808 153.156 52.704 152.644 52.704C152.132 52.704 151.652 52.816 151.204 53.04C150.772 53.248 150.388 53.552 150.052 53.952C149.732 54.336 149.476 54.8 149.284 55.344C149.092 55.888 148.996 56.496 148.996 57.168C148.996 58.576 149.292 59.672 149.884 60.456C150.492 61.24 151.34 61.632 152.428 61.632Z" fill="#2F2D28"/>
<path d="M167.826 63.288C166.946 63.288 166.122 63.152 165.354 62.88C164.602 62.608 163.938 62.208 163.362 61.68C162.802 61.152 162.354 60.512 162.018 59.76C161.698 58.992 161.538 58.12 161.538 57.144C161.538 56.2 161.698 55.352 162.018 54.6C162.354 53.848 162.794 53.208 163.338 52.68C163.898 52.152 164.53 51.752 165.234 51.48C165.954 51.192 166.706 51.048 167.49 51.048C168.322 51.048 169.066 51.184 169.722 51.456C170.394 51.712 170.954 52.08 171.402 52.56C171.866 53.04 172.218 53.616 172.458 54.288C172.698 54.96 172.818 55.704 172.818 56.52C172.818 56.744 172.81 56.96 172.794 57.168C172.778 57.376 172.754 57.56 172.722 57.72H163.53C163.658 59.048 164.138 60.048 164.97 60.72C165.818 61.376 166.85 61.704 168.066 61.704C168.77 61.704 169.402 61.608 169.962 61.416C170.538 61.208 171.09 60.936 171.618 60.6L172.338 61.896C171.762 62.28 171.098 62.608 170.346 62.88C169.61 63.152 168.77 63.288 167.826 63.288ZM167.538 52.608C167.058 52.608 166.594 52.688 166.146 52.848C165.714 53.008 165.322 53.24 164.97 53.544C164.618 53.832 164.322 54.2 164.082 54.648C163.842 55.096 163.674 55.608 163.578 56.184H171.018C170.938 54.984 170.586 54.088 169.962 53.496C169.354 52.904 168.546 52.608 167.538 52.608Z" fill="#2F2D28"/>
<path d="M191.136 63V47.256H195.888C196.752 47.256 197.544 47.336 198.264 47.496C198.984 47.656 199.6 47.92 200.112 48.288C200.624 48.64 201.016 49.112 201.288 49.704C201.576 50.296 201.72 51.024 201.72 51.888C201.72 52.72 201.576 53.44 201.288 54.048C201.016 54.656 200.616 55.16 200.088 55.56C199.576 55.96 198.96 56.264 198.24 56.472C197.536 56.664 196.752 56.76 195.888 56.76H193.128V63H191.136ZM193.128 55.128H195.648C197.04 55.128 198.064 54.872 198.72 54.36C199.376 53.832 199.704 53.008 199.704 51.888C199.704 50.752 199.368 49.968 198.696 49.536C198.024 49.088 197.008 48.864 195.648 48.864H193.128V55.128Z" fill="#2F2D28"/>
<path d="M206.582 63V51.336H208.214L208.382 54.096H208.454C209.062 53.152 209.806 52.408 210.686 51.864C211.582 51.32 212.574 51.048 213.662 51.048C214.094 51.048 214.494 51.088 214.862 51.168C215.23 51.232 215.598 51.352 215.966 51.528L215.51 53.232C215.094 53.088 214.742 52.984 214.454 52.92C214.182 52.856 213.814 52.824 213.35 52.824C212.47 52.824 211.622 53.08 210.806 53.592C210.006 54.088 209.254 54.944 208.55 56.16V63H206.582Z" fill="#2F2D28"/>
<path d="M224.669 63.288C223.901 63.288 223.165 63.152 222.461 62.88C221.773 62.608 221.165 62.216 220.637 61.704C220.109 61.176 219.685 60.536 219.365 59.784C219.061 59.016 218.909 58.152 218.909 57.192C218.909 56.216 219.061 55.352 219.365 54.6C219.685 53.832 220.109 53.184 220.637 52.656C221.165 52.128 221.773 51.728 222.461 51.456C223.165 51.184 223.901 51.048 224.669 51.048C225.437 51.048 226.165 51.184 226.853 51.456C227.557 51.728 228.173 52.128 228.701 52.656C229.229 53.184 229.645 53.832 229.949 54.6C230.269 55.352 230.429 56.216 230.429 57.192C230.429 58.152 230.269 59.016 229.949 59.784C229.645 60.536 229.229 61.176 228.701 61.704C228.173 62.216 227.557 62.608 226.853 62.88C226.165 63.152 225.437 63.288 224.669 63.288ZM224.669 61.656C225.229 61.656 225.733 61.552 226.181 61.344C226.645 61.12 227.037 60.816 227.357 60.432C227.693 60.032 227.949 59.56 228.125 59.016C228.301 58.472 228.389 57.864 228.389 57.192C228.389 56.52 228.301 55.912 228.125 55.368C227.949 54.808 227.693 54.328 227.357 53.928C227.037 53.528 226.645 53.224 226.181 53.016C225.733 52.792 225.229 52.68 224.669 52.68C224.109 52.68 223.597 52.792 223.133 53.016C222.685 53.224 222.293 53.528 221.957 53.928C221.637 54.328 221.389 54.808 221.213 55.368C221.037 55.912 220.949 56.52 220.949 57.192C220.949 57.864 221.037 58.472 221.213 59.016C221.389 59.56 221.637 60.032 221.957 60.432C222.293 60.816 222.685 61.12 223.133 61.344C223.597 61.552 224.109 61.656 224.669 61.656Z" fill="#2F2D28"/>
<path d="M18.136 84.936C18.712 84.936 19.032 85.448 19.096 86.472L21.448 88.44H24.4L26.032 87.072V85.152L25.144 84.168L24.376 83.616C23.976 83.456 23.496 83.288 22.936 83.112C22.376 82.92 21.792 82.712 21.184 82.488L19.264 81.576L17.776 79.8V77.256L18.952 75.312L21.184 74.16H25.096L27.688 76.872C27.656 78.392 27.36 79.152 26.8 79.152C26.208 79.152 25.904 78.616 25.888 77.544L24.064 75.984H21.352L19.696 77.184V79.104L20.536 80.112L21.736 80.688C22.088 80.816 22.4 80.928 22.672 81.024C22.96 81.12 23.16 81.184 23.272 81.216C23.512 81.328 23.736 81.416 23.944 81.48C24.056 81.528 24.256 81.616 24.544 81.744C24.832 81.856 25.216 82 25.696 82.176L26.848 83.064L27.952 84.648V87.864L25.408 90.24H21.136L18.424 88.56L17.224 86.28C17.224 85.864 17.216 85.568 17.2 85.392C17.2 85.2 17.256 85.08 17.368 85.032C17.496 84.968 17.752 84.936 18.136 84.936Z" fill="#2F2D28"/>
<path d="M40.4753 78C40.6513 78 40.6993 78.24 40.6193 78.72C40.5553 79.184 40.4033 79.816 40.1633 80.616C39.9233 81.416 39.6193 82.32 39.2513 83.328C38.8993 84.32 38.5073 85.344 38.0753 86.4C37.6433 87.456 37.2033 88.488 36.7553 89.496C36.3073 90.488 35.8753 91.384 35.4593 92.184C35.0593 92.984 34.6993 93.616 34.3793 94.08C34.0753 94.56 33.8353 94.8 33.6593 94.8C32.9873 94.8 33.0113 93.968 33.7313 92.304C34.4513 90.672 34.0273 87.872 32.4593 83.904C30.9073 79.968 30.4673 78 31.1393 78C31.8113 78 32.7553 79.584 33.9713 82.752C35.1873 85.904 36.4033 85.904 37.6193 82.752C38.8513 79.584 39.8033 78 40.4753 78Z" fill="#2F2D28"/>
<path d="M51.0786 77.76L52.8546 78.552L54.0786 80.472V86.016C54.0786 88.672 53.7586 90 53.1186 90C52.4786 90 52.1586 88.752 52.1586 86.256V79.68H47.8626L46.1586 81.744C45.9346 82.608 45.8226 84.192 45.8226 86.496C45.8226 88.832 45.5026 90 44.8626 90C44.2226 90 43.9026 88 43.9026 84C43.9026 80 44.2226 78 44.8626 78C45.5026 78 45.8226 78.592 45.8226 79.776C45.8226 80.976 45.9666 81.112 46.2546 80.184L48.4146 77.76H51.0786Z" fill="#2F2D28"/>
<path d="M66.5779 86.136C67.1859 86.136 67.386 86.744 67.178 87.96L64.658 90.24H60.8899L58.2739 88.656L56.8099 85.824V82.224L58.2259 79.368L60.7939 77.76H65.0659L67.6819 81.24C67.5859 83.416 66.074 84.504 63.146 84.504C60.202 84.504 58.7859 85.088 58.8979 86.256L60.9619 88.392H64.97C65.418 86.888 65.9539 86.136 66.5779 86.136ZM60.9619 79.608L59.2099 81.288C58.9699 82.28 59.9699 82.776 62.2099 82.776C64.4499 82.776 65.5379 82.264 65.4739 81.24L63.818 79.608H60.9619Z" fill="#2F2D28"/>
<path d="M93.1366 74.4C93.7766 74.4 94.0966 77 94.0966 82.2C94.0966 87.4 93.7766 90 93.1366 90C92.4966 90 92.1766 88.28 92.1766 84.84C92.1766 81.432 91.7366 81.432 90.8566 84.84C89.9606 88.28 89.2006 90 88.5766 90C87.9526 90 87.1926 88.296 86.2966 84.888C85.4166 81.512 84.9766 81.512 84.9766 84.888C84.9766 88.296 84.6566 90 84.0166 90C83.3766 90 83.0566 87.4 83.0566 82.2C83.0566 77 83.3766 74.4 84.0166 74.4C84.6566 74.4 85.5766 76.568 86.7766 80.904C87.9766 85.24 89.1766 85.24 90.3766 80.904C91.5766 76.568 92.4966 74.4 93.1366 74.4Z" fill="#2F2D28"/>
<path d="M100.212 90.24L97.7639 88.728L96.3959 85.92V82.128L97.7639 79.296L100.212 77.76H103.356L105.78 79.296L107.148 82.128V85.92L105.804 88.728L103.38 90.24H100.212ZM103.356 88.392L105.228 86.088V81.96L103.356 79.608H100.236L98.3159 81.96V86.088L100.212 88.392H103.356Z" fill="#2F2D28"/>
<path d="M117.055 77.76L118.831 78.552L120.055 80.472V86.016C120.055 88.672 119.735 90 119.095 90C118.455 90 118.135 88.752 118.135 86.256V79.68H113.839L112.135 81.744C111.911 82.608 111.799 84.192 111.799 86.496C111.799 88.832 111.479 90 110.839 90C110.199 90 109.879 88 109.879 84C109.879 80 110.199 78 110.839 78C111.479 78 111.799 78.592 111.799 79.776C111.799 80.976 111.943 81.112 112.231 80.184L114.391 77.76H117.055Z" fill="#2F2D28"/>
<path d="M126.603 90.24L124.155 88.728L122.787 85.92V82.128L124.155 79.296L126.603 77.76H129.747L132.171 79.296L133.539 82.128V85.92L132.195 88.728L129.771 90.24H126.603ZM129.747 88.392L131.619 86.088V81.96L129.747 79.608H126.627L124.707 81.96V86.088L126.603 88.392H129.747Z" fill="#2F2D28"/>
<rect x="16" y="15.5" width="14.4" height="21" stroke="#185EE7"/>
<rect x="30.4" y="15.5" width="14.4" height="21" stroke="#185EE7"/>
<rect x="44.8" y="15.5" width="14.4" height="21" stroke="#185EE7"/>
<rect x="59.2" y="15.5" width="14.4" height="21" stroke="#185EE7"/>
<rect x="73.6" y="15.5" width="14.4" height="21" stroke="#185EE7"/>
<rect x="88" y="15.5" width="14.4" height="21" stroke="#185EE7"/>
<rect x="102.4" y="15.5" width="14.4" height="21" stroke="#185EE7"/>
<rect x="116.8" y="15.5" width="14.4" height="21" stroke="#185EE7"/>
<rect x="131.2" y="15.5" width="14.4" height="21" stroke="#185EE7"/>
<rect x="145.6" y="15.5" width="14.4" height="21" stroke="#185EE7"/>
<rect x="160" y="15.5" width="14.4" height="21" stroke="#185EE7"/>
<rect x="16" y="43.5" width="14.4" height="21" stroke="#185EE7"/>
<rect x="16" y="71.5" width="13.2" height="24" stroke="#185EE7"/>
<rect x="29.2" y="71.5" width="13.2" height="24" stroke="#185EE7"/>
<rect x="42.4" y="71.5" width="13.2" height="24" stroke="#185EE7"/>
<rect x="55.6" y="71.5" width="13.2" height="24" stroke="#185EE7"/>
<rect x="68.8" y="71.5" width="13.2" height="24" stroke="#185EE7"/>
<rect x="82" y="71.5" width="13.2" height="24" stroke="#185EE7"/>
<rect x="95.2" y="71.5" width="13.2" height="24" stroke="#185EE7"/>
<rect x="108.4" y="71.5" width="13.2" height="24" stroke="#185EE7"/>
<rect x="121.6" y="71.5" width="13.2" height="24" stroke="#185EE7"/>
<rect x="30.4" y="43.5" width="14.4" height="21" stroke="#185EE7"/>
<rect x="44.8" y="43.5" width="14.4" height="21" stroke="#185EE7"/>
<rect x="59.2" y="43.5" width="14.4" height="21" stroke="#185EE7"/>
<rect x="73.6" y="43.5" width="14.4" height="21" stroke="#185EE7"/>
<rect x="88" y="43.5" width="14.4" height="21" stroke="#185EE7"/>
<rect x="102.4" y="43.5" width="14.4" height="21" stroke="#185EE7"/>
<rect x="116.8" y="43.5" width="14.4" height="21" stroke="#185EE7"/>
<rect x="131.2" y="43.5" width="14.4" height="21" stroke="#185EE7"/>
<rect x="145.6" y="43.5" width="14.4" height="21" stroke="#185EE7"/>
<rect x="160" y="43.5" width="14.4" height="21" stroke="#185EE7"/>
<rect x="174.4" y="43.5" width="14.4" height="21" stroke="#185EE7"/>
<rect x="188.8" y="43.5" width="14.4" height="21" stroke="#185EE7"/>
<rect x="203.2" y="43.5" width="14.4" height="21" stroke="#185EE7"/>
<rect x="217.6" y="43.5" width="14.4" height="21" stroke="#185EE7"/>
</svg>
