<svg width="390" height="212" viewBox="0 0 390 212" fill="none" xmlns="http://www.w3.org/2000/svg">
<rect width="390" height="212" rx="4" fill="#EBE9E7"/>
<path d="M15.9414 48L26.9375 19.3672H31.0195L42.7383 48H38.4219L35.082 39.3281H23.1094L19.9648 48H15.9414ZM24.2031 36.2422H33.9102L30.9219 28.3125C30.0104 25.9036 29.3333 23.9245 28.8906 22.375C28.526 24.2109 28.0117 26.0339 27.3477 27.8438L24.2031 36.2422Z" fill="#2F2D28"/>
<path d="M45.2773 48V27.2578H48.4414V30.4023C49.2487 28.931 49.9909 27.9609 50.668 27.4922C51.3581 27.0234 52.1133 26.7891 52.9336 26.7891C54.1185 26.7891 55.3229 27.1667 56.5469 27.9219L55.3359 31.1836C54.4766 30.6758 53.6172 30.4219 52.7578 30.4219C51.9896 30.4219 51.2995 30.6562 50.6875 31.125C50.0755 31.5807 49.6393 32.2188 49.3789 33.0391C48.9883 34.2891 48.793 35.6562 48.793 37.1406V48H45.2773Z" fill="#2F2D28"/>
<path d="M58.6562 23.4102V19.3672H62.1719V23.4102H58.6562ZM58.6562 48V27.2578H62.1719V48H58.6562Z" fill="#2F2D28"/>
<path d="M81.0781 45.4414C79.776 46.5482 78.5195 47.3294 77.3086 47.7852C76.1107 48.2409 74.8216 48.4688 73.4414 48.4688C71.1628 48.4688 69.4115 47.9154 68.1875 46.8086C66.9635 45.6888 66.3516 44.263 66.3516 42.5312C66.3516 41.5156 66.5794 40.5911 67.0352 39.7578C67.5039 38.9115 68.1094 38.2344 68.8516 37.7266C69.6068 37.2188 70.4531 36.8346 71.3906 36.5742C72.0807 36.3919 73.1224 36.2161 74.5156 36.0469C77.3542 35.7083 79.444 35.3047 80.7852 34.8359C80.7982 34.3542 80.8047 34.0482 80.8047 33.918C80.8047 32.4857 80.4727 31.4766 79.8086 30.8906C78.9102 30.0964 77.5755 29.6992 75.8047 29.6992C74.151 29.6992 72.9271 29.9922 72.1328 30.5781C71.3516 31.151 70.7721 32.1732 70.3945 33.6445L66.957 33.1758C67.2695 31.7044 67.7839 30.5195 68.5 29.6211C69.2161 28.7096 70.2513 28.013 71.6055 27.5312C72.9596 27.0365 74.5286 26.7891 76.3125 26.7891C78.0833 26.7891 79.5221 26.9974 80.6289 27.4141C81.7357 27.8307 82.5495 28.3581 83.0703 28.9961C83.5911 29.6211 83.9557 30.4154 84.1641 31.3789C84.2812 31.9779 84.3398 33.0586 84.3398 34.6211V39.3086C84.3398 42.5768 84.4115 44.6471 84.5547 45.5195C84.7109 46.3789 85.0104 47.2057 85.4531 48H81.7812C81.4167 47.2708 81.1823 46.418 81.0781 45.4414ZM80.7852 37.5898C79.5091 38.1107 77.5951 38.5534 75.043 38.918C73.5977 39.1263 72.5755 39.3607 71.9766 39.6211C71.3776 39.8815 70.9154 40.2656 70.5898 40.7734C70.2643 41.2682 70.1016 41.8216 70.1016 42.4336C70.1016 43.3711 70.4531 44.1523 71.1562 44.7773C71.8724 45.4023 72.9141 45.7148 74.2812 45.7148C75.6354 45.7148 76.8398 45.4219 77.8945 44.8359C78.9492 44.237 79.724 43.4232 80.2188 42.3945C80.5964 41.6003 80.7852 40.4284 80.7852 38.8789V37.5898Z" fill="#2F2D28"/>
<path d="M89.7305 48V19.3672H93.2461V48H89.7305Z" fill="#2F2D28"/>
<path d="M19.3008 67.5625H28.7148C30.8503 67.5625 32.6536 67.888 34.125 68.5391C35.6094 69.1901 36.7357 70.1536 37.5039 71.4297C38.2852 72.6927 38.6758 74.2487 38.6758 76.0977C38.6758 77.3997 38.4089 78.5911 37.875 79.6719C37.3542 80.7396 36.599 81.651 35.6094 82.4062C34.6328 83.1484 33.4609 83.7018 32.0938 84.0664L31.0391 84.4766H22.1914L22.1523 81.4102H28.832C30.1862 81.4102 31.3125 81.1758 32.2109 80.707C33.1094 80.2253 33.7865 79.5807 34.2422 78.7734C34.6979 77.9661 34.9258 77.0742 34.9258 76.0977C34.9258 75.0039 34.7109 74.0469 34.2812 73.2266C33.8516 72.4062 33.1745 71.7747 32.25 71.332C31.3385 70.8763 30.1602 70.6484 28.7148 70.6484H23.0703V96H19.3008V67.5625ZM35.9219 96L29.0078 83.1094L32.9336 83.0898L39.9453 95.7656V96H35.9219Z" fill="#2F2D28"/>
<path d="M42.4453 85.668V85.2188C42.4453 83.6953 42.6667 82.2826 43.1094 80.9805C43.5521 79.6654 44.1901 78.526 45.0234 77.5625C45.8568 76.5859 46.8659 75.8307 48.0508 75.2969C49.2357 74.75 50.5638 74.4766 52.0352 74.4766C53.5195 74.4766 54.8542 74.75 56.0391 75.2969C57.237 75.8307 58.2526 76.5859 59.0859 77.5625C59.9323 78.526 60.5768 79.6654 61.0195 80.9805C61.4622 82.2826 61.6836 83.6953 61.6836 85.2188V85.668C61.6836 87.1914 61.4622 88.6042 61.0195 89.9062C60.5768 91.2083 59.9323 92.3477 59.0859 93.3242C58.2526 94.2878 57.2435 95.043 56.0586 95.5898C54.8867 96.1237 53.5586 96.3906 52.0742 96.3906C50.5898 96.3906 49.2552 96.1237 48.0703 95.5898C46.8854 95.043 45.8698 94.2878 45.0234 93.3242C44.1901 92.3477 43.5521 91.2083 43.1094 89.9062C42.6667 88.6042 42.4453 87.1914 42.4453 85.668ZM46.0586 85.2188V85.668C46.0586 86.7227 46.1823 87.7188 46.4297 88.6562C46.6771 89.5807 47.0482 90.401 47.543 91.1172C48.0508 91.8333 48.6823 92.3997 49.4375 92.8164C50.1927 93.2201 51.0716 93.4219 52.0742 93.4219C53.0638 93.4219 53.9297 93.2201 54.6719 92.8164C55.4271 92.3997 56.0521 91.8333 56.5469 91.1172C57.0417 90.401 57.4128 89.5807 57.6602 88.6562C57.9206 87.7188 58.0508 86.7227 58.0508 85.668V85.2188C58.0508 84.1771 57.9206 83.194 57.6602 82.2695C57.4128 81.332 57.0352 80.5052 56.5273 79.7891C56.0326 79.0599 55.4076 78.487 54.6523 78.0703C53.9102 77.6536 53.0378 77.4453 52.0352 77.4453C51.0456 77.4453 50.1732 77.6536 49.418 78.0703C48.6758 78.487 48.0508 79.0599 47.543 79.7891C47.0482 80.5052 46.6771 81.332 46.4297 82.2695C46.1823 83.194 46.0586 84.1771 46.0586 85.2188Z" fill="#2F2D28"/>
<path d="M66.1953 66H69.8281V91.8984L69.5156 96H66.1953V66ZM84.1055 85.2578V85.668C84.1055 87.2044 83.9232 88.6302 83.5586 89.9453C83.194 91.2474 82.6602 92.3802 81.957 93.3438C81.2539 94.3073 80.3945 95.056 79.3789 95.5898C78.3633 96.1237 77.1979 96.3906 75.8828 96.3906C74.5417 96.3906 73.3633 96.1628 72.3477 95.707C71.3451 95.2383 70.4987 94.5677 69.8086 93.6953C69.1185 92.8229 68.5651 91.7682 68.1484 90.5312C67.7448 89.2943 67.4648 87.901 67.3086 86.3516V84.5547C67.4648 82.9922 67.7448 81.5924 68.1484 80.3555C68.5651 79.1185 69.1185 78.0638 69.8086 77.1914C70.4987 76.306 71.3451 75.6354 72.3477 75.1797C73.3503 74.7109 74.5156 74.4766 75.8438 74.4766C77.1719 74.4766 78.3503 74.737 79.3789 75.2578C80.4076 75.7656 81.2669 76.4948 81.957 77.4453C82.6602 78.3958 83.194 79.5352 83.5586 80.8633C83.9232 82.1784 84.1055 83.6432 84.1055 85.2578ZM80.4727 85.668V85.2578C80.4727 84.2031 80.375 83.2135 80.1797 82.2891C79.9844 81.3516 79.6719 80.5312 79.2422 79.8281C78.8125 79.112 78.2461 78.5521 77.543 78.1484C76.8398 77.7318 75.974 77.5234 74.9453 77.5234C74.0339 77.5234 73.2396 77.6797 72.5625 77.9922C71.8984 78.3047 71.332 78.7279 70.8633 79.2617C70.3945 79.7826 70.0104 80.3815 69.7109 81.0586C69.4245 81.7227 69.2096 82.4128 69.0664 83.1289V87.8359C69.2747 88.7474 69.6133 89.6263 70.082 90.4727C70.5638 91.306 71.2018 91.9896 71.9961 92.5234C72.8034 93.0573 73.7995 93.3242 74.9844 93.3242C75.9609 93.3242 76.7943 93.1289 77.4844 92.7383C78.1875 92.3346 78.7539 91.7812 79.1836 91.0781C79.6263 90.375 79.9518 89.5612 80.1602 88.6367C80.3685 87.7122 80.4727 86.7227 80.4727 85.668Z" fill="#2F2D28"/>
<path d="M87.7188 85.668V85.2188C87.7188 83.6953 87.9401 82.2826 88.3828 80.9805C88.8255 79.6654 89.4635 78.526 90.2969 77.5625C91.1302 76.5859 92.1393 75.8307 93.3242 75.2969C94.5091 74.75 95.8372 74.4766 97.3086 74.4766C98.793 74.4766 100.128 74.75 101.312 75.2969C102.51 75.8307 103.526 76.5859 104.359 77.5625C105.206 78.526 105.85 79.6654 106.293 80.9805C106.736 82.2826 106.957 83.6953 106.957 85.2188V85.668C106.957 87.1914 106.736 88.6042 106.293 89.9062C105.85 91.2083 105.206 92.3477 104.359 93.3242C103.526 94.2878 102.517 95.043 101.332 95.5898C100.16 96.1237 98.832 96.3906 97.3477 96.3906C95.8633 96.3906 94.5286 96.1237 93.3438 95.5898C92.1589 95.043 91.1432 94.2878 90.2969 93.3242C89.4635 92.3477 88.8255 91.2083 88.3828 89.9062C87.9401 88.6042 87.7188 87.1914 87.7188 85.668ZM91.332 85.2188V85.668C91.332 86.7227 91.4557 87.7188 91.7031 88.6562C91.9505 89.5807 92.3216 90.401 92.8164 91.1172C93.3242 91.8333 93.9557 92.3997 94.7109 92.8164C95.4661 93.2201 96.3451 93.4219 97.3477 93.4219C98.3372 93.4219 99.2031 93.2201 99.9453 92.8164C100.701 92.3997 101.326 91.8333 101.82 91.1172C102.315 90.401 102.686 89.5807 102.934 88.6562C103.194 87.7188 103.324 86.7227 103.324 85.668V85.2188C103.324 84.1771 103.194 83.194 102.934 82.2695C102.686 81.332 102.309 80.5052 101.801 79.7891C101.306 79.0599 100.681 78.487 99.9258 78.0703C99.1836 77.6536 98.3112 77.4453 97.3086 77.4453C96.319 77.4453 95.4466 77.6536 94.6914 78.0703C93.9492 78.487 93.3242 79.0599 92.8164 79.7891C92.3216 80.5052 91.9505 81.332 91.7031 82.2695C91.4557 83.194 91.332 84.1771 91.332 85.2188Z" fill="#2F2D28"/>
<path d="M120.336 74.8672V77.6406H108.91V74.8672H120.336ZM112.777 69.7305H116.391V90.7656C116.391 91.4818 116.501 92.0221 116.723 92.3867C116.944 92.7513 117.23 92.9922 117.582 93.1094C117.934 93.2266 118.311 93.2852 118.715 93.2852C119.014 93.2852 119.327 93.2591 119.652 93.207C119.991 93.1419 120.245 93.0898 120.414 93.0508L120.434 96C120.147 96.0911 119.77 96.1758 119.301 96.2539C118.845 96.3451 118.292 96.3906 117.641 96.3906C116.755 96.3906 115.941 96.2148 115.199 95.8633C114.457 95.5117 113.865 94.9258 113.422 94.1055C112.992 93.2721 112.777 92.1523 112.777 90.7461V69.7305Z" fill="#2F2D28"/>
<path d="M123.227 85.668V85.2188C123.227 83.6953 123.448 82.2826 123.891 80.9805C124.333 79.6654 124.971 78.526 125.805 77.5625C126.638 76.5859 127.647 75.8307 128.832 75.2969C130.017 74.75 131.345 74.4766 132.816 74.4766C134.301 74.4766 135.635 74.75 136.82 75.2969C138.018 75.8307 139.034 76.5859 139.867 77.5625C140.714 78.526 141.358 79.6654 141.801 80.9805C142.243 82.2826 142.465 83.6953 142.465 85.2188V85.668C142.465 87.1914 142.243 88.6042 141.801 89.9062C141.358 91.2083 140.714 92.3477 139.867 93.3242C139.034 94.2878 138.025 95.043 136.84 95.5898C135.668 96.1237 134.34 96.3906 132.855 96.3906C131.371 96.3906 130.036 96.1237 128.852 95.5898C127.667 95.043 126.651 94.2878 125.805 93.3242C124.971 92.3477 124.333 91.2083 123.891 89.9062C123.448 88.6042 123.227 87.1914 123.227 85.668ZM126.84 85.2188V85.668C126.84 86.7227 126.964 87.7188 127.211 88.6562C127.458 89.5807 127.829 90.401 128.324 91.1172C128.832 91.8333 129.464 92.3997 130.219 92.8164C130.974 93.2201 131.853 93.4219 132.855 93.4219C133.845 93.4219 134.711 93.2201 135.453 92.8164C136.208 92.3997 136.833 91.8333 137.328 91.1172C137.823 90.401 138.194 89.5807 138.441 88.6562C138.702 87.7188 138.832 86.7227 138.832 85.668V85.2188C138.832 84.1771 138.702 83.194 138.441 82.2695C138.194 81.332 137.816 80.5052 137.309 79.7891C136.814 79.0599 136.189 78.487 135.434 78.0703C134.691 77.6536 133.819 77.4453 132.816 77.4453C131.827 77.4453 130.954 77.6536 130.199 78.0703C129.457 78.487 128.832 79.0599 128.324 79.7891C127.829 80.5052 127.458 81.332 127.211 82.2695C126.964 83.194 126.84 84.1771 126.84 85.2188Z" fill="#2F2D28"/>
<path d="M25.8633 114.379V146H17.6406V114.379H25.8633Z" fill="#2F2D28"/>
<path d="M36.7227 120.082L36.5859 122.543C37.1979 121.566 37.9271 120.837 38.7734 120.355C39.6198 119.861 40.5833 119.613 41.6641 119.613C43.7734 119.613 45.4336 120.59 46.6445 122.543C47.3086 121.566 48.0573 120.837 48.8906 120.355C49.724 119.861 50.6484 119.613 51.6641 119.613C53.0052 119.613 54.112 119.939 54.9844 120.59C55.8698 121.241 56.4362 122.042 56.6836 122.992C56.931 123.93 57.0547 125.46 57.0547 127.582V146H49.3984V129.105C49.3984 126.892 49.3203 125.525 49.1641 125.004C49.0208 124.47 48.6758 124.203 48.1289 124.203C47.569 124.203 47.2044 124.464 47.0352 124.984C46.8789 125.505 46.8008 126.879 46.8008 129.105V146H39.1445V129.535C39.1445 126.996 39.0794 125.473 38.9492 124.965C38.832 124.457 38.4935 124.203 37.9336 124.203C37.582 124.203 37.2826 124.34 37.0352 124.613C36.7878 124.874 36.651 125.199 36.625 125.59C36.599 125.967 36.5859 126.781 36.5859 128.031V146H28.9297V120.082H36.7227Z" fill="#2F2D28"/>
<path d="M67.8164 120.082L67.6797 122.367C68.3828 121.443 69.1576 120.753 70.0039 120.297C70.8503 119.841 71.7747 119.613 72.7773 119.613C74.0013 119.613 75.056 119.945 75.9414 120.609C76.8398 121.26 77.3997 122.016 77.6211 122.875C77.8424 123.734 77.9531 125.193 77.9531 127.25V138.168C77.9531 140.525 77.8099 142.204 77.5234 143.207C77.25 144.197 76.6771 144.991 75.8047 145.59C74.9453 146.176 73.9036 146.469 72.6797 146.469C71.7031 146.469 70.7982 146.241 69.9648 145.785C69.1315 145.329 68.3698 144.652 67.6797 143.754V149.691H59.7891V120.082H67.8164ZM70.0625 127.621C70.0625 126.02 70.0039 125.049 69.8867 124.711C69.7695 124.372 69.444 124.203 68.9102 124.203C68.3893 124.203 68.0508 124.398 67.8945 124.789C67.7513 125.18 67.6797 126.124 67.6797 127.621V138.363C67.6797 139.926 67.7578 140.902 67.9141 141.293C68.0703 141.684 68.4089 141.879 68.9297 141.879C69.4375 141.879 69.75 141.703 69.8672 141.352C69.9974 140.987 70.0625 140.115 70.0625 138.734V127.621Z" fill="#2F2D28"/>
<path d="M87.6211 130.121H80.2188V128.383C80.2188 126.378 80.4466 124.835 80.9023 123.754C81.3711 122.66 82.3021 121.697 83.6953 120.863C85.0885 120.03 86.8984 119.613 89.125 119.613C91.7943 119.613 93.806 120.089 95.1602 121.039C96.5143 121.977 97.3281 123.135 97.6016 124.516C97.875 125.883 98.0117 128.708 98.0117 132.992V146H90.3359V143.695C89.8542 144.62 89.2292 145.316 88.4609 145.785C87.7057 146.241 86.8008 146.469 85.7461 146.469C84.3659 146.469 83.0964 146.085 81.9375 145.316C80.7917 144.535 80.2188 142.836 80.2188 140.219V138.09C80.2188 136.15 80.5247 134.828 81.1367 134.125C81.7487 133.422 83.2656 132.602 85.6875 131.664C88.2786 130.648 89.6654 129.965 89.8477 129.613C90.0299 129.262 90.1211 128.546 90.1211 127.465C90.1211 126.111 90.0169 125.232 89.8086 124.828C89.6133 124.411 89.2812 124.203 88.8125 124.203C88.2786 124.203 87.9466 124.379 87.8164 124.73C87.6862 125.069 87.6211 125.961 87.6211 127.406V130.121ZM90.1211 133.676C88.8581 134.6 88.1224 135.375 87.9141 136C87.7188 136.625 87.6211 137.523 87.6211 138.695C87.6211 140.036 87.7057 140.902 87.875 141.293C88.0573 141.684 88.4089 141.879 88.9297 141.879C89.4245 141.879 89.7435 141.729 89.8867 141.43C90.043 141.117 90.1211 140.31 90.1211 139.008V133.676Z" fill="#2F2D28"/>
<path d="M118.168 129.867H110.727V126.879C110.727 125.837 110.642 125.134 110.473 124.77C110.303 124.392 109.991 124.203 109.535 124.203C109.079 124.203 108.773 124.366 108.617 124.691C108.461 125.017 108.383 125.746 108.383 126.879V139.105C108.383 140.03 108.5 140.727 108.734 141.195C108.969 141.651 109.314 141.879 109.77 141.879C110.303 141.879 110.661 141.638 110.844 141.156C111.039 140.674 111.137 139.763 111.137 138.422V135.336H118.168C118.155 137.406 118.077 138.962 117.934 140.004C117.803 141.033 117.367 142.094 116.625 143.188C115.896 144.268 114.939 145.089 113.754 145.648C112.569 146.195 111.104 146.469 109.359 146.469C107.133 146.469 105.368 146.091 104.066 145.336C102.764 144.568 101.84 143.5 101.293 142.133C100.759 140.753 100.492 138.799 100.492 136.273V128.91C100.492 126.71 100.714 125.049 101.156 123.93C101.599 122.81 102.543 121.814 103.988 120.941C105.434 120.056 107.191 119.613 109.262 119.613C111.319 119.613 113.077 120.049 114.535 120.922C115.993 121.794 116.964 122.895 117.445 124.223C117.927 125.551 118.168 127.432 118.168 129.867Z" fill="#2F2D28"/>
<path d="M128.852 116.625V120.707H130.98V124.809H128.852V138.676C128.852 140.382 128.936 141.332 129.105 141.527C129.288 141.723 130.023 141.82 131.312 141.82V146H128.129C126.332 146 125.049 145.928 124.281 145.785C123.513 145.629 122.836 145.284 122.25 144.75C121.664 144.203 121.299 143.585 121.156 142.895C121.013 142.191 120.941 140.551 120.941 137.973V124.809H119.242V120.707H120.941V116.625H128.852Z" fill="#2F2D28"/>
<path d="M46.1172 192H42.5234V167.645L34.3594 192H30.9609L22.7969 167.645V192H19.2031V163.367H24.8867L32.6406 187.234L40.4336 163.367H46.1172V192Z" fill="#2F2D28"/>
<path d="M55.7266 192H52.0352V171.277H55.7266V192ZM55.7266 167.352H52.0352V163.367H55.7266V167.352Z" fill="#2F2D28"/>
<path d="M69.5742 192.488C66.6315 192.488 64.2747 191.544 62.5039 189.656C60.7461 187.755 59.8672 185.086 59.8672 181.648C59.8672 178.198 60.7461 175.529 62.5039 173.641C64.2747 171.753 66.6315 170.809 69.5742 170.809C71.8398 170.809 73.7279 171.382 75.2383 172.527C76.7617 173.673 77.6602 175.327 77.9336 177.488H74.1445C74.0924 176.251 73.6237 175.307 72.7383 174.656C71.8659 174.005 70.8112 173.68 69.5742 173.68C67.8164 173.68 66.3906 174.35 65.2969 175.691C64.2031 177.02 63.6562 179.005 63.6562 181.648C63.6562 184.279 64.2031 186.264 65.2969 187.605C66.3906 188.934 67.8164 189.598 69.5742 189.598C70.8112 189.598 71.8659 189.272 72.7383 188.621C73.6237 187.97 74.0924 187.033 74.1445 185.809H77.9336C77.6602 187.97 76.7617 189.624 75.2383 190.77C73.7279 191.915 71.8398 192.488 69.5742 192.488Z" fill="#2F2D28"/>
<path d="M91.9375 174.637C91.4167 174.48 90.668 174.402 89.6914 174.402C87.8164 174.402 86.2083 175.385 84.8672 177.352V192H81.1758V171.277H84.8672V174.168C86.4167 171.928 88.2135 170.809 90.2578 170.809C90.7786 170.809 91.3385 170.861 91.9375 170.965V174.637Z" fill="#2F2D28"/>
<path d="M102.895 170.809C105.85 170.809 108.207 171.753 109.965 173.641C111.736 175.529 112.621 178.198 112.621 181.648C112.621 185.086 111.736 187.755 109.965 189.656C108.207 191.544 105.85 192.488 102.895 192.488C99.9518 192.488 97.5951 191.544 95.8242 189.656C94.0664 187.755 93.1875 185.086 93.1875 181.648C93.1875 178.198 94.0664 175.529 95.8242 173.641C97.5951 171.753 99.9518 170.809 102.895 170.809ZM102.895 189.598C104.652 189.598 106.078 188.934 107.172 187.605C108.266 186.264 108.812 184.279 108.812 181.648C108.812 179.005 108.266 177.02 107.172 175.691C106.078 174.35 104.652 173.68 102.895 173.68C101.137 173.68 99.7109 174.35 98.6172 175.691C97.5234 177.02 96.9766 179.005 96.9766 181.648C96.9766 184.279 97.5234 186.264 98.6172 187.605C99.7109 188.934 101.137 189.598 102.895 189.598Z" fill="#2F2D28"/>
<path d="M124.164 192.488C118.5 192.488 115.538 190.262 115.277 185.809H118.969C118.995 188.335 120.714 189.598 124.125 189.598C125.648 189.598 126.807 189.285 127.602 188.66C128.409 188.022 128.812 187.228 128.812 186.277C128.812 185.34 128.422 184.682 127.641 184.305C126.859 183.914 125.245 183.413 122.797 182.801C120.362 182.189 118.578 181.505 117.445 180.75C116.326 179.995 115.766 178.667 115.766 176.766C115.766 175.047 116.462 173.628 117.855 172.508C119.262 171.375 121.137 170.809 123.48 170.809C128.91 170.809 131.684 172.742 131.801 176.609H128.129C127.999 174.656 126.534 173.68 123.734 173.68C122.497 173.68 121.469 173.914 120.648 174.383C119.841 174.852 119.438 175.535 119.438 176.434C119.438 177.241 119.75 177.827 120.375 178.191C121 178.543 122.562 179.025 125.062 179.637C127.576 180.236 129.438 180.939 130.648 181.746C131.872 182.553 132.484 183.947 132.484 185.926C132.484 187.814 131.729 189.383 130.219 190.633C128.721 191.87 126.703 192.488 124.164 192.488Z" fill="#2F2D28"/>
<path d="M145.16 170.809C148.116 170.809 150.473 171.753 152.23 173.641C154.001 175.529 154.887 178.198 154.887 181.648C154.887 185.086 154.001 187.755 152.23 189.656C150.473 191.544 148.116 192.488 145.16 192.488C142.217 192.488 139.861 191.544 138.09 189.656C136.332 187.755 135.453 185.086 135.453 181.648C135.453 178.198 136.332 175.529 138.09 173.641C139.861 171.753 142.217 170.809 145.16 170.809ZM145.16 189.598C146.918 189.598 148.344 188.934 149.438 187.605C150.531 186.264 151.078 184.279 151.078 181.648C151.078 179.005 150.531 177.02 149.438 175.691C148.344 174.35 146.918 173.68 145.16 173.68C143.402 173.68 141.977 174.35 140.883 175.691C139.789 177.02 139.242 179.005 139.242 181.648C139.242 184.279 139.789 186.264 140.883 187.605C141.977 188.934 143.402 189.598 145.16 189.598Z" fill="#2F2D28"/>
<path d="M163.344 174.168V192H159.672V174.168H156.625V171.277H159.672V169.441C159.672 165.066 161.605 162.879 165.473 162.879C166.658 162.879 167.576 162.957 168.227 163.113V166.316C167.497 166.186 166.755 166.121 166 166.121C165.102 166.121 164.431 166.375 163.988 166.883C163.559 167.378 163.344 168.243 163.344 169.48V171.277H167.27V174.168H163.344Z" fill="#2F2D28"/>
<path d="M178.207 192.039C177.4 192.195 176.521 192.273 175.57 192.273C174.06 192.273 172.953 192.007 172.25 191.473C171.547 190.926 171.111 190.229 170.941 189.383C170.772 188.536 170.688 187.384 170.688 185.926V174.168H168.129V171.277H170.688V166.121H174.359V171.277H177.719V174.168H174.359V186.121C174.359 187.54 174.535 188.445 174.887 188.836C175.251 189.214 175.746 189.402 176.371 189.402C177.009 189.402 177.621 189.35 178.207 189.246V192.039Z" fill="#2F2D28"/>
<path d="M203.207 192.488C199.171 192.488 196.15 191.583 194.145 189.773C192.152 187.964 191.104 185.639 191 182.801H194.652C194.848 184.936 195.733 186.518 197.309 187.547C198.897 188.562 200.811 189.07 203.051 189.07C205.173 189.07 206.879 188.634 208.168 187.762C209.47 186.889 210.121 185.704 210.121 184.207C210.121 182.632 209.451 181.486 208.109 180.77C206.768 180.053 204.457 179.35 201.176 178.66C197.908 177.957 195.557 176.987 194.125 175.75C192.706 174.513 191.996 172.866 191.996 170.809C191.996 168.491 192.921 166.59 194.77 165.105C196.632 163.621 199.099 162.879 202.172 162.879C205.401 162.879 208.005 163.628 209.984 165.125C211.964 166.622 213.012 168.738 213.129 171.473H209.438C209.06 168.009 206.69 166.277 202.328 166.277C200.219 166.277 198.585 166.674 197.426 167.469C196.267 168.263 195.688 169.318 195.688 170.633C195.688 171.831 196.15 172.729 197.074 173.328C198.012 173.927 199.75 174.507 202.289 175.066C204.841 175.626 206.866 176.18 208.363 176.727C209.861 177.273 211.143 178.126 212.211 179.285C213.279 180.431 213.812 181.974 213.812 183.914C213.812 186.375 212.829 188.419 210.863 190.047C208.91 191.674 206.358 192.488 203.207 192.488Z" fill="#2F2D28"/>
<path d="M231.723 186.551V181.961H229.203C223.865 181.961 221.195 183.413 221.195 186.316C221.195 187.371 221.586 188.185 222.367 188.758C223.148 189.318 224.203 189.598 225.531 189.598C226.742 189.598 227.914 189.324 229.047 188.777C230.18 188.23 231.072 187.488 231.723 186.551ZM231.723 189.871C229.848 191.616 227.432 192.488 224.477 192.488C222.419 192.488 220.727 191.935 219.398 190.828C218.07 189.708 217.406 188.27 217.406 186.512C217.406 181.668 221.579 179.246 229.926 179.246H231.723C231.723 177.762 231.645 176.688 231.488 176.023C231.332 175.346 230.896 174.786 230.18 174.344C229.464 173.901 228.324 173.68 226.762 173.68C223.48 173.68 221.788 174.852 221.684 177.195H218.012C218.285 172.938 221.267 170.809 226.957 170.809C229.613 170.809 231.684 171.336 233.168 172.391C234.652 173.445 235.395 175.516 235.395 178.602V192H231.723V189.871Z" fill="#2F2D28"/>
<path d="M244.555 173.914C246.391 171.844 248.454 170.809 250.746 170.809C255.421 170.809 257.758 173.354 257.758 178.445V192H254.066V178.602C254.066 176.909 253.76 175.691 253.148 174.949C252.549 174.207 251.56 173.836 250.18 173.836C248.305 173.836 246.43 174.943 244.555 177.156V192H240.863V171.277H244.555V173.914Z" fill="#2F2D28"/>
<path d="M270.531 192.488C264.867 192.488 261.905 190.262 261.645 185.809H265.336C265.362 188.335 267.081 189.598 270.492 189.598C272.016 189.598 273.174 189.285 273.969 188.66C274.776 188.022 275.18 187.228 275.18 186.277C275.18 185.34 274.789 184.682 274.008 184.305C273.227 183.914 271.612 183.413 269.164 182.801C266.729 182.189 264.945 181.505 263.812 180.75C262.693 179.995 262.133 178.667 262.133 176.766C262.133 175.047 262.829 173.628 264.223 172.508C265.629 171.375 267.504 170.809 269.848 170.809C275.277 170.809 278.051 172.742 278.168 176.609H274.496C274.366 174.656 272.901 173.68 270.102 173.68C268.865 173.68 267.836 173.914 267.016 174.383C266.208 174.852 265.805 175.535 265.805 176.434C265.805 177.241 266.117 177.827 266.742 178.191C267.367 178.543 268.93 179.025 271.43 179.637C273.943 180.236 275.805 180.939 277.016 181.746C278.24 182.553 278.852 183.947 278.852 185.926C278.852 187.814 278.096 189.383 276.586 190.633C275.089 191.87 273.07 192.488 270.531 192.488Z" fill="#2F2D28"/>
<path d="M305.043 192.488C301.007 192.488 297.986 191.583 295.98 189.773C293.988 187.964 292.94 185.639 292.836 182.801H296.488C296.684 184.936 297.569 186.518 299.145 187.547C300.733 188.562 302.647 189.07 304.887 189.07C307.009 189.07 308.715 188.634 310.004 187.762C311.306 186.889 311.957 185.704 311.957 184.207C311.957 182.632 311.286 181.486 309.945 180.77C308.604 180.053 306.293 179.35 303.012 178.66C299.743 177.957 297.393 176.987 295.961 175.75C294.542 174.513 293.832 172.866 293.832 170.809C293.832 168.491 294.757 166.59 296.605 165.105C298.467 163.621 300.935 162.879 304.008 162.879C307.237 162.879 309.841 163.628 311.82 165.125C313.799 166.622 314.848 168.738 314.965 171.473H311.273C310.896 168.009 308.526 166.277 304.164 166.277C302.055 166.277 300.421 166.674 299.262 167.469C298.103 168.263 297.523 169.318 297.523 170.633C297.523 171.831 297.986 172.729 298.91 173.328C299.848 173.927 301.586 174.507 304.125 175.066C306.677 175.626 308.702 176.18 310.199 176.727C311.697 177.273 312.979 178.126 314.047 179.285C315.115 180.431 315.648 181.974 315.648 183.914C315.648 186.375 314.665 188.419 312.699 190.047C310.746 191.674 308.194 192.488 305.043 192.488Z" fill="#2F2D28"/>
<path d="M329.242 192.488C326.195 192.488 323.747 191.538 321.898 189.637C320.049 187.723 319.125 185.06 319.125 181.648C319.125 178.263 320.017 175.613 321.801 173.699C323.598 171.772 325.941 170.809 328.832 170.809C331.788 170.809 334.145 171.753 335.902 173.641C337.673 175.529 338.559 178.198 338.559 181.648V182.527H322.953C323.109 184.923 323.767 186.701 324.926 187.859C326.098 189.018 327.536 189.598 329.242 189.598C330.531 189.598 331.69 189.272 332.719 188.621C333.76 187.957 334.307 187.02 334.359 185.809H338.168C337.882 187.944 336.911 189.591 335.258 190.75C333.617 191.909 331.612 192.488 329.242 192.488ZM334.672 179.637C334.372 177.645 333.702 176.154 332.66 175.164C331.618 174.174 330.342 173.68 328.832 173.68C327.361 173.68 326.098 174.174 325.043 175.164C323.988 176.141 323.318 177.632 323.031 179.637H334.672Z" fill="#2F2D28"/>
<path d="M353.461 174.637C352.94 174.48 352.191 174.402 351.215 174.402C349.34 174.402 347.732 175.385 346.391 177.352V192H342.699V171.277H346.391V174.168C347.94 171.928 349.737 170.809 351.781 170.809C352.302 170.809 352.862 170.861 353.461 170.965V174.637Z" fill="#2F2D28"/>
<path d="M359.711 192H356.02V171.277H359.711V192ZM359.711 167.352H356.02V163.367H359.711V167.352Z" fill="#2F2D28"/>
<path d="M369.477 174.168V192H365.805V174.168H362.758V171.277H365.805V169.441C365.805 165.066 367.738 162.879 371.605 162.879C372.79 162.879 373.708 162.957 374.359 163.113V166.316C373.63 166.186 372.888 166.121 372.133 166.121C371.234 166.121 370.564 166.375 370.121 166.883C369.691 167.378 369.477 168.243 369.477 169.48V171.277H373.402V174.168H369.477Z" fill="#2F2D28"/>
</svg>
