<svg width="347" height="204" viewBox="0 0 347 204" fill="none" xmlns="http://www.w3.org/2000/svg">
<rect width="347" height="204" rx="4" fill="#EBE9E7"/>
<path d="M42.0742 22.2891L42.2891 25.2578C42.3672 26.1562 42.4062 26.7682 42.4062 27.0938L41.8594 27.1914C40.987 25.2122 39.8997 23.7279 38.5977 22.7383C37.3086 21.7487 35.7266 21.2539 33.8516 21.2539C31.5599 21.2539 29.776 21.5339 28.5 22.0938C26.651 22.888 25.069 24.2682 23.7539 26.2344C22.4388 28.2005 21.7812 30.5703 21.7812 33.3438C21.7812 34.9453 22.0221 36.3841 22.5039 37.6602C22.9857 38.9362 23.6628 40.1276 24.5352 41.2344C25.4206 42.3281 26.4622 43.2786 27.6602 44.0859C28.4414 44.6198 29.3724 45.0234 30.4531 45.2969C31.0651 45.4401 31.9766 45.5117 33.1875 45.5117C33.9688 45.5117 34.8346 45.401 35.7852 45.1797C36.7357 44.9583 37.4518 44.6654 37.9336 44.3008C38.4154 43.9232 38.7409 43.5 38.9102 43.0312C39.0924 42.5625 39.1836 41.651 39.1836 40.2969C39.1836 38.0443 39.0339 36.7357 38.7344 36.3711C38.4349 35.9935 37.4909 35.7461 35.9023 35.6289L35.1211 35.5703L34.5938 35.5898C34.5156 35.5768 34.4115 35.5573 34.2812 35.5312L33.9883 35.043C33.9883 34.9779 34.0339 34.8932 34.125 34.7891C34.8021 34.6849 36.2734 34.6328 38.5391 34.6328C39.0469 34.6328 39.8737 34.6458 41.0195 34.6719L43.0312 34.75L44.8477 34.7305C45.1992 34.7305 45.6224 34.7435 46.1172 34.7695C46.2083 34.7826 46.2669 34.8086 46.293 34.8477C46.319 34.8737 46.332 34.9258 46.332 35.0039C46.332 35.1471 46.2995 35.3294 46.2344 35.5508C45.6875 35.668 45.2643 35.7266 44.9648 35.7266L43.6953 35.707C43.2656 35.707 42.9206 35.8568 42.6602 36.1562C42.5299 36.2995 42.4648 36.7878 42.4648 37.6211L42.4844 40.1797C42.4844 41.9375 42.4128 43.0573 42.2695 43.5391C42.1914 43.8255 42.0286 44.0859 41.7812 44.3203C41.5339 44.5417 41.013 44.8086 40.2188 45.1211C39.0859 45.5768 38.0573 45.8828 37.1328 46.0391C35.4141 46.3385 33.7539 46.4883 32.1523 46.4883C29.5742 46.4883 27.4583 46.1628 25.8047 45.5117C24.1641 44.8477 22.7448 43.9297 21.5469 42.7578C20.362 41.5859 19.5156 40.401 19.0078 39.2031C18.2396 37.4453 17.8555 35.6549 17.8555 33.832C17.8555 31.5534 18.4544 29.3268 19.6523 27.1523C20.8633 24.9648 22.8099 23.1875 25.4922 21.8203C27.3802 20.8568 29.9453 20.375 33.1875 20.375C35.4271 20.375 37.2565 20.5703 38.6758 20.9609C40.1081 21.3516 41.2409 21.7943 42.0742 22.2891Z" fill="#2F2D28"/>
<path d="M62.7383 43.3438C62.8164 43.513 62.8555 43.6367 62.8555 43.7148C62.8555 43.9102 62.6992 44.2552 62.3867 44.75C61.9831 45.401 61.5339 45.8763 61.0391 46.1758C60.7266 46.3711 60.2969 46.4688 59.75 46.4688C58.8125 46.4688 58.1094 46.1823 57.6406 45.6094C57.3542 45.2708 57.1523 44.6654 57.0352 43.793L54.8477 45.3164C54.0794 45.7591 53.4935 46.0391 53.0898 46.1562C52.4388 46.3255 51.6576 46.4102 50.7461 46.4102C50.082 46.4102 49.5547 46.2148 49.1641 45.8242C48.7865 45.4206 48.5977 44.9062 48.5977 44.2812C48.5977 43.3828 49.1445 42.3086 50.2383 41.0586C51.3451 39.8086 52.8424 38.7865 54.7305 37.9922C56.0586 37.4323 56.8724 37.0742 57.1719 36.918C57.1979 36.4883 57.2109 36.0195 57.2109 35.5117C57.2109 33.8581 56.9766 32.7383 56.5078 32.1523C56.0521 31.5664 55.3945 31.2734 54.5352 31.2734C53.6367 31.2734 52.7969 31.625 52.0156 32.3281C51.5339 32.7708 51.1693 33.6042 50.9219 34.8281C50.8438 35.1667 50.694 35.5312 50.4727 35.9219C49.9128 36.2865 49.4635 36.4688 49.125 36.4688C48.8385 36.4688 48.5781 36.3841 48.3438 36.2148C48.2135 36.1237 48.1484 36.0195 48.1484 35.9023C48.1484 35.5638 48.5065 34.8021 49.2227 33.6172C49.9518 32.4193 50.8633 31.5273 51.957 30.9414C53.0638 30.3424 54.0273 30.043 54.8477 30.043C55.9674 30.043 56.8008 30.1471 57.3477 30.3555C57.8945 30.5508 58.3763 30.9023 58.793 31.4102C59.2096 31.918 59.4635 32.4714 59.5547 33.0703C59.6068 33.3568 59.6328 34.3789 59.6328 36.1367L59.5742 39.2422L59.5938 41.5078C59.5938 41.8073 59.5872 42.0612 59.5742 42.2695C59.5612 42.6471 59.5547 42.9271 59.5547 43.1094C59.5547 43.5391 59.6784 43.8841 59.9258 44.1445C60.1732 44.4049 60.4661 44.5352 60.8047 44.5352C61.2995 44.5352 61.7227 44.2878 62.0742 43.793L62.3086 43.4805C62.3737 43.4414 62.5169 43.3958 62.7383 43.3438ZM56.9961 42.7773C57.0872 41.1237 57.1328 39.9583 57.1328 39.2812C57.1328 38.9297 57.1133 38.4544 57.0742 37.8555C56.2018 38.168 55.2773 38.6432 54.3008 39.2812C53.3242 39.9193 52.5495 40.6549 51.9766 41.4883C51.5599 42.0872 51.3516 42.6536 51.3516 43.1875C51.3516 43.6953 51.5208 44.1185 51.8594 44.457C52.2109 44.7956 52.6471 44.9648 53.168 44.9648C53.5716 44.9648 54.0599 44.8216 54.6328 44.5352C55.388 44.1576 56.1758 43.5716 56.9961 42.7773Z" fill="#2F2D28"/>
<path d="M63.9102 46.0586L63.832 45.8047C63.832 45.7135 63.8906 45.5768 64.0078 45.3945L65.1602 45.1602L66.7812 44.8672C66.9115 44.8021 67.0026 44.7109 67.0547 44.5938C67.1328 44.4245 67.1719 43.9232 67.1719 43.0898C67.1719 38.6628 67.1458 36.1107 67.0938 35.4336C67.0417 34.7435 66.9245 34.3073 66.7422 34.125C66.5599 33.9427 66.0911 33.7995 65.3359 33.6953C64.8932 33.6302 64.5417 33.5456 64.2812 33.4414L64.3594 32.8555C65.7266 32.2956 66.6445 31.8138 67.1133 31.4102C67.7643 30.8242 68.3177 30.056 68.7734 29.1055L69.4375 29.125C69.5156 29.776 69.5547 31.2214 69.5547 33.4609L69.5352 33.793C69.5352 33.8711 69.5482 33.9948 69.5742 34.1641C70.069 33.2656 70.6875 32.4388 71.4297 31.6836L71.8789 31.2344C72.0612 31.026 72.237 30.8633 72.4062 30.7461C73.3177 30.1992 73.9948 29.9258 74.4375 29.9258C75.0104 29.9258 75.4792 30.1211 75.8438 30.5117C76.2083 30.8893 76.3906 31.3581 76.3906 31.918C76.3906 32.3607 76.2604 32.7057 76 32.9531C75.6484 33.2786 75.2448 33.4414 74.7891 33.4414C74.5807 33.4414 74.1706 33.3307 73.5586 33.1094C72.9466 32.888 72.543 32.7773 72.3477 32.7773C71.9831 32.7773 71.7292 32.8359 71.5859 32.9531C71.2214 33.2396 70.7786 33.8255 70.2578 34.7109C69.8542 35.375 69.6523 35.987 69.6523 36.5469L69.75 39.7695L69.7891 43.6367C69.8281 44.0794 69.8802 44.3659 69.9453 44.4961C69.9974 44.5872 70.1276 44.6979 70.3359 44.8281C71.7422 44.9453 72.5755 45.0299 72.8359 45.082C73.0182 45.0951 73.1549 45.1081 73.2461 45.1211C73.806 45.1341 74.1966 45.2122 74.418 45.3555C74.5352 45.4206 74.5938 45.5182 74.5938 45.6484C74.5938 45.7266 74.5417 45.8307 74.4375 45.9609L72.2695 45.9414L71.4492 45.9219L70.2578 45.9414H68.2656L67.1914 46L63.9102 46.0586Z" fill="#2F2D28"/>
<path d="M92.3477 43.3438C92.4258 43.513 92.4648 43.6367 92.4648 43.7148C92.4648 43.9102 92.3086 44.2552 91.9961 44.75C91.5924 45.401 91.1432 45.8763 90.6484 46.1758C90.3359 46.3711 89.9062 46.4688 89.3594 46.4688C88.4219 46.4688 87.7188 46.1823 87.25 45.6094C86.9635 45.2708 86.7617 44.6654 86.6445 43.793L84.457 45.3164C83.6888 45.7591 83.1029 46.0391 82.6992 46.1562C82.0482 46.3255 81.2669 46.4102 80.3555 46.4102C79.6914 46.4102 79.1641 46.2148 78.7734 45.8242C78.3958 45.4206 78.207 44.9062 78.207 44.2812C78.207 43.3828 78.7539 42.3086 79.8477 41.0586C80.9544 39.8086 82.4518 38.7865 84.3398 37.9922C85.668 37.4323 86.4818 37.0742 86.7812 36.918C86.8073 36.4883 86.8203 36.0195 86.8203 35.5117C86.8203 33.8581 86.5859 32.7383 86.1172 32.1523C85.6615 31.5664 85.0039 31.2734 84.1445 31.2734C83.2461 31.2734 82.4062 31.625 81.625 32.3281C81.1432 32.7708 80.7786 33.6042 80.5312 34.8281C80.4531 35.1667 80.3034 35.5312 80.082 35.9219C79.5221 36.2865 79.0729 36.4688 78.7344 36.4688C78.4479 36.4688 78.1875 36.3841 77.9531 36.2148C77.8229 36.1237 77.7578 36.0195 77.7578 35.9023C77.7578 35.5638 78.1159 34.8021 78.832 33.6172C79.5612 32.4193 80.4727 31.5273 81.5664 30.9414C82.6732 30.3424 83.6367 30.043 84.457 30.043C85.5768 30.043 86.4102 30.1471 86.957 30.3555C87.5039 30.5508 87.9857 30.9023 88.4023 31.4102C88.819 31.918 89.0729 32.4714 89.1641 33.0703C89.2161 33.3568 89.2422 34.3789 89.2422 36.1367L89.1836 39.2422L89.2031 41.5078C89.2031 41.8073 89.1966 42.0612 89.1836 42.2695C89.1706 42.6471 89.1641 42.9271 89.1641 43.1094C89.1641 43.5391 89.2878 43.8841 89.5352 44.1445C89.7826 44.4049 90.0755 44.5352 90.4141 44.5352C90.9089 44.5352 91.332 44.2878 91.6836 43.793L91.918 43.4805C91.9831 43.4414 92.1263 43.3958 92.3477 43.3438ZM86.6055 42.7773C86.6966 41.1237 86.7422 39.9583 86.7422 39.2812C86.7422 38.9297 86.7227 38.4544 86.6836 37.8555C85.8112 38.168 84.8867 38.6432 83.9102 39.2812C82.9336 39.9193 82.1589 40.6549 81.5859 41.4883C81.1693 42.0872 80.9609 42.6536 80.9609 43.1875C80.9609 43.6953 81.1302 44.1185 81.4688 44.457C81.8203 44.7956 82.2565 44.9648 82.7773 44.9648C83.181 44.9648 83.6693 44.8216 84.2422 44.5352C84.9974 44.1576 85.7852 43.5716 86.6055 42.7773Z" fill="#2F2D28"/>
<path d="M93.5 45.3164C93.7083 45.1732 93.9948 45.0755 94.3594 45.0234C94.8802 44.9583 95.2839 44.8542 95.5703 44.7109C95.8047 44.5156 95.9609 44.2357 96.0391 43.8711C96.1302 43.4023 96.1758 41.7552 96.1758 38.9297C96.1758 36.1562 96.0911 34.3659 95.9219 33.5586C95.6354 33.3763 95.2643 33.2331 94.8086 33.1289C94.6654 33.1029 94.3659 33.0312 93.9102 32.9141V32.2695C94.6784 32.0482 95.2969 31.7617 95.7656 31.4102C96.2474 31.0586 96.9115 30.3555 97.7578 29.3008H97.875C97.9531 29.3008 98.0768 29.2943 98.2461 29.2812C98.3503 29.2943 98.4349 29.3268 98.5 29.3789L98.4805 31.6055C98.4805 32.0612 98.4935 32.5495 98.5195 33.0703C99.9128 31.8073 101.163 30.9219 102.27 30.4141C103.025 30.0755 103.878 29.9062 104.828 29.9062C105.961 29.9062 106.859 30.1211 107.523 30.5508C108.188 30.9805 108.819 31.7552 109.418 32.875C110.577 31.7292 111.625 30.9284 112.562 30.4727C113.513 30.0169 114.47 29.7891 115.434 29.7891C116.892 29.7891 118.09 30.2643 119.027 31.2148C119.952 32.1784 120.427 33.5911 120.453 35.4531V37.0742L120.473 38.8516L120.453 43.4219C120.44 43.9557 120.557 44.3594 120.805 44.6328C120.909 44.6719 121.306 44.7891 121.996 44.9844C122.426 45.1016 122.68 45.1927 122.758 45.2578C122.836 45.3229 122.875 45.4141 122.875 45.5312C122.875 45.6745 122.836 45.8438 122.758 46.0391H122.621L120.648 45.9219C120.414 45.9089 120.043 45.9023 119.535 45.9023C118.91 45.9023 118.038 45.9284 116.918 45.9805H115.922C115.779 45.9805 115.499 45.987 115.082 46C115.069 45.8828 115.062 45.7786 115.062 45.6875C115.062 45.5833 115.108 45.4531 115.199 45.2969C115.551 45.1406 116.033 45.0169 116.645 44.9258C117.257 44.8216 117.634 44.6458 117.777 44.3984C117.934 44.138 118.012 43.1224 118.012 41.3516C118.012 37.5104 117.966 35.2839 117.875 34.6719C117.719 33.6953 117.302 32.9336 116.625 32.3867C115.961 31.8268 115.121 31.5469 114.105 31.5469C113.324 31.5469 112.562 31.7552 111.82 32.1719C111.078 32.5755 110.349 33.1875 109.633 34.0078L109.613 34.4766V37.4648L109.535 39.7891C109.535 42.1589 109.555 43.5065 109.594 43.832C109.646 44.1576 109.757 44.3984 109.926 44.5547C110.108 44.6979 110.622 44.8281 111.469 44.9453C111.846 44.9974 112.139 45.0495 112.348 45.1016C112.504 45.2318 112.582 45.401 112.582 45.6094C112.582 45.7786 112.523 45.8958 112.406 45.9609H112.074L111.098 45.9414H105.414L103.852 45.9609C103.826 45.7656 103.812 45.6224 103.812 45.5312L103.832 45.2969C104.118 45.1406 104.652 44.9909 105.434 44.8477C105.837 44.7826 106.254 44.6719 106.684 44.5156C106.762 44.4505 106.82 44.3659 106.859 44.2617C106.924 44.0794 106.97 43.5586 106.996 42.6992L107.094 40.4336L107.055 37.875L107.074 36.4492C107.074 34.8477 106.749 33.6823 106.098 32.9531C105.447 32.2109 104.626 31.8398 103.637 31.8398C102.712 31.8398 101.781 32.0677 100.844 32.5234C99.9193 32.9792 99.151 33.5911 98.5391 34.3594C98.526 34.724 98.5195 35.056 98.5195 35.3555L98.5977 41.918C98.6107 43.3503 98.6888 44.1706 98.832 44.3789C98.9883 44.5742 99.3268 44.7109 99.8477 44.7891C100.681 44.9062 101.221 45.0495 101.469 45.2188C101.586 45.2969 101.645 45.4141 101.645 45.5703C101.645 45.6745 101.638 45.7982 101.625 45.9414C100.141 45.8372 99.1445 45.7852 98.6367 45.7852C98.1159 45.7852 97.6471 45.7917 97.2305 45.8047L96.2539 45.8633H95.6484L93.4609 45.9414C93.4349 45.8503 93.4219 45.7721 93.4219 45.707C93.4219 45.6419 93.4479 45.5117 93.5 45.3164Z" fill="#2F2D28"/>
<path d="M125.004 38.1484C125.004 37.263 125.186 36.319 125.551 35.3164C125.928 34.3008 126.495 33.3958 127.25 32.6016C128.005 31.7943 128.806 31.1953 129.652 30.8047C130.837 30.2578 132.283 29.9844 133.988 29.9844C136.423 29.9844 138.454 30.8177 140.082 32.4844C141.723 34.151 142.543 36.1562 142.543 38.5C142.543 40.5833 141.684 42.4453 139.965 44.0859C138.259 45.7135 136.098 46.5273 133.48 46.5273C131.866 46.5273 130.342 46.1042 128.91 45.2578C127.842 44.6198 126.924 43.6758 126.156 42.4258C125.388 41.1758 125.004 39.75 125.004 38.1484ZM133.637 45.7656C134.626 45.7656 135.577 45.4987 136.488 44.9648C137.413 44.431 138.148 43.5781 138.695 42.4062C139.242 41.2214 139.516 39.8542 139.516 38.3047C139.516 37.2891 139.301 36.1107 138.871 34.7695C138.454 33.4284 137.803 32.4258 136.918 31.7617C136.046 31.0846 135.017 30.7461 133.832 30.7461C132.973 30.7461 132.094 30.9479 131.195 31.3516C130.31 31.7552 129.555 32.5299 128.93 33.6758C128.318 34.8216 128.012 36.4492 128.012 38.5586C128.012 40.9284 128.546 42.7253 129.613 43.9492C130.694 45.1602 132.035 45.7656 133.637 45.7656Z" fill="#2F2D28"/>
<path d="M144.75 45.375C145.076 45.2839 145.453 45.2057 145.883 45.1406C146.703 45.0234 147.191 44.8867 147.348 44.7305C147.517 44.5742 147.602 44.2161 147.602 43.6562L147.641 42.9531C147.654 42.6927 147.66 42.3607 147.66 41.957L147.621 35.9609C147.621 35.1536 147.517 34.6328 147.309 34.3984C146.957 34.0339 146.306 33.7799 145.355 33.6367V32.9336C146.306 32.6732 147.035 32.3346 147.543 31.918C148.285 31.332 148.91 30.5378 149.418 29.5352L150.082 29.5547C150.121 30.1667 150.141 30.6029 150.141 30.8633V32.1523L150.16 32.5039C150.316 32.3997 150.499 32.2695 150.707 32.1133C151.488 31.5273 152.289 31.0521 153.109 30.6875C153.93 30.3099 154.659 30.0495 155.297 29.9062C155.701 29.8021 156.156 29.75 156.664 29.75C157.732 29.75 158.65 30.0365 159.418 30.6094C160.186 31.1823 160.681 31.8594 160.902 32.6406C161.137 33.4089 161.254 34.9453 161.254 37.25V40.1992C161.254 40.2773 161.241 40.5378 161.215 40.9805C161.202 41.4232 161.195 41.931 161.195 42.5039C161.195 43.4154 161.234 43.9948 161.312 44.2422C161.378 44.4115 161.547 44.5807 161.82 44.75C163.07 44.9193 163.799 45.1211 164.008 45.3555V45.5117C164.008 45.6419 163.969 45.8047 163.891 46H163.52L160.941 45.9805L158.402 46.0195C157.465 46.0456 156.599 46.0391 155.805 46L155.688 45.5898C155.688 45.5117 155.733 45.4076 155.824 45.2773C156.176 45.1211 156.671 45.0169 157.309 44.9648C157.686 44.9388 157.947 44.8997 158.09 44.8477C158.233 44.7956 158.409 44.6914 158.617 44.5352C158.773 44.2227 158.852 43.9622 158.852 43.7539C158.852 43.6628 158.839 43.4805 158.812 43.207C158.773 42.6081 158.747 41.1172 158.734 38.7344V37.7188L158.773 36.1562C158.773 34.4766 158.435 33.3177 157.758 32.6797C157.081 32.0417 156.176 31.7227 155.043 31.7227C154.171 31.7227 153.318 31.918 152.484 32.3086C151.651 32.6862 150.844 33.2591 150.062 34.0273C150.036 34.6523 150.023 35.1862 150.023 35.6289L150.082 39.9453C150.082 42.1979 150.115 43.5781 150.18 44.0859C150.206 44.2943 150.251 44.4375 150.316 44.5156C150.421 44.6198 150.629 44.7044 150.941 44.7695C151.254 44.8346 151.612 44.9258 152.016 45.043C152.432 45.1602 152.706 45.2318 152.836 45.2578C153.096 45.3229 153.272 45.4531 153.363 45.6484L153.344 46.0391H151.293L147.074 45.9805C146.098 46.0065 145.479 46.0195 145.219 46.0195H144.73L144.691 45.7656C144.691 45.6745 144.711 45.5443 144.75 45.375Z" fill="#2F2D28"/>
<path d="M178.695 31.8203L178.715 31.2539L178.695 28.9688L178.715 24.6523C178.715 23.4544 178.585 22.6927 178.324 22.3672C178.064 22.0417 177.302 21.7096 176.039 21.3711C175.948 21.3451 175.805 21.306 175.609 21.2539V21.0391C175.609 20.9089 175.622 20.7656 175.648 20.6094C177.419 20.4271 178.943 20.1211 180.219 19.6914L181.215 19.6719C181.267 20.5573 181.293 21.5469 181.293 22.6406L181.215 30.1602L181.352 38.6367L181.293 43.1484C181.293 44.0729 181.358 44.5938 181.488 44.7109C181.749 44.9714 182.322 45.1081 183.207 45.1211C183.389 45.1211 183.637 45.1341 183.949 45.1602V45.5117C183.949 45.6029 183.943 45.7005 183.93 45.8047C183.526 45.8958 183.109 45.9805 182.68 46.0586L179.848 46.6055C179.431 46.6836 179.099 46.7227 178.852 46.7227V44.8477C178.63 44.9128 178.285 45.043 177.816 45.2383C175.785 46.0977 173.917 46.5273 172.211 46.5273C171.182 46.5273 170.134 46.1953 169.066 45.5312C167.999 44.8542 167.178 43.9167 166.605 42.7188C166.033 41.5208 165.746 40.2969 165.746 39.0469C165.746 37.9271 165.935 36.8594 166.312 35.8438C166.69 34.8151 167.185 33.9622 167.797 33.2852C168.188 32.8424 168.741 32.4062 169.457 31.9766C170.173 31.5339 170.766 31.2539 171.234 31.1367C172.393 30.8372 173.168 30.6875 173.559 30.6875C175.316 30.6875 176.762 30.9479 177.895 31.4688C178.246 31.638 178.513 31.7552 178.695 31.8203ZM178.715 43.8906C178.767 43.0182 178.793 41.2214 178.793 38.5C178.793 36.1953 178.682 34.7435 178.461 34.1445C178.253 33.5326 177.719 32.9596 176.859 32.4258C176 31.8789 175.036 31.6055 173.969 31.6055C172.471 31.6055 171.202 32.1849 170.16 33.3438C169.118 34.5026 168.598 36.2148 168.598 38.4805C168.598 40.4727 169.158 42.0612 170.277 43.2461C171.41 44.431 172.816 45.0234 174.496 45.0234C175.46 45.0234 176.339 44.8932 177.133 44.6328C177.927 44.3724 178.454 44.125 178.715 43.8906Z" fill="#2F2D28"/>
<path d="M17.1523 63.4023C20.4336 63.5065 22.5234 63.5586 23.4219 63.5586C24.6458 63.5586 26.0195 63.526 27.543 63.4609C29.1576 63.4089 30.1536 63.3828 30.5312 63.3828C32.3542 63.3828 33.8581 63.5716 35.043 63.9492C36.2409 64.3268 37.2305 65.0169 38.0117 66.0195C38.793 67.0221 39.1836 68.2331 39.1836 69.6523C39.1836 70.8242 38.9102 71.957 38.3633 73.0508C37.8164 74.1445 37.0547 75.0755 36.0781 75.8438C35.1016 76.612 34.112 77.1654 33.1094 77.5039C32.1068 77.8294 31.0651 77.9922 29.9844 77.9922C29.1771 77.9922 28.2786 77.901 27.2891 77.7188L26.957 76.5273L27.1328 76.332C28.1094 76.5534 28.9036 76.6641 29.5156 76.6641C31.2214 76.6641 32.5885 76.1042 33.6172 74.9844C34.6589 73.8516 35.1797 72.4062 35.1797 70.6484C35.1797 68.8776 34.6393 67.4648 33.5586 66.4102C32.4909 65.3555 30.8698 64.8281 28.6953 64.8281C27.5104 64.8281 26.2083 65.0495 24.7891 65.4922C24.6719 66.4948 24.6133 68.9167 24.6133 72.7578V81.8008L24.6328 85.6094C24.6458 87.0807 24.6849 88.0312 24.75 88.4609C24.8151 88.8906 24.9062 89.1771 25.0234 89.3203C25.1536 89.4635 25.3945 89.5872 25.7461 89.6914C26.0977 89.7826 26.9635 89.8542 28.3438 89.9062L28.5 90.0234V91L28.3438 91.1562C25.0234 91.0521 23.1549 91 22.7383 91C22.2956 91 20.4336 91.0521 17.1523 91.1562L16.9961 91V90.0234L17.1523 89.9062C18.3633 89.8542 19.1706 89.7891 19.5742 89.7109C19.9779 89.6328 20.2448 89.5352 20.375 89.418C20.5182 89.2878 20.6289 89.0208 20.707 88.6172C20.7982 88.2135 20.8503 87.3151 20.8633 85.9219L20.8828 81.8008V72.7578L20.8438 68.9492C20.8307 67.4648 20.7917 66.5078 20.7266 66.0781C20.6745 65.6484 20.5833 65.362 20.4531 65.2188C20.3359 65.0755 20.1016 64.9583 19.75 64.8672C19.3984 64.776 18.5326 64.7044 17.1523 64.6523L16.9961 64.5156V63.5391L17.1523 63.4023Z" fill="#2F2D28"/>
<path d="M43.0312 77.7578L42.2695 77.5625L42.1133 77.3672V74.9453C44.431 73.2266 46.6836 72.3672 48.8711 72.3672C50.3685 72.3672 51.612 72.6471 52.6016 73.207C53.5911 73.7669 54.3073 74.4701 54.75 75.3164C55.1927 76.1497 55.4141 77.1263 55.4141 78.2461L55.3164 82.1719V87.9922C55.3164 88.7865 55.3685 89.2682 55.4727 89.4375C55.5898 89.6068 55.7201 89.724 55.8633 89.7891C56.0065 89.8411 56.2734 89.8867 56.6641 89.9258L57.7773 90.0234L57.9336 90.1992V90.9805L57.7773 91.1367C56.8268 91.0586 55.9414 91.0195 55.1211 91.0195C54.3398 91.0195 53.4023 91.0586 52.3086 91.1367L52.0156 90.8633L52.0938 87.7188L47.8359 91.0391C47.1198 91.3385 46.3385 91.4883 45.4922 91.4883C44.4505 91.4883 43.5521 91.2995 42.7969 90.9219C42.0547 90.5443 41.4818 90.0169 41.0781 89.3398C40.6875 88.6628 40.4922 87.8424 40.4922 86.8789C40.4922 84.9648 41.0911 83.474 42.2891 82.4062C43.487 81.3255 46.7552 80.4076 52.0938 79.6523C52.0938 77.7253 51.6641 76.3711 50.8047 75.5898C49.9453 74.7956 48.793 74.3984 47.3477 74.3984C46.5924 74.3984 45.9023 74.5091 45.2773 74.7305C44.6654 74.9518 44.3138 75.1341 44.2227 75.2773C44.1315 75.4076 43.7799 76.2018 43.168 77.6602L43.0312 77.7578ZM52.0938 80.8438C48.4479 81.4557 46.1758 82.1133 45.2773 82.8164C44.3789 83.5195 43.9297 84.6068 43.9297 86.0781C43.9297 88.1094 44.9388 89.125 46.957 89.125C48.6888 89.125 50.401 88.1224 52.0938 86.1172V80.8438Z" fill="#2F2D28"/>
<path d="M66.1953 62.0742L66.5664 62.3086C66.4232 63.806 66.3516 66.8073 66.3516 71.3125V83.5586C66.3516 83.8451 66.3776 84.7695 66.4297 86.332C66.4818 87.8815 66.5339 88.7865 66.5859 89.0469C66.651 89.3073 66.7422 89.4961 66.8594 89.6133C66.9766 89.7305 67.1198 89.8086 67.2891 89.8477C67.4583 89.8737 68.1615 89.9258 69.3984 90.0039L69.5742 90.1602V90.9805L69.418 91.1562C67.7904 91.0521 66.2214 91 64.7109 91C63.2135 91 61.651 91.0521 60.0234 91.1562L59.8477 90.9805V90.1602L60.0234 90.0039C61.2865 89.9258 61.9961 89.8672 62.1523 89.8281C62.3216 89.7891 62.4648 89.7109 62.582 89.5938C62.7122 89.4635 62.7969 89.2747 62.8359 89.0273C62.888 88.7669 62.9401 87.9271 62.9922 86.5078C63.0573 85.0755 63.0898 83.9948 63.0898 83.2656V73.1484L63.0117 69.0078C62.9727 67.5625 62.9271 66.5599 62.875 66C62.8359 65.4401 62.7773 65.1081 62.6992 65.0039C62.6211 64.8997 62.4844 64.8216 62.2891 64.7695C62.0938 64.7174 61.306 64.6914 59.9258 64.6914L59.75 64.5156V63.6953L59.9062 63.5195C62.3932 63.2331 64.4896 62.7513 66.1953 62.0742Z" fill="#2F2D28"/>
<path d="M74.6719 77.7578L73.9102 77.5625L73.7539 77.3672V74.9453C76.0716 73.2266 78.3242 72.3672 80.5117 72.3672C82.0091 72.3672 83.2526 72.6471 84.2422 73.207C85.2318 73.7669 85.9479 74.4701 86.3906 75.3164C86.8333 76.1497 87.0547 77.1263 87.0547 78.2461L86.957 82.1719V87.9922C86.957 88.7865 87.0091 89.2682 87.1133 89.4375C87.2305 89.6068 87.3607 89.724 87.5039 89.7891C87.6471 89.8411 87.9141 89.8867 88.3047 89.9258L89.418 90.0234L89.5742 90.1992V90.9805L89.418 91.1367C88.4674 91.0586 87.582 91.0195 86.7617 91.0195C85.9805 91.0195 85.043 91.0586 83.9492 91.1367L83.6562 90.8633L83.7344 87.7188L79.4766 91.0391C78.7604 91.3385 77.9792 91.4883 77.1328 91.4883C76.0911 91.4883 75.1927 91.2995 74.4375 90.9219C73.6953 90.5443 73.1224 90.0169 72.7188 89.3398C72.3281 88.6628 72.1328 87.8424 72.1328 86.8789C72.1328 84.9648 72.7318 83.474 73.9297 82.4062C75.1276 81.3255 78.3958 80.4076 83.7344 79.6523C83.7344 77.7253 83.3047 76.3711 82.4453 75.5898C81.5859 74.7956 80.4336 74.3984 78.9883 74.3984C78.2331 74.3984 77.543 74.5091 76.918 74.7305C76.306 74.9518 75.9544 75.1341 75.8633 75.2773C75.7721 75.4076 75.4206 76.2018 74.8086 77.6602L74.6719 77.7578ZM83.7344 80.8438C80.0885 81.4557 77.8164 82.1133 76.918 82.8164C76.0195 83.5195 75.5703 84.6068 75.5703 86.0781C75.5703 88.1094 76.5794 89.125 78.5977 89.125C80.3294 89.125 82.0417 88.1224 83.7344 86.1172V80.8438Z" fill="#2F2D28"/>
<path d="M91.4297 75.668V75.1602L91.5664 74.9648C92.7904 74.5091 93.7799 74.0859 94.5352 73.6953C94.5352 70.2969 94.4961 68.3177 94.418 67.7578C95.7591 67.2891 96.8594 66.7878 97.7188 66.2539L98.1875 66.6445C98.0573 67.4648 97.901 69.8477 97.7188 73.793C98.3698 73.806 99.0729 73.8125 99.8281 73.8125C101.365 73.8125 102.465 73.7734 103.129 73.6953L103.266 73.832L102.895 75.4727L102.738 75.6484C102.074 75.6354 101.339 75.6289 100.531 75.6289C99.8021 75.6289 98.8646 75.6354 97.7188 75.6484L97.6016 83.5977C97.6016 85.4336 97.6406 86.638 97.7188 87.2109C97.8099 87.7708 98.0443 88.2135 98.4219 88.5391C98.8125 88.8516 99.3854 89.0078 100.141 89.0078C101.013 89.0078 101.82 88.7799 102.562 88.3242L103.031 89.0273C102.719 89.2487 101.97 89.8997 100.785 90.9805C100.108 91.293 99.418 91.4492 98.7148 91.4492C95.7852 91.4492 94.3203 90.0299 94.3203 87.1914C94.3203 86.1497 94.3464 85.2643 94.3984 84.5352C94.4115 84.3138 94.418 84.0859 94.418 83.8516V75.7461H93.6172C93.0312 75.7461 92.3607 75.7721 91.6055 75.8242L91.4297 75.668Z" fill="#2F2D28"/>
<path d="M109.203 63.6562C109.815 63.6562 110.336 63.8711 110.766 64.3008C111.195 64.7305 111.41 65.2513 111.41 65.8633C111.41 66.4622 111.195 66.9766 110.766 67.4062C110.336 67.8359 109.815 68.0508 109.203 68.0508C108.604 68.0508 108.083 67.8424 107.641 67.4258C107.211 66.9961 106.996 66.4753 106.996 65.8633C106.996 65.2513 107.211 64.7305 107.641 64.3008C108.083 63.8711 108.604 63.6562 109.203 63.6562ZM110.863 72.3867L111.234 72.6406C111.091 74.3464 111.02 76.5143 111.02 79.1445V83.5586C111.02 83.8451 111.046 84.7695 111.098 86.332C111.15 87.8815 111.202 88.7865 111.254 89.0469C111.319 89.3073 111.41 89.4961 111.527 89.6133C111.645 89.7305 111.788 89.8086 111.957 89.8477C112.126 89.8737 112.829 89.9258 114.066 90.0039L114.242 90.1602V90.9805L114.086 91.1562C112.458 91.0521 110.889 91 109.379 91C107.882 91 106.319 91.0521 104.691 91.1562L104.516 90.9805V90.1602L104.691 90.0039C105.954 89.9258 106.664 89.8672 106.82 89.8281C106.99 89.7891 107.133 89.7109 107.25 89.5938C107.38 89.4635 107.465 89.2747 107.504 89.0273C107.556 88.7669 107.608 87.9271 107.66 86.5078C107.725 85.0755 107.758 83.9948 107.758 83.2656V79.418C107.758 78.8971 107.732 78.1875 107.68 77.2891C107.628 76.3906 107.582 75.8372 107.543 75.6289C107.517 75.4206 107.419 75.2708 107.25 75.1797C107.081 75.0755 106.742 75.0234 106.234 75.0234L104.594 75.0039L104.418 74.8477V74.0078L104.574 73.8516C107.061 73.5521 109.158 73.0638 110.863 72.3867Z" fill="#2F2D28"/>
<path d="M121.898 72.3867L122.27 72.6406C122.191 73.513 122.139 74.6589 122.113 76.0781C123.155 75.2188 124.145 74.3464 125.082 73.4609C125.355 73.2135 125.609 73.0312 125.844 72.9141C126.091 72.7969 126.495 72.6732 127.055 72.543C127.615 72.4128 128.188 72.3477 128.773 72.3477C129.763 72.3477 130.72 72.5495 131.645 72.9531C132.582 73.3568 133.285 73.8385 133.754 74.3984C134.236 74.9453 134.568 75.5964 134.75 76.3516C134.932 77.1068 135.023 78.0378 135.023 79.1445V82.582C135.023 82.8034 135.056 84.4245 135.121 87.4453C135.147 88.6823 135.284 89.418 135.531 89.6523C135.779 89.8867 136.586 90.0039 137.953 90.0039L138.109 90.1602V91L137.953 91.1562C136.299 91.0521 135.18 91 134.594 91C134.255 91 133.305 91.0521 131.742 91.1562L131.508 90.9414C131.677 89.2487 131.762 87.0417 131.762 84.3203V81.7617C131.762 80.2253 131.723 79.1185 131.645 78.4414C131.579 77.7643 131.365 77.1523 131 76.6055C130.635 76.0456 130.147 75.6159 129.535 75.3164C128.923 75.0039 128.194 74.8477 127.348 74.8477C126.671 74.8477 126.091 74.9193 125.609 75.0625C125.128 75.1927 124.587 75.4727 123.988 75.9023C123.389 76.319 122.947 76.7161 122.66 77.0938C122.374 77.4583 122.198 77.8034 122.133 78.1289C122.081 78.4414 122.055 79.1185 122.055 80.1602V83.5586C122.055 83.8451 122.081 84.7695 122.133 86.332C122.185 87.8815 122.237 88.7865 122.289 89.0469C122.354 89.3073 122.445 89.4961 122.562 89.6133C122.68 89.7305 122.823 89.8086 122.992 89.8477C123.161 89.8737 123.865 89.9258 125.102 90.0039L125.277 90.1602V90.9805L125.121 91.1562C123.493 91.0521 121.924 91 120.414 91C118.917 91 117.354 91.0521 115.727 91.1562L115.551 90.9805V90.1602L115.727 90.0039C116.99 89.9258 117.699 89.8672 117.855 89.8281C118.025 89.7891 118.168 89.7109 118.285 89.5938C118.415 89.4635 118.5 89.2747 118.539 89.0273C118.591 88.7669 118.643 87.9271 118.695 86.5078C118.76 85.0755 118.793 83.9948 118.793 83.2656V79.418C118.793 78.8971 118.767 78.1875 118.715 77.2891C118.663 76.3906 118.617 75.8372 118.578 75.6289C118.552 75.4206 118.454 75.2708 118.285 75.1797C118.116 75.0755 117.777 75.0234 117.27 75.0234L115.629 75.0039L115.453 74.8477V74.0078L115.609 73.8516C118.096 73.5521 120.193 73.0638 121.898 72.3867Z" fill="#2F2D28"/>
<path d="M139.828 82.0547C139.828 80.5052 140.147 79.0143 140.785 77.582C141.423 76.1367 142.53 74.8932 144.105 73.8516C145.694 72.7969 147.576 72.2695 149.75 72.2695C152.484 72.2695 154.711 73.1354 156.43 74.8672C158.148 76.5859 159.008 78.7995 159.008 81.5078C159.008 84.4896 158.018 86.944 156.039 88.8711C154.073 90.7982 151.697 91.7617 148.91 91.7617C147.087 91.7617 145.46 91.2734 144.027 90.2969C142.595 89.3073 141.534 88.1029 140.844 86.6836C140.167 85.2643 139.828 83.7214 139.828 82.0547ZM143.52 80.707C143.52 82.5299 143.754 84.1641 144.223 85.6094C144.691 87.0417 145.434 88.194 146.449 89.0664C147.465 89.9388 148.624 90.375 149.926 90.375C151.462 90.375 152.732 89.7695 153.734 88.5586C154.737 87.3346 155.238 85.4987 155.238 83.0508C155.238 80.2773 154.691 78.0052 153.598 76.2344C152.517 74.4635 150.954 73.5781 148.91 73.5781C147.217 73.5781 145.896 74.1901 144.945 75.4141C143.995 76.638 143.52 78.4023 143.52 80.707Z" fill="#2F2D28"/>
<path d="M171.059 63.5391L171.215 63.4023C174.444 63.5065 176.306 63.5586 176.801 63.5586C177.243 63.5586 179.112 63.5065 182.406 63.4023L182.562 63.5391V64.5156L182.406 64.6523C181.508 64.6784 180.811 64.7174 180.316 64.7695C179.835 64.8216 179.483 64.9193 179.262 65.0625C179.04 65.2057 178.891 65.5443 178.812 66.0781C178.747 66.599 178.715 67.3281 178.715 68.2656L178.676 72.7578V81.3906C178.676 83.5521 178.689 85.0625 178.715 85.9219L178.812 89.3008H182.797C185.974 89.3008 187.953 89.2617 188.734 89.1836C189.529 89.1055 190.29 88.9167 191.02 88.6172C191.163 88.2917 191.365 87.543 191.625 86.3711C191.898 85.1992 192.042 84.5221 192.055 84.3398L192.23 84.1836H193.188L193.324 84.3398C193.22 84.8607 193.109 85.8698 192.992 87.3672C192.888 88.8646 192.836 90.0755 192.836 91L192.68 91.1562C190.206 91.0781 186.957 91.0391 182.934 91.0391L177.23 91C175.928 91 174.6 91.0521 173.246 91.1562L173.09 91V90.3555L173.246 90.1602C174.053 89.7435 174.496 89.4896 174.574 89.3984C174.652 89.3073 174.73 88.4674 174.809 86.8789C174.9 85.2904 174.945 83.3763 174.945 81.1367V72.7578L174.906 68.9492C174.893 67.4648 174.854 66.5078 174.789 66.0781C174.737 65.6484 174.646 65.362 174.516 65.2188C174.398 65.0755 174.164 64.9583 173.812 64.8672C173.461 64.776 172.595 64.7044 171.215 64.6523L171.059 64.5156V63.5391Z" fill="#2F2D28"/>
<path d="M200.414 63.6562C201.026 63.6562 201.547 63.8711 201.977 64.3008C202.406 64.7305 202.621 65.2513 202.621 65.8633C202.621 66.4622 202.406 66.9766 201.977 67.4062C201.547 67.8359 201.026 68.0508 200.414 68.0508C199.815 68.0508 199.294 67.8424 198.852 67.4258C198.422 66.9961 198.207 66.4753 198.207 65.8633C198.207 65.2513 198.422 64.7305 198.852 64.3008C199.294 63.8711 199.815 63.6562 200.414 63.6562ZM202.074 72.3867L202.445 72.6406C202.302 74.3464 202.23 76.5143 202.23 79.1445V83.5586C202.23 83.8451 202.257 84.7695 202.309 86.332C202.361 87.8815 202.413 88.7865 202.465 89.0469C202.53 89.3073 202.621 89.4961 202.738 89.6133C202.855 89.7305 202.999 89.8086 203.168 89.8477C203.337 89.8737 204.04 89.9258 205.277 90.0039L205.453 90.1602V90.9805L205.297 91.1562C203.669 91.0521 202.1 91 200.59 91C199.092 91 197.53 91.0521 195.902 91.1562L195.727 90.9805V90.1602L195.902 90.0039C197.165 89.9258 197.875 89.8672 198.031 89.8281C198.201 89.7891 198.344 89.7109 198.461 89.5938C198.591 89.4635 198.676 89.2747 198.715 89.0273C198.767 88.7669 198.819 87.9271 198.871 86.5078C198.936 85.0755 198.969 83.9948 198.969 83.2656V79.418C198.969 78.8971 198.943 78.1875 198.891 77.2891C198.839 76.3906 198.793 75.8372 198.754 75.6289C198.728 75.4206 198.63 75.2708 198.461 75.1797C198.292 75.0755 197.953 75.0234 197.445 75.0234L195.805 75.0039L195.629 74.8477V74.0078L195.785 73.8516C198.272 73.5521 200.368 73.0638 202.074 72.3867Z" fill="#2F2D28"/>
<path d="M213.109 72.3867L213.48 72.6406C213.402 73.513 213.35 74.6589 213.324 76.0781C214.366 75.2188 215.355 74.3464 216.293 73.4609C216.566 73.2135 216.82 73.0312 217.055 72.9141C217.302 72.7969 217.706 72.6732 218.266 72.543C218.826 72.4128 219.398 72.3477 219.984 72.3477C220.974 72.3477 221.931 72.5495 222.855 72.9531C223.793 73.3568 224.496 73.8385 224.965 74.3984C225.447 74.9453 225.779 75.5964 225.961 76.3516C226.143 77.1068 226.234 78.0378 226.234 79.1445V82.582C226.234 82.8034 226.267 84.4245 226.332 87.4453C226.358 88.6823 226.495 89.418 226.742 89.6523C226.99 89.8867 227.797 90.0039 229.164 90.0039L229.32 90.1602V91L229.164 91.1562C227.51 91.0521 226.391 91 225.805 91C225.466 91 224.516 91.0521 222.953 91.1562L222.719 90.9414C222.888 89.2487 222.973 87.0417 222.973 84.3203V81.7617C222.973 80.2253 222.934 79.1185 222.855 78.4414C222.79 77.7643 222.576 77.1523 222.211 76.6055C221.846 76.0456 221.358 75.6159 220.746 75.3164C220.134 75.0039 219.405 74.8477 218.559 74.8477C217.882 74.8477 217.302 74.9193 216.82 75.0625C216.339 75.1927 215.798 75.4727 215.199 75.9023C214.6 76.319 214.158 76.7161 213.871 77.0938C213.585 77.4583 213.409 77.8034 213.344 78.1289C213.292 78.4414 213.266 79.1185 213.266 80.1602V83.5586C213.266 83.8451 213.292 84.7695 213.344 86.332C213.396 87.8815 213.448 88.7865 213.5 89.0469C213.565 89.3073 213.656 89.4961 213.773 89.6133C213.891 89.7305 214.034 89.8086 214.203 89.8477C214.372 89.8737 215.076 89.9258 216.312 90.0039L216.488 90.1602V90.9805L216.332 91.1562C214.704 91.0521 213.135 91 211.625 91C210.128 91 208.565 91.0521 206.938 91.1562L206.762 90.9805V90.1602L206.938 90.0039C208.201 89.9258 208.91 89.8672 209.066 89.8281C209.236 89.7891 209.379 89.7109 209.496 89.5938C209.626 89.4635 209.711 89.2747 209.75 89.0273C209.802 88.7669 209.854 87.9271 209.906 86.5078C209.971 85.0755 210.004 83.9948 210.004 83.2656V79.418C210.004 78.8971 209.978 78.1875 209.926 77.2891C209.874 76.3906 209.828 75.8372 209.789 75.6289C209.763 75.4206 209.665 75.2708 209.496 75.1797C209.327 75.0755 208.988 75.0234 208.48 75.0234L206.84 75.0039L206.664 74.8477V74.0078L206.82 73.8516C209.307 73.5521 211.404 73.0638 213.109 72.3867Z" fill="#2F2D28"/>
<path d="M231.039 82.0547C231.039 80.5052 231.358 79.0143 231.996 77.582C232.634 76.1367 233.741 74.8932 235.316 73.8516C236.905 72.7969 238.786 72.2695 240.961 72.2695C243.695 72.2695 245.922 73.1354 247.641 74.8672C249.359 76.5859 250.219 78.7995 250.219 81.5078C250.219 84.4896 249.229 86.944 247.25 88.8711C245.284 90.7982 242.908 91.7617 240.121 91.7617C238.298 91.7617 236.671 91.2734 235.238 90.2969C233.806 89.3073 232.745 88.1029 232.055 86.6836C231.378 85.2643 231.039 83.7214 231.039 82.0547ZM234.73 80.707C234.73 82.5299 234.965 84.1641 235.434 85.6094C235.902 87.0417 236.645 88.194 237.66 89.0664C238.676 89.9388 239.835 90.375 241.137 90.375C242.673 90.375 243.943 89.7695 244.945 88.5586C245.948 87.3346 246.449 85.4987 246.449 83.0508C246.449 80.2773 245.902 78.0052 244.809 76.2344C243.728 74.4635 242.165 73.5781 240.121 73.5781C238.428 73.5781 237.107 74.1901 236.156 75.4141C235.206 76.638 234.73 78.4023 234.73 80.707Z" fill="#2F2D28"/>
<path d="M252.445 75.668V75.1602L252.582 74.9648C253.806 74.5091 254.796 74.0859 255.551 73.6953C255.551 70.2969 255.512 68.3177 255.434 67.7578C256.775 67.2891 257.875 66.7878 258.734 66.2539L259.203 66.6445C259.073 67.4648 258.917 69.8477 258.734 73.793C259.385 73.806 260.089 73.8125 260.844 73.8125C262.38 73.8125 263.48 73.7734 264.145 73.6953L264.281 73.832L263.91 75.4727L263.754 75.6484C263.09 75.6354 262.354 75.6289 261.547 75.6289C260.818 75.6289 259.88 75.6354 258.734 75.6484L258.617 83.5977C258.617 85.4336 258.656 86.638 258.734 87.2109C258.826 87.7708 259.06 88.2135 259.438 88.5391C259.828 88.8516 260.401 89.0078 261.156 89.0078C262.029 89.0078 262.836 88.7799 263.578 88.3242L264.047 89.0273C263.734 89.2487 262.986 89.8997 261.801 90.9805C261.124 91.293 260.434 91.4492 259.73 91.4492C256.801 91.4492 255.336 90.0299 255.336 87.1914C255.336 86.1497 255.362 85.2643 255.414 84.5352C255.427 84.3138 255.434 84.0859 255.434 83.8516V75.7461H254.633C254.047 75.7461 253.376 75.7721 252.621 75.8242L252.445 75.668Z" fill="#2F2D28"/>
<path d="M265.473 101.605C265.915 100.512 266.247 99.5091 266.469 98.5977H266.938C267.576 99.2878 268.266 99.6328 269.008 99.6328C269.932 99.6328 270.733 99.1706 271.41 98.2461C272.1 97.3346 273.07 95.3099 274.32 92.1719C273.826 90.7786 273.324 89.4635 272.816 88.2266L269.711 80.5312C269.385 79.737 268.904 78.6042 268.266 77.1328C267.628 75.6484 267.243 74.8346 267.113 74.6914C266.996 74.5352 266.84 74.3919 266.645 74.2617C266.449 74.1315 265.922 74.0078 265.062 73.8906L264.906 73.7344V72.9531L265.082 72.7969C266.579 72.888 268.116 72.9336 269.691 72.9336C271.54 72.9336 272.966 72.888 273.969 72.7969L274.125 72.9531V73.7344L273.988 73.8906C273.845 73.9036 273.441 73.9362 272.777 73.9883C272.126 74.0273 271.716 74.1315 271.547 74.3008C271.391 74.457 271.312 74.6393 271.312 74.8477C271.312 75.069 271.514 75.7917 271.918 77.0156C272.322 78.2266 272.712 79.3008 273.09 80.2383L274.32 83.2852C275.128 85.2904 275.753 86.7682 276.195 87.7188L277.23 85.4336C277.595 84.6003 278.116 83.3372 278.793 81.6445L280.414 77.5039C280.831 76.4362 281.065 75.7721 281.117 75.5117C281.182 75.2513 281.215 75.0625 281.215 74.9453C281.215 74.6589 281.111 74.4635 280.902 74.3594C280.694 74.2552 280.232 74.1641 279.516 74.0859L278.695 73.9688L278.559 73.8125V72.9531L278.715 72.7969C279.809 72.888 281.104 72.9336 282.602 72.9336C283.969 72.9336 285.062 72.888 285.883 72.7969L286.039 72.9531V73.8125L285.883 73.9688C285.401 73.9818 285.017 74.0469 284.73 74.1641C284.444 74.2812 284.171 74.4896 283.91 74.7891C283.65 75.0885 283.181 75.9349 282.504 77.3281C281.827 78.7083 281.15 80.1406 280.473 81.625L278.559 85.8242L274.047 96.3711C273.656 97.2826 273.168 98.2591 272.582 99.3008C272.009 100.342 271.299 101.091 270.453 101.547C269.62 102.016 268.734 102.25 267.797 102.25C266.977 102.25 266.202 102.035 265.473 101.605Z" fill="#2F2D28"/>
<path d="M294.086 72.1523L294.457 72.3867C294.327 73.8711 294.255 75.1862 294.242 76.332C296.013 74.7174 297.243 73.6497 297.934 73.1289C298.637 72.6081 299.841 72.3477 301.547 72.3477C302.615 72.3477 303.585 72.4974 304.457 72.7969C305.329 73.0833 306.137 73.5651 306.879 74.2422C307.621 74.9062 308.207 75.7461 308.637 76.7617C309.066 77.7643 309.281 78.9297 309.281 80.2578C309.281 81.1953 309.132 82.1458 308.832 83.1094C308.533 84.0729 308.135 84.9648 307.641 85.7852C307.159 86.6055 306.768 87.1523 306.469 87.4258C306.182 87.6862 305.583 88.0833 304.672 88.6172C303.852 89.112 303.038 89.6458 302.23 90.2188C301.671 90.6224 301.28 90.8828 301.059 91C300.837 91.1172 300.466 91.2344 299.945 91.3516C299.424 91.4688 298.871 91.5273 298.285 91.5273C296.931 91.5273 295.583 91.1823 294.242 90.4922V94.6523C294.242 94.9388 294.268 95.8568 294.32 97.4062C294.372 98.9688 294.424 99.8802 294.477 100.141C294.542 100.401 294.633 100.59 294.75 100.707C294.867 100.824 295.01 100.896 295.18 100.922C295.349 100.961 296.052 101.02 297.289 101.098L297.465 101.254V102.074L297.309 102.25C295.681 102.146 294.118 102.094 292.621 102.094C291.124 102.094 289.561 102.146 287.934 102.25L287.758 102.074V101.254L287.934 101.098C289.184 101.02 289.893 100.961 290.062 100.922C290.232 100.883 290.375 100.798 290.492 100.668C290.622 100.551 290.707 100.355 290.746 100.082C290.798 99.8086 290.85 98.9362 290.902 97.4648C290.967 95.9935 291 94.8867 291 94.1445V79.1836C291 78.5065 290.967 77.7253 290.902 76.8398C290.85 75.9414 290.805 75.4206 290.766 75.2773C290.727 75.1341 290.629 75.0169 290.473 74.9258C290.329 74.8346 289.997 74.7891 289.477 74.7891L287.836 74.7695L287.66 74.6133V73.7734L287.816 73.6172C290.303 73.3177 292.393 72.8294 294.086 72.1523ZM294.242 87.1328C294.841 87.7448 295.583 88.2786 296.469 88.7344C297.354 89.1771 298.331 89.3984 299.398 89.3984C300.661 89.3984 301.775 89.0794 302.738 88.4414C303.715 87.8034 304.47 86.8724 305.004 85.6484C305.538 84.4115 305.805 83.0443 305.805 81.5469C305.805 80.3359 305.564 79.2096 305.082 78.168C304.613 77.1263 303.878 76.306 302.875 75.707C301.885 75.1081 300.831 74.8086 299.711 74.8086C299.021 74.8086 298.35 74.9323 297.699 75.1797C297.048 75.4141 296.436 75.7656 295.863 76.2344C295.303 76.7031 294.9 77.1523 294.652 77.582C294.405 77.9987 294.275 78.3503 294.262 78.6367C294.249 78.9102 294.242 79.2161 294.242 79.5547V87.1328Z" fill="#2F2D28"/>
<path d="M328.188 88.1289L327.562 89.5352C326.208 90.4076 324.997 90.974 323.93 91.2344C322.875 91.4948 321.931 91.625 321.098 91.625C319.535 91.625 318.051 91.319 316.645 90.707C315.251 90.0951 314.112 89.0599 313.227 87.6016C312.354 86.1432 311.918 84.3854 311.918 82.3281C311.918 80.9609 312.087 79.7305 312.426 78.6367C312.764 77.5299 313.116 76.7096 313.48 76.1758C313.858 75.6419 314.49 75.0495 315.375 74.3984C316.26 73.7474 317.198 73.2266 318.188 72.8359C319.177 72.4453 320.245 72.25 321.391 72.25C322.953 72.25 324.327 72.6211 325.512 73.3633C326.71 74.0924 327.549 75.0299 328.031 76.1758C328.513 77.3216 328.754 78.5391 328.754 79.8281C328.754 80.2318 328.734 80.6224 328.695 81L328.48 81.2148C327.595 81.4102 326.404 81.5404 324.906 81.6055C323.409 81.6706 322.419 81.7031 321.938 81.7031H315.668C315.694 84.3984 316.371 86.3841 317.699 87.6602C319.027 88.9362 320.655 89.5742 322.582 89.5742C323.493 89.5742 324.366 89.418 325.199 89.1055C326.046 88.793 326.938 88.3568 327.875 87.7969L328.188 88.1289ZM315.668 80.1406C315.902 80.1797 316.801 80.2253 318.363 80.2773C319.939 80.3294 321.104 80.3555 321.859 80.3555C323.669 80.3555 324.77 80.3229 325.16 80.2578C325.173 79.9453 325.18 79.7044 325.18 79.5352C325.18 77.5169 324.77 76.0195 323.949 75.043C323.129 74.0534 322.009 73.5586 320.59 73.5586C319.04 73.5586 317.829 74.112 316.957 75.2188C316.098 76.3255 315.668 77.9661 315.668 80.1406Z" fill="#2F2D28"/>
<path d="M39.7109 132.457V128.062C39.7109 127.268 39.5352 126.728 39.1836 126.441C38.8451 126.155 38.1549 125.973 37.1133 125.895C36.6055 125.842 36.3451 125.673 36.332 125.387C36.319 125.139 36.5404 125.016 36.9961 125.016L37.7773 125.035L39.2422 125.055C41.2474 125.055 42.4128 125.042 42.7383 125.016C43.6367 124.951 44.1576 124.918 44.3008 124.918C44.6003 124.918 44.75 125.042 44.75 125.289C44.75 125.51 44.5547 125.673 44.1641 125.777C43.1745 126.012 42.6797 126.728 42.6797 127.926L42.6992 128.551V134.801L42.7383 135.426L42.6211 135.719C42.543 135.784 42.3542 135.836 42.0547 135.875C41.7031 135.927 41.1628 136.161 40.4336 136.578L39.1445 137.34C36.6055 138.811 33.8776 139.547 30.9609 139.547C27.0547 139.547 23.8516 138.297 21.3516 135.797C18.8516 133.284 17.6016 130.074 17.6016 126.168C17.6016 122.066 18.9232 118.648 21.5664 115.914C24.2227 113.18 27.543 111.812 31.5273 111.812C33.0638 111.812 34.6914 112.034 36.4102 112.477C38.1419 112.919 39.5221 113.473 40.5508 114.137C40.707 114.241 40.8177 114.293 40.8828 114.293C40.974 114.293 41.0977 114.241 41.2539 114.137L41.7227 113.785C41.8138 113.707 41.9049 113.668 41.9961 113.668C42.2305 113.668 42.3477 113.974 42.3477 114.586C42.3477 114.872 42.3867 115.315 42.4648 115.914L42.6602 117.75C42.7253 118.245 42.8164 118.74 42.9336 119.234C42.9987 119.469 43.0312 119.658 43.0312 119.801C43.0312 120.113 42.901 120.276 42.6406 120.289C42.4714 120.302 42.3281 120.191 42.2109 119.957C41.1953 117.874 39.6328 116.181 37.5234 114.879C35.4141 113.577 33.181 112.926 30.8242 112.926C27.8815 112.926 25.4792 114.046 23.6172 116.285C21.7552 118.525 20.8242 121.415 20.8242 124.957C20.8242 128.759 21.8919 131.943 24.0273 134.508C26.1758 137.06 28.832 138.336 31.9961 138.336C35.0169 138.336 37.3802 137.268 39.0859 135.133C39.5026 134.612 39.7109 133.72 39.7109 132.457Z" fill="#2F2D28"/>
<path d="M56.3125 122.613C58.6562 122.613 60.668 123.44 62.3477 125.094C64.0273 126.734 64.8672 128.694 64.8672 130.973C64.8672 133.447 64.0404 135.491 62.3867 137.105C60.7331 138.72 58.6432 139.527 56.1172 139.527C53.6432 139.527 51.6055 138.746 50.0039 137.184C48.4154 135.608 47.6211 133.596 47.6211 131.148C47.6211 128.779 48.4674 126.767 50.1602 125.113C51.8529 123.447 53.9036 122.613 56.3125 122.613ZM55.8047 123.395C54.1771 123.395 52.862 124 51.8594 125.211C50.8698 126.409 50.375 127.984 50.375 129.938C50.375 132.424 50.9935 134.508 52.2305 136.188C53.4805 137.854 55.0299 138.688 56.8789 138.688C58.4935 138.688 59.763 138.095 60.6875 136.91C61.625 135.725 62.0938 134.117 62.0938 132.086C62.0938 129.521 61.5078 127.431 60.3359 125.816C59.1641 124.202 57.6536 123.395 55.8047 123.395Z" fill="#2F2D28"/>
<path d="M81 136.598C79.4896 138.551 77.6536 139.527 75.4922 139.527C73.6693 139.527 72.2435 138.967 71.2148 137.848C70.1992 136.715 69.6914 135.139 69.6914 133.121L69.7109 131.832V125.367C69.7109 124.703 69.5742 124.241 69.3008 123.98C69.0273 123.72 68.5195 123.57 67.7773 123.531C67.4518 123.505 67.2956 123.368 67.3086 123.121C67.3216 122.887 67.7253 122.75 68.5195 122.711L70.0039 122.652C70.3294 122.626 70.8177 122.535 71.4688 122.379C71.651 122.327 71.7943 122.301 71.8984 122.301C72.25 122.301 72.4258 122.607 72.4258 123.219V123.512L72.3477 132.242V132.867L72.6602 135.23C72.9336 136.064 73.4414 136.754 74.1836 137.301C74.9258 137.848 75.7331 138.121 76.6055 138.121C77.7513 138.121 78.7669 137.789 79.6523 137.125C80.5508 136.448 81 135.68 81 134.82V125.484C81 124.742 80.8698 124.234 80.6094 123.961C80.362 123.688 79.8932 123.551 79.2031 123.551C78.7865 123.551 78.5781 123.427 78.5781 123.18C78.5781 122.88 78.8125 122.724 79.2812 122.711L79.9258 122.672L81.293 122.613C81.7357 122.587 82.2435 122.483 82.8164 122.301C82.9987 122.249 83.1549 122.216 83.2852 122.203C83.5586 122.19 83.6953 122.424 83.6953 122.906V135.602C83.6953 136.604 83.7995 137.268 84.0078 137.594C84.2292 137.906 84.6719 138.062 85.3359 138.062H85.6484L85.9219 138.043C86.2083 138.043 86.3581 138.141 86.3711 138.336C86.3841 138.609 86.0065 138.766 85.2383 138.805L84.0078 138.883C83.1615 138.922 82.6146 138.974 82.3672 139.039C82.0547 139.117 81.8138 139.156 81.6445 139.156C81.2279 139.156 81.0195 138.551 81.0195 137.34L81 136.598Z" fill="#2F2D28"/>
<path d="M101.859 136.617C100.531 137.763 99.4505 138.538 98.6172 138.941C97.7969 139.332 96.8659 139.527 95.8242 139.527C93.8581 139.527 92.2044 138.759 90.8633 137.223C89.5352 135.686 88.8711 133.785 88.8711 131.52C88.8711 129.02 89.6654 126.91 91.2539 125.191C92.8555 123.473 94.8151 122.613 97.1328 122.613C98.7083 122.613 100.284 123.076 101.859 124V116.285C101.859 113.811 101.195 112.613 99.8672 112.691L99.1836 112.73C99.0924 112.73 99.0078 112.717 98.9297 112.691C98.7995 112.639 98.7279 112.542 98.7148 112.398C98.6888 112.138 98.8776 111.982 99.2812 111.93C100.622 111.76 102.146 111.161 103.852 110.133C103.995 110.042 104.118 109.996 104.223 109.996C104.418 109.996 104.516 110.139 104.516 110.426L104.535 110.777V135.602C104.535 137.073 104.984 137.809 105.883 137.809L107.035 137.77L107.211 137.789C107.354 137.841 107.426 137.945 107.426 138.102C107.426 138.388 107.191 138.557 106.723 138.609C106.189 138.661 105.85 138.701 105.707 138.727L104.613 138.902C103.754 139.033 103.181 139.169 102.895 139.312C102.647 139.456 102.452 139.527 102.309 139.527C102.009 139.54 101.859 139.215 101.859 138.551V136.617ZM101.859 134.254V127.809C101.859 126.637 101.573 125.777 101 125.23C99.7109 123.993 98.181 123.375 96.4102 123.375C94.8346 123.375 93.5586 123.974 92.582 125.172C91.6185 126.37 91.1367 127.945 91.1367 129.898C91.1367 132.034 91.7682 133.889 93.0312 135.465C94.3073 137.027 95.8112 137.809 97.543 137.809C98.819 137.809 99.8542 137.483 100.648 136.832C101.456 136.168 101.859 135.309 101.859 134.254Z" fill="#2F2D28"/>
<path d="M117.367 136.227L120.297 128.16C120.609 127.288 120.766 126.52 120.766 125.855C120.766 125.23 120.622 124.781 120.336 124.508C120.049 124.221 119.496 123.98 118.676 123.785C118.363 123.72 118.207 123.583 118.207 123.375C118.207 123.141 118.337 123.03 118.598 123.043C118.767 123.056 119.027 123.076 119.379 123.102C119.665 123.128 120.251 123.141 121.137 123.141C122.113 123.141 122.797 123.128 123.188 123.102C123.63 123.076 123.923 123.062 124.066 123.062C124.34 123.062 124.477 123.173 124.477 123.395C124.477 123.564 124.34 123.707 124.066 123.824C123.559 124.02 123.194 124.241 122.973 124.488C122.764 124.736 122.543 125.178 122.309 125.816L115.395 145.309L115.199 145.934C115.095 146.272 114.971 146.467 114.828 146.52C114.685 146.572 114.229 146.598 113.461 146.598C112.576 146.598 112.133 146.507 112.133 146.324C112.133 146.22 112.211 146.096 112.367 145.953C113.266 145.055 114.053 143.974 114.73 142.711C115.421 141.461 115.766 140.458 115.766 139.703C115.766 139.312 115.518 138.538 115.023 137.379L110.121 126.012C109.796 125.257 109.503 124.736 109.242 124.449C108.995 124.163 108.643 123.961 108.188 123.844C107.901 123.766 107.758 123.642 107.758 123.473C107.758 123.186 107.947 123.043 108.324 123.043C108.598 123.043 108.943 123.062 109.359 123.102C109.672 123.141 110.329 123.16 111.332 123.16C112.556 123.16 113.415 123.141 113.91 123.102C114.236 123.076 114.47 123.062 114.613 123.062C114.965 123.049 115.141 123.18 115.141 123.453C115.141 123.688 114.789 123.857 114.086 123.961C113.305 124.078 112.914 124.404 112.914 124.938C112.914 125.406 113.122 126.129 113.539 127.105L117.367 136.227Z" fill="#2F2D28"/>
<path d="M149.73 111.812C153.806 111.812 157.146 113.076 159.75 115.602C162.367 118.115 163.676 121.337 163.676 125.27C163.676 129.436 162.361 132.854 159.73 135.523C157.1 138.193 153.734 139.527 149.633 139.527C145.427 139.527 142.022 138.251 139.418 135.699C136.827 133.147 135.531 129.801 135.531 125.66C135.531 123.863 135.87 122.086 136.547 120.328C137.237 118.557 138.161 117.079 139.32 115.895C140.544 114.645 142.094 113.655 143.969 112.926C145.844 112.184 147.764 111.812 149.73 111.812ZM148.461 113.082C145.44 113.082 143.038 114.104 141.254 116.148C139.483 118.18 138.598 120.921 138.598 124.371C138.598 128.316 139.73 131.643 141.996 134.352C144.275 137.06 147.068 138.414 150.375 138.414C153.396 138.414 155.889 137.314 157.855 135.113C159.822 132.9 160.805 130.1 160.805 126.715C160.805 122.822 159.626 119.579 157.27 116.988C154.913 114.384 151.977 113.082 148.461 113.082Z" fill="#2F2D28"/>
<path d="M171.703 111.578V134.488C171.703 135.556 171.827 136.376 172.074 136.949C172.361 137.6 173.168 138.036 174.496 138.258C174.861 138.323 175.049 138.46 175.062 138.668C175.076 138.967 174.939 139.117 174.652 139.117C174.535 139.117 174.366 139.091 174.145 139.039C173.949 139 173.656 138.98 173.266 138.98L171.566 139H170.551C169.314 139 168.552 139.02 168.266 139.059C167.849 139.124 167.602 139.156 167.523 139.156C167.185 139.156 167.009 139.026 166.996 138.766C166.983 138.544 167.165 138.382 167.543 138.277C168.129 138.108 168.52 137.887 168.715 137.613C168.923 137.327 169.027 136.871 169.027 136.246V114.586C169.027 113.388 168.611 112.789 167.777 112.789L166.801 112.828C166.671 112.828 166.56 112.815 166.469 112.789C166.312 112.724 166.234 112.62 166.234 112.477C166.234 112.294 166.404 112.158 166.742 112.066C167.185 111.962 167.589 111.839 167.953 111.695L169.145 111.207C170.056 110.842 170.688 110.53 171.039 110.27C171.195 110.165 171.326 110.113 171.43 110.113C171.625 110.1 171.723 110.387 171.723 110.973L171.703 111.578Z" fill="#2F2D28"/>
<path d="M189.906 136.617C188.578 137.763 187.497 138.538 186.664 138.941C185.844 139.332 184.913 139.527 183.871 139.527C181.905 139.527 180.251 138.759 178.91 137.223C177.582 135.686 176.918 133.785 176.918 131.52C176.918 129.02 177.712 126.91 179.301 125.191C180.902 123.473 182.862 122.613 185.18 122.613C186.755 122.613 188.331 123.076 189.906 124V116.285C189.906 113.811 189.242 112.613 187.914 112.691L187.23 112.73C187.139 112.73 187.055 112.717 186.977 112.691C186.846 112.639 186.775 112.542 186.762 112.398C186.736 112.138 186.924 111.982 187.328 111.93C188.669 111.76 190.193 111.161 191.898 110.133C192.042 110.042 192.165 109.996 192.27 109.996C192.465 109.996 192.562 110.139 192.562 110.426L192.582 110.777V135.602C192.582 137.073 193.031 137.809 193.93 137.809L195.082 137.77L195.258 137.789C195.401 137.841 195.473 137.945 195.473 138.102C195.473 138.388 195.238 138.557 194.77 138.609C194.236 138.661 193.897 138.701 193.754 138.727L192.66 138.902C191.801 139.033 191.228 139.169 190.941 139.312C190.694 139.456 190.499 139.527 190.355 139.527C190.056 139.54 189.906 139.215 189.906 138.551V136.617ZM189.906 134.254V127.809C189.906 126.637 189.62 125.777 189.047 125.23C187.758 123.993 186.228 123.375 184.457 123.375C182.882 123.375 181.605 123.974 180.629 125.172C179.665 126.37 179.184 127.945 179.184 129.898C179.184 132.034 179.815 133.889 181.078 135.465C182.354 137.027 183.858 137.809 185.59 137.809C186.866 137.809 187.901 137.483 188.695 136.832C189.503 136.168 189.906 135.309 189.906 134.254Z" fill="#2F2D28"/>
<path d="M216.508 111.812C217.901 111.812 219.079 112.014 220.043 112.418L221.391 112.984C221.508 113.036 221.625 113.062 221.742 113.062C221.898 113.062 222.055 112.997 222.211 112.867L222.484 112.633C222.523 112.581 222.595 112.555 222.699 112.555C223.025 112.542 223.188 112.861 223.188 113.512C223.188 113.733 223.272 114.391 223.441 115.484L223.754 117.496C223.819 117.926 223.852 118.193 223.852 118.297C223.852 118.701 223.715 118.902 223.441 118.902C223.233 118.902 223.025 118.59 222.816 117.965C222.348 116.559 221.391 115.4 219.945 114.488C218.513 113.577 216.911 113.121 215.141 113.121C213.734 113.121 212.556 113.538 211.605 114.371C210.668 115.191 210.199 116.22 210.199 117.457C210.199 118.551 210.505 119.495 211.117 120.289C211.651 120.966 212.23 121.461 212.855 121.773C213.493 122.086 215.049 122.652 217.523 123.473C222.341 125.048 224.75 127.633 224.75 131.227C224.75 133.661 223.865 135.654 222.094 137.203C220.323 138.753 218.051 139.527 215.277 139.527C214.275 139.527 213.168 139.384 211.957 139.098C210.759 138.811 209.88 138.479 209.32 138.102C209.086 137.945 208.93 137.783 208.852 137.613C208.773 137.431 208.656 136.975 208.5 136.246C208.474 136.142 208.311 135.549 208.012 134.469C207.673 133.297 207.504 132.464 207.504 131.969C207.504 131.578 207.634 131.389 207.895 131.402C208.129 131.415 208.337 131.734 208.52 132.359C208.988 133.974 209.978 135.328 211.488 136.422C212.999 137.516 214.639 138.062 216.41 138.062C218.207 138.062 219.724 137.535 220.961 136.48C222.211 135.426 222.836 134.143 222.836 132.633C222.836 131.188 222.263 129.97 221.117 128.98C220.531 128.473 218.839 127.75 216.039 126.812C213.148 125.836 211.098 124.755 209.887 123.57C208.689 122.385 208.09 120.849 208.09 118.961C208.09 116.852 208.871 115.133 210.434 113.805C212.009 112.477 214.034 111.812 216.508 111.812Z" fill="#2F2D28"/>
<path d="M232.191 124.977V134.801C232.191 136.077 232.374 136.904 232.738 137.281C233.272 137.841 234.034 138.121 235.023 138.121C235.818 138.121 236.488 137.978 237.035 137.691L238.051 137.203L238.168 137.164C238.324 137.164 238.402 137.236 238.402 137.379C238.402 137.809 237.888 138.277 236.859 138.785C235.831 139.28 234.874 139.527 233.988 139.527C230.993 139.527 229.496 137.965 229.496 134.84V124.977H227.758C227.419 124.977 227.25 124.879 227.25 124.684C227.25 124.501 227.419 124.267 227.758 123.98C229.281 122.691 230.447 121.402 231.254 120.113C231.605 119.54 231.853 119.254 231.996 119.254C232.178 119.254 232.27 119.423 232.27 119.762L232.191 123.141H236.352C236.924 123.141 237.367 123.036 237.68 122.828C237.875 122.685 238.018 122.607 238.109 122.594C238.253 122.568 238.318 122.639 238.305 122.809C238.305 122.874 238.246 123.036 238.129 123.297L237.68 124.41C237.536 124.788 237.25 124.977 236.82 124.977H232.191Z" fill="#2F2D28"/>
<path d="M247.328 136.227L250.258 128.16C250.57 127.288 250.727 126.52 250.727 125.855C250.727 125.23 250.583 124.781 250.297 124.508C250.01 124.221 249.457 123.98 248.637 123.785C248.324 123.72 248.168 123.583 248.168 123.375C248.168 123.141 248.298 123.03 248.559 123.043C248.728 123.056 248.988 123.076 249.34 123.102C249.626 123.128 250.212 123.141 251.098 123.141C252.074 123.141 252.758 123.128 253.148 123.102C253.591 123.076 253.884 123.062 254.027 123.062C254.301 123.062 254.438 123.173 254.438 123.395C254.438 123.564 254.301 123.707 254.027 123.824C253.52 124.02 253.155 124.241 252.934 124.488C252.725 124.736 252.504 125.178 252.27 125.816L245.355 145.309L245.16 145.934C245.056 146.272 244.932 146.467 244.789 146.52C244.646 146.572 244.19 146.598 243.422 146.598C242.536 146.598 242.094 146.507 242.094 146.324C242.094 146.22 242.172 146.096 242.328 145.953C243.227 145.055 244.014 143.974 244.691 142.711C245.382 141.461 245.727 140.458 245.727 139.703C245.727 139.312 245.479 138.538 244.984 137.379L240.082 126.012C239.757 125.257 239.464 124.736 239.203 124.449C238.956 124.163 238.604 123.961 238.148 123.844C237.862 123.766 237.719 123.642 237.719 123.473C237.719 123.186 237.908 123.043 238.285 123.043C238.559 123.043 238.904 123.062 239.32 123.102C239.633 123.141 240.29 123.16 241.293 123.16C242.517 123.16 243.376 123.141 243.871 123.102C244.197 123.076 244.431 123.062 244.574 123.062C244.926 123.049 245.102 123.18 245.102 123.453C245.102 123.688 244.75 123.857 244.047 123.961C243.266 124.078 242.875 124.404 242.875 124.938C242.875 125.406 243.083 126.129 243.5 127.105L247.328 136.227Z" fill="#2F2D28"/>
<path d="M260.297 111.578V134.488C260.297 135.556 260.421 136.376 260.668 136.949C260.954 137.6 261.762 138.036 263.09 138.258C263.454 138.323 263.643 138.46 263.656 138.668C263.669 138.967 263.533 139.117 263.246 139.117C263.129 139.117 262.96 139.091 262.738 139.039C262.543 139 262.25 138.98 261.859 138.98L260.16 139H259.145C257.908 139 257.146 139.02 256.859 139.059C256.443 139.124 256.195 139.156 256.117 139.156C255.779 139.156 255.603 139.026 255.59 138.766C255.577 138.544 255.759 138.382 256.137 138.277C256.723 138.108 257.113 137.887 257.309 137.613C257.517 137.327 257.621 136.871 257.621 136.246V114.586C257.621 113.388 257.204 112.789 256.371 112.789L255.395 112.828C255.264 112.828 255.154 112.815 255.062 112.789C254.906 112.724 254.828 112.62 254.828 112.477C254.828 112.294 254.997 112.158 255.336 112.066C255.779 111.962 256.182 111.839 256.547 111.695L257.738 111.207C258.65 110.842 259.281 110.53 259.633 110.27C259.789 110.165 259.919 110.113 260.023 110.113C260.219 110.1 260.316 110.387 260.316 110.973L260.297 111.578Z" fill="#2F2D28"/>
<path d="M268.188 129.293L268.168 129.723C268.168 131.949 268.78 133.824 270.004 135.348C271.241 136.858 272.758 137.613 274.555 137.613C275.974 137.613 277.517 136.975 279.184 135.699C279.288 135.621 279.385 135.576 279.477 135.562C279.659 135.549 279.75 135.654 279.75 135.875C279.75 136.266 279.294 136.819 278.383 137.535C276.69 138.863 274.9 139.527 273.012 139.527C270.889 139.527 269.105 138.72 267.66 137.105C266.228 135.491 265.512 133.492 265.512 131.109C265.512 128.844 266.254 126.865 267.738 125.172C269.223 123.466 270.961 122.613 272.953 122.613C275.128 122.613 276.866 123.518 278.168 125.328C278.48 125.771 278.799 126.37 279.125 127.125C279.451 127.88 279.613 128.408 279.613 128.707C279.613 129.137 279.19 129.352 278.344 129.352L276.898 129.332L275.57 129.293H268.188ZM268.266 128.238H274.887C275.915 128.238 276.43 128.03 276.43 127.613C276.43 126.598 275.987 125.654 275.102 124.781C274.229 123.909 273.279 123.473 272.25 123.473C271.182 123.473 270.29 123.902 269.574 124.762C268.871 125.608 268.435 126.767 268.266 128.238Z" fill="#2F2D28"/>
<path d="M39.5156 177.074C39.4505 177.243 39.1706 178.207 38.6758 179.965C37.2695 180.382 35.9935 180.707 34.8477 180.941C33.7018 181.163 32.4583 181.273 31.1172 181.273C29.5026 181.273 27.888 180.987 26.2734 180.414C24.6589 179.841 23.207 178.995 21.918 177.875C20.6289 176.742 19.6068 175.368 18.8516 173.754C18.0964 172.126 17.7188 170.277 17.7188 168.207C17.7188 165.368 18.4154 162.973 19.8086 161.02C21.2148 159.066 22.9987 157.628 25.1602 156.703C27.3346 155.779 29.5742 155.316 31.8789 155.316C33.6888 155.316 35.4336 155.635 37.1133 156.273C37.8945 156.521 38.4805 156.645 38.8711 156.645C39.0534 156.605 39.1836 156.579 39.2617 156.566C39.3529 156.553 39.4635 156.54 39.5938 156.527C39.6719 156.527 39.7565 156.579 39.8477 156.684L39.5547 157.797C39.2812 158.773 39.0404 160.017 38.832 161.527C38.5977 161.488 38.4414 161.41 38.3633 161.293C38.2852 161.163 38.2461 160.961 38.2461 160.688C38.2201 159.867 38.1094 159.307 37.9141 159.008C37.5625 158.435 36.6836 157.849 35.2773 157.25C33.8711 156.651 32.4583 156.352 31.0391 156.352C29.1641 156.352 27.4648 156.82 25.9414 157.758C24.431 158.682 23.2331 160.043 22.3477 161.84C21.4753 163.637 21.0391 165.746 21.0391 168.168C21.0391 170.395 21.4232 172.315 22.1914 173.93C22.9727 175.531 23.9427 176.801 25.1016 177.738C26.2734 178.676 27.4583 179.353 28.6562 179.77C29.8672 180.186 30.9154 180.395 31.8008 180.395C33.207 180.395 34.3724 180.167 35.2969 179.711C36.2214 179.242 36.944 178.689 37.4648 178.051C37.9987 177.4 38.513 176.625 39.0078 175.727C39.2031 175.349 39.3724 175.16 39.5156 175.16C39.763 175.16 39.8867 175.277 39.8867 175.512C39.8867 175.681 39.763 176.202 39.5156 177.074Z" fill="#2F2D28"/>
<path d="M54.8086 170.844L45.043 172.953C45.1081 174.177 45.2253 175.128 45.3945 175.805C45.5768 176.469 45.9284 177.146 46.4492 177.836C47.4518 179.151 48.6628 179.809 50.082 179.809C50.668 179.809 51.293 179.698 51.957 179.477C52.6211 179.255 53.3568 178.858 54.1641 178.285L54.5156 178.754C52.25 180.382 50.2383 181.195 48.4805 181.195C46.6185 181.195 45.1667 180.492 44.125 179.086C43.0833 177.68 42.5625 176.065 42.5625 174.242C42.5625 172.38 42.9596 170.837 43.7539 169.613C44.5482 168.376 45.4401 167.478 46.4297 166.918C47.4193 166.358 48.168 166.078 48.6758 166.078C49.2617 166.078 49.8672 166.176 50.4922 166.371C51.1302 166.553 51.7487 166.911 52.3477 167.445C52.9596 167.979 53.4674 168.708 53.8711 169.633C53.9883 169.828 54.099 169.958 54.2031 170.023C54.3073 170.089 54.4961 170.121 54.7695 170.121L54.8086 170.844ZM45.082 172.191L47.6406 171.645C47.7448 171.592 48.1354 171.488 48.8125 171.332C49.5026 171.176 49.9648 171.078 50.1992 171.039C50.8763 170.883 51.306 170.772 51.4883 170.707C51.6706 170.642 51.7617 170.538 51.7617 170.395C51.7617 170.186 51.6055 169.835 51.293 169.34C50.9805 168.832 50.5312 168.37 49.9453 167.953C49.3724 167.536 48.6953 167.328 47.9141 167.328C46.9375 167.328 46.2409 167.842 45.8242 168.871C45.4206 169.9 45.1732 171.007 45.082 172.191Z" fill="#2F2D28"/>
<path d="M56.332 180.727L56.293 180.16C56.9961 180.03 57.5104 179.893 57.8359 179.75C58.1615 179.607 58.3763 179.444 58.4805 179.262C58.5846 179.079 58.6562 178.832 58.6953 178.52C58.7995 177.803 58.8711 176.924 58.9102 175.883C58.9492 174.841 58.9688 173.786 58.9688 172.719C58.9688 171.234 58.9167 170.225 58.8125 169.691C58.7214 169.145 58.513 168.799 58.1875 168.656C57.875 168.5 57.2826 168.376 56.4102 168.285C56.4102 168.116 56.3971 167.992 56.3711 167.914C56.931 167.771 57.6732 167.497 58.5977 167.094C59.5352 166.677 60.0299 166.443 60.082 166.391C60.5768 166.13 60.8698 166 60.9609 166C61.1562 166 61.2799 166.189 61.332 166.566C61.3841 166.944 61.4102 167.569 61.4102 168.441C62.8424 167.634 64.0208 167.061 64.9453 166.723C65.8698 166.371 66.7552 166.195 67.6016 166.195C68.8646 166.195 69.7826 166.475 70.3555 167.035C70.9414 167.582 71.2995 168.253 71.4297 169.047C71.5729 169.828 71.6445 170.863 71.6445 172.152V176.801C71.6445 178.637 71.7292 179.639 71.8984 179.809C71.9896 179.9 72.3216 180.01 72.8945 180.141C73.4674 180.271 73.7995 180.355 73.8906 180.395L73.9297 181C72.9531 180.844 71.8203 180.766 70.5312 180.766C69.4375 180.766 68.1289 180.844 66.6055 181V180.434C67.7904 180.199 68.526 179.828 68.8125 179.32C69.0078 178.891 69.138 177.986 69.2031 176.605C69.2812 175.212 69.3203 174.132 69.3203 173.363C69.3203 172.217 69.2682 171.28 69.1641 170.551C69.0729 169.809 68.806 169.177 68.3633 168.656C67.9206 168.135 67.2305 167.875 66.293 167.875C65.8763 167.875 65.2448 167.96 64.3984 168.129C63.5521 168.298 62.556 168.682 61.4102 169.281L61.293 174.477C61.2669 176.69 61.293 178.155 61.3711 178.871C61.3971 179.184 61.4557 179.418 61.5469 179.574C61.651 179.73 61.8724 179.874 62.2109 180.004C62.5495 180.121 63.1224 180.225 63.9297 180.316L63.8906 180.922C63.6042 180.896 63.194 180.863 62.6602 180.824C62.1263 180.785 61.4427 180.753 60.6094 180.727H56.332Z" fill="#2F2D28"/>
<path d="M77.2305 175.395L77.3281 167.797C76.7292 167.719 76.0326 167.68 75.2383 167.68C75.2643 167.576 75.2773 167.413 75.2773 167.191C76.4102 166.501 77.2956 165.844 77.9336 165.219C78.5716 164.594 79.3268 163.708 80.1992 162.562L80.0039 166.078C81.1237 166.182 82.3477 166.234 83.6758 166.234C84.3138 166.234 85.0104 166.221 85.7656 166.195L85.7266 167.406C85.0495 167.484 84.3529 167.523 83.6367 167.523C83.5716 167.523 83.3177 167.517 82.875 167.504C82.4323 167.478 81.7422 167.445 80.8047 167.406C80.5573 167.406 80.3685 167.432 80.2383 167.484C80.1211 167.523 80.0365 167.608 79.9844 167.738C79.9453 167.868 79.9128 168.116 79.8867 168.48C79.8737 168.845 79.8607 169.229 79.8477 169.633L79.75 175.727C79.724 176.898 79.8542 177.868 80.1406 178.637C80.4401 179.392 81.1497 179.77 82.2695 179.77C82.6992 179.77 83.2266 179.678 83.8516 179.496C84.4896 179.301 85.2188 179.014 86.0391 178.637C86.0651 178.741 86.0781 178.819 86.0781 178.871C86.0911 178.923 86.1042 178.982 86.1172 179.047C85.6615 179.542 84.8216 180.03 83.5977 180.512C82.3867 180.993 81.293 181.234 80.3164 181.234C79.4701 181.234 78.7409 180.948 78.1289 180.375C77.5299 179.789 77.2305 178.786 77.2305 177.367V175.395Z" fill="#2F2D28"/>
<path d="M90.8828 169.477L88.4805 170.551C88.3763 170.134 88.3242 169.828 88.3242 169.633C88.3242 168.969 88.7279 168.357 89.5352 167.797C90.3555 167.224 91.2734 166.762 92.2891 166.41C93.3177 166.059 94.0339 165.883 94.4375 165.883C94.7891 165.883 95.2253 166.039 95.7461 166.352C96.2669 166.664 96.6836 166.977 96.9961 167.289C97.2695 167.549 97.4779 167.81 97.6211 168.07C97.7773 168.318 97.9141 168.715 98.0312 169.262C98.1484 169.809 98.207 170.505 98.207 171.352C98.207 171.599 98.1745 172.471 98.1094 173.969L98.0312 175.434C97.9792 176.137 97.9531 176.697 97.9531 177.113C97.9531 177.647 98.0247 178.22 98.168 178.832C98.2982 179.457 98.5911 179.77 99.0469 179.77C99.5547 179.77 100.232 179.581 101.078 179.203V180.004L98.207 181.156C97.6341 181.352 97.3086 181.449 97.2305 181.449C96.931 181.449 96.6315 181.254 96.332 180.863C96.0456 180.46 95.8112 179.984 95.6289 179.438C93.2201 180.779 91.3711 181.449 90.082 181.449C89.2878 181.449 88.6888 181.221 88.2852 180.766C87.8815 180.297 87.6797 179.6 87.6797 178.676C87.6797 177.79 87.7839 177.133 87.9922 176.703C88.2135 176.273 88.5651 175.935 89.0469 175.688C90.0234 175.193 91.0586 174.828 92.1523 174.594C93.2461 174.346 94.3919 174.138 95.5898 173.969L95.6875 171.566V170.922C95.6875 169.815 95.3685 168.943 94.7305 168.305C94.1055 167.654 93.3698 167.328 92.5234 167.328C92.1198 167.328 91.7096 167.445 91.293 167.68C90.8893 167.901 90.6875 168.22 90.6875 168.637C90.6875 168.845 90.7526 169.125 90.8828 169.477ZM95.5117 178.715C95.4727 178.285 95.5117 177.061 95.6289 175.043C93.9102 174.926 92.5299 175.134 91.4883 175.668C90.4466 176.202 89.9258 176.872 89.9258 177.68C89.9258 178.266 90.082 178.819 90.3945 179.34C90.7201 179.861 91.1628 180.121 91.7227 180.121C92.3477 180.121 93.6107 179.652 95.5117 178.715Z" fill="#2F2D28"/>
<path d="M101.469 169.164V168.363L105.805 165.961L106.195 165.805C106.378 165.805 106.469 165.922 106.469 166.156L106.234 169.516C106.078 172.172 106 173.812 106 174.438C106 175.909 106.195 177.133 106.586 178.109C106.977 179.073 107.888 179.555 109.32 179.555C109.776 179.555 110.245 179.483 110.727 179.34C111.221 179.184 111.788 178.956 112.426 178.656C113.077 178.344 113.585 178.096 113.949 177.914C113.949 176.938 113.969 176.299 114.008 176L114.125 171.996C114.164 170.785 114.125 169.932 114.008 169.438C113.891 168.93 113.663 168.604 113.324 168.461C112.999 168.318 112.452 168.233 111.684 168.207L111.645 167.484L116.84 166.273C116.775 167.445 116.703 168.565 116.625 169.633C116.56 170.688 116.495 171.82 116.43 173.031C116.378 174.242 116.352 175.141 116.352 175.727C116.352 177.628 116.475 178.956 116.723 179.711C117.4 179.685 118.129 179.529 118.91 179.242V180.121C117.439 180.525 115.948 181.007 114.438 181.566C114.216 180.837 114.04 179.913 113.91 178.793C110.72 180.421 108.507 181.234 107.27 181.234C106.436 181.234 105.603 180.837 104.77 180.043C103.936 179.249 103.559 177.712 103.637 175.434L103.793 171.039C103.819 170.258 103.786 169.665 103.695 169.262C103.617 168.845 103.37 168.637 102.953 168.637C102.719 168.637 102.224 168.812 101.469 169.164Z" fill="#2F2D28"/>
<path d="M120.355 181.039L120.395 180.473C121.046 180.342 121.495 180.212 121.742 180.082C121.99 179.952 122.204 179.646 122.387 179.164C122.569 178.682 122.686 177.96 122.738 176.996C122.803 176.033 122.836 174.555 122.836 172.562C122.836 170.987 122.751 169.939 122.582 169.418C122.413 168.897 121.99 168.637 121.312 168.637C120.909 168.637 120.499 168.689 120.082 168.793L120.16 168.168L125.199 165.238C125.251 166.046 125.277 167.152 125.277 168.559L127.367 167.367C127.471 167.302 127.562 167.243 127.641 167.191C127.784 167.113 127.947 167.022 128.129 166.918C128.311 166.801 128.624 166.612 129.066 166.352C129.509 166.078 129.861 165.857 130.121 165.688L130.277 165.766C130.355 165.844 130.447 165.909 130.551 165.961C130.941 166.143 131.247 166.352 131.469 166.586C131.69 166.82 131.801 167.159 131.801 167.602C131.801 168.109 131.592 168.526 131.176 168.852C130.759 169.177 130.258 169.372 129.672 169.438C129.672 168.995 129.568 168.656 129.359 168.422C129.151 168.188 128.858 168.07 128.48 168.07C128.09 168.07 127.628 168.214 127.094 168.5C126.56 168.773 126.156 169.034 125.883 169.281C125.557 169.568 125.362 169.809 125.297 170.004C125.245 170.186 125.212 170.648 125.199 171.391C125.121 173.591 125.082 174.757 125.082 174.887C125.082 177.426 125.212 178.995 125.473 179.594C125.59 179.802 125.72 179.932 125.863 179.984C126.007 180.023 126.254 180.043 126.605 180.043L127.113 180.004L129.438 179.965L129.398 180.766C129.333 180.766 128.923 180.779 128.168 180.805C127.413 180.831 126.905 180.844 126.645 180.844L120.355 181.039Z" fill="#2F2D28"/>
</svg>
