<svg width="344" height="104" viewBox="0 0 344 104" fill="none" xmlns="http://www.w3.org/2000/svg">
<circle cx="292" cy="52" r="51" fill="#D1DFFA" stroke="#726F68" stroke-width="2"/>
<mask id="mask0_47_66" style="mask-type:alpha" maskUnits="userSpaceOnUse" x="242" y="2" width="100" height="100">
<circle cx="292" cy="52" r="49" fill="#D1DFFA" stroke="#726F68" stroke-width="2"/>
</mask>
<g mask="url(#mask0_47_66)">
<rect x="243" width="1" height="104" fill="#BDB9B3"/>
<rect x="245" width="1" height="104" fill="#BDB9B3"/>
<rect x="247" width="1" height="104" fill="#BDB9B3"/>
<rect x="249" width="1" height="104" fill="#BDB9B3"/>
<rect x="251" width="1" height="104" fill="#BDB9B3"/>
<rect x="253" width="1" height="104" fill="#BDB9B3"/>
<rect x="255" width="1" height="104" fill="#BDB9B3"/>
<rect x="257" width="1" height="104" fill="#BDB9B3"/>
<rect x="259" width="1" height="104" fill="#BDB9B3"/>
<rect x="261" width="1" height="104" fill="#BDB9B3"/>
<rect x="263" width="1" height="104" fill="#BDB9B3"/>
<rect x="265" width="1" height="104" fill="#BDB9B3"/>
<rect x="267" width="1" height="104" fill="#BDB9B3"/>
<rect x="269" width="1" height="104" fill="#BDB9B3"/>
<rect x="271" width="1" height="104" fill="#BDB9B3"/>
<rect x="273" width="1" height="104" fill="#BDB9B3"/>
<rect x="275" width="1" height="104" fill="#BDB9B3"/>
<rect x="277" width="1" height="104" fill="#BDB9B3"/>
<rect x="279" width="1" height="104" fill="#BDB9B3"/>
<rect x="281" width="1" height="104" fill="#BDB9B3"/>
<rect x="283" width="1" height="104" fill="#BDB9B3"/>
<rect x="285" width="1" height="104" fill="#BDB9B3"/>
<rect x="287" width="1" height="104" fill="#BDB9B3"/>
<rect x="289" width="1" height="104" fill="#BDB9B3"/>
<rect x="291" width="1" height="104" fill="#BDB9B3"/>
<rect x="293" width="1" height="104" fill="#BDB9B3"/>
<rect x="295" width="1" height="104" fill="#BDB9B3"/>
<rect x="297" width="1" height="104" fill="#BDB9B3"/>
<rect x="299" width="1" height="104" fill="#BDB9B3"/>
<rect x="301" width="1" height="104" fill="#BDB9B3"/>
<rect x="303" width="1" height="104" fill="#BDB9B3"/>
<rect x="305" width="1" height="104" fill="#BDB9B3"/>
<rect x="307" width="1" height="104" fill="#BDB9B3"/>
<rect x="309" width="1" height="104" fill="#BDB9B3"/>
<rect x="311" width="1" height="104" fill="#BDB9B3"/>
<rect x="313" width="1" height="104" fill="#BDB9B3"/>
<rect x="315" width="1" height="104" fill="#BDB9B3"/>
<rect x="317" width="1" height="104" fill="#BDB9B3"/>
<rect x="319" width="1" height="104" fill="#BDB9B3"/>
<rect x="321" width="1" height="104" fill="#BDB9B3"/>
<rect x="323" width="1" height="104" fill="#BDB9B3"/>
<rect x="325" width="1" height="104" fill="#BDB9B3"/>
<rect x="327" width="1" height="104" fill="#BDB9B3"/>
<rect x="329" width="1" height="104" fill="#BDB9B3"/>
<rect x="331" width="1" height="104" fill="#BDB9B3"/>
<rect x="333" width="1" height="104" fill="#BDB9B3"/>
<rect x="335" width="1" height="104" fill="#BDB9B3"/>
<rect x="337" width="1" height="104" fill="#BDB9B3"/>
<rect x="339" width="1" height="104" fill="#BDB9B3"/>
<rect x="341" width="1" height="104" fill="#BDB9B3"/>
<rect x="240.5" y="101.5" width="1" height="104" transform="rotate(-90 240.5 101.5)" fill="#BDB9B3"/>
<rect x="240.5" y="99.5" width="1" height="104" transform="rotate(-90 240.5 99.5)" fill="#BDB9B3"/>
<rect x="240.5" y="97.5" width="1" height="104" transform="rotate(-90 240.5 97.5)" fill="#BDB9B3"/>
<rect x="240.5" y="95.5" width="1" height="104" transform="rotate(-90 240.5 95.5)" fill="#BDB9B3"/>
<rect x="240.5" y="93.5" width="1" height="104" transform="rotate(-90 240.5 93.5)" fill="#BDB9B3"/>
<rect x="240.5" y="91.5" width="1" height="104" transform="rotate(-90 240.5 91.5)" fill="#BDB9B3"/>
<rect x="240.5" y="89.5" width="1" height="104" transform="rotate(-90 240.5 89.5)" fill="#BDB9B3"/>
<rect x="240.5" y="87.5" width="1" height="104" transform="rotate(-90 240.5 87.5)" fill="#BDB9B3"/>
<rect x="240.5" y="85.5" width="1" height="104" transform="rotate(-90 240.5 85.5)" fill="#BDB9B3"/>
<rect x="240.5" y="83.5" width="1" height="104" transform="rotate(-90 240.5 83.5)" fill="#BDB9B3"/>
<rect x="240.5" y="81.5" width="1" height="104" transform="rotate(-90 240.5 81.5)" fill="#BDB9B3"/>
<rect x="240.5" y="79.5" width="1" height="104" transform="rotate(-90 240.5 79.5)" fill="#BDB9B3"/>
<rect x="240.5" y="77.5" width="1" height="104" transform="rotate(-90 240.5 77.5)" fill="#BDB9B3"/>
<rect x="240.5" y="75.5" width="1" height="104" transform="rotate(-90 240.5 75.5)" fill="#BDB9B3"/>
<rect x="240.5" y="73.5" width="1" height="104" transform="rotate(-90 240.5 73.5)" fill="#BDB9B3"/>
<rect x="240.5" y="71.5" width="1" height="104" transform="rotate(-90 240.5 71.5)" fill="#BDB9B3"/>
<rect x="240.5" y="69.5" width="1" height="104" transform="rotate(-90 240.5 69.5)" fill="#BDB9B3"/>
<rect x="240.5" y="67.5" width="1" height="104" transform="rotate(-90 240.5 67.5)" fill="#BDB9B3"/>
<rect x="240.5" y="65.5" width="1" height="104" transform="rotate(-90 240.5 65.5)" fill="#BDB9B3"/>
<rect x="240.5" y="63.5" width="1" height="104" transform="rotate(-90 240.5 63.5)" fill="#BDB9B3"/>
<rect x="240.5" y="61.5" width="1" height="104" transform="rotate(-90 240.5 61.5)" fill="#BDB9B3"/>
<rect x="240.5" y="59.5" width="1" height="104" transform="rotate(-90 240.5 59.5)" fill="#BDB9B3"/>
<rect x="240.5" y="57.5" width="1" height="104" transform="rotate(-90 240.5 57.5)" fill="#BDB9B3"/>
<rect x="240.5" y="55.5" width="1" height="104" transform="rotate(-90 240.5 55.5)" fill="#BDB9B3"/>
<rect x="240.5" y="53.5" width="1" height="104" transform="rotate(-90 240.5 53.5)" fill="#BDB9B3"/>
<rect x="240.5" y="51.5" width="1" height="104" transform="rotate(-90 240.5 51.5)" fill="#BDB9B3"/>
<rect x="240.5" y="49.5" width="1" height="104" transform="rotate(-90 240.5 49.5)" fill="#BDB9B3"/>
<rect x="240.5" y="47.5" width="1" height="104" transform="rotate(-90 240.5 47.5)" fill="#BDB9B3"/>
<rect x="240.5" y="45.5" width="1" height="104" transform="rotate(-90 240.5 45.5)" fill="#BDB9B3"/>
<rect x="240.5" y="43.5" width="1" height="104" transform="rotate(-90 240.5 43.5)" fill="#BDB9B3"/>
<rect x="240.5" y="41.5" width="1" height="104" transform="rotate(-90 240.5 41.5)" fill="#BDB9B3"/>
<rect x="240.5" y="39.5" width="1" height="104" transform="rotate(-90 240.5 39.5)" fill="#BDB9B3"/>
<rect x="240.5" y="37.5" width="1" height="104" transform="rotate(-90 240.5 37.5)" fill="#BDB9B3"/>
<rect x="240.5" y="35.5" width="1" height="104" transform="rotate(-90 240.5 35.5)" fill="#BDB9B3"/>
<rect x="240.5" y="33.5" width="1" height="104" transform="rotate(-90 240.5 33.5)" fill="#BDB9B3"/>
<rect x="240.5" y="31.5" width="1" height="104" transform="rotate(-90 240.5 31.5)" fill="#BDB9B3"/>
<rect x="240.5" y="29.5" width="1" height="104" transform="rotate(-90 240.5 29.5)" fill="#BDB9B3"/>
<rect x="240.5" y="27.5" width="1" height="104" transform="rotate(-90 240.5 27.5)" fill="#BDB9B3"/>
<rect x="240.5" y="25.5" width="1" height="104" transform="rotate(-90 240.5 25.5)" fill="#BDB9B3"/>
<rect x="240.5" y="23.5" width="1" height="104" transform="rotate(-90 240.5 23.5)" fill="#BDB9B3"/>
<rect x="240.5" y="21.5" width="1" height="104" transform="rotate(-90 240.5 21.5)" fill="#BDB9B3"/>
<rect x="240.5" y="19.5" width="1" height="104" transform="rotate(-90 240.5 19.5)" fill="#BDB9B3"/>
<rect x="240.5" y="17.5" width="1" height="104" transform="rotate(-90 240.5 17.5)" fill="#BDB9B3"/>
<rect x="240.5" y="15.5" width="1" height="104" transform="rotate(-90 240.5 15.5)" fill="#BDB9B3"/>
<rect x="240.5" y="13.5" width="1" height="104" transform="rotate(-90 240.5 13.5)" fill="#BDB9B3"/>
<rect x="240.5" y="11.5" width="1" height="104" transform="rotate(-90 240.5 11.5)" fill="#BDB9B3"/>
<rect x="240.5" y="9.5" width="1" height="104" transform="rotate(-90 240.5 9.5)" fill="#BDB9B3"/>
<rect x="240.5" y="7.5" width="1" height="104" transform="rotate(-90 240.5 7.5)" fill="#BDB9B3"/>
<rect x="240.5" y="5.5" width="1" height="104" transform="rotate(-90 240.5 5.5)" fill="#BDB9B3"/>
<rect x="240.5" y="3.5" width="1" height="104" transform="rotate(-90 240.5 3.5)" fill="#BDB9B3"/>
</g>
<path d="M283.176 38.8633C283.176 39.6289 283.027 40.293 282.73 40.8555C282.434 41.418 282.02 41.8789 281.488 42.2383C280.957 42.5898 280.332 42.8359 279.613 42.9766V43.0703C280.973 43.2422 281.992 43.6797 282.672 44.3828C283.359 45.0859 283.703 46.0078 283.703 47.1484C283.703 48.1406 283.469 49.0195 283 49.7852C282.539 50.5508 281.828 51.1523 280.867 51.5898C279.914 52.0195 278.691 52.2344 277.199 52.2344C276.293 52.2344 275.453 52.1602 274.68 52.0117C273.914 51.8711 273.18 51.6328 272.477 51.2969V49.4688C273.188 49.8203 273.961 50.0977 274.797 50.3008C275.633 50.4961 276.441 50.5938 277.223 50.5938C278.785 50.5938 279.914 50.2852 280.609 49.668C281.305 49.043 281.652 48.1914 281.652 47.1133C281.652 46.3711 281.457 45.7734 281.066 45.3203C280.684 44.8594 280.129 44.5234 279.402 44.3125C278.684 44.0938 277.816 43.9844 276.801 43.9844H275.09V42.3203H276.812C277.742 42.3203 278.531 42.1836 279.18 41.9102C279.828 41.6367 280.32 41.2539 280.656 40.7617C281 40.2617 281.172 39.6719 281.172 38.9922C281.172 38.125 280.883 37.457 280.305 36.9883C279.727 36.5117 278.941 36.2734 277.949 36.2734C277.34 36.2734 276.785 36.3359 276.285 36.4609C275.785 36.5859 275.316 36.7578 274.879 36.9766C274.441 37.1953 274.004 37.4492 273.566 37.7383L272.582 36.4023C273.207 35.918 273.969 35.5 274.867 35.1484C275.766 34.7969 276.785 34.6211 277.926 34.6211C279.676 34.6211 280.988 35.0195 281.863 35.8164C282.738 36.6133 283.176 37.6289 283.176 38.8633ZM297.637 43.4102C297.637 44.8008 297.531 46.043 297.32 47.1367C297.109 48.2305 296.777 49.1562 296.324 49.9141C295.871 50.6719 295.285 51.25 294.566 51.6484C293.848 52.0391 292.984 52.2344 291.977 52.2344C290.703 52.2344 289.648 51.8867 288.812 51.1914C287.984 50.4961 287.363 49.4922 286.949 48.1797C286.543 46.8594 286.34 45.2695 286.34 43.4102C286.34 41.582 286.523 40.0117 286.891 38.6992C287.266 37.3789 287.867 36.3672 288.695 35.6641C289.523 34.9531 290.617 34.5977 291.977 34.5977C293.266 34.5977 294.328 34.9492 295.164 35.6523C296 36.3477 296.621 37.3555 297.027 38.6758C297.434 39.9883 297.637 41.5664 297.637 43.4102ZM288.297 43.4102C288.297 45.0039 288.418 46.332 288.66 47.3945C288.902 48.457 289.293 49.2539 289.832 49.7852C290.379 50.3086 291.094 50.5703 291.977 50.5703C292.859 50.5703 293.57 50.3086 294.109 49.7852C294.656 49.2617 295.051 48.4688 295.293 47.4062C295.543 46.3438 295.668 45.0117 295.668 43.4102C295.668 41.8398 295.547 40.5273 295.305 39.4727C295.062 38.4102 294.672 37.6133 294.133 37.082C293.594 36.543 292.875 36.2734 291.977 36.2734C291.078 36.2734 290.359 36.543 289.82 37.082C289.281 37.6133 288.891 38.4102 288.648 39.4727C288.414 40.5273 288.297 41.8398 288.297 43.4102ZM311.371 43.4102C311.371 44.8008 311.266 46.043 311.055 47.1367C310.844 48.2305 310.512 49.1562 310.059 49.9141C309.605 50.6719 309.02 51.25 308.301 51.6484C307.582 52.0391 306.719 52.2344 305.711 52.2344C304.438 52.2344 303.383 51.8867 302.547 51.1914C301.719 50.4961 301.098 49.4922 300.684 48.1797C300.277 46.8594 300.074 45.2695 300.074 43.4102C300.074 41.582 300.258 40.0117 300.625 38.6992C301 37.3789 301.602 36.3672 302.43 35.6641C303.258 34.9531 304.352 34.5977 305.711 34.5977C307 34.5977 308.062 34.9492 308.898 35.6523C309.734 36.3477 310.355 37.3555 310.762 38.6758C311.168 39.9883 311.371 41.5664 311.371 43.4102ZM302.031 43.4102C302.031 45.0039 302.152 46.332 302.395 47.3945C302.637 48.457 303.027 49.2539 303.566 49.7852C304.113 50.3086 304.828 50.5703 305.711 50.5703C306.594 50.5703 307.305 50.3086 307.844 49.7852C308.391 49.2617 308.785 48.4688 309.027 47.4062C309.277 46.3438 309.402 45.0117 309.402 43.4102C309.402 41.8398 309.281 40.5273 309.039 39.4727C308.797 38.4102 308.406 37.6133 307.867 37.082C307.328 36.543 306.609 36.2734 305.711 36.2734C304.812 36.2734 304.094 36.543 303.555 37.082C303.016 37.6133 302.625 38.4102 302.383 39.4727C302.148 40.5273 302.031 41.8398 302.031 43.4102ZM284.688 60.5781C286.161 60.5781 287.237 60.8672 287.914 61.4453C288.596 62.0182 288.938 62.8411 288.938 63.9141C288.938 64.3984 288.857 64.8594 288.695 65.2969C288.539 65.7292 288.284 66.112 287.93 66.4453C287.576 66.7734 287.109 67.0339 286.531 67.2266C285.958 67.4141 285.255 67.5078 284.422 67.5078H283.031V72H281.703V60.5781H284.688ZM284.562 61.7109H283.031V66.3672H284.273C285.003 66.3672 285.609 66.2891 286.094 66.1328C286.583 65.9766 286.951 65.724 287.195 65.375C287.44 65.0208 287.562 64.5521 287.562 63.9688C287.562 63.2083 287.32 62.6432 286.836 62.2734C286.352 61.8984 285.594 61.7109 284.562 61.7109ZM294.312 60.5781C295.786 60.5781 296.862 60.8672 297.539 61.4453C298.221 62.0182 298.562 62.8411 298.562 63.9141C298.562 64.3984 298.482 64.8594 298.32 65.2969C298.164 65.7292 297.909 66.112 297.555 66.4453C297.201 66.7734 296.734 67.0339 296.156 67.2266C295.583 67.4141 294.88 67.5078 294.047 67.5078H292.656V72H291.328V60.5781H294.312ZM294.188 61.7109H292.656V66.3672H293.898C294.628 66.3672 295.234 66.2891 295.719 66.1328C296.208 65.9766 296.576 65.724 296.82 65.375C297.065 65.0208 297.188 64.5521 297.188 63.9688C297.188 63.2083 296.945 62.6432 296.461 62.2734C295.977 61.8984 295.219 61.7109 294.188 61.7109ZM300.953 72V60.5781H302.281V72H300.953Z" fill="#2F2D28"/>
<circle cx="172" cy="52" r="51" fill="#D1DFFA" stroke="#726F68" stroke-width="2"/>
<mask id="mask1_47_66" style="mask-type:alpha" maskUnits="userSpaceOnUse" x="122" y="2" width="100" height="100">
<circle cx="172" cy="52" r="49" fill="#D1DFFA" stroke="#726F68" stroke-width="2"/>
</mask>
<g mask="url(#mask1_47_66)">
<rect x="123" width="1" height="104" fill="#BDB9B3"/>
<rect x="127" width="1" height="104" fill="#BDB9B3"/>
<rect x="131" width="1" height="104" fill="#BDB9B3"/>
<rect x="135" width="1" height="104" fill="#BDB9B3"/>
<rect x="139" width="1" height="104" fill="#BDB9B3"/>
<rect x="143" width="1" height="104" fill="#BDB9B3"/>
<rect x="147" width="1" height="104" fill="#BDB9B3"/>
<rect x="151" width="1" height="104" fill="#BDB9B3"/>
<rect x="155" width="1" height="104" fill="#BDB9B3"/>
<rect x="159" width="1" height="104" fill="#BDB9B3"/>
<rect x="163" width="1" height="104" fill="#BDB9B3"/>
<rect x="167" width="1" height="104" fill="#BDB9B3"/>
<rect x="171" width="1" height="104" fill="#BDB9B3"/>
<rect x="175" width="1" height="104" fill="#BDB9B3"/>
<rect x="179" width="1" height="104" fill="#BDB9B3"/>
<rect x="183" width="1" height="104" fill="#BDB9B3"/>
<rect x="187" width="1" height="104" fill="#BDB9B3"/>
<rect x="191" width="1" height="104" fill="#BDB9B3"/>
<rect x="195" width="1" height="104" fill="#BDB9B3"/>
<rect x="199" width="1" height="104" fill="#BDB9B3"/>
<rect x="203" width="1" height="104" fill="#BDB9B3"/>
<rect x="207" width="1" height="104" fill="#BDB9B3"/>
<rect x="211" width="1" height="104" fill="#BDB9B3"/>
<rect x="215" width="1" height="104" fill="#BDB9B3"/>
<rect x="219" width="1" height="104" fill="#BDB9B3"/>
<rect x="120.5" y="99.5" width="1" height="104" transform="rotate(-90 120.5 99.5)" fill="#BDB9B3"/>
<rect x="120.5" y="95.5" width="1" height="104" transform="rotate(-90 120.5 95.5)" fill="#BDB9B3"/>
<rect x="120.5" y="91.5" width="1" height="104" transform="rotate(-90 120.5 91.5)" fill="#BDB9B3"/>
<rect x="120.5" y="87.5" width="1" height="104" transform="rotate(-90 120.5 87.5)" fill="#BDB9B3"/>
<rect x="120.5" y="83.5" width="1" height="104" transform="rotate(-90 120.5 83.5)" fill="#BDB9B3"/>
<rect x="120.5" y="79.5" width="1" height="104" transform="rotate(-90 120.5 79.5)" fill="#BDB9B3"/>
<rect x="120.5" y="75.5" width="1" height="104" transform="rotate(-90 120.5 75.5)" fill="#BDB9B3"/>
<rect x="120.5" y="71.5" width="1" height="104" transform="rotate(-90 120.5 71.5)" fill="#BDB9B3"/>
<rect x="120.5" y="67.5" width="1" height="104" transform="rotate(-90 120.5 67.5)" fill="#BDB9B3"/>
<rect x="120.5" y="63.5" width="1" height="104" transform="rotate(-90 120.5 63.5)" fill="#BDB9B3"/>
<rect x="120.5" y="59.5" width="1" height="104" transform="rotate(-90 120.5 59.5)" fill="#BDB9B3"/>
<rect x="120.5" y="55.5" width="1" height="104" transform="rotate(-90 120.5 55.5)" fill="#BDB9B3"/>
<rect x="120.5" y="51.5" width="1" height="104" transform="rotate(-90 120.5 51.5)" fill="#BDB9B3"/>
<rect x="120.5" y="47.5" width="1" height="104" transform="rotate(-90 120.5 47.5)" fill="#BDB9B3"/>
<rect x="120.5" y="43.5" width="1" height="104" transform="rotate(-90 120.5 43.5)" fill="#BDB9B3"/>
<rect x="120.5" y="39.5" width="1" height="104" transform="rotate(-90 120.5 39.5)" fill="#BDB9B3"/>
<rect x="120.5" y="35.5" width="1" height="104" transform="rotate(-90 120.5 35.5)" fill="#BDB9B3"/>
<rect x="120.5" y="31.5" width="1" height="104" transform="rotate(-90 120.5 31.5)" fill="#BDB9B3"/>
<rect x="120.5" y="27.5" width="1" height="104" transform="rotate(-90 120.5 27.5)" fill="#BDB9B3"/>
<rect x="120.5" y="23.5" width="1" height="104" transform="rotate(-90 120.5 23.5)" fill="#BDB9B3"/>
<rect x="120.5" y="19.5" width="1" height="104" transform="rotate(-90 120.5 19.5)" fill="#BDB9B3"/>
<rect x="120.5" y="15.5" width="1" height="104" transform="rotate(-90 120.5 15.5)" fill="#BDB9B3"/>
<rect x="120.5" y="11.5" width="1" height="104" transform="rotate(-90 120.5 11.5)" fill="#BDB9B3"/>
<rect x="120.5" y="7.5" width="1" height="104" transform="rotate(-90 120.5 7.5)" fill="#BDB9B3"/>
<rect x="120.5" y="3.5" width="1" height="104" transform="rotate(-90 120.5 3.5)" fill="#BDB9B3"/>
</g>
<path d="M159.824 52H157.926V39.8594C157.926 39.3984 157.926 39.0039 157.926 38.6758C157.934 38.3398 157.941 38.0352 157.949 37.7617C157.965 37.4805 157.984 37.1953 158.008 36.9062C157.766 37.1562 157.539 37.3711 157.328 37.5508C157.117 37.7227 156.855 37.9375 156.543 38.1953L154.586 39.7656L153.566 38.4414L158.207 34.8672H159.824V52ZM171.73 41.5234C172.895 41.5234 173.906 41.7227 174.766 42.1211C175.625 42.5117 176.289 43.082 176.758 43.832C177.234 44.582 177.473 45.4922 177.473 46.5625C177.473 47.7344 177.219 48.7461 176.711 49.5977C176.203 50.4414 175.473 51.0938 174.52 51.5547C173.566 52.0078 172.426 52.2344 171.098 52.2344C170.207 52.2344 169.379 52.1562 168.613 52C167.848 51.8438 167.203 51.6094 166.68 51.2969V49.4453C167.25 49.7891 167.941 50.0625 168.754 50.2656C169.566 50.4688 170.355 50.5703 171.121 50.5703C171.988 50.5703 172.746 50.4336 173.395 50.1602C174.051 49.8789 174.559 49.457 174.918 48.8945C175.285 48.3242 175.469 47.6094 175.469 46.75C175.469 45.6094 175.117 44.7305 174.414 44.1133C173.719 43.4883 172.617 43.1758 171.109 43.1758C170.625 43.1758 170.094 43.2148 169.516 43.293C168.938 43.3711 168.461 43.457 168.086 43.5508L167.102 42.9062L167.758 34.8672H176.277V36.6484H169.422L168.988 41.8164C169.285 41.7539 169.668 41.6914 170.137 41.6289C170.605 41.5586 171.137 41.5234 171.73 41.5234ZM191.371 43.4102C191.371 44.8008 191.266 46.043 191.055 47.1367C190.844 48.2305 190.512 49.1562 190.059 49.9141C189.605 50.6719 189.02 51.25 188.301 51.6484C187.582 52.0391 186.719 52.2344 185.711 52.2344C184.438 52.2344 183.383 51.8867 182.547 51.1914C181.719 50.4961 181.098 49.4922 180.684 48.1797C180.277 46.8594 180.074 45.2695 180.074 43.4102C180.074 41.582 180.258 40.0117 180.625 38.6992C181 37.3789 181.602 36.3672 182.43 35.6641C183.258 34.9531 184.352 34.5977 185.711 34.5977C187 34.5977 188.062 34.9492 188.898 35.6523C189.734 36.3477 190.355 37.3555 190.762 38.6758C191.168 39.9883 191.371 41.5664 191.371 43.4102ZM182.031 43.4102C182.031 45.0039 182.152 46.332 182.395 47.3945C182.637 48.457 183.027 49.2539 183.566 49.7852C184.113 50.3086 184.828 50.5703 185.711 50.5703C186.594 50.5703 187.305 50.3086 187.844 49.7852C188.391 49.2617 188.785 48.4688 189.027 47.4062C189.277 46.3438 189.402 45.0117 189.402 43.4102C189.402 41.8398 189.281 40.5273 189.039 39.4727C188.797 38.4102 188.406 37.6133 187.867 37.082C187.328 36.543 186.609 36.2734 185.711 36.2734C184.812 36.2734 184.094 36.543 183.555 37.082C183.016 37.6133 182.625 38.4102 182.383 39.4727C182.148 40.5273 182.031 41.8398 182.031 43.4102ZM164.688 60.5781C166.161 60.5781 167.237 60.8672 167.914 61.4453C168.596 62.0182 168.938 62.8411 168.938 63.9141C168.938 64.3984 168.857 64.8594 168.695 65.2969C168.539 65.7292 168.284 66.112 167.93 66.4453C167.576 66.7734 167.109 67.0339 166.531 67.2266C165.958 67.4141 165.255 67.5078 164.422 67.5078H163.031V72H161.703V60.5781H164.688ZM164.562 61.7109H163.031V66.3672H164.273C165.003 66.3672 165.609 66.2891 166.094 66.1328C166.583 65.9766 166.951 65.724 167.195 65.375C167.44 65.0208 167.562 64.5521 167.562 63.9688C167.562 63.2083 167.32 62.6432 166.836 62.2734C166.352 61.8984 165.594 61.7109 164.562 61.7109ZM174.312 60.5781C175.786 60.5781 176.862 60.8672 177.539 61.4453C178.221 62.0182 178.562 62.8411 178.562 63.9141C178.562 64.3984 178.482 64.8594 178.32 65.2969C178.164 65.7292 177.909 66.112 177.555 66.4453C177.201 66.7734 176.734 67.0339 176.156 67.2266C175.583 67.4141 174.88 67.5078 174.047 67.5078H172.656V72H171.328V60.5781H174.312ZM174.188 61.7109H172.656V66.3672H173.898C174.628 66.3672 175.234 66.2891 175.719 66.1328C176.208 65.9766 176.576 65.724 176.82 65.375C177.065 65.0208 177.188 64.5521 177.188 63.9688C177.188 63.2083 176.945 62.6432 176.461 62.2734C175.977 61.8984 175.219 61.7109 174.188 61.7109ZM180.953 72V60.5781H182.281V72H180.953Z" fill="#2F2D28"/>
<circle cx="52" cy="52" r="51" fill="#D1DFFA" stroke="#726F68" stroke-width="2"/>
<mask id="mask2_47_66" style="mask-type:alpha" maskUnits="userSpaceOnUse" x="2" y="2" width="100" height="100">
<circle cx="52" cy="52" r="49" fill="#D1DFFA" stroke="#726F68" stroke-width="2"/>
</mask>
<g mask="url(#mask2_47_66)">
<rect x="3" width="1" height="104" fill="#BDB9B3"/>
<rect x="11" width="1" height="104" fill="#BDB9B3"/>
<rect x="19" width="1" height="104" fill="#BDB9B3"/>
<rect x="27" width="1" height="104" fill="#BDB9B3"/>
<rect x="35" width="1" height="104" fill="#BDB9B3"/>
<rect x="43" width="1" height="104" fill="#BDB9B3"/>
<rect x="51" width="1" height="104" fill="#BDB9B3"/>
<rect x="59" width="1" height="104" fill="#BDB9B3"/>
<rect x="67" width="1" height="104" fill="#BDB9B3"/>
<rect x="75" width="1" height="104" fill="#BDB9B3"/>
<rect x="83" width="1" height="104" fill="#BDB9B3"/>
<rect x="91" width="1" height="104" fill="#BDB9B3"/>
<rect x="99" width="1" height="104" fill="#BDB9B3"/>
<rect x="0.5" y="99.5" width="1" height="104" transform="rotate(-90 0.5 99.5)" fill="#BDB9B3"/>
<rect x="0.5" y="91.5" width="1" height="104" transform="rotate(-90 0.5 91.5)" fill="#BDB9B3"/>
<rect x="0.5" y="83.5" width="1" height="104" transform="rotate(-90 0.5 83.5)" fill="#BDB9B3"/>
<rect x="0.5" y="75.5" width="1" height="104" transform="rotate(-90 0.5 75.5)" fill="#BDB9B3"/>
<rect x="0.5" y="67.5" width="1" height="104" transform="rotate(-90 0.5 67.5)" fill="#BDB9B3"/>
<rect x="0.5" y="59.5" width="1" height="104" transform="rotate(-90 0.5 59.5)" fill="#BDB9B3"/>
<rect x="0.5" y="51.5" width="1" height="104" transform="rotate(-90 0.5 51.5)" fill="#BDB9B3"/>
<rect x="0.5" y="43.5" width="1" height="104" transform="rotate(-90 0.5 43.5)" fill="#BDB9B3"/>
<rect x="0.5" y="35.5" width="1" height="104" transform="rotate(-90 0.5 35.5)" fill="#BDB9B3"/>
<rect x="0.5" y="27.5" width="1" height="104" transform="rotate(-90 0.5 27.5)" fill="#BDB9B3"/>
<rect x="0.5" y="19.5" width="1" height="104" transform="rotate(-90 0.5 19.5)" fill="#BDB9B3"/>
<rect x="0.5" y="11.5" width="1" height="104" transform="rotate(-90 0.5 11.5)" fill="#BDB9B3"/>
<rect x="0.5" y="3.5" width="1" height="104" transform="rotate(-90 0.5 3.5)" fill="#BDB9B3"/>
</g>
<path d="M41.6641 52L48.6953 36.6484H39.3555V34.8672H50.7812V36.3672L43.7969 52H41.6641ZM64.4102 52H53.1836V50.3711L57.7656 45.7188C58.6172 44.8594 59.332 44.0938 59.9102 43.4219C60.4961 42.75 60.9414 42.0898 61.2461 41.4414C61.5508 40.7852 61.7031 40.0664 61.7031 39.2852C61.7031 38.3164 61.4141 37.5781 60.8359 37.0703C60.2656 36.5547 59.5117 36.2969 58.5742 36.2969C57.7539 36.2969 57.0273 36.4375 56.3945 36.7188C55.7617 37 55.1133 37.3984 54.4492 37.9141L53.4062 36.6016C53.8594 36.2188 54.3516 35.8789 54.8828 35.582C55.4219 35.2852 55.9961 35.0508 56.6055 34.8789C57.2227 34.707 57.8789 34.6211 58.5742 34.6211C59.6289 34.6211 60.5391 34.8047 61.3047 35.1719C62.0703 35.5391 62.6602 36.0625 63.0742 36.7422C63.4961 37.4219 63.707 38.2305 63.707 39.168C63.707 40.0742 63.5273 40.918 63.168 41.6992C62.8086 42.4727 62.3047 43.2422 61.6562 44.0078C61.0078 44.7656 60.25 45.5703 59.3828 46.4219L55.6562 50.1367V50.2188H64.4102V52ZM44.6875 60.5781C46.1615 60.5781 47.237 60.8672 47.9141 61.4453C48.5964 62.0182 48.9375 62.8411 48.9375 63.9141C48.9375 64.3984 48.8568 64.8594 48.6953 65.2969C48.5391 65.7292 48.2839 66.112 47.9297 66.4453C47.5755 66.7734 47.1094 67.0339 46.5312 67.2266C45.9583 67.4141 45.2552 67.5078 44.4219 67.5078H43.0312V72H41.7031V60.5781H44.6875ZM44.5625 61.7109H43.0312V66.3672H44.2734C45.0026 66.3672 45.6094 66.2891 46.0938 66.1328C46.5833 65.9766 46.9505 65.724 47.1953 65.375C47.4401 65.0208 47.5625 64.5521 47.5625 63.9688C47.5625 63.2083 47.3203 62.6432 46.8359 62.2734C46.3516 61.8984 45.5938 61.7109 44.5625 61.7109ZM54.3125 60.5781C55.7865 60.5781 56.862 60.8672 57.5391 61.4453C58.2214 62.0182 58.5625 62.8411 58.5625 63.9141C58.5625 64.3984 58.4818 64.8594 58.3203 65.2969C58.1641 65.7292 57.9089 66.112 57.5547 66.4453C57.2005 66.7734 56.7344 67.0339 56.1562 67.2266C55.5833 67.4141 54.8802 67.5078 54.0469 67.5078H52.6562V72H51.3281V60.5781H54.3125ZM54.1875 61.7109H52.6562V66.3672H53.8984C54.6276 66.3672 55.2344 66.2891 55.7188 66.1328C56.2083 65.9766 56.5755 65.724 56.8203 65.375C57.0651 65.0208 57.1875 64.5521 57.1875 63.9688C57.1875 63.2083 56.9453 62.6432 56.4609 62.2734C55.9766 61.8984 55.2188 61.7109 54.1875 61.7109ZM60.9531 72V60.5781H62.2812V72H60.9531Z" fill="#2F2D28"/>
</svg>
