<svg width="280" height="108" viewBox="0 0 280 108" fill="none" xmlns="http://www.w3.org/2000/svg">
<rect width="280" height="108" rx="4" fill="#EBE9E7"/>
<path d="M33.2031 26.4102C33.2031 27.7305 33.0352 28.9336 32.6992 30.0195C32.3633 31.0977 31.8633 32.0273 31.1992 32.8086C30.543 33.582 29.7266 34.1797 28.75 34.6016C27.7734 35.0234 26.6406 35.2344 25.3516 35.2344C24.0234 35.2344 22.8633 35.0234 21.8711 34.6016C20.8867 34.1797 20.0664 33.5781 19.4102 32.7969C18.7617 32.0156 18.2734 31.082 17.9453 29.9961C17.625 28.9102 17.4648 27.707 17.4648 26.3867C17.4648 24.6367 17.7539 23.1016 18.332 21.7812C18.9102 20.4609 19.7852 19.4336 20.957 18.6992C22.1367 17.9648 23.6133 17.5977 25.3867 17.5977C27.082 17.5977 28.5078 17.9609 29.6641 18.6875C30.8281 19.4141 31.707 20.4375 32.3008 21.7578C32.9023 23.0703 33.2031 24.6211 33.2031 26.4102ZM19.5625 26.4102C19.5625 27.8633 19.7695 29.1211 20.1836 30.1836C20.5977 31.2461 21.2305 32.0664 22.082 32.6445C22.9414 33.2227 24.0312 33.5117 25.3516 33.5117C26.6797 33.5117 27.7656 33.2227 28.6094 32.6445C29.4609 32.0664 30.0898 31.2461 30.4961 30.1836C30.9023 29.1211 31.1055 27.8633 31.1055 26.4102C31.1055 24.1992 30.6406 22.4727 29.7109 21.2305C28.7891 19.9805 27.3477 19.3555 25.3867 19.3555C24.0586 19.3555 22.9648 19.6406 22.1055 20.2109C21.2461 20.7812 20.6055 21.5938 20.1836 22.6484C19.7695 23.6953 19.5625 24.9492 19.5625 26.4102Z" fill="#2F2D28"/>
<path d="M42.7656 21.9219C44.3672 21.9219 45.6445 22.4727 46.5977 23.5742C47.5508 24.6758 48.0273 26.332 48.0273 28.543C48.0273 30.0039 47.8086 31.2305 47.3711 32.2227C46.9336 33.2148 46.3164 33.9648 45.5195 34.4727C44.7305 34.9805 43.7969 35.2344 42.7188 35.2344C42.0391 35.2344 41.4414 35.1445 40.9258 34.9648C40.4102 34.7852 39.9688 34.543 39.6016 34.2383C39.2344 33.9336 38.9297 33.6016 38.6875 33.2422H38.5469C38.5703 33.5469 38.5977 33.9141 38.6289 34.3438C38.668 34.7734 38.6875 35.1484 38.6875 35.4688V40.7422H36.7305V22.1562H38.3359L38.5938 24.0547H38.6875C38.9375 23.6641 39.2422 23.3086 39.6016 22.9883C39.9609 22.6602 40.3984 22.4023 40.9141 22.2148C41.4375 22.0195 42.0547 21.9219 42.7656 21.9219ZM42.4258 23.5625C41.5352 23.5625 40.8164 23.7344 40.2695 24.0781C39.7305 24.4219 39.3359 24.9375 39.0859 25.625C38.8359 26.3047 38.7031 27.1602 38.6875 28.1914V28.5664C38.6875 29.6523 38.8047 30.5703 39.0391 31.3203C39.2812 32.0703 39.6758 32.6406 40.2227 33.0312C40.7773 33.4219 41.5195 33.6172 42.4492 33.6172C43.2461 33.6172 43.9102 33.4023 44.4414 32.9727C44.9727 32.543 45.3672 31.9453 45.625 31.1797C45.8906 30.4062 46.0234 29.5195 46.0234 28.5195C46.0234 27.0039 45.7266 25.8008 45.1328 24.9102C44.5469 24.0117 43.6445 23.5625 42.4258 23.5625Z" fill="#2F2D28"/>
<path d="M56.3711 21.9219C57.4648 21.9219 58.4023 22.1641 59.1836 22.6484C59.9648 23.1328 60.5625 23.8125 60.9766 24.6875C61.3906 25.5547 61.5977 26.5703 61.5977 27.7344V28.9414H52.7266C52.75 30.4492 53.125 31.5977 53.8516 32.3867C54.5781 33.1758 55.6016 33.5703 56.9219 33.5703C57.7344 33.5703 58.4531 33.4961 59.0781 33.3477C59.7031 33.1992 60.3516 32.9805 61.0234 32.6914V34.4023C60.375 34.6914 59.7305 34.9023 59.0898 35.0352C58.457 35.168 57.707 35.2344 56.8398 35.2344C55.6055 35.2344 54.5273 34.9844 53.6055 34.4844C52.6914 33.9766 51.9805 33.2344 51.4727 32.2578C50.9648 31.2812 50.7109 30.0859 50.7109 28.6719C50.7109 27.2891 50.9414 26.0938 51.4023 25.0859C51.8711 24.0703 52.5273 23.2891 53.3711 22.7422C54.2227 22.1953 55.2227 21.9219 56.3711 21.9219ZM56.3477 23.5156C55.3086 23.5156 54.4805 23.8555 53.8633 24.5352C53.2461 25.2148 52.8789 26.1641 52.7617 27.3828H59.5586C59.5508 26.6172 59.4297 25.9453 59.1953 25.3672C58.9688 24.7812 58.6211 24.3281 58.1523 24.0078C57.6836 23.6797 57.082 23.5156 56.3477 23.5156Z" fill="#2F2D28"/>
<path d="M70.9844 21.9219C72.5078 21.9219 73.6602 22.2969 74.4414 23.0469C75.2227 23.7891 75.6133 24.9844 75.6133 26.6328V35H73.6914V26.7617C73.6914 25.6914 73.4453 24.8906 72.9531 24.3594C72.4688 23.8281 71.7227 23.5625 70.7148 23.5625C69.293 23.5625 68.293 23.9648 67.7148 24.7695C67.1367 25.5742 66.8477 26.7422 66.8477 28.2734V35H64.9023V22.1562H66.4727L66.7656 24.0078H66.8711C67.1445 23.5547 67.4922 23.1758 67.9141 22.8711C68.3359 22.5586 68.8086 22.3242 69.332 22.168C69.8555 22.0039 70.4062 21.9219 70.9844 21.9219Z" fill="#2F2D28"/>
<path d="M95.8164 30.4414C95.8164 31.457 95.5625 32.3242 95.0547 33.043C94.5547 33.7539 93.8516 34.2969 92.9453 34.6719C92.0391 35.0469 90.9727 35.2344 89.7461 35.2344C89.0977 35.2344 88.4844 35.2031 87.9062 35.1406C87.3281 35.0781 86.7969 34.9883 86.3125 34.8711C85.8281 34.7539 85.4023 34.6094 85.0352 34.4375V32.5273C85.6211 32.7695 86.3359 32.9961 87.1797 33.207C88.0234 33.4102 88.9062 33.5117 89.8281 33.5117C90.6875 33.5117 91.4141 33.3984 92.0078 33.1719C92.6016 32.9375 93.0508 32.6055 93.3555 32.1758C93.668 31.7383 93.8242 31.2148 93.8242 30.6055C93.8242 30.0195 93.6953 29.5312 93.4375 29.1406C93.1797 28.7422 92.75 28.3828 92.1484 28.0625C91.5547 27.7344 90.7422 27.3867 89.7109 27.0195C88.9844 26.7617 88.3438 26.4805 87.7891 26.1758C87.2344 25.8633 86.7695 25.5117 86.3945 25.1211C86.0195 24.7305 85.7344 24.2773 85.5391 23.7617C85.3516 23.2461 85.2578 22.6562 85.2578 21.9922C85.2578 21.0781 85.4883 20.2969 85.9492 19.6484C86.418 18.9922 87.0625 18.4922 87.8828 18.1484C88.7109 17.7969 89.6602 17.6211 90.7305 17.6211C91.6445 17.6211 92.4883 17.707 93.2617 17.8789C94.043 18.0508 94.7578 18.2812 95.4062 18.5703L94.7852 20.2812C94.168 20.0234 93.5117 19.8086 92.8164 19.6367C92.1289 19.4648 91.418 19.3789 90.6836 19.3789C89.9492 19.3789 89.3281 19.4883 88.8203 19.707C88.3203 19.918 87.9375 20.2188 87.6719 20.6094C87.4062 21 87.2734 21.4648 87.2734 22.0039C87.2734 22.6055 87.3984 23.1055 87.6484 23.5039C87.9062 23.9023 88.3125 24.2578 88.8672 24.5703C89.4297 24.875 90.1719 25.1953 91.0938 25.5312C92.1016 25.8984 92.957 26.2891 93.6602 26.7031C94.3633 27.1094 94.8984 27.6094 95.2656 28.2031C95.6328 28.7891 95.8164 29.5352 95.8164 30.4414Z" fill="#2F2D28"/>
<path d="M103.832 21.9453C105.363 21.9453 106.5 22.2891 107.242 22.9766C107.984 23.6641 108.355 24.7617 108.355 26.2695V35H106.938L106.562 33.1016H106.469C106.109 33.5703 105.734 33.9648 105.344 34.2852C104.953 34.5977 104.5 34.8359 103.984 35C103.477 35.1562 102.852 35.2344 102.109 35.2344C101.328 35.2344 100.633 35.0977 100.023 34.8242C99.4219 34.5508 98.9453 34.1367 98.5938 33.582C98.25 33.0273 98.0781 32.3242 98.0781 31.4727C98.0781 30.1914 98.5859 29.207 99.6016 28.5195C100.617 27.832 102.164 27.457 104.242 27.3945L106.457 27.3008V26.5156C106.457 25.4062 106.219 24.6289 105.742 24.1836C105.266 23.7383 104.594 23.5156 103.727 23.5156C103.055 23.5156 102.414 23.6133 101.805 23.8086C101.195 24.0039 100.617 24.2344 100.07 24.5L99.4727 23.0234C100.051 22.7266 100.715 22.4727 101.465 22.2617C102.215 22.0508 103.004 21.9453 103.832 21.9453ZM106.434 28.6719L104.477 28.7539C102.875 28.8164 101.746 29.0781 101.09 29.5391C100.434 30 100.105 30.6523 100.105 31.4961C100.105 32.2305 100.328 32.7734 100.773 33.125C101.219 33.4766 101.809 33.6523 102.543 33.6523C103.684 33.6523 104.617 33.3359 105.344 32.7031C106.07 32.0703 106.434 31.1211 106.434 29.8555V28.6719Z" fill="#2F2D28"/>
<path d="M118.445 21.9219C119.969 21.9219 121.121 22.2969 121.902 23.0469C122.684 23.7891 123.074 24.9844 123.074 26.6328V35H121.152V26.7617C121.152 25.6914 120.906 24.8906 120.414 24.3594C119.93 23.8281 119.184 23.5625 118.176 23.5625C116.754 23.5625 115.754 23.9648 115.176 24.7695C114.598 25.5742 114.309 26.7422 114.309 28.2734V35H112.363V22.1562H113.934L114.227 24.0078H114.332C114.605 23.5547 114.953 23.1758 115.375 22.8711C115.797 22.5586 116.27 22.3242 116.793 22.168C117.316 22.0039 117.867 21.9219 118.445 21.9219Z" fill="#2F2D28"/>
<path d="M135.391 31.4844C135.391 32.3047 135.184 32.9961 134.77 33.5586C134.363 34.1133 133.777 34.5312 133.012 34.8125C132.254 35.0938 131.348 35.2344 130.293 35.2344C129.395 35.2344 128.617 35.1641 127.961 35.0234C127.305 34.8828 126.73 34.6836 126.238 34.4258V32.6328C126.762 32.8906 127.387 33.125 128.113 33.3359C128.84 33.5469 129.582 33.6523 130.34 33.6523C131.449 33.6523 132.254 33.4727 132.754 33.1133C133.254 32.7539 133.504 32.2656 133.504 31.6484C133.504 31.2969 133.402 30.9883 133.199 30.7227C133.004 30.4492 132.672 30.1875 132.203 29.9375C131.734 29.6797 131.086 29.3984 130.258 29.0938C129.438 28.7812 128.727 28.4727 128.125 28.168C127.531 27.8555 127.07 27.4766 126.742 27.0312C126.422 26.5859 126.262 26.0078 126.262 25.2969C126.262 24.2109 126.699 23.3789 127.574 22.8008C128.457 22.2148 129.613 21.9219 131.043 21.9219C131.816 21.9219 132.539 22 133.211 22.1562C133.891 22.3047 134.523 22.5078 135.109 22.7656L134.453 24.3242C133.922 24.0977 133.355 23.9062 132.754 23.75C132.152 23.5938 131.539 23.5156 130.914 23.5156C130.016 23.5156 129.324 23.6641 128.84 23.9609C128.363 24.2578 128.125 24.6641 128.125 25.1797C128.125 25.5781 128.234 25.9062 128.453 26.1641C128.68 26.4219 129.039 26.6641 129.531 26.8906C130.023 27.1172 130.672 27.3828 131.477 27.6875C132.281 27.9844 132.977 28.293 133.562 28.6133C134.148 28.9258 134.598 29.3086 134.91 29.7617C135.23 30.207 135.391 30.7812 135.391 31.4844Z" fill="#2F2D28"/>
<path d="M79.952 61.044V63H70.196V45.804H72.512V61.044H79.952Z" fill="#2F2D28"/>
<path d="M88.6081 57.528C87.6241 57.56 86.7841 57.64 86.0881 57.768C85.4001 57.888 84.8361 58.048 84.3961 58.248C83.9641 58.448 83.6481 58.684 83.4481 58.956C83.2561 59.228 83.1601 59.532 83.1601 59.868C83.1601 60.188 83.2121 60.464 83.3161 60.696C83.4201 60.928 83.5601 61.12 83.7361 61.272C83.9201 61.416 84.1321 61.524 84.3721 61.596C84.6201 61.66 84.8841 61.692 85.1641 61.692C85.5401 61.692 85.8841 61.656 86.1961 61.584C86.5081 61.504 86.8001 61.392 87.0721 61.248C87.3521 61.104 87.6161 60.932 87.8641 60.732C88.1201 60.532 88.3681 60.304 88.6081 60.048V57.528ZM81.7081 52.56C82.3801 51.912 83.1041 51.428 83.8801 51.108C84.6561 50.788 85.5161 50.628 86.4601 50.628C87.1401 50.628 87.7441 50.74 88.2721 50.964C88.8001 51.188 89.2441 51.5 89.6041 51.9C89.9641 52.3 90.2361 52.784 90.4201 53.352C90.6041 53.92 90.6961 54.544 90.6961 55.224V63H89.7481C89.5401 63 89.3801 62.968 89.2681 62.904C89.1561 62.832 89.0681 62.696 89.0041 62.496L88.7641 61.344C88.4441 61.64 88.1321 61.904 87.8281 62.136C87.5241 62.36 87.2041 62.552 86.8681 62.712C86.5321 62.864 86.1721 62.98 85.7881 63.06C85.4121 63.148 84.9921 63.192 84.5281 63.192C84.0561 63.192 83.6121 63.128 83.1961 63C82.7801 62.864 82.4161 62.664 82.1041 62.4C81.8001 62.136 81.5561 61.804 81.3721 61.404C81.1961 60.996 81.1081 60.516 81.1081 59.964C81.1081 59.484 81.2401 59.024 81.5041 58.584C81.7681 58.136 82.1961 57.74 82.7881 57.396C83.3801 57.052 84.1521 56.772 85.1041 56.556C86.0561 56.332 87.2241 56.204 88.6081 56.172V55.224C88.6081 54.28 88.4041 53.568 87.9961 53.088C87.5881 52.6 86.9921 52.356 86.2081 52.356C85.6801 52.356 85.2361 52.424 84.8761 52.56C84.5241 52.688 84.2161 52.836 83.9521 53.004C83.6961 53.164 83.4721 53.312 83.2801 53.448C83.0961 53.576 82.9121 53.64 82.7281 53.64C82.5841 53.64 82.4601 53.604 82.3561 53.532C82.2521 53.452 82.1641 53.356 82.0921 53.244L81.7081 52.56Z" fill="#2F2D28"/>
<path d="M97.5178 63.192C96.5578 63.192 95.8178 62.924 95.2978 62.388C94.7858 61.852 94.5297 61.08 94.5297 60.072V52.632H93.0658C92.9378 52.632 92.8298 52.596 92.7418 52.524C92.6538 52.444 92.6097 52.324 92.6097 52.164V51.312L94.6018 51.06L95.0938 47.304C95.1178 47.184 95.1697 47.088 95.2497 47.016C95.3377 46.936 95.4497 46.896 95.5857 46.896H96.6657V51.084H100.182V52.632H96.6657V59.928C96.6657 60.44 96.7898 60.82 97.0378 61.068C97.2858 61.316 97.6057 61.44 97.9977 61.44C98.2217 61.44 98.4138 61.412 98.5738 61.356C98.7418 61.292 98.8858 61.224 99.0058 61.152C99.1258 61.08 99.2257 61.016 99.3057 60.96C99.3937 60.896 99.4698 60.864 99.5338 60.864C99.6458 60.864 99.7457 60.932 99.8337 61.068L100.458 62.088C100.09 62.432 99.6457 62.704 99.1257 62.904C98.6057 63.096 98.0698 63.192 97.5178 63.192Z" fill="#2F2D28"/>
<path d="M107.441 50.652C108.329 50.652 109.129 50.8 109.841 51.096C110.553 51.392 111.161 51.812 111.665 52.356C112.169 52.9 112.553 53.56 112.817 54.336C113.089 55.104 113.225 55.964 113.225 56.916C113.225 57.876 113.089 58.74 112.817 59.508C112.553 60.276 112.169 60.932 111.665 61.476C111.161 62.02 110.553 62.44 109.841 62.736C109.129 63.024 108.329 63.168 107.441 63.168C106.545 63.168 105.737 63.024 105.017 62.736C104.305 62.44 103.697 62.02 103.193 61.476C102.689 60.932 102.301 60.276 102.029 59.508C101.765 58.74 101.633 57.876 101.633 56.916C101.633 55.964 101.765 55.104 102.029 54.336C102.301 53.56 102.689 52.9 103.193 52.356C103.697 51.812 104.305 51.392 105.017 51.096C105.737 50.8 106.545 50.652 107.441 50.652ZM107.441 61.5C108.641 61.5 109.537 61.1 110.129 60.3C110.721 59.492 111.017 58.368 111.017 56.928C111.017 55.48 110.721 54.352 110.129 53.544C109.537 52.736 108.641 52.332 107.441 52.332C106.833 52.332 106.301 52.436 105.845 52.644C105.397 52.852 105.021 53.152 104.717 53.544C104.421 53.936 104.197 54.42 104.045 54.996C103.901 55.564 103.829 56.208 103.829 56.928C103.829 58.368 104.125 59.492 104.717 60.3C105.317 61.1 106.225 61.5 107.441 61.5Z" fill="#2F2D28"/>
<path d="M31.136 90V72.96H38.336C39.072 72.96 39.744 73.112 40.352 73.416C40.96 73.72 41.488 74.136 41.936 74.664C42.4 75.176 42.752 75.752 42.992 76.392C43.248 77.016 43.376 77.656 43.376 78.312C43.376 79.128 43.216 79.896 42.896 80.616C42.592 81.336 42.152 81.944 41.576 82.44C41.016 82.936 40.352 83.264 39.584 83.424L43.76 90H41.864L37.856 83.712H32.816V90H31.136ZM32.816 82.224H38.384C39.056 82.224 39.64 82.04 40.136 81.672C40.632 81.304 41.016 80.824 41.288 80.232C41.56 79.624 41.696 78.984 41.696 78.312C41.696 77.624 41.536 76.992 41.216 76.416C40.912 75.824 40.496 75.352 39.968 75C39.456 74.632 38.88 74.448 38.24 74.448H32.816V82.224Z" fill="#2F2D28"/>
<path d="M45.2842 86.4C45.2842 85.616 45.5082 84.944 45.9562 84.384C46.4042 83.808 47.0202 83.368 47.8042 83.064C48.6042 82.744 49.5242 82.584 50.5642 82.584C51.1722 82.584 51.8042 82.632 52.4602 82.728C53.1162 82.824 53.7002 82.968 54.2122 83.16V82.104C54.2122 81.048 53.9002 80.208 53.2762 79.584C52.6522 78.96 51.7882 78.648 50.6842 78.648C50.0122 78.648 49.3482 78.776 48.6922 79.032C48.0522 79.272 47.3802 79.632 46.6762 80.112L46.0522 78.96C46.8682 78.4 47.6682 77.984 48.4522 77.712C49.2362 77.424 50.0362 77.28 50.8522 77.28C52.3882 77.28 53.6042 77.72 54.5002 78.6C55.3962 79.48 55.8442 80.696 55.8442 82.248V88.032C55.8442 88.256 55.8922 88.424 55.9882 88.536C56.0842 88.632 56.2362 88.688 56.4442 88.704V90C56.2682 90.016 56.1162 90.032 55.9882 90.048C55.8602 90.064 55.7642 90.064 55.7002 90.048C55.3002 90.032 54.9962 89.904 54.7882 89.664C54.5802 89.424 54.4682 89.168 54.4522 88.896L54.4282 87.984C53.8682 88.704 53.1402 89.264 52.2442 89.664C51.3482 90.048 50.4362 90.24 49.5082 90.24C48.7082 90.24 47.9802 90.072 47.3242 89.736C46.6842 89.384 46.1802 88.92 45.8122 88.344C45.4602 87.752 45.2842 87.104 45.2842 86.4ZM53.6602 87.36C53.8362 87.136 53.9722 86.92 54.0682 86.712C54.1642 86.504 54.2122 86.32 54.2122 86.16V84.336C53.6682 84.128 53.1002 83.968 52.5082 83.856C51.9322 83.744 51.3482 83.688 50.7562 83.688C49.5882 83.688 48.6442 83.92 47.9242 84.384C47.2042 84.848 46.8442 85.48 46.8442 86.28C46.8442 86.744 46.9642 87.184 47.2042 87.6C47.4442 88 47.7962 88.336 48.2602 88.608C48.7242 88.864 49.2682 88.992 49.8922 88.992C50.6762 88.992 51.4042 88.84 52.0762 88.536C52.7642 88.232 53.2922 87.84 53.6602 87.36Z" fill="#2F2D28"/>
<path d="M59.4423 72.48H61.0743V87.168C61.0743 87.792 61.1863 88.2 61.4103 88.392C61.6343 88.584 61.9063 88.68 62.2263 88.68C62.5143 88.68 62.8023 88.648 63.0903 88.584C63.3783 88.52 63.6263 88.456 63.8343 88.392L64.1223 89.712C63.8183 89.84 63.4423 89.944 62.9943 90.024C62.5623 90.104 62.1863 90.144 61.8663 90.144C61.1303 90.144 60.5383 89.928 60.0903 89.496C59.6583 89.064 59.4423 88.472 59.4423 87.72V72.48Z" fill="#2F2D28"/>
<path d="M71.3094 90.24C70.4134 90.24 69.5814 90.072 68.8134 89.736C68.0454 89.384 67.3814 88.912 66.8214 88.32C66.2614 87.712 65.8214 87.016 65.5014 86.232C65.1974 85.448 65.0454 84.608 65.0454 83.712C65.0454 82.544 65.3094 81.472 65.8374 80.496C66.3814 79.52 67.1254 78.744 68.0694 78.168C69.0134 77.576 70.0854 77.28 71.2854 77.28C72.5174 77.28 73.5894 77.576 74.5014 78.168C75.4294 78.76 76.1574 79.544 76.6854 80.52C77.2134 81.48 77.4774 82.536 77.4774 83.688C77.4774 83.816 77.4774 83.944 77.4774 84.072C77.4774 84.184 77.4694 84.272 77.4534 84.336H66.7494C66.8294 85.232 67.0774 86.032 67.4934 86.736C67.9254 87.424 68.4774 87.976 69.1494 88.392C69.8374 88.792 70.5814 88.992 71.3814 88.992C72.1974 88.992 72.9654 88.784 73.6854 88.368C74.4214 87.952 74.9334 87.408 75.2214 86.736L76.6374 87.12C76.3814 87.712 75.9894 88.248 75.4614 88.728C74.9334 89.208 74.3094 89.584 73.5894 89.856C72.8854 90.112 72.1254 90.24 71.3094 90.24ZM66.7014 83.16H75.9414C75.8774 82.248 75.6294 81.448 75.1974 80.76C74.7814 80.072 74.2294 79.536 73.5414 79.152C72.8694 78.752 72.1254 78.552 71.3094 78.552C70.4934 78.552 69.7494 78.752 69.0774 79.152C68.4054 79.536 67.8534 80.08 67.4214 80.784C67.0054 81.472 66.7654 82.264 66.7014 83.16Z" fill="#2F2D28"/>
<path d="M95.4112 77.496H97.0192L91.6432 90H90.2272L87.6112 83.784L85.0192 90H83.6032L78.2272 77.496H79.8112L84.3712 88.32L86.6752 82.68L84.5632 77.52H86.0272L87.6112 81.576L89.2192 77.52H90.6592L88.5712 82.68L90.8752 88.32L95.4112 77.496Z" fill="#2F2D28"/>
<path d="M97.8779 86.4C97.8779 85.616 98.1019 84.944 98.5499 84.384C98.9979 83.808 99.6139 83.368 100.398 83.064C101.198 82.744 102.118 82.584 103.158 82.584C103.766 82.584 104.398 82.632 105.054 82.728C105.71 82.824 106.294 82.968 106.806 83.16V82.104C106.806 81.048 106.494 80.208 105.87 79.584C105.246 78.96 104.382 78.648 103.278 78.648C102.606 78.648 101.942 78.776 101.286 79.032C100.646 79.272 99.9739 79.632 99.2699 80.112L98.6459 78.96C99.4619 78.4 100.262 77.984 101.046 77.712C101.83 77.424 102.63 77.28 103.446 77.28C104.982 77.28 106.198 77.72 107.094 78.6C107.99 79.48 108.438 80.696 108.438 82.248V88.032C108.438 88.256 108.486 88.424 108.582 88.536C108.678 88.632 108.83 88.688 109.038 88.704V90C108.862 90.016 108.71 90.032 108.582 90.048C108.454 90.064 108.358 90.064 108.294 90.048C107.894 90.032 107.59 89.904 107.382 89.664C107.174 89.424 107.062 89.168 107.046 88.896L107.022 87.984C106.462 88.704 105.734 89.264 104.838 89.664C103.942 90.048 103.03 90.24 102.102 90.24C101.302 90.24 100.574 90.072 99.9179 89.736C99.2779 89.384 98.7739 88.92 98.4059 88.344C98.0539 87.752 97.8779 87.104 97.8779 86.4ZM106.254 87.36C106.43 87.136 106.566 86.92 106.662 86.712C106.758 86.504 106.806 86.32 106.806 86.16V84.336C106.262 84.128 105.694 83.968 105.102 83.856C104.526 83.744 103.942 83.688 103.35 83.688C102.182 83.688 101.238 83.92 100.518 84.384C99.7979 84.848 99.4379 85.48 99.4379 86.28C99.4379 86.744 99.5579 87.184 99.7979 87.6C100.038 88 100.39 88.336 100.854 88.608C101.318 88.864 101.862 88.992 102.486 88.992C103.27 88.992 103.998 88.84 104.67 88.536C105.358 88.232 105.886 87.84 106.254 87.36Z" fill="#2F2D28"/>
<path d="M112.309 93.84C112.533 93.856 112.749 93.864 112.957 93.864C113.165 93.88 113.317 93.872 113.413 93.84C113.605 93.808 113.789 93.696 113.965 93.504C114.141 93.312 114.349 92.944 114.589 92.4C114.829 91.856 115.165 91.056 115.597 90L110.149 77.496H111.877L116.461 88.32L120.685 77.496H122.317L115.837 93.624C115.725 93.928 115.557 94.208 115.333 94.464C115.109 94.736 114.829 94.944 114.493 95.088C114.173 95.248 113.773 95.336 113.293 95.352C113.149 95.368 112.997 95.368 112.837 95.352C112.693 95.352 112.517 95.336 112.309 95.304V93.84Z" fill="#2F2D28"/>
<path d="M160.965 62L167.562 44.8203H170.012L177.043 62H174.453L172.449 56.7969H165.266L163.379 62H160.965ZM165.922 54.9453H171.746L169.953 50.1875C169.406 48.7422 169 47.5547 168.734 46.625C168.516 47.7266 168.207 48.8203 167.809 49.9062L165.922 54.9453Z" fill="#2F2D28"/>
<path d="M178.566 62V49.5547H180.465V51.4414C180.949 50.5586 181.395 49.9766 181.801 49.6953C182.215 49.4141 182.668 49.2734 183.16 49.2734C183.871 49.2734 184.594 49.5 185.328 49.9531L184.602 51.9102C184.086 51.6055 183.57 51.4531 183.055 51.4531C182.594 51.4531 182.18 51.5938 181.812 51.875C181.445 52.1484 181.184 52.5312 181.027 53.0234C180.793 53.7734 180.676 54.5938 180.676 55.4844V62H178.566Z" fill="#2F2D28"/>
<path d="M186.594 47.2461V44.8203H188.703V47.2461H186.594ZM186.594 62V49.5547H188.703V62H186.594Z" fill="#2F2D28"/>
<path d="M200.047 60.4648C199.266 61.1289 198.512 61.5977 197.785 61.8711C197.066 62.1445 196.293 62.2812 195.465 62.2812C194.098 62.2812 193.047 61.9492 192.312 61.2852C191.578 60.6133 191.211 59.7578 191.211 58.7188C191.211 58.1094 191.348 57.5547 191.621 57.0547C191.902 56.5469 192.266 56.1406 192.711 55.8359C193.164 55.5312 193.672 55.3008 194.234 55.1445C194.648 55.0352 195.273 54.9297 196.109 54.8281C197.812 54.625 199.066 54.3828 199.871 54.1016C199.879 53.8125 199.883 53.6289 199.883 53.5508C199.883 52.6914 199.684 52.0859 199.285 51.7344C198.746 51.2578 197.945 51.0195 196.883 51.0195C195.891 51.0195 195.156 51.1953 194.68 51.5469C194.211 51.8906 193.863 52.5039 193.637 53.3867L191.574 53.1055C191.762 52.2227 192.07 51.5117 192.5 50.9727C192.93 50.4258 193.551 50.0078 194.363 49.7188C195.176 49.4219 196.117 49.2734 197.188 49.2734C198.25 49.2734 199.113 49.3984 199.777 49.6484C200.441 49.8984 200.93 50.2148 201.242 50.5977C201.555 50.9727 201.773 51.4492 201.898 52.0273C201.969 52.3867 202.004 53.0352 202.004 53.9727V56.7852C202.004 58.7461 202.047 59.9883 202.133 60.5117C202.227 61.0273 202.406 61.5234 202.672 62H200.469C200.25 61.5625 200.109 61.0508 200.047 60.4648ZM199.871 55.7539C199.105 56.0664 197.957 56.332 196.426 56.5508C195.559 56.6758 194.945 56.8164 194.586 56.9727C194.227 57.1289 193.949 57.3594 193.754 57.6641C193.559 57.9609 193.461 58.293 193.461 58.6602C193.461 59.2227 193.672 59.6914 194.094 60.0664C194.523 60.4414 195.148 60.6289 195.969 60.6289C196.781 60.6289 197.504 60.4531 198.137 60.1016C198.77 59.7422 199.234 59.2539 199.531 58.6367C199.758 58.1602 199.871 57.457 199.871 56.5273V55.7539Z" fill="#2F2D28"/>
<path d="M205.238 62V44.8203H207.348V62H205.238Z" fill="#2F2D28"/>
<path d="M151.652 81.9375H157.148V88.875C155.133 89.75 153.133 90.1875 151.148 90.1875C148.438 90.1875 146.27 89.3984 144.645 87.8203C143.027 86.2344 142.219 84.2812 142.219 81.9609C142.219 79.5156 143.059 77.4805 144.738 75.8555C146.418 74.2305 148.523 73.418 151.055 73.418C151.977 73.418 152.852 73.5195 153.68 73.7227C154.508 73.918 155.555 74.2812 156.82 74.8125V77.2031C154.867 76.0703 152.93 75.5039 151.008 75.5039C149.219 75.5039 147.711 76.1133 146.484 77.332C145.258 78.5508 144.645 80.0469 144.645 81.8203C144.645 83.6797 145.258 85.1992 146.484 86.3789C147.711 87.5586 149.289 88.1484 151.219 88.1484C152.156 88.1484 153.277 87.9336 154.582 87.5039L154.805 87.4336V84.0234H151.652V81.9375Z" fill="#2F2D28"/>
<path d="M161.379 74.6836C161.73 74.6836 162.031 74.8047 162.281 75.0469C162.531 75.2891 162.656 75.5859 162.656 75.9375C162.656 76.2812 162.531 76.5781 162.281 76.8281C162.031 77.0781 161.73 77.2031 161.379 77.2031C161.051 77.2031 160.762 77.0781 160.512 76.8281C160.262 76.5703 160.137 76.2734 160.137 75.9375C160.137 75.6094 160.262 75.3203 160.512 75.0703C160.762 74.8125 161.051 74.6836 161.379 74.6836ZM160.324 79.2188H162.457V90H160.324V79.2188Z" fill="#2F2D28"/>
<path d="M165.598 73.6289H167.73V90H165.598V73.6289Z" fill="#2F2D28"/>
<path d="M170.871 73.6289H173.004V90H170.871V73.6289Z" fill="#2F2D28"/>
<path d="M187.125 83.1328L185.344 82.0547C184.227 81.375 183.43 80.707 182.953 80.0508C182.484 79.3867 182.25 78.625 182.25 77.7656C182.25 76.4766 182.695 75.4297 183.586 74.625C184.484 73.8203 185.648 73.418 187.078 73.418C188.445 73.418 189.699 73.8008 190.84 74.5664V77.2266C189.66 76.0938 188.391 75.5273 187.031 75.5273C186.266 75.5273 185.637 75.707 185.145 76.0664C184.652 76.418 184.406 76.8711 184.406 77.4258C184.406 77.918 184.586 78.3789 184.945 78.8086C185.305 79.2383 185.887 79.6875 186.691 80.1562L188.484 81.2109C190.484 82.3984 191.484 83.9141 191.484 85.7578C191.484 87.0703 191.043 88.1367 190.16 88.957C189.285 89.7773 188.145 90.1875 186.738 90.1875C185.121 90.1875 183.648 89.6914 182.32 88.6992V85.7227C183.586 87.3242 185.051 88.125 186.715 88.125C187.449 88.125 188.059 87.9219 188.543 87.5156C189.035 87.1016 189.281 86.5859 189.281 85.9688C189.281 84.9688 188.562 84.0234 187.125 83.1328Z" fill="#2F2D28"/>
<path d="M200.543 83.5195V88.1016C200.543 88.4688 200.668 88.6523 200.918 88.6523C201.176 88.6523 201.578 88.4609 202.125 88.0781V89.3789C201.641 89.6914 201.25 89.9023 200.953 90.0117C200.664 90.1289 200.359 90.1875 200.039 90.1875C199.125 90.1875 198.586 89.8281 198.422 89.1094C197.516 89.8125 196.551 90.1641 195.527 90.1641C194.777 90.1641 194.152 89.918 193.652 89.4258C193.152 88.9258 192.902 88.3008 192.902 87.5508C192.902 86.8711 193.145 86.2656 193.629 85.7344C194.121 85.1953 194.816 84.7695 195.715 84.457L198.445 83.5195V82.9453C198.445 81.6484 197.797 81 196.5 81C195.336 81 194.203 81.6016 193.102 82.8047V80.4727C193.93 79.4961 195.121 79.0078 196.676 79.0078C197.84 79.0078 198.773 79.3125 199.477 79.9219C199.711 80.1172 199.922 80.3789 200.109 80.707C200.297 81.0273 200.414 81.3516 200.461 81.6797C200.516 82 200.543 82.6133 200.543 83.5195ZM198.445 87.8672V84.668L197.016 85.2188C196.289 85.5078 195.773 85.8008 195.469 86.0977C195.172 86.3867 195.023 86.75 195.023 87.1875C195.023 87.6328 195.164 87.9961 195.445 88.2773C195.734 88.5586 196.105 88.6992 196.559 88.6992C197.238 88.6992 197.867 88.4219 198.445 87.8672Z" fill="#2F2D28"/>
<path d="M206.145 79.2188V80.5898C207.098 79.5352 208.18 79.0078 209.391 79.0078C210.062 79.0078 210.688 79.1836 211.266 79.5352C211.844 79.8789 212.281 80.3555 212.578 80.9648C212.883 81.5664 213.035 82.5234 213.035 83.8359V90H210.902V83.8594C210.902 82.7578 210.734 81.9727 210.398 81.5039C210.062 81.0273 209.5 80.7891 208.711 80.7891C207.703 80.7891 206.848 81.293 206.145 82.3008V90H203.965V79.2188H206.145Z" fill="#2F2D28"/>
<path d="M215.484 89.2266V86.9297C216.086 87.3516 216.699 87.6953 217.324 87.9609C217.957 88.2188 218.488 88.3477 218.918 88.3477C219.363 88.3477 219.746 88.2383 220.066 88.0195C220.387 87.8008 220.547 87.5391 220.547 87.2344C220.547 86.9219 220.441 86.6641 220.23 86.4609C220.027 86.25 219.582 85.9492 218.895 85.5586C217.52 84.793 216.617 84.1406 216.188 83.6016C215.766 83.0547 215.555 82.4609 215.555 81.8203C215.555 80.9922 215.875 80.3164 216.516 79.793C217.164 79.2695 217.996 79.0078 219.012 79.0078C220.066 79.0078 221.148 79.3047 222.258 79.8984V82.0078C220.992 81.2422 219.957 80.8594 219.152 80.8594C218.738 80.8594 218.402 80.9492 218.145 81.1289C217.895 81.3008 217.77 81.5312 217.77 81.8203C217.77 82.0703 217.883 82.3086 218.109 82.5352C218.344 82.7617 218.75 83.0352 219.328 83.3555L220.09 83.7891C221.887 84.8047 222.785 85.9297 222.785 87.1641C222.785 88.0469 222.438 88.7734 221.742 89.3438C221.055 89.9062 220.168 90.1875 219.082 90.1875C218.441 90.1875 217.871 90.1211 217.371 89.9883C216.871 89.8477 216.242 89.5938 215.484 89.2266Z" fill="#2F2D28"/>
<path d="M245.25 73.6289H247.43V90H245.074V77.2617L240.035 83.5898H239.602L234.516 77.2617V90H232.172V73.6289H234.375L239.824 80.3555L245.25 73.6289Z" fill="#2F2D28"/>
<path d="M249.574 73.6055H263.25V75.6914H257.543V90H255.188V75.6914H249.574V73.6055Z" fill="#2F2D28"/>
<path d="M170.98 16.9375H176.629C177.91 16.9375 178.992 17.1328 179.875 17.5234C180.766 17.9141 181.441 18.4922 181.902 19.2578C182.371 20.0156 182.605 20.9492 182.605 22.0586C182.605 22.8398 182.445 23.5547 182.125 24.2031C181.812 24.8438 181.359 25.3906 180.766 25.8438C180.18 26.2891 179.477 26.6211 178.656 26.8398L178.023 27.0859H172.715L172.691 25.2461H176.699C177.512 25.2461 178.188 25.1055 178.727 24.8242C179.266 24.5352 179.672 24.1484 179.945 23.6641C180.219 23.1797 180.355 22.6445 180.355 22.0586C180.355 21.4023 180.227 20.8281 179.969 20.3359C179.711 19.8438 179.305 19.4648 178.75 19.1992C178.203 18.9258 177.496 18.7891 176.629 18.7891H173.242V34H170.98V16.9375ZM180.953 34L176.805 26.2656L179.16 26.2539L183.367 33.8594V34H180.953Z" fill="#2F2D28"/>
<path d="M184.867 27.8008V27.5312C184.867 26.6172 185 25.7695 185.266 24.9883C185.531 24.1992 185.914 23.5156 186.414 22.9375C186.914 22.3516 187.52 21.8984 188.23 21.5781C188.941 21.25 189.738 21.0859 190.621 21.0859C191.512 21.0859 192.312 21.25 193.023 21.5781C193.742 21.8984 194.352 22.3516 194.852 22.9375C195.359 23.5156 195.746 24.1992 196.012 24.9883C196.277 25.7695 196.41 26.6172 196.41 27.5312V27.8008C196.41 28.7148 196.277 29.5625 196.012 30.3438C195.746 31.125 195.359 31.8086 194.852 32.3945C194.352 32.9727 193.746 33.4258 193.035 33.7539C192.332 34.0742 191.535 34.2344 190.645 34.2344C189.754 34.2344 188.953 34.0742 188.242 33.7539C187.531 33.4258 186.922 32.9727 186.414 32.3945C185.914 31.8086 185.531 31.125 185.266 30.3438C185 29.5625 184.867 28.7148 184.867 27.8008ZM187.035 27.5312V27.8008C187.035 28.4336 187.109 29.0312 187.258 29.5938C187.406 30.1484 187.629 30.6406 187.926 31.0703C188.23 31.5 188.609 31.8398 189.062 32.0898C189.516 32.332 190.043 32.4531 190.645 32.4531C191.238 32.4531 191.758 32.332 192.203 32.0898C192.656 31.8398 193.031 31.5 193.328 31.0703C193.625 30.6406 193.848 30.1484 193.996 29.5938C194.152 29.0312 194.23 28.4336 194.23 27.8008V27.5312C194.23 26.9062 194.152 26.3164 193.996 25.7617C193.848 25.1992 193.621 24.7031 193.316 24.2734C193.02 23.8359 192.645 23.4922 192.191 23.2422C191.746 22.9922 191.223 22.8672 190.621 22.8672C190.027 22.8672 189.504 22.9922 189.051 23.2422C188.605 23.4922 188.23 23.8359 187.926 24.2734C187.629 24.7031 187.406 25.1992 187.258 25.7617C187.109 26.3164 187.035 26.9062 187.035 27.5312Z" fill="#2F2D28"/>
<path d="M199.117 16H201.297V31.5391L201.109 34H199.117V16ZM209.863 27.5547V27.8008C209.863 28.7227 209.754 29.5781 209.535 30.3672C209.316 31.1484 208.996 31.8281 208.574 32.4062C208.152 32.9844 207.637 33.4336 207.027 33.7539C206.418 34.0742 205.719 34.2344 204.93 34.2344C204.125 34.2344 203.418 34.0977 202.809 33.8242C202.207 33.543 201.699 33.1406 201.285 32.6172C200.871 32.0938 200.539 31.4609 200.289 30.7188C200.047 29.9766 199.879 29.1406 199.785 28.2109V27.1328C199.879 26.1953 200.047 25.3555 200.289 24.6133C200.539 23.8711 200.871 23.2383 201.285 22.7148C201.699 22.1836 202.207 21.7812 202.809 21.5078C203.41 21.2266 204.109 21.0859 204.906 21.0859C205.703 21.0859 206.41 21.2422 207.027 21.5547C207.645 21.8594 208.16 22.2969 208.574 22.8672C208.996 23.4375 209.316 24.1211 209.535 24.918C209.754 25.707 209.863 26.5859 209.863 27.5547ZM207.684 27.8008V27.5547C207.684 26.9219 207.625 26.3281 207.508 25.7734C207.391 25.2109 207.203 24.7188 206.945 24.2969C206.688 23.8672 206.348 23.5312 205.926 23.2891C205.504 23.0391 204.984 22.9141 204.367 22.9141C203.82 22.9141 203.344 23.0078 202.938 23.1953C202.539 23.3828 202.199 23.6367 201.918 23.957C201.637 24.2695 201.406 24.6289 201.227 25.0352C201.055 25.4336 200.926 25.8477 200.84 26.2773V29.1016C200.965 29.6484 201.168 30.1758 201.449 30.6836C201.738 31.1836 202.121 31.5938 202.598 31.9141C203.082 32.2344 203.68 32.3945 204.391 32.3945C204.977 32.3945 205.477 32.2773 205.891 32.043C206.312 31.8008 206.652 31.4688 206.91 31.0469C207.176 30.625 207.371 30.1367 207.496 29.582C207.621 29.0273 207.684 28.4336 207.684 27.8008Z" fill="#2F2D28"/>
<path d="M212.031 27.8008V27.5312C212.031 26.6172 212.164 25.7695 212.43 24.9883C212.695 24.1992 213.078 23.5156 213.578 22.9375C214.078 22.3516 214.684 21.8984 215.395 21.5781C216.105 21.25 216.902 21.0859 217.785 21.0859C218.676 21.0859 219.477 21.25 220.188 21.5781C220.906 21.8984 221.516 22.3516 222.016 22.9375C222.523 23.5156 222.91 24.1992 223.176 24.9883C223.441 25.7695 223.574 26.6172 223.574 27.5312V27.8008C223.574 28.7148 223.441 29.5625 223.176 30.3438C222.91 31.125 222.523 31.8086 222.016 32.3945C221.516 32.9727 220.91 33.4258 220.199 33.7539C219.496 34.0742 218.699 34.2344 217.809 34.2344C216.918 34.2344 216.117 34.0742 215.406 33.7539C214.695 33.4258 214.086 32.9727 213.578 32.3945C213.078 31.8086 212.695 31.125 212.43 30.3438C212.164 29.5625 212.031 28.7148 212.031 27.8008ZM214.199 27.5312V27.8008C214.199 28.4336 214.273 29.0312 214.422 29.5938C214.57 30.1484 214.793 30.6406 215.09 31.0703C215.395 31.5 215.773 31.8398 216.227 32.0898C216.68 32.332 217.207 32.4531 217.809 32.4531C218.402 32.4531 218.922 32.332 219.367 32.0898C219.82 31.8398 220.195 31.5 220.492 31.0703C220.789 30.6406 221.012 30.1484 221.16 29.5938C221.316 29.0312 221.395 28.4336 221.395 27.8008V27.5312C221.395 26.9062 221.316 26.3164 221.16 25.7617C221.012 25.1992 220.785 24.7031 220.48 24.2734C220.184 23.8359 219.809 23.4922 219.355 23.2422C218.91 22.9922 218.387 22.8672 217.785 22.8672C217.191 22.8672 216.668 22.9922 216.215 23.2422C215.77 23.4922 215.395 23.8359 215.09 24.2734C214.793 24.7031 214.57 25.1992 214.422 25.7617C214.273 26.3164 214.199 26.9062 214.199 27.5312Z" fill="#2F2D28"/>
<path d="M231.602 21.3203V22.9844H224.746V21.3203H231.602ZM227.066 18.2383H229.234V30.8594C229.234 31.2891 229.301 31.6133 229.434 31.832C229.566 32.0508 229.738 32.1953 229.949 32.2656C230.16 32.3359 230.387 32.3711 230.629 32.3711C230.809 32.3711 230.996 32.3555 231.191 32.3242C231.395 32.2852 231.547 32.2539 231.648 32.2305L231.66 34C231.488 34.0547 231.262 34.1055 230.98 34.1523C230.707 34.207 230.375 34.2344 229.984 34.2344C229.453 34.2344 228.965 34.1289 228.52 33.918C228.074 33.707 227.719 33.3555 227.453 32.8633C227.195 32.3633 227.066 31.6914 227.066 30.8477V18.2383Z" fill="#2F2D28"/>
<path d="M233.336 27.8008V27.5312C233.336 26.6172 233.469 25.7695 233.734 24.9883C234 24.1992 234.383 23.5156 234.883 22.9375C235.383 22.3516 235.988 21.8984 236.699 21.5781C237.41 21.25 238.207 21.0859 239.09 21.0859C239.98 21.0859 240.781 21.25 241.492 21.5781C242.211 21.8984 242.82 22.3516 243.32 22.9375C243.828 23.5156 244.215 24.1992 244.48 24.9883C244.746 25.7695 244.879 26.6172 244.879 27.5312V27.8008C244.879 28.7148 244.746 29.5625 244.48 30.3438C244.215 31.125 243.828 31.8086 243.32 32.3945C242.82 32.9727 242.215 33.4258 241.504 33.7539C240.801 34.0742 240.004 34.2344 239.113 34.2344C238.223 34.2344 237.422 34.0742 236.711 33.7539C236 33.4258 235.391 32.9727 234.883 32.3945C234.383 31.8086 234 31.125 233.734 30.3438C233.469 29.5625 233.336 28.7148 233.336 27.8008ZM235.504 27.5312V27.8008C235.504 28.4336 235.578 29.0312 235.727 29.5938C235.875 30.1484 236.098 30.6406 236.395 31.0703C236.699 31.5 237.078 31.8398 237.531 32.0898C237.984 32.332 238.512 32.4531 239.113 32.4531C239.707 32.4531 240.227 32.332 240.672 32.0898C241.125 31.8398 241.5 31.5 241.797 31.0703C242.094 30.6406 242.316 30.1484 242.465 29.5938C242.621 29.0312 242.699 28.4336 242.699 27.8008V27.5312C242.699 26.9062 242.621 26.3164 242.465 25.7617C242.316 25.1992 242.09 24.7031 241.785 24.2734C241.488 23.8359 241.113 23.4922 240.66 23.2422C240.215 22.9922 239.691 22.8672 239.09 22.8672C238.496 22.8672 237.973 22.9922 237.52 23.2422C237.074 23.4922 236.699 23.8359 236.395 24.2734C236.098 24.7031 235.875 25.1992 235.727 25.7617C235.578 26.3164 235.504 26.9062 235.504 27.5312Z" fill="#2F2D28"/>
</svg>
