<svg width="348" height="108" viewBox="0 0 348 108" fill="none" xmlns="http://www.w3.org/2000/svg">
<rect width="348" height="108" rx="4" fill="#EBE9E7"/>
<path d="M29.8867 18.1094L30.0625 21.8359H29.6172C29.5312 21.1797 29.4141 20.7109 29.2656 20.4297C29.0234 19.9766 28.6992 19.6445 28.293 19.4336C27.8945 19.2148 27.3672 19.1055 26.7109 19.1055H24.4727V31.2461C24.4727 32.2227 24.5781 32.832 24.7891 33.0742C25.0859 33.4023 25.543 33.5664 26.1602 33.5664H26.7109V34H19.9727V33.5664H20.5352C21.207 33.5664 21.6836 33.3633 21.9648 32.957C22.1367 32.707 22.2227 32.1367 22.2227 31.2461V19.1055H20.3125C19.5703 19.1055 19.043 19.1602 18.7305 19.2695C18.3242 19.418 17.9766 19.7031 17.6875 20.125C17.3984 20.5469 17.2266 21.1172 17.1719 21.8359H16.7266L16.9141 18.1094H29.8867Z" fill="#2F2D28"/>
<path d="M33.3086 17.3359C33.6367 17.3359 33.9141 17.4531 34.1406 17.6875C34.375 17.9141 34.4922 18.1914 34.4922 18.5195C34.4922 18.8477 34.375 19.1289 34.1406 19.3633C33.9141 19.5977 33.6367 19.7148 33.3086 19.7148C32.9805 19.7148 32.6992 19.5977 32.4648 19.3633C32.2305 19.1289 32.1133 18.8477 32.1133 18.5195C32.1133 18.1914 32.2266 17.9141 32.4531 17.6875C32.6875 17.4531 32.9727 17.3359 33.3086 17.3359ZM34.2812 22.9492V31.5742C34.2812 32.2461 34.3281 32.6953 34.4219 32.9219C34.5234 33.1406 34.668 33.3047 34.8555 33.4141C35.0508 33.5234 35.4023 33.5781 35.9102 33.5781V34H30.6953V33.5781C31.2188 33.5781 31.5703 33.5273 31.75 33.4258C31.9297 33.3242 32.0703 33.1562 32.1719 32.9219C32.2812 32.6875 32.3359 32.2383 32.3359 31.5742V27.4375C32.3359 26.2734 32.3008 25.5195 32.2305 25.1758C32.1758 24.9258 32.0898 24.7539 31.9727 24.6602C31.8555 24.5586 31.6953 24.5078 31.4922 24.5078C31.2734 24.5078 31.0078 24.5664 30.6953 24.6836L30.5312 24.2617L33.7656 22.9492H34.2812Z" fill="#2F2D28"/>
<path d="M40.4453 25.2344C41.2266 24.4531 41.6875 24.0039 41.8281 23.8867C42.1797 23.5898 42.5586 23.3594 42.9648 23.1953C43.3711 23.0312 43.7734 22.9492 44.1719 22.9492C44.8438 22.9492 45.4219 23.1445 45.9062 23.5352C46.3906 23.9258 46.7148 24.4922 46.8789 25.2344C47.6836 24.2969 48.3633 23.6836 48.918 23.3945C49.4727 23.0977 50.043 22.9492 50.6289 22.9492C51.1992 22.9492 51.7031 23.0977 52.1406 23.3945C52.5859 23.6836 52.9375 24.1602 53.1953 24.8242C53.3672 25.2773 53.4531 25.9883 53.4531 26.957V31.5742C53.4531 32.2461 53.5039 32.707 53.6055 32.957C53.6836 33.1289 53.8281 33.2773 54.0391 33.4023C54.25 33.5195 54.5938 33.5781 55.0703 33.5781V34H49.7734V33.5781H49.9961C50.457 33.5781 50.8164 33.4883 51.0742 33.3086C51.2539 33.1836 51.3828 32.9844 51.4609 32.7109C51.4922 32.5781 51.5078 32.1992 51.5078 31.5742V26.957C51.5078 26.082 51.4023 25.4648 51.1914 25.1055C50.8867 24.6055 50.3984 24.3555 49.7266 24.3555C49.3125 24.3555 48.8945 24.4609 48.4727 24.6719C48.0586 24.875 47.5547 25.2578 46.9609 25.8203L46.9375 25.9492L46.9609 26.4531V31.5742C46.9609 32.3086 47 32.7656 47.0781 32.9453C47.1641 33.125 47.3203 33.2773 47.5469 33.4023C47.7734 33.5195 48.1602 33.5781 48.707 33.5781V34H43.2812V33.5781C43.875 33.5781 44.2812 33.5078 44.5 33.3672C44.7266 33.2266 44.8828 33.0156 44.9688 32.7344C45.0078 32.6016 45.0273 32.2148 45.0273 31.5742V26.957C45.0273 26.082 44.8984 25.4531 44.6406 25.0703C44.2969 24.5703 43.8164 24.3203 43.1992 24.3203C42.7773 24.3203 42.3594 24.4336 41.9453 24.6602C41.2969 25.0039 40.7969 25.3906 40.4453 25.8203V31.5742C40.4453 32.2773 40.4922 32.7344 40.5859 32.9453C40.6875 33.1562 40.832 33.3164 41.0195 33.4258C41.2148 33.5273 41.6055 33.5781 42.1914 33.5781V34H36.8828V33.5781C37.375 33.5781 37.7188 33.5273 37.9141 33.4258C38.1094 33.3164 38.2578 33.1484 38.3594 32.9219C38.4609 32.6875 38.5117 32.2383 38.5117 31.5742V27.4727C38.5117 26.293 38.4766 25.5312 38.4062 25.1875C38.3516 24.9297 38.2656 24.7539 38.1484 24.6602C38.0312 24.5586 37.8711 24.5078 37.668 24.5078C37.4492 24.5078 37.1875 24.5664 36.8828 24.6836L36.707 24.2617L39.9414 22.9492H40.4453V25.2344Z" fill="#2F2D28"/>
<path d="M57.7422 27.3086C57.7344 28.9023 58.1211 30.1523 58.9023 31.0586C59.6836 31.9648 60.6016 32.418 61.6562 32.418C62.3594 32.418 62.9688 32.2266 63.4844 31.8438C64.0078 31.4531 64.4453 30.7891 64.7969 29.8516L65.1602 30.0859C64.9961 31.1562 64.5195 32.1328 63.7305 33.0156C62.9414 33.8906 61.9531 34.3281 60.7656 34.3281C59.4766 34.3281 58.3711 33.8281 57.4492 32.8281C56.5352 31.8203 56.0781 30.4688 56.0781 28.7734C56.0781 26.9375 56.5469 25.5078 57.4844 24.4844C58.4297 23.4531 59.6133 22.9375 61.0352 22.9375C62.2383 22.9375 63.2266 23.3359 64 24.1328C64.7734 24.9219 65.1602 25.9805 65.1602 27.3086H57.7422ZM57.7422 26.6289H62.7109C62.6719 25.9414 62.5898 25.457 62.4648 25.1758C62.2695 24.7383 61.9766 24.3945 61.5859 24.1445C61.2031 23.8945 60.8008 23.7695 60.3789 23.7695C59.7305 23.7695 59.1484 24.0234 58.6328 24.5312C58.125 25.0312 57.8281 25.7305 57.7422 26.6289Z" fill="#2F2D28"/>
<path d="M73.5391 22.9492V26.6055H73.1523C72.8555 25.457 72.4727 24.6758 72.0039 24.2617C71.543 23.8477 70.9531 23.6406 70.2344 23.6406C69.6875 23.6406 69.2461 23.7852 68.9102 24.0742C68.5742 24.3633 68.4062 24.6836 68.4062 25.0352C68.4062 25.4727 68.5312 25.8477 68.7812 26.1602C69.0234 26.4805 69.5156 26.8203 70.2578 27.1797L71.9688 28.0117C73.5547 28.7852 74.3477 29.8047 74.3477 31.0703C74.3477 32.0469 73.9766 32.8359 73.2344 33.4375C72.5 34.0312 71.6758 34.3281 70.7617 34.3281C70.1055 34.3281 69.3555 34.2109 68.5117 33.9766C68.2539 33.8984 68.043 33.8594 67.8789 33.8594C67.6992 33.8594 67.5586 33.9609 67.457 34.1641H67.0703V30.332H67.457C67.6758 31.4258 68.0938 32.25 68.7109 32.8047C69.3281 33.3594 70.0195 33.6367 70.7852 33.6367C71.3242 33.6367 71.7617 33.4805 72.0977 33.168C72.4414 32.8477 72.6133 32.4648 72.6133 32.0195C72.6133 31.4805 72.4219 31.0273 72.0391 30.6602C71.6641 30.293 70.9102 29.8281 69.7773 29.2656C68.6445 28.7031 67.9023 28.1953 67.5508 27.7422C67.1992 27.2969 67.0234 26.7344 67.0234 26.0547C67.0234 25.1719 67.3242 24.4336 67.9258 23.8398C68.5352 23.2461 69.3203 22.9492 70.2812 22.9492C70.7031 22.9492 71.2148 23.0391 71.8164 23.2188C72.2148 23.3359 72.4805 23.3945 72.6133 23.3945C72.7383 23.3945 72.8359 23.3672 72.9062 23.3125C72.9766 23.2578 73.0586 23.1367 73.1523 22.9492H73.5391Z" fill="#2F2D28"/>
<path d="M80.8867 18.1094H85.1992L94.9141 30.0273V20.8633C94.9141 19.8867 94.8047 19.2773 94.5859 19.0352C94.2969 18.707 93.8398 18.543 93.2148 18.543H92.6641V18.1094H98.1953V18.543H97.6328C96.9609 18.543 96.4844 18.7461 96.2031 19.1523C96.0312 19.4023 95.9453 19.9727 95.9453 20.8633V34.2578H95.5234L85.0469 21.4609V31.2461C85.0469 32.2227 85.1523 32.832 85.3633 33.0742C85.6602 33.4023 86.1172 33.5664 86.7344 33.5664H87.2969V34H81.7656V33.5664H82.3164C82.9961 33.5664 83.4766 33.3633 83.7578 32.957C83.9297 32.707 84.0156 32.1367 84.0156 31.2461V20.1953C83.5547 19.6562 83.2031 19.3008 82.9609 19.1289C82.7266 18.957 82.3789 18.7969 81.918 18.6484C81.6914 18.5781 81.3477 18.543 80.8867 18.543V18.1094Z" fill="#2F2D28"/>
<path d="M101.102 27.3086C101.094 28.9023 101.48 30.1523 102.262 31.0586C103.043 31.9648 103.961 32.418 105.016 32.418C105.719 32.418 106.328 32.2266 106.844 31.8438C107.367 31.4531 107.805 30.7891 108.156 29.8516L108.52 30.0859C108.355 31.1562 107.879 32.1328 107.09 33.0156C106.301 33.8906 105.312 34.3281 104.125 34.3281C102.836 34.3281 101.73 33.8281 100.809 32.8281C99.8945 31.8203 99.4375 30.4688 99.4375 28.7734C99.4375 26.9375 99.9062 25.5078 100.844 24.4844C101.789 23.4531 102.973 22.9375 104.395 22.9375C105.598 22.9375 106.586 23.3359 107.359 24.1328C108.133 24.9219 108.52 25.9805 108.52 27.3086H101.102ZM101.102 26.6289H106.07C106.031 25.9414 105.949 25.457 105.824 25.1758C105.629 24.7383 105.336 24.3945 104.945 24.1445C104.562 23.8945 104.16 23.7695 103.738 23.7695C103.09 23.7695 102.508 24.0234 101.992 24.5312C101.484 25.0312 101.188 25.7305 101.102 26.6289Z" fill="#2F2D28"/>
<path d="M109.363 23.2656H113.863V23.6992C113.449 23.7305 113.176 23.8047 113.043 23.9219C112.918 24.0391 112.855 24.207 112.855 24.4258C112.855 24.668 112.922 24.9609 113.055 25.3047L115.352 31.4805L117.66 26.4531L117.051 24.8711C116.863 24.4023 116.617 24.0781 116.312 23.8984C116.141 23.7891 115.82 23.7227 115.352 23.6992V23.2656H120.461V23.6992C119.898 23.7227 119.5 23.8242 119.266 24.0039C119.109 24.1289 119.031 24.3281 119.031 24.6016C119.031 24.7578 119.062 24.918 119.125 25.082L121.562 31.2461L123.824 25.3047C123.98 24.8828 124.059 24.5469 124.059 24.2969C124.059 24.1484 123.98 24.0156 123.824 23.8984C123.676 23.7812 123.379 23.7148 122.934 23.6992V23.2656H126.32V23.6992C125.641 23.8008 125.141 24.2617 124.82 25.082L121.234 34.3281H120.754L118.07 27.4727L114.941 34.3281H114.508L111.062 25.3047C110.836 24.7344 110.613 24.3516 110.395 24.1562C110.176 23.9531 109.832 23.8008 109.363 23.6992V23.2656Z" fill="#2F2D28"/>
<path d="M148.773 34H144.531L139.152 26.5703C138.754 26.5859 138.43 26.5938 138.18 26.5938C138.078 26.5938 137.969 26.5938 137.852 26.5938C137.734 26.5859 137.613 26.5781 137.488 26.5703V31.1875C137.488 32.1875 137.598 32.8086 137.816 33.0508C138.113 33.3945 138.559 33.5664 139.152 33.5664H139.773V34H132.965V33.5664H133.562C134.234 33.5664 134.715 33.3477 135.004 32.9102C135.168 32.668 135.25 32.0938 135.25 31.1875V20.9219C135.25 19.9219 135.141 19.3008 134.922 19.0586C134.617 18.7148 134.164 18.543 133.562 18.543H132.965V18.1094H138.754C140.441 18.1094 141.684 18.2344 142.48 18.4844C143.285 18.7266 143.965 19.1797 144.52 19.8438C145.082 20.5 145.363 21.2852 145.363 22.1992C145.363 23.1758 145.043 24.0234 144.402 24.7422C143.77 25.4609 142.785 25.9688 141.449 26.2656L144.73 30.8242C145.48 31.8711 146.125 32.5664 146.664 32.9102C147.203 33.2539 147.906 33.4727 148.773 33.5664V34ZM137.488 25.832C137.637 25.832 137.766 25.8359 137.875 25.8438C137.984 25.8438 138.074 25.8438 138.145 25.8438C139.66 25.8438 140.801 25.5156 141.566 24.8594C142.34 24.2031 142.727 23.3672 142.727 22.3516C142.727 21.3594 142.414 20.5547 141.789 19.9375C141.172 19.3125 140.352 19 139.328 19C138.875 19 138.262 19.0742 137.488 19.2227V25.832Z" fill="#2F2D28"/>
<path d="M154.562 22.9492C156.188 22.9492 157.492 23.5664 158.477 24.8008C159.312 25.8555 159.73 27.0664 159.73 28.4336C159.73 29.3945 159.5 30.3672 159.039 31.3516C158.578 32.3359 157.941 33.0781 157.129 33.5781C156.324 34.0781 155.426 34.3281 154.434 34.3281C152.816 34.3281 151.531 33.6836 150.578 32.3945C149.773 31.3086 149.371 30.0898 149.371 28.7383C149.371 27.7539 149.613 26.7773 150.098 25.8086C150.59 24.832 151.234 24.1133 152.031 23.6523C152.828 23.1836 153.672 22.9492 154.562 22.9492ZM154.199 23.7109C153.785 23.7109 153.367 23.8359 152.945 24.0859C152.531 24.3281 152.195 24.7578 151.938 25.375C151.68 25.9922 151.551 26.7852 151.551 27.7539C151.551 29.3164 151.859 30.6641 152.477 31.7969C153.102 32.9297 153.922 33.4961 154.938 33.4961C155.695 33.4961 156.32 33.1836 156.812 32.5586C157.305 31.9336 157.551 30.8594 157.551 29.3359C157.551 27.4297 157.141 25.9297 156.32 24.8359C155.766 24.0859 155.059 23.7109 154.199 23.7109Z" fill="#2F2D28"/>
<path d="M164.5 25.2344C165.281 24.4531 165.742 24.0039 165.883 23.8867C166.234 23.5898 166.613 23.3594 167.02 23.1953C167.426 23.0312 167.828 22.9492 168.227 22.9492C168.898 22.9492 169.477 23.1445 169.961 23.5352C170.445 23.9258 170.77 24.4922 170.934 25.2344C171.738 24.2969 172.418 23.6836 172.973 23.3945C173.527 23.0977 174.098 22.9492 174.684 22.9492C175.254 22.9492 175.758 23.0977 176.195 23.3945C176.641 23.6836 176.992 24.1602 177.25 24.8242C177.422 25.2773 177.508 25.9883 177.508 26.957V31.5742C177.508 32.2461 177.559 32.707 177.66 32.957C177.738 33.1289 177.883 33.2773 178.094 33.4023C178.305 33.5195 178.648 33.5781 179.125 33.5781V34H173.828V33.5781H174.051C174.512 33.5781 174.871 33.4883 175.129 33.3086C175.309 33.1836 175.438 32.9844 175.516 32.7109C175.547 32.5781 175.562 32.1992 175.562 31.5742V26.957C175.562 26.082 175.457 25.4648 175.246 25.1055C174.941 24.6055 174.453 24.3555 173.781 24.3555C173.367 24.3555 172.949 24.4609 172.527 24.6719C172.113 24.875 171.609 25.2578 171.016 25.8203L170.992 25.9492L171.016 26.4531V31.5742C171.016 32.3086 171.055 32.7656 171.133 32.9453C171.219 33.125 171.375 33.2773 171.602 33.4023C171.828 33.5195 172.215 33.5781 172.762 33.5781V34H167.336V33.5781C167.93 33.5781 168.336 33.5078 168.555 33.3672C168.781 33.2266 168.938 33.0156 169.023 32.7344C169.062 32.6016 169.082 32.2148 169.082 31.5742V26.957C169.082 26.082 168.953 25.4531 168.695 25.0703C168.352 24.5703 167.871 24.3203 167.254 24.3203C166.832 24.3203 166.414 24.4336 166 24.6602C165.352 25.0039 164.852 25.3906 164.5 25.8203V31.5742C164.5 32.2773 164.547 32.7344 164.641 32.9453C164.742 33.1562 164.887 33.3164 165.074 33.4258C165.27 33.5273 165.66 33.5781 166.246 33.5781V34H160.938V33.5781C161.43 33.5781 161.773 33.5273 161.969 33.4258C162.164 33.3164 162.312 33.1484 162.414 32.9219C162.516 32.6875 162.566 32.2383 162.566 31.5742V27.4727C162.566 26.293 162.531 25.5312 162.461 25.1875C162.406 24.9297 162.32 24.7539 162.203 24.6602C162.086 24.5586 161.926 24.5078 161.723 24.5078C161.504 24.5078 161.242 24.5664 160.938 24.6836L160.762 24.2617L163.996 22.9492H164.5V25.2344Z" fill="#2F2D28"/>
<path d="M186.074 32.4531C184.973 33.3047 184.281 33.7969 184 33.9297C183.578 34.125 183.129 34.2227 182.652 34.2227C181.91 34.2227 181.297 33.9688 180.812 33.4609C180.336 32.9531 180.098 32.2852 180.098 31.457C180.098 30.9336 180.215 30.4805 180.449 30.0977C180.77 29.5664 181.324 29.0664 182.113 28.5977C182.91 28.1289 184.23 27.5586 186.074 26.8867V26.4648C186.074 25.3945 185.902 24.6602 185.559 24.2617C185.223 23.8633 184.73 23.6641 184.082 23.6641C183.59 23.6641 183.199 23.7969 182.91 24.0625C182.613 24.3281 182.465 24.6328 182.465 24.9766L182.488 25.6562C182.488 26.0156 182.395 26.293 182.207 26.4883C182.027 26.6836 181.789 26.7812 181.492 26.7812C181.203 26.7812 180.965 26.6797 180.777 26.4766C180.598 26.2734 180.508 25.9961 180.508 25.6445C180.508 24.9727 180.852 24.3555 181.539 23.793C182.227 23.2305 183.191 22.9492 184.434 22.9492C185.387 22.9492 186.168 23.1094 186.777 23.4297C187.238 23.6719 187.578 24.0508 187.797 24.5664C187.938 24.9023 188.008 25.5898 188.008 26.6289V30.2734C188.008 31.2969 188.027 31.9258 188.066 32.1602C188.105 32.3867 188.168 32.5391 188.254 32.6172C188.348 32.6953 188.453 32.7344 188.57 32.7344C188.695 32.7344 188.805 32.707 188.898 32.6523C189.062 32.5508 189.379 32.2656 189.848 31.7969V32.4531C188.973 33.625 188.137 34.2109 187.34 34.2109C186.957 34.2109 186.652 34.0781 186.426 33.8125C186.199 33.5469 186.082 33.0938 186.074 32.4531ZM186.074 31.6914V27.6016C184.895 28.0703 184.133 28.4023 183.789 28.5977C183.172 28.9414 182.73 29.3008 182.465 29.6758C182.199 30.0508 182.066 30.4609 182.066 30.9062C182.066 31.4688 182.234 31.9375 182.57 32.3125C182.906 32.6797 183.293 32.8633 183.73 32.8633C184.324 32.8633 185.105 32.4727 186.074 31.6914Z" fill="#2F2D28"/>
<path d="M193.785 25.2227C195.043 23.707 196.242 22.9492 197.383 22.9492C197.969 22.9492 198.473 23.0977 198.895 23.3945C199.316 23.6836 199.652 24.1641 199.902 24.8359C200.074 25.3047 200.16 26.0234 200.16 26.9922V31.5742C200.16 32.2539 200.215 32.7148 200.324 32.957C200.41 33.1523 200.547 33.3047 200.734 33.4141C200.93 33.5234 201.285 33.5781 201.801 33.5781V34H196.492V33.5781H196.715C197.215 33.5781 197.562 33.5039 197.758 33.3555C197.961 33.1992 198.102 32.9727 198.18 32.6758C198.211 32.5586 198.227 32.1914 198.227 31.5742V27.1797C198.227 26.2031 198.098 25.4961 197.84 25.0586C197.59 24.6133 197.164 24.3906 196.562 24.3906C195.633 24.3906 194.707 24.8984 193.785 25.9141V31.5742C193.785 32.3008 193.828 32.75 193.914 32.9219C194.023 33.1484 194.172 33.3164 194.359 33.4258C194.555 33.5273 194.945 33.5781 195.531 33.5781V34H190.223V33.5781H190.457C191.004 33.5781 191.371 33.4414 191.559 33.168C191.754 32.8867 191.852 32.3555 191.852 31.5742V27.5898C191.852 26.3008 191.82 25.5156 191.758 25.2344C191.703 24.9531 191.613 24.7617 191.488 24.6602C191.371 24.5586 191.211 24.5078 191.008 24.5078C190.789 24.5078 190.527 24.5664 190.223 24.6836L190.047 24.2617L193.281 22.9492H193.785V25.2227Z" fill="#2F2D28"/>
<path d="M245.645 18.7734L245.773 20.5547C245.82 21.0938 245.844 21.4609 245.844 21.6562L245.516 21.7148C244.992 20.5273 244.34 19.6367 243.559 19.043C242.785 18.4492 241.836 18.1523 240.711 18.1523C239.336 18.1523 238.266 18.3203 237.5 18.6562C236.391 19.1328 235.441 19.9609 234.652 21.1406C233.863 22.3203 233.469 23.7422 233.469 25.4062C233.469 26.3672 233.613 27.2305 233.902 27.9961C234.191 28.7617 234.598 29.4766 235.121 30.1406C235.652 30.7969 236.277 31.3672 236.996 31.8516C237.465 32.1719 238.023 32.4141 238.672 32.5781C239.039 32.6641 239.586 32.707 240.312 32.707C240.781 32.707 241.301 32.6406 241.871 32.5078C242.441 32.375 242.871 32.1992 243.16 31.9805C243.449 31.7539 243.645 31.5 243.746 31.2188C243.855 30.9375 243.91 30.3906 243.91 29.5781C243.91 28.2266 243.82 27.4414 243.641 27.2227C243.461 26.9961 242.895 26.8477 241.941 26.7773L241.473 26.7422L241.156 26.7539C241.109 26.7461 241.047 26.7344 240.969 26.7188L240.793 26.4258C240.793 26.3867 240.82 26.3359 240.875 26.2734C241.281 26.2109 242.164 26.1797 243.523 26.1797C243.828 26.1797 244.324 26.1875 245.012 26.2031L246.219 26.25L247.309 26.2383C247.52 26.2383 247.773 26.2461 248.07 26.2617C248.125 26.2695 248.16 26.2852 248.176 26.3086C248.191 26.3242 248.199 26.3555 248.199 26.4023C248.199 26.4883 248.18 26.5977 248.141 26.7305C247.812 26.8008 247.559 26.8359 247.379 26.8359L246.617 26.8242C246.359 26.8242 246.152 26.9141 245.996 27.0938C245.918 27.1797 245.879 27.4727 245.879 27.9727L245.891 29.5078C245.891 30.5625 245.848 31.2344 245.762 31.5234C245.715 31.6953 245.617 31.8516 245.469 31.9922C245.32 32.125 245.008 32.2852 244.531 32.4727C243.852 32.7461 243.234 32.9297 242.68 33.0234C241.648 33.2031 240.652 33.293 239.691 33.293C238.145 33.293 236.875 33.0977 235.883 32.707C234.898 32.3086 234.047 31.7578 233.328 31.0547C232.617 30.3516 232.109 29.6406 231.805 28.9219C231.344 27.8672 231.113 26.793 231.113 25.6992C231.113 24.332 231.473 22.9961 232.191 21.6914C232.918 20.3789 234.086 19.3125 235.695 18.4922C236.828 17.9141 238.367 17.625 240.312 17.625C241.656 17.625 242.754 17.7422 243.605 17.9766C244.465 18.2109 245.145 18.4766 245.645 18.7734Z" fill="#2F2D28"/>
<path d="M258.043 31.4062C258.09 31.5078 258.113 31.582 258.113 31.6289C258.113 31.7461 258.02 31.9531 257.832 32.25C257.59 32.6406 257.32 32.9258 257.023 33.1055C256.836 33.2227 256.578 33.2812 256.25 33.2812C255.688 33.2812 255.266 33.1094 254.984 32.7656C254.812 32.5625 254.691 32.1992 254.621 31.6758L253.309 32.5898C252.848 32.8555 252.496 33.0234 252.254 33.0938C251.863 33.1953 251.395 33.2461 250.848 33.2461C250.449 33.2461 250.133 33.1289 249.898 32.8945C249.672 32.6523 249.559 32.3438 249.559 31.9688C249.559 31.4297 249.887 30.7852 250.543 30.0352C251.207 29.2852 252.105 28.6719 253.238 28.1953C254.035 27.8594 254.523 27.6445 254.703 27.5508C254.719 27.293 254.727 27.0117 254.727 26.707C254.727 25.7148 254.586 25.043 254.305 24.6914C254.031 24.3398 253.637 24.1641 253.121 24.1641C252.582 24.1641 252.078 24.375 251.609 24.7969C251.32 25.0625 251.102 25.5625 250.953 26.2969C250.906 26.5 250.816 26.7188 250.684 26.9531C250.348 27.1719 250.078 27.2812 249.875 27.2812C249.703 27.2812 249.547 27.2305 249.406 27.1289C249.328 27.0742 249.289 27.0117 249.289 26.9414C249.289 26.7383 249.504 26.2812 249.934 25.5703C250.371 24.8516 250.918 24.3164 251.574 23.9648C252.238 23.6055 252.816 23.4258 253.309 23.4258C253.98 23.4258 254.48 23.4883 254.809 23.6133C255.137 23.7305 255.426 23.9414 255.676 24.2461C255.926 24.5508 256.078 24.8828 256.133 25.2422C256.164 25.4141 256.18 26.0273 256.18 27.082L256.145 28.9453L256.156 30.3047C256.156 30.4844 256.152 30.6367 256.145 30.7617C256.137 30.9883 256.133 31.1562 256.133 31.2656C256.133 31.5234 256.207 31.7305 256.355 31.8867C256.504 32.043 256.68 32.1211 256.883 32.1211C257.18 32.1211 257.434 31.9727 257.645 31.6758L257.785 31.4883C257.824 31.4648 257.91 31.4375 258.043 31.4062ZM254.598 31.0664C254.652 30.0742 254.68 29.375 254.68 28.9688C254.68 28.7578 254.668 28.4727 254.645 28.1133C254.121 28.3008 253.566 28.5859 252.98 28.9688C252.395 29.3516 251.93 29.793 251.586 30.293C251.336 30.6523 251.211 30.9922 251.211 31.3125C251.211 31.6172 251.312 31.8711 251.516 32.0742C251.727 32.2773 251.988 32.3789 252.301 32.3789C252.543 32.3789 252.836 32.293 253.18 32.1211C253.633 31.8945 254.105 31.543 254.598 31.0664Z" fill="#2F2D28"/>
<path d="M258.746 33.0352L258.699 32.8828C258.699 32.8281 258.734 32.7461 258.805 32.6367L259.496 32.4961L260.469 32.3203C260.547 32.2812 260.602 32.2266 260.633 32.1562C260.68 32.0547 260.703 31.7539 260.703 31.2539C260.703 28.5977 260.688 27.0664 260.656 26.6602C260.625 26.2461 260.555 25.9844 260.445 25.875C260.336 25.7656 260.055 25.6797 259.602 25.6172C259.336 25.5781 259.125 25.5273 258.969 25.4648L259.016 25.1133C259.836 24.7773 260.387 24.4883 260.668 24.2461C261.059 23.8945 261.391 23.4336 261.664 22.8633L262.062 22.875C262.109 23.2656 262.133 24.1328 262.133 25.4766L262.121 25.6758C262.121 25.7227 262.129 25.7969 262.145 25.8984C262.441 25.3594 262.812 24.8633 263.258 24.4102L263.527 24.1406C263.637 24.0156 263.742 23.918 263.844 23.8477C264.391 23.5195 264.797 23.3555 265.062 23.3555C265.406 23.3555 265.688 23.4727 265.906 23.707C266.125 23.9336 266.234 24.2148 266.234 24.5508C266.234 24.8164 266.156 25.0234 266 25.1719C265.789 25.3672 265.547 25.4648 265.273 25.4648C265.148 25.4648 264.902 25.3984 264.535 25.2656C264.168 25.1328 263.926 25.0664 263.809 25.0664C263.59 25.0664 263.438 25.1016 263.352 25.1719C263.133 25.3438 262.867 25.6953 262.555 26.2266C262.312 26.625 262.191 26.9922 262.191 27.3281L262.25 29.2617L262.273 31.582C262.297 31.8477 262.328 32.0195 262.367 32.0977C262.398 32.1523 262.477 32.2188 262.602 32.2969C263.445 32.3672 263.945 32.418 264.102 32.4492C264.211 32.457 264.293 32.4648 264.348 32.4727C264.684 32.4805 264.918 32.5273 265.051 32.6133C265.121 32.6523 265.156 32.7109 265.156 32.7891C265.156 32.8359 265.125 32.8984 265.062 32.9766L263.762 32.9648L263.27 32.9531L262.555 32.9648H261.359L260.715 33L258.746 33.0352Z" fill="#2F2D28"/>
<path d="M275.809 31.4062C275.855 31.5078 275.879 31.582 275.879 31.6289C275.879 31.7461 275.785 31.9531 275.598 32.25C275.355 32.6406 275.086 32.9258 274.789 33.1055C274.602 33.2227 274.344 33.2812 274.016 33.2812C273.453 33.2812 273.031 33.1094 272.75 32.7656C272.578 32.5625 272.457 32.1992 272.387 31.6758L271.074 32.5898C270.613 32.8555 270.262 33.0234 270.02 33.0938C269.629 33.1953 269.16 33.2461 268.613 33.2461C268.215 33.2461 267.898 33.1289 267.664 32.8945C267.438 32.6523 267.324 32.3438 267.324 31.9688C267.324 31.4297 267.652 30.7852 268.309 30.0352C268.973 29.2852 269.871 28.6719 271.004 28.1953C271.801 27.8594 272.289 27.6445 272.469 27.5508C272.484 27.293 272.492 27.0117 272.492 26.707C272.492 25.7148 272.352 25.043 272.07 24.6914C271.797 24.3398 271.402 24.1641 270.887 24.1641C270.348 24.1641 269.844 24.375 269.375 24.7969C269.086 25.0625 268.867 25.5625 268.719 26.2969C268.672 26.5 268.582 26.7188 268.449 26.9531C268.113 27.1719 267.844 27.2812 267.641 27.2812C267.469 27.2812 267.312 27.2305 267.172 27.1289C267.094 27.0742 267.055 27.0117 267.055 26.9414C267.055 26.7383 267.27 26.2812 267.699 25.5703C268.137 24.8516 268.684 24.3164 269.34 23.9648C270.004 23.6055 270.582 23.4258 271.074 23.4258C271.746 23.4258 272.246 23.4883 272.574 23.6133C272.902 23.7305 273.191 23.9414 273.441 24.2461C273.691 24.5508 273.844 24.8828 273.898 25.2422C273.93 25.4141 273.945 26.0273 273.945 27.082L273.91 28.9453L273.922 30.3047C273.922 30.4844 273.918 30.6367 273.91 30.7617C273.902 30.9883 273.898 31.1562 273.898 31.2656C273.898 31.5234 273.973 31.7305 274.121 31.8867C274.27 32.043 274.445 32.1211 274.648 32.1211C274.945 32.1211 275.199 31.9727 275.41 31.6758L275.551 31.4883C275.59 31.4648 275.676 31.4375 275.809 31.4062ZM272.363 31.0664C272.418 30.0742 272.445 29.375 272.445 28.9688C272.445 28.7578 272.434 28.4727 272.41 28.1133C271.887 28.3008 271.332 28.5859 270.746 28.9688C270.16 29.3516 269.695 29.793 269.352 30.293C269.102 30.6523 268.977 30.9922 268.977 31.3125C268.977 31.6172 269.078 31.8711 269.281 32.0742C269.492 32.2773 269.754 32.3789 270.066 32.3789C270.309 32.3789 270.602 32.293 270.945 32.1211C271.398 31.8945 271.871 31.543 272.363 31.0664Z" fill="#2F2D28"/>
<path d="M276.5 32.5898C276.625 32.5039 276.797 32.4453 277.016 32.4141C277.328 32.375 277.57 32.3125 277.742 32.2266C277.883 32.1094 277.977 31.9414 278.023 31.7227C278.078 31.4414 278.105 30.4531 278.105 28.7578C278.105 27.0938 278.055 26.0195 277.953 25.5352C277.781 25.4258 277.559 25.3398 277.285 25.2773C277.199 25.2617 277.02 25.2188 276.746 25.1484V24.7617C277.207 24.6289 277.578 24.457 277.859 24.2461C278.148 24.0352 278.547 23.6133 279.055 22.9805H279.125C279.172 22.9805 279.246 22.9766 279.348 22.9688C279.41 22.9766 279.461 22.9961 279.5 23.0273L279.488 24.3633C279.488 24.6367 279.496 24.9297 279.512 25.2422C280.348 24.4844 281.098 23.9531 281.762 23.6484C282.215 23.4453 282.727 23.3438 283.297 23.3438C283.977 23.3438 284.516 23.4727 284.914 23.7305C285.312 23.9883 285.691 24.4531 286.051 25.125C286.746 24.4375 287.375 23.957 287.938 23.6836C288.508 23.4102 289.082 23.2734 289.66 23.2734C290.535 23.2734 291.254 23.5586 291.816 24.1289C292.371 24.707 292.656 25.5547 292.672 26.6719V27.6445L292.684 28.7109L292.672 31.4531C292.664 31.7734 292.734 32.0156 292.883 32.1797C292.945 32.2031 293.184 32.2734 293.598 32.3906C293.855 32.4609 294.008 32.5156 294.055 32.5547C294.102 32.5938 294.125 32.6484 294.125 32.7188C294.125 32.8047 294.102 32.9062 294.055 33.0234H293.973L292.789 32.9531C292.648 32.9453 292.426 32.9414 292.121 32.9414C291.746 32.9414 291.223 32.957 290.551 32.9883H289.953C289.867 32.9883 289.699 32.9922 289.449 33C289.441 32.9297 289.438 32.8672 289.438 32.8125C289.438 32.75 289.465 32.6719 289.52 32.5781C289.73 32.4844 290.02 32.4102 290.387 32.3555C290.754 32.293 290.98 32.1875 291.066 32.0391C291.16 31.8828 291.207 31.2734 291.207 30.2109C291.207 27.9062 291.18 26.5703 291.125 26.2031C291.031 25.6172 290.781 25.1602 290.375 24.832C289.977 24.4961 289.473 24.3281 288.863 24.3281C288.395 24.3281 287.938 24.4531 287.492 24.7031C287.047 24.9453 286.609 25.3125 286.18 25.8047L286.168 26.0859V27.8789L286.121 29.2734C286.121 30.6953 286.133 31.5039 286.156 31.6992C286.188 31.8945 286.254 32.0391 286.355 32.1328C286.465 32.2188 286.773 32.2969 287.281 32.3672C287.508 32.3984 287.684 32.4297 287.809 32.4609C287.902 32.5391 287.949 32.6406 287.949 32.7656C287.949 32.8672 287.914 32.9375 287.844 32.9766H287.645L287.059 32.9648H283.648L282.711 32.9766C282.695 32.8594 282.688 32.7734 282.688 32.7188L282.699 32.5781C282.871 32.4844 283.191 32.3945 283.66 32.3086C283.902 32.2695 284.152 32.2031 284.41 32.1094C284.457 32.0703 284.492 32.0195 284.516 31.957C284.555 31.8477 284.582 31.5352 284.598 31.0195L284.656 29.6602L284.633 28.125L284.645 27.2695C284.645 26.3086 284.449 25.6094 284.059 25.1719C283.668 24.7266 283.176 24.5039 282.582 24.5039C282.027 24.5039 281.469 24.6406 280.906 24.9141C280.352 25.1875 279.891 25.5547 279.523 26.0156C279.516 26.2344 279.512 26.4336 279.512 26.6133L279.559 30.5508C279.566 31.4102 279.613 31.9023 279.699 32.0273C279.793 32.1445 279.996 32.2266 280.309 32.2734C280.809 32.3438 281.133 32.4297 281.281 32.5312C281.352 32.5781 281.387 32.6484 281.387 32.7422C281.387 32.8047 281.383 32.8789 281.375 32.9648C280.484 32.9023 279.887 32.8711 279.582 32.8711C279.27 32.8711 278.988 32.875 278.738 32.8828L278.152 32.918H277.789L276.477 32.9648C276.461 32.9102 276.453 32.8633 276.453 32.8242C276.453 32.7852 276.469 32.707 276.5 32.5898Z" fill="#2F2D28"/>
<path d="M295.402 28.2891C295.402 27.7578 295.512 27.1914 295.73 26.5898C295.957 25.9805 296.297 25.4375 296.75 24.9609C297.203 24.4766 297.684 24.1172 298.191 23.8828C298.902 23.5547 299.77 23.3906 300.793 23.3906C302.254 23.3906 303.473 23.8906 304.449 24.8906C305.434 25.8906 305.926 27.0938 305.926 28.5C305.926 29.75 305.41 30.8672 304.379 31.8516C303.355 32.8281 302.059 33.3164 300.488 33.3164C299.52 33.3164 298.605 33.0625 297.746 32.5547C297.105 32.1719 296.555 31.6055 296.094 30.8555C295.633 30.1055 295.402 29.25 295.402 28.2891ZM300.582 32.8594C301.176 32.8594 301.746 32.6992 302.293 32.3789C302.848 32.0586 303.289 31.5469 303.617 30.8438C303.945 30.1328 304.109 29.3125 304.109 28.3828C304.109 27.7734 303.98 27.0664 303.723 26.2617C303.473 25.457 303.082 24.8555 302.551 24.457C302.027 24.0508 301.41 23.8477 300.699 23.8477C300.184 23.8477 299.656 23.9688 299.117 24.2109C298.586 24.4531 298.133 24.918 297.758 25.6055C297.391 26.293 297.207 27.2695 297.207 28.5352C297.207 29.957 297.527 31.0352 298.168 31.7695C298.816 32.4961 299.621 32.8594 300.582 32.8594Z" fill="#2F2D28"/>
<path d="M307.25 32.625C307.445 32.5703 307.672 32.5234 307.93 32.4844C308.422 32.4141 308.715 32.332 308.809 32.2383C308.91 32.1445 308.961 31.9297 308.961 31.5938L308.984 31.1719C308.992 31.0156 308.996 30.8164 308.996 30.5742L308.973 26.9766C308.973 26.4922 308.91 26.1797 308.785 26.0391C308.574 25.8203 308.184 25.668 307.613 25.582V25.1602C308.184 25.0039 308.621 24.8008 308.926 24.5508C309.371 24.1992 309.746 23.7227 310.051 23.1211L310.449 23.1328C310.473 23.5 310.484 23.7617 310.484 23.918V24.6914L310.496 24.9023C310.59 24.8398 310.699 24.7617 310.824 24.668C311.293 24.3164 311.773 24.0312 312.266 23.8125C312.758 23.5859 313.195 23.4297 313.578 23.3438C313.82 23.2812 314.094 23.25 314.398 23.25C315.039 23.25 315.59 23.4219 316.051 23.7656C316.512 24.1094 316.809 24.5156 316.941 24.9844C317.082 25.4453 317.152 26.3672 317.152 27.75V29.5195C317.152 29.5664 317.145 29.7227 317.129 29.9883C317.121 30.2539 317.117 30.5586 317.117 30.9023C317.117 31.4492 317.141 31.7969 317.188 31.9453C317.227 32.0469 317.328 32.1484 317.492 32.25C318.242 32.3516 318.68 32.4727 318.805 32.6133V32.707C318.805 32.7852 318.781 32.8828 318.734 33H318.512L316.965 32.9883L315.441 33.0117C314.879 33.0273 314.359 33.0234 313.883 33L313.812 32.7539C313.812 32.707 313.84 32.6445 313.895 32.5664C314.105 32.4727 314.402 32.4102 314.785 32.3789C315.012 32.3633 315.168 32.3398 315.254 32.3086C315.34 32.2773 315.445 32.2148 315.57 32.1211C315.664 31.9336 315.711 31.7773 315.711 31.6523C315.711 31.5977 315.703 31.4883 315.688 31.3242C315.664 30.9648 315.648 30.0703 315.641 28.6406V28.0312L315.664 27.0938C315.664 26.0859 315.461 25.3906 315.055 25.0078C314.648 24.625 314.105 24.4336 313.426 24.4336C312.902 24.4336 312.391 24.5508 311.891 24.7852C311.391 25.0117 310.906 25.3555 310.438 25.8164C310.422 26.1914 310.414 26.5117 310.414 26.7773L310.449 29.3672C310.449 30.7188 310.469 31.5469 310.508 31.8516C310.523 31.9766 310.551 32.0625 310.59 32.1094C310.652 32.1719 310.777 32.2227 310.965 32.2617C311.152 32.3008 311.367 32.3555 311.609 32.4258C311.859 32.4961 312.023 32.5391 312.102 32.5547C312.258 32.5938 312.363 32.6719 312.418 32.7891L312.406 33.0234H311.176L308.645 32.9883C308.059 33.0039 307.688 33.0117 307.531 33.0117H307.238L307.215 32.8594C307.215 32.8047 307.227 32.7266 307.25 32.625Z" fill="#2F2D28"/>
<path d="M327.617 24.4922L327.629 24.1523L327.617 22.7812L327.629 20.1914C327.629 19.4727 327.551 19.0156 327.395 18.8203C327.238 18.625 326.781 18.4258 326.023 18.2227C325.969 18.207 325.883 18.1836 325.766 18.1523V18.0234C325.766 17.9453 325.773 17.8594 325.789 17.7656C326.852 17.6562 327.766 17.4727 328.531 17.2148L329.129 17.2031C329.16 17.7344 329.176 18.3281 329.176 18.9844L329.129 23.4961L329.211 28.582L329.176 31.2891C329.176 31.8438 329.215 32.1562 329.293 32.2266C329.449 32.3828 329.793 32.4648 330.324 32.4727C330.434 32.4727 330.582 32.4805 330.77 32.4961V32.707C330.77 32.7617 330.766 32.8203 330.758 32.8828C330.516 32.9375 330.266 32.9883 330.008 33.0352L328.309 33.3633C328.059 33.4102 327.859 33.4336 327.711 33.4336V32.3086C327.578 32.3477 327.371 32.4258 327.09 32.543C325.871 33.0586 324.75 33.3164 323.727 33.3164C323.109 33.3164 322.48 33.1172 321.84 32.7188C321.199 32.3125 320.707 31.75 320.363 31.0312C320.02 30.3125 319.848 29.5781 319.848 28.8281C319.848 28.1562 319.961 27.5156 320.188 26.9062C320.414 26.2891 320.711 25.7773 321.078 25.3711C321.312 25.1055 321.645 24.8438 322.074 24.5859C322.504 24.3203 322.859 24.1523 323.141 24.082C323.836 23.9023 324.301 23.8125 324.535 23.8125C325.59 23.8125 326.457 23.9688 327.137 24.2812C327.348 24.3828 327.508 24.4531 327.617 24.4922ZM327.629 31.7344C327.66 31.2109 327.676 30.1328 327.676 28.5C327.676 27.1172 327.609 26.2461 327.477 25.8867C327.352 25.5195 327.031 25.1758 326.516 24.8555C326 24.5273 325.422 24.3633 324.781 24.3633C323.883 24.3633 323.121 24.7109 322.496 25.4062C321.871 26.1016 321.559 27.1289 321.559 28.4883C321.559 29.6836 321.895 30.6367 322.566 31.3477C323.246 32.0586 324.09 32.4141 325.098 32.4141C325.676 32.4141 326.203 32.3359 326.68 32.1797C327.156 32.0234 327.473 31.875 327.629 31.7344Z" fill="#2F2D28"/>
<path d="M86.2383 55.3555C86.0508 55.3789 85.7969 55.418 85.4766 55.4727C85.1641 55.5195 84.9102 55.5898 84.7148 55.6836C84.4805 55.8008 84.3125 55.9688 84.2109 56.1875C84.1172 56.3984 84.0703 56.6484 84.0703 56.9375V58.2266C84.0703 59.1641 84.0742 59.7969 84.082 60.125C84.0977 60.4531 84.1133 60.7227 84.1289 60.9336C83.0898 61.4023 82.0547 61.7617 81.0234 62.0117C79.9922 62.2617 78.9805 62.3867 77.9883 62.3867C76.9258 62.3867 75.9023 62.1875 74.918 61.7891C73.9336 61.3906 73.0742 60.8242 72.3398 60.0898C71.5977 59.3477 71.0078 58.4453 70.5703 57.3828C70.1328 56.3203 69.9141 55.1328 69.9141 53.8203C69.9141 52.5547 70.1211 51.3828 70.5352 50.3047C70.957 49.2188 71.5508 48.2773 72.3164 47.4805C73.0586 46.6992 73.9414 46.0938 74.9648 45.6641C75.9961 45.2266 77.0977 45.0078 78.2695 45.0078C79.207 45.0078 80.0234 45.1211 80.7188 45.3477C81.4141 45.5742 82.0273 45.8477 82.5586 46.168L83.0391 45.3711H83.9766L84.082 51.1836H83.1211C82.957 50.543 82.7539 49.9141 82.5117 49.2969C82.2695 48.6719 81.957 48.1133 81.5742 47.6211C81.1914 47.1289 80.7227 46.7383 80.168 46.4492C79.6211 46.1523 78.9648 46.0039 78.1992 46.0039C77.3633 46.0039 76.6172 46.1758 75.9609 46.5195C75.3047 46.8555 74.7344 47.3594 74.25 48.0312C73.7734 48.6797 73.4062 49.4883 73.1484 50.457C72.8906 51.4258 72.7617 52.5078 72.7617 53.7031C72.7617 54.7578 72.8867 55.7539 73.1367 56.6914C73.3945 57.6211 73.7656 58.4258 74.25 59.1055C74.7344 59.8008 75.3398 60.3477 76.0664 60.7461C76.793 61.1445 77.6172 61.3438 78.5391 61.3438C79.2266 61.3438 79.8516 61.2383 80.4141 61.0273C80.9844 60.8164 81.3867 60.5938 81.6211 60.3594C81.6836 59.9531 81.7148 59.543 81.7148 59.1289C81.7227 58.7148 81.7266 58.3633 81.7266 58.0742V57.1602C81.7266 56.832 81.6797 56.543 81.5859 56.293C81.5 56.0352 81.3164 55.8477 81.0352 55.7305C80.7773 55.6133 80.4258 55.5273 79.9805 55.4727C79.543 55.4102 79.1992 55.3711 78.9492 55.3555V54.5H86.2383V55.3555Z" fill="#2F2D28"/>
<path d="M97.5234 59.2812C97.0391 60.2031 96.3906 60.9375 95.5781 61.4844C94.7656 62.0312 93.832 62.3047 92.7773 62.3047C91.8477 62.3047 91.0312 62.1406 90.3281 61.8125C89.6328 61.4844 89.0586 61.0391 88.6055 60.4766C88.1523 59.9141 87.8125 59.2578 87.5859 58.5078C87.3672 57.7578 87.2578 56.9648 87.2578 56.1289C87.2578 55.3789 87.375 54.6445 87.6094 53.9258C87.8516 53.1992 88.2031 52.5469 88.6641 51.9688C89.1094 51.4141 89.6602 50.9688 90.3164 50.6328C90.9805 50.2891 91.7227 50.1172 92.543 50.1172C93.3867 50.1172 94.1094 50.25 94.7109 50.5156C95.3125 50.7812 95.8008 51.1445 96.1758 51.6055C96.5352 52.043 96.8008 52.5586 96.9727 53.1523C97.1523 53.7461 97.2422 54.3906 97.2422 55.0859V55.8594H89.5898C89.5898 56.6172 89.6602 57.3047 89.8008 57.9219C89.9492 58.5391 90.1797 59.082 90.4922 59.5508C90.7969 60.0039 91.1953 60.3633 91.6875 60.6289C92.1797 60.8867 92.7656 61.0156 93.4453 61.0156C94.1406 61.0156 94.7383 60.8555 95.2383 60.5352C95.7461 60.207 96.2344 59.6211 96.7031 58.7773L97.5234 59.2812ZM94.9336 54.875C94.9336 54.4375 94.8945 53.9688 94.8164 53.4688C94.7461 52.9688 94.6289 52.5508 94.4648 52.2148C94.2852 51.8555 94.0391 51.5625 93.7266 51.3359C93.4141 51.1094 93.0117 50.9961 92.5195 50.9961C91.6992 50.9961 91.0156 51.3398 90.4688 52.0273C89.9297 52.707 89.6367 53.6562 89.5898 54.875H94.9336Z" fill="#2F2D28"/>
<path d="M110.121 56.1055C110.121 56.918 109.992 57.7188 109.734 58.5078C109.477 59.2891 109.109 59.9531 108.633 60.5C108.094 61.125 107.469 61.5898 106.758 61.8945C106.047 62.1992 105.25 62.3516 104.367 62.3516C103.633 62.3516 102.934 62.2148 102.27 61.9414C101.605 61.6602 101.016 61.2539 100.5 60.7227C99.9922 60.1992 99.5859 59.5625 99.2812 58.8125C98.9844 58.0547 98.8359 57.207 98.8359 56.2695C98.8359 54.4648 99.3594 52.9883 100.406 51.8398C101.461 50.6914 102.84 50.1172 104.543 50.1172C106.16 50.1172 107.492 50.6641 108.539 51.7578C109.594 52.8438 110.121 54.293 110.121 56.1055ZM107.695 56.1289C107.695 55.543 107.637 54.9258 107.52 54.2773C107.402 53.6211 107.227 53.0664 106.992 52.6133C106.742 52.1289 106.414 51.7422 106.008 51.4531C105.602 51.1562 105.105 51.0078 104.52 51.0078C103.918 51.0078 103.402 51.1562 102.973 51.4531C102.551 51.75 102.207 52.1562 101.941 52.6719C101.691 53.1484 101.516 53.6914 101.414 54.3008C101.312 54.9102 101.262 55.5 101.262 56.0703C101.262 56.8203 101.32 57.5156 101.438 58.1562C101.562 58.7891 101.758 59.3555 102.023 59.8555C102.289 60.3555 102.621 60.75 103.02 61.0391C103.426 61.3203 103.926 61.4609 104.52 61.4609C105.496 61.4609 106.27 60.9883 106.84 60.043C107.41 59.0977 107.695 57.793 107.695 56.1289Z" fill="#2F2D28"/>
<path d="M120.645 51.9336C120.645 52.332 120.547 52.6875 120.352 53C120.156 53.3047 119.855 53.457 119.449 53.457C119.012 53.457 118.676 53.3438 118.441 53.1172C118.215 52.8906 118.102 52.6406 118.102 52.3672C118.102 52.1953 118.113 52.0391 118.137 51.8984C118.168 51.7578 118.195 51.6172 118.219 51.4766C117.852 51.4766 117.422 51.625 116.93 51.9219C116.438 52.2188 116.02 52.6406 115.676 53.1875V59.9141C115.676 60.1875 115.727 60.4102 115.828 60.582C115.938 60.7539 116.105 60.8828 116.332 60.9688C116.527 61.0469 116.777 61.1055 117.082 61.1445C117.395 61.1836 117.664 61.2109 117.891 61.2266V62H111.797V61.2266C111.977 61.2109 112.16 61.1953 112.348 61.1797C112.543 61.1641 112.711 61.1328 112.852 61.0859C113.07 61.0156 113.23 60.8945 113.332 60.7227C113.441 60.543 113.496 60.3125 113.496 60.0312V52.8945C113.496 52.6523 113.438 52.4141 113.32 52.1797C113.211 51.9453 113.055 51.7578 112.852 51.6172C112.703 51.5234 112.527 51.457 112.324 51.418C112.121 51.3711 111.902 51.3398 111.668 51.3242V50.5625L115.512 50.3047L115.676 50.4688V52.0977H115.734C116.219 51.4648 116.758 50.9844 117.352 50.6562C117.945 50.3281 118.488 50.1641 118.98 50.1641C119.473 50.1641 119.871 50.3242 120.176 50.6445C120.488 50.9648 120.645 51.3945 120.645 51.9336Z" fill="#2F2D28"/>
<path d="M131.543 60.8047C131.855 61.1016 132.102 61.4375 132.281 61.8125C132.461 62.1875 132.551 62.6523 132.551 63.207C132.551 63.7617 132.43 64.2812 132.188 64.7656C131.945 65.2578 131.578 65.6836 131.086 66.043C130.562 66.4102 129.938 66.6953 129.211 66.8984C128.484 67.1016 127.586 67.2031 126.516 67.2031C124.766 67.2031 123.457 66.9453 122.59 66.4297C121.723 65.9219 121.289 65.1758 121.289 64.1914C121.289 63.3945 121.602 62.7656 122.227 62.3047C122.852 61.8438 123.648 61.5938 124.617 61.5547V61.3906C124.383 61.3203 124.141 61.2344 123.891 61.1328C123.641 61.0234 123.426 60.8984 123.246 60.7578C123.043 60.5938 122.879 60.4023 122.754 60.1836C122.629 59.957 122.566 59.6797 122.566 59.3516C122.566 58.9375 122.711 58.5586 123 58.2148C123.297 57.8633 123.742 57.5625 124.336 57.3125V57.1367C123.586 56.7852 123.004 56.3359 122.59 55.7891C122.176 55.2344 121.969 54.5938 121.969 53.8672C121.969 52.7734 122.375 51.875 123.188 51.1719C124.008 50.4688 125.055 50.1172 126.328 50.1172C126.68 50.1172 127.027 50.1523 127.371 50.2227C127.723 50.293 128.078 50.3828 128.438 50.4922H132.469V51.6172H129.75V51.6875C130.039 52.0234 130.254 52.3945 130.395 52.8008C130.535 53.207 130.605 53.6055 130.605 53.9961C130.605 55.0117 130.191 55.8711 129.363 56.5742C128.543 57.2773 127.586 57.6289 126.492 57.6289H125.074C124.895 57.6914 124.707 57.8047 124.512 57.9688C124.316 58.1328 124.219 58.3555 124.219 58.6367C124.219 58.9258 124.301 59.1484 124.465 59.3047C124.629 59.4531 124.828 59.5547 125.062 59.6094C125.289 59.6719 125.551 59.7109 125.848 59.7266C126.152 59.7422 126.465 59.7539 126.785 59.7617C127.129 59.7695 127.598 59.793 128.191 59.832C128.793 59.8711 129.219 59.8945 129.469 59.9023C129.828 59.918 130.188 60.0039 130.547 60.1602C130.914 60.3164 131.246 60.5312 131.543 60.8047ZM128.379 53.9492C128.379 53.0352 128.191 52.3086 127.816 51.7695C127.449 51.2227 126.93 50.9492 126.258 50.9492C125.891 50.9492 125.574 51.0273 125.309 51.1836C125.051 51.332 124.84 51.5469 124.676 51.8281C124.52 52.0859 124.406 52.3984 124.336 52.7656C124.273 53.125 124.242 53.4961 124.242 53.8789C124.242 54.7461 124.43 55.4531 124.805 56C125.188 56.5469 125.68 56.8203 126.281 56.8203C126.953 56.8203 127.469 56.5508 127.828 56.0117C128.195 55.4648 128.379 54.7773 128.379 53.9492ZM130.629 63.6406C130.629 63.2031 130.527 62.8438 130.324 62.5625C130.121 62.2812 129.812 62.0898 129.398 61.9883C129.18 61.957 128.73 61.9219 128.051 61.8828C127.371 61.8438 126.582 61.8242 125.684 61.8242C124.84 61.9883 124.238 62.2617 123.879 62.6445C123.527 63.0352 123.352 63.5352 123.352 64.1445C123.352 64.418 123.41 64.6797 123.527 64.9297C123.645 65.1797 123.848 65.4102 124.137 65.6211C124.41 65.8242 124.777 65.9883 125.238 66.1133C125.699 66.2461 126.262 66.3125 126.926 66.3125C128.074 66.3125 128.977 66.0898 129.633 65.6445C130.297 65.207 130.629 64.5391 130.629 63.6406Z" fill="#2F2D28"/>
<path d="M139.488 62H133.898V61.2266C134.078 61.2109 134.262 61.1953 134.449 61.1797C134.645 61.1641 134.812 61.1328 134.953 61.0859C135.172 61.0156 135.332 60.8945 135.434 60.7227C135.543 60.543 135.598 60.3125 135.598 60.0312V52.8945C135.598 52.6445 135.539 52.418 135.422 52.2148C135.312 52.0039 135.156 51.8281 134.953 51.6875C134.805 51.5938 134.59 51.5156 134.309 51.4531C134.027 51.3828 133.77 51.3398 133.535 51.3242V50.5625L137.613 50.3047L137.777 50.4688V59.8906C137.777 60.1641 137.828 60.3906 137.93 60.5703C138.039 60.75 138.207 60.8828 138.434 60.9688C138.605 61.0391 138.773 61.0977 138.938 61.1445C139.102 61.1836 139.285 61.2109 139.488 61.2266V62ZM138.012 45.7461C138.012 46.1914 137.863 46.582 137.566 46.918C137.277 47.2461 136.918 47.4102 136.488 47.4102C136.09 47.4102 135.742 47.2539 135.445 46.9414C135.156 46.6211 135.012 46.2578 135.012 45.8516C135.012 45.4219 135.156 45.0469 135.445 44.7266C135.742 44.4062 136.09 44.2461 136.488 44.2461C136.934 44.2461 137.297 44.3984 137.578 44.7031C137.867 45 138.012 45.3477 138.012 45.7461Z" fill="#2F2D28"/>
<path d="M151.852 61.7891C151.484 61.9219 151.16 62.0273 150.879 62.1055C150.605 62.1914 150.293 62.2344 149.941 62.2344C149.332 62.2344 148.844 62.0938 148.477 61.8125C148.117 61.5234 147.887 61.1055 147.785 60.5586H147.715C147.207 61.1211 146.66 61.5508 146.074 61.8477C145.496 62.1445 144.797 62.293 143.977 62.293C143.109 62.293 142.395 62.0273 141.832 61.4961C141.277 60.9648 141 60.2695 141 59.4102C141 58.9648 141.062 58.5664 141.188 58.2148C141.312 57.8633 141.5 57.5469 141.75 57.2656C141.945 57.0312 142.203 56.8242 142.523 56.6445C142.844 56.457 143.145 56.3086 143.426 56.1992C143.777 56.0664 144.488 55.8203 145.559 55.4609C146.637 55.1016 147.363 54.8203 147.738 54.6172V53.457C147.738 53.3555 147.715 53.1602 147.668 52.8711C147.629 52.582 147.539 52.3086 147.398 52.0508C147.242 51.7617 147.02 51.5117 146.73 51.3008C146.449 51.082 146.047 50.9727 145.523 50.9727C145.164 50.9727 144.828 51.0352 144.516 51.1602C144.211 51.2773 143.996 51.4023 143.871 51.5352C143.871 51.6914 143.906 51.9219 143.977 52.2266C144.055 52.5312 144.094 52.8125 144.094 53.0703C144.094 53.3438 143.969 53.5938 143.719 53.8203C143.477 54.0469 143.137 54.1602 142.699 54.1602C142.309 54.1602 142.02 54.0234 141.832 53.75C141.652 53.4688 141.562 53.1562 141.562 52.8125C141.562 52.4531 141.688 52.1094 141.938 51.7812C142.195 51.4531 142.527 51.1602 142.934 50.9023C143.285 50.6836 143.711 50.5 144.211 50.3516C144.711 50.1953 145.199 50.1172 145.676 50.1172C146.332 50.1172 146.902 50.1641 147.387 50.2578C147.879 50.3438 148.324 50.5352 148.723 50.832C149.121 51.1211 149.422 51.5156 149.625 52.0156C149.836 52.5078 149.941 53.1445 149.941 53.9258C149.941 55.043 149.93 56.0352 149.906 56.9023C149.883 57.7617 149.871 58.7031 149.871 59.7266C149.871 60.0312 149.922 60.2734 150.023 60.4531C150.133 60.6328 150.297 60.7852 150.516 60.9102C150.633 60.9805 150.816 61.0195 151.066 61.0273C151.324 61.0352 151.586 61.0391 151.852 61.0391V61.7891ZM147.762 55.6016C147.098 55.7969 146.516 55.9883 146.016 56.1758C145.516 56.3633 145.051 56.5977 144.621 56.8789C144.23 57.1445 143.922 57.4609 143.695 57.8281C143.469 58.1875 143.355 58.6172 143.355 59.1172C143.355 59.7656 143.523 60.2422 143.859 60.5469C144.203 60.8516 144.637 61.0039 145.16 61.0039C145.715 61.0039 146.203 60.8711 146.625 60.6055C147.047 60.332 147.402 60.0117 147.691 59.6445L147.762 55.6016Z" fill="#2F2D28"/>
<path d="M206.96 61.496L209.168 61.136V43.664L206.96 43.328V42.8H214.496C216.864 42.8 218.624 43.304 219.776 44.312C220.928 45.32 221.504 46.776 221.504 48.68C221.504 50.584 220.928 52.04 219.776 53.048C218.624 54.056 216.864 54.56 214.496 54.56H211.808V61.136L214.016 61.496V62H206.96V61.496ZM214.16 53.984C217.12 53.984 218.6 52.376 218.6 49.16V48.2C218.6 45 217.12 43.4 214.16 43.4H211.808V53.984H214.16Z" fill="#2F2D28"/>
<path d="M223.054 61.52L224.734 61.28V50.288L223.054 50.048V49.568H227.134V51.416C228.142 50.04 229.278 49.352 230.542 49.352C231.15 49.352 231.686 49.512 232.15 49.832C232.614 50.136 232.846 50.576 232.846 51.152C232.846 51.568 232.71 51.92 232.438 52.208C232.166 52.48 231.806 52.616 231.358 52.616C230.846 52.616 230.43 52.416 230.11 52.016C230.286 51.792 230.374 51.552 230.374 51.296C230.374 51.024 230.278 50.808 230.086 50.648C229.91 50.472 229.67 50.384 229.366 50.384C229.03 50.384 228.686 50.544 228.334 50.864C227.982 51.168 227.582 51.648 227.134 52.304V61.28L229.054 61.52V62H223.054V61.52Z" fill="#2F2D28"/>
<path d="M237.631 62.24C236.607 62.24 235.767 61.976 235.111 61.448C234.455 60.904 234.127 60.104 234.127 59.048C234.127 57.544 234.759 56.48 236.023 55.856C237.287 55.216 238.751 54.896 240.415 54.896H242.023V53.048C242.023 52.216 241.927 51.576 241.735 51.128C241.559 50.664 241.279 50.344 240.895 50.168C240.511 49.976 239.991 49.88 239.335 49.88C238.583 49.88 238.023 50.032 237.655 50.336C237.287 50.624 237.103 51.016 237.103 51.512C237.103 51.976 237.327 52.28 237.775 52.424C237.775 52.824 237.623 53.176 237.319 53.48C237.015 53.784 236.655 53.936 236.239 53.936C235.791 53.936 235.431 53.816 235.159 53.576C234.887 53.32 234.751 52.936 234.751 52.424C234.751 51.496 235.215 50.752 236.143 50.192C237.071 49.632 238.231 49.352 239.623 49.352C242.823 49.352 244.423 50.744 244.423 53.528V60.392C244.423 60.744 244.495 61.016 244.639 61.208C244.799 61.384 245.023 61.472 245.311 61.472C245.583 61.472 245.799 61.384 245.959 61.208C246.119 61.016 246.199 60.76 246.199 60.44H246.703C246.703 61 246.519 61.44 246.151 61.76C245.799 62.08 245.303 62.24 244.663 62.24C243.927 62.24 243.303 62.032 242.791 61.616C242.295 61.184 242.039 60.52 242.023 59.624C241.639 60.44 241.047 61.08 240.247 61.544C239.463 62.008 238.591 62.24 237.631 62.24ZM238.951 61.184C239.383 61.184 239.823 61.056 240.271 60.8C240.735 60.544 241.127 60.176 241.447 59.696C241.767 59.2 241.959 58.608 242.023 57.92V55.424H240.415C239.103 55.424 238.119 55.72 237.463 56.312C236.823 56.888 236.503 57.704 236.503 58.76C236.503 59.64 236.711 60.264 237.127 60.632C237.543 61 238.151 61.184 238.951 61.184Z" fill="#2F2D28"/>
<path d="M252.257 62.24C251.201 62.24 250.353 61.976 249.713 61.448C249.089 60.92 248.777 60.08 248.777 58.928V50.288L247.073 50.048V49.568H248.777V47.576L251.177 46.976V49.568H254.297V50.048L251.177 50.288V58.88C251.177 60.576 251.785 61.424 253.001 61.424C253.257 61.424 253.497 61.384 253.721 61.304C253.961 61.224 254.145 61.144 254.273 61.064C254.417 60.984 254.505 60.928 254.537 60.896L254.849 61.28C254.129 61.92 253.265 62.24 252.257 62.24Z" fill="#2F2D28"/>
<path d="M259.569 62.24C258.545 62.24 257.705 61.976 257.049 61.448C256.393 60.904 256.065 60.104 256.065 59.048C256.065 57.544 256.697 56.48 257.961 55.856C259.225 55.216 260.689 54.896 262.353 54.896H263.961V53.048C263.961 52.216 263.865 51.576 263.673 51.128C263.497 50.664 263.217 50.344 262.833 50.168C262.449 49.976 261.929 49.88 261.273 49.88C260.521 49.88 259.961 50.032 259.593 50.336C259.225 50.624 259.041 51.016 259.041 51.512C259.041 51.976 259.265 52.28 259.713 52.424C259.713 52.824 259.561 53.176 259.257 53.48C258.953 53.784 258.593 53.936 258.177 53.936C257.729 53.936 257.369 53.816 257.097 53.576C256.825 53.32 256.689 52.936 256.689 52.424C256.689 51.496 257.153 50.752 258.081 50.192C259.009 49.632 260.169 49.352 261.561 49.352C264.761 49.352 266.361 50.744 266.361 53.528V60.392C266.361 60.744 266.433 61.016 266.577 61.208C266.737 61.384 266.961 61.472 267.249 61.472C267.521 61.472 267.737 61.384 267.897 61.208C268.057 61.016 268.137 60.76 268.137 60.44H268.641C268.641 61 268.457 61.44 268.089 61.76C267.737 62.08 267.241 62.24 266.601 62.24C265.865 62.24 265.241 62.032 264.729 61.616C264.233 61.184 263.977 60.52 263.961 59.624C263.577 60.44 262.985 61.08 262.185 61.544C261.401 62.008 260.529 62.24 259.569 62.24ZM260.889 61.184C261.321 61.184 261.761 61.056 262.209 60.8C262.673 60.544 263.065 60.176 263.385 59.696C263.705 59.2 263.897 58.608 263.961 57.92V55.424H262.353C261.041 55.424 260.057 55.72 259.401 56.312C258.761 56.888 258.441 57.704 258.441 58.76C258.441 59.64 258.649 60.264 259.065 60.632C259.481 61 260.089 61.184 260.889 61.184Z" fill="#2F2D28"/>
<path d="M32.5742 88V87.7305C33.0273 87.707 33.3906 87.6445 33.6641 87.543C33.9453 87.4336 34.1914 87.2695 34.4023 87.0508C34.6523 86.8008 34.8203 86.4844 34.9062 86.1016C34.9922 85.7188 35.0352 85.125 35.0352 84.3203V75.6836C35.0352 74.8789 34.9922 74.2852 34.9062 73.9023C34.8203 73.5195 34.6523 73.2031 34.4023 72.9531C34.1914 72.7266 33.9453 72.5625 33.6641 72.4609C33.3828 72.3594 33.0195 72.2969 32.5742 72.2734V72.0039H40.2734C41.0547 72.0039 41.5664 72.0117 41.8086 72.0273C42.6992 72.0977 43.4375 72.3086 44.0234 72.6602C44.5312 72.9727 44.9219 73.3828 45.1953 73.8906C45.4766 74.3984 45.6172 74.9688 45.6172 75.6016C45.6172 76.625 45.3008 77.4648 44.668 78.1211C44.4414 78.3633 44.1836 78.5664 43.8945 78.7305C43.6055 78.8867 43.1875 79.0625 42.6406 79.2578C43.3906 79.3828 43.9727 79.5195 44.3867 79.668C44.8008 79.8164 45.1758 80.0234 45.5117 80.2891C46.0117 80.6953 46.3984 81.2031 46.6719 81.8125C46.9531 82.4141 47.0938 83.0664 47.0938 83.7695C47.0938 84.4805 46.9492 85.1328 46.6602 85.7266C46.3789 86.3125 45.9844 86.7852 45.4766 87.1445C45.0156 87.4648 44.4648 87.6875 43.8242 87.8125C43.1914 87.9375 42.2969 88 41.1406 88H32.5742ZM37.6016 72.3672V79.3281H38.5508C38.9961 79.3281 39.457 79.2969 39.9336 79.2344C40.3477 79.1719 40.6797 79.0977 40.9297 79.0117C41.1875 78.9258 41.4219 78.8086 41.6328 78.6602C42.0312 78.3633 42.3359 77.9844 42.5469 77.5234C42.7656 77.0547 42.875 76.5391 42.875 75.9766C42.875 75.3828 42.7617 74.8203 42.5352 74.2891C42.3164 73.75 42.0234 73.332 41.6562 73.0352C41.3359 72.7773 40.9688 72.6016 40.5547 72.5078C40.1484 72.4141 39.5273 72.3672 38.6914 72.3672H37.6016ZM37.6016 79.6914V84.5195C37.6016 85.1055 37.6406 85.5781 37.7188 85.9375C37.8047 86.2969 37.9414 86.6016 38.1289 86.8516C38.5273 87.375 39.2109 87.6367 40.1797 87.6367C41.4375 87.6367 42.4297 87.293 43.1562 86.6055C43.8906 85.918 44.2578 84.9805 44.2578 83.793C44.2578 83.1133 44.1445 82.4844 43.918 81.9062C43.6914 81.3203 43.3867 80.8711 43.0039 80.5586C42.3008 79.9805 41.1992 79.6914 39.6992 79.6914H37.6016Z" fill="#2F2D28"/>
<path d="M58.4844 86.8633L58.6836 86.9805C58.4023 87.8008 57.7578 88.2109 56.75 88.2109C56.1953 88.2109 55.7344 88.0742 55.3672 87.8008C55.125 87.6211 54.875 87.3086 54.6172 86.8633C54.0938 87.332 53.6992 87.6406 53.4336 87.7891C52.9258 88.0703 52.3359 88.2109 51.6641 88.2109C50.8047 88.2109 50.1211 88.0039 49.6133 87.5898C49.1133 87.1758 48.8633 86.6172 48.8633 85.9141C48.8633 85.2656 49.0703 84.7227 49.4844 84.2852C49.7188 84.043 49.9883 83.8516 50.293 83.7109C50.5977 83.5625 51.0391 83.4141 51.6172 83.2656C52.2969 83.0938 52.7969 82.9492 53.1172 82.832C53.4453 82.7148 53.7188 82.5742 53.9375 82.4102C54.1875 82.2305 54.3594 82.0195 54.4531 81.7773C54.5469 81.5352 54.5938 81.1992 54.5938 80.7695C54.5938 79.8555 54.4219 79.1875 54.0781 78.7656C53.9219 78.5703 53.7188 78.4141 53.4688 78.2969C53.2266 78.1797 52.9727 78.1211 52.707 78.1211C52.3867 78.1211 52.1016 78.2031 51.8516 78.3672C51.6016 78.5312 51.4141 78.7578 51.2891 79.0469L50.9961 79.7266C50.8398 80.0938 50.5586 80.2773 50.1523 80.2773C49.8867 80.2773 49.6641 80.1914 49.4844 80.0195C49.3047 79.8398 49.2148 79.6172 49.2148 79.3516C49.2148 78.9531 49.4961 78.6172 50.0586 78.3438C50.3633 78.2031 50.7383 78.0898 51.1836 78.0039C51.6367 77.9102 52.0781 77.8633 52.5078 77.8633C52.9922 77.8633 53.4961 77.9258 54.0195 78.0508C54.543 78.1758 54.9805 78.3359 55.332 78.5312C55.8398 78.8203 56.1562 79.1953 56.2812 79.6562C56.3438 79.8906 56.375 80.2852 56.375 80.8398V85.1758C56.375 85.9102 56.4062 86.4102 56.4688 86.6758C56.6016 87.2305 56.9219 87.5078 57.4297 87.5078C57.6719 87.5078 57.8594 87.4648 57.9922 87.3789C58.1328 87.293 58.2969 87.1211 58.4844 86.8633ZM54.6172 82.2461C54.1953 82.5977 53.7305 82.9062 53.2227 83.1719C52.6523 83.4766 52.2578 83.707 52.0391 83.8633C51.8203 84.0195 51.6211 84.207 51.4414 84.4258C51.0742 84.8789 50.8906 85.4062 50.8906 86.0078C50.8906 86.5234 51.0312 86.9492 51.3125 87.2852C51.6016 87.6211 51.9648 87.7891 52.4023 87.7891C52.7852 87.7891 53.1445 87.6719 53.4805 87.4375C53.8242 87.1953 54.082 86.875 54.2539 86.4766C54.4961 85.9531 54.6172 85.1953 54.6172 84.2031V82.2461Z" fill="#2F2D28"/>
<path d="M59.5156 88V84.6836H59.7031C59.9219 85.4961 60.1953 86.1445 60.5234 86.6289C61.125 87.5117 61.8281 87.9531 62.6328 87.9531C63.125 87.9531 63.5508 87.8047 63.9102 87.5078C64.3008 87.1797 64.4961 86.7148 64.4961 86.1133C64.4961 85.6211 64.3555 85.1914 64.0742 84.8242C63.918 84.6289 63.7188 84.4492 63.4766 84.2852C63.2422 84.1211 62.8438 83.8906 62.2812 83.5938C61.2969 83.0703 60.6406 82.6328 60.3125 82.2812C59.8438 81.7812 59.6094 81.2031 59.6094 80.5469C59.6094 79.8438 59.8438 79.2383 60.3125 78.7305C60.8516 78.1523 61.5664 77.8633 62.457 77.8633C62.8555 77.8633 63.2266 77.9336 63.5703 78.0742L63.9688 78.25C64.0938 78.2969 64.2031 78.3203 64.2969 78.3203C64.4453 78.3203 64.5859 78.2031 64.7188 77.9688H64.9531L65.082 80.6289H64.8359C64.75 80.2539 64.6562 79.9531 64.5547 79.7266C64.4609 79.5 64.3242 79.2812 64.1445 79.0703C63.9023 78.7734 63.6211 78.543 63.3008 78.3789C62.9805 78.207 62.6641 78.1211 62.3516 78.1211C61.9141 78.1211 61.5391 78.2812 61.2266 78.6016C60.9219 78.9141 60.7695 79.3008 60.7695 79.7617C60.7695 80.1445 60.9062 80.4922 61.1797 80.8047C61.4609 81.1094 61.8906 81.3906 62.4688 81.6484L63.7109 82.2109C64.4531 82.5469 65.0078 82.9648 65.375 83.4648C65.7422 83.9648 65.9258 84.5547 65.9258 85.2344C65.9258 86.0547 65.6602 86.7344 65.1289 87.2734C64.5195 87.8984 63.7383 88.2109 62.7852 88.2109C62.2695 88.2109 61.7461 88.1094 61.2148 87.9062C60.8711 87.7734 60.6641 87.6992 60.5938 87.6836C60.5234 87.6602 60.4336 87.6484 60.3242 87.6484C60.0508 87.6484 59.8438 87.7656 59.7031 88H59.5156Z" fill="#2F2D28"/>
<path d="M70.6836 83.2656L72.8164 80.9336C73.2539 80.4414 73.5469 80.0781 73.6953 79.8438C73.8438 79.6016 73.918 79.3594 73.918 79.1172C73.918 78.7812 73.7461 78.5469 73.4023 78.4141C73.2539 78.3516 72.9766 78.3086 72.5703 78.2852V78.0391H77.082V78.2852C76.5117 78.2852 76.0508 78.3828 75.6992 78.5781C75.3477 78.7734 74.8867 79.1797 74.3164 79.7969L73.8477 80.3242L72.5703 81.6953L75.5938 85.0938C75.8438 85.3672 76.0078 85.543 76.0859 85.6211L76.6133 86.1602C77.0352 86.582 77.3398 86.8711 77.5273 87.0273C77.7148 87.1836 77.9375 87.332 78.1953 87.4727C78.4922 87.6289 78.875 87.7266 79.3438 87.7656V88H73.8477V87.7656C74.1758 87.7344 74.4062 87.6797 74.5391 87.6016C74.7266 87.4844 74.8203 87.3203 74.8203 87.1094C74.8203 86.8828 74.707 86.6445 74.4805 86.3945L74.2344 86.1133L71.3984 82.9727L70.6836 83.7578V84.6133L70.6953 85.5039C70.6953 86.0352 70.7266 86.4258 70.7891 86.6758C70.8516 86.918 70.9727 87.1211 71.1523 87.2852C71.3711 87.4961 71.7734 87.6562 72.3594 87.7656V88H67.1914V87.7656C67.6602 87.7031 67.9961 87.6172 68.1992 87.5078C68.4023 87.3906 68.5664 87.1953 68.6914 86.9219C68.7773 86.7422 68.8359 86.4727 68.8672 86.1133C68.9062 85.7461 68.9258 85.2188 68.9258 84.5312V75.332C68.9258 74.5352 68.9062 73.9727 68.8672 73.6445C68.8281 73.3164 68.7422 73.0508 68.6094 72.8477C68.4766 72.6289 68.3164 72.4727 68.1289 72.3789C67.9414 72.2852 67.6719 72.2266 67.3203 72.2031V71.957L70.6836 71.5352V83.2656Z" fill="#2F2D28"/>
<path d="M81.6641 81.625C81.6328 82.0078 81.6172 82.2852 81.6172 82.457C81.6172 83.1367 81.7148 83.8008 81.9102 84.4492C82.1133 85.0977 82.3867 85.6367 82.7305 86.0664C83.082 86.5039 83.5156 86.8477 84.0312 87.0977C84.5547 87.3477 85.1016 87.4727 85.6719 87.4727C86.0938 87.4727 86.4922 87.4023 86.8672 87.2617C87.25 87.1211 87.5664 86.9258 87.8164 86.6758C88.0977 86.4023 88.3398 85.9648 88.543 85.3633L88.7773 85.4453C88.5742 86.3594 88.1367 87.0508 87.4648 87.5195C86.8008 87.9805 85.9141 88.2109 84.8047 88.2109C83.8438 88.2109 83.0195 88.0586 82.332 87.7539C81.6445 87.4492 81.0625 86.9805 80.5859 86.3477C79.9219 85.4648 79.5898 84.3789 79.5898 83.0898C79.5898 81.332 80.2188 79.9531 81.4766 78.9531C82.3906 78.2266 83.4336 77.8633 84.6055 77.8633C85.2305 77.8633 85.8086 77.9766 86.3398 78.2031C86.8711 78.4219 87.3203 78.7422 87.6875 79.1641C88.2578 79.8203 88.543 80.6406 88.543 81.625H81.6641ZM86.7969 81.168C86.7422 80.3867 86.5977 79.7852 86.3633 79.3633C86.1523 78.9805 85.8711 78.6797 85.5195 78.4609C85.168 78.2344 84.793 78.1211 84.3945 78.1211C83.7227 78.1211 83.1328 78.4102 82.625 78.9883C82.125 79.5664 81.8281 80.293 81.7344 81.168H86.7969Z" fill="#2F2D28"/>
<path d="M93.3594 79.668C93.6406 79.1758 93.957 78.8047 94.3086 78.5547C94.957 78.0938 95.6953 77.8633 96.5234 77.8633C97.0312 77.8633 97.418 77.9766 97.6836 78.2031C97.9258 78.4062 98.0469 78.6562 98.0469 78.9531C98.0469 79.1719 97.9727 79.3516 97.8242 79.4922C97.6836 79.6328 97.5 79.7031 97.2734 79.7031C97.0078 79.7031 96.7773 79.5938 96.582 79.375L96.2188 78.9766C95.9297 78.6719 95.5898 78.5195 95.1992 78.5195C94.668 78.5195 94.2539 78.8633 93.957 79.5508C93.6602 80.2383 93.5117 81.1953 93.5117 82.4219V84.6133L93.5234 85.5039C93.5234 86.0352 93.5547 86.4258 93.6172 86.6758C93.6797 86.918 93.8008 87.1211 93.9805 87.2852C94.1992 87.4961 94.6016 87.6562 95.1875 87.7656V88H90.0195V87.7656C90.4883 87.7031 90.8242 87.6172 91.0273 87.5078C91.2305 87.3906 91.3945 87.1953 91.5195 86.9219C91.6055 86.7422 91.6641 86.4727 91.6953 86.1133C91.7344 85.7461 91.7539 85.2188 91.7539 84.5312V81.6367C91.7539 80.832 91.7344 80.2695 91.6953 79.9492C91.6562 79.6211 91.5703 79.3555 91.4375 79.1523C91.3047 78.9336 91.1445 78.7773 90.957 78.6836C90.7695 78.582 90.5 78.5195 90.1484 78.4961V78.2617L93.1602 77.8398C93.293 78.5508 93.3594 79.1602 93.3594 79.668Z" fill="#2F2D28"/>
<path d="M97.8828 78.0391H102.418V78.2852C102.074 78.3555 101.84 78.4336 101.715 78.5195C101.465 78.6758 101.34 78.9258 101.34 79.2695C101.34 79.4805 101.379 79.7266 101.457 80.0078C101.535 80.2891 101.68 80.6992 101.891 81.2383L103.789 86.0547L105.699 81.0391C105.98 80.2969 106.121 79.7461 106.121 79.3867C106.121 78.9961 106 78.7109 105.758 78.5312C105.633 78.4375 105.402 78.3555 105.066 78.2852V78.0391H108.301V78.2852C107.863 78.3945 107.512 78.5898 107.246 78.8711C106.91 79.2227 106.523 79.9609 106.086 81.0859L103.379 88H102.746L99.8047 80.7344C99.3516 79.6172 99.0273 78.9414 98.832 78.707C98.7227 78.582 98.6016 78.4922 98.4688 78.4375C98.3359 78.375 98.1406 78.3242 97.8828 78.2852V78.0391Z" fill="#2F2D28"/>
<path d="M108.43 78.2617L111.793 77.8398V84.6133L111.805 85.5039C111.805 86.0352 111.836 86.4258 111.898 86.6758C111.961 86.918 112.082 87.1211 112.262 87.2852C112.48 87.4961 112.883 87.6562 113.469 87.7656V88H108.301V87.7656C108.77 87.7031 109.105 87.6172 109.309 87.5078C109.512 87.3906 109.676 87.1953 109.801 86.9219C109.887 86.7422 109.945 86.4727 109.977 86.1133C110.016 85.7461 110.035 85.2188 110.035 84.5312V81.6367C110.035 80.832 110.016 80.2695 109.977 79.9492C109.938 79.6211 109.852 79.3555 109.719 79.1523C109.586 78.9336 109.426 78.7773 109.238 78.6836C109.051 78.582 108.781 78.5195 108.43 78.4961V78.2617ZM110.867 73.6562C110.562 73.6562 110.309 73.5586 110.105 73.3633C109.91 73.168 109.812 72.9219 109.812 72.625C109.812 72.3359 109.914 72.0938 110.117 71.8984C110.32 71.6953 110.57 71.5938 110.867 71.5938C111.164 71.5938 111.414 71.6953 111.617 71.8984C111.82 72.0938 111.922 72.3359 111.922 72.625C111.922 72.9219 111.82 73.168 111.617 73.3633C111.422 73.5586 111.172 73.6562 110.867 73.6562Z" fill="#2F2D28"/>
<path d="M114.242 71.957L117.605 71.5352V84.6133L117.617 85.5039C117.617 86.0352 117.648 86.4258 117.711 86.6758C117.773 86.918 117.895 87.1211 118.074 87.2852C118.293 87.4961 118.695 87.6562 119.281 87.7656V88H114.113V87.7656C114.582 87.7031 114.918 87.6172 115.121 87.5078C115.324 87.3906 115.488 87.1953 115.613 86.9219C115.699 86.7422 115.758 86.4727 115.789 86.1133C115.828 85.7461 115.848 85.2188 115.848 84.5312V75.332C115.848 74.5352 115.828 73.9727 115.789 73.6445C115.75 73.3164 115.664 73.0508 115.531 72.8477C115.398 72.6289 115.238 72.4727 115.051 72.3789C114.863 72.2852 114.594 72.2266 114.242 72.2031V71.957Z" fill="#2F2D28"/>
<path d="M120.055 71.957L123.418 71.5352V84.6133L123.43 85.5039C123.43 86.0352 123.461 86.4258 123.523 86.6758C123.586 86.918 123.707 87.1211 123.887 87.2852C124.105 87.4961 124.508 87.6562 125.094 87.7656V88H119.926V87.7656C120.395 87.7031 120.73 87.6172 120.934 87.5078C121.137 87.3906 121.301 87.1953 121.426 86.9219C121.512 86.7422 121.57 86.4727 121.602 86.1133C121.641 85.7461 121.66 85.2188 121.66 84.5312V75.332C121.66 74.5352 121.641 73.9727 121.602 73.6445C121.562 73.3164 121.477 73.0508 121.344 72.8477C121.211 72.6289 121.051 72.4727 120.863 72.3789C120.676 72.2852 120.406 72.2266 120.055 72.2031V71.957Z" fill="#2F2D28"/>
<path d="M128.211 81.625C128.18 82.0078 128.164 82.2852 128.164 82.457C128.164 83.1367 128.262 83.8008 128.457 84.4492C128.66 85.0977 128.934 85.6367 129.277 86.0664C129.629 86.5039 130.062 86.8477 130.578 87.0977C131.102 87.3477 131.648 87.4727 132.219 87.4727C132.641 87.4727 133.039 87.4023 133.414 87.2617C133.797 87.1211 134.113 86.9258 134.363 86.6758C134.645 86.4023 134.887 85.9648 135.09 85.3633L135.324 85.4453C135.121 86.3594 134.684 87.0508 134.012 87.5195C133.348 87.9805 132.461 88.2109 131.352 88.2109C130.391 88.2109 129.566 88.0586 128.879 87.7539C128.191 87.4492 127.609 86.9805 127.133 86.3477C126.469 85.4648 126.137 84.3789 126.137 83.0898C126.137 81.332 126.766 79.9531 128.023 78.9531C128.938 78.2266 129.98 77.8633 131.152 77.8633C131.777 77.8633 132.355 77.9766 132.887 78.2031C133.418 78.4219 133.867 78.7422 134.234 79.1641C134.805 79.8203 135.09 80.6406 135.09 81.625H128.211ZM133.344 81.168C133.289 80.3867 133.145 79.7852 132.91 79.3633C132.699 78.9805 132.418 78.6797 132.066 78.4609C131.715 78.2344 131.34 78.1211 130.941 78.1211C130.27 78.1211 129.68 78.4102 129.172 78.9883C128.672 79.5664 128.375 80.293 128.281 81.168H133.344Z" fill="#2F2D28"/>
<path d="M184.531 75.6367V74.9453C184.531 74.7109 184.574 74.543 184.66 74.4414C184.754 74.3398 184.875 74.2891 185.023 74.2891C185.172 74.2891 185.289 74.3398 185.375 74.4414C185.469 74.543 185.516 74.7109 185.516 74.9453V77.6758C185.516 77.918 185.469 78.0898 185.375 78.1914C185.289 78.293 185.172 78.3438 185.023 78.3438C184.891 78.3438 184.777 78.2969 184.684 78.2031C184.598 78.1094 184.547 77.957 184.531 77.7461C184.492 77.0898 184.137 76.5078 183.465 76C182.559 75.3047 181.527 74.957 180.371 74.957C179.613 74.957 178.898 75.125 178.227 75.4609C177.727 75.7031 177.328 76 177.031 76.3516C176.516 76.9609 176.105 77.6367 175.801 78.3789C175.582 78.9258 175.473 79.543 175.473 80.2305V81.9531C175.473 83.4219 176.004 84.6992 177.066 85.7852C178.129 86.8633 179.363 87.4023 180.77 87.4023C181.613 87.4023 182.367 87.2188 183.031 86.8516C183.703 86.4844 184.352 85.9297 184.977 85.1875C185.109 85.0234 185.258 84.9414 185.422 84.9414C185.562 84.9414 185.676 84.9844 185.762 85.0703C185.848 85.1562 185.891 85.2656 185.891 85.3984C185.891 85.5781 185.723 85.8516 185.387 86.2188C184.746 86.9375 184.023 87.4805 183.219 87.8477C182.422 88.207 181.613 88.3867 180.793 88.3867C180.082 88.3867 179.359 88.25 178.625 87.9766C178.062 87.7656 177.598 87.5195 177.23 87.2383C176.863 86.957 176.41 86.4844 175.871 85.8203C175.34 85.1484 174.977 84.5312 174.781 83.9688C174.586 83.3984 174.488 82.7734 174.488 82.0938V80.0898C174.488 79.1211 174.746 78.1328 175.262 77.125C175.785 76.1094 176.496 75.332 177.395 74.793C178.301 74.2461 179.281 73.9727 180.336 73.9727C181.961 73.9727 183.359 74.5273 184.531 75.6367Z" fill="#2F2D28"/>
<path d="M200.117 82.9492C200.117 84.4492 199.578 85.7305 198.5 86.793C197.43 87.8555 196.137 88.3867 194.621 88.3867C193.09 88.3867 191.789 87.8555 190.719 86.793C189.648 85.7227 189.113 84.4414 189.113 82.9492C189.113 81.4492 189.648 80.168 190.719 79.1055C191.789 78.0352 193.09 77.5 194.621 77.5C196.137 77.5 197.43 78.0312 198.5 79.0938C199.578 80.1562 200.117 81.4414 200.117 82.9492ZM199.121 82.9492C199.121 81.7148 198.68 80.6641 197.797 79.7969C196.922 78.9297 195.859 78.4961 194.609 78.4961C193.359 78.4961 192.293 78.9336 191.41 79.8086C190.535 80.6758 190.098 81.7227 190.098 82.9492C190.098 84.168 190.535 85.2148 191.41 86.0898C192.293 86.9648 193.359 87.4023 194.609 87.4023C195.859 87.4023 196.922 86.9688 197.797 86.1016C198.68 85.2266 199.121 84.1758 199.121 82.9492Z" fill="#2F2D28"/>
<path d="M212.398 88V86.5586C211.055 87.7773 209.602 88.3867 208.039 88.3867C207.078 88.3867 206.348 88.125 205.848 87.6016C205.199 86.9141 204.875 86.1133 204.875 85.1992V78.8477H203.551C203.316 78.8477 203.148 78.8008 203.047 78.707C202.945 78.6133 202.895 78.4922 202.895 78.3438C202.895 78.2031 202.945 78.0859 203.047 77.9922C203.148 77.8984 203.316 77.8516 203.551 77.8516H205.859V85.1992C205.859 85.8398 206.062 86.3672 206.469 86.7812C206.875 87.1953 207.383 87.4023 207.992 87.4023C209.594 87.4023 211.062 86.668 212.398 85.1992V78.8477H210.582C210.348 78.8477 210.18 78.8008 210.078 78.707C209.977 78.6133 209.926 78.4922 209.926 78.3438C209.926 78.2031 209.977 78.0859 210.078 77.9922C210.18 77.8984 210.348 77.8516 210.582 77.8516H213.383V87.0156H214.215C214.449 87.0156 214.617 87.0625 214.719 87.1562C214.82 87.2422 214.871 87.3594 214.871 87.5078C214.871 87.6484 214.82 87.7656 214.719 87.8594C214.617 87.9531 214.449 88 214.215 88H212.398Z" fill="#2F2D28"/>
<path d="M222.266 77.8516V80.3359C223.547 79.1797 224.504 78.4375 225.137 78.1094C225.777 77.7734 226.367 77.6055 226.906 77.6055C227.492 77.6055 228.035 77.8047 228.535 78.2031C229.043 78.5938 229.297 78.8906 229.297 79.0938C229.297 79.2422 229.246 79.3672 229.145 79.4688C229.051 79.5625 228.93 79.6094 228.781 79.6094C228.703 79.6094 228.637 79.5977 228.582 79.5742C228.527 79.543 228.426 79.4531 228.277 79.3047C228.004 79.0312 227.766 78.8438 227.562 78.7422C227.359 78.6406 227.16 78.5898 226.965 78.5898C226.535 78.5898 226.016 78.7617 225.406 79.1055C224.805 79.4492 223.758 80.2891 222.266 81.625V87.0156H226.625C226.867 87.0156 227.039 87.0625 227.141 87.1562C227.242 87.2422 227.293 87.3594 227.293 87.5078C227.293 87.6484 227.242 87.7656 227.141 87.8594C227.039 87.9531 226.867 88 226.625 88H218.902C218.668 88 218.5 87.957 218.398 87.8711C218.297 87.7773 218.246 87.6602 218.246 87.5195C218.246 87.3867 218.293 87.2773 218.387 87.1914C218.488 87.0977 218.66 87.0508 218.902 87.0508H221.281V78.8477H219.465C219.23 78.8477 219.062 78.8008 218.961 78.707C218.859 78.6133 218.809 78.4922 218.809 78.3438C218.809 78.2031 218.855 78.0859 218.949 77.9922C219.051 77.8984 219.223 77.8516 219.465 77.8516H222.266Z" fill="#2F2D28"/>
<path d="M238.344 72.8008V75.3438H236.891V72.8008H238.344ZM238.379 77.8516V87.0156H242.246C242.488 87.0156 242.66 87.0625 242.762 87.1562C242.863 87.2422 242.914 87.3594 242.914 87.5078C242.914 87.6484 242.863 87.7656 242.762 87.8594C242.66 87.9531 242.488 88 242.246 88H233.527C233.293 88 233.125 87.9531 233.023 87.8594C232.922 87.7656 232.871 87.6484 232.871 87.5078C232.871 87.3594 232.922 87.2422 233.023 87.1562C233.125 87.0625 233.293 87.0156 233.527 87.0156H237.395V78.8477H234.523C234.289 78.8477 234.117 78.8008 234.008 78.707C233.906 78.6133 233.855 78.4961 233.855 78.3555C233.855 78.207 233.906 78.0859 234.008 77.9922C234.109 77.8984 234.281 77.8516 234.523 77.8516H238.379Z" fill="#2F2D28"/>
<path d="M257.598 83.1602H247.566C247.738 84.4336 248.27 85.4609 249.16 86.2422C250.059 87.0156 251.168 87.4023 252.488 87.4023C253.223 87.4023 253.992 87.2812 254.797 87.0391C255.602 86.7969 256.258 86.4766 256.766 86.0781C256.914 85.9609 257.043 85.9023 257.152 85.9023C257.277 85.9023 257.387 85.9531 257.48 86.0547C257.574 86.1484 257.621 86.2617 257.621 86.3945C257.621 86.5273 257.559 86.6562 257.434 86.7812C257.059 87.1719 256.391 87.5391 255.43 87.8828C254.477 88.2188 253.496 88.3867 252.488 88.3867C250.801 88.3867 249.391 87.8359 248.258 86.7344C247.133 85.625 246.57 84.2852 246.57 82.7148C246.57 81.2852 247.098 80.0586 248.152 79.0352C249.215 78.0117 250.527 77.5 252.09 77.5C253.699 77.5 255.023 78.0273 256.062 79.082C257.102 80.1289 257.613 81.4883 257.598 83.1602ZM256.602 82.1641C256.406 81.0781 255.891 80.1953 255.055 79.5156C254.227 78.8359 253.238 78.4961 252.09 78.4961C250.941 78.4961 249.953 78.832 249.125 79.5039C248.297 80.1758 247.781 81.0625 247.578 82.1641H256.602Z" fill="#2F2D28"/>
<path d="M265.508 77.8516V80.3359C266.789 79.1797 267.746 78.4375 268.379 78.1094C269.02 77.7734 269.609 77.6055 270.148 77.6055C270.734 77.6055 271.277 77.8047 271.777 78.2031C272.285 78.5938 272.539 78.8906 272.539 79.0938C272.539 79.2422 272.488 79.3672 272.387 79.4688C272.293 79.5625 272.172 79.6094 272.023 79.6094C271.945 79.6094 271.879 79.5977 271.824 79.5742C271.77 79.543 271.668 79.4531 271.52 79.3047C271.246 79.0312 271.008 78.8438 270.805 78.7422C270.602 78.6406 270.402 78.5898 270.207 78.5898C269.777 78.5898 269.258 78.7617 268.648 79.1055C268.047 79.4492 267 80.2891 265.508 81.625V87.0156H269.867C270.109 87.0156 270.281 87.0625 270.383 87.1562C270.484 87.2422 270.535 87.3594 270.535 87.5078C270.535 87.6484 270.484 87.7656 270.383 87.8594C270.281 87.9531 270.109 88 269.867 88H262.145C261.91 88 261.742 87.957 261.641 87.8711C261.539 87.7773 261.488 87.6602 261.488 87.5195C261.488 87.3867 261.535 87.2773 261.629 87.1914C261.73 87.0977 261.902 87.0508 262.145 87.0508H264.523V78.8477H262.707C262.473 78.8477 262.305 78.8008 262.203 78.707C262.102 78.6133 262.051 78.4922 262.051 78.3438C262.051 78.2031 262.098 78.0859 262.191 77.9922C262.293 77.8984 262.465 77.8516 262.707 77.8516H265.508Z" fill="#2F2D28"/>
<path d="M300.336 88H299.07L291.816 75.7305V87.0156H293.633C293.875 87.0156 294.047 87.0625 294.148 87.1562C294.25 87.2422 294.301 87.3594 294.301 87.5078C294.301 87.6484 294.25 87.7656 294.148 87.8594C294.047 87.9531 293.875 88 293.633 88H290.012C289.77 88 289.598 87.9531 289.496 87.8594C289.395 87.7656 289.344 87.6484 289.344 87.5078C289.344 87.3594 289.395 87.2422 289.496 87.1562C289.598 87.0625 289.77 87.0156 290.012 87.0156H290.832V75.2734H289.508C289.273 75.2734 289.105 75.2305 289.004 75.1445C288.902 75.0508 288.852 74.9297 288.852 74.7812C288.852 74.6328 288.902 74.5156 289.004 74.4297C289.105 74.3359 289.273 74.2891 289.508 74.2891H292.086L299.352 86.582V75.2734H297.535C297.301 75.2734 297.133 75.2305 297.031 75.1445C296.93 75.0508 296.879 74.9297 296.879 74.7812C296.879 74.6328 296.926 74.5156 297.02 74.4297C297.121 74.3359 297.293 74.2891 297.535 74.2891H301.168C301.402 74.2891 301.57 74.3359 301.672 74.4297C301.773 74.5156 301.824 74.6328 301.824 74.7812C301.824 74.9297 301.773 75.0508 301.672 75.1445C301.57 75.2305 301.402 75.2734 301.168 75.2734H300.336V88Z" fill="#2F2D28"/>
<path d="M315.254 83.1602H305.223C305.395 84.4336 305.926 85.4609 306.816 86.2422C307.715 87.0156 308.824 87.4023 310.145 87.4023C310.879 87.4023 311.648 87.2812 312.453 87.0391C313.258 86.7969 313.914 86.4766 314.422 86.0781C314.57 85.9609 314.699 85.9023 314.809 85.9023C314.934 85.9023 315.043 85.9531 315.137 86.0547C315.23 86.1484 315.277 86.2617 315.277 86.3945C315.277 86.5273 315.215 86.6562 315.09 86.7812C314.715 87.1719 314.047 87.5391 313.086 87.8828C312.133 88.2188 311.152 88.3867 310.145 88.3867C308.457 88.3867 307.047 87.8359 305.914 86.7344C304.789 85.625 304.227 84.2852 304.227 82.7148C304.227 81.2852 304.754 80.0586 305.809 79.0352C306.871 78.0117 308.184 77.5 309.746 77.5C311.355 77.5 312.68 78.0273 313.719 79.082C314.758 80.1289 315.27 81.4883 315.254 83.1602ZM314.258 82.1641C314.062 81.0781 313.547 80.1953 312.711 79.5156C311.883 78.8359 310.895 78.4961 309.746 78.4961C308.598 78.4961 307.609 78.832 306.781 79.5039C305.953 80.1758 305.438 81.0625 305.234 82.1641H314.258Z" fill="#2F2D28"/>
<path d="M327.734 88L326.516 88.0117L324.348 81.6836L322.191 88.0117L320.973 88L318.934 78.8477H318.453C318.219 78.8477 318.051 78.8008 317.949 78.707C317.848 78.6133 317.797 78.4922 317.797 78.3438C317.797 78.2031 317.848 78.0859 317.949 77.9922C318.051 77.8984 318.219 77.8516 318.453 77.8516H321.16C321.395 77.8516 321.562 77.8984 321.664 77.9922C321.766 78.0859 321.816 78.207 321.816 78.3555C321.816 78.4961 321.766 78.6133 321.664 78.707C321.562 78.8008 321.395 78.8477 321.16 78.8477H319.906L321.652 86.6523L323.75 80.418H324.922L327.078 86.6523L328.754 78.8477H327.512C327.277 78.8477 327.105 78.8008 326.996 78.707C326.895 78.6133 326.844 78.4922 326.844 78.3438C326.844 78.2031 326.895 78.0859 326.996 77.9922C327.098 77.8984 327.27 77.8516 327.512 77.8516H330.207C330.449 77.8516 330.621 77.8984 330.723 77.9922C330.824 78.0859 330.875 78.207 330.875 78.3555C330.875 78.4961 330.824 78.6133 330.723 78.707C330.621 78.8008 330.449 78.8477 330.207 78.8477H329.738L327.734 88Z" fill="#2F2D28"/>
</svg>
