<svg width="297" height="200" viewBox="0 0 297 200" fill="none" xmlns="http://www.w3.org/2000/svg">
<rect width="297" height="200" rx="4" fill="#EBE9E7"/>
<path d="M20.2383 44.6016V24.2305H16.5078V20.832H27.543C29.8477 20.832 31.6771 21.0143 33.0312 21.3789C34.3854 21.7305 35.5052 22.4857 36.3906 23.6445C37.276 24.7904 37.7188 26.2227 37.7188 27.9414C37.7188 31.5352 35.8503 33.7943 32.1133 34.7188L36.918 44.6016H40.2383V48H34.3594L28.168 35.3047H24.3398V44.6016H27.8164V48H16.5078V44.6016H20.2383ZM24.3398 31.9062H27.543C29.0924 31.9062 30.2318 31.8086 30.9609 31.6133C31.7031 31.4049 32.3086 30.9948 32.7773 30.3828C33.2461 29.7578 33.4805 28.9245 33.4805 27.8828C33.4805 26.9974 33.2396 26.2487 32.7578 25.6367C32.2891 25.0247 31.7031 24.6406 31 24.4844C30.3099 24.3151 29.2487 24.2305 27.8164 24.2305H24.3398V31.9062Z" fill="#2F2D28"/>
<path d="M41.7031 38.5469C41.7031 35.6302 42.6667 33.2409 44.5938 31.3789C46.5208 29.5039 48.8711 28.5664 51.6445 28.5664C54.3659 28.5664 56.7031 29.4909 58.6562 31.3398C60.6094 33.1758 61.5859 35.5781 61.5859 38.5469C61.5859 41.5156 60.6094 43.9245 58.6562 45.7734C56.7161 47.6224 54.3789 48.5469 51.6445 48.5469C48.832 48.5469 46.4688 47.6094 44.5547 45.7344C42.6536 43.8594 41.7031 41.4635 41.7031 38.5469ZM45.6289 38.5469C45.6289 40.4089 46.2083 41.9388 47.3672 43.1367C48.5391 44.3216 49.9648 44.9141 51.6445 44.9141C53.3503 44.9141 54.776 44.3151 55.9219 43.1172C57.0807 41.9062 57.6602 40.3828 57.6602 38.5469C57.6602 36.6979 57.0742 35.1745 55.9023 33.9766C54.7305 32.7786 53.3112 32.1797 51.6445 32.1797C49.8997 32.1797 48.4609 32.7917 47.3281 34.0156C46.1953 35.2396 45.6289 36.75 45.6289 38.5469Z" fill="#2F2D28"/>
<path d="M82.4453 29.0938V36.2422H79.125C78.9557 34.875 78.3958 33.8268 77.4453 33.0977C76.5078 32.3685 75.4141 32.0039 74.1641 32.0039C72.4974 32.0039 71.1432 32.5964 70.1016 33.7812C69.0599 34.9531 68.5391 36.4961 68.5391 38.4102C68.5391 40.194 69.0339 41.7695 70.0234 43.1367C71.013 44.4909 72.4453 45.168 74.3203 45.168C76.9245 45.168 78.8125 43.931 79.9844 41.457L83.0508 42.9023C81.3581 46.6654 78.3958 48.5469 74.1641 48.5469C71.1693 48.5469 68.8125 47.5247 67.0938 45.4805C65.375 43.4362 64.5156 41.0794 64.5156 38.4102C64.5156 35.5586 65.4531 33.2083 67.3281 31.3594C69.2031 29.4974 71.3646 28.5664 73.8125 28.5664C75.9089 28.5664 77.6797 29.1849 79.125 30.4219V29.0938H82.4453Z" fill="#2F2D28"/>
<path d="M88.3438 44.6992V24.1328H84.9453V20.832H92.0547V37.8047L99.125 32.1602H95.9805V29.0938H106.43V32.1602H103.539L96.4492 38.0586L103.109 44.6992H106.43V48H101.566L92.0547 38.4883V44.6992H95.3164V48H84.9453V44.6992H88.3438Z" fill="#2F2D28"/>
<path d="M114.203 48.3125L109.145 32.3945H106.84V29.0938H114.809V32.3945H112.328L115.941 43.8008L119.555 32.3945H117.484V29.0938H126.625V32.3945H124.555L128.168 43.8008L131.801 32.3945H129.203V29.0938H137.738V32.3945H135.023L129.945 48.3125H126.449L122.113 34.6406L117.699 48.3125H114.203Z" fill="#2F2D28"/>
<path d="M158.188 39.4844H142.289C142.523 41.2292 143.214 42.6419 144.359 43.7227C145.505 44.8034 146.97 45.3438 148.754 45.3438C151.345 45.3438 153.396 44.3021 154.906 42.2188L158.188 43.6641C157.12 45.3177 155.733 46.5482 154.027 47.3555C152.322 48.1497 150.538 48.5469 148.676 48.5469C145.785 48.5469 143.311 47.6484 141.254 45.8516C139.21 44.0417 138.188 41.6068 138.188 38.5469C138.188 35.6432 139.184 33.2539 141.176 31.3789C143.181 29.5039 145.479 28.5664 148.07 28.5664C150.609 28.5664 152.908 29.4844 154.965 31.3203C157.035 33.1432 158.109 35.8646 158.188 39.4844ZM154.359 36.7891C154.099 35.4609 153.409 34.263 152.289 33.1953C151.169 32.1146 149.796 31.5742 148.168 31.5742C146.684 31.5742 145.414 32.0625 144.359 33.0391C143.305 34.0026 142.66 35.2526 142.426 36.7891H154.359Z" fill="#2F2D28"/>
<path d="M163.832 44.6992V24.1328H160.473V20.832H167.543V44.6992H170.434V48H160.473V44.6992H163.832Z" fill="#2F2D28"/>
<path d="M175.512 44.6992V24.1328H172.152V20.832H179.223V44.6992H182.113V48H172.152V44.6992H175.512Z" fill="#2F2D28"/>
<path d="M35.2188 68.3945V67.2422C35.2188 66.8516 35.2904 66.5716 35.4336 66.4023C35.5898 66.2331 35.7917 66.1484 36.0391 66.1484C36.2865 66.1484 36.4818 66.2331 36.625 66.4023C36.7812 66.5716 36.8594 66.8516 36.8594 67.2422V71.793C36.8594 72.1966 36.7812 72.4831 36.625 72.6523C36.4818 72.8216 36.2865 72.9062 36.0391 72.9062C35.8177 72.9062 35.6289 72.8281 35.4727 72.6719C35.3294 72.5156 35.2448 72.2617 35.2188 71.9102C35.1536 70.8164 34.5612 69.8464 33.4414 69C31.931 67.8411 30.2122 67.2617 28.2852 67.2617C27.0221 67.2617 25.8307 67.5417 24.7109 68.1016C23.8776 68.5052 23.2135 69 22.7188 69.5859C21.8594 70.6016 21.1758 71.7279 20.668 72.9648C20.3034 73.8763 20.1211 74.9049 20.1211 76.0508V78.9219C20.1211 81.3698 21.0065 83.4987 22.7773 85.3086C24.5482 87.1055 26.6055 88.0039 28.9492 88.0039C30.3555 88.0039 31.612 87.6979 32.7188 87.0859C33.8385 86.474 34.9193 85.5495 35.9609 84.3125C36.1823 84.0391 36.4297 83.9023 36.7031 83.9023C36.9375 83.9023 37.1263 83.974 37.2695 84.1172C37.4128 84.2604 37.4844 84.4427 37.4844 84.6641C37.4844 84.9635 37.2044 85.4193 36.6445 86.0312C35.5768 87.2292 34.3724 88.1341 33.0312 88.7461C31.7031 89.3451 30.3555 89.6445 28.9883 89.6445C27.8034 89.6445 26.599 89.4167 25.375 88.9609C24.4375 88.6094 23.6628 88.1992 23.0508 87.7305C22.4388 87.2617 21.6836 86.474 20.7852 85.3672C19.8997 84.2474 19.2943 83.2188 18.9688 82.2812C18.6432 81.3307 18.4805 80.2891 18.4805 79.1562V75.8164C18.4805 74.2018 18.9102 72.5547 19.7695 70.875C20.6419 69.1823 21.8268 67.8867 23.3242 66.9883C24.8346 66.0768 26.4688 65.6211 28.2266 65.6211C30.9349 65.6211 33.2656 66.5456 35.2188 68.3945Z" fill="#2F2D28"/>
<path d="M61.1953 80.582C61.1953 83.082 60.2969 85.2174 58.5 86.9883C56.7161 88.7591 54.5612 89.6445 52.0352 89.6445C49.4831 89.6445 47.3151 88.7591 45.5312 86.9883C43.7474 85.2044 42.8555 83.069 42.8555 80.582C42.8555 78.082 43.7474 75.9466 45.5312 74.1758C47.3151 72.3919 49.4831 71.5 52.0352 71.5C54.5612 71.5 56.7161 72.3854 58.5 74.1562C60.2969 75.9271 61.1953 78.069 61.1953 80.582ZM59.5352 80.582C59.5352 78.5247 58.7995 76.7734 57.3281 75.3281C55.8698 73.8828 54.099 73.1602 52.0156 73.1602C49.9323 73.1602 48.1549 73.8893 46.6836 75.3477C45.2253 76.793 44.4961 78.5378 44.4961 80.582C44.4961 82.6133 45.2253 84.3581 46.6836 85.8164C48.1549 87.2747 49.9323 88.0039 52.0156 88.0039C54.099 88.0039 55.8698 87.2812 57.3281 85.8359C58.7995 84.3776 59.5352 82.6263 59.5352 80.582Z" fill="#2F2D28"/>
<path d="M81.6641 89V86.5977C79.4245 88.6289 77.0026 89.6445 74.3984 89.6445C72.7969 89.6445 71.5794 89.2083 70.7461 88.3359C69.6654 87.1901 69.125 85.8555 69.125 84.332V73.7461H66.918C66.5273 73.7461 66.2474 73.668 66.0781 73.5117C65.9089 73.3555 65.8242 73.1536 65.8242 72.9062C65.8242 72.6719 65.9089 72.4766 66.0781 72.3203C66.2474 72.1641 66.5273 72.0859 66.918 72.0859H70.7656V84.332C70.7656 85.3997 71.1042 86.2786 71.7812 86.9688C72.4583 87.6589 73.3047 88.0039 74.3203 88.0039C76.9896 88.0039 79.4375 86.7799 81.6641 84.332V73.7461H78.6367C78.2461 73.7461 77.9661 73.668 77.7969 73.5117C77.6276 73.3555 77.543 73.1536 77.543 72.9062C77.543 72.6719 77.6276 72.4766 77.7969 72.3203C77.9661 72.1641 78.2461 72.0859 78.6367 72.0859H83.3047V87.3594H84.6914C85.082 87.3594 85.362 87.4375 85.5312 87.5938C85.7005 87.737 85.7852 87.9323 85.7852 88.1797C85.7852 88.4141 85.7005 88.6094 85.5312 88.7656C85.362 88.9219 85.082 89 84.6914 89H81.6641Z" fill="#2F2D28"/>
<path d="M98.1094 72.0859V76.2266C100.245 74.2995 101.84 73.0625 102.895 72.5156C103.962 71.9557 104.945 71.6758 105.844 71.6758C106.82 71.6758 107.725 72.0078 108.559 72.6719C109.405 73.3229 109.828 73.8177 109.828 74.1562C109.828 74.4036 109.743 74.612 109.574 74.7812C109.418 74.9375 109.216 75.0156 108.969 75.0156C108.839 75.0156 108.728 74.9961 108.637 74.957C108.546 74.9049 108.376 74.7552 108.129 74.5078C107.673 74.0521 107.276 73.7396 106.938 73.5703C106.599 73.401 106.267 73.3164 105.941 73.3164C105.225 73.3164 104.359 73.6029 103.344 74.1758C102.341 74.7487 100.596 76.1484 98.1094 78.375V87.3594H105.375C105.779 87.3594 106.065 87.4375 106.234 87.5938C106.404 87.737 106.488 87.9323 106.488 88.1797C106.488 88.4141 106.404 88.6094 106.234 88.7656C106.065 88.9219 105.779 89 105.375 89H92.5039C92.1133 89 91.8333 88.9284 91.6641 88.7852C91.4948 88.6289 91.4102 88.4336 91.4102 88.1992C91.4102 87.9779 91.4883 87.7956 91.6445 87.6523C91.8138 87.4961 92.1003 87.418 92.5039 87.418H96.4688V73.7461H93.4414C93.0508 73.7461 92.7708 73.668 92.6016 73.5117C92.4323 73.3555 92.3477 73.1536 92.3477 72.9062C92.3477 72.6719 92.4258 72.4766 92.582 72.3203C92.7513 72.1641 93.0378 72.0859 93.4414 72.0859H98.1094Z" fill="#2F2D28"/>
<path d="M124.906 63.668V67.9062H122.484V63.668H124.906ZM124.965 72.0859V87.3594H131.41C131.814 87.3594 132.1 87.4375 132.27 87.5938C132.439 87.737 132.523 87.9323 132.523 88.1797C132.523 88.4141 132.439 88.6094 132.27 88.7656C132.1 88.9219 131.814 89 131.41 89H116.879C116.488 89 116.208 88.9219 116.039 88.7656C115.87 88.6094 115.785 88.4141 115.785 88.1797C115.785 87.9323 115.87 87.737 116.039 87.5938C116.208 87.4375 116.488 87.3594 116.879 87.3594H123.324V73.7461H118.539C118.148 73.7461 117.862 73.668 117.68 73.5117C117.51 73.3555 117.426 73.1602 117.426 72.9258C117.426 72.6784 117.51 72.4766 117.68 72.3203C117.849 72.1641 118.135 72.0859 118.539 72.0859H124.965Z" fill="#2F2D28"/>
<path d="M156.996 80.9336H140.277C140.564 83.056 141.449 84.7682 142.934 86.0703C144.431 87.3594 146.28 88.0039 148.48 88.0039C149.704 88.0039 150.987 87.8021 152.328 87.3984C153.669 86.9948 154.763 86.4609 155.609 85.7969C155.857 85.6016 156.072 85.5039 156.254 85.5039C156.462 85.5039 156.645 85.5885 156.801 85.7578C156.957 85.9141 157.035 86.1029 157.035 86.3242C157.035 86.5456 156.931 86.7604 156.723 86.9688C156.098 87.6198 154.984 88.2318 153.383 88.8047C151.794 89.3646 150.16 89.6445 148.48 89.6445C145.668 89.6445 143.318 88.7266 141.43 86.8906C139.555 85.0417 138.617 82.8086 138.617 80.1914C138.617 77.8086 139.496 75.7643 141.254 74.0586C143.025 72.3529 145.212 71.5 147.816 71.5C150.499 71.5 152.706 72.3789 154.438 74.1367C156.169 75.8815 157.022 78.1471 156.996 80.9336ZM155.336 79.2734C155.01 77.4635 154.151 75.9922 152.758 74.8594C151.378 73.7266 149.73 73.1602 147.816 73.1602C145.902 73.1602 144.255 73.7201 142.875 74.8398C141.495 75.9596 140.635 77.4375 140.297 79.2734H155.336Z" fill="#2F2D28"/>
<path d="M170.18 72.0859V76.2266C172.315 74.2995 173.91 73.0625 174.965 72.5156C176.033 71.9557 177.016 71.6758 177.914 71.6758C178.891 71.6758 179.796 72.0078 180.629 72.6719C181.475 73.3229 181.898 73.8177 181.898 74.1562C181.898 74.4036 181.814 74.612 181.645 74.7812C181.488 74.9375 181.286 75.0156 181.039 75.0156C180.909 75.0156 180.798 74.9961 180.707 74.957C180.616 74.9049 180.447 74.7552 180.199 74.5078C179.743 74.0521 179.346 73.7396 179.008 73.5703C178.669 73.401 178.337 73.3164 178.012 73.3164C177.296 73.3164 176.43 73.6029 175.414 74.1758C174.411 74.7487 172.667 76.1484 170.18 78.375V87.3594H177.445C177.849 87.3594 178.135 87.4375 178.305 87.5938C178.474 87.737 178.559 87.9323 178.559 88.1797C178.559 88.4141 178.474 88.6094 178.305 88.7656C178.135 88.9219 177.849 89 177.445 89H164.574C164.184 89 163.904 88.9284 163.734 88.7852C163.565 88.6289 163.48 88.4336 163.48 88.1992C163.48 87.9779 163.559 87.7956 163.715 87.6523C163.884 87.4961 164.171 87.418 164.574 87.418H168.539V73.7461H165.512C165.121 73.7461 164.841 73.668 164.672 73.5117C164.503 73.3555 164.418 73.1536 164.418 72.9062C164.418 72.6719 164.496 72.4766 164.652 72.3203C164.822 72.1641 165.108 72.0859 165.512 72.0859H170.18Z" fill="#2F2D28"/>
<path d="M228.227 89H226.117L214.027 68.5508V87.3594H217.055C217.458 87.3594 217.745 87.4375 217.914 87.5938C218.083 87.737 218.168 87.9323 218.168 88.1797C218.168 88.4141 218.083 88.6094 217.914 88.7656C217.745 88.9219 217.458 89 217.055 89H211.02C210.616 89 210.329 88.9219 210.16 88.7656C209.991 88.6094 209.906 88.4141 209.906 88.1797C209.906 87.9323 209.991 87.737 210.16 87.5938C210.329 87.4375 210.616 87.3594 211.02 87.3594H212.387V67.7891H210.18C209.789 67.7891 209.509 67.7174 209.34 67.5742C209.171 67.418 209.086 67.2161 209.086 66.9688C209.086 66.7214 209.171 66.526 209.34 66.3828C209.509 66.2266 209.789 66.1484 210.18 66.1484H214.477L226.586 86.6367V67.7891H223.559C223.168 67.7891 222.888 67.7174 222.719 67.5742C222.549 67.418 222.465 67.2161 222.465 66.9688C222.465 66.7214 222.543 66.526 222.699 66.3828C222.868 66.2266 223.155 66.1484 223.559 66.1484H229.613C230.004 66.1484 230.284 66.2266 230.453 66.3828C230.622 66.526 230.707 66.7214 230.707 66.9688C230.707 67.2161 230.622 67.418 230.453 67.5742C230.284 67.7174 230.004 67.7891 229.613 67.7891H228.227V89Z" fill="#2F2D28"/>
<path d="M253.09 80.9336H236.371C236.658 83.056 237.543 84.7682 239.027 86.0703C240.525 87.3594 242.374 88.0039 244.574 88.0039C245.798 88.0039 247.081 87.8021 248.422 87.3984C249.763 86.9948 250.857 86.4609 251.703 85.7969C251.951 85.6016 252.165 85.5039 252.348 85.5039C252.556 85.5039 252.738 85.5885 252.895 85.7578C253.051 85.9141 253.129 86.1029 253.129 86.3242C253.129 86.5456 253.025 86.7604 252.816 86.9688C252.191 87.6198 251.078 88.2318 249.477 88.8047C247.888 89.3646 246.254 89.6445 244.574 89.6445C241.762 89.6445 239.411 88.7266 237.523 86.8906C235.648 85.0417 234.711 82.8086 234.711 80.1914C234.711 77.8086 235.59 75.7643 237.348 74.0586C239.118 72.3529 241.306 71.5 243.91 71.5C246.592 71.5 248.799 72.3789 250.531 74.1367C252.263 75.8815 253.116 78.1471 253.09 80.9336ZM251.43 79.2734C251.104 77.4635 250.245 75.9922 248.852 74.8594C247.471 73.7266 245.824 73.1602 243.91 73.1602C241.996 73.1602 240.349 73.7201 238.969 74.8398C237.589 75.9596 236.729 77.4375 236.391 79.2734H251.43Z" fill="#2F2D28"/>
<path d="M273.891 89L271.859 89.0195L268.246 78.4727L264.652 89.0195L262.621 89L259.223 73.7461H258.422C258.031 73.7461 257.751 73.668 257.582 73.5117C257.413 73.3555 257.328 73.1536 257.328 72.9062C257.328 72.6719 257.413 72.4766 257.582 72.3203C257.751 72.1641 258.031 72.0859 258.422 72.0859H262.934C263.324 72.0859 263.604 72.1641 263.773 72.3203C263.943 72.4766 264.027 72.6784 264.027 72.9258C264.027 73.1602 263.943 73.3555 263.773 73.5117C263.604 73.668 263.324 73.7461 262.934 73.7461H260.844L263.754 86.7539L267.25 76.3633H269.203L272.797 86.7539L275.59 73.7461H273.52C273.129 73.7461 272.842 73.668 272.66 73.5117C272.491 73.3555 272.406 73.1536 272.406 72.9062C272.406 72.6719 272.491 72.4766 272.66 72.3203C272.829 72.1641 273.116 72.0859 273.52 72.0859H278.012C278.415 72.0859 278.702 72.1641 278.871 72.3203C279.04 72.4766 279.125 72.6784 279.125 72.9258C279.125 73.1602 279.04 73.3555 278.871 73.5117C278.702 73.668 278.415 73.7461 278.012 73.7461H277.23L273.891 89Z" fill="#2F2D28"/>
<path d="M36.3125 132.641H38.7734L36.4297 125.922H25.043L22.7578 132.641H25.8047V136H16.1953V132.641H18.7734L27.9922 106.391H33.7539L42.9531 132.641H45.9219V136H36.3125V132.641ZM26.1562 122.68H35.2969L30.6875 109.438L26.1562 122.68Z" fill="#2F2D28"/>
<path d="M62.6211 120.043H58.9102V118.793C58.4805 118.793 58.0378 118.878 57.582 119.047C57.1393 119.203 56.7227 119.451 56.332 119.789C55.9414 120.115 55.5964 120.538 55.2969 121.059C55.0104 121.566 54.8021 122.172 54.6719 122.875V132.641H58.1094V136H48.0703V132.641H50.8633L50.8828 119.125H48.0703V115.766H54.5352V118.559C54.7695 118.142 55.0299 117.758 55.3164 117.406C55.6159 117.042 55.9414 116.729 56.293 116.469C56.6576 116.195 57.0547 115.987 57.4844 115.844C57.9271 115.688 58.4023 115.609 58.9102 115.609C59.5872 115.609 60.2253 115.609 60.8242 115.609C61.4232 115.609 62.0221 115.622 62.6211 115.648V120.043Z" fill="#2F2D28"/>
<path d="M65.2578 115.766H72.25V119.125H70.3555L75.3555 133.07L80.2383 119.125H79.0078V115.766H85.4141V119.125H83.6758L77.0547 136.312H73.4609L66.8594 119.125H65.2578V115.766Z" fill="#2F2D28"/>
<path d="M88.0312 125.883C88.0443 124.281 88.2982 122.823 88.793 121.508C89.3008 120.193 90.0039 119.066 90.9023 118.129C91.8008 117.178 92.8685 116.449 94.1055 115.941C95.3424 115.434 96.7031 115.18 98.1875 115.18C99.6849 115.18 101.052 115.434 102.289 115.941C103.539 116.449 104.607 117.172 105.492 118.109C106.378 119.034 107.068 120.154 107.562 121.469C108.057 122.784 108.305 124.242 108.305 125.844C108.305 127.419 108.057 128.871 107.562 130.199C107.068 131.514 106.378 132.647 105.492 133.598C104.607 134.548 103.539 135.29 102.289 135.824C101.052 136.345 99.6849 136.605 98.1875 136.605C96.6641 136.605 95.2839 136.345 94.0469 135.824C92.8099 135.303 91.7487 134.574 90.8633 133.637C89.9779 132.686 89.2878 131.553 88.793 130.238C88.2982 128.923 88.0443 127.471 88.0312 125.883ZM91.8789 125.883C91.8789 127.042 92.0417 128.09 92.3672 129.027C92.7057 129.965 93.1615 130.766 93.7344 131.43C94.3203 132.081 94.9909 132.589 95.7461 132.953C96.5143 133.305 97.3281 133.48 98.1875 133.48C99.0859 133.48 99.9193 133.305 100.688 132.953C101.469 132.602 102.146 132.1 102.719 131.449C103.292 130.785 103.741 129.984 104.066 129.047C104.392 128.109 104.555 127.055 104.555 125.883C104.555 124.659 104.392 123.572 104.066 122.621C103.741 121.671 103.292 120.876 102.719 120.238C102.159 119.6 101.488 119.118 100.707 118.793C99.9258 118.467 99.0859 118.305 98.1875 118.305C97.3281 118.305 96.5143 118.467 95.7461 118.793C94.9909 119.118 94.3203 119.6 93.7344 120.238C93.1615 120.876 92.7057 121.671 92.3672 122.621C92.0417 123.572 91.8789 124.659 91.8789 125.883Z" fill="#2F2D28"/>
<path d="M17.56 176V173.88H20.68V155.6H17.56V153.48H29.4C30.9733 153.48 32.3333 153.707 33.48 154.16C34.6267 154.587 35.5067 155.24 36.12 156.12C36.7333 156.973 37.04 158.053 37.04 159.36C37.04 160.4 36.84 161.333 36.44 162.16C36.0667 162.987 35.4533 163.68 34.6 164.24C33.7467 164.773 32.6267 165.147 31.24 165.36L36.4 173.88H39.72V176H34.16L28.12 165.68H25.36V163.48H28.88C30.1867 163.48 31.1867 163.28 31.88 162.88C32.6 162.453 33.0933 161.933 33.36 161.32C33.6533 160.68 33.8 160.04 33.8 159.4C33.8 158.707 33.64 158.08 33.32 157.52C33.0267 156.933 32.56 156.467 31.92 156.12C31.28 155.773 30.4533 155.6 29.44 155.6H23.96V173.88H27.08V176H17.56Z" fill="#2F2D28"/>
<path d="M50.2456 176.48C48.5656 176.48 47.0856 176.133 45.8056 175.44C44.5256 174.747 43.5256 173.773 42.8056 172.52C42.1123 171.267 41.7656 169.8 41.7656 168.12C41.7656 166.44 42.1123 164.987 42.8056 163.76C43.5256 162.507 44.5256 161.547 45.8056 160.88C47.0856 160.187 48.5656 159.84 50.2456 159.84C51.9523 159.84 53.4456 160.187 54.7256 160.88C56.0056 161.547 57.0056 162.507 57.7256 163.76C58.4456 164.987 58.8056 166.427 58.8056 168.08C58.8056 169.76 58.4456 171.227 57.7256 172.48C57.0056 173.733 56.0056 174.72 54.7256 175.44C53.4456 176.133 51.9523 176.48 50.2456 176.48ZM50.2456 174.16C51.3656 174.16 52.339 173.907 53.1656 173.4C53.9923 172.893 54.6323 172.187 55.0856 171.28C55.539 170.373 55.7656 169.307 55.7656 168.08C55.7656 166.88 55.539 165.84 55.0856 164.96C54.6323 164.08 53.9923 163.4 53.1656 162.92C52.339 162.413 51.3656 162.16 50.2456 162.16C49.1523 162.16 48.1923 162.413 47.3656 162.92C46.5656 163.4 45.939 164.093 45.4856 165C45.0323 165.88 44.8056 166.92 44.8056 168.12C44.8056 169.32 45.0323 170.373 45.4856 171.28C45.939 172.187 46.5656 172.893 47.3656 173.4C48.1923 173.907 49.1523 174.16 50.2456 174.16Z" fill="#2F2D28"/>
<path d="M60.8291 176V173.88H63.7891V155.16H60.9091V153.08H66.7491V167.6L73.5491 162.4H70.6291V160.28H78.9891V162.4H76.5891L69.7891 167.8L75.9491 173.88H79.0691V176H74.4691L66.7491 168.28V173.88H69.3091V176H60.8291Z" fill="#2F2D28"/>
<path d="M80.7509 176V173.88H83.7109V155.16H80.8309V153.08H86.6709V167.6L93.4709 162.4H90.5509V160.28H98.9109V162.4H96.5109L89.7109 167.8L95.8709 173.88H98.9909V176H94.3909L86.6709 168.28V173.88H89.2309V176H80.7509Z" fill="#2F2D28"/>
<path d="M100.513 176V173.88H103.553V162.4H100.553V160.28H106.473V173.88H109.313V176H100.513ZM104.633 156.84C104.046 156.84 103.539 156.653 103.113 156.28C102.686 155.88 102.473 155.387 102.473 154.8C102.473 154.213 102.686 153.733 103.113 153.36C103.539 152.96 104.046 152.76 104.633 152.76C105.246 152.76 105.753 152.96 106.153 153.36C106.579 153.733 106.793 154.213 106.793 154.8C106.793 155.387 106.579 155.88 106.153 156.28C105.753 156.653 105.246 156.84 104.633 156.84Z" fill="#2F2D28"/>
<path d="M118.257 176C116.764 176 115.63 175.627 114.857 174.88C114.084 174.107 113.697 172.933 113.697 171.36V162.4H111.097V160.28H113.697V154.92L116.657 153.76V160.28H120.817V162.4H116.657V171.2C116.657 172.187 116.817 172.88 117.137 173.28C117.457 173.68 118.004 173.88 118.777 173.88H121.177V176H118.257Z" fill="#2F2D28"/>
</svg>
