<svg width="335" height="212" viewBox="0 0 335 212" fill="none" xmlns="http://www.w3.org/2000/svg">
<rect width="335" height="212" rx="4" fill="#EBE9E7"/>
<path d="M16.7031 23.9297L17.5039 20.9805C17.556 20.5898 17.6276 20.3424 17.7188 20.2383C17.8099 20.1211 17.9141 20.0625 18.0312 20.0625C18.2656 20.0625 18.5326 20.3424 18.832 20.9023C19.0534 21.306 19.2357 21.5664 19.3789 21.6836C19.5221 21.7878 19.7305 21.8594 20.0039 21.8984L20.1992 21.8789L21.0391 21.957L25.6484 22.0156L31.0977 21.9961H32.6992L35.7266 21.9375C35.8568 21.9375 36.0195 21.9505 36.2148 21.9766C37.1003 22.0547 37.6471 22.0938 37.8555 22.0938C38.0508 22.0938 38.207 22.0286 38.3242 21.8984C38.3633 21.8464 38.5781 21.4036 38.9688 20.5703C39.138 20.1927 39.3464 20.0039 39.5938 20.0039C39.6979 20.0039 39.8281 20.0299 39.9844 20.082C40.0495 20.3424 40.082 20.5768 40.082 20.7852L40.0625 21.5664L40.082 23.2266C40.082 23.6302 40.0495 24.9323 39.9844 27.1328C39.9844 27.276 39.9583 27.4062 39.9062 27.5234C39.763 27.6146 39.6393 27.6602 39.5352 27.6602C39.431 27.6602 39.3398 27.6146 39.2617 27.5234C39.1836 27.4193 39.0859 27.1133 38.9688 26.6055C38.7083 25.4336 38.3828 24.5938 37.9922 24.0859C37.7318 23.7604 37.3542 23.526 36.8594 23.3828C36.3776 23.2396 35.2122 23.168 33.3633 23.168C31.8789 23.168 30.7786 23.194 30.0625 23.2461C30.0365 23.7669 30.0234 24.2422 30.0234 24.6719L30.1797 36.8008C30.1797 37.2826 30.1536 38.194 30.1016 39.5352L30.1211 42.1328L30.1016 43.5781C30.1016 44.0339 30.1797 44.3594 30.3359 44.5547C30.4922 44.75 30.9154 44.9388 31.6055 45.1211C32.8034 45.4206 33.6042 45.6029 34.0078 45.668C34.2552 45.694 34.457 45.7461 34.6133 45.8242V46.4102L31.8398 46.332C30.3164 46.319 29.1706 46.2865 28.4023 46.2344L25.5508 46.3711L23.4609 46.4883C22.875 46.4883 22.5169 46.4753 22.3867 46.4492L22.1133 46.332C22.1393 46.0326 22.1979 45.8438 22.2891 45.7656C22.3802 45.6745 22.6211 45.6029 23.0117 45.5508C23.5586 45.4727 24.2031 45.3359 24.9453 45.1406C25.6875 44.9323 26.1758 44.724 26.4102 44.5156C26.5404 44.3984 26.6315 44.2031 26.6836 43.9297C26.8008 43.3568 26.8594 42.2305 26.8594 40.5508V37.2305L26.7812 29.9844L26.7031 28.4219L26.6836 23.207C25.8633 23.1159 24.8151 23.0703 23.5391 23.0703C21.6641 23.0703 20.5247 23.1875 20.1211 23.4219C19.4831 23.7865 18.5326 24.8542 17.2695 26.625C16.8529 27.2891 16.4883 27.6211 16.1758 27.6211L16 27.582C15.9479 27.5039 15.9219 27.4323 15.9219 27.3672C15.9219 27.2109 16.026 26.7422 16.2344 25.9609C16.4948 24.9583 16.651 24.2812 16.7031 23.9297Z" fill="#2F2D28"/>
<path d="M43.3828 21.9961C43.3828 21.5664 43.5456 21.1953 43.8711 20.8828C44.2096 20.5703 44.6133 20.4141 45.082 20.4141C45.5638 20.4141 45.987 20.5898 46.3516 20.9414C46.7161 21.293 46.8984 21.6706 46.8984 22.0742C46.8984 22.4779 46.7161 22.862 46.3516 23.2266C45.987 23.5781 45.5638 23.7539 45.082 23.7539C44.6003 23.7539 44.1966 23.5911 43.8711 23.2656C43.5456 22.9401 43.3828 22.5169 43.3828 21.9961ZM41.7422 32.1133L41.7617 31.5469C42.6081 31.2995 43.0638 31.1562 43.1289 31.1172C43.5977 30.9089 44.0859 30.5898 44.5938 30.1602C45.1146 29.7305 45.5508 29.2487 45.9023 28.7148C46.0586 28.6888 46.1823 28.6758 46.2734 28.6758L46.5078 28.6953C46.5599 29.3203 46.5859 29.776 46.5859 30.0625C46.5859 30.1276 46.5729 30.4206 46.5469 30.9414V31.9766L46.5664 37.6016L46.5078 43.5586C46.4948 44.0404 46.5729 44.3789 46.7422 44.5742C46.9115 44.7565 47.4128 44.9648 48.2461 45.1992C48.7669 45.3424 49.1576 45.4661 49.418 45.5703C49.457 45.6615 49.4766 45.7396 49.4766 45.8047C49.4766 45.8828 49.444 45.9805 49.3789 46.0977C48.8711 46.0846 48.2201 46.0521 47.4258 46C46.3451 45.9089 45.6289 45.8633 45.2773 45.8633C45.1081 45.8633 44.0664 45.8958 42.1523 45.9609C41.7617 45.974 41.3841 46.0065 41.0195 46.0586C40.9544 46.0586 40.8503 46.0391 40.707 46C40.6419 45.9089 40.6094 45.8307 40.6094 45.7656C40.6094 45.5833 40.7331 45.4401 40.9805 45.3359C41.0326 45.3099 41.6966 45.1602 42.9727 44.8867C43.3893 44.8086 43.6628 44.6784 43.793 44.4961C44.0143 44.2227 44.125 43.7865 44.125 43.1875C44.151 42.1849 44.1641 39.4375 44.1641 34.9453C44.1641 34.0469 44.125 33.487 44.0469 33.2656C43.9818 33.1094 43.806 32.9336 43.5195 32.7383C43.2461 32.5299 42.6536 32.3216 41.7422 32.1133Z" fill="#2F2D28"/>
<path d="M50.5703 45.3164C50.7786 45.1732 51.0651 45.0755 51.4297 45.0234C51.9505 44.9583 52.3542 44.8542 52.6406 44.7109C52.875 44.5156 53.0312 44.2357 53.1094 43.8711C53.2005 43.4023 53.2461 41.7552 53.2461 38.9297C53.2461 36.1562 53.1615 34.3659 52.9922 33.5586C52.7057 33.3763 52.3346 33.2331 51.8789 33.1289C51.7357 33.1029 51.4362 33.0312 50.9805 32.9141V32.2695C51.7487 32.0482 52.3672 31.7617 52.8359 31.4102C53.3177 31.0586 53.9818 30.3555 54.8281 29.3008H54.9453C55.0234 29.3008 55.1471 29.2943 55.3164 29.2812C55.4206 29.2943 55.5052 29.3268 55.5703 29.3789L55.5508 31.6055C55.5508 32.0612 55.5638 32.5495 55.5898 33.0703C56.9831 31.8073 58.2331 30.9219 59.3398 30.4141C60.0951 30.0755 60.9479 29.9062 61.8984 29.9062C63.0312 29.9062 63.9297 30.1211 64.5938 30.5508C65.2578 30.9805 65.8893 31.7552 66.4883 32.875C67.6471 31.7292 68.6953 30.9284 69.6328 30.4727C70.5833 30.0169 71.5404 29.7891 72.5039 29.7891C73.9622 29.7891 75.1602 30.2643 76.0977 31.2148C77.0221 32.1784 77.4974 33.5911 77.5234 35.4531V37.0742L77.543 38.8516L77.5234 43.4219C77.5104 43.9557 77.6276 44.3594 77.875 44.6328C77.9792 44.6719 78.3763 44.7891 79.0664 44.9844C79.4961 45.1016 79.75 45.1927 79.8281 45.2578C79.9062 45.3229 79.9453 45.4141 79.9453 45.5312C79.9453 45.6745 79.9062 45.8438 79.8281 46.0391H79.6914L77.7188 45.9219C77.4844 45.9089 77.1133 45.9023 76.6055 45.9023C75.9805 45.9023 75.1081 45.9284 73.9883 45.9805H72.9922C72.849 45.9805 72.569 45.987 72.1523 46C72.1393 45.8828 72.1328 45.7786 72.1328 45.6875C72.1328 45.5833 72.1784 45.4531 72.2695 45.2969C72.6211 45.1406 73.1029 45.0169 73.7148 44.9258C74.3268 44.8216 74.7044 44.6458 74.8477 44.3984C75.0039 44.138 75.082 43.1224 75.082 41.3516C75.082 37.5104 75.0365 35.2839 74.9453 34.6719C74.7891 33.6953 74.3724 32.9336 73.6953 32.3867C73.0312 31.8268 72.1914 31.5469 71.1758 31.5469C70.3945 31.5469 69.6328 31.7552 68.8906 32.1719C68.1484 32.5755 67.4193 33.1875 66.7031 34.0078L66.6836 34.4766V37.4648L66.6055 39.7891C66.6055 42.1589 66.625 43.5065 66.6641 43.832C66.7161 44.1576 66.8268 44.3984 66.9961 44.5547C67.1784 44.6979 67.6927 44.8281 68.5391 44.9453C68.9167 44.9974 69.2096 45.0495 69.418 45.1016C69.5742 45.2318 69.6523 45.401 69.6523 45.6094C69.6523 45.7786 69.5938 45.8958 69.4766 45.9609H69.1445L68.168 45.9414H62.4844L60.9219 45.9609C60.8958 45.7656 60.8828 45.6224 60.8828 45.5312L60.9023 45.2969C61.1888 45.1406 61.7227 44.9909 62.5039 44.8477C62.9076 44.7826 63.3242 44.6719 63.7539 44.5156C63.832 44.4505 63.8906 44.3659 63.9297 44.2617C63.9948 44.0794 64.0404 43.5586 64.0664 42.6992L64.1641 40.4336L64.125 37.875L64.1445 36.4492C64.1445 34.8477 63.819 33.6823 63.168 32.9531C62.5169 32.2109 61.6966 31.8398 60.707 31.8398C59.7826 31.8398 58.8516 32.0677 57.9141 32.5234C56.9896 32.9792 56.2214 33.5911 55.6094 34.3594C55.5964 34.724 55.5898 35.056 55.5898 35.3555L55.668 41.918C55.681 43.3503 55.7591 44.1706 55.9023 44.3789C56.0586 44.5742 56.3971 44.7109 56.918 44.7891C57.7513 44.9062 58.2917 45.0495 58.5391 45.2188C58.6562 45.2969 58.7148 45.4141 58.7148 45.5703C58.7148 45.6745 58.7083 45.7982 58.6953 45.9414C57.2109 45.8372 56.2148 45.7852 55.707 45.7852C55.1862 45.7852 54.7174 45.7917 54.3008 45.8047L53.3242 45.8633H52.7188L50.5312 45.9414C50.5052 45.8503 50.4922 45.7721 50.4922 45.707C50.4922 45.6419 50.5182 45.5117 50.5703 45.3164Z" fill="#2F2D28"/>
<path d="M96.1172 35.6875L88.2852 35.7461H86.8008C86.2018 35.7461 85.5898 35.7721 84.9648 35.8242C84.8477 36.2148 84.7891 36.4818 84.7891 36.625L84.8086 36.8203V37.0156L84.7891 37.9727C84.7891 38.7669 85.0365 39.7435 85.5312 40.9023C86.0391 42.0482 86.7552 42.9271 87.6797 43.5391C88.6172 44.138 89.7826 44.457 91.1758 44.4961C91.918 44.457 92.5104 44.3659 92.9531 44.2227C93.3958 44.0794 94.0208 43.7474 94.8281 43.2266L96.2344 42.0742L96.3516 42.8555C96.3516 42.9466 96.3451 43.0443 96.332 43.1484C95.7461 43.8906 95.0039 44.5417 94.1055 45.1016C93.207 45.6615 92.2956 46.0716 91.3711 46.332C90.9284 46.4492 90.1992 46.5078 89.1836 46.5078C88.2591 46.5078 87.3477 46.319 86.4492 45.9414C85.1211 45.3685 84.0729 44.4505 83.3047 43.1875C82.5495 41.9115 82.1719 40.3685 82.1719 38.5586C82.1719 37.9857 82.276 37.25 82.4844 36.3516C82.7057 35.4531 83.0964 34.4961 83.6562 33.4805C84.0339 32.7904 84.4961 32.224 85.043 31.7812C85.8242 31.1562 86.5078 30.7201 87.0938 30.4727C87.9401 30.1211 88.9232 29.9453 90.043 29.9453C91.2539 29.9453 92.2435 30.1667 93.0117 30.6094C94.0534 31.1953 94.8281 31.9505 95.3359 32.875C95.8568 33.7995 96.1172 34.6458 96.1172 35.4141V35.6875ZM85.2188 34.9844H86.1367C86.8008 34.9844 88.7799 34.8802 92.0742 34.6719C92.5951 34.6458 92.9141 34.5938 93.0312 34.5156C93.2656 34.2682 93.3828 34.0469 93.3828 33.8516C93.3828 33.4479 93.2526 32.9922 92.9922 32.4844C92.7318 31.9635 92.3281 31.5664 91.7812 31.293C91.2474 31.0065 90.6224 30.8633 89.9062 30.8633C88.3958 30.8633 87.1849 31.4297 86.2734 32.5625C85.5703 33.4219 85.2188 34.2292 85.2188 34.9844Z" fill="#2F2D28"/>
<path d="M100.16 41.0391C100.642 42.276 101.007 43.0768 101.254 43.4414C101.749 44.1836 102.341 44.763 103.031 45.1797C103.721 45.5833 104.47 45.7852 105.277 45.7852C106.02 45.7852 106.755 45.4661 107.484 44.8281C108.005 44.3464 108.266 43.7865 108.266 43.1484C108.266 42.3021 107.96 41.5208 107.348 40.8047C106.736 40.1016 105.57 39.431 103.852 38.793C102.146 38.1419 101 37.4518 100.414 36.7227C99.8281 35.9935 99.5352 35.1602 99.5352 34.2227C99.5352 33.3372 99.776 32.556 100.258 31.8789C100.74 31.2018 101.404 30.694 102.25 30.3555C103.096 30.0039 103.878 29.8281 104.594 29.8281C105.518 29.8281 106.345 29.8997 107.074 30.043C107.816 30.1862 108.454 30.4076 108.988 30.707C109.092 31.3711 109.177 32.3477 109.242 33.6367L109.281 34.2617C109.112 34.2747 108.969 34.2812 108.852 34.2812H108.578C108.188 33.2005 107.589 32.3477 106.781 31.7227C105.987 31.0846 105.199 30.7656 104.418 30.7656C103.637 30.7656 103.005 31.0065 102.523 31.4883C102.042 31.957 101.801 32.5755 101.801 33.3438C101.801 33.9297 101.996 34.4505 102.387 34.9062C102.777 35.362 103.689 35.8828 105.121 36.4688C106.566 37.0547 107.615 37.6016 108.266 38.1094C108.93 38.6042 109.418 39.2096 109.73 39.9258C110.043 40.6419 110.199 41.3255 110.199 41.9766C110.199 42.875 109.9 43.7148 109.301 44.4961C108.715 45.2773 107.973 45.8242 107.074 46.1367C106.189 46.4622 105.395 46.625 104.691 46.625C103.038 46.625 101.514 46.319 100.121 45.707C99.9909 45.6029 99.9193 45.4076 99.9062 45.1211C99.9062 45.0039 99.8932 44.8151 99.8672 44.5547C99.6589 42.7969 99.5547 41.7552 99.5547 41.4297C99.5547 41.2734 99.5872 41.1693 99.6523 41.1172C99.7174 41.0651 99.8867 41.0391 100.16 41.0391Z" fill="#2F2D28"/>
<path d="M122.465 22.1133L122.445 21.1758C124.464 21.1758 125.941 21.1237 126.879 21.0195C127.243 20.9805 127.497 20.9609 127.641 20.9609C127.758 20.9609 127.934 20.9674 128.168 20.9805C128.715 21.4362 129.223 21.957 129.691 22.543C129.796 22.6602 129.913 22.7904 130.043 22.9336L134.164 27.4844L134.75 28.1875C135.583 29.1641 136.339 29.9974 137.016 30.6875C137.706 31.3776 139.04 32.8164 141.02 35.0039L145.688 40.1797C146.143 40.6875 146.729 41.319 147.445 42.0742L147.465 41.7617C147.387 39.9518 147.348 38.9948 147.348 38.8906L147.426 37.7188L147.387 35.8828V35.043C147.387 34.5091 147.341 32.862 147.25 30.1016C147.237 29.724 147.185 29.0143 147.094 27.9727C147.003 26.918 146.957 25.9935 146.957 25.1992C146.957 23.7669 146.872 22.9336 146.703 22.6992C146.586 22.5299 146.033 22.3542 145.043 22.1719C144.809 22.1589 144.444 22.1198 143.949 22.0547C143.363 22.0286 143.018 21.9961 142.914 21.957C142.81 21.918 142.706 21.8073 142.602 21.625C142.628 21.4167 142.686 21.2214 142.777 21.0391C143.129 20.9349 143.474 20.8828 143.812 20.8828C144.177 20.8828 144.626 20.9284 145.16 21.0195C145.707 21.1107 146.195 21.1562 146.625 21.1562C147.224 21.1562 148.155 21.1172 149.418 21.0391C150.134 20.987 150.629 20.9609 150.902 20.9609H151.234L151.195 21.5664C150.987 21.6576 150.701 21.7161 150.336 21.7422C149.971 21.7552 149.633 21.8073 149.32 21.8984C148.852 22.0417 148.572 22.1654 148.48 22.2695C148.168 22.6081 148.012 22.9531 148.012 23.3047L148.227 29.4766L148.383 32.3086L148.363 33.1289L148.48 37.0547C148.559 39.737 148.598 42.0677 148.598 44.0469C148.598 44.4766 148.572 45.4076 148.52 46.8398L147.602 46.918C147.146 46.3971 145.577 44.7565 142.895 41.9961C142.27 41.3581 141.846 40.9089 141.625 40.6484L139.945 38.7148C139.294 37.9987 138.871 37.543 138.676 37.3477C138.48 37.1523 138.337 37.0091 138.246 36.918C136.827 35.3034 134.984 33.2852 132.719 30.8633C132.107 30.2122 131.208 29.1966 130.023 27.8164C129.281 26.944 128.812 26.4102 128.617 26.2148C128.422 26.0195 128.155 25.7982 127.816 25.5508L127.758 26.2148C127.758 28.7539 127.823 32.2565 127.953 36.7227L128.09 43.1875C128.103 43.7344 128.135 44.2617 128.188 44.7695L128.871 44.9258C130.108 45.043 131.326 45.2188 132.523 45.4531C132.615 45.5312 132.693 45.5898 132.758 45.6289L132.738 46.3711C132.53 46.4362 132.361 46.4688 132.23 46.4688C132.087 46.4688 131.911 46.4557 131.703 46.4297C130.414 46.3255 128.845 46.2734 126.996 46.2734C125.694 46.2734 124.548 46.306 123.559 46.3711L123.285 46.3906C123.168 46.3906 122.999 46.3776 122.777 46.3516L122.758 45.7656L123.266 45.5312L124.184 45.3945C125.004 45.2773 125.603 45.1471 125.98 45.0039C126.228 44.9128 126.43 44.776 126.586 44.5938C126.729 43.6953 126.801 42.3802 126.801 40.6484C126.801 39.8411 126.781 38.3633 126.742 36.2148V33.5586L126.703 28.0117C126.677 25.5378 126.592 24.0794 126.449 23.6367C126.371 23.4023 126.208 23.194 125.961 23.0117C125.466 22.6602 124.815 22.4388 124.008 22.3477C123.214 22.2565 122.699 22.1784 122.465 22.1133Z" fill="#2F2D28"/>
<path d="M168.266 35.6875L160.434 35.7461H158.949C158.35 35.7461 157.738 35.7721 157.113 35.8242C156.996 36.2148 156.938 36.4818 156.938 36.625L156.957 36.8203V37.0156L156.938 37.9727C156.938 38.7669 157.185 39.7435 157.68 40.9023C158.188 42.0482 158.904 42.9271 159.828 43.5391C160.766 44.138 161.931 44.457 163.324 44.4961C164.066 44.457 164.659 44.3659 165.102 44.2227C165.544 44.0794 166.169 43.7474 166.977 43.2266L168.383 42.0742L168.5 42.8555C168.5 42.9466 168.493 43.0443 168.48 43.1484C167.895 43.8906 167.152 44.5417 166.254 45.1016C165.355 45.6615 164.444 46.0716 163.52 46.332C163.077 46.4492 162.348 46.5078 161.332 46.5078C160.408 46.5078 159.496 46.319 158.598 45.9414C157.27 45.3685 156.221 44.4505 155.453 43.1875C154.698 41.9115 154.32 40.3685 154.32 38.5586C154.32 37.9857 154.424 37.25 154.633 36.3516C154.854 35.4531 155.245 34.4961 155.805 33.4805C156.182 32.7904 156.645 32.224 157.191 31.7812C157.973 31.1562 158.656 30.7201 159.242 30.4727C160.089 30.1211 161.072 29.9453 162.191 29.9453C163.402 29.9453 164.392 30.1667 165.16 30.6094C166.202 31.1953 166.977 31.9505 167.484 32.875C168.005 33.7995 168.266 34.6458 168.266 35.4141V35.6875ZM157.367 34.9844H158.285C158.949 34.9844 160.928 34.8802 164.223 34.6719C164.743 34.6458 165.062 34.5938 165.18 34.5156C165.414 34.2682 165.531 34.0469 165.531 33.8516C165.531 33.4479 165.401 32.9922 165.141 32.4844C164.88 31.9635 164.477 31.5664 163.93 31.293C163.396 31.0065 162.771 30.8633 162.055 30.8633C160.544 30.8633 159.333 31.4297 158.422 32.5625C157.719 33.4219 157.367 34.2292 157.367 34.9844Z" fill="#2F2D28"/>
<path d="M169.066 30.6094L176.566 30.6289C176.71 30.6289 176.807 30.6549 176.859 30.707C176.911 30.7591 176.938 30.8372 176.938 30.9414C176.938 31.1888 176.84 31.3711 176.645 31.4883C175.733 31.5534 175.167 31.6641 174.945 31.8203C174.724 31.9766 174.613 32.1914 174.613 32.4648C174.613 32.5951 174.626 32.7188 174.652 32.8359C174.691 32.9922 174.88 33.4544 175.219 34.2227C175.661 35.2513 176.449 36.918 177.582 39.2227L179.906 43.9492C181.234 41.6315 182.309 39.4766 183.129 37.4844L181.938 34.3594C181.807 34.0729 181.638 33.6432 181.43 33.0703C181.234 32.4974 181.078 32.1654 180.961 32.0742C180.857 31.9701 180.46 31.8203 179.77 31.625C179.079 31.4297 178.669 31.2799 178.539 31.1758L178.52 31.0391C178.52 30.9609 178.559 30.8503 178.637 30.707C178.949 30.6289 179.197 30.5898 179.379 30.5898L180.492 30.6094H182.934L183.676 30.5898L186.078 30.6289C186.273 30.6289 186.436 30.6224 186.566 30.6094H186.898C186.977 30.6094 187.087 30.6159 187.23 30.6289L187.191 31.2539C186.996 31.3711 186.671 31.4557 186.215 31.5078C185.355 31.599 184.698 31.7617 184.242 31.9961C184.099 32.1523 184.027 32.2891 184.027 32.4062C184.027 32.6927 184.105 33.0508 184.262 33.4805C184.314 33.6107 184.451 34.0143 184.672 34.6914L186.762 40.1992C187.374 41.8398 187.842 42.9857 188.168 43.6367C188.715 42.6341 189.483 40.8307 190.473 38.2266C190.824 37.3151 191.293 36.2279 191.879 34.9648C192.257 34.1706 192.445 33.487 192.445 32.9141C192.445 32.6146 192.335 32.3607 192.113 32.1523C191.892 31.944 191.378 31.7487 190.57 31.5664C190.089 31.4622 189.73 31.3646 189.496 31.2734C189.431 31.1693 189.398 31.0846 189.398 31.0195C189.398 30.9023 189.47 30.7721 189.613 30.6289H189.906L191.488 30.6094C191.553 30.6094 191.853 30.6224 192.387 30.6484C192.921 30.6615 193.441 30.668 193.949 30.668C194.34 30.668 194.789 30.6549 195.297 30.6289H196.273C196.352 30.6549 196.404 30.6875 196.43 30.7266C196.469 30.7656 196.488 30.8307 196.488 30.9219C196.488 31.0651 196.469 31.2214 196.43 31.3906C195.792 31.4688 195.29 31.6185 194.926 31.8398C194.561 32.0482 194.066 32.6341 193.441 33.5977L189.945 41.9961C189.62 42.7773 189.053 43.9753 188.246 45.5898C188.077 45.9284 187.947 46.2018 187.855 46.4102C187.777 46.6185 187.699 46.7552 187.621 46.8203C187.543 46.8854 187.439 46.918 187.309 46.918C187.217 46.918 187.094 46.8919 186.938 46.8398C186.573 46.1237 185.766 44.151 184.516 40.9219C184.177 40.0495 183.865 39.3073 183.578 38.6953C181.443 43.1354 180.043 45.8633 179.379 46.8789C179.197 46.9049 179.06 46.918 178.969 46.918C178.878 46.918 178.747 46.9049 178.578 46.8789L174.887 39.1641L171.508 32.5625C171.273 32.1589 171.091 31.9115 170.961 31.8203C170.74 31.6771 170.349 31.5599 169.789 31.4688C169.477 31.4167 169.236 31.3776 169.066 31.3516C169.053 31.1562 169.047 31.0065 169.047 30.9023C169.047 30.8372 169.053 30.7396 169.066 30.6094Z" fill="#2F2D28"/>
<path d="M207.25 45.4141C209.151 45.1927 210.225 45.0365 210.473 44.9453C210.642 44.8802 210.798 44.6849 210.941 44.3594V44.1445C210.941 43.819 210.993 42.6406 211.098 40.6094C211.124 40.0365 211.137 39.4766 211.137 38.9297L211.078 36.6055L211.117 33.9688L211.098 29.0664L211.117 25.5508C211.13 24.0664 211.013 23.1615 210.766 22.8359C210.531 22.5104 209.913 22.2826 208.91 22.1523C207.908 22.0091 207.354 21.9049 207.25 21.8398C207.146 21.7747 207.094 21.6706 207.094 21.5273C207.094 21.4362 207.113 21.319 207.152 21.1758C207.283 21.0586 207.582 20.9935 208.051 20.9805C208.116 20.9805 208.292 20.9674 208.578 20.9414C208.878 20.9023 209.158 20.8828 209.418 20.8828H211.02L216.156 20.8242C219.06 20.8242 221.091 21.0391 222.25 21.4688C223.422 21.8984 224.353 22.6276 225.043 23.6562C225.733 24.6719 226.078 25.8112 226.078 27.0742C226.078 29.4701 224.822 31.2995 222.309 32.5625C221.879 32.7839 221.54 32.9792 221.293 33.1484C221.736 34.0859 222.354 35.2122 223.148 36.5273L225.629 40.7852C226.618 42.3477 227.302 43.3307 227.68 43.7344C228.057 44.125 228.513 44.4505 229.047 44.7109C229.594 44.9714 230.505 45.2188 231.781 45.4531C231.794 45.5833 231.801 45.6875 231.801 45.7656C231.801 45.8438 231.794 45.9414 231.781 46.0586C229.997 46.0846 227.908 46.0977 225.512 46.0977C225.342 46.0977 225.108 46.0846 224.809 46.0586C223.884 44.2878 222.797 42.3411 221.547 40.2188L218.656 34.9453C218.266 34.3984 217.94 34.0599 217.68 33.9297C217.432 33.7865 217.1 33.7148 216.684 33.7148L215.023 33.7344L214.477 33.7148C214.438 34.1315 214.418 34.9844 214.418 36.2734V42.9531C214.405 43.2005 214.457 43.5456 214.574 43.9883C214.678 44.2357 214.854 44.4375 215.102 44.5938C215.362 44.737 216.098 44.9583 217.309 45.2578L218.109 45.4531C218.214 45.5833 218.266 45.7591 218.266 45.9805C217.914 46.0456 217.667 46.0781 217.523 46.0781C216.352 46.0781 215.525 46.0651 215.043 46.0391C214.796 46.026 214.594 46.0195 214.438 46.0195L211.781 46.0586L209.184 46.0391C209.066 46.0391 208.474 46.0586 207.406 46.0977L207.016 46.0195L206.977 45.8242C206.977 45.707 207.068 45.5703 207.25 45.4141ZM214.516 32.6406C214.867 32.6536 215.128 32.6602 215.297 32.6602C216.234 32.6602 217.315 32.5495 218.539 32.3281C219.398 32.1589 220.095 31.8854 220.629 31.5078C221.163 31.1172 221.605 30.5443 221.957 29.7891C222.322 29.0339 222.504 28.2526 222.504 27.4453C222.504 26.5599 222.224 25.6224 221.664 24.6328C221.234 23.8776 220.505 23.2461 219.477 22.7383C218.461 22.2305 217.237 21.9766 215.805 21.9766C215.453 21.9766 214.997 21.9961 214.438 22.0352C214.385 22.7122 214.359 23.2331 214.359 23.5977L214.457 27.25L214.438 28.7539C214.438 29.7695 214.464 31.0651 214.516 32.6406Z" fill="#2F2D28"/>
<path d="M231.566 38.1484C231.566 37.263 231.749 36.319 232.113 35.3164C232.491 34.3008 233.057 33.3958 233.812 32.6016C234.568 31.7943 235.368 31.1953 236.215 30.8047C237.4 30.2578 238.845 29.9844 240.551 29.9844C242.986 29.9844 245.017 30.8177 246.645 32.4844C248.285 34.151 249.105 36.1562 249.105 38.5C249.105 40.5833 248.246 42.4453 246.527 44.0859C244.822 45.7135 242.66 46.5273 240.043 46.5273C238.428 46.5273 236.905 46.1042 235.473 45.2578C234.405 44.6198 233.487 43.6758 232.719 42.4258C231.951 41.1758 231.566 39.75 231.566 38.1484ZM240.199 45.7656C241.189 45.7656 242.139 45.4987 243.051 44.9648C243.975 44.431 244.711 43.5781 245.258 42.4062C245.805 41.2214 246.078 39.8542 246.078 38.3047C246.078 37.2891 245.863 36.1107 245.434 34.7695C245.017 33.4284 244.366 32.4258 243.48 31.7617C242.608 31.0846 241.579 30.7461 240.395 30.7461C239.535 30.7461 238.656 30.9479 237.758 31.3516C236.872 31.7552 236.117 32.5299 235.492 33.6758C234.88 34.8216 234.574 36.4492 234.574 38.5586C234.574 40.9284 235.108 42.7253 236.176 43.9492C237.257 45.1602 238.598 45.7656 240.199 45.7656Z" fill="#2F2D28"/>
<path d="M251.352 45.3164C251.56 45.1732 251.846 45.0755 252.211 45.0234C252.732 44.9583 253.135 44.8542 253.422 44.7109C253.656 44.5156 253.812 44.2357 253.891 43.8711C253.982 43.4023 254.027 41.7552 254.027 38.9297C254.027 36.1562 253.943 34.3659 253.773 33.5586C253.487 33.3763 253.116 33.2331 252.66 33.1289C252.517 33.1029 252.217 33.0312 251.762 32.9141V32.2695C252.53 32.0482 253.148 31.7617 253.617 31.4102C254.099 31.0586 254.763 30.3555 255.609 29.3008H255.727C255.805 29.3008 255.928 29.2943 256.098 29.2812C256.202 29.2943 256.286 29.3268 256.352 29.3789L256.332 31.6055C256.332 32.0612 256.345 32.5495 256.371 33.0703C257.764 31.8073 259.014 30.9219 260.121 30.4141C260.876 30.0755 261.729 29.9062 262.68 29.9062C263.812 29.9062 264.711 30.1211 265.375 30.5508C266.039 30.9805 266.671 31.7552 267.27 32.875C268.428 31.7292 269.477 30.9284 270.414 30.4727C271.365 30.0169 272.322 29.7891 273.285 29.7891C274.743 29.7891 275.941 30.2643 276.879 31.2148C277.803 32.1784 278.279 33.5911 278.305 35.4531V37.0742L278.324 38.8516L278.305 43.4219C278.292 43.9557 278.409 44.3594 278.656 44.6328C278.76 44.6719 279.158 44.7891 279.848 44.9844C280.277 45.1016 280.531 45.1927 280.609 45.2578C280.688 45.3229 280.727 45.4141 280.727 45.5312C280.727 45.6745 280.688 45.8438 280.609 46.0391H280.473L278.5 45.9219C278.266 45.9089 277.895 45.9023 277.387 45.9023C276.762 45.9023 275.889 45.9284 274.77 45.9805H273.773C273.63 45.9805 273.35 45.987 272.934 46C272.921 45.8828 272.914 45.7786 272.914 45.6875C272.914 45.5833 272.96 45.4531 273.051 45.2969C273.402 45.1406 273.884 45.0169 274.496 44.9258C275.108 44.8216 275.486 44.6458 275.629 44.3984C275.785 44.138 275.863 43.1224 275.863 41.3516C275.863 37.5104 275.818 35.2839 275.727 34.6719C275.57 33.6953 275.154 32.9336 274.477 32.3867C273.812 31.8268 272.973 31.5469 271.957 31.5469C271.176 31.5469 270.414 31.7552 269.672 32.1719C268.93 32.5755 268.201 33.1875 267.484 34.0078L267.465 34.4766V37.4648L267.387 39.7891C267.387 42.1589 267.406 43.5065 267.445 43.832C267.497 44.1576 267.608 44.3984 267.777 44.5547C267.96 44.6979 268.474 44.8281 269.32 44.9453C269.698 44.9974 269.991 45.0495 270.199 45.1016C270.355 45.2318 270.434 45.401 270.434 45.6094C270.434 45.7786 270.375 45.8958 270.258 45.9609H269.926L268.949 45.9414H263.266L261.703 45.9609C261.677 45.7656 261.664 45.6224 261.664 45.5312L261.684 45.2969C261.97 45.1406 262.504 44.9909 263.285 44.8477C263.689 44.7826 264.105 44.6719 264.535 44.5156C264.613 44.4505 264.672 44.3659 264.711 44.2617C264.776 44.0794 264.822 43.5586 264.848 42.6992L264.945 40.4336L264.906 37.875L264.926 36.4492C264.926 34.8477 264.6 33.6823 263.949 32.9531C263.298 32.2109 262.478 31.8398 261.488 31.8398C260.564 31.8398 259.633 32.0677 258.695 32.5234C257.771 32.9792 257.003 33.5911 256.391 34.3594C256.378 34.724 256.371 35.056 256.371 35.3555L256.449 41.918C256.462 43.3503 256.54 44.1706 256.684 44.3789C256.84 44.5742 257.178 44.7109 257.699 44.7891C258.533 44.9062 259.073 45.0495 259.32 45.2188C259.438 45.2969 259.496 45.4141 259.496 45.5703C259.496 45.6745 259.49 45.7982 259.477 45.9414C257.992 45.8372 256.996 45.7852 256.488 45.7852C255.967 45.7852 255.499 45.7917 255.082 45.8047L254.105 45.8633H253.5L251.312 45.9414C251.286 45.8503 251.273 45.7721 251.273 45.707C251.273 45.6419 251.299 45.5117 251.352 45.3164Z" fill="#2F2D28"/>
<path d="M297.309 43.3438C297.387 43.513 297.426 43.6367 297.426 43.7148C297.426 43.9102 297.27 44.2552 296.957 44.75C296.553 45.401 296.104 45.8763 295.609 46.1758C295.297 46.3711 294.867 46.4688 294.32 46.4688C293.383 46.4688 292.68 46.1823 292.211 45.6094C291.924 45.2708 291.723 44.6654 291.605 43.793L289.418 45.3164C288.65 45.7591 288.064 46.0391 287.66 46.1562C287.009 46.3255 286.228 46.4102 285.316 46.4102C284.652 46.4102 284.125 46.2148 283.734 45.8242C283.357 45.4206 283.168 44.9062 283.168 44.2812C283.168 43.3828 283.715 42.3086 284.809 41.0586C285.915 39.8086 287.413 38.7865 289.301 37.9922C290.629 37.4323 291.443 37.0742 291.742 36.918C291.768 36.4883 291.781 36.0195 291.781 35.5117C291.781 33.8581 291.547 32.7383 291.078 32.1523C290.622 31.5664 289.965 31.2734 289.105 31.2734C288.207 31.2734 287.367 31.625 286.586 32.3281C286.104 32.7708 285.74 33.6042 285.492 34.8281C285.414 35.1667 285.264 35.5312 285.043 35.9219C284.483 36.2865 284.034 36.4688 283.695 36.4688C283.409 36.4688 283.148 36.3841 282.914 36.2148C282.784 36.1237 282.719 36.0195 282.719 35.9023C282.719 35.5638 283.077 34.8021 283.793 33.6172C284.522 32.4193 285.434 31.5273 286.527 30.9414C287.634 30.3424 288.598 30.043 289.418 30.043C290.538 30.043 291.371 30.1471 291.918 30.3555C292.465 30.5508 292.947 30.9023 293.363 31.4102C293.78 31.918 294.034 32.4714 294.125 33.0703C294.177 33.3568 294.203 34.3789 294.203 36.1367L294.145 39.2422L294.164 41.5078C294.164 41.8073 294.158 42.0612 294.145 42.2695C294.132 42.6471 294.125 42.9271 294.125 43.1094C294.125 43.5391 294.249 43.8841 294.496 44.1445C294.743 44.4049 295.036 44.5352 295.375 44.5352C295.87 44.5352 296.293 44.2878 296.645 43.793L296.879 43.4805C296.944 43.4414 297.087 43.3958 297.309 43.3438ZM291.566 42.7773C291.658 41.1237 291.703 39.9583 291.703 39.2812C291.703 38.9297 291.684 38.4544 291.645 37.8555C290.772 38.168 289.848 38.6432 288.871 39.2812C287.895 39.9193 287.12 40.6549 286.547 41.4883C286.13 42.0872 285.922 42.6536 285.922 43.1875C285.922 43.6953 286.091 44.1185 286.43 44.457C286.781 44.7956 287.217 44.9648 287.738 44.9648C288.142 44.9648 288.63 44.8216 289.203 44.5352C289.958 44.1576 290.746 43.5716 291.566 42.7773Z" fill="#2F2D28"/>
<path d="M298.422 45.375C298.747 45.2839 299.125 45.2057 299.555 45.1406C300.375 45.0234 300.863 44.8867 301.02 44.7305C301.189 44.5742 301.273 44.2161 301.273 43.6562L301.312 42.9531C301.326 42.6927 301.332 42.3607 301.332 41.957L301.293 35.9609C301.293 35.1536 301.189 34.6328 300.98 34.3984C300.629 34.0339 299.978 33.7799 299.027 33.6367V32.9336C299.978 32.6732 300.707 32.3346 301.215 31.918C301.957 31.332 302.582 30.5378 303.09 29.5352L303.754 29.5547C303.793 30.1667 303.812 30.6029 303.812 30.8633V32.1523L303.832 32.5039C303.988 32.3997 304.171 32.2695 304.379 32.1133C305.16 31.5273 305.961 31.0521 306.781 30.6875C307.602 30.3099 308.331 30.0495 308.969 29.9062C309.372 29.8021 309.828 29.75 310.336 29.75C311.404 29.75 312.322 30.0365 313.09 30.6094C313.858 31.1823 314.353 31.8594 314.574 32.6406C314.809 33.4089 314.926 34.9453 314.926 37.25V40.1992C314.926 40.2773 314.913 40.5378 314.887 40.9805C314.874 41.4232 314.867 41.931 314.867 42.5039C314.867 43.4154 314.906 43.9948 314.984 44.2422C315.049 44.4115 315.219 44.5807 315.492 44.75C316.742 44.9193 317.471 45.1211 317.68 45.3555V45.5117C317.68 45.6419 317.641 45.8047 317.562 46H317.191L314.613 45.9805L312.074 46.0195C311.137 46.0456 310.271 46.0391 309.477 46L309.359 45.5898C309.359 45.5117 309.405 45.4076 309.496 45.2773C309.848 45.1211 310.342 45.0169 310.98 44.9648C311.358 44.9388 311.618 44.8997 311.762 44.8477C311.905 44.7956 312.081 44.6914 312.289 44.5352C312.445 44.2227 312.523 43.9622 312.523 43.7539C312.523 43.6628 312.51 43.4805 312.484 43.207C312.445 42.6081 312.419 41.1172 312.406 38.7344V37.7188L312.445 36.1562C312.445 34.4766 312.107 33.3177 311.43 32.6797C310.753 32.0417 309.848 31.7227 308.715 31.7227C307.842 31.7227 306.99 31.918 306.156 32.3086C305.323 32.6862 304.516 33.2591 303.734 34.0273C303.708 34.6523 303.695 35.1862 303.695 35.6289L303.754 39.9453C303.754 42.1979 303.786 43.5781 303.852 44.0859C303.878 44.2943 303.923 44.4375 303.988 44.5156C304.092 44.6198 304.301 44.7044 304.613 44.7695C304.926 44.8346 305.284 44.9258 305.688 45.043C306.104 45.1602 306.378 45.2318 306.508 45.2578C306.768 45.3229 306.944 45.4531 307.035 45.6484L307.016 46.0391H304.965L300.746 45.9805C299.77 46.0065 299.151 46.0195 298.891 46.0195H298.402L298.363 45.7656C298.363 45.6745 298.383 45.5443 298.422 45.375Z" fill="#2F2D28"/>
<path d="M17.6 92.12V91.12L18.4 91.04C19.3333 90.9333 20.04 90.8 20.52 90.64C21.0267 90.4533 21.3733 90.08 21.56 89.52C21.7467 88.9333 21.84 87.9867 21.84 86.68V68.92C21.84 67.5867 21.7467 66.64 21.56 66.08C21.3733 65.52 21.0267 65.16 20.52 65C20.04 64.8133 19.3333 64.6667 18.4 64.56L17.6 64.48V63.48L23.52 63.6H28.4C29.12 63.6 29.96 63.6267 30.92 63.68C31.88 63.7333 32.84 63.8667 33.8 64.08C34.7867 64.2667 35.6933 64.6 36.52 65.08C37.3733 65.5333 38.0533 66.1733 38.56 67C39.0933 67.8 39.36 68.84 39.36 70.12C39.36 71.3467 39.0667 72.4 38.48 73.28C37.92 74.16 37.2 74.8933 36.32 75.48C35.4667 76.04 34.5733 76.48 33.64 76.8C34.92 76.9067 36.12 77.2 37.24 77.68C38.36 78.16 39.2667 78.9067 39.96 79.92C40.68 80.9067 41.04 82.24 41.04 83.92C41.04 85.4667 40.7333 86.7733 40.12 87.84C39.5333 88.88 38.7333 89.7067 37.72 90.32C36.7067 90.9067 35.5867 91.3333 34.36 91.6C33.1333 91.8667 31.8933 92 30.64 92H23.52L17.6 92.12ZM29.6 64.72H25.08V76.52H30.4C32.0533 76.52 33.3333 75.9867 34.24 74.92C35.1733 73.8533 35.64 72.2533 35.64 70.12C35.64 68.6 35.4 67.4533 34.92 66.68C34.44 65.9067 33.7467 65.3867 32.84 65.12C31.96 64.8533 30.88 64.72 29.6 64.72ZM28.4 90.88H30.64C31.9733 90.88 33.1333 90.6933 34.12 90.32C35.1333 89.9467 35.9067 89.2667 36.44 88.28C37 87.2667 37.28 85.8267 37.28 83.96C37.28 82.1467 36.9733 80.7867 36.36 79.88C35.7467 78.9733 34.8133 78.3733 33.56 78.08C32.3067 77.7867 30.72 77.64 28.8 77.64H25.08V86.84C25.08 88.44 25.3467 89.52 25.88 90.08C26.44 90.6133 27.28 90.88 28.4 90.88Z" fill="#2F2D28"/>
<path d="M49.8619 92.44C48.5819 92.44 47.5152 92.12 46.6619 91.48C45.8352 90.8133 45.4219 89.8933 45.4219 88.72C45.4219 87.5467 45.9419 86.5067 46.9819 85.6C48.0219 84.6667 49.2352 83.8267 50.6219 83.08C51.6619 82.4933 52.7019 81.9867 53.7419 81.56C54.7819 81.1333 55.6752 80.7733 56.4219 80.48V79.2C56.4219 77.7333 56.1419 76.64 55.5819 75.92C55.0485 75.2 54.0219 74.84 52.5019 74.84C51.7819 74.84 51.0752 74.9333 50.3819 75.12C49.6885 75.3067 49.3419 75.6533 49.3419 76.16C49.3419 76.2667 49.3552 76.3867 49.3819 76.52C49.4352 76.6533 49.4752 76.7867 49.5019 76.92C49.6352 77.2667 49.7019 77.6267 49.7019 78C49.7019 78.5067 49.5152 78.9067 49.1419 79.2C48.7952 79.4667 48.3685 79.6 47.8619 79.6C47.3819 79.6 46.9819 79.4267 46.6619 79.08C46.3419 78.7067 46.1819 78.2667 46.1819 77.76C46.1819 76.8 46.5419 76.04 47.2619 75.48C48.0085 74.8933 48.9152 74.48 49.9819 74.24C51.0485 73.9733 52.0752 73.84 53.0619 73.84C55.1952 73.84 56.7552 74.3333 57.7419 75.32C58.7285 76.3067 59.2219 77.92 59.2219 80.16V87.36C59.2219 88.5333 59.3019 89.44 59.4619 90.08C59.6485 90.72 60.0485 91.04 60.6619 91.04C61.0619 91.04 61.4085 90.8933 61.7019 90.6C61.9952 90.3067 62.1952 89.9867 62.3019 89.64L63.0219 89.92C62.8085 90.6933 62.4219 91.3067 61.8619 91.76C61.3285 92.2133 60.5819 92.44 59.6219 92.44C58.4485 92.44 57.6352 92.1067 57.1819 91.44C56.7552 90.7467 56.5152 89.84 56.4619 88.72C55.7152 89.92 54.7685 90.84 53.6219 91.48C52.4752 92.12 51.2219 92.44 49.8619 92.44ZM48.5419 88.52C48.5419 89.2667 48.7552 89.8667 49.1819 90.32C49.6352 90.7467 50.2885 90.96 51.1419 90.96C51.9152 90.96 52.6485 90.7733 53.3419 90.4C54.0619 90.0267 54.6885 89.56 55.2219 89C55.7552 88.4133 56.1552 87.7867 56.4219 87.12V81.28C55.5419 81.6533 54.6352 82.0933 53.7019 82.6C52.7952 83.08 51.9419 83.6267 51.1419 84.24C50.3685 84.8533 49.7419 85.52 49.2619 86.24C48.7819 86.9333 48.5419 87.6933 48.5419 88.52Z" fill="#2F2D28"/>
<path d="M71.5112 92.44C70.4979 92.44 69.6313 92.32 68.9113 92.08C68.2179 91.8667 67.6713 91.6667 67.2713 91.48C66.8446 91.2667 66.5779 91.16 66.4712 91.16C66.3646 91.16 66.2712 91.2133 66.1912 91.32C66.1379 91.4 66.0712 91.6267 65.9912 92H65.0713L65.2313 89.36L65.3512 85.96H66.2313L66.2713 86.64C66.3246 87.3867 66.5646 88.1333 66.9912 88.88C67.4446 89.6267 68.0579 90.2533 68.8312 90.76C69.6046 91.2667 70.4979 91.52 71.5112 91.52C72.6046 91.52 73.4846 91.24 74.1513 90.68C74.8179 90.12 75.1512 89.3467 75.1512 88.36C75.1512 87.5067 74.8046 86.7867 74.1113 86.2C73.4446 85.6133 72.5112 85.0933 71.3112 84.64L69.8713 84.08C68.4846 83.5467 67.4313 82.88 66.7113 82.08C66.0179 81.28 65.6712 80.2533 65.6712 79C65.6712 77.9333 65.9113 77.0267 66.3913 76.28C66.8979 75.5067 67.5512 74.9067 68.3512 74.48C69.1779 74.0533 70.0579 73.84 70.9912 73.84C71.6579 73.84 72.2179 73.92 72.6712 74.08C73.1512 74.24 73.5512 74.4 73.8713 74.56C74.1379 74.6933 74.3646 74.76 74.5513 74.76C74.8179 74.76 75.0312 74.48 75.1912 73.92L76.0713 73.96L75.9113 76.56V79.36H74.9912C74.8046 78.1067 74.3779 77.0267 73.7113 76.12C73.0446 75.1867 72.0846 74.72 70.8312 74.72C69.9512 74.72 69.2046 75 68.5913 75.56C68.0046 76.12 67.7113 76.8267 67.7113 77.68C67.7113 78.5067 68.0179 79.2 68.6312 79.76C69.2712 80.2933 70.1379 80.7733 71.2313 81.2L72.7913 81.8C74.4179 82.4133 75.5379 83.16 76.1512 84.04C76.7912 84.8933 77.1113 85.92 77.1113 87.12C77.1113 88.5333 76.6312 89.7733 75.6712 90.84C74.7112 91.9067 73.3246 92.44 71.5112 92.44Z" fill="#2F2D28"/>
<path d="M79.0609 92.12V91.2L79.7009 91.12C80.4743 91.0133 81.0609 90.8933 81.4609 90.76C81.8876 90.6 82.1809 90.2667 82.3409 89.76C82.5009 89.2267 82.5809 88.36 82.5809 87.16V67.64C82.5809 66.2533 82.2876 65.3733 81.7009 65C81.1409 64.6 80.3543 64.4 79.3409 64.4H79.0609V63.48C80.1543 63.48 81.2076 63.4533 82.2209 63.4C83.2343 63.32 84.2876 63.1867 85.3809 63V84.4L91.3009 77.32C91.6476 76.8933 91.8209 76.52 91.8209 76.2C91.8209 75.8 91.5009 75.56 90.8609 75.48L90.2209 75.4V74.48L94.0609 74.56L97.4209 74.48V75.4L96.7809 75.48C95.5809 75.64 94.5676 76 93.7409 76.56C92.9409 77.12 92.2076 77.8 91.5409 78.6L89.2209 81.36L96.0209 88.96C96.4209 89.4133 96.8609 89.88 97.3409 90.36C97.8209 90.8133 98.3009 91.0667 98.7809 91.12L99.4209 91.2V92.12L94.9809 92L87.4209 83.48L85.3809 85.92V87.16C85.3809 88.36 85.4609 89.2267 85.6209 89.76C85.7809 90.2667 86.0609 90.6 86.4609 90.76C86.8876 90.8933 87.4876 91.0133 88.2609 91.12L88.9009 91.2V92.12L83.9809 92L79.0609 92.12Z" fill="#2F2D28"/>
<path d="M109.216 92.44C107.456 92.44 105.923 92.0667 104.616 91.32C103.31 90.5467 102.283 89.4933 101.536 88.16C100.816 86.8 100.456 85.2533 100.456 83.52C100.456 81.6533 100.856 80 101.656 78.56C102.456 77.0933 103.523 75.9467 104.856 75.12C106.216 74.2667 107.71 73.84 109.336 73.84C111.39 73.84 112.99 74.4933 114.136 75.8C115.31 77.1067 115.896 78.8267 115.896 80.96C115.896 81.28 115.883 81.5467 115.856 81.76C115.83 81.9733 115.803 82.12 115.776 82.2H103.696C103.67 82.5733 103.656 82.9467 103.656 83.32C103.656 84.7333 103.883 86.0533 104.336 87.28C104.79 88.48 105.47 89.44 106.376 90.16C107.31 90.88 108.443 91.24 109.776 91.24C111.03 91.24 112.136 90.8933 113.096 90.2C114.083 89.48 114.843 88.4267 115.376 87.04L116.336 87.4C115.216 90.76 112.843 92.44 109.216 92.44ZM109.336 74.84C107.683 74.84 106.39 75.4267 105.456 76.6C104.55 77.7733 103.99 79.3333 103.776 81.28H108.856C110.056 81.28 110.963 81.1467 111.576 80.88C112.216 80.5867 112.643 80.24 112.856 79.84C113.096 79.4133 113.216 79 113.216 78.6C113.216 77.4267 112.816 76.5067 112.016 75.84C111.216 75.1733 110.323 74.84 109.336 74.84Z" fill="#2F2D28"/>
<path d="M118.839 92.12V91.2L119.479 91.12C120.252 91.0133 120.839 90.8933 121.239 90.76C121.665 90.6 121.959 90.2667 122.119 89.76C122.279 89.2267 122.359 88.36 122.359 87.16V78.84C122.359 77.8 122.212 77.04 121.919 76.56C121.652 76.08 121.252 75.7867 120.719 75.68C120.185 75.5467 119.559 75.48 118.839 75.48V74.56C119.932 74.56 120.985 74.52 121.999 74.44C123.012 74.36 124.065 74.24 125.159 74.08L124.719 78.68H124.879C125.465 76.8933 126.185 75.64 127.039 74.92C127.892 74.2 128.812 73.84 129.799 73.84C130.919 73.84 131.665 74.12 132.039 74.68C132.412 75.2133 132.599 75.7333 132.599 76.24C132.599 76.8267 132.425 77.3067 132.079 77.68C131.732 78.0533 131.265 78.24 130.679 78.24C130.119 78.24 129.692 78.1067 129.399 77.84C129.105 77.5733 128.959 77.2667 128.959 76.92C128.959 76.6533 128.985 76.4 129.039 76.16C129.119 75.92 129.159 75.7333 129.159 75.6C129.159 75.3333 128.972 75.2 128.599 75.2C128.225 75.2 127.825 75.3733 127.399 75.72C126.999 76.0667 126.652 76.5467 126.359 77.16C126.119 77.6667 125.892 78.2267 125.679 78.84C125.465 79.4533 125.292 80.12 125.159 80.84V87.16C125.159 88.36 125.239 89.2267 125.399 89.76C125.559 90.2667 125.839 90.6 126.239 90.76C126.665 90.8933 127.265 91.0133 128.039 91.12L128.679 91.2V92.12L123.759 92L118.839 92.12Z" fill="#2F2D28"/>
<path d="M144.144 92L137.624 77.6C137.384 77.0667 137.091 76.6133 136.744 76.24C136.398 75.8667 135.878 75.64 135.184 75.56L134.464 75.48V74.56L138.584 74.68L142.664 74.56V75.48L142.024 75.56C141.438 75.64 141.024 75.7867 140.784 76C140.544 76.1867 140.424 76.4533 140.424 76.8C140.424 77.0933 140.531 77.4933 140.744 78L145.784 89.12L150.464 78.16C150.704 77.6267 150.824 77.1867 150.824 76.84C150.824 76.1467 150.211 75.72 148.984 75.56L148.304 75.48V74.56L151.904 74.68L155.264 74.56V75.48L154.344 75.6C153.598 75.7067 153.024 76 152.624 76.48C152.224 76.9333 151.824 77.6267 151.424 78.56L145.664 92H144.144Z" fill="#2F2D28"/>
<path d="M164.418 92L157.898 77.6C157.658 77.0667 157.364 76.6133 157.018 76.24C156.671 75.8667 156.151 75.64 155.458 75.56L154.738 75.48V74.56L158.858 74.68L162.938 74.56V75.48L162.298 75.56C161.711 75.64 161.298 75.7867 161.058 76C160.818 76.1867 160.698 76.4533 160.698 76.8C160.698 77.0933 160.804 77.4933 161.018 78L166.058 89.12L170.738 78.16C170.978 77.6267 171.098 77.1867 171.098 76.84C171.098 76.1467 170.484 75.72 169.258 75.56L168.578 75.48V74.56L172.178 74.68L175.538 74.56V75.48L174.618 75.6C173.871 75.7067 173.298 76 172.898 76.48C172.498 76.9333 172.098 77.6267 171.698 78.56L165.938 92H164.418Z" fill="#2F2D28"/>
<path d="M176.651 92.12V91.2L177.291 91.12C178.065 91.0133 178.651 90.8933 179.051 90.76C179.478 90.6 179.771 90.2667 179.931 89.76C180.091 89.2267 180.171 88.36 180.171 87.16V78.72C180.171 77.3333 179.878 76.4533 179.291 76.08C178.731 75.68 177.945 75.48 176.931 75.48H176.651V74.56C177.745 74.56 178.798 74.5333 179.811 74.48C180.825 74.4 181.878 74.2667 182.971 74.08V87.16C182.971 88.36 183.051 89.2267 183.211 89.76C183.371 90.2667 183.651 90.6 184.051 90.76C184.478 90.8933 185.078 91.0133 185.851 91.12L186.491 91.2V92.12L181.571 92L176.651 92.12ZM181.091 69.4C180.398 69.4 179.851 69.16 179.451 68.68C179.051 68.2 178.851 67.6267 178.851 66.96C178.851 66.2667 179.051 65.6933 179.451 65.24C179.851 64.76 180.398 64.52 181.091 64.52C181.865 64.52 182.425 64.76 182.771 65.24C183.145 65.6933 183.331 66.2667 183.331 66.96C183.331 67.6267 183.145 68.2 182.771 68.68C182.425 69.16 181.865 69.4 181.091 69.4Z" fill="#2F2D28"/>
<path d="M187.498 92.12V91.2L188.138 91.12C188.912 91.0133 189.498 90.8933 189.898 90.76C190.325 90.6 190.618 90.2667 190.778 89.76C190.938 89.2267 191.018 88.36 191.018 87.16V67.64C191.018 66.2533 190.725 65.3733 190.138 65C189.578 64.6 188.792 64.4 187.778 64.4H187.498V63.48C188.592 63.48 189.645 63.4533 190.658 63.4C191.672 63.32 192.725 63.1867 193.818 63V87.16C193.818 88.36 193.898 89.2267 194.058 89.76C194.218 90.2667 194.498 90.6 194.898 90.76C195.325 90.8933 195.925 91.0133 196.698 91.12L197.338 91.2V92.12L192.418 92L187.498 92.12Z" fill="#2F2D28"/>
<path d="M198.553 92.12V91.2L199.193 91.12C199.966 91.0133 200.553 90.8933 200.953 90.76C201.38 90.6 201.673 90.2667 201.833 89.76C201.993 89.2267 202.073 88.36 202.073 87.16V67.64C202.073 66.2533 201.78 65.3733 201.193 65C200.633 64.6 199.846 64.4 198.833 64.4H198.553V63.48C199.646 63.48 200.7 63.4533 201.713 63.4C202.726 63.32 203.78 63.1867 204.873 63V87.16C204.873 88.36 204.953 89.2267 205.113 89.76C205.273 90.2667 205.553 90.6 205.953 90.76C206.38 90.8933 206.98 91.0133 207.753 91.12L208.393 91.2V92.12L203.473 92L198.553 92.12Z" fill="#2F2D28"/>
<path d="M219.568 92.44C217.808 92.44 216.274 92.0667 214.968 91.32C213.661 90.5467 212.634 89.4933 211.888 88.16C211.168 86.8 210.808 85.2533 210.808 83.52C210.808 81.6533 211.208 80 212.008 78.56C212.808 77.0933 213.874 75.9467 215.208 75.12C216.568 74.2667 218.061 73.84 219.688 73.84C221.741 73.84 223.341 74.4933 224.488 75.8C225.661 77.1067 226.248 78.8267 226.248 80.96C226.248 81.28 226.234 81.5467 226.208 81.76C226.181 81.9733 226.154 82.12 226.128 82.2H214.048C214.021 82.5733 214.008 82.9467 214.008 83.32C214.008 84.7333 214.234 86.0533 214.688 87.28C215.141 88.48 215.821 89.44 216.728 90.16C217.661 90.88 218.794 91.24 220.128 91.24C221.381 91.24 222.488 90.8933 223.448 90.2C224.434 89.48 225.194 88.4267 225.728 87.04L226.688 87.4C225.568 90.76 223.194 92.44 219.568 92.44ZM219.688 74.84C218.034 74.84 216.741 75.4267 215.808 76.6C214.901 77.7733 214.341 79.3333 214.128 81.28H219.208C220.408 81.28 221.314 81.1467 221.928 80.88C222.568 80.5867 222.994 80.24 223.208 79.84C223.448 79.4133 223.568 79 223.568 78.6C223.568 77.4267 223.168 76.5067 222.368 75.84C221.568 75.1733 220.674 74.84 219.688 74.84Z" fill="#2F2D28"/>
<path d="M36.3516 110.906V116.316H34.418C34.1055 115.184 33.7083 114.285 33.2266 113.621C32.7448 112.944 32.1849 112.462 31.5469 112.176C30.9089 111.889 30.1406 111.746 29.2422 111.746C27.901 111.746 26.7031 112.195 25.6484 113.094C24.6068 113.979 23.7865 115.32 23.1875 117.117C22.5885 118.901 22.2891 121.062 22.2891 123.602C22.2891 126.154 22.5365 128.335 23.0312 130.145C23.526 131.941 24.2552 133.302 25.2188 134.227C26.1823 135.138 27.3672 135.594 28.7734 135.594C29.8411 135.594 30.7135 135.444 31.3906 135.145C32.0677 134.832 32.6341 134.344 33.0898 133.68C33.5586 133.016 34.0013 132.039 34.418 130.75H36.3516V136.336C35.1276 136.661 33.8711 136.902 32.582 137.059C31.306 137.228 29.8997 137.312 28.3633 137.312C25.056 137.312 22.556 136.193 20.8633 133.953C19.1706 131.714 18.3242 128.374 18.3242 123.934C18.3242 121.147 18.7604 118.706 19.6328 116.609C20.5182 114.513 21.8138 112.892 23.5195 111.746C25.2253 110.6 27.263 110.027 29.6328 110.027C30.8177 110.027 31.9115 110.092 32.9141 110.223C33.9167 110.34 35.0625 110.568 36.3516 110.906Z" fill="#2F2D28"/>
<path d="M51.6836 134.207L51.3906 134.129C50.2578 135.288 49.1901 136.108 48.1875 136.59C47.1979 137.072 46.1432 137.312 45.0234 137.312C44.0339 137.312 43.1615 137.124 42.4062 136.746C41.651 136.355 41.0716 135.815 40.668 135.125C40.2643 134.422 40.0625 133.615 40.0625 132.703C40.0625 130.802 41 129.337 42.875 128.309C44.763 127.267 47.5885 126.661 51.3516 126.492V125.223C51.3516 123.868 51.2214 122.801 50.9609 122.02C50.7005 121.238 50.2904 120.665 49.7305 120.301C49.1706 119.936 48.4219 119.754 47.4844 119.754C46.4688 119.754 45.6484 120.021 45.0234 120.555C44.4115 121.089 43.9492 121.889 43.6367 122.957H41.0781V120.418C42.3281 119.767 43.3698 119.292 44.2031 118.992C45.0365 118.68 45.8698 118.439 46.7031 118.27C47.5365 118.087 48.3828 117.996 49.2422 117.996C50.5312 117.996 51.5664 118.204 52.3477 118.621C53.1289 119.025 53.7148 119.65 54.1055 120.496C54.4961 121.342 54.6914 122.618 54.6914 124.324V131.121C54.6914 132.085 54.6979 132.768 54.7109 133.172C54.724 133.562 54.763 133.927 54.8281 134.266C54.8932 134.604 54.9909 134.878 55.1211 135.086C55.2513 135.281 55.4401 135.451 55.6875 135.594C55.9479 135.737 56.3646 135.887 56.9375 136.043V137H51.5859L51.6836 134.207ZM51.3516 128.094C48.7083 128.12 46.7292 128.471 45.4141 129.148C44.099 129.826 43.4414 130.848 43.4414 132.215C43.4414 132.957 43.5911 133.543 43.8906 133.973C44.1901 134.402 44.5677 134.702 45.0234 134.871C45.4792 135.027 46.0195 135.105 46.6445 135.105C47.5299 135.105 48.3307 134.891 49.0469 134.461C49.776 134.031 50.3424 133.484 50.7461 132.82C51.1497 132.156 51.3516 131.499 51.3516 130.848V128.094Z" fill="#2F2D28"/>
<path d="M65.1992 121.336L65.4727 121.414C66.2539 120.633 66.8919 120.047 67.3867 119.656C67.8945 119.253 68.3828 118.934 68.8516 118.699C69.3203 118.452 69.7565 118.276 70.1602 118.172C70.5768 118.068 71 118.016 71.4297 118.016C72.7318 118.016 73.793 118.315 74.6133 118.914C75.4336 119.513 76 120.431 76.3125 121.668C77.2891 120.678 78.0768 119.949 78.6758 119.48C79.2878 119.012 79.9062 118.654 80.5312 118.406C81.1693 118.146 81.8529 118.016 82.582 118.016C83.4544 118.016 84.2031 118.146 84.8281 118.406C85.4661 118.654 86 119.044 86.4297 119.578C86.8724 120.099 87.1914 120.757 87.3867 121.551C87.5951 122.345 87.6992 123.413 87.6992 124.754V132.117C87.6992 133.107 87.7318 133.79 87.7969 134.168C87.862 134.546 87.9531 134.839 88.0703 135.047C88.2005 135.255 88.3893 135.438 88.6367 135.594C88.8841 135.737 89.3008 135.887 89.8867 136.043V137H82.2109V136.043C82.7188 135.887 83.0833 135.75 83.3047 135.633C83.526 135.516 83.7083 135.353 83.8516 135.145C84.0078 134.936 84.125 134.617 84.2031 134.188C84.2943 133.745 84.3398 133.081 84.3398 132.195V127.078C84.3398 125.971 84.3073 125.06 84.2422 124.344C84.1901 123.615 84.099 123.035 83.9688 122.605C83.8516 122.176 83.7018 121.837 83.5195 121.59C83.3503 121.342 83.1549 121.128 82.9336 120.945C82.7122 120.763 82.4518 120.62 82.1523 120.516C81.8529 120.411 81.4557 120.359 80.9609 120.359C80.4401 120.359 79.9518 120.464 79.4961 120.672C79.0534 120.88 78.5651 121.232 78.0312 121.727C77.5104 122.221 77.1328 122.723 76.8984 123.23C76.6641 123.725 76.5469 124.311 76.5469 124.988V132.117C76.5469 133.107 76.5794 133.79 76.6445 134.168C76.7096 134.546 76.8008 134.839 76.918 135.047C77.0482 135.255 77.237 135.438 77.4844 135.594C77.7318 135.737 78.1484 135.887 78.7344 136.043V137H71.0586V136.043C71.5664 135.887 71.931 135.75 72.1523 135.633C72.3737 135.516 72.556 135.353 72.6992 135.145C72.8555 134.936 72.9727 134.617 73.0508 134.188C73.1419 133.745 73.1875 133.081 73.1875 132.195V127.078C73.1875 125.919 73.1549 124.975 73.0898 124.246C73.0247 123.517 72.9206 122.931 72.7773 122.488C72.6471 122.046 72.4714 121.688 72.25 121.414C72.0417 121.141 71.8268 120.932 71.6055 120.789C71.3841 120.646 71.1237 120.542 70.8242 120.477C70.5247 120.398 70.1862 120.359 69.8086 120.359C69.2747 120.359 68.7734 120.483 68.3047 120.73C67.8359 120.965 67.3542 121.31 66.8594 121.766C66.3776 122.221 66.013 122.697 65.7656 123.191C65.5182 123.686 65.3945 124.22 65.3945 124.793V132.117C65.3945 132.859 65.4141 133.426 65.4531 133.816C65.4922 134.207 65.5508 134.513 65.6289 134.734C65.7201 134.956 65.8307 135.138 65.9609 135.281C66.0911 135.411 66.2734 135.542 66.5078 135.672C66.7552 135.789 67.1198 135.913 67.6016 136.043V137H59.9453V136.043C60.4401 135.887 60.7917 135.75 61 135.633C61.2214 135.516 61.4102 135.353 61.5664 135.145C61.7227 134.936 61.8398 134.617 61.918 134.188C61.9961 133.758 62.0352 133.087 62.0352 132.176V123.66C62.0352 122.827 62.0221 122.156 61.9961 121.648C61.9701 121.141 61.8789 120.737 61.7227 120.438C61.5664 120.125 61.3255 119.897 61 119.754C60.6875 119.598 60.2383 119.467 59.6523 119.363V118.328L64.2227 118.152H65.4141L65.1992 121.336Z" fill="#2F2D28"/>
<path d="M98.1289 121.395L98.207 121.414C99.1185 120.464 99.8737 119.773 100.473 119.344C101.085 118.914 101.71 118.589 102.348 118.367C102.999 118.133 103.708 118.016 104.477 118.016C105.87 118.016 107.061 118.374 108.051 119.09C109.053 119.793 109.822 120.854 110.355 122.273C110.902 123.693 111.176 125.431 111.176 127.488C111.176 129.611 110.85 131.408 110.199 132.879C109.561 134.337 108.611 135.444 107.348 136.199C106.098 136.941 104.613 137.312 102.895 137.312C101.931 137.312 101.02 137.221 100.16 137.039C99.3138 136.87 98.4219 136.564 97.4844 136.121L96.1172 137.312L94.7695 137V115.77C94.7695 114.52 94.7565 113.647 94.7305 113.152C94.7174 112.658 94.6654 112.241 94.5742 111.902C94.4961 111.551 94.3789 111.277 94.2227 111.082C94.0794 110.887 93.8776 110.73 93.6172 110.613C93.3698 110.496 92.9141 110.379 92.25 110.262V109.246L96.9766 109.051H98.1289V121.395ZM98.1289 129.969C98.1289 130.971 98.1745 131.772 98.2656 132.371C98.3568 132.957 98.5065 133.445 98.7148 133.836C98.9362 134.227 99.2487 134.585 99.6523 134.91C100.069 135.236 100.531 135.464 101.039 135.594C101.547 135.711 102.113 135.77 102.738 135.77C104.301 135.77 105.486 135.132 106.293 133.855C107.1 132.579 107.504 130.665 107.504 128.113C107.504 125.535 107.133 123.602 106.391 122.312C105.661 121.01 104.555 120.359 103.07 120.359C102.328 120.359 101.697 120.477 101.176 120.711C100.655 120.932 100.134 121.284 99.6133 121.766C99.1055 122.247 98.7279 122.723 98.4805 123.191C98.2461 123.66 98.1289 124.194 98.1289 124.793V129.969Z" fill="#2F2D28"/>
<path d="M120.395 121.57L120.668 121.629C121.384 120.757 122.048 120.073 122.66 119.578C123.272 119.07 123.93 118.68 124.633 118.406C125.349 118.133 126.156 117.996 127.055 117.996C127.81 117.996 128.493 118.035 129.105 118.113V122.605H126.898C126.586 121.902 126.254 121.395 125.902 121.082C125.551 120.757 125.069 120.594 124.457 120.594C123.988 120.594 123.52 120.73 123.051 121.004C122.595 121.277 122.152 121.674 121.723 122.195C121.293 122.716 120.993 123.204 120.824 123.66C120.668 124.116 120.59 124.656 120.59 125.281V132.117C120.59 133.302 120.661 134.122 120.805 134.578C120.948 135.021 121.182 135.346 121.508 135.555C121.846 135.763 122.348 135.926 123.012 136.043V137H115.141V136.043C115.635 135.887 115.987 135.75 116.195 135.633C116.417 135.516 116.605 135.353 116.762 135.145C116.918 134.936 117.035 134.617 117.113 134.188C117.191 133.758 117.23 133.087 117.23 132.176V123.66C117.23 122.827 117.217 122.156 117.191 121.648C117.165 121.141 117.074 120.737 116.918 120.438C116.762 120.125 116.521 119.897 116.195 119.754C115.883 119.598 115.434 119.467 114.848 119.363V118.348L119.418 118.152H120.609L120.395 121.57Z" fill="#2F2D28"/>
<path d="M137.27 110.672V114.461H133.676V110.672H137.27ZM131.684 136.043C132.191 135.887 132.549 135.75 132.758 135.633C132.979 135.516 133.161 135.353 133.305 135.145C133.461 134.936 133.578 134.617 133.656 134.188C133.747 133.758 133.793 133.087 133.793 132.176V123.66C133.793 122.827 133.78 122.156 133.754 121.648C133.728 121.141 133.637 120.737 133.48 120.438C133.324 120.125 133.083 119.897 132.758 119.754C132.445 119.598 131.996 119.467 131.41 119.363V118.328L135.961 118.152H137.152V132.117C137.152 133.237 137.204 134.018 137.309 134.461C137.413 134.891 137.608 135.223 137.895 135.457C138.194 135.678 138.676 135.874 139.34 136.043V137H131.684V136.043Z" fill="#2F2D28"/>
<path d="M154.105 134.207L153.812 134.129C152.68 135.288 151.612 136.108 150.609 136.59C149.62 137.072 148.565 137.312 147.445 137.312C146.456 137.312 145.583 137.124 144.828 136.746C144.073 136.355 143.493 135.815 143.09 135.125C142.686 134.422 142.484 133.615 142.484 132.703C142.484 130.802 143.422 129.337 145.297 128.309C147.185 127.267 150.01 126.661 153.773 126.492V125.223C153.773 123.868 153.643 122.801 153.383 122.02C153.122 121.238 152.712 120.665 152.152 120.301C151.592 119.936 150.844 119.754 149.906 119.754C148.891 119.754 148.07 120.021 147.445 120.555C146.833 121.089 146.371 121.889 146.059 122.957H143.5V120.418C144.75 119.767 145.792 119.292 146.625 118.992C147.458 118.68 148.292 118.439 149.125 118.27C149.958 118.087 150.805 117.996 151.664 117.996C152.953 117.996 153.988 118.204 154.77 118.621C155.551 119.025 156.137 119.65 156.527 120.496C156.918 121.342 157.113 122.618 157.113 124.324V131.121C157.113 132.085 157.12 132.768 157.133 133.172C157.146 133.562 157.185 133.927 157.25 134.266C157.315 134.604 157.413 134.878 157.543 135.086C157.673 135.281 157.862 135.451 158.109 135.594C158.37 135.737 158.786 135.887 159.359 136.043V137H154.008L154.105 134.207ZM153.773 128.094C151.13 128.12 149.151 128.471 147.836 129.148C146.521 129.826 145.863 130.848 145.863 132.215C145.863 132.957 146.013 133.543 146.312 133.973C146.612 134.402 146.99 134.702 147.445 134.871C147.901 135.027 148.441 135.105 149.066 135.105C149.952 135.105 150.753 134.891 151.469 134.461C152.198 134.031 152.764 133.484 153.168 132.82C153.572 132.156 153.773 131.499 153.773 130.848V128.094Z" fill="#2F2D28"/>
<path d="M31.6641 167.191C34.0859 167.829 35.8958 168.721 37.0938 169.867C38.3047 171.013 38.9102 172.406 38.9102 174.047C38.9102 175.805 38.1615 177.426 36.6641 178.91C35.1667 180.408 32.9661 181.156 30.0625 181.156C29.5156 181.156 28.6432 181.124 27.4453 181.059C26.6771 181.02 26.2604 181 26.1953 181C22.1849 181 19.4766 181.039 18.0703 181.117C17.6016 181.117 17.3672 180.993 17.3672 180.746C17.3672 180.616 17.4323 180.525 17.5625 180.473C17.7057 180.421 18.2135 180.316 19.0859 180.16C19.6068 180.069 20.0169 179.848 20.3164 179.496C20.6159 179.145 20.8438 178.428 21 177.348C21.1562 176.267 21.2344 174.659 21.2344 172.523C21.2344 170.414 21.2604 168.715 21.3125 167.426C21.3646 166.124 21.3906 165.128 21.3906 164.438C21.3906 162.289 21.306 160.564 21.1367 159.262C20.9805 157.96 20.7526 157.133 20.4531 156.781C20.1536 156.417 19.5417 156.163 18.6172 156.02C18.2396 155.967 18.0508 155.831 18.0508 155.609C18.0508 155.375 18.2396 155.258 18.6172 155.258L22.1719 155.316C23.3307 155.316 24.418 155.29 25.4336 155.238C27.7122 155.121 29.1836 155.062 29.8477 155.062C32.2565 155.062 34.1706 155.59 35.5898 156.645C36.9961 157.699 37.6992 159.138 37.6992 160.961C37.6992 162.393 37.237 163.624 36.3125 164.652C35.388 165.681 33.8385 166.527 31.6641 167.191ZM24.9648 156.449C24.8477 159.301 24.7891 161.612 24.7891 163.383L24.8086 166.273C24.8086 166.664 24.8607 166.911 24.9648 167.016C25.082 167.12 25.388 167.172 25.8828 167.172C28.3568 167.172 30.3424 166.723 31.8398 165.824C33.3372 164.913 34.0859 163.389 34.0859 161.254C34.0859 159.444 33.526 158.096 32.4062 157.211C31.2995 156.312 29.9193 155.863 28.2656 155.863C27.3021 155.863 26.2018 156.059 24.9648 156.449ZM24.9648 168.09C24.7826 168.415 24.6914 168.982 24.6914 169.789L24.5547 175.844C24.5547 177.979 24.6068 179.171 24.7109 179.418C24.8281 179.665 25.2057 179.874 25.8438 180.043C26.4948 180.212 27.5169 180.297 28.9102 180.297C30.1471 180.297 31.1497 180.128 31.918 179.789C32.6992 179.438 33.4154 178.754 34.0664 177.738C34.7174 176.723 35.043 175.505 35.043 174.086C35.043 171.977 34.418 170.427 33.168 169.438C31.931 168.448 30.0951 167.953 27.6602 167.953C26.8398 167.953 25.9414 167.999 24.9648 168.09Z" fill="#2F2D28"/>
<path d="M45.2383 171.879C45.1862 172.543 45.1602 173.07 45.1602 173.461C45.1602 175.31 45.7005 176.872 46.7812 178.148C47.875 179.424 49.2227 180.062 50.8242 180.062C52.3867 180.062 53.8385 179.438 55.1797 178.188C55.5703 177.836 55.8177 177.66 55.9219 177.66C56.1302 177.66 56.2409 177.829 56.2539 178.168C55.7591 179.079 54.9128 179.848 53.7148 180.473C52.5169 181.098 51.1823 181.41 49.7109 181.41C47.5495 181.41 45.7201 180.635 44.2227 179.086C42.7253 177.523 41.9766 175.551 41.9766 173.168C41.9766 170.616 42.7969 168.487 44.4375 166.781C46.0911 165.076 47.8555 164.223 49.7305 164.223C51.4883 164.223 53.0768 164.893 54.4961 166.234C55.9154 167.562 56.625 169.125 56.625 170.922C56.625 171.195 56.5794 171.397 56.4883 171.527C56.4102 171.658 55.9154 171.723 55.0039 171.723L45.2383 171.879ZM45.2383 170.863C46.931 170.941 48.5716 170.98 50.1602 170.98L51.1953 170.922C51.9766 170.896 52.5755 170.746 52.9922 170.473C53.4089 170.186 53.6172 169.691 53.6172 168.988C53.6172 167.895 53.2396 166.944 52.4844 166.137C51.7422 165.316 50.8633 164.906 49.8477 164.906C48.9102 164.906 47.9727 165.375 47.0352 166.312C46.1107 167.237 45.5117 168.754 45.2383 170.863Z" fill="#2F2D28"/>
<path d="M64.7109 154.242C64.75 155.883 64.7826 157.523 64.8086 159.164L64.7695 171.332L64.8477 177.23C64.8477 178.35 65.0039 179.158 65.3164 179.652C65.6419 180.147 66.332 180.44 67.3867 180.531C67.8034 180.57 68.0117 180.694 68.0117 180.902C68.0117 181.124 67.8424 181.234 67.5039 181.234C67.4128 181.234 67.3021 181.228 67.1719 181.215C65.8307 181.072 64.2292 181 62.3672 181C61.2344 181 60.3229 181.052 59.6328 181.156C59.4896 181.169 59.3594 181.176 59.2422 181.176C58.8516 181.176 58.6562 181.059 58.6562 180.824C58.6562 180.603 58.832 180.486 59.1836 180.473C60.3685 180.46 61.1432 180.121 61.5078 179.457C61.8854 178.78 62.0742 177.654 62.0742 176.078L62.0156 164.945C62.0026 161.365 61.9505 159.229 61.8594 158.539C61.7812 157.836 61.5143 157.25 61.0586 156.781C60.6029 156.312 59.9648 156.013 59.1445 155.883C58.6367 155.805 58.3828 155.668 58.3828 155.473C58.3828 155.251 58.5911 155.128 59.0078 155.102C61.3906 154.945 63.181 154.659 64.3789 154.242H64.7109Z" fill="#2F2D28"/>
<path d="M75.9609 154.242C76 155.883 76.0326 157.523 76.0586 159.164L76.0195 171.332L76.0977 177.23C76.0977 178.35 76.2539 179.158 76.5664 179.652C76.8919 180.147 77.582 180.44 78.6367 180.531C79.0534 180.57 79.2617 180.694 79.2617 180.902C79.2617 181.124 79.0924 181.234 78.7539 181.234C78.6628 181.234 78.5521 181.228 78.4219 181.215C77.0807 181.072 75.4792 181 73.6172 181C72.4844 181 71.5729 181.052 70.8828 181.156C70.7396 181.169 70.6094 181.176 70.4922 181.176C70.1016 181.176 69.9062 181.059 69.9062 180.824C69.9062 180.603 70.082 180.486 70.4336 180.473C71.6185 180.46 72.3932 180.121 72.7578 179.457C73.1354 178.78 73.3242 177.654 73.3242 176.078L73.2656 164.945C73.2526 161.365 73.2005 159.229 73.1094 158.539C73.0312 157.836 72.7643 157.25 72.3086 156.781C71.8529 156.312 71.2148 156.013 70.3945 155.883C69.8867 155.805 69.6328 155.668 69.6328 155.473C69.6328 155.251 69.8411 155.128 70.2578 155.102C72.6406 154.945 74.431 154.659 75.6289 154.242H75.9609Z" fill="#2F2D28"/>
<path d="M99.5547 155.434C100.87 158.285 102.094 160.805 103.227 162.992C104.594 165.609 105.655 167.784 106.41 169.516C107.178 171.247 108.07 172.96 109.086 174.652C111.781 170.186 114.906 163.78 118.461 155.434L126.234 155.453C126.508 155.492 126.645 155.609 126.645 155.805C126.645 156 126.488 156.111 126.176 156.137C124.796 156.254 123.871 156.534 123.402 156.977C122.947 157.406 122.66 158.135 122.543 159.164C122.439 160.193 122.335 162.107 122.23 164.906C122.126 167.706 122.074 170.036 122.074 171.898C122.074 175.479 122.1 177.569 122.152 178.168C122.204 178.754 122.426 179.223 122.816 179.574C123.207 179.926 123.969 180.18 125.102 180.336C125.427 180.388 125.59 180.512 125.59 180.707C125.59 180.902 125.388 181 124.984 181L117.387 180.98H115.395C114.952 180.98 114.73 180.876 114.73 180.668C114.73 180.486 114.88 180.375 115.18 180.336C116.273 180.193 116.996 179.991 117.348 179.73C117.712 179.47 117.979 179.008 118.148 178.344C118.331 177.667 118.422 175.993 118.422 173.324L118.793 163.949L118.988 159.32C118.988 158.969 118.936 158.793 118.832 158.793C118.676 158.793 118.546 158.897 118.441 159.105L114.574 166.742C112.1 171.625 110.583 174.75 110.023 176.117L108.812 179.066C108.435 179.965 108.207 180.46 108.129 180.551C108.051 180.629 107.96 180.668 107.855 180.668C107.699 180.668 107.569 180.499 107.465 180.16C107.23 179.353 106.026 176.788 103.852 172.465C102.719 170.03 101.358 167.25 99.7695 164.125C98.194 161 97.3411 159.372 97.2109 159.242C97.0807 159.099 96.9831 159.027 96.918 159.027C96.7878 159.027 96.7227 159.19 96.7227 159.516L96.5078 171.352L96.4492 175.258C96.4492 177.328 96.7292 178.682 97.2891 179.32C97.862 179.958 98.6758 180.277 99.7305 180.277C100.408 180.277 100.746 180.421 100.746 180.707C100.746 180.915 100.583 181.02 100.258 181.02L99.8477 181L98.5781 181.02L95.8242 181C94.6263 181 93.0833 181.065 91.1953 181.195C91.0391 181.091 90.9609 180.987 90.9609 180.883C90.9609 180.622 91.1888 180.486 91.6445 180.473C92.9466 180.434 93.9036 180.004 94.5156 179.184C95.1276 178.363 95.4336 176.527 95.4336 173.676L95.3945 170.238L95.668 161.527C95.668 159.496 95.3685 158.109 94.7695 157.367C94.1706 156.612 93.2917 156.163 92.1328 156.02C91.638 155.954 91.3906 155.818 91.3906 155.609C91.3906 155.375 91.5729 155.258 91.9375 155.258C92.1328 155.258 92.3672 155.264 92.6406 155.277L99.5547 155.434Z" fill="#2F2D28"/>
<path d="M139.574 156.508C138.559 156.456 137.842 156.43 137.426 156.43C134.613 156.43 132.576 157.016 131.312 158.188C130.049 159.359 129.314 160.401 129.105 161.312C129.04 161.638 128.865 161.801 128.578 161.801C128.448 161.801 128.324 161.742 128.207 161.625C128.272 160.076 128.526 157.986 128.969 155.355C129.594 155.342 129.991 155.336 130.16 155.336C131.176 155.336 132.536 155.388 134.242 155.492C136.078 155.596 138.891 155.648 142.68 155.648C146.56 155.648 149.086 155.603 150.258 155.512C151.326 155.408 152.79 155.355 154.652 155.355C154.809 156.293 154.913 157.27 154.965 158.285C155.043 159.444 155.121 160.258 155.199 160.727C155.212 160.831 155.219 160.941 155.219 161.059C155.219 161.371 155.082 161.527 154.809 161.527C154.639 161.527 154.496 161.475 154.379 161.371C154.275 161.254 154.027 160.883 153.637 160.258C152.96 159.203 152.257 158.409 151.527 157.875C150.798 157.328 149.984 156.977 149.086 156.82C148.188 156.664 146.371 156.56 143.637 156.508C143.48 158.474 143.402 160.72 143.402 163.246C143.402 171.605 143.578 176.534 143.93 178.031C144.294 179.529 145.577 180.277 147.777 180.277C148.311 180.277 148.578 180.388 148.578 180.609C148.578 180.87 148.324 181 147.816 181H135.805C135.492 181 135.336 180.876 135.336 180.629C135.336 180.382 135.642 180.258 136.254 180.258C137.283 180.258 138.109 179.971 138.734 179.398C139.372 178.812 139.737 178.025 139.828 177.035C139.932 176.046 139.984 173.188 139.984 168.461C139.984 164.424 139.848 160.44 139.574 156.508Z" fill="#2F2D28"/>
</svg>
