<svg width="481" height="79" viewBox="0 0 481 79" fill="none" xmlns="http://www.w3.org/2000/svg">
<path d="M17.344 13.68H52.4V26.28H48.816L47.024 17.88H38.512V49.408L44.448 50.752V54H25.296V50.752L31.232 49.408V17.88H22.664L20.928 26.28H17.344V13.68ZM83.6318 27.96L74.6158 52.656C73.3838 55.5307 72.2638 57.8453 71.2558 59.6C70.2478 61.392 69.1278 62.68 67.8958 63.464C66.7011 64.248 65.1331 64.64 63.1918 64.64C61.4371 64.64 59.9251 64.1733 58.6558 63.24C57.4238 62.3067 56.8078 61.1307 56.8078 59.712C56.8078 58.4053 57.1811 57.3227 57.9278 56.464C58.7118 55.6427 59.7198 55.232 60.9518 55.232C62.0345 55.232 62.8558 55.4747 63.4158 55.96C64.0131 56.4453 64.3118 57.1733 64.3118 58.144C64.3118 58.5173 64.1065 59.0213 63.6958 59.656C63.3225 60.328 62.6691 60.664 61.7358 60.664C61.8105 61.0373 62.0345 61.28 62.4078 61.392C62.7811 61.5413 63.0985 61.616 63.3598 61.616C63.8825 61.616 64.3678 61.504 64.8158 61.28C65.2638 61.0933 65.7305 60.6267 66.2158 59.88C66.7385 59.1333 67.2985 57.9947 67.8958 56.464L68.5678 54.392L57.3118 27.96L53.9518 26.896V23.76H68.1758L68.6238 26.896L64.6478 27.96L71.5358 47.392H71.7598L77.9758 27.96L74.7278 26.896V23.76H87.0478V26.896L83.6318 27.96ZM100.074 59.88L105.506 60.944V64.08H88.6499V60.944L92.9619 59.88V27.96L88.6499 26.896V23.76H98.3939L99.2339 28.072C100.429 26.2053 101.773 24.936 103.266 24.264C104.797 23.5547 106.514 23.2 108.418 23.2C110.322 23.2 112.039 23.48 113.57 24.04C115.138 24.6 116.407 25.496 117.378 26.728C118.498 28.1467 119.375 29.864 120.01 31.88C120.682 33.8587 121.018 36.0053 121.018 38.32C121.018 40.7093 120.645 42.968 119.898 45.096C119.189 47.1867 118.218 48.9413 116.986 50.36C114.895 52.7867 111.89 54 107.97 54C106.365 54 104.909 53.7013 103.602 53.104C102.333 52.4693 101.157 51.3867 100.074 49.856V59.88ZM100.018 38.32C100.018 40.3733 100.186 42.1467 100.522 43.64C100.858 45.1333 101.306 46.3467 101.866 47.28C102.426 48.2133 103.135 48.9413 103.994 49.464C104.89 49.9867 105.917 50.248 107.074 50.248C108.231 50.248 109.165 50.0053 109.874 49.52C110.621 49.0347 111.218 48.4 111.666 47.616C112.226 46.6453 112.655 45.3947 112.954 43.864C113.29 42.3333 113.458 40.672 113.458 38.88C113.458 37.0133 113.29 35.2587 112.954 33.616C112.618 31.936 112.17 30.592 111.61 29.584C111.05 28.6133 110.359 27.9413 109.538 27.568C108.717 27.1947 107.783 27.008 106.738 27.008C105.581 27.008 104.61 27.2133 103.826 27.624C103.042 28.0347 102.37 28.688 101.81 29.584C101.287 30.4427 100.858 31.6 100.522 33.056C100.186 34.512 100.018 36.2667 100.018 38.32ZM154.325 38.88C154.325 41.2693 153.97 43.528 153.261 45.656C152.589 47.7467 151.599 49.5013 150.293 50.92C149.061 52.2267 147.567 53.16 145.813 53.72C144.095 54.28 142.079 54.56 139.765 54.56C137.45 54.56 135.415 54.28 133.661 53.72C131.943 53.16 130.469 52.2267 129.237 50.92C127.93 49.5013 126.922 47.7467 126.213 45.656C125.541 43.528 125.205 41.2693 125.205 38.88C125.205 36.4907 125.541 34.232 126.213 32.104C126.922 29.976 127.93 28.2213 129.237 26.84C130.469 25.5333 131.943 24.6 133.661 24.04C135.415 23.48 137.45 23.2 139.765 23.2C142.079 23.2 144.095 23.48 145.813 24.04C147.567 24.6 149.061 25.5333 150.293 26.84C151.599 28.2213 152.589 29.976 153.261 32.104C153.97 34.232 154.325 36.4907 154.325 38.88ZM134.669 48.568C135.191 49.3147 135.863 49.8747 136.685 50.248C137.543 50.6213 138.57 50.808 139.765 50.808C140.959 50.808 141.986 50.6213 142.845 50.248C143.703 49.8747 144.375 49.3147 144.861 48.568C146.055 46.7387 146.653 43.5093 146.653 38.88C146.653 36.528 146.503 34.5493 146.205 32.944C145.906 31.3387 145.458 30.088 144.861 29.192C144.375 28.4453 143.703 27.8853 142.845 27.512C141.986 27.1387 140.959 26.952 139.765 26.952C138.57 26.952 137.543 27.1387 136.685 27.512C135.863 27.8853 135.191 28.4453 134.669 29.192C133.474 31.0213 132.877 34.2507 132.877 38.88C132.877 43.5093 133.474 46.7387 134.669 48.568ZM185.951 54.336C185.951 57.7707 184.719 60.2907 182.255 61.896C179.791 63.5013 175.871 64.304 170.495 64.304C168.105 64.304 165.921 64.08 163.943 63.632C162.001 63.184 160.452 62.4373 159.295 61.392C158.137 60.384 157.559 59.0027 157.559 57.248C157.559 55.5307 158.1 54.1493 159.183 53.104C160.265 52.0587 161.871 51.4987 163.999 51.424V51.2C161.161 50.416 159.743 48.9973 159.743 46.944C159.743 46.1973 159.929 45.4133 160.303 44.592C160.676 43.7707 161.292 43.0427 162.151 42.408C163.009 41.7733 164.129 41.3627 165.511 41.176C163.532 40.6907 161.983 39.7013 160.863 38.208C159.743 36.6773 159.183 34.8853 159.183 32.832C159.183 29.8453 160.191 27.4933 162.207 25.776C164.223 24.0587 167.116 23.2 170.887 23.2C173.388 23.2 175.348 23.424 176.767 23.872C178.185 24.2827 179.436 24.9173 180.519 25.776L182.423 25.104L187.575 22.64H188.527V28.408H187.575L183.655 27.96H182.255C183.001 29.1173 183.375 30.6293 183.375 32.496C183.375 35.5573 182.423 37.984 180.519 39.776C178.615 41.5307 175.871 42.408 172.287 42.408C171.913 42.408 171.54 42.408 171.167 42.408C170.793 42.3707 170.42 42.3333 170.047 42.296C168.591 42.4827 167.415 42.8187 166.519 43.304C165.66 43.752 165.231 44.4053 165.231 45.264C165.231 45.936 165.585 46.4027 166.295 46.664C167.004 46.888 168.292 47 170.159 47H176.655C179.716 47 182.031 47.616 183.599 48.848C185.167 50.0427 185.951 51.872 185.951 54.336ZM172.511 52.152H170.551C168.049 52.152 166.239 52.544 165.119 53.328C163.999 54.112 163.439 55.1387 163.439 56.408C163.439 59.2453 166.108 60.664 171.447 60.664C174.321 60.664 176.505 60.2347 177.999 59.376C179.492 58.5547 180.239 57.3413 180.239 55.736C180.239 54.4293 179.66 53.5147 178.503 52.992C177.345 52.432 175.348 52.152 172.511 52.152ZM165.791 32.608C165.791 34.6987 166.239 36.304 167.135 37.424C168.068 38.5067 169.356 39.048 170.999 39.048C172.977 39.048 174.433 38.5067 175.367 37.424C176.3 36.304 176.767 34.6987 176.767 32.608C176.767 30.6293 176.3 29.136 175.367 28.128C174.433 27.12 172.977 26.616 170.999 26.616C169.319 26.616 168.031 27.12 167.135 28.128C166.239 29.136 165.791 30.6293 165.791 32.608ZM207.074 27.848C206.663 27.848 206.196 28.1093 205.674 28.632C205.151 29.1173 204.666 29.696 204.218 30.368C203.807 31.04 203.508 31.6373 203.322 32.16C202.874 33.4293 202.482 34.736 202.146 36.08C201.81 37.424 201.642 39.0667 201.642 41.008V49.8L207.69 50.864V54H190.218V50.864L194.53 49.8V27.12L190.218 26.056V23.76H199.962L201.194 31.152H201.418C202.276 28.6133 203.434 26.6533 204.89 25.272C206.346 23.8907 207.951 23.2 209.706 23.2C211.162 23.2 212.375 23.6667 213.346 24.6C214.316 25.496 214.802 26.7093 214.802 28.24C214.802 29.36 214.466 30.3867 213.794 31.32C213.122 32.216 212.17 32.664 210.938 32.664C209.444 32.664 208.38 32.328 207.746 31.656C207.111 30.9467 206.794 30.1813 206.794 29.36C206.794 29.0987 206.794 28.912 206.794 28.8C206.831 28.6507 206.924 28.3333 207.074 27.848ZM216.797 47.392C216.797 44.2933 218.216 41.904 221.053 40.224C223.891 38.5067 228.352 37.1813 234.437 36.248C234.288 34.3813 234.083 32.944 233.821 31.936C233.56 30.928 233.224 30.0693 232.813 29.36C232.328 28.5013 231.731 27.8107 231.021 27.288C230.312 26.7653 229.416 26.504 228.333 26.504C227.549 26.504 226.821 26.6533 226.149 26.952C225.515 27.2507 225.085 27.6613 224.861 28.184C225.384 28.4453 225.739 28.856 225.925 29.416C226.149 29.976 226.261 30.4613 226.261 30.872C226.261 31.8053 225.851 32.6453 225.029 33.392C224.208 34.1013 223.219 34.456 222.061 34.456C220.904 34.456 219.989 34.0827 219.317 33.336C218.645 32.552 218.309 31.5813 218.309 30.424C218.309 28.8933 218.851 27.5867 219.933 26.504C221.016 25.4213 222.397 24.6 224.077 24.04C225.757 23.48 227.456 23.2 229.173 23.2C230.928 23.2 232.496 23.4613 233.877 23.984C235.296 24.4693 236.435 25.0853 237.293 25.832C240.243 28.4453 241.717 32.5893 241.717 38.264V45.544C241.717 47.3733 241.829 48.6427 242.053 49.352C242.315 50.0613 242.856 50.416 243.677 50.416H246.197V52.936C242.763 54.0187 240.168 54.56 238.413 54.56C237.181 54.56 236.36 54.1493 235.949 53.328C235.539 52.5067 235.333 50.8827 235.333 48.456H235.109C233.952 50.36 232.421 51.8533 230.517 52.936C228.613 54.0187 226.56 54.56 224.357 54.56C222.005 54.56 220.157 53.9253 218.813 52.656C217.469 51.3867 216.797 49.632 216.797 47.392ZM227.773 50.472C228.557 50.472 229.416 50.2107 230.349 49.688C231.32 49.1653 232.16 48.4373 232.869 47.504C233.28 46.9813 233.672 46.2347 234.045 45.264C234.419 44.2933 234.605 43.136 234.605 41.792C234.605 41.344 234.587 40.84 234.549 40.28C234.512 39.72 234.456 39.1973 234.381 38.712C231.805 39.272 229.771 39.8693 228.277 40.504C226.821 41.1387 225.776 41.904 225.141 42.8C224.544 43.6587 224.245 44.7227 224.245 45.992C224.245 47.5973 224.619 48.7547 225.365 49.464C226.112 50.136 226.915 50.472 227.773 50.472ZM258.34 59.88L263.772 60.944V64.08H246.916V60.944L251.228 59.88V27.96L246.916 26.896V23.76H256.66L257.5 28.072C258.694 26.2053 260.038 24.936 261.532 24.264C263.062 23.5547 264.78 23.2 266.684 23.2C268.588 23.2 270.305 23.48 271.836 24.04C273.404 24.6 274.673 25.496 275.644 26.728C276.764 28.1467 277.641 29.864 278.276 31.88C278.948 33.8587 279.284 36.0053 279.284 38.32C279.284 40.7093 278.91 42.968 278.164 45.096C277.454 47.1867 276.484 48.9413 275.252 50.36C273.161 52.7867 270.156 54 266.236 54C264.63 54 263.174 53.7013 261.868 53.104C260.598 52.4693 259.422 51.3867 258.34 49.856V59.88ZM258.284 38.32C258.284 40.3733 258.452 42.1467 258.788 43.64C259.124 45.1333 259.572 46.3467 260.132 47.28C260.692 48.2133 261.401 48.9413 262.26 49.464C263.156 49.9867 264.182 50.248 265.34 50.248C266.497 50.248 267.43 50.0053 268.14 49.52C268.886 49.0347 269.484 48.4 269.932 47.616C270.492 46.6453 270.921 45.3947 271.22 43.864C271.556 42.3333 271.724 40.672 271.724 38.88C271.724 37.0133 271.556 35.2587 271.22 33.616C270.884 31.936 270.436 30.592 269.876 29.584C269.316 28.6133 268.625 27.9413 267.804 27.568C266.982 27.1947 266.049 27.008 265.004 27.008C263.846 27.008 262.876 27.2133 262.092 27.624C261.308 28.0347 260.636 28.688 260.076 29.584C259.553 30.4427 259.124 31.6 258.788 33.056C258.452 34.512 258.284 36.2667 258.284 38.32ZM306.15 49.8V38.992C306.15 36.5653 306.076 34.7733 305.926 33.616C305.814 32.4213 305.59 31.4693 305.254 30.76C304.358 28.9307 302.716 28.016 300.326 28.016C299.281 28.016 298.273 28.2773 297.302 28.8C296.332 29.3227 295.566 30.0693 295.006 31.04C294.708 31.5253 294.446 32.216 294.222 33.112C293.998 33.9707 293.886 35.0347 293.886 36.304V49.8L297.638 50.864V54H282.462V50.864L286.774 49.8V14.52L282.462 13.456V10.32H293.886V29.024C294.857 27.232 296.126 25.8133 297.694 24.768C299.3 23.7227 301.054 23.2 302.958 23.2C304.564 23.2 305.908 23.4053 306.99 23.816C308.11 24.1893 309.081 24.8053 309.902 25.664C311.06 26.8587 311.9 28.464 312.422 30.48C312.982 32.4587 313.262 35.0533 313.262 38.264V49.8L317.574 50.864V54H302.398V50.864L306.15 49.8ZM347.882 27.96L338.866 52.656C337.634 55.5307 336.514 57.8453 335.506 59.6C334.498 61.392 333.378 62.68 332.146 63.464C330.951 64.248 329.383 64.64 327.442 64.64C325.687 64.64 324.175 64.1733 322.906 63.24C321.674 62.3067 321.058 61.1307 321.058 59.712C321.058 58.4053 321.431 57.3227 322.178 56.464C322.962 55.6427 323.97 55.232 325.202 55.232C326.284 55.232 327.106 55.4747 327.666 55.96C328.263 56.4453 328.562 57.1733 328.562 58.144C328.562 58.5173 328.356 59.0213 327.946 59.656C327.572 60.328 326.919 60.664 325.986 60.664C326.06 61.0373 326.284 61.28 326.658 61.392C327.031 61.5413 327.348 61.616 327.61 61.616C328.132 61.616 328.618 61.504 329.066 61.28C329.514 61.0933 329.98 60.6267 330.466 59.88C330.988 59.1333 331.548 57.9947 332.146 56.464L332.818 54.392L321.562 27.96L318.202 26.896V23.76H332.426L332.874 26.896L328.898 27.96L335.786 47.392H336.01L342.226 27.96L338.978 26.896V23.76H351.298V26.896L347.882 27.96Z" fill="#726F68"/>
<rect y="53" width="367" height="2" fill="#185EE7" fill-opacity="0.75"/>
<rect y="66" width="367" height="2" fill="#E7A118"/>
<rect y="25" width="367" height="2" fill="#185EE7" fill-opacity="0.75"/>
<rect y="11" width="367" height="2" fill="#E7A118"/>
<path d="M395.57 9.29688C396.591 9.29688 397.349 9.52604 397.844 9.98438C398.339 10.4427 398.586 11.1745 398.586 12.1797V18H397.641L397.391 16.7344H397.328C397.089 17.0469 396.839 17.3099 396.578 17.5234C396.318 17.7318 396.016 17.8906 395.672 18C395.333 18.1042 394.917 18.1562 394.422 18.1562C393.901 18.1562 393.438 18.0651 393.031 17.8828C392.63 17.7005 392.312 17.4245 392.078 17.0547C391.849 16.6849 391.734 16.2161 391.734 15.6484C391.734 14.7943 392.073 14.138 392.75 13.6797C393.427 13.2214 394.458 12.9714 395.844 12.9297L397.32 12.8672V12.3438C397.32 11.6042 397.161 11.0859 396.844 10.7891C396.526 10.4922 396.078 10.3438 395.5 10.3438C395.052 10.3438 394.625 10.4089 394.219 10.5391C393.812 10.6693 393.427 10.8229 393.062 11L392.664 10.0156C393.049 9.81771 393.492 9.64844 393.992 9.50781C394.492 9.36719 395.018 9.29688 395.57 9.29688ZM397.305 13.7812L396 13.8359C394.932 13.8776 394.18 14.0521 393.742 14.3594C393.305 14.6667 393.086 15.1016 393.086 15.6641C393.086 16.1536 393.234 16.5156 393.531 16.75C393.828 16.9844 394.221 17.1016 394.711 17.1016C395.471 17.1016 396.094 16.8906 396.578 16.4688C397.062 16.0469 397.305 15.4141 397.305 14.5703V13.7812ZM406.797 15.6562C406.797 16.2031 406.659 16.6641 406.383 17.0391C406.112 17.4089 405.721 17.6875 405.211 17.875C404.706 18.0625 404.102 18.1562 403.398 18.1562C402.799 18.1562 402.281 18.1094 401.844 18.0156C401.406 17.9219 401.023 17.7891 400.695 17.6172V16.4219C401.044 16.5938 401.461 16.75 401.945 16.8906C402.43 17.0312 402.924 17.1016 403.43 17.1016C404.169 17.1016 404.706 16.9818 405.039 16.7422C405.372 16.5026 405.539 16.1771 405.539 15.7656C405.539 15.5312 405.471 15.3255 405.336 15.1484C405.206 14.9661 404.984 14.7917 404.672 14.625C404.359 14.4531 403.927 14.2656 403.375 14.0625C402.828 13.8542 402.354 13.6484 401.953 13.4453C401.557 13.237 401.25 12.9844 401.031 12.6875C400.818 12.3906 400.711 12.0052 400.711 11.5312C400.711 10.8073 401.003 10.2526 401.586 9.86719C402.174 9.47656 402.945 9.28125 403.898 9.28125C404.414 9.28125 404.896 9.33333 405.344 9.4375C405.797 9.53646 406.219 9.67188 406.609 9.84375L406.172 10.8828C405.818 10.7318 405.44 10.6042 405.039 10.5C404.638 10.3958 404.229 10.3438 403.812 10.3438C403.214 10.3438 402.753 10.4427 402.43 10.6406C402.112 10.8385 401.953 11.1094 401.953 11.4531C401.953 11.7188 402.026 11.9375 402.172 12.1094C402.323 12.2812 402.562 12.4427 402.891 12.5938C403.219 12.7448 403.651 12.9219 404.188 13.125C404.724 13.3229 405.188 13.5286 405.578 13.7422C405.969 13.9505 406.268 14.2057 406.477 14.5078C406.69 14.8047 406.797 15.1875 406.797 15.6562ZM412.312 18.1562C411.542 18.1562 410.862 17.9974 410.273 17.6797C409.685 17.362 409.227 16.8776 408.898 16.2266C408.57 15.5755 408.406 14.7552 408.406 13.7656C408.406 12.7292 408.578 11.8828 408.922 11.2266C409.271 10.5651 409.75 10.0755 410.359 9.75781C410.969 9.4401 411.661 9.28125 412.438 9.28125C412.865 9.28125 413.276 9.32552 413.672 9.41406C414.073 9.4974 414.401 9.60417 414.656 9.73438L414.266 10.8203C414.005 10.7161 413.703 10.6224 413.359 10.5391C413.021 10.4557 412.703 10.4141 412.406 10.4141C411.812 10.4141 411.318 10.5417 410.922 10.7969C410.531 11.0521 410.237 11.4271 410.039 11.9219C409.846 12.4167 409.75 13.026 409.75 13.75C409.75 14.4427 409.844 15.0339 410.031 15.5234C410.224 16.013 410.508 16.388 410.883 16.6484C411.263 16.9036 411.737 17.0312 412.305 17.0312C412.758 17.0312 413.167 16.9844 413.531 16.8906C413.896 16.7917 414.227 16.6771 414.523 16.5469V17.7031C414.237 17.849 413.917 17.9609 413.562 18.0391C413.214 18.1172 412.797 18.1562 412.312 18.1562ZM419.852 9.28125C420.581 9.28125 421.206 9.44271 421.727 9.76562C422.247 10.0885 422.646 10.5417 422.922 11.125C423.198 11.7031 423.336 12.3802 423.336 13.1562V13.9609H417.422C417.438 14.9661 417.688 15.7318 418.172 16.2578C418.656 16.7839 419.339 17.0469 420.219 17.0469C420.76 17.0469 421.24 16.9974 421.656 16.8984C422.073 16.7995 422.505 16.6536 422.953 16.4609V17.6016C422.521 17.7943 422.091 17.9349 421.664 18.0234C421.242 18.112 420.742 18.1562 420.164 18.1562C419.341 18.1562 418.622 17.9896 418.008 17.6562C417.398 17.3177 416.924 16.8229 416.586 16.1719C416.247 15.5208 416.078 14.724 416.078 13.7812C416.078 12.8594 416.232 12.0625 416.539 11.3906C416.852 10.7135 417.289 10.1927 417.852 9.82812C418.419 9.46354 419.086 9.28125 419.852 9.28125ZM419.836 10.3438C419.143 10.3438 418.591 10.5703 418.18 11.0234C417.768 11.4766 417.523 12.1094 417.445 12.9219H421.977C421.971 12.4115 421.891 11.9635 421.734 11.5781C421.583 11.1875 421.352 10.8854 421.039 10.6719C420.727 10.4531 420.326 10.3438 419.836 10.3438ZM429.594 9.28125C430.609 9.28125 431.378 9.53125 431.898 10.0312C432.419 10.526 432.68 11.3229 432.68 12.4219V18H431.398V12.5078C431.398 11.7943 431.234 11.2604 430.906 10.9062C430.583 10.5521 430.086 10.375 429.414 10.375C428.466 10.375 427.799 10.6432 427.414 11.1797C427.029 11.7161 426.836 12.4948 426.836 13.5156V18H425.539V9.4375H426.586L426.781 10.6719H426.852C427.034 10.3698 427.266 10.1172 427.547 9.91406C427.828 9.70573 428.143 9.54948 428.492 9.44531C428.841 9.33594 429.208 9.28125 429.594 9.28125ZM438.117 17.0938C438.331 17.0938 438.549 17.0755 438.773 17.0391C438.997 17.0026 439.18 16.9583 439.32 16.9062V17.9141C439.169 17.9818 438.958 18.0391 438.688 18.0859C438.422 18.1328 438.161 18.1562 437.906 18.1562C437.453 18.1562 437.042 18.0781 436.672 17.9219C436.302 17.7604 436.005 17.4896 435.781 17.1094C435.562 16.7292 435.453 16.2031 435.453 15.5312V10.4531H434.234V9.82031L435.461 9.3125L435.977 7.45312H436.758V9.4375H439.266V10.4531H436.758V15.4922C436.758 16.0286 436.88 16.4297 437.125 16.6953C437.375 16.9609 437.706 17.0938 438.117 17.0938ZM446.516 18H445.211V5.84375H446.516V18ZM450.555 9.4375V18H449.258V9.4375H450.555ZM449.922 6.23438C450.135 6.23438 450.318 6.30469 450.469 6.44531C450.625 6.58073 450.703 6.79427 450.703 7.08594C450.703 7.3724 450.625 7.58594 450.469 7.72656C450.318 7.86719 450.135 7.9375 449.922 7.9375C449.698 7.9375 449.51 7.86719 449.359 7.72656C449.214 7.58594 449.141 7.3724 449.141 7.08594C449.141 6.79427 449.214 6.58073 449.359 6.44531C449.51 6.30469 449.698 6.23438 449.922 6.23438ZM457.359 9.28125C458.375 9.28125 459.143 9.53125 459.664 10.0312C460.185 10.526 460.445 11.3229 460.445 12.4219V18H459.164V12.5078C459.164 11.7943 459 11.2604 458.672 10.9062C458.349 10.5521 457.852 10.375 457.18 10.375C456.232 10.375 455.565 10.6432 455.18 11.1797C454.794 11.7161 454.602 12.4948 454.602 13.5156V18H453.305V9.4375H454.352L454.547 10.6719H454.617C454.799 10.3698 455.031 10.1172 455.312 9.91406C455.594 9.70573 455.909 9.54948 456.258 9.44531C456.607 9.33594 456.974 9.28125 457.359 9.28125ZM466.414 9.28125C467.143 9.28125 467.768 9.44271 468.289 9.76562C468.81 10.0885 469.208 10.5417 469.484 11.125C469.76 11.7031 469.898 12.3802 469.898 13.1562V13.9609H463.984C464 14.9661 464.25 15.7318 464.734 16.2578C465.219 16.7839 465.901 17.0469 466.781 17.0469C467.323 17.0469 467.802 16.9974 468.219 16.8984C468.635 16.7995 469.068 16.6536 469.516 16.4609V17.6016C469.083 17.7943 468.654 17.9349 468.227 18.0234C467.805 18.112 467.305 18.1562 466.727 18.1562C465.904 18.1562 465.185 17.9896 464.57 17.6562C463.961 17.3177 463.487 16.8229 463.148 16.1719C462.81 15.5208 462.641 14.724 462.641 13.7812C462.641 12.8594 462.794 12.0625 463.102 11.3906C463.414 10.7135 463.852 10.1927 464.414 9.82812C464.982 9.46354 465.648 9.28125 466.414 9.28125ZM466.398 10.3438C465.706 10.3438 465.154 10.5703 464.742 11.0234C464.331 11.4766 464.086 12.1094 464.008 12.9219H468.539C468.534 12.4115 468.453 11.9635 468.297 11.5781C468.146 11.1875 467.914 10.8854 467.602 10.6719C467.289 10.4531 466.888 10.3438 466.398 10.3438Z" fill="#185EE7"/>
<path d="M370.646 11.6464C370.451 11.8417 370.451 12.1583 370.646 12.3536L373.828 15.5355C374.024 15.7308 374.34 15.7308 374.536 15.5355C374.731 15.3403 374.731 15.0237 374.536 14.8284L371.707 12L374.536 9.17157C374.731 8.97631 374.731 8.65973 374.536 8.46447C374.34 8.2692 374.024 8.2692 373.828 8.46447L370.646 11.6464ZM387 11.5H371V12.5H387V11.5Z" fill="#185EE7"/>
<path d="M395.414 73.1562C394.331 73.1562 393.471 72.7865 392.836 72.0469C392.206 71.3073 391.891 70.2083 391.891 68.75C391.891 67.276 392.214 66.1641 392.859 65.4141C393.505 64.6589 394.365 64.2812 395.438 64.2812C395.891 64.2812 396.286 64.3411 396.625 64.4609C396.964 64.5807 397.255 64.7422 397.5 64.9453C397.745 65.1432 397.951 65.3698 398.117 65.625H398.211C398.19 65.4635 398.169 65.2422 398.148 64.9609C398.128 64.6797 398.117 64.4505 398.117 64.2734V60.8438H399.414V73H398.367L398.172 71.7812H398.117C397.956 72.0365 397.75 72.2682 397.5 72.4766C397.255 72.6849 396.961 72.8516 396.617 72.9766C396.279 73.0964 395.878 73.1562 395.414 73.1562ZM395.617 72.0781C396.534 72.0781 397.182 71.8177 397.562 71.2969C397.943 70.776 398.133 70.0026 398.133 68.9766V68.7422C398.133 67.6536 397.951 66.8177 397.586 66.2344C397.227 65.651 396.57 65.3594 395.617 65.3594C394.82 65.3594 394.224 65.6667 393.828 66.2812C393.432 66.8906 393.234 67.724 393.234 68.7812C393.234 69.8333 393.43 70.6458 393.82 71.2188C394.216 71.7917 394.815 72.0781 395.617 72.0781ZM405.461 64.2812C406.19 64.2812 406.815 64.4427 407.336 64.7656C407.857 65.0885 408.255 65.5417 408.531 66.125C408.807 66.7031 408.945 67.3802 408.945 68.1562V68.9609H403.031C403.047 69.9661 403.297 70.7318 403.781 71.2578C404.266 71.7839 404.948 72.0469 405.828 72.0469C406.37 72.0469 406.849 71.9974 407.266 71.8984C407.682 71.7995 408.115 71.6536 408.562 71.4609V72.6016C408.13 72.7943 407.701 72.9349 407.273 73.0234C406.852 73.112 406.352 73.1562 405.773 73.1562C404.951 73.1562 404.232 72.9896 403.617 72.6562C403.008 72.3177 402.534 71.8229 402.195 71.1719C401.857 70.5208 401.688 69.724 401.688 68.7812C401.688 67.8594 401.841 67.0625 402.148 66.3906C402.461 65.7135 402.898 65.1927 403.461 64.8281C404.029 64.4635 404.695 64.2812 405.461 64.2812ZM405.445 65.3438C404.753 65.3438 404.201 65.5703 403.789 66.0234C403.378 66.4766 403.133 67.1094 403.055 67.9219H407.586C407.581 67.4115 407.5 66.9635 407.344 66.5781C407.193 66.1875 406.961 65.8854 406.648 65.6719C406.336 65.4531 405.935 65.3438 405.445 65.3438ZM416.688 70.6562C416.688 71.2031 416.549 71.6641 416.273 72.0391C416.003 72.4089 415.612 72.6875 415.102 72.875C414.596 73.0625 413.992 73.1562 413.289 73.1562C412.69 73.1562 412.172 73.1094 411.734 73.0156C411.297 72.9219 410.914 72.7891 410.586 72.6172V71.4219C410.935 71.5938 411.352 71.75 411.836 71.8906C412.32 72.0312 412.815 72.1016 413.32 72.1016C414.06 72.1016 414.596 71.9818 414.93 71.7422C415.263 71.5026 415.43 71.1771 415.43 70.7656C415.43 70.5312 415.362 70.3255 415.227 70.1484C415.096 69.9661 414.875 69.7917 414.562 69.625C414.25 69.4531 413.818 69.2656 413.266 69.0625C412.719 68.8542 412.245 68.6484 411.844 68.4453C411.448 68.237 411.141 67.9844 410.922 67.6875C410.708 67.3906 410.602 67.0052 410.602 66.5312C410.602 65.8073 410.893 65.2526 411.477 64.8672C412.065 64.4766 412.836 64.2812 413.789 64.2812C414.305 64.2812 414.786 64.3333 415.234 64.4375C415.688 64.5365 416.109 64.6719 416.5 64.8438L416.062 65.8828C415.708 65.7318 415.331 65.6042 414.93 65.5C414.529 65.3958 414.12 65.3438 413.703 65.3438C413.104 65.3438 412.643 65.4427 412.32 65.6406C412.003 65.8385 411.844 66.1094 411.844 66.4531C411.844 66.7188 411.917 66.9375 412.062 67.1094C412.214 67.2812 412.453 67.4427 412.781 67.5938C413.109 67.7448 413.542 67.9219 414.078 68.125C414.615 68.3229 415.078 68.5286 415.469 68.7422C415.859 68.9505 416.159 69.2057 416.367 69.5078C416.581 69.8047 416.688 70.1875 416.688 70.6562ZM422.203 73.1562C421.432 73.1562 420.753 72.9974 420.164 72.6797C419.576 72.362 419.117 71.8776 418.789 71.2266C418.461 70.5755 418.297 69.7552 418.297 68.7656C418.297 67.7292 418.469 66.8828 418.812 66.2266C419.161 65.5651 419.641 65.0755 420.25 64.7578C420.859 64.4401 421.552 64.2812 422.328 64.2812C422.755 64.2812 423.167 64.3255 423.562 64.4141C423.964 64.4974 424.292 64.6042 424.547 64.7344L424.156 65.8203C423.896 65.7161 423.594 65.6224 423.25 65.5391C422.911 65.4557 422.594 65.4141 422.297 65.4141C421.703 65.4141 421.208 65.5417 420.812 65.7969C420.422 66.0521 420.128 66.4271 419.93 66.9219C419.737 67.4167 419.641 68.026 419.641 68.75C419.641 69.4427 419.734 70.0339 419.922 70.5234C420.115 71.013 420.398 71.388 420.773 71.6484C421.154 71.9036 421.628 72.0312 422.195 72.0312C422.648 72.0312 423.057 71.9844 423.422 71.8906C423.786 71.7917 424.117 71.6771 424.414 71.5469V72.7031C424.128 72.849 423.807 72.9609 423.453 73.0391C423.104 73.1172 422.688 73.1562 422.203 73.1562ZM429.742 64.2812C430.471 64.2812 431.096 64.4427 431.617 64.7656C432.138 65.0885 432.536 65.5417 432.812 66.125C433.089 66.7031 433.227 67.3802 433.227 68.1562V68.9609H427.312C427.328 69.9661 427.578 70.7318 428.062 71.2578C428.547 71.7839 429.229 72.0469 430.109 72.0469C430.651 72.0469 431.13 71.9974 431.547 71.8984C431.964 71.7995 432.396 71.6536 432.844 71.4609V72.6016C432.411 72.7943 431.982 72.9349 431.555 73.0234C431.133 73.112 430.633 73.1562 430.055 73.1562C429.232 73.1562 428.513 72.9896 427.898 72.6562C427.289 72.3177 426.815 71.8229 426.477 71.1719C426.138 70.5208 425.969 69.724 425.969 68.7812C425.969 67.8594 426.122 67.0625 426.43 66.3906C426.742 65.7135 427.18 65.1927 427.742 64.8281C428.31 64.4635 428.977 64.2812 429.742 64.2812ZM429.727 65.3438C429.034 65.3438 428.482 65.5703 428.07 66.0234C427.659 66.4766 427.414 67.1094 427.336 67.9219H431.867C431.862 67.4115 431.781 66.9635 431.625 66.5781C431.474 66.1875 431.242 65.8854 430.93 65.6719C430.617 65.4531 430.216 65.3438 429.727 65.3438ZM439.484 64.2812C440.5 64.2812 441.268 64.5312 441.789 65.0312C442.31 65.526 442.57 66.3229 442.57 67.4219V73H441.289V67.5078C441.289 66.7943 441.125 66.2604 440.797 65.9062C440.474 65.5521 439.977 65.375 439.305 65.375C438.357 65.375 437.69 65.6432 437.305 66.1797C436.919 66.7161 436.727 67.4948 436.727 68.5156V73H435.43V64.4375H436.477L436.672 65.6719H436.742C436.924 65.3698 437.156 65.1172 437.438 64.9141C437.719 64.7057 438.034 64.5495 438.383 64.4453C438.732 64.3359 439.099 64.2812 439.484 64.2812ZM448.008 72.0938C448.221 72.0938 448.44 72.0755 448.664 72.0391C448.888 72.0026 449.07 71.9583 449.211 71.9062V72.9141C449.06 72.9818 448.849 73.0391 448.578 73.0859C448.312 73.1328 448.052 73.1562 447.797 73.1562C447.344 73.1562 446.932 73.0781 446.562 72.9219C446.193 72.7604 445.896 72.4896 445.672 72.1094C445.453 71.7292 445.344 71.2031 445.344 70.5312V65.4531H444.125V64.8203L445.352 64.3125L445.867 62.4531H446.648V64.4375H449.156V65.4531H446.648V70.4922C446.648 71.0286 446.771 71.4297 447.016 71.6953C447.266 71.9609 447.596 72.0938 448.008 72.0938ZM456.406 73H455.102V60.8438H456.406V73ZM460.445 64.4375V73H459.148V64.4375H460.445ZM459.812 61.2344C460.026 61.2344 460.208 61.3047 460.359 61.4453C460.516 61.5807 460.594 61.7943 460.594 62.0859C460.594 62.3724 460.516 62.5859 460.359 62.7266C460.208 62.8672 460.026 62.9375 459.812 62.9375C459.589 62.9375 459.401 62.8672 459.25 62.7266C459.104 62.5859 459.031 62.3724 459.031 62.0859C459.031 61.7943 459.104 61.5807 459.25 61.4453C459.401 61.3047 459.589 61.2344 459.812 61.2344ZM467.25 64.2812C468.266 64.2812 469.034 64.5312 469.555 65.0312C470.076 65.526 470.336 66.3229 470.336 67.4219V73H469.055V67.5078C469.055 66.7943 468.891 66.2604 468.562 65.9062C468.24 65.5521 467.742 65.375 467.07 65.375C466.122 65.375 465.456 65.6432 465.07 66.1797C464.685 66.7161 464.492 67.4948 464.492 68.5156V73H463.195V64.4375H464.242L464.438 65.6719H464.508C464.69 65.3698 464.922 65.1172 465.203 64.9141C465.484 64.7057 465.799 64.5495 466.148 64.4453C466.497 64.3359 466.865 64.2812 467.25 64.2812ZM476.305 64.2812C477.034 64.2812 477.659 64.4427 478.18 64.7656C478.701 65.0885 479.099 65.5417 479.375 66.125C479.651 66.7031 479.789 67.3802 479.789 68.1562V68.9609H473.875C473.891 69.9661 474.141 70.7318 474.625 71.2578C475.109 71.7839 475.792 72.0469 476.672 72.0469C477.214 72.0469 477.693 71.9974 478.109 71.8984C478.526 71.7995 478.958 71.6536 479.406 71.4609V72.6016C478.974 72.7943 478.544 72.9349 478.117 73.0234C477.695 73.112 477.195 73.1562 476.617 73.1562C475.794 73.1562 475.076 72.9896 474.461 72.6562C473.852 72.3177 473.378 71.8229 473.039 71.1719C472.701 70.5208 472.531 69.724 472.531 68.7812C472.531 67.8594 472.685 67.0625 472.992 66.3906C473.305 65.7135 473.742 65.1927 474.305 64.8281C474.872 64.4635 475.539 64.2812 476.305 64.2812ZM476.289 65.3438C475.596 65.3438 475.044 65.5703 474.633 66.0234C474.221 66.4766 473.977 67.1094 473.898 67.9219H478.43C478.424 67.4115 478.344 66.9635 478.188 66.5781C478.036 66.1875 477.805 65.8854 477.492 65.6719C477.18 65.4531 476.779 65.3438 476.289 65.3438Z" fill="#185EE7"/>
<path d="M370.646 66.6464C370.451 66.8417 370.451 67.1583 370.646 67.3536L373.828 70.5355C374.024 70.7308 374.34 70.7308 374.536 70.5355C374.731 70.3403 374.731 70.0237 374.536 69.8284L371.707 67L374.536 64.1716C374.731 63.9763 374.731 63.6597 374.536 63.4645C374.34 63.2692 374.024 63.2692 373.828 63.4645L370.646 66.6464ZM387 66.5H371V67.5H387V66.5Z" fill="#185EE7"/>
</svg>
