<svg width="538" height="101" viewBox="0 0 538 101" fill="none" xmlns="http://www.w3.org/2000/svg">
<path d="M101.344 24.68H136.4V37.28H132.816L131.024 28.88H122.512V60.408L128.448 61.752V65H109.296V61.752L115.232 60.408V28.88H106.664L104.928 37.28H101.344V24.68ZM167.632 38.96L158.616 63.656C157.384 66.5307 156.264 68.8453 155.256 70.6C154.248 72.392 153.128 73.68 151.896 74.464C150.701 75.248 149.133 75.64 147.192 75.64C145.437 75.64 143.925 75.1733 142.656 74.24C141.424 73.3067 140.808 72.1307 140.808 70.712C140.808 69.4053 141.181 68.3227 141.928 67.464C142.712 66.6427 143.72 66.232 144.952 66.232C146.034 66.232 146.856 66.4747 147.416 66.96C148.013 67.4453 148.312 68.1733 148.312 69.144C148.312 69.5173 148.106 70.0213 147.696 70.656C147.322 71.328 146.669 71.664 145.736 71.664C145.81 72.0373 146.034 72.28 146.408 72.392C146.781 72.5413 147.098 72.616 147.36 72.616C147.882 72.616 148.368 72.504 148.816 72.28C149.264 72.0933 149.73 71.6267 150.216 70.88C150.738 70.1333 151.298 68.9947 151.896 67.464L152.568 65.392L141.312 38.96L137.952 37.896V34.76H152.176L152.624 37.896L148.648 38.96L155.536 58.392H155.76L161.976 38.96L158.728 37.896V34.76H171.048V37.896L167.632 38.96ZM184.074 70.88L189.506 71.944V75.08H172.65V71.944L176.962 70.88V38.96L172.65 37.896V34.76H182.394L183.234 39.072C184.429 37.2053 185.773 35.936 187.266 35.264C188.797 34.5547 190.514 34.2 192.418 34.2C194.322 34.2 196.039 34.48 197.57 35.04C199.138 35.6 200.407 36.496 201.378 37.728C202.498 39.1467 203.375 40.864 204.01 42.88C204.682 44.8587 205.018 47.0053 205.018 49.32C205.018 51.7093 204.645 53.968 203.898 56.096C203.189 58.1867 202.218 59.9413 200.986 61.36C198.895 63.7867 195.89 65 191.97 65C190.365 65 188.909 64.7013 187.602 64.104C186.333 63.4693 185.157 62.3867 184.074 60.856V70.88ZM184.018 49.32C184.018 51.3733 184.186 53.1467 184.522 54.64C184.858 56.1333 185.306 57.3467 185.866 58.28C186.426 59.2133 187.135 59.9413 187.994 60.464C188.89 60.9867 189.917 61.248 191.074 61.248C192.231 61.248 193.165 61.0053 193.874 60.52C194.621 60.0347 195.218 59.4 195.666 58.616C196.226 57.6453 196.655 56.3947 196.954 54.864C197.29 53.3333 197.458 51.672 197.458 49.88C197.458 48.0133 197.29 46.2587 196.954 44.616C196.618 42.936 196.17 41.592 195.61 40.584C195.05 39.6133 194.359 38.9413 193.538 38.568C192.717 38.1947 191.783 38.008 190.738 38.008C189.581 38.008 188.61 38.2133 187.826 38.624C187.042 39.0347 186.37 39.688 185.81 40.584C185.287 41.4427 184.858 42.6 184.522 44.056C184.186 45.512 184.018 47.2667 184.018 49.32ZM238.325 49.88C238.325 52.2693 237.97 54.528 237.261 56.656C236.589 58.7467 235.599 60.5013 234.293 61.92C233.061 63.2267 231.567 64.16 229.813 64.72C228.095 65.28 226.079 65.56 223.765 65.56C221.45 65.56 219.415 65.28 217.661 64.72C215.943 64.16 214.469 63.2267 213.237 61.92C211.93 60.5013 210.922 58.7467 210.213 56.656C209.541 54.528 209.205 52.2693 209.205 49.88C209.205 47.4907 209.541 45.232 210.213 43.104C210.922 40.976 211.93 39.2213 213.237 37.84C214.469 36.5333 215.943 35.6 217.661 35.04C219.415 34.48 221.45 34.2 223.765 34.2C226.079 34.2 228.095 34.48 229.813 35.04C231.567 35.6 233.061 36.5333 234.293 37.84C235.599 39.2213 236.589 40.976 237.261 43.104C237.97 45.232 238.325 47.4907 238.325 49.88ZM218.669 59.568C219.191 60.3147 219.863 60.8747 220.685 61.248C221.543 61.6213 222.57 61.808 223.765 61.808C224.959 61.808 225.986 61.6213 226.845 61.248C227.703 60.8747 228.375 60.3147 228.861 59.568C230.055 57.7387 230.653 54.5093 230.653 49.88C230.653 47.528 230.503 45.5493 230.205 43.944C229.906 42.3387 229.458 41.088 228.861 40.192C228.375 39.4453 227.703 38.8853 226.845 38.512C225.986 38.1387 224.959 37.952 223.765 37.952C222.57 37.952 221.543 38.1387 220.685 38.512C219.863 38.8853 219.191 39.4453 218.669 40.192C217.474 42.0213 216.877 45.2507 216.877 49.88C216.877 54.5093 217.474 57.7387 218.669 59.568ZM269.951 65.336C269.951 68.7707 268.719 71.2907 266.255 72.896C263.791 74.5013 259.871 75.304 254.495 75.304C252.105 75.304 249.921 75.08 247.943 74.632C246.001 74.184 244.452 73.4373 243.295 72.392C242.137 71.384 241.559 70.0027 241.559 68.248C241.559 66.5307 242.1 65.1493 243.183 64.104C244.265 63.0587 245.871 62.4987 247.999 62.424V62.2C245.161 61.416 243.743 59.9973 243.743 57.944C243.743 57.1973 243.929 56.4133 244.303 55.592C244.676 54.7707 245.292 54.0427 246.151 53.408C247.009 52.7733 248.129 52.3627 249.511 52.176C247.532 51.6907 245.983 50.7013 244.863 49.208C243.743 47.6773 243.183 45.8853 243.183 43.832C243.183 40.8453 244.191 38.4933 246.207 36.776C248.223 35.0587 251.116 34.2 254.887 34.2C257.388 34.2 259.348 34.424 260.767 34.872C262.185 35.2827 263.436 35.9173 264.519 36.776L266.423 36.104L271.575 33.64H272.527V39.408H271.575L267.655 38.96H266.255C267.001 40.1173 267.375 41.6293 267.375 43.496C267.375 46.5573 266.423 48.984 264.519 50.776C262.615 52.5307 259.871 53.408 256.287 53.408C255.913 53.408 255.54 53.408 255.167 53.408C254.793 53.3707 254.42 53.3333 254.047 53.296C252.591 53.4827 251.415 53.8187 250.519 54.304C249.66 54.752 249.231 55.4053 249.231 56.264C249.231 56.936 249.585 57.4027 250.295 57.664C251.004 57.888 252.292 58 254.159 58H260.655C263.716 58 266.031 58.616 267.599 59.848C269.167 61.0427 269.951 62.872 269.951 65.336ZM256.511 63.152H254.551C252.049 63.152 250.239 63.544 249.119 64.328C247.999 65.112 247.439 66.1387 247.439 67.408C247.439 70.2453 250.108 71.664 255.447 71.664C258.321 71.664 260.505 71.2347 261.999 70.376C263.492 69.5547 264.239 68.3413 264.239 66.736C264.239 65.4293 263.66 64.5147 262.503 63.992C261.345 63.432 259.348 63.152 256.511 63.152ZM249.791 43.608C249.791 45.6987 250.239 47.304 251.135 48.424C252.068 49.5067 253.356 50.048 254.999 50.048C256.977 50.048 258.433 49.5067 259.367 48.424C260.3 47.304 260.767 45.6987 260.767 43.608C260.767 41.6293 260.3 40.136 259.367 39.128C258.433 38.12 256.977 37.616 254.999 37.616C253.319 37.616 252.031 38.12 251.135 39.128C250.239 40.136 249.791 41.6293 249.791 43.608ZM291.074 38.848C290.663 38.848 290.196 39.1093 289.674 39.632C289.151 40.1173 288.666 40.696 288.218 41.368C287.807 42.04 287.508 42.6373 287.322 43.16C286.874 44.4293 286.482 45.736 286.146 47.08C285.81 48.424 285.642 50.0667 285.642 52.008V60.8L291.69 61.864V65H274.218V61.864L278.53 60.8V38.12L274.218 37.056V34.76H283.962L285.194 42.152H285.418C286.276 39.6133 287.434 37.6533 288.89 36.272C290.346 34.8907 291.951 34.2 293.706 34.2C295.162 34.2 296.375 34.6667 297.346 35.6C298.316 36.496 298.802 37.7093 298.802 39.24C298.802 40.36 298.466 41.3867 297.794 42.32C297.122 43.216 296.17 43.664 294.938 43.664C293.444 43.664 292.38 43.328 291.746 42.656C291.111 41.9467 290.794 41.1813 290.794 40.36C290.794 40.0987 290.794 39.912 290.794 39.8C290.831 39.6507 290.924 39.3333 291.074 38.848ZM300.797 58.392C300.797 55.2933 302.216 52.904 305.053 51.224C307.891 49.5067 312.352 48.1813 318.437 47.248C318.288 45.3813 318.083 43.944 317.821 42.936C317.56 41.928 317.224 41.0693 316.813 40.36C316.328 39.5013 315.731 38.8107 315.021 38.288C314.312 37.7653 313.416 37.504 312.333 37.504C311.549 37.504 310.821 37.6533 310.149 37.952C309.515 38.2507 309.085 38.6613 308.861 39.184C309.384 39.4453 309.739 39.856 309.925 40.416C310.149 40.976 310.261 41.4613 310.261 41.872C310.261 42.8053 309.851 43.6453 309.029 44.392C308.208 45.1013 307.219 45.456 306.061 45.456C304.904 45.456 303.989 45.0827 303.317 44.336C302.645 43.552 302.309 42.5813 302.309 41.424C302.309 39.8933 302.851 38.5867 303.933 37.504C305.016 36.4213 306.397 35.6 308.077 35.04C309.757 34.48 311.456 34.2 313.173 34.2C314.928 34.2 316.496 34.4613 317.877 34.984C319.296 35.4693 320.435 36.0853 321.293 36.832C324.243 39.4453 325.717 43.5893 325.717 49.264V56.544C325.717 58.3733 325.829 59.6427 326.053 60.352C326.315 61.0613 326.856 61.416 327.677 61.416H330.197V63.936C326.763 65.0187 324.168 65.56 322.413 65.56C321.181 65.56 320.36 65.1493 319.949 64.328C319.539 63.5067 319.333 61.8827 319.333 59.456H319.109C317.952 61.36 316.421 62.8533 314.517 63.936C312.613 65.0187 310.56 65.56 308.357 65.56C306.005 65.56 304.157 64.9253 302.813 63.656C301.469 62.3867 300.797 60.632 300.797 58.392ZM311.773 61.472C312.557 61.472 313.416 61.2107 314.349 60.688C315.32 60.1653 316.16 59.4373 316.869 58.504C317.28 57.9813 317.672 57.2347 318.045 56.264C318.419 55.2933 318.605 54.136 318.605 52.792C318.605 52.344 318.587 51.84 318.549 51.28C318.512 50.72 318.456 50.1973 318.381 49.712C315.805 50.272 313.771 50.8693 312.277 51.504C310.821 52.1387 309.776 52.904 309.141 53.8C308.544 54.6587 308.245 55.7227 308.245 56.992C308.245 58.5973 308.619 59.7547 309.365 60.464C310.112 61.136 310.915 61.472 311.773 61.472ZM342.34 70.88L347.772 71.944V75.08H330.916V71.944L335.228 70.88V38.96L330.916 37.896V34.76H340.66L341.5 39.072C342.694 37.2053 344.038 35.936 345.532 35.264C347.062 34.5547 348.78 34.2 350.684 34.2C352.588 34.2 354.305 34.48 355.836 35.04C357.404 35.6 358.673 36.496 359.644 37.728C360.764 39.1467 361.641 40.864 362.276 42.88C362.948 44.8587 363.284 47.0053 363.284 49.32C363.284 51.7093 362.91 53.968 362.164 56.096C361.454 58.1867 360.484 59.9413 359.252 61.36C357.161 63.7867 354.156 65 350.236 65C348.63 65 347.174 64.7013 345.868 64.104C344.598 63.4693 343.422 62.3867 342.34 60.856V70.88ZM342.284 49.32C342.284 51.3733 342.452 53.1467 342.788 54.64C343.124 56.1333 343.572 57.3467 344.132 58.28C344.692 59.2133 345.401 59.9413 346.26 60.464C347.156 60.9867 348.182 61.248 349.34 61.248C350.497 61.248 351.43 61.0053 352.14 60.52C352.886 60.0347 353.484 59.4 353.932 58.616C354.492 57.6453 354.921 56.3947 355.22 54.864C355.556 53.3333 355.724 51.672 355.724 49.88C355.724 48.0133 355.556 46.2587 355.22 44.616C354.884 42.936 354.436 41.592 353.876 40.584C353.316 39.6133 352.625 38.9413 351.804 38.568C350.982 38.1947 350.049 38.008 349.004 38.008C347.846 38.008 346.876 38.2133 346.092 38.624C345.308 39.0347 344.636 39.688 344.076 40.584C343.553 41.4427 343.124 42.6 342.788 44.056C342.452 45.512 342.284 47.2667 342.284 49.32ZM390.15 60.8V49.992C390.15 47.5653 390.076 45.7733 389.926 44.616C389.814 43.4213 389.59 42.4693 389.254 41.76C388.358 39.9307 386.716 39.016 384.326 39.016C383.281 39.016 382.273 39.2773 381.302 39.8C380.332 40.3227 379.566 41.0693 379.006 42.04C378.708 42.5253 378.446 43.216 378.222 44.112C377.998 44.9707 377.886 46.0347 377.886 47.304V60.8L381.638 61.864V65H366.462V61.864L370.774 60.8V25.52L366.462 24.456V21.32H377.886V40.024C378.857 38.232 380.126 36.8133 381.694 35.768C383.3 34.7227 385.054 34.2 386.958 34.2C388.564 34.2 389.908 34.4053 390.99 34.816C392.11 35.1893 393.081 35.8053 393.902 36.664C395.06 37.8587 395.9 39.464 396.422 41.48C396.982 43.4587 397.262 46.0533 397.262 49.264V60.8L401.574 61.864V65H386.398V61.864L390.15 60.8ZM431.882 38.96L422.866 63.656C421.634 66.5307 420.514 68.8453 419.506 70.6C418.498 72.392 417.378 73.68 416.146 74.464C414.951 75.248 413.383 75.64 411.442 75.64C409.687 75.64 408.175 75.1733 406.906 74.24C405.674 73.3067 405.058 72.1307 405.058 70.712C405.058 69.4053 405.431 68.3227 406.178 67.464C406.962 66.6427 407.97 66.232 409.202 66.232C410.284 66.232 411.106 66.4747 411.666 66.96C412.263 67.4453 412.562 68.1733 412.562 69.144C412.562 69.5173 412.356 70.0213 411.946 70.656C411.572 71.328 410.919 71.664 409.986 71.664C410.06 72.0373 410.284 72.28 410.658 72.392C411.031 72.5413 411.348 72.616 411.61 72.616C412.132 72.616 412.618 72.504 413.066 72.28C413.514 72.0933 413.98 71.6267 414.466 70.88C414.988 70.1333 415.548 68.9947 416.146 67.464L416.818 65.392L405.562 38.96L402.202 37.896V34.76H416.426L416.874 37.896L412.898 38.96L419.786 58.392H420.01L426.226 38.96L422.978 37.896V34.76H435.298V37.896L431.882 38.96Z" fill="#726F68"/>
<rect x="84" y="64" width="367" height="2" fill="#185EE7" fill-opacity="0.75"/>
<rect x="88" y="38" width="359" height="26" fill="#185EE7" fill-opacity="0.2"/>
<rect x="84" y="36" width="367" height="2" fill="#185EE7" fill-opacity="0.75"/>
<path d="M477.664 58.8438V61.8828C477.664 62.2318 477.654 62.5703 477.633 62.8984C477.617 63.2266 477.604 63.4818 477.594 63.6641H477.664C477.898 63.2786 478.237 62.9531 478.68 62.6875C479.122 62.4219 479.688 62.2891 480.375 62.2891C481.448 62.2891 482.302 62.6615 482.938 63.4062C483.578 64.1458 483.898 65.2474 483.898 66.7109C483.898 67.6745 483.753 68.487 483.461 69.1484C483.169 69.8099 482.758 70.3099 482.227 70.6484C481.695 70.987 481.068 71.1562 480.344 71.1562C479.667 71.1562 479.109 71.0312 478.672 70.7812C478.24 70.526 477.906 70.2161 477.672 69.8516H477.57L477.305 71H476.367V58.8438H477.664ZM480.164 63.375C479.544 63.375 479.052 63.4974 478.688 63.7422C478.323 63.9818 478.06 64.3464 477.898 64.8359C477.742 65.3203 477.664 65.9349 477.664 66.6797V66.75C477.664 67.8281 477.844 68.6536 478.203 69.2266C478.562 69.7943 479.216 70.0781 480.164 70.0781C480.961 70.0781 481.557 69.7865 481.953 69.2031C482.354 68.6198 482.555 67.7865 482.555 66.7031C482.555 65.599 482.357 64.7682 481.961 64.2109C481.57 63.6536 480.971 63.375 480.164 63.375ZM489.367 62.2969C490.388 62.2969 491.146 62.526 491.641 62.9844C492.135 63.4427 492.383 64.1745 492.383 65.1797V71H491.438L491.188 69.7344H491.125C490.885 70.0469 490.635 70.3099 490.375 70.5234C490.115 70.7318 489.812 70.8906 489.469 71C489.13 71.1042 488.714 71.1562 488.219 71.1562C487.698 71.1562 487.234 71.0651 486.828 70.8828C486.427 70.7005 486.109 70.4245 485.875 70.0547C485.646 69.6849 485.531 69.2161 485.531 68.6484C485.531 67.7943 485.87 67.138 486.547 66.6797C487.224 66.2214 488.255 65.9714 489.641 65.9297L491.117 65.8672V65.3438C491.117 64.6042 490.958 64.0859 490.641 63.7891C490.323 63.4922 489.875 63.3438 489.297 63.3438C488.849 63.3438 488.422 63.4089 488.016 63.5391C487.609 63.6693 487.224 63.8229 486.859 64L486.461 63.0156C486.846 62.8177 487.289 62.6484 487.789 62.5078C488.289 62.3672 488.815 62.2969 489.367 62.2969ZM491.102 66.7812L489.797 66.8359C488.729 66.8776 487.977 67.0521 487.539 67.3594C487.102 67.6667 486.883 68.1016 486.883 68.6641C486.883 69.1536 487.031 69.5156 487.328 69.75C487.625 69.9844 488.018 70.1016 488.508 70.1016C489.268 70.1016 489.891 69.8906 490.375 69.4688C490.859 69.0469 491.102 68.4141 491.102 67.5703V66.7812ZM500.594 68.6562C500.594 69.2031 500.456 69.6641 500.18 70.0391C499.909 70.4089 499.518 70.6875 499.008 70.875C498.503 71.0625 497.898 71.1562 497.195 71.1562C496.596 71.1562 496.078 71.1094 495.641 71.0156C495.203 70.9219 494.82 70.7891 494.492 70.6172V69.4219C494.841 69.5938 495.258 69.75 495.742 69.8906C496.227 70.0312 496.721 70.1016 497.227 70.1016C497.966 70.1016 498.503 69.9818 498.836 69.7422C499.169 69.5026 499.336 69.1771 499.336 68.7656C499.336 68.5312 499.268 68.3255 499.133 68.1484C499.003 67.9661 498.781 67.7917 498.469 67.625C498.156 67.4531 497.724 67.2656 497.172 67.0625C496.625 66.8542 496.151 66.6484 495.75 66.4453C495.354 66.237 495.047 65.9844 494.828 65.6875C494.615 65.3906 494.508 65.0052 494.508 64.5312C494.508 63.8073 494.799 63.2526 495.383 62.8672C495.971 62.4766 496.742 62.2812 497.695 62.2812C498.211 62.2812 498.693 62.3333 499.141 62.4375C499.594 62.5365 500.016 62.6719 500.406 62.8438L499.969 63.8828C499.615 63.7318 499.237 63.6042 498.836 63.5C498.435 63.3958 498.026 63.3438 497.609 63.3438C497.01 63.3438 496.549 63.4427 496.227 63.6406C495.909 63.8385 495.75 64.1094 495.75 64.4531C495.75 64.7188 495.823 64.9375 495.969 65.1094C496.12 65.2812 496.359 65.4427 496.688 65.5938C497.016 65.7448 497.448 65.9219 497.984 66.125C498.521 66.3229 498.984 66.5286 499.375 66.7422C499.766 66.9505 500.065 67.2057 500.273 67.5078C500.487 67.8047 500.594 68.1875 500.594 68.6562ZM505.977 62.2812C506.706 62.2812 507.331 62.4427 507.852 62.7656C508.372 63.0885 508.771 63.5417 509.047 64.125C509.323 64.7031 509.461 65.3802 509.461 66.1562V66.9609H503.547C503.562 67.9661 503.812 68.7318 504.297 69.2578C504.781 69.7839 505.464 70.0469 506.344 70.0469C506.885 70.0469 507.365 69.9974 507.781 69.8984C508.198 69.7995 508.63 69.6536 509.078 69.4609V70.6016C508.646 70.7943 508.216 70.9349 507.789 71.0234C507.367 71.112 506.867 71.1562 506.289 71.1562C505.466 71.1562 504.747 70.9896 504.133 70.6562C503.523 70.3177 503.049 69.8229 502.711 69.1719C502.372 68.5208 502.203 67.724 502.203 66.7812C502.203 65.8594 502.357 65.0625 502.664 64.3906C502.977 63.7135 503.414 63.1927 503.977 62.8281C504.544 62.4635 505.211 62.2812 505.977 62.2812ZM505.961 63.3438C505.268 63.3438 504.716 63.5703 504.305 64.0234C503.893 64.4766 503.648 65.1094 503.57 65.9219H508.102C508.096 65.4115 508.016 64.9635 507.859 64.5781C507.708 64.1875 507.477 63.8854 507.164 63.6719C506.852 63.4531 506.451 63.3438 505.961 63.3438ZM512.969 71H511.664V58.8438H512.969V71ZM517.008 62.4375V71H515.711V62.4375H517.008ZM516.375 59.2344C516.589 59.2344 516.771 59.3047 516.922 59.4453C517.078 59.5807 517.156 59.7943 517.156 60.0859C517.156 60.3724 517.078 60.5859 516.922 60.7266C516.771 60.8672 516.589 60.9375 516.375 60.9375C516.151 60.9375 515.964 60.8672 515.812 60.7266C515.667 60.5859 515.594 60.3724 515.594 60.0859C515.594 59.7943 515.667 59.5807 515.812 59.4453C515.964 59.3047 516.151 59.2344 516.375 59.2344ZM523.812 62.2812C524.828 62.2812 525.596 62.5312 526.117 63.0312C526.638 63.526 526.898 64.3229 526.898 65.4219V71H525.617V65.5078C525.617 64.7943 525.453 64.2604 525.125 63.9062C524.802 63.5521 524.305 63.375 523.633 63.375C522.685 63.375 522.018 63.6432 521.633 64.1797C521.247 64.7161 521.055 65.4948 521.055 66.5156V71H519.758V62.4375H520.805L521 63.6719H521.07C521.253 63.3698 521.484 63.1172 521.766 62.9141C522.047 62.7057 522.362 62.5495 522.711 62.4453C523.06 62.3359 523.427 62.2812 523.812 62.2812ZM532.867 62.2812C533.596 62.2812 534.221 62.4427 534.742 62.7656C535.263 63.0885 535.661 63.5417 535.938 64.125C536.214 64.7031 536.352 65.3802 536.352 66.1562V66.9609H530.438C530.453 67.9661 530.703 68.7318 531.188 69.2578C531.672 69.7839 532.354 70.0469 533.234 70.0469C533.776 70.0469 534.255 69.9974 534.672 69.8984C535.089 69.7995 535.521 69.6536 535.969 69.4609V70.6016C535.536 70.7943 535.107 70.9349 534.68 71.0234C534.258 71.112 533.758 71.1562 533.18 71.1562C532.357 71.1562 531.638 70.9896 531.023 70.6562C530.414 70.3177 529.94 69.8229 529.602 69.1719C529.263 68.5208 529.094 67.724 529.094 66.7812C529.094 65.8594 529.247 65.0625 529.555 64.3906C529.867 63.7135 530.305 63.1927 530.867 62.8281C531.435 62.4635 532.102 62.2812 532.867 62.2812ZM532.852 63.3438C532.159 63.3438 531.607 63.5703 531.195 64.0234C530.784 64.4766 530.539 65.1094 530.461 65.9219H534.992C534.987 65.4115 534.906 64.9635 534.75 64.5781C534.599 64.1875 534.367 63.8854 534.055 63.6719C533.742 63.4531 533.341 63.3438 532.852 63.3438Z" fill="#185EE7"/>
<path d="M427.867 95H421.625V94.1406L426.32 87.4531H421.922V86.4375H427.766V87.3984L423.133 93.9922H427.867V95ZM433.922 86.2812C434.938 86.2812 435.706 86.5312 436.227 87.0312C436.747 87.526 437.008 88.3229 437.008 89.4219V95H435.727V89.5078C435.727 88.7943 435.562 88.2604 435.234 87.9062C434.911 87.5521 434.414 87.375 433.742 87.375C432.794 87.375 432.128 87.6432 431.742 88.1797C431.357 88.7161 431.164 89.4948 431.164 90.5156V95H429.867V86.4375H430.914L431.109 87.6719H431.18C431.362 87.3698 431.594 87.1172 431.875 86.9141C432.156 86.7057 432.471 86.5495 432.82 86.4453C433.169 86.3359 433.536 86.2812 433.922 86.2812ZM442.883 86.2969C443.904 86.2969 444.661 86.526 445.156 86.9844C445.651 87.4427 445.898 88.1745 445.898 89.1797V95H444.953L444.703 93.7344H444.641C444.401 94.0469 444.151 94.3099 443.891 94.5234C443.63 94.7318 443.328 94.8906 442.984 95C442.646 95.1042 442.229 95.1562 441.734 95.1562C441.214 95.1562 440.75 95.0651 440.344 94.8828C439.943 94.7005 439.625 94.4245 439.391 94.0547C439.161 93.6849 439.047 93.2161 439.047 92.6484C439.047 91.7943 439.385 91.138 440.062 90.6797C440.74 90.2214 441.771 89.9714 443.156 89.9297L444.633 89.8672V89.3438C444.633 88.6042 444.474 88.0859 444.156 87.7891C443.839 87.4922 443.391 87.3438 442.812 87.3438C442.365 87.3438 441.938 87.4089 441.531 87.5391C441.125 87.6693 440.74 87.8229 440.375 88L439.977 87.0156C440.362 86.8177 440.805 86.6484 441.305 86.5078C441.805 86.3672 442.331 86.2969 442.883 86.2969ZM444.617 90.7812L443.312 90.8359C442.245 90.8776 441.492 91.0521 441.055 91.3594C440.617 91.6667 440.398 92.1016 440.398 92.6641C440.398 93.1536 440.547 93.5156 440.844 93.75C441.141 93.9844 441.534 94.1016 442.023 94.1016C442.784 94.1016 443.406 93.8906 443.891 93.4688C444.375 93.0469 444.617 92.4141 444.617 91.5703V90.7812ZM449.859 82.8438V89.1562C449.859 89.3646 449.852 89.6198 449.836 89.9219C449.82 90.2188 449.807 90.4818 449.797 90.7109H449.852C449.961 90.5755 450.12 90.375 450.328 90.1094C450.542 89.8438 450.721 89.6302 450.867 89.4688L453.711 86.4375H455.234L451.789 90.0938L455.484 95H453.922L450.898 90.9453L449.859 91.8984V95H448.57V82.8438H449.859Z" fill="#185EE7"/>
<path d="M9.1875 57H7.67969L4.59375 51.9688L1.46094 57H0.046875L3.85156 51.0469L0.3125 45.5781H1.78906L4.64062 50.1328L7.50781 45.5781H8.91406L5.38281 51.0234L9.1875 57ZM9.89062 53.2812V52.125H13.7656V53.2812H9.89062ZM24.625 57H23.2969V51.6172H17.2969V57H15.9688V45.5781H17.2969V50.4453H23.2969V45.5781H24.625V57ZM30.8672 48.2812C31.5964 48.2812 32.2214 48.4427 32.7422 48.7656C33.263 49.0885 33.6615 49.5417 33.9375 50.125C34.2135 50.7031 34.3516 51.3802 34.3516 52.1562V52.9609H28.4375C28.4531 53.9661 28.7031 54.7318 29.1875 55.2578C29.6719 55.7839 30.3542 56.0469 31.2344 56.0469C31.776 56.0469 32.2552 55.9974 32.6719 55.8984C33.0885 55.7995 33.5208 55.6536 33.9688 55.4609V56.6016C33.5365 56.7943 33.1068 56.9349 32.6797 57.0234C32.2578 57.112 31.7578 57.1562 31.1797 57.1562C30.3568 57.1562 29.638 56.9896 29.0234 56.6562C28.4141 56.3177 27.9401 55.8229 27.6016 55.1719C27.263 54.5208 27.0938 53.724 27.0938 52.7812C27.0938 51.8594 27.2474 51.0625 27.5547 50.3906C27.8672 49.7135 28.3047 49.1927 28.8672 48.8281C29.4349 48.4635 30.1016 48.2812 30.8672 48.2812ZM30.8516 49.3438C30.1589 49.3438 29.6068 49.5703 29.1953 50.0234C28.7839 50.4766 28.5391 51.1094 28.4609 51.9219H32.9922C32.987 51.4115 32.9062 50.9635 32.75 50.5781C32.599 50.1875 32.3672 49.8854 32.0547 49.6719C31.7422 49.4531 31.3411 49.3438 30.8516 49.3438ZM37.8516 48.4375V57H36.5547V48.4375H37.8516ZM37.2188 45.2344C37.4323 45.2344 37.6146 45.3047 37.7656 45.4453C37.9219 45.5807 38 45.7943 38 46.0859C38 46.3724 37.9219 46.5859 37.7656 46.7266C37.6146 46.8672 37.4323 46.9375 37.2188 46.9375C36.9948 46.9375 36.8073 46.8672 36.6562 46.7266C36.5104 46.5859 36.4375 46.3724 36.4375 46.0859C36.4375 45.7943 36.5104 45.5807 36.6562 45.4453C36.8073 45.3047 36.9948 45.2344 37.2188 45.2344ZM42.9922 60.8438C41.8672 60.8438 41 60.6328 40.3906 60.2109C39.7812 59.7943 39.4766 59.2083 39.4766 58.4531C39.4766 57.9167 39.6458 57.4583 39.9844 57.0781C40.3281 56.6979 40.8021 56.4453 41.4062 56.3203C41.1823 56.2161 40.9896 56.0599 40.8281 55.8516C40.6719 55.6432 40.5938 55.4036 40.5938 55.1328C40.5938 54.8203 40.6797 54.5469 40.8516 54.3125C41.0286 54.0729 41.2969 53.8438 41.6562 53.625C41.2083 53.4427 40.8438 53.1354 40.5625 52.7031C40.2865 52.2656 40.1484 51.7578 40.1484 51.1797C40.1484 50.5651 40.276 50.0417 40.5312 49.6094C40.7865 49.1719 41.1562 48.8385 41.6406 48.6094C42.125 48.3802 42.7109 48.2656 43.3984 48.2656C43.5495 48.2656 43.7005 48.2734 43.8516 48.2891C44.0078 48.2995 44.1562 48.3177 44.2969 48.3438C44.4375 48.3646 44.5599 48.3906 44.6641 48.4219H47.6016V49.2578L46.0234 49.4531C46.1797 49.6562 46.3099 49.901 46.4141 50.1875C46.5182 50.474 46.5703 50.7917 46.5703 51.1406C46.5703 51.9948 46.2812 52.6745 45.7031 53.1797C45.125 53.6797 44.3307 53.9297 43.3203 53.9297C43.0807 53.9297 42.8359 53.9089 42.5859 53.8672C42.3307 54.0078 42.1354 54.1641 42 54.3359C41.8698 54.5078 41.8047 54.7057 41.8047 54.9297C41.8047 55.0964 41.8542 55.2292 41.9531 55.3281C42.0573 55.4271 42.2057 55.5 42.3984 55.5469C42.5911 55.5885 42.8229 55.6094 43.0938 55.6094H44.6016C45.5339 55.6094 46.2474 55.8047 46.7422 56.1953C47.2422 56.5859 47.4922 57.1562 47.4922 57.9062C47.4922 58.8542 47.1068 59.5807 46.3359 60.0859C45.5651 60.5911 44.4505 60.8438 42.9922 60.8438ZM43.0312 59.8281C43.7396 59.8281 44.3255 59.7552 44.7891 59.6094C45.2578 59.4688 45.6068 59.263 45.8359 58.9922C46.0703 58.7266 46.1875 58.4089 46.1875 58.0391C46.1875 57.6953 46.1094 57.4349 45.9531 57.2578C45.7969 57.0859 45.5677 56.9714 45.2656 56.9141C44.9635 56.8516 44.5938 56.8203 44.1562 56.8203H42.6719C42.2865 56.8203 41.9505 56.8802 41.6641 57C41.3776 57.1198 41.1562 57.2969 41 57.5312C40.849 57.7656 40.7734 58.0573 40.7734 58.4062C40.7734 58.8698 40.9688 59.2214 41.3594 59.4609C41.75 59.7057 42.3073 59.8281 43.0312 59.8281ZM43.3672 52.9844C43.987 52.9844 44.4531 52.8281 44.7656 52.5156C45.0781 52.2031 45.2344 51.7474 45.2344 51.1484C45.2344 50.5078 45.0755 50.0286 44.7578 49.7109C44.4401 49.388 43.9714 49.2266 43.3516 49.2266C42.7578 49.2266 42.2995 49.3932 41.9766 49.7266C41.6589 50.0547 41.5 50.5365 41.5 51.1719C41.5 51.7552 41.6615 52.2031 41.9844 52.5156C42.3073 52.8281 42.7682 52.9844 43.3672 52.9844ZM50.5859 44.8438V48.4766C50.5859 48.6849 50.5807 48.8958 50.5703 49.1094C50.5599 49.3177 50.5417 49.5104 50.5156 49.6875H50.6016C50.7786 49.3854 51.0026 49.1328 51.2734 48.9297C51.5495 48.7214 51.862 48.5651 52.2109 48.4609C52.5599 48.3516 52.9297 48.2969 53.3203 48.2969C54.0078 48.2969 54.5807 48.4062 55.0391 48.625C55.5026 48.8438 55.849 49.1823 56.0781 49.6406C56.3125 50.099 56.4297 50.6927 56.4297 51.4219V57H55.1484V51.5078C55.1484 50.7943 54.9844 50.2604 54.6562 49.9062C54.3333 49.5521 53.8359 49.375 53.1641 49.375C52.5286 49.375 52.0208 49.4974 51.6406 49.7422C51.2656 49.9818 50.9948 50.3359 50.8281 50.8047C50.6667 51.2734 50.5859 51.8464 50.5859 52.5234V57H49.2891V44.8438H50.5859ZM61.8672 56.0938C62.0807 56.0938 62.2995 56.0755 62.5234 56.0391C62.7474 56.0026 62.9297 55.9583 63.0703 55.9062V56.9141C62.9193 56.9818 62.7083 57.0391 62.4375 57.0859C62.1719 57.1328 61.9115 57.1562 61.6562 57.1562C61.2031 57.1562 60.7917 57.0781 60.4219 56.9219C60.0521 56.7604 59.7552 56.4896 59.5312 56.1094C59.3125 55.7292 59.2031 55.2031 59.2031 54.5312V49.4531H57.9844V48.8203L59.2109 48.3125L59.7266 46.4531H60.5078V48.4375H63.0156V49.4531H60.5078V54.4922C60.5078 55.0286 60.6302 55.4297 60.875 55.6953C61.125 55.9609 61.4557 56.0938 61.8672 56.0938Z" fill="#185EE7"/>
<path d="M39.4141 92.1562C38.3307 92.1562 37.4714 91.7865 36.8359 91.0469C36.2057 90.3073 35.8906 89.2083 35.8906 87.75C35.8906 86.276 36.2135 85.1641 36.8594 84.4141C37.5052 83.6589 38.3646 83.2812 39.4375 83.2812C39.8906 83.2812 40.2865 83.3411 40.625 83.4609C40.9635 83.5807 41.2552 83.7422 41.5 83.9453C41.7448 84.1432 41.9505 84.3698 42.1172 84.625H42.2109C42.1901 84.4635 42.1693 84.2422 42.1484 83.9609C42.1276 83.6797 42.1172 83.4505 42.1172 83.2734V79.8438H43.4141V92H42.3672L42.1719 90.7812H42.1172C41.9557 91.0365 41.75 91.2682 41.5 91.4766C41.2552 91.6849 40.9609 91.8516 40.6172 91.9766C40.2786 92.0964 39.8776 92.1562 39.4141 92.1562ZM39.6172 91.0781C40.5339 91.0781 41.1823 90.8177 41.5625 90.2969C41.9427 89.776 42.1328 89.0026 42.1328 87.9766V87.7422C42.1328 86.6536 41.9505 85.8177 41.5859 85.2344C41.2266 84.651 40.5703 84.3594 39.6172 84.3594C38.8203 84.3594 38.224 84.6667 37.8281 85.2812C37.4323 85.8906 37.2344 86.724 37.2344 87.7812C37.2344 88.8333 37.4297 89.6458 37.8203 90.2188C38.2161 90.7917 38.8151 91.0781 39.6172 91.0781ZM49.4609 83.2812C50.1901 83.2812 50.8151 83.4427 51.3359 83.7656C51.8568 84.0885 52.2552 84.5417 52.5312 85.125C52.8073 85.7031 52.9453 86.3802 52.9453 87.1562V87.9609H47.0312C47.0469 88.9661 47.2969 89.7318 47.7812 90.2578C48.2656 90.7839 48.9479 91.0469 49.8281 91.0469C50.3698 91.0469 50.849 90.9974 51.2656 90.8984C51.6823 90.7995 52.1146 90.6536 52.5625 90.4609V91.6016C52.1302 91.7943 51.7005 91.9349 51.2734 92.0234C50.8516 92.112 50.3516 92.1562 49.7734 92.1562C48.9505 92.1562 48.2318 91.9896 47.6172 91.6562C47.0078 91.3177 46.5339 90.8229 46.1953 90.1719C45.8568 89.5208 45.6875 88.724 45.6875 87.7812C45.6875 86.8594 45.8411 86.0625 46.1484 85.3906C46.4609 84.7135 46.8984 84.1927 47.4609 83.8281C48.0286 83.4635 48.6953 83.2812 49.4609 83.2812ZM49.4453 84.3438C48.7526 84.3438 48.2005 84.5703 47.7891 85.0234C47.3776 85.4766 47.1328 86.1094 47.0547 86.9219H51.5859C51.5807 86.4115 51.5 85.9635 51.3438 85.5781C51.1927 85.1875 50.9609 84.8854 50.6484 84.6719C50.3359 84.4531 49.9349 84.3438 49.4453 84.3438ZM60.6875 89.6562C60.6875 90.2031 60.5495 90.6641 60.2734 91.0391C60.0026 91.4089 59.612 91.6875 59.1016 91.875C58.5964 92.0625 57.9922 92.1562 57.2891 92.1562C56.6901 92.1562 56.1719 92.1094 55.7344 92.0156C55.2969 91.9219 54.9141 91.7891 54.5859 91.6172V90.4219C54.9349 90.5938 55.3516 90.75 55.8359 90.8906C56.3203 91.0312 56.8151 91.1016 57.3203 91.1016C58.0599 91.1016 58.5964 90.9818 58.9297 90.7422C59.263 90.5026 59.4297 90.1771 59.4297 89.7656C59.4297 89.5312 59.362 89.3255 59.2266 89.1484C59.0964 88.9661 58.875 88.7917 58.5625 88.625C58.25 88.4531 57.8177 88.2656 57.2656 88.0625C56.7188 87.8542 56.2448 87.6484 55.8438 87.4453C55.4479 87.237 55.1406 86.9844 54.9219 86.6875C54.7083 86.3906 54.6016 86.0052 54.6016 85.5312C54.6016 84.8073 54.8932 84.2526 55.4766 83.8672C56.0651 83.4766 56.8359 83.2812 57.7891 83.2812C58.3047 83.2812 58.7865 83.3333 59.2344 83.4375C59.6875 83.5365 60.1094 83.6719 60.5 83.8438L60.0625 84.8828C59.7083 84.7318 59.3307 84.6042 58.9297 84.5C58.5286 84.3958 58.1198 84.3438 57.7031 84.3438C57.1042 84.3438 56.6432 84.4427 56.3203 84.6406C56.0026 84.8385 55.8438 85.1094 55.8438 85.4531C55.8438 85.7188 55.9167 85.9375 56.0625 86.1094C56.2135 86.2812 56.4531 86.4427 56.7812 86.5938C57.1094 86.7448 57.5417 86.9219 58.0781 87.125C58.6146 87.3229 59.0781 87.5286 59.4688 87.7422C59.8594 87.9505 60.1589 88.2057 60.3672 88.5078C60.5807 88.8047 60.6875 89.1875 60.6875 89.6562ZM66.2031 92.1562C65.4323 92.1562 64.7526 91.9974 64.1641 91.6797C63.5755 91.362 63.1172 90.8776 62.7891 90.2266C62.4609 89.5755 62.2969 88.7552 62.2969 87.7656C62.2969 86.7292 62.4688 85.8828 62.8125 85.2266C63.1615 84.5651 63.6406 84.0755 64.25 83.7578C64.8594 83.4401 65.5521 83.2812 66.3281 83.2812C66.7552 83.2812 67.1667 83.3255 67.5625 83.4141C67.9635 83.4974 68.2917 83.6042 68.5469 83.7344L68.1562 84.8203C67.8958 84.7161 67.5938 84.6224 67.25 84.5391C66.9115 84.4557 66.5938 84.4141 66.2969 84.4141C65.7031 84.4141 65.2083 84.5417 64.8125 84.7969C64.4219 85.0521 64.1276 85.4271 63.9297 85.9219C63.737 86.4167 63.6406 87.026 63.6406 87.75C63.6406 88.4427 63.7344 89.0339 63.9219 89.5234C64.1146 90.013 64.3984 90.388 64.7734 90.6484C65.1536 90.9036 65.6276 91.0312 66.1953 91.0312C66.6484 91.0312 67.0573 90.9844 67.4219 90.8906C67.7865 90.7917 68.1172 90.6771 68.4141 90.5469V91.7031C68.1276 91.849 67.8073 91.9609 67.4531 92.0391C67.1042 92.1172 66.6875 92.1562 66.2031 92.1562ZM73.7422 83.2812C74.4714 83.2812 75.0964 83.4427 75.6172 83.7656C76.138 84.0885 76.5365 84.5417 76.8125 85.125C77.0885 85.7031 77.2266 86.3802 77.2266 87.1562V87.9609H71.3125C71.3281 88.9661 71.5781 89.7318 72.0625 90.2578C72.5469 90.7839 73.2292 91.0469 74.1094 91.0469C74.651 91.0469 75.1302 90.9974 75.5469 90.8984C75.9635 90.7995 76.3958 90.6536 76.8438 90.4609V91.6016C76.4115 91.7943 75.9818 91.9349 75.5547 92.0234C75.1328 92.112 74.6328 92.1562 74.0547 92.1562C73.2318 92.1562 72.513 91.9896 71.8984 91.6562C71.2891 91.3177 70.8151 90.8229 70.4766 90.1719C70.138 89.5208 69.9688 88.724 69.9688 87.7812C69.9688 86.8594 70.1224 86.0625 70.4297 85.3906C70.7422 84.7135 71.1797 84.1927 71.7422 83.8281C72.3099 83.4635 72.9766 83.2812 73.7422 83.2812ZM73.7266 84.3438C73.0339 84.3438 72.4818 84.5703 72.0703 85.0234C71.6589 85.4766 71.4141 86.1094 71.3359 86.9219H75.8672C75.862 86.4115 75.7812 85.9635 75.625 85.5781C75.474 85.1875 75.2422 84.8854 74.9297 84.6719C74.6172 84.4531 74.2161 84.3438 73.7266 84.3438ZM83.4844 83.2812C84.5 83.2812 85.2682 83.5312 85.7891 84.0312C86.3099 84.526 86.5703 85.3229 86.5703 86.4219V92H85.2891V86.5078C85.2891 85.7943 85.125 85.2604 84.7969 84.9062C84.474 84.5521 83.9766 84.375 83.3047 84.375C82.3568 84.375 81.6901 84.6432 81.3047 85.1797C80.9193 85.7161 80.7266 86.4948 80.7266 87.5156V92H79.4297V83.4375H80.4766L80.6719 84.6719H80.7422C80.9245 84.3698 81.1562 84.1172 81.4375 83.9141C81.7188 83.7057 82.0339 83.5495 82.3828 83.4453C82.7318 83.3359 83.099 83.2812 83.4844 83.2812ZM92.2891 92.1562C91.2057 92.1562 90.3464 91.7865 89.7109 91.0469C89.0807 90.3073 88.7656 89.2083 88.7656 87.75C88.7656 86.276 89.0885 85.1641 89.7344 84.4141C90.3802 83.6589 91.2396 83.2812 92.3125 83.2812C92.7656 83.2812 93.1615 83.3411 93.5 83.4609C93.8385 83.5807 94.1302 83.7422 94.375 83.9453C94.6198 84.1432 94.8255 84.3698 94.9922 84.625H95.0859C95.0651 84.4635 95.0443 84.2422 95.0234 83.9609C95.0026 83.6797 94.9922 83.4505 94.9922 83.2734V79.8438H96.2891V92H95.2422L95.0469 90.7812H94.9922C94.8307 91.0365 94.625 91.2682 94.375 91.4766C94.1302 91.6849 93.8359 91.8516 93.4922 91.9766C93.1536 92.0964 92.7526 92.1562 92.2891 92.1562ZM92.4922 91.0781C93.4089 91.0781 94.0573 90.8177 94.4375 90.2969C94.8177 89.776 95.0078 89.0026 95.0078 87.9766V87.7422C95.0078 86.6536 94.8255 85.8177 94.4609 85.2344C94.1016 84.651 93.4453 84.3594 92.4922 84.3594C91.6953 84.3594 91.099 84.6667 90.7031 85.2812C90.3073 85.8906 90.1094 86.724 90.1094 87.7812C90.1094 88.8333 90.3047 89.6458 90.6953 90.2188C91.0911 90.7917 91.6901 91.0781 92.4922 91.0781ZM102.336 83.2812C103.065 83.2812 103.69 83.4427 104.211 83.7656C104.732 84.0885 105.13 84.5417 105.406 85.125C105.682 85.7031 105.82 86.3802 105.82 87.1562V87.9609H99.9062C99.9219 88.9661 100.172 89.7318 100.656 90.2578C101.141 90.7839 101.823 91.0469 102.703 91.0469C103.245 91.0469 103.724 90.9974 104.141 90.8984C104.557 90.7995 104.99 90.6536 105.438 90.4609V91.6016C105.005 91.7943 104.576 91.9349 104.148 92.0234C103.727 92.112 103.227 92.1562 102.648 92.1562C101.826 92.1562 101.107 91.9896 100.492 91.6562C99.8828 91.3177 99.4089 90.8229 99.0703 90.1719C98.7318 89.5208 98.5625 88.724 98.5625 87.7812C98.5625 86.8594 98.7161 86.0625 99.0234 85.3906C99.3359 84.7135 99.7734 84.1927 100.336 83.8281C100.904 83.4635 101.57 83.2812 102.336 83.2812ZM102.32 84.3438C101.628 84.3438 101.076 84.5703 100.664 85.0234C100.253 85.4766 100.008 86.1094 99.9297 86.9219H104.461C104.456 86.4115 104.375 85.9635 104.219 85.5781C104.068 85.1875 103.836 84.8854 103.523 84.6719C103.211 84.4531 102.81 84.3438 102.32 84.3438ZM111.914 83.2812C112.086 83.2812 112.266 83.2917 112.453 83.3125C112.641 83.3281 112.807 83.3516 112.953 83.3828L112.789 84.5859C112.648 84.5495 112.492 84.5208 112.32 84.5C112.148 84.4792 111.987 84.4688 111.836 84.4688C111.492 84.4688 111.167 84.5391 110.859 84.6797C110.557 84.8151 110.292 85.013 110.062 85.2734C109.833 85.5286 109.654 85.8385 109.523 86.2031C109.393 86.5625 109.328 86.9635 109.328 87.4062V92H108.023V83.4375H109.102L109.242 85.0156H109.297C109.474 84.6979 109.688 84.4089 109.938 84.1484C110.188 83.8828 110.477 83.6719 110.805 83.5156C111.138 83.3594 111.508 83.2812 111.914 83.2812ZM120.109 89.6562C120.109 90.2031 119.971 90.6641 119.695 91.0391C119.424 91.4089 119.034 91.6875 118.523 91.875C118.018 92.0625 117.414 92.1562 116.711 92.1562C116.112 92.1562 115.594 92.1094 115.156 92.0156C114.719 91.9219 114.336 91.7891 114.008 91.6172V90.4219C114.357 90.5938 114.773 90.75 115.258 90.8906C115.742 91.0312 116.237 91.1016 116.742 91.1016C117.482 91.1016 118.018 90.9818 118.352 90.7422C118.685 90.5026 118.852 90.1771 118.852 89.7656C118.852 89.5312 118.784 89.3255 118.648 89.1484C118.518 88.9661 118.297 88.7917 117.984 88.625C117.672 88.4531 117.24 88.2656 116.688 88.0625C116.141 87.8542 115.667 87.6484 115.266 87.4453C114.87 87.237 114.562 86.9844 114.344 86.6875C114.13 86.3906 114.023 86.0052 114.023 85.5312C114.023 84.8073 114.315 84.2526 114.898 83.8672C115.487 83.4766 116.258 83.2812 117.211 83.2812C117.727 83.2812 118.208 83.3333 118.656 83.4375C119.109 83.5365 119.531 83.6719 119.922 83.8438L119.484 84.8828C119.13 84.7318 118.753 84.6042 118.352 84.5C117.951 84.3958 117.542 84.3438 117.125 84.3438C116.526 84.3438 116.065 84.4427 115.742 84.6406C115.424 84.8385 115.266 85.1094 115.266 85.4531C115.266 85.7188 115.339 85.9375 115.484 86.1094C115.635 86.2812 115.875 86.4427 116.203 86.5938C116.531 86.7448 116.964 86.9219 117.5 87.125C118.036 87.3229 118.5 87.5286 118.891 87.7422C119.281 87.9505 119.581 88.2057 119.789 88.5078C120.003 88.8047 120.109 89.1875 120.109 89.6562Z" fill="#185EE7"/>
<path d="M454.646 64.6464C454.451 64.8417 454.451 65.1583 454.646 65.3536L457.828 68.5355C458.024 68.7308 458.34 68.7308 458.536 68.5355C458.731 68.3403 458.731 68.0237 458.536 67.8284L455.707 65L458.536 62.1716C458.731 61.9763 458.731 61.6597 458.536 61.4645C458.34 61.2692 458.024 61.2692 457.828 61.4645L454.646 64.6464ZM471 64.5H455V65.5H471V64.5Z" fill="#185EE7"/>
<path d="M139.339 78.1294C139.411 77.8627 139.253 77.5885 138.986 77.517L134.639 76.3524C134.372 76.2809 134.098 76.4392 134.027 76.7059C133.955 76.9726 134.114 77.2468 134.38 77.3183L138.244 78.3536L137.209 82.2173C137.137 82.484 137.296 82.7582 137.562 82.8296C137.829 82.9011 138.103 82.7428 138.175 82.4761L139.339 78.1294ZM125.25 86.433L139.106 78.433L138.606 77.567L124.75 85.567L125.25 86.433Z" fill="#185EE7"/>
<path d="M162.57 9.29688C163.591 9.29688 164.349 9.52604 164.844 9.98438C165.339 10.4427 165.586 11.1745 165.586 12.1797V18H164.641L164.391 16.7344H164.328C164.089 17.0469 163.839 17.3099 163.578 17.5234C163.318 17.7318 163.016 17.8906 162.672 18C162.333 18.1042 161.917 18.1562 161.422 18.1562C160.901 18.1562 160.438 18.0651 160.031 17.8828C159.63 17.7005 159.312 17.4245 159.078 17.0547C158.849 16.6849 158.734 16.2161 158.734 15.6484C158.734 14.7943 159.073 14.138 159.75 13.6797C160.427 13.2214 161.458 12.9714 162.844 12.9297L164.32 12.8672V12.3438C164.32 11.6042 164.161 11.0859 163.844 10.7891C163.526 10.4922 163.078 10.3438 162.5 10.3438C162.052 10.3438 161.625 10.4089 161.219 10.5391C160.812 10.6693 160.427 10.8229 160.062 11L159.664 10.0156C160.049 9.81771 160.492 9.64844 160.992 9.50781C161.492 9.36719 162.018 9.29688 162.57 9.29688ZM164.305 13.7812L163 13.8359C161.932 13.8776 161.18 14.0521 160.742 14.3594C160.305 14.6667 160.086 15.1016 160.086 15.6641C160.086 16.1536 160.234 16.5156 160.531 16.75C160.828 16.9844 161.221 17.1016 161.711 17.1016C162.471 17.1016 163.094 16.8906 163.578 16.4688C164.062 16.0469 164.305 15.4141 164.305 14.5703V13.7812ZM173.797 15.6562C173.797 16.2031 173.659 16.6641 173.383 17.0391C173.112 17.4089 172.721 17.6875 172.211 17.875C171.706 18.0625 171.102 18.1562 170.398 18.1562C169.799 18.1562 169.281 18.1094 168.844 18.0156C168.406 17.9219 168.023 17.7891 167.695 17.6172V16.4219C168.044 16.5938 168.461 16.75 168.945 16.8906C169.43 17.0312 169.924 17.1016 170.43 17.1016C171.169 17.1016 171.706 16.9818 172.039 16.7422C172.372 16.5026 172.539 16.1771 172.539 15.7656C172.539 15.5312 172.471 15.3255 172.336 15.1484C172.206 14.9661 171.984 14.7917 171.672 14.625C171.359 14.4531 170.927 14.2656 170.375 14.0625C169.828 13.8542 169.354 13.6484 168.953 13.4453C168.557 13.237 168.25 12.9844 168.031 12.6875C167.818 12.3906 167.711 12.0052 167.711 11.5312C167.711 10.8073 168.003 10.2526 168.586 9.86719C169.174 9.47656 169.945 9.28125 170.898 9.28125C171.414 9.28125 171.896 9.33333 172.344 9.4375C172.797 9.53646 173.219 9.67188 173.609 9.84375L173.172 10.8828C172.818 10.7318 172.44 10.6042 172.039 10.5C171.638 10.3958 171.229 10.3438 170.812 10.3438C170.214 10.3438 169.753 10.4427 169.43 10.6406C169.112 10.8385 168.953 11.1094 168.953 11.4531C168.953 11.7188 169.026 11.9375 169.172 12.1094C169.323 12.2812 169.562 12.4427 169.891 12.5938C170.219 12.7448 170.651 12.9219 171.188 13.125C171.724 13.3229 172.188 13.5286 172.578 13.7422C172.969 13.9505 173.268 14.2057 173.477 14.5078C173.69 14.8047 173.797 15.1875 173.797 15.6562ZM179.312 18.1562C178.542 18.1562 177.862 17.9974 177.273 17.6797C176.685 17.362 176.227 16.8776 175.898 16.2266C175.57 15.5755 175.406 14.7552 175.406 13.7656C175.406 12.7292 175.578 11.8828 175.922 11.2266C176.271 10.5651 176.75 10.0755 177.359 9.75781C177.969 9.4401 178.661 9.28125 179.438 9.28125C179.865 9.28125 180.276 9.32552 180.672 9.41406C181.073 9.4974 181.401 9.60417 181.656 9.73438L181.266 10.8203C181.005 10.7161 180.703 10.6224 180.359 10.5391C180.021 10.4557 179.703 10.4141 179.406 10.4141C178.812 10.4141 178.318 10.5417 177.922 10.7969C177.531 11.0521 177.237 11.4271 177.039 11.9219C176.846 12.4167 176.75 13.026 176.75 13.75C176.75 14.4427 176.844 15.0339 177.031 15.5234C177.224 16.013 177.508 16.388 177.883 16.6484C178.263 16.9036 178.737 17.0312 179.305 17.0312C179.758 17.0312 180.167 16.9844 180.531 16.8906C180.896 16.7917 181.227 16.6771 181.523 16.5469V17.7031C181.237 17.849 180.917 17.9609 180.562 18.0391C180.214 18.1172 179.797 18.1562 179.312 18.1562ZM186.852 9.28125C187.581 9.28125 188.206 9.44271 188.727 9.76562C189.247 10.0885 189.646 10.5417 189.922 11.125C190.198 11.7031 190.336 12.3802 190.336 13.1562V13.9609H184.422C184.438 14.9661 184.688 15.7318 185.172 16.2578C185.656 16.7839 186.339 17.0469 187.219 17.0469C187.76 17.0469 188.24 16.9974 188.656 16.8984C189.073 16.7995 189.505 16.6536 189.953 16.4609V17.6016C189.521 17.7943 189.091 17.9349 188.664 18.0234C188.242 18.112 187.742 18.1562 187.164 18.1562C186.341 18.1562 185.622 17.9896 185.008 17.6562C184.398 17.3177 183.924 16.8229 183.586 16.1719C183.247 15.5208 183.078 14.724 183.078 13.7812C183.078 12.8594 183.232 12.0625 183.539 11.3906C183.852 10.7135 184.289 10.1927 184.852 9.82812C185.419 9.46354 186.086 9.28125 186.852 9.28125ZM186.836 10.3438C186.143 10.3438 185.591 10.5703 185.18 11.0234C184.768 11.4766 184.523 12.1094 184.445 12.9219H188.977C188.971 12.4115 188.891 11.9635 188.734 11.5781C188.583 11.1875 188.352 10.8854 188.039 10.6719C187.727 10.4531 187.326 10.3438 186.836 10.3438ZM196.594 9.28125C197.609 9.28125 198.378 9.53125 198.898 10.0312C199.419 10.526 199.68 11.3229 199.68 12.4219V18H198.398V12.5078C198.398 11.7943 198.234 11.2604 197.906 10.9062C197.583 10.5521 197.086 10.375 196.414 10.375C195.466 10.375 194.799 10.6432 194.414 11.1797C194.029 11.7161 193.836 12.4948 193.836 13.5156V18H192.539V9.4375H193.586L193.781 10.6719H193.852C194.034 10.3698 194.266 10.1172 194.547 9.91406C194.828 9.70573 195.143 9.54948 195.492 9.44531C195.841 9.33594 196.208 9.28125 196.594 9.28125ZM205.398 18.1562C204.315 18.1562 203.456 17.7865 202.82 17.0469C202.19 16.3073 201.875 15.2083 201.875 13.75C201.875 12.276 202.198 11.1641 202.844 10.4141C203.49 9.65885 204.349 9.28125 205.422 9.28125C205.875 9.28125 206.271 9.34115 206.609 9.46094C206.948 9.58073 207.24 9.74219 207.484 9.94531C207.729 10.1432 207.935 10.3698 208.102 10.625H208.195C208.174 10.4635 208.154 10.2422 208.133 9.96094C208.112 9.67969 208.102 9.45052 208.102 9.27344V5.84375H209.398V18H208.352L208.156 16.7812H208.102C207.94 17.0365 207.734 17.2682 207.484 17.4766C207.24 17.6849 206.945 17.8516 206.602 17.9766C206.263 18.0964 205.862 18.1562 205.398 18.1562ZM205.602 17.0781C206.518 17.0781 207.167 16.8177 207.547 16.2969C207.927 15.776 208.117 15.0026 208.117 13.9766V13.7422C208.117 12.6536 207.935 11.8177 207.57 11.2344C207.211 10.651 206.555 10.3594 205.602 10.3594C204.805 10.3594 204.208 10.6667 203.812 11.2812C203.417 11.8906 203.219 12.724 203.219 13.7812C203.219 14.8333 203.414 15.6458 203.805 16.2188C204.201 16.7917 204.799 17.0781 205.602 17.0781ZM215.445 9.28125C216.174 9.28125 216.799 9.44271 217.32 9.76562C217.841 10.0885 218.24 10.5417 218.516 11.125C218.792 11.7031 218.93 12.3802 218.93 13.1562V13.9609H213.016C213.031 14.9661 213.281 15.7318 213.766 16.2578C214.25 16.7839 214.932 17.0469 215.812 17.0469C216.354 17.0469 216.833 16.9974 217.25 16.8984C217.667 16.7995 218.099 16.6536 218.547 16.4609V17.6016C218.115 17.7943 217.685 17.9349 217.258 18.0234C216.836 18.112 216.336 18.1562 215.758 18.1562C214.935 18.1562 214.216 17.9896 213.602 17.6562C212.992 17.3177 212.518 16.8229 212.18 16.1719C211.841 15.5208 211.672 14.724 211.672 13.7812C211.672 12.8594 211.826 12.0625 212.133 11.3906C212.445 10.7135 212.883 10.1927 213.445 9.82812C214.013 9.46354 214.68 9.28125 215.445 9.28125ZM215.43 10.3438C214.737 10.3438 214.185 10.5703 213.773 11.0234C213.362 11.4766 213.117 12.1094 213.039 12.9219H217.57C217.565 12.4115 217.484 11.9635 217.328 11.5781C217.177 11.1875 216.945 10.8854 216.633 10.6719C216.32 10.4531 215.919 10.3438 215.43 10.3438ZM225.023 9.28125C225.195 9.28125 225.375 9.29167 225.562 9.3125C225.75 9.32812 225.917 9.35156 226.062 9.38281L225.898 10.5859C225.758 10.5495 225.602 10.5208 225.43 10.5C225.258 10.4792 225.096 10.4688 224.945 10.4688C224.602 10.4688 224.276 10.5391 223.969 10.6797C223.667 10.8151 223.401 11.013 223.172 11.2734C222.943 11.5286 222.763 11.8385 222.633 12.2031C222.503 12.5625 222.438 12.9635 222.438 13.4062V18H221.133V9.4375H222.211L222.352 11.0156H222.406C222.583 10.6979 222.797 10.4089 223.047 10.1484C223.297 9.88281 223.586 9.67188 223.914 9.51562C224.247 9.35938 224.617 9.28125 225.023 9.28125ZM233.219 15.6562C233.219 16.2031 233.081 16.6641 232.805 17.0391C232.534 17.4089 232.143 17.6875 231.633 17.875C231.128 18.0625 230.523 18.1562 229.82 18.1562C229.221 18.1562 228.703 18.1094 228.266 18.0156C227.828 17.9219 227.445 17.7891 227.117 17.6172V16.4219C227.466 16.5938 227.883 16.75 228.367 16.8906C228.852 17.0312 229.346 17.1016 229.852 17.1016C230.591 17.1016 231.128 16.9818 231.461 16.7422C231.794 16.5026 231.961 16.1771 231.961 15.7656C231.961 15.5312 231.893 15.3255 231.758 15.1484C231.628 14.9661 231.406 14.7917 231.094 14.625C230.781 14.4531 230.349 14.2656 229.797 14.0625C229.25 13.8542 228.776 13.6484 228.375 13.4453C227.979 13.237 227.672 12.9844 227.453 12.6875C227.24 12.3906 227.133 12.0052 227.133 11.5312C227.133 10.8073 227.424 10.2526 228.008 9.86719C228.596 9.47656 229.367 9.28125 230.32 9.28125C230.836 9.28125 231.318 9.33333 231.766 9.4375C232.219 9.53646 232.641 9.67188 233.031 9.84375L232.594 10.8828C232.24 10.7318 231.862 10.6042 231.461 10.5C231.06 10.3958 230.651 10.3438 230.234 10.3438C229.635 10.3438 229.174 10.4427 228.852 10.6406C228.534 10.8385 228.375 11.1094 228.375 11.4531C228.375 11.7188 228.448 11.9375 228.594 12.1094C228.745 12.2812 228.984 12.4427 229.312 12.5938C229.641 12.7448 230.073 12.9219 230.609 13.125C231.146 13.3229 231.609 13.5286 232 13.7422C232.391 13.9505 232.69 14.2057 232.898 14.5078C233.112 14.8047 233.219 15.1875 233.219 15.6562Z" fill="#185EE7"/>
<path d="M139.517 21.8706C139.446 22.1373 139.604 22.4115 139.871 22.483L144.217 23.6476C144.484 23.7191 144.758 23.5608 144.83 23.2941C144.901 23.0274 144.743 22.7532 144.476 22.6817L140.612 21.6464L141.648 17.7827C141.719 17.516 141.561 17.2418 141.294 17.1704C141.027 17.0989 140.753 17.2572 140.682 17.5239L139.517 21.8706ZM153.606 13.567L139.75 21.567L140.25 22.433L154.106 14.433L153.606 13.567Z" fill="#185EE7"/>
<path d="M402.871 80.517C402.604 80.5885 402.446 80.8627 402.517 81.1294L403.682 85.4761C403.753 85.7428 404.027 85.9011 404.294 85.8296C404.561 85.7582 404.719 85.484 404.648 85.2173L403.612 81.3536L407.476 80.3183C407.743 80.2468 407.901 79.9726 407.83 79.7059C407.758 79.4392 407.484 79.2809 407.217 79.3524L402.871 80.517ZM417.106 88.567L403.25 80.567L402.75 81.433L416.606 89.433L417.106 88.567Z" fill="#185EE7"/>
<path d="M84.3536 51.3536C84.5488 51.1583 84.5488 50.8417 84.3536 50.6464L81.1716 47.4645C80.9763 47.2692 80.6597 47.2692 80.4645 47.4645C80.2692 47.6597 80.2692 47.9763 80.4645 48.1716L83.2929 51L80.4645 53.8284C80.2692 54.0237 80.2692 54.3403 80.4645 54.5355C80.6597 54.7308 80.9763 54.7308 81.1716 54.5355L84.3536 51.3536ZM68 51.5H84V50.5H68V51.5Z" fill="#185EE7"/>
<rect x="140" y="66" width="20" height="11" fill="#E7A118" fill-opacity="0.4"/>
<rect x="404" y="66" width="20" height="11" fill="#E7A118" fill-opacity="0.4"/>
<rect x="171" y="66" width="20" height="11" fill="#E7A118" fill-opacity="0.4"/>
<rect x="99" y="23" width="40" height="13" fill="#E7A118" fill-opacity="0.4"/>
<rect x="365" y="19" width="27" height="17" fill="#E7A118" fill-opacity="0.4"/>
<rect x="329" y="66" width="21" height="11" fill="#E7A118" fill-opacity="0.4"/>
<rect x="240" y="66" width="32" height="11" fill="#E7A118" fill-opacity="0.4"/>
<rect x="366" y="18" width="35" height="62" rx="3" stroke="#185EE7" stroke-width="2"/>
</svg>
