<svg width="368" height="99" viewBox="0 0 368 99" fill="none" xmlns="http://www.w3.org/2000/svg">
<ellipse cx="92" cy="52" rx="10" ry="13" fill="#E7A118" fill-opacity="0.75"/>
<path d="M1.344 27.68H36.4V40.28H32.816L31.024 31.88H22.512V63.408L28.448 64.752V68H9.296V64.752L15.232 63.408V31.88H6.664L4.928 40.28H1.344V27.68ZM67.6318 41.96L58.6158 66.656C57.3838 69.5307 56.2638 71.8453 55.2558 73.6C54.2478 75.392 53.1278 76.68 51.8958 77.464C50.7011 78.248 49.1331 78.64 47.1918 78.64C45.4371 78.64 43.9251 78.1733 42.6558 77.24C41.4238 76.3067 40.8078 75.1307 40.8078 73.712C40.8078 72.4053 41.1811 71.3227 41.9278 70.464C42.7118 69.6427 43.7198 69.232 44.9518 69.232C46.0345 69.232 46.8558 69.4747 47.4158 69.96C48.0131 70.4453 48.3118 71.1733 48.3118 72.144C48.3118 72.5173 48.1065 73.0213 47.6958 73.656C47.3225 74.328 46.6691 74.664 45.7358 74.664C45.8105 75.0373 46.0345 75.28 46.4078 75.392C46.7811 75.5413 47.0985 75.616 47.3598 75.616C47.8825 75.616 48.3678 75.504 48.8158 75.28C49.2638 75.0933 49.7305 74.6267 50.2158 73.88C50.7385 73.1333 51.2985 71.9947 51.8958 70.464L52.5678 68.392L41.3118 41.96L37.9518 40.896V37.76H52.1758L52.6238 40.896L48.6478 41.96L55.5358 61.392H55.7598L61.9758 41.96L58.7278 40.896V37.76H71.0478V40.896L67.6318 41.96ZM84.0739 73.88L89.5059 74.944V78.08H72.6499V74.944L76.9619 73.88V41.96L72.6499 40.896V37.76H82.3939L83.2339 42.072C84.4286 40.2053 85.7726 38.936 87.2659 38.264C88.7966 37.5547 90.5139 37.2 92.4179 37.2C94.3219 37.2 96.0393 37.48 97.5699 38.04C99.1379 38.6 100.407 39.496 101.378 40.728C102.498 42.1467 103.375 43.864 104.01 45.88C104.682 47.8587 105.018 50.0053 105.018 52.32C105.018 54.7093 104.645 56.968 103.898 59.096C103.189 61.1867 102.218 62.9413 100.986 64.36C98.8953 66.7867 95.8899 68 91.9699 68C90.3646 68 88.9086 67.7013 87.6019 67.104C86.3326 66.4693 85.1566 65.3867 84.0739 63.856V73.88ZM84.0179 52.32C84.0179 54.3733 84.1859 56.1467 84.5219 57.64C84.8579 59.1333 85.3059 60.3467 85.8659 61.28C86.4259 62.2133 87.1353 62.9413 87.9939 63.464C88.8899 63.9867 89.9166 64.248 91.0739 64.248C92.2313 64.248 93.1646 64.0053 93.8739 63.52C94.6206 63.0347 95.2179 62.4 95.6659 61.616C96.2259 60.6453 96.6553 59.3947 96.9539 57.864C97.2899 56.3333 97.4579 54.672 97.4579 52.88C97.4579 51.0133 97.2899 49.2587 96.9539 47.616C96.6179 45.936 96.1699 44.592 95.6099 43.584C95.0499 42.6133 94.3593 41.9413 93.5379 41.568C92.7166 41.1947 91.7833 41.008 90.7379 41.008C89.5806 41.008 88.6099 41.2133 87.8259 41.624C87.0419 42.0347 86.3699 42.688 85.8099 43.584C85.2873 44.4427 84.8579 45.6 84.5219 47.056C84.1859 48.512 84.0179 50.2667 84.0179 52.32ZM138.325 52.88C138.325 55.2693 137.97 57.528 137.261 59.656C136.589 61.7467 135.599 63.5013 134.293 64.92C133.061 66.2267 131.567 67.16 129.813 67.72C128.095 68.28 126.079 68.56 123.765 68.56C121.45 68.56 119.415 68.28 117.661 67.72C115.943 67.16 114.469 66.2267 113.237 64.92C111.93 63.5013 110.922 61.7467 110.213 59.656C109.541 57.528 109.205 55.2693 109.205 52.88C109.205 50.4907 109.541 48.232 110.213 46.104C110.922 43.976 111.93 42.2213 113.237 40.84C114.469 39.5333 115.943 38.6 117.661 38.04C119.415 37.48 121.45 37.2 123.765 37.2C126.079 37.2 128.095 37.48 129.813 38.04C131.567 38.6 133.061 39.5333 134.293 40.84C135.599 42.2213 136.589 43.976 137.261 46.104C137.97 48.232 138.325 50.4907 138.325 52.88ZM118.669 62.568C119.191 63.3147 119.863 63.8747 120.685 64.248C121.543 64.6213 122.57 64.808 123.765 64.808C124.959 64.808 125.986 64.6213 126.845 64.248C127.703 63.8747 128.375 63.3147 128.861 62.568C130.055 60.7387 130.653 57.5093 130.653 52.88C130.653 50.528 130.503 48.5493 130.205 46.944C129.906 45.3387 129.458 44.088 128.861 43.192C128.375 42.4453 127.703 41.8853 126.845 41.512C125.986 41.1387 124.959 40.952 123.765 40.952C122.57 40.952 121.543 41.1387 120.685 41.512C119.863 41.8853 119.191 42.4453 118.669 43.192C117.474 45.0213 116.877 48.2507 116.877 52.88C116.877 57.5093 117.474 60.7387 118.669 62.568ZM169.951 68.336C169.951 71.7707 168.719 74.2907 166.255 75.896C163.791 77.5013 159.871 78.304 154.495 78.304C152.105 78.304 149.921 78.08 147.943 77.632C146.001 77.184 144.452 76.4373 143.295 75.392C142.137 74.384 141.559 73.0027 141.559 71.248C141.559 69.5307 142.1 68.1493 143.183 67.104C144.265 66.0587 145.871 65.4987 147.999 65.424V65.2C145.161 64.416 143.743 62.9973 143.743 60.944C143.743 60.1973 143.929 59.4133 144.303 58.592C144.676 57.7707 145.292 57.0427 146.151 56.408C147.009 55.7733 148.129 55.3627 149.511 55.176C147.532 54.6907 145.983 53.7013 144.863 52.208C143.743 50.6773 143.183 48.8853 143.183 46.832C143.183 43.8453 144.191 41.4933 146.207 39.776C148.223 38.0587 151.116 37.2 154.887 37.2C157.388 37.2 159.348 37.424 160.767 37.872C162.185 38.2827 163.436 38.9173 164.519 39.776L166.423 39.104L171.575 36.64H172.527V42.408H171.575L167.655 41.96H166.255C167.001 43.1173 167.375 44.6293 167.375 46.496C167.375 49.5573 166.423 51.984 164.519 53.776C162.615 55.5307 159.871 56.408 156.287 56.408C155.913 56.408 155.54 56.408 155.167 56.408C154.793 56.3707 154.42 56.3333 154.047 56.296C152.591 56.4827 151.415 56.8187 150.519 57.304C149.66 57.752 149.231 58.4053 149.231 59.264C149.231 59.936 149.585 60.4027 150.295 60.664C151.004 60.888 152.292 61 154.159 61H160.655C163.716 61 166.031 61.616 167.599 62.848C169.167 64.0427 169.951 65.872 169.951 68.336ZM156.511 66.152H154.551C152.049 66.152 150.239 66.544 149.119 67.328C147.999 68.112 147.439 69.1387 147.439 70.408C147.439 73.2453 150.108 74.664 155.447 74.664C158.321 74.664 160.505 74.2347 161.999 73.376C163.492 72.5547 164.239 71.3413 164.239 69.736C164.239 68.4293 163.66 67.5147 162.503 66.992C161.345 66.432 159.348 66.152 156.511 66.152ZM149.791 46.608C149.791 48.6987 150.239 50.304 151.135 51.424C152.068 52.5067 153.356 53.048 154.999 53.048C156.977 53.048 158.433 52.5067 159.367 51.424C160.3 50.304 160.767 48.6987 160.767 46.608C160.767 44.6293 160.3 43.136 159.367 42.128C158.433 41.12 156.977 40.616 154.999 40.616C153.319 40.616 152.031 41.12 151.135 42.128C150.239 43.136 149.791 44.6293 149.791 46.608ZM191.074 41.848C190.663 41.848 190.196 42.1093 189.674 42.632C189.151 43.1173 188.666 43.696 188.218 44.368C187.807 45.04 187.508 45.6373 187.322 46.16C186.874 47.4293 186.482 48.736 186.146 50.08C185.81 51.424 185.642 53.0667 185.642 55.008V63.8L191.69 64.864V68H174.218V64.864L178.53 63.8V41.12L174.218 40.056V37.76H183.962L185.194 45.152H185.418C186.276 42.6133 187.434 40.6533 188.89 39.272C190.346 37.8907 191.951 37.2 193.706 37.2C195.162 37.2 196.375 37.6667 197.346 38.6C198.316 39.496 198.802 40.7093 198.802 42.24C198.802 43.36 198.466 44.3867 197.794 45.32C197.122 46.216 196.17 46.664 194.938 46.664C193.444 46.664 192.38 46.328 191.746 45.656C191.111 44.9467 190.794 44.1813 190.794 43.36C190.794 43.0987 190.794 42.912 190.794 42.8C190.831 42.6507 190.924 42.3333 191.074 41.848ZM200.797 61.392C200.797 58.2933 202.216 55.904 205.053 54.224C207.891 52.5067 212.352 51.1813 218.437 50.248C218.288 48.3813 218.083 46.944 217.821 45.936C217.56 44.928 217.224 44.0693 216.813 43.36C216.328 42.5013 215.731 41.8107 215.021 41.288C214.312 40.7653 213.416 40.504 212.333 40.504C211.549 40.504 210.821 40.6533 210.149 40.952C209.515 41.2507 209.085 41.6613 208.861 42.184C209.384 42.4453 209.739 42.856 209.925 43.416C210.149 43.976 210.261 44.4613 210.261 44.872C210.261 45.8053 209.851 46.6453 209.029 47.392C208.208 48.1013 207.219 48.456 206.061 48.456C204.904 48.456 203.989 48.0827 203.317 47.336C202.645 46.552 202.309 45.5813 202.309 44.424C202.309 42.8933 202.851 41.5867 203.933 40.504C205.016 39.4213 206.397 38.6 208.077 38.04C209.757 37.48 211.456 37.2 213.173 37.2C214.928 37.2 216.496 37.4613 217.877 37.984C219.296 38.4693 220.435 39.0853 221.293 39.832C224.243 42.4453 225.717 46.5893 225.717 52.264V59.544C225.717 61.3733 225.829 62.6427 226.053 63.352C226.315 64.0613 226.856 64.416 227.677 64.416H230.197V66.936C226.763 68.0187 224.168 68.56 222.413 68.56C221.181 68.56 220.36 68.1493 219.949 67.328C219.539 66.5067 219.333 64.8827 219.333 62.456H219.109C217.952 64.36 216.421 65.8533 214.517 66.936C212.613 68.0187 210.56 68.56 208.357 68.56C206.005 68.56 204.157 67.9253 202.813 66.656C201.469 65.3867 200.797 63.632 200.797 61.392ZM211.773 64.472C212.557 64.472 213.416 64.2107 214.349 63.688C215.32 63.1653 216.16 62.4373 216.869 61.504C217.28 60.9813 217.672 60.2347 218.045 59.264C218.419 58.2933 218.605 57.136 218.605 55.792C218.605 55.344 218.587 54.84 218.549 54.28C218.512 53.72 218.456 53.1973 218.381 52.712C215.805 53.272 213.771 53.8693 212.277 54.504C210.821 55.1387 209.776 55.904 209.141 56.8C208.544 57.6587 208.245 58.7227 208.245 59.992C208.245 61.5973 208.619 62.7547 209.365 63.464C210.112 64.136 210.915 64.472 211.773 64.472ZM242.34 73.88L247.772 74.944V78.08H230.916V74.944L235.228 73.88V41.96L230.916 40.896V37.76H240.66L241.5 42.072C242.694 40.2053 244.038 38.936 245.532 38.264C247.062 37.5547 248.78 37.2 250.684 37.2C252.588 37.2 254.305 37.48 255.836 38.04C257.404 38.6 258.673 39.496 259.644 40.728C260.764 42.1467 261.641 43.864 262.276 45.88C262.948 47.8587 263.284 50.0053 263.284 52.32C263.284 54.7093 262.91 56.968 262.164 59.096C261.454 61.1867 260.484 62.9413 259.252 64.36C257.161 66.7867 254.156 68 250.236 68C248.63 68 247.174 67.7013 245.868 67.104C244.598 66.4693 243.422 65.3867 242.34 63.856V73.88ZM242.284 52.32C242.284 54.3733 242.452 56.1467 242.788 57.64C243.124 59.1333 243.572 60.3467 244.132 61.28C244.692 62.2133 245.401 62.9413 246.26 63.464C247.156 63.9867 248.182 64.248 249.34 64.248C250.497 64.248 251.43 64.0053 252.14 63.52C252.886 63.0347 253.484 62.4 253.932 61.616C254.492 60.6453 254.921 59.3947 255.22 57.864C255.556 56.3333 255.724 54.672 255.724 52.88C255.724 51.0133 255.556 49.2587 255.22 47.616C254.884 45.936 254.436 44.592 253.876 43.584C253.316 42.6133 252.625 41.9413 251.804 41.568C250.982 41.1947 250.049 41.008 249.004 41.008C247.846 41.008 246.876 41.2133 246.092 41.624C245.308 42.0347 244.636 42.688 244.076 43.584C243.553 44.4427 243.124 45.6 242.788 47.056C242.452 48.512 242.284 50.2667 242.284 52.32ZM290.15 63.8V52.992C290.15 50.5653 290.076 48.7733 289.926 47.616C289.814 46.4213 289.59 45.4693 289.254 44.76C288.358 42.9307 286.716 42.016 284.326 42.016C283.281 42.016 282.273 42.2773 281.302 42.8C280.332 43.3227 279.566 44.0693 279.006 45.04C278.708 45.5253 278.446 46.216 278.222 47.112C277.998 47.9707 277.886 49.0347 277.886 50.304V63.8L281.638 64.864V68H266.462V64.864L270.774 63.8V28.52L266.462 27.456V24.32H277.886V43.024C278.857 41.232 280.126 39.8133 281.694 38.768C283.3 37.7227 285.054 37.2 286.958 37.2C288.564 37.2 289.908 37.4053 290.99 37.816C292.11 38.1893 293.081 38.8053 293.902 39.664C295.06 40.8587 295.9 42.464 296.422 44.48C296.982 46.4587 297.262 49.0533 297.262 52.264V63.8L301.574 64.864V68H286.398V64.864L290.15 63.8ZM331.882 41.96L322.866 66.656C321.634 69.5307 320.514 71.8453 319.506 73.6C318.498 75.392 317.378 76.68 316.146 77.464C314.951 78.248 313.383 78.64 311.442 78.64C309.687 78.64 308.175 78.1733 306.906 77.24C305.674 76.3067 305.058 75.1307 305.058 73.712C305.058 72.4053 305.431 71.3227 306.178 70.464C306.962 69.6427 307.97 69.232 309.202 69.232C310.284 69.232 311.106 69.4747 311.666 69.96C312.263 70.4453 312.562 71.1733 312.562 72.144C312.562 72.5173 312.356 73.0213 311.946 73.656C311.572 74.328 310.919 74.664 309.986 74.664C310.06 75.0373 310.284 75.28 310.658 75.392C311.031 75.5413 311.348 75.616 311.61 75.616C312.132 75.616 312.618 75.504 313.066 75.28C313.514 75.0933 313.98 74.6267 314.466 73.88C314.988 73.1333 315.548 71.9947 316.146 70.464L316.818 68.392L305.562 41.96L302.202 40.896V37.76H316.426L316.874 40.896L312.898 41.96L319.786 61.392H320.01L326.226 41.96L322.978 40.896V37.76H335.298V40.896L331.882 41.96Z" fill="#726F68"/>
<path d="M349.133 79.0938C349.346 79.0938 349.565 79.0755 349.789 79.0391C350.013 79.0026 350.195 78.9583 350.336 78.9062V79.9141C350.185 79.9818 349.974 80.0391 349.703 80.0859C349.438 80.1328 349.177 80.1562 348.922 80.1562C348.469 80.1562 348.057 80.0781 347.688 79.9219C347.318 79.7604 347.021 79.4896 346.797 79.1094C346.578 78.7292 346.469 78.2031 346.469 77.5312V72.4531H345.25V71.8203L346.477 71.3125L346.992 69.4531H347.773V71.4375H350.281V72.4531H347.773V77.4922C347.773 78.0286 347.896 78.4297 348.141 78.6953C348.391 78.9609 348.721 79.0938 349.133 79.0938ZM355.273 71.2969C356.294 71.2969 357.052 71.526 357.547 71.9844C358.042 72.4427 358.289 73.1745 358.289 74.1797V80H357.344L357.094 78.7344H357.031C356.792 79.0469 356.542 79.3099 356.281 79.5234C356.021 79.7318 355.719 79.8906 355.375 80C355.036 80.1042 354.62 80.1562 354.125 80.1562C353.604 80.1562 353.141 80.0651 352.734 79.8828C352.333 79.7005 352.016 79.4245 351.781 79.0547C351.552 78.6849 351.438 78.2161 351.438 77.6484C351.438 76.7943 351.776 76.138 352.453 75.6797C353.13 75.2214 354.161 74.9714 355.547 74.9297L357.023 74.8672V74.3438C357.023 73.6042 356.865 73.0859 356.547 72.7891C356.229 72.4922 355.781 72.3438 355.203 72.3438C354.755 72.3438 354.328 72.4089 353.922 72.5391C353.516 72.6693 353.13 72.8229 352.766 73L352.367 72.0156C352.753 71.8177 353.195 71.6484 353.695 71.5078C354.195 71.3672 354.721 71.2969 355.273 71.2969ZM357.008 75.7812L355.703 75.8359C354.635 75.8776 353.883 76.0521 353.445 76.3594C353.008 76.6667 352.789 77.1016 352.789 77.6641C352.789 78.1536 352.938 78.5156 353.234 78.75C353.531 78.9844 353.924 79.1016 354.414 79.1016C355.174 79.1016 355.797 78.8906 356.281 78.4688C356.766 78.0469 357.008 77.4141 357.008 76.5703V75.7812ZM362.258 71.4375V80H360.961V71.4375H362.258ZM361.625 68.2344C361.839 68.2344 362.021 68.3047 362.172 68.4453C362.328 68.5807 362.406 68.7943 362.406 69.0859C362.406 69.3724 362.328 69.5859 362.172 69.7266C362.021 69.8672 361.839 69.9375 361.625 69.9375C361.401 69.9375 361.214 69.8672 361.062 69.7266C360.917 69.5859 360.844 69.3724 360.844 69.0859C360.844 68.7943 360.917 68.5807 361.062 68.4453C361.214 68.3047 361.401 68.2344 361.625 68.2344ZM366.312 80H365.008V67.8438H366.312V80Z" fill="#185EE7"/>
<path d="M324.646 73.6464C324.451 73.8417 324.451 74.1583 324.646 74.3536L327.828 77.5355C328.024 77.7308 328.34 77.7308 328.536 77.5355C328.731 77.3403 328.731 77.0237 328.536 76.8284L325.707 74L328.536 71.1716C328.731 70.9763 328.731 70.6597 328.536 70.4645C328.34 70.2692 328.024 70.2692 327.828 70.4645L324.646 73.6464ZM341 73.5H325V74.5H341V73.5Z" fill="#185EE7"/>
<path d="M194.672 89H193.367V76.8438H194.672V89ZM204.797 84.7031C204.797 85.4062 204.706 86.0339 204.523 86.5859C204.341 87.138 204.078 87.6042 203.734 87.9844C203.391 88.3646 202.974 88.6562 202.484 88.8594C202 89.0573 201.451 89.1562 200.836 89.1562C200.263 89.1562 199.737 89.0573 199.258 88.8594C198.784 88.6562 198.372 88.3646 198.023 87.9844C197.68 87.6042 197.411 87.138 197.219 86.5859C197.031 86.0339 196.938 85.4062 196.938 84.7031C196.938 83.7656 197.096 82.9688 197.414 82.3125C197.732 81.651 198.185 81.1484 198.773 80.8047C199.367 80.4557 200.073 80.2812 200.891 80.2812C201.672 80.2812 202.354 80.4557 202.938 80.8047C203.526 81.1536 203.982 81.6589 204.305 82.3203C204.633 82.9766 204.797 83.7708 204.797 84.7031ZM198.281 84.7031C198.281 85.3906 198.372 85.987 198.555 86.4922C198.737 86.9974 199.018 87.388 199.398 87.6641C199.779 87.9401 200.268 88.0781 200.867 88.0781C201.461 88.0781 201.948 87.9401 202.328 87.6641C202.714 87.388 202.997 86.9974 203.18 86.4922C203.362 85.987 203.453 85.3906 203.453 84.7031C203.453 84.0208 203.362 83.4323 203.18 82.9375C202.997 82.4375 202.716 82.0521 202.336 81.7812C201.956 81.5104 201.464 81.375 200.859 81.375C199.969 81.375 199.315 81.6693 198.898 82.2578C198.487 82.8464 198.281 83.6615 198.281 84.7031ZM214.422 84.7031C214.422 85.4062 214.331 86.0339 214.148 86.5859C213.966 87.138 213.703 87.6042 213.359 87.9844C213.016 88.3646 212.599 88.6562 212.109 88.8594C211.625 89.0573 211.076 89.1562 210.461 89.1562C209.888 89.1562 209.362 89.0573 208.883 88.8594C208.409 88.6562 207.997 88.3646 207.648 87.9844C207.305 87.6042 207.036 87.138 206.844 86.5859C206.656 86.0339 206.562 85.4062 206.562 84.7031C206.562 83.7656 206.721 82.9688 207.039 82.3125C207.357 81.651 207.81 81.1484 208.398 80.8047C208.992 80.4557 209.698 80.2812 210.516 80.2812C211.297 80.2812 211.979 80.4557 212.562 80.8047C213.151 81.1536 213.607 81.6589 213.93 82.3203C214.258 82.9766 214.422 83.7708 214.422 84.7031ZM207.906 84.7031C207.906 85.3906 207.997 85.987 208.18 86.4922C208.362 86.9974 208.643 87.388 209.023 87.6641C209.404 87.9401 209.893 88.0781 210.492 88.0781C211.086 88.0781 211.573 87.9401 211.953 87.6641C212.339 87.388 212.622 86.9974 212.805 86.4922C212.987 85.987 213.078 85.3906 213.078 84.7031C213.078 84.0208 212.987 83.4323 212.805 82.9375C212.622 82.4375 212.341 82.0521 211.961 81.7812C211.581 81.5104 211.089 81.375 210.484 81.375C209.594 81.375 208.94 81.6693 208.523 82.2578C208.112 82.8464 207.906 83.6615 207.906 84.7031ZM220.688 80.2812C221.755 80.2812 222.607 80.6484 223.242 81.3828C223.878 82.1172 224.195 83.2214 224.195 84.6953C224.195 85.6693 224.049 86.487 223.758 87.1484C223.466 87.8099 223.055 88.3099 222.523 88.6484C221.997 88.987 221.375 89.1562 220.656 89.1562C220.203 89.1562 219.805 89.0964 219.461 88.9766C219.117 88.8568 218.823 88.6953 218.578 88.4922C218.333 88.2891 218.13 88.0677 217.969 87.8281H217.875C217.891 88.0312 217.909 88.276 217.93 88.5625C217.956 88.849 217.969 89.099 217.969 89.3125V92.8281H216.664V80.4375H217.734L217.906 81.7031H217.969C218.135 81.4427 218.339 81.2057 218.578 80.9922C218.818 80.7734 219.109 80.6016 219.453 80.4766C219.802 80.3464 220.214 80.2812 220.688 80.2812ZM220.461 81.375C219.867 81.375 219.388 81.4896 219.023 81.7188C218.664 81.9479 218.401 82.2917 218.234 82.75C218.068 83.2031 217.979 83.7734 217.969 84.4609V84.7109C217.969 85.4349 218.047 86.0469 218.203 86.5469C218.365 87.0469 218.628 87.4271 218.992 87.6875C219.362 87.9479 219.857 88.0781 220.477 88.0781C221.008 88.0781 221.451 87.9349 221.805 87.6484C222.159 87.362 222.422 86.9635 222.594 86.4531C222.771 85.9375 222.859 85.3464 222.859 84.6797C222.859 83.6693 222.661 82.8672 222.266 82.2734C221.875 81.6745 221.273 81.375 220.461 81.375Z" fill="#185EE7"/>
<path d="M173.942 75.517C173.676 75.5885 173.517 75.8627 173.589 76.1294L174.754 80.4761C174.825 80.7428 175.099 80.9011 175.366 80.8296C175.633 80.7582 175.791 80.484 175.719 80.2173L174.684 76.3536L178.548 75.3183C178.815 75.2468 178.973 74.9726 178.901 74.7059C178.83 74.4392 178.556 74.2809 178.289 74.3524L173.942 75.517ZM188.178 83.567L174.322 75.567L173.822 76.433L187.678 84.433L188.178 83.567Z" fill="#185EE7"/>
<path d="M34.9062 90.6562C34.9062 91.2031 34.7682 91.6641 34.4922 92.0391C34.2214 92.4089 33.8307 92.6875 33.3203 92.875C32.8151 93.0625 32.2109 93.1562 31.5078 93.1562C30.9089 93.1562 30.3906 93.1094 29.9531 93.0156C29.5156 92.9219 29.1328 92.7891 28.8047 92.6172V91.4219C29.1536 91.5938 29.5703 91.75 30.0547 91.8906C30.5391 92.0312 31.0339 92.1016 31.5391 92.1016C32.2786 92.1016 32.8151 91.9818 33.1484 91.7422C33.4818 91.5026 33.6484 91.1771 33.6484 90.7656C33.6484 90.5312 33.5807 90.3255 33.4453 90.1484C33.3151 89.9661 33.0938 89.7917 32.7812 89.625C32.4688 89.4531 32.0365 89.2656 31.4844 89.0625C30.9375 88.8542 30.4635 88.6484 30.0625 88.4453C29.6667 88.237 29.3594 87.9844 29.1406 87.6875C28.9271 87.3906 28.8203 87.0052 28.8203 86.5312C28.8203 85.8073 29.112 85.2526 29.6953 84.8672C30.2839 84.4766 31.0547 84.2812 32.0078 84.2812C32.5234 84.2812 33.0052 84.3333 33.4531 84.4375C33.9062 84.5365 34.3281 84.6719 34.7188 84.8438L34.2812 85.8828C33.9271 85.7318 33.5495 85.6042 33.1484 85.5C32.7474 85.3958 32.3385 85.3438 31.9219 85.3438C31.3229 85.3438 30.862 85.4427 30.5391 85.6406C30.2214 85.8385 30.0625 86.1094 30.0625 86.4531C30.0625 86.7188 30.1354 86.9375 30.2812 87.1094C30.4323 87.2812 30.6719 87.4427 31 87.5938C31.3281 87.7448 31.7604 87.9219 32.2969 88.125C32.8333 88.3229 33.2969 88.5286 33.6875 88.7422C34.0781 88.9505 34.3776 89.2057 34.5859 89.5078C34.7995 89.8047 34.9062 90.1875 34.9062 90.6562ZM39.7578 92.0938C39.9714 92.0938 40.1901 92.0755 40.4141 92.0391C40.638 92.0026 40.8203 91.9583 40.9609 91.9062V92.9141C40.8099 92.9818 40.599 93.0391 40.3281 93.0859C40.0625 93.1328 39.8021 93.1562 39.5469 93.1562C39.0938 93.1562 38.6823 93.0781 38.3125 92.9219C37.9427 92.7604 37.6458 92.4896 37.4219 92.1094C37.2031 91.7292 37.0938 91.2031 37.0938 90.5312V85.4531H35.875V84.8203L37.1016 84.3125L37.6172 82.4531H38.3984V84.4375H40.9062V85.4531H38.3984V90.4922C38.3984 91.0286 38.5208 91.4297 38.7656 91.6953C39.0156 91.9609 39.3464 92.0938 39.7578 92.0938ZM45.9922 84.2812C46.7214 84.2812 47.3464 84.4427 47.8672 84.7656C48.388 85.0885 48.7865 85.5417 49.0625 86.125C49.3385 86.7031 49.4766 87.3802 49.4766 88.1562V88.9609H43.5625C43.5781 89.9661 43.8281 90.7318 44.3125 91.2578C44.7969 91.7839 45.4792 92.0469 46.3594 92.0469C46.901 92.0469 47.3802 91.9974 47.7969 91.8984C48.2135 91.7995 48.6458 91.6536 49.0938 91.4609V92.6016C48.6615 92.7943 48.2318 92.9349 47.8047 93.0234C47.3828 93.112 46.8828 93.1562 46.3047 93.1562C45.4818 93.1562 44.763 92.9896 44.1484 92.6562C43.5391 92.3177 43.0651 91.8229 42.7266 91.1719C42.388 90.5208 42.2188 89.724 42.2188 88.7812C42.2188 87.8594 42.3724 87.0625 42.6797 86.3906C42.9922 85.7135 43.4297 85.1927 43.9922 84.8281C44.5599 84.4635 45.2266 84.2812 45.9922 84.2812ZM45.9766 85.3438C45.2839 85.3438 44.7318 85.5703 44.3203 86.0234C43.9089 86.4766 43.6641 87.1094 43.5859 87.9219H48.1172C48.112 87.4115 48.0312 86.9635 47.875 86.5781C47.724 86.1875 47.4922 85.8854 47.1797 85.6719C46.8672 85.4531 46.4661 85.3438 45.9766 85.3438ZM60.9766 84.2812C61.9193 84.2812 62.6302 84.5286 63.1094 85.0234C63.5885 85.513 63.8281 86.3021 63.8281 87.3906V93H62.5469V87.4531C62.5469 86.7604 62.3958 86.2422 62.0938 85.8984C61.7969 85.5495 61.3542 85.375 60.7656 85.375C59.9375 85.375 59.3359 85.6146 58.9609 86.0938C58.5859 86.5729 58.3984 87.2786 58.3984 88.2109V93H57.1094V87.4531C57.1094 86.9896 57.0417 86.6042 56.9062 86.2969C56.776 85.9896 56.5781 85.7604 56.3125 85.6094C56.0521 85.4531 55.7214 85.375 55.3203 85.375C54.7526 85.375 54.2969 85.4922 53.9531 85.7266C53.6094 85.9609 53.3594 86.3099 53.2031 86.7734C53.0521 87.2318 52.9766 87.7969 52.9766 88.4688V93H51.6797V84.4375H52.7266L52.9219 85.6484H52.9922C53.1641 85.3516 53.3802 85.1016 53.6406 84.8984C53.901 84.6953 54.1927 84.5417 54.5156 84.4375C54.8385 84.3333 55.1823 84.2812 55.5469 84.2812C56.1979 84.2812 56.7422 84.4036 57.1797 84.6484C57.6224 84.888 57.9427 85.2552 58.1406 85.75H58.2109C58.4922 85.2552 58.8776 84.888 59.3672 84.6484C59.8568 84.4036 60.3932 84.2812 60.9766 84.2812Z" fill="#185EE7"/>
<path d="M21.1294 68.517C20.8627 68.4456 20.5885 68.6039 20.517 68.8706L19.3524 73.2173C19.2809 73.484 19.4392 73.7582 19.7059 73.8296C19.9726 73.9011 20.2468 73.7428 20.3183 73.4761L21.3536 69.6124L25.2173 70.6476C25.484 70.7191 25.7582 70.5608 25.8296 70.2941C25.9011 70.0274 25.7428 69.7532 25.4761 69.6817L21.1294 68.517ZM29.433 82.6064L21.433 68.75L20.567 69.25L28.567 83.1064L29.433 82.6064Z" fill="#185EE7"/>
<path d="M197.664 21.2812C198.393 21.2812 199.018 21.4427 199.539 21.7656C200.06 22.0885 200.458 22.5417 200.734 23.125C201.01 23.7031 201.148 24.3802 201.148 25.1562V25.9609H195.234C195.25 26.9661 195.5 27.7318 195.984 28.2578C196.469 28.7839 197.151 29.0469 198.031 29.0469C198.573 29.0469 199.052 28.9974 199.469 28.8984C199.885 28.7995 200.318 28.6536 200.766 28.4609V29.6016C200.333 29.7943 199.904 29.9349 199.477 30.0234C199.055 30.112 198.555 30.1562 197.977 30.1562C197.154 30.1562 196.435 29.9896 195.82 29.6562C195.211 29.3177 194.737 28.8229 194.398 28.1719C194.06 27.5208 193.891 26.724 193.891 25.7812C193.891 24.8594 194.044 24.0625 194.352 23.3906C194.664 22.7135 195.102 22.1927 195.664 21.8281C196.232 21.4635 196.898 21.2812 197.664 21.2812ZM197.648 22.3438C196.956 22.3438 196.404 22.5703 195.992 23.0234C195.581 23.4766 195.336 24.1094 195.258 24.9219H199.789C199.784 24.4115 199.703 23.9635 199.547 23.5781C199.396 23.1875 199.164 22.8854 198.852 22.6719C198.539 22.4531 198.138 22.3438 197.648 22.3438ZM206.555 21.2969C207.576 21.2969 208.333 21.526 208.828 21.9844C209.323 22.4427 209.57 23.1745 209.57 24.1797V30H208.625L208.375 28.7344H208.312C208.073 29.0469 207.823 29.3099 207.562 29.5234C207.302 29.7318 207 29.8906 206.656 30C206.318 30.1042 205.901 30.1562 205.406 30.1562C204.885 30.1562 204.422 30.0651 204.016 29.8828C203.615 29.7005 203.297 29.4245 203.062 29.0547C202.833 28.6849 202.719 28.2161 202.719 27.6484C202.719 26.7943 203.057 26.138 203.734 25.6797C204.411 25.2214 205.443 24.9714 206.828 24.9297L208.305 24.8672V24.3438C208.305 23.6042 208.146 23.0859 207.828 22.7891C207.51 22.4922 207.062 22.3438 206.484 22.3438C206.036 22.3438 205.609 22.4089 205.203 22.5391C204.797 22.6693 204.411 22.8229 204.047 23L203.648 22.0156C204.034 21.8177 204.477 21.6484 204.977 21.5078C205.477 21.3672 206.003 21.2969 206.555 21.2969ZM208.289 25.7812L206.984 25.8359C205.917 25.8776 205.164 26.0521 204.727 26.3594C204.289 26.6667 204.07 27.1016 204.07 27.6641C204.07 28.1536 204.219 28.5156 204.516 28.75C204.812 28.9844 205.206 29.1016 205.695 29.1016C206.456 29.1016 207.078 28.8906 207.562 28.4688C208.047 28.0469 208.289 27.4141 208.289 26.5703V25.7812ZM216.133 21.2812C216.305 21.2812 216.484 21.2917 216.672 21.3125C216.859 21.3281 217.026 21.3516 217.172 21.3828L217.008 22.5859C216.867 22.5495 216.711 22.5208 216.539 22.5C216.367 22.4792 216.206 22.4688 216.055 22.4688C215.711 22.4688 215.385 22.5391 215.078 22.6797C214.776 22.8151 214.51 23.013 214.281 23.2734C214.052 23.5286 213.872 23.8385 213.742 24.2031C213.612 24.5625 213.547 24.9635 213.547 25.4062V30H212.242V21.4375H213.32L213.461 23.0156H213.516C213.693 22.6979 213.906 22.4089 214.156 22.1484C214.406 21.8828 214.695 21.6719 215.023 21.5156C215.357 21.3594 215.727 21.2812 216.133 21.2812Z" fill="#185EE7"/>
<path d="M174.517 32.8706C174.446 33.1373 174.604 33.4115 174.871 33.483L179.217 34.6476C179.484 34.7191 179.758 34.5608 179.83 34.2941C179.901 34.0274 179.743 33.7532 179.476 33.6817L175.612 32.6464L176.648 28.7827C176.719 28.516 176.561 28.2418 176.294 28.1704C176.027 28.0989 175.753 28.2572 175.682 28.5239L174.517 32.8706ZM188.606 24.567L174.75 32.567L175.25 33.433L189.106 25.433L188.606 24.567Z" fill="#185EE7"/>
<path d="M285.906 16.6562C285.906 17.2031 285.768 17.6641 285.492 18.0391C285.221 18.4089 284.831 18.6875 284.32 18.875C283.815 19.0625 283.211 19.1562 282.508 19.1562C281.909 19.1562 281.391 19.1094 280.953 19.0156C280.516 18.9219 280.133 18.7891 279.805 18.6172V17.4219C280.154 17.5938 280.57 17.75 281.055 17.8906C281.539 18.0312 282.034 18.1016 282.539 18.1016C283.279 18.1016 283.815 17.9818 284.148 17.7422C284.482 17.5026 284.648 17.1771 284.648 16.7656C284.648 16.5312 284.581 16.3255 284.445 16.1484C284.315 15.9661 284.094 15.7917 283.781 15.625C283.469 15.4531 283.036 15.2656 282.484 15.0625C281.938 14.8542 281.464 14.6484 281.062 14.4453C280.667 14.237 280.359 13.9844 280.141 13.6875C279.927 13.3906 279.82 13.0052 279.82 12.5312C279.82 11.8073 280.112 11.2526 280.695 10.8672C281.284 10.4766 282.055 10.2812 283.008 10.2812C283.523 10.2812 284.005 10.3333 284.453 10.4375C284.906 10.5365 285.328 10.6719 285.719 10.8438L285.281 11.8828C284.927 11.7318 284.549 11.6042 284.148 11.5C283.747 11.3958 283.339 11.3438 282.922 11.3438C282.323 11.3438 281.862 11.4427 281.539 11.6406C281.221 11.8385 281.062 12.1094 281.062 12.4531C281.062 12.7188 281.135 12.9375 281.281 13.1094C281.432 13.2812 281.672 13.4427 282 13.5938C282.328 13.7448 282.76 13.9219 283.297 14.125C283.833 14.3229 284.297 14.5286 284.688 14.7422C285.078 14.9505 285.378 15.2057 285.586 15.5078C285.799 15.8047 285.906 16.1875 285.906 16.6562ZM289.289 6.84375V10.4766C289.289 10.6849 289.284 10.8958 289.273 11.1094C289.263 11.3177 289.245 11.5104 289.219 11.6875H289.305C289.482 11.3854 289.706 11.1328 289.977 10.9297C290.253 10.7214 290.565 10.5651 290.914 10.4609C291.263 10.3516 291.633 10.2969 292.023 10.2969C292.711 10.2969 293.284 10.4062 293.742 10.625C294.206 10.8438 294.552 11.1823 294.781 11.6406C295.016 12.099 295.133 12.6927 295.133 13.4219V19H293.852V13.5078C293.852 12.7943 293.688 12.2604 293.359 11.9062C293.036 11.5521 292.539 11.375 291.867 11.375C291.232 11.375 290.724 11.4974 290.344 11.7422C289.969 11.9818 289.698 12.3359 289.531 12.8047C289.37 13.2734 289.289 13.8464 289.289 14.5234V19H287.992V6.84375H289.289ZM305.188 14.7031C305.188 15.4062 305.096 16.0339 304.914 16.5859C304.732 17.138 304.469 17.6042 304.125 17.9844C303.781 18.3646 303.365 18.6562 302.875 18.8594C302.391 19.0573 301.841 19.1562 301.227 19.1562C300.654 19.1562 300.128 19.0573 299.648 18.8594C299.174 18.6562 298.763 18.3646 298.414 17.9844C298.07 17.6042 297.802 17.138 297.609 16.5859C297.422 16.0339 297.328 15.4062 297.328 14.7031C297.328 13.7656 297.487 12.9688 297.805 12.3125C298.122 11.651 298.576 11.1484 299.164 10.8047C299.758 10.4557 300.464 10.2812 301.281 10.2812C302.062 10.2812 302.745 10.4557 303.328 10.8047C303.917 11.1536 304.372 11.6589 304.695 12.3203C305.023 12.9766 305.188 13.7708 305.188 14.7031ZM298.672 14.7031C298.672 15.3906 298.763 15.987 298.945 16.4922C299.128 16.9974 299.409 17.388 299.789 17.6641C300.169 17.9401 300.659 18.0781 301.258 18.0781C301.852 18.0781 302.339 17.9401 302.719 17.6641C303.104 17.388 303.388 16.9974 303.57 16.4922C303.753 15.987 303.844 15.3906 303.844 14.7031C303.844 14.0208 303.753 13.4323 303.57 12.9375C303.388 12.4375 303.107 12.0521 302.727 11.7812C302.346 11.5104 301.854 11.375 301.25 11.375C300.359 11.375 299.706 11.6693 299.289 12.2578C298.878 12.8464 298.672 13.6615 298.672 14.7031ZM314.5 10.4375V19H313.438L313.25 17.7969H313.18C313.003 18.0938 312.773 18.3438 312.492 18.5469C312.211 18.75 311.893 18.901 311.539 19C311.19 19.1042 310.818 19.1562 310.422 19.1562C309.745 19.1562 309.177 19.0469 308.719 18.8281C308.26 18.6094 307.914 18.2708 307.68 17.8125C307.451 17.3542 307.336 16.7656 307.336 16.0469V10.4375H308.648V15.9531C308.648 16.6667 308.81 17.2005 309.133 17.5547C309.456 17.9036 309.948 18.0781 310.609 18.0781C311.245 18.0781 311.75 17.9583 312.125 17.7188C312.505 17.4792 312.779 17.1276 312.945 16.6641C313.112 16.1953 313.195 15.6224 313.195 14.9453V10.4375H314.5ZM318.547 19H317.242V6.84375H318.547V19ZM324.336 19.1562C323.253 19.1562 322.393 18.7865 321.758 18.0469C321.128 17.3073 320.812 16.2083 320.812 14.75C320.812 13.276 321.135 12.1641 321.781 11.4141C322.427 10.6589 323.286 10.2812 324.359 10.2812C324.812 10.2812 325.208 10.3411 325.547 10.4609C325.885 10.5807 326.177 10.7422 326.422 10.9453C326.667 11.1432 326.872 11.3698 327.039 11.625H327.133C327.112 11.4635 327.091 11.2422 327.07 10.9609C327.049 10.6797 327.039 10.4505 327.039 10.2734V6.84375H328.336V19H327.289L327.094 17.7812H327.039C326.878 18.0365 326.672 18.2682 326.422 18.4766C326.177 18.6849 325.883 18.8516 325.539 18.9766C325.201 19.0964 324.799 19.1562 324.336 19.1562ZM324.539 18.0781C325.456 18.0781 326.104 17.8177 326.484 17.2969C326.865 16.776 327.055 16.0026 327.055 14.9766V14.7422C327.055 13.6536 326.872 12.8177 326.508 12.2344C326.148 11.651 325.492 11.3594 324.539 11.3594C323.742 11.3594 323.146 11.6667 322.75 12.2812C322.354 12.8906 322.156 13.724 322.156 14.7812C322.156 15.8333 322.352 16.6458 322.742 17.2188C323.138 17.7917 323.737 18.0781 324.539 18.0781ZM334.383 10.2812C335.112 10.2812 335.737 10.4427 336.258 10.7656C336.779 11.0885 337.177 11.5417 337.453 12.125C337.729 12.7031 337.867 13.3802 337.867 14.1562V14.9609H331.953C331.969 15.9661 332.219 16.7318 332.703 17.2578C333.188 17.7839 333.87 18.0469 334.75 18.0469C335.292 18.0469 335.771 17.9974 336.188 17.8984C336.604 17.7995 337.036 17.6536 337.484 17.4609V18.6016C337.052 18.7943 336.622 18.9349 336.195 19.0234C335.773 19.112 335.273 19.1562 334.695 19.1562C333.872 19.1562 333.154 18.9896 332.539 18.6562C331.93 18.3177 331.456 17.8229 331.117 17.1719C330.779 16.5208 330.609 15.724 330.609 14.7812C330.609 13.8594 330.763 13.0625 331.07 12.3906C331.383 11.7135 331.82 11.1927 332.383 10.8281C332.951 10.4635 333.617 10.2812 334.383 10.2812ZM334.367 11.3438C333.674 11.3438 333.122 11.5703 332.711 12.0234C332.299 12.4766 332.055 13.1094 331.977 13.9219H336.508C336.503 13.4115 336.422 12.9635 336.266 12.5781C336.115 12.1875 335.883 11.8854 335.57 11.6719C335.258 11.4531 334.857 11.3438 334.367 11.3438ZM343.961 10.2812C344.133 10.2812 344.312 10.2917 344.5 10.3125C344.688 10.3281 344.854 10.3516 345 10.3828L344.836 11.5859C344.695 11.5495 344.539 11.5208 344.367 11.5C344.195 11.4792 344.034 11.4688 343.883 11.4688C343.539 11.4688 343.214 11.5391 342.906 11.6797C342.604 11.8151 342.339 12.013 342.109 12.2734C341.88 12.5286 341.701 12.8385 341.57 13.2031C341.44 13.5625 341.375 13.9635 341.375 14.4062V19H340.07V10.4375H341.148L341.289 12.0156H341.344C341.521 11.6979 341.734 11.4089 341.984 11.1484C342.234 10.8828 342.523 10.6719 342.852 10.5156C343.185 10.3594 343.555 10.2812 343.961 10.2812Z" fill="#185EE7"/>
<path d="M295.517 34.9859C295.589 35.2526 295.863 35.4109 296.129 35.3394L300.476 34.1747C300.743 34.1033 300.901 33.8291 300.83 33.5624C300.758 33.2956 300.484 33.1373 300.217 33.2088L296.354 34.2441L295.318 30.3804C295.247 30.1136 294.973 29.9553 294.706 30.0268C294.439 30.0983 294.281 30.3725 294.352 30.6392L295.517 34.9859ZM303.567 20.75L295.567 34.6064L296.433 35.1064L304.433 21.25L303.567 20.75Z" fill="#185EE7"/>
<path d="M38.7969 18.1562C38.026 18.1562 37.3464 17.9974 36.7578 17.6797C36.1693 17.362 35.7109 16.8776 35.3828 16.2266C35.0547 15.5755 34.8906 14.7552 34.8906 13.7656C34.8906 12.7292 35.0625 11.8828 35.4062 11.2266C35.7552 10.5651 36.2344 10.0755 36.8438 9.75781C37.4531 9.4401 38.1458 9.28125 38.9219 9.28125C39.349 9.28125 39.7604 9.32552 40.1562 9.41406C40.5573 9.4974 40.8854 9.60417 41.1406 9.73438L40.75 10.8203C40.4896 10.7161 40.1875 10.6224 39.8438 10.5391C39.5052 10.4557 39.1875 10.4141 38.8906 10.4141C38.2969 10.4141 37.8021 10.5417 37.4062 10.7969C37.0156 11.0521 36.7214 11.4271 36.5234 11.9219C36.3307 12.4167 36.2344 13.026 36.2344 13.75C36.2344 14.4427 36.3281 15.0339 36.5156 15.5234C36.7083 16.013 36.9922 16.388 37.3672 16.6484C37.7474 16.9036 38.2214 17.0312 38.7891 17.0312C39.2422 17.0312 39.651 16.9844 40.0156 16.8906C40.3802 16.7917 40.7109 16.6771 41.0078 16.5469V17.7031C40.7214 17.849 40.401 17.9609 40.0469 18.0391C39.6979 18.1172 39.2812 18.1562 38.7969 18.1562ZM44.3438 18H43.0391V5.84375H44.3438V18ZM54.4688 13.7031C54.4688 14.4062 54.3776 15.0339 54.1953 15.5859C54.013 16.138 53.75 16.6042 53.4062 16.9844C53.0625 17.3646 52.6458 17.6562 52.1562 17.8594C51.6719 18.0573 51.1224 18.1562 50.5078 18.1562C49.9349 18.1562 49.4089 18.0573 48.9297 17.8594C48.4557 17.6562 48.0443 17.3646 47.6953 16.9844C47.3516 16.6042 47.0833 16.138 46.8906 15.5859C46.7031 15.0339 46.6094 14.4062 46.6094 13.7031C46.6094 12.7656 46.7682 11.9688 47.0859 11.3125C47.4036 10.651 47.8568 10.1484 48.4453 9.80469C49.0391 9.45573 49.7448 9.28125 50.5625 9.28125C51.3438 9.28125 52.026 9.45573 52.6094 9.80469C53.1979 10.1536 53.6536 10.6589 53.9766 11.3203C54.3047 11.9766 54.4688 12.7708 54.4688 13.7031ZM47.9531 13.7031C47.9531 14.3906 48.0443 14.987 48.2266 15.4922C48.4089 15.9974 48.6901 16.388 49.0703 16.6641C49.4505 16.9401 49.9401 17.0781 50.5391 17.0781C51.1328 17.0781 51.6198 16.9401 52 16.6641C52.3854 16.388 52.6693 15.9974 52.8516 15.4922C53.0339 14.987 53.125 14.3906 53.125 13.7031C53.125 13.0208 53.0339 12.4323 52.8516 11.9375C52.6693 11.4375 52.388 11.0521 52.0078 10.7812C51.6276 10.5104 51.1354 10.375 50.5312 10.375C49.6406 10.375 48.987 10.6693 48.5703 11.2578C48.1589 11.8464 47.9531 12.6615 47.9531 13.7031ZM62.25 15.6562C62.25 16.2031 62.112 16.6641 61.8359 17.0391C61.5651 17.4089 61.1745 17.6875 60.6641 17.875C60.1589 18.0625 59.5547 18.1562 58.8516 18.1562C58.2526 18.1562 57.7344 18.1094 57.2969 18.0156C56.8594 17.9219 56.4766 17.7891 56.1484 17.6172V16.4219C56.4974 16.5938 56.9141 16.75 57.3984 16.8906C57.8828 17.0312 58.3776 17.1016 58.8828 17.1016C59.6224 17.1016 60.1589 16.9818 60.4922 16.7422C60.8255 16.5026 60.9922 16.1771 60.9922 15.7656C60.9922 15.5312 60.9245 15.3255 60.7891 15.1484C60.6589 14.9661 60.4375 14.7917 60.125 14.625C59.8125 14.4531 59.3802 14.2656 58.8281 14.0625C58.2812 13.8542 57.8073 13.6484 57.4062 13.4453C57.0104 13.237 56.7031 12.9844 56.4844 12.6875C56.2708 12.3906 56.1641 12.0052 56.1641 11.5312C56.1641 10.8073 56.4557 10.2526 57.0391 9.86719C57.6276 9.47656 58.3984 9.28125 59.3516 9.28125C59.8672 9.28125 60.349 9.33333 60.7969 9.4375C61.25 9.53646 61.6719 9.67188 62.0625 9.84375L61.625 10.8828C61.2708 10.7318 60.8932 10.6042 60.4922 10.5C60.0911 10.3958 59.6823 10.3438 59.2656 10.3438C58.6667 10.3438 58.2057 10.4427 57.8828 10.6406C57.5651 10.8385 57.4062 11.1094 57.4062 11.4531C57.4062 11.7188 57.4792 11.9375 57.625 12.1094C57.776 12.2812 58.0156 12.4427 58.3438 12.5938C58.6719 12.7448 59.1042 12.9219 59.6406 13.125C60.1771 13.3229 60.6406 13.5286 61.0312 13.7422C61.4219 13.9505 61.7214 14.2057 61.9297 14.5078C62.1432 14.8047 62.25 15.1875 62.25 15.6562ZM67.6328 9.28125C68.362 9.28125 68.987 9.44271 69.5078 9.76562C70.0286 10.0885 70.4271 10.5417 70.7031 11.125C70.9792 11.7031 71.1172 12.3802 71.1172 13.1562V13.9609H65.2031C65.2188 14.9661 65.4688 15.7318 65.9531 16.2578C66.4375 16.7839 67.1198 17.0469 68 17.0469C68.5417 17.0469 69.0208 16.9974 69.4375 16.8984C69.8542 16.7995 70.2865 16.6536 70.7344 16.4609V17.6016C70.3021 17.7943 69.8724 17.9349 69.4453 18.0234C69.0234 18.112 68.5234 18.1562 67.9453 18.1562C67.1224 18.1562 66.4036 17.9896 65.7891 17.6562C65.1797 17.3177 64.7057 16.8229 64.3672 16.1719C64.0286 15.5208 63.8594 14.724 63.8594 13.7812C63.8594 12.8594 64.013 12.0625 64.3203 11.3906C64.6328 10.7135 65.0703 10.1927 65.6328 9.82812C66.2005 9.46354 66.8672 9.28125 67.6328 9.28125ZM67.6172 10.3438C66.9245 10.3438 66.3724 10.5703 65.9609 11.0234C65.5495 11.4766 65.3047 12.1094 65.2266 12.9219H69.7578C69.7526 12.4115 69.6719 11.9635 69.5156 11.5781C69.3646 11.1875 69.1328 10.8854 68.8203 10.6719C68.5078 10.4531 68.1068 10.3438 67.6172 10.3438ZM76.3672 18.1562C75.2839 18.1562 74.4245 17.7865 73.7891 17.0469C73.1589 16.3073 72.8438 15.2083 72.8438 13.75C72.8438 12.276 73.1667 11.1641 73.8125 10.4141C74.4583 9.65885 75.3177 9.28125 76.3906 9.28125C76.8438 9.28125 77.2396 9.34115 77.5781 9.46094C77.9167 9.58073 78.2083 9.74219 78.4531 9.94531C78.6979 10.1432 78.9036 10.3698 79.0703 10.625H79.1641C79.1432 10.4635 79.1224 10.2422 79.1016 9.96094C79.0807 9.67969 79.0703 9.45052 79.0703 9.27344V5.84375H80.3672V18H79.3203L79.125 16.7812H79.0703C78.9089 17.0365 78.7031 17.2682 78.4531 17.4766C78.2083 17.6849 77.9141 17.8516 77.5703 17.9766C77.2318 18.0964 76.8307 18.1562 76.3672 18.1562ZM76.5703 17.0781C77.487 17.0781 78.1354 16.8177 78.5156 16.2969C78.8958 15.776 79.0859 15.0026 79.0859 13.9766V13.7422C79.0859 12.6536 78.9036 11.8177 78.5391 11.2344C78.1797 10.651 77.5234 10.3594 76.5703 10.3594C75.7734 10.3594 75.1771 10.6667 74.7812 11.2812C74.3854 11.8906 74.1875 12.724 74.1875 13.7812C74.1875 14.8333 74.3828 15.6458 74.7734 16.2188C75.1693 16.7917 75.7682 17.0781 76.5703 17.0781ZM90.7031 18.1562C89.9323 18.1562 89.2526 17.9974 88.6641 17.6797C88.0755 17.362 87.6172 16.8776 87.2891 16.2266C86.9609 15.5755 86.7969 14.7552 86.7969 13.7656C86.7969 12.7292 86.9688 11.8828 87.3125 11.2266C87.6615 10.5651 88.1406 10.0755 88.75 9.75781C89.3594 9.4401 90.0521 9.28125 90.8281 9.28125C91.2552 9.28125 91.6667 9.32552 92.0625 9.41406C92.4635 9.4974 92.7917 9.60417 93.0469 9.73438L92.6562 10.8203C92.3958 10.7161 92.0938 10.6224 91.75 10.5391C91.4115 10.4557 91.0938 10.4141 90.7969 10.4141C90.2031 10.4141 89.7083 10.5417 89.3125 10.7969C88.9219 11.0521 88.6276 11.4271 88.4297 11.9219C88.237 12.4167 88.1406 13.026 88.1406 13.75C88.1406 14.4427 88.2344 15.0339 88.4219 15.5234C88.6146 16.013 88.8984 16.388 89.2734 16.6484C89.6536 16.9036 90.1276 17.0312 90.6953 17.0312C91.1484 17.0312 91.5573 16.9844 91.9219 16.8906C92.2865 16.7917 92.6172 16.6771 92.9141 16.5469V17.7031C92.6276 17.849 92.3073 17.9609 91.9531 18.0391C91.6042 18.1172 91.1875 18.1562 90.7031 18.1562ZM102.328 13.7031C102.328 14.4062 102.237 15.0339 102.055 15.5859C101.872 16.138 101.609 16.6042 101.266 16.9844C100.922 17.3646 100.505 17.6562 100.016 17.8594C99.5312 18.0573 98.9818 18.1562 98.3672 18.1562C97.7943 18.1562 97.2682 18.0573 96.7891 17.8594C96.3151 17.6562 95.9036 17.3646 95.5547 16.9844C95.2109 16.6042 94.9427 16.138 94.75 15.5859C94.5625 15.0339 94.4688 14.4062 94.4688 13.7031C94.4688 12.7656 94.6276 11.9688 94.9453 11.3125C95.263 10.651 95.7161 10.1484 96.3047 9.80469C96.8984 9.45573 97.6042 9.28125 98.4219 9.28125C99.2031 9.28125 99.8854 9.45573 100.469 9.80469C101.057 10.1536 101.513 10.6589 101.836 11.3203C102.164 11.9766 102.328 12.7708 102.328 13.7031ZM95.8125 13.7031C95.8125 14.3906 95.9036 14.987 96.0859 15.4922C96.2682 15.9974 96.5495 16.388 96.9297 16.6641C97.3099 16.9401 97.7995 17.0781 98.3984 17.0781C98.9922 17.0781 99.4792 16.9401 99.8594 16.6641C100.245 16.388 100.529 15.9974 100.711 15.4922C100.893 14.987 100.984 14.3906 100.984 13.7031C100.984 13.0208 100.893 12.4323 100.711 11.9375C100.529 11.4375 100.247 11.0521 99.8672 10.7812C99.487 10.5104 98.9948 10.375 98.3906 10.375C97.5 10.375 96.8464 10.6693 96.4297 11.2578C96.0182 11.8464 95.8125 12.6615 95.8125 13.7031ZM111.641 9.4375V18H110.578L110.391 16.7969H110.32C110.143 17.0938 109.914 17.3438 109.633 17.5469C109.352 17.75 109.034 17.901 108.68 18C108.331 18.1042 107.958 18.1562 107.562 18.1562C106.885 18.1562 106.318 18.0469 105.859 17.8281C105.401 17.6094 105.055 17.2708 104.82 16.8125C104.591 16.3542 104.477 15.7656 104.477 15.0469V9.4375H105.789V14.9531C105.789 15.6667 105.951 16.2005 106.273 16.5547C106.596 16.9036 107.089 17.0781 107.75 17.0781C108.385 17.0781 108.891 16.9583 109.266 16.7188C109.646 16.4792 109.919 16.1276 110.086 15.6641C110.253 15.1953 110.336 14.6224 110.336 13.9453V9.4375H111.641ZM118.438 9.28125C119.453 9.28125 120.221 9.53125 120.742 10.0312C121.263 10.526 121.523 11.3229 121.523 12.4219V18H120.242V12.5078C120.242 11.7943 120.078 11.2604 119.75 10.9062C119.427 10.5521 118.93 10.375 118.258 10.375C117.31 10.375 116.643 10.6432 116.258 11.1797C115.872 11.7161 115.68 12.4948 115.68 13.5156V18H114.383V9.4375H115.43L115.625 10.6719H115.695C115.878 10.3698 116.109 10.1172 116.391 9.91406C116.672 9.70573 116.987 9.54948 117.336 9.44531C117.685 9.33594 118.052 9.28125 118.438 9.28125ZM126.961 17.0938C127.174 17.0938 127.393 17.0755 127.617 17.0391C127.841 17.0026 128.023 16.9583 128.164 16.9062V17.9141C128.013 17.9818 127.802 18.0391 127.531 18.0859C127.266 18.1328 127.005 18.1562 126.75 18.1562C126.297 18.1562 125.885 18.0781 125.516 17.9219C125.146 17.7604 124.849 17.4896 124.625 17.1094C124.406 16.7292 124.297 16.2031 124.297 15.5312V10.4531H123.078V9.82031L124.305 9.3125L124.82 7.45312H125.602V9.4375H128.109V10.4531H125.602V15.4922C125.602 16.0286 125.724 16.4297 125.969 16.6953C126.219 16.9609 126.549 17.0938 126.961 17.0938ZM133.195 9.28125C133.924 9.28125 134.549 9.44271 135.07 9.76562C135.591 10.0885 135.99 10.5417 136.266 11.125C136.542 11.7031 136.68 12.3802 136.68 13.1562V13.9609H130.766C130.781 14.9661 131.031 15.7318 131.516 16.2578C132 16.7839 132.682 17.0469 133.562 17.0469C134.104 17.0469 134.583 16.9974 135 16.8984C135.417 16.7995 135.849 16.6536 136.297 16.4609V17.6016C135.865 17.7943 135.435 17.9349 135.008 18.0234C134.586 18.112 134.086 18.1562 133.508 18.1562C132.685 18.1562 131.966 17.9896 131.352 17.6562C130.742 17.3177 130.268 16.8229 129.93 16.1719C129.591 15.5208 129.422 14.724 129.422 13.7812C129.422 12.8594 129.576 12.0625 129.883 11.3906C130.195 10.7135 130.633 10.1927 131.195 9.82812C131.763 9.46354 132.43 9.28125 133.195 9.28125ZM133.18 10.3438C132.487 10.3438 131.935 10.5703 131.523 11.0234C131.112 11.4766 130.867 12.1094 130.789 12.9219H135.32C135.315 12.4115 135.234 11.9635 135.078 11.5781C134.927 11.1875 134.695 10.8854 134.383 10.6719C134.07 10.4531 133.669 10.3438 133.18 10.3438ZM142.773 9.28125C142.945 9.28125 143.125 9.29167 143.312 9.3125C143.5 9.32812 143.667 9.35156 143.812 9.38281L143.648 10.5859C143.508 10.5495 143.352 10.5208 143.18 10.5C143.008 10.4792 142.846 10.4688 142.695 10.4688C142.352 10.4688 142.026 10.5391 141.719 10.6797C141.417 10.8151 141.151 11.013 140.922 11.2734C140.693 11.5286 140.513 11.8385 140.383 12.2031C140.253 12.5625 140.188 12.9635 140.188 13.4062V18H138.883V9.4375H139.961L140.102 11.0156H140.156C140.333 10.6979 140.547 10.4089 140.797 10.1484C141.047 9.88281 141.336 9.67188 141.664 9.51562C141.997 9.35938 142.367 9.28125 142.773 9.28125Z" fill="#185EE7"/>
<path d="M90.6464 36.3536C90.8417 36.5488 91.1583 36.5488 91.3536 36.3536L94.5355 33.1716C94.7308 32.9763 94.7308 32.6597 94.5355 32.4645C94.3403 32.2692 94.0237 32.2692 93.8284 32.4645L91 35.2929L88.1716 32.4645C87.9763 32.2692 87.6597 32.2692 87.4645 32.4645C87.2692 32.6597 87.2692 32.9763 87.4645 33.1716L90.6464 36.3536ZM90.5 20V36H91.5V20H90.5Z" fill="#185EE7"/>
<circle cx="311" cy="74" r="9" stroke="#E7A118" stroke-opacity="0.75" stroke-width="2"/>
<circle cx="169" cy="40" r="7" stroke="#E7A118" stroke-opacity="0.75" stroke-width="2"/>
<rect x="139" y="59" width="34" height="21" rx="10.5" stroke="#E7A118" stroke-opacity="0.75" stroke-width="2"/>
<rect x="277.9" y="36" width="19" height="12" fill="#E7A118" fill-opacity="0.6"/>
<rect x="15.23" y="27.6504" width="7.29" height="40.4" fill="#E7A118" fill-opacity="0.75"/>
</svg>
