<svg width="123" height="69" viewBox="0 0 123 69" fill="none" xmlns="http://www.w3.org/2000/svg">
<path d="M29.84 43.576L26.984 34.896H13.32L10.408 43.576L15.056 44.752V48H0.272V44.752L4.864 43.576L17.968 7.12H24.856L37.848 43.576L42.328 44.752V48H25.248V44.752L29.84 43.576ZM20.208 14.512L14.72 30.808H25.64L20.432 14.512H20.208ZM94.0913 12.104V25.768L107.251 12.104L102.155 10.928V7.68H118.563V10.928L113.635 12.104L101.371 24.256L117.443 43.688L122.147 44.752V48H104.843V44.752L108.539 43.632L96.6673 28.96L94.0913 31.424V43.576L98.7953 44.752V48H81.5473V44.752L86.8113 43.576V12.104L81.5473 10.928V7.68H98.7953V10.928L94.0913 12.104Z" fill="#726F68"/>
<path d="M14.7161 30.7998H25.6539L27 34.8998H13.3L14.7161 30.7998Z" fill="#E7A118" fill-opacity="0.75"/>
<rect x="101.312" y="23.9873" width="25.1553" height="6.83568" transform="rotate(51 101.312 23.9873)" fill="#E7A118" fill-opacity="0.75"/>
<path d="M6.44531 52.5859C5.8151 52.5859 5.2474 52.6953 4.74219 52.9141C4.24219 53.1276 3.8151 53.4401 3.46094 53.8516C3.11198 54.2578 2.84375 54.75 2.65625 55.3281C2.46875 55.9062 2.375 56.5573 2.375 57.2812C2.375 58.2396 2.52344 59.0729 2.82031 59.7812C3.1224 60.4844 3.57031 61.0286 4.16406 61.4141C4.76302 61.7995 5.51042 61.9922 6.40625 61.9922C6.91667 61.9922 7.39583 61.9505 7.84375 61.8672C8.29688 61.7786 8.73698 61.6693 9.16406 61.5391V62.6953C8.7474 62.8516 8.3099 62.9661 7.85156 63.0391C7.39323 63.1172 6.84896 63.1562 6.21875 63.1562C5.05729 63.1562 4.08594 62.9167 3.30469 62.4375C2.52865 61.9531 1.94531 61.2708 1.55469 60.3906C1.16927 59.5104 0.976562 58.4714 0.976562 57.2734C0.976562 56.4089 1.09635 55.6198 1.33594 54.9062C1.58073 54.1875 1.9349 53.5677 2.39844 53.0469C2.86719 52.526 3.4401 52.125 4.11719 51.8438C4.79948 51.5573 5.58073 51.4141 6.46094 51.4141C7.03906 51.4141 7.59635 51.4714 8.13281 51.5859C8.66927 51.7005 9.15365 51.8646 9.58594 52.0781L9.05469 53.2031C8.6901 53.0365 8.28906 52.8932 7.85156 52.7734C7.41927 52.6484 6.95052 52.5859 6.44531 52.5859ZM15.3359 54.2812C15.5078 54.2812 15.6875 54.2917 15.875 54.3125C16.0625 54.3281 16.2292 54.3516 16.375 54.3828L16.2109 55.5859C16.0703 55.5495 15.9141 55.5208 15.7422 55.5C15.5703 55.4792 15.4089 55.4688 15.2578 55.4688C14.9141 55.4688 14.5885 55.5391 14.2812 55.6797C13.9792 55.8151 13.7135 56.013 13.4844 56.2734C13.2552 56.5286 13.0755 56.8385 12.9453 57.2031C12.8151 57.5625 12.75 57.9635 12.75 58.4062V63H11.4453V54.4375H12.5234L12.6641 56.0156H12.7188C12.8958 55.6979 13.1094 55.4089 13.3594 55.1484C13.6094 54.8828 13.8984 54.6719 14.2266 54.5156C14.5599 54.3594 14.9297 54.2812 15.3359 54.2812ZM25.375 58.7031C25.375 59.4062 25.2839 60.0339 25.1016 60.5859C24.9193 61.138 24.6562 61.6042 24.3125 61.9844C23.9688 62.3646 23.5521 62.6562 23.0625 62.8594C22.5781 63.0573 22.0286 63.1562 21.4141 63.1562C20.8411 63.1562 20.3151 63.0573 19.8359 62.8594C19.362 62.6562 18.9505 62.3646 18.6016 61.9844C18.2578 61.6042 17.9896 61.138 17.7969 60.5859C17.6094 60.0339 17.5156 59.4062 17.5156 58.7031C17.5156 57.7656 17.6745 56.9688 17.9922 56.3125C18.3099 55.651 18.763 55.1484 19.3516 54.8047C19.9453 54.4557 20.651 54.2812 21.4688 54.2812C22.25 54.2812 22.9323 54.4557 23.5156 54.8047C24.1042 55.1536 24.5599 55.6589 24.8828 56.3203C25.2109 56.9766 25.375 57.7708 25.375 58.7031ZM18.8594 58.7031C18.8594 59.3906 18.9505 59.987 19.1328 60.4922C19.3151 60.9974 19.5964 61.388 19.9766 61.6641C20.3568 61.9401 20.8464 62.0781 21.4453 62.0781C22.0391 62.0781 22.526 61.9401 22.9062 61.6641C23.2917 61.388 23.5755 60.9974 23.7578 60.4922C23.9401 59.987 24.0312 59.3906 24.0312 58.7031C24.0312 58.0208 23.9401 57.4323 23.7578 56.9375C23.5755 56.4375 23.2943 56.0521 22.9141 55.7812C22.5339 55.5104 22.0417 55.375 21.4375 55.375C20.5469 55.375 19.8932 55.6693 19.4766 56.2578C19.0651 56.8464 18.8594 57.6615 18.8594 58.7031ZM33.1562 60.6562C33.1562 61.2031 33.0182 61.6641 32.7422 62.0391C32.4714 62.4089 32.0807 62.6875 31.5703 62.875C31.0651 63.0625 30.4609 63.1562 29.7578 63.1562C29.1589 63.1562 28.6406 63.1094 28.2031 63.0156C27.7656 62.9219 27.3828 62.7891 27.0547 62.6172V61.4219C27.4036 61.5938 27.8203 61.75 28.3047 61.8906C28.7891 62.0312 29.2839 62.1016 29.7891 62.1016C30.5286 62.1016 31.0651 61.9818 31.3984 61.7422C31.7318 61.5026 31.8984 61.1771 31.8984 60.7656C31.8984 60.5312 31.8307 60.3255 31.6953 60.1484C31.5651 59.9661 31.3438 59.7917 31.0312 59.625C30.7188 59.4531 30.2865 59.2656 29.7344 59.0625C29.1875 58.8542 28.7135 58.6484 28.3125 58.4453C27.9167 58.237 27.6094 57.9844 27.3906 57.6875C27.1771 57.3906 27.0703 57.0052 27.0703 56.5312C27.0703 55.8073 27.362 55.2526 27.9453 54.8672C28.5339 54.4766 29.3047 54.2812 30.2578 54.2812C30.7734 54.2812 31.2552 54.3333 31.7031 54.4375C32.1562 54.5365 32.5781 54.6719 32.9688 54.8438L32.5312 55.8828C32.1771 55.7318 31.7995 55.6042 31.3984 55.5C30.9974 55.3958 30.5885 55.3438 30.1719 55.3438C29.5729 55.3438 29.112 55.4427 28.7891 55.6406C28.4714 55.8385 28.3125 56.1094 28.3125 56.4531C28.3125 56.7188 28.3854 56.9375 28.5312 57.1094C28.6823 57.2812 28.9219 57.4427 29.25 57.5938C29.5781 57.7448 30.0104 57.9219 30.5469 58.125C31.0833 58.3229 31.5469 58.5286 31.9375 58.7422C32.3281 58.9505 32.6276 59.2057 32.8359 59.5078C33.0495 59.8047 33.1562 60.1875 33.1562 60.6562ZM40.7812 60.6562C40.7812 61.2031 40.6432 61.6641 40.3672 62.0391C40.0964 62.4089 39.7057 62.6875 39.1953 62.875C38.6901 63.0625 38.0859 63.1562 37.3828 63.1562C36.7839 63.1562 36.2656 63.1094 35.8281 63.0156C35.3906 62.9219 35.0078 62.7891 34.6797 62.6172V61.4219C35.0286 61.5938 35.4453 61.75 35.9297 61.8906C36.4141 62.0312 36.9089 62.1016 37.4141 62.1016C38.1536 62.1016 38.6901 61.9818 39.0234 61.7422C39.3568 61.5026 39.5234 61.1771 39.5234 60.7656C39.5234 60.5312 39.4557 60.3255 39.3203 60.1484C39.1901 59.9661 38.9688 59.7917 38.6562 59.625C38.3438 59.4531 37.9115 59.2656 37.3594 59.0625C36.8125 58.8542 36.3385 58.6484 35.9375 58.4453C35.5417 58.237 35.2344 57.9844 35.0156 57.6875C34.8021 57.3906 34.6953 57.0052 34.6953 56.5312C34.6953 55.8073 34.987 55.2526 35.5703 54.8672C36.1589 54.4766 36.9297 54.2812 37.8828 54.2812C38.3984 54.2812 38.8802 54.3333 39.3281 54.4375C39.7812 54.5365 40.2031 54.6719 40.5938 54.8438L40.1562 55.8828C39.8021 55.7318 39.4245 55.6042 39.0234 55.5C38.6224 55.3958 38.2135 55.3438 37.7969 55.3438C37.1979 55.3438 36.737 55.4427 36.4141 55.6406C36.0964 55.8385 35.9375 56.1094 35.9375 56.4531C35.9375 56.7188 36.0104 56.9375 36.1562 57.1094C36.3073 57.2812 36.5469 57.4427 36.875 57.5938C37.2031 57.7448 37.6354 57.9219 38.1719 58.125C38.7083 58.3229 39.1719 58.5286 39.5625 58.7422C39.9531 58.9505 40.2526 59.2057 40.4609 59.5078C40.6745 59.8047 40.7812 60.1875 40.7812 60.6562ZM44.1641 50.8438V53.8828C44.1641 54.2318 44.1536 54.5703 44.1328 54.8984C44.1172 55.2266 44.1042 55.4818 44.0938 55.6641H44.1641C44.3984 55.2786 44.737 54.9531 45.1797 54.6875C45.6224 54.4219 46.1875 54.2891 46.875 54.2891C47.9479 54.2891 48.8021 54.6615 49.4375 55.4062C50.0781 56.1458 50.3984 57.2474 50.3984 58.7109C50.3984 59.6745 50.2526 60.487 49.9609 61.1484C49.6693 61.8099 49.2578 62.3099 48.7266 62.6484C48.1953 62.987 47.5677 63.1562 46.8438 63.1562C46.1667 63.1562 45.6094 63.0312 45.1719 62.7812C44.7396 62.526 44.4062 62.2161 44.1719 61.8516H44.0703L43.8047 63H42.8672V50.8438H44.1641ZM46.6641 55.375C46.0443 55.375 45.5521 55.4974 45.1875 55.7422C44.8229 55.9818 44.5599 56.3464 44.3984 56.8359C44.2422 57.3203 44.1641 57.9349 44.1641 58.6797V58.75C44.1641 59.8281 44.3438 60.6536 44.7031 61.2266C45.0625 61.7943 45.7161 62.0781 46.6641 62.0781C47.4609 62.0781 48.0573 61.7865 48.4531 61.2031C48.8542 60.6198 49.0547 59.7865 49.0547 58.7031C49.0547 57.599 48.8568 56.7682 48.4609 56.2109C48.0703 55.6536 47.4714 55.375 46.6641 55.375ZM55.8672 54.2969C56.888 54.2969 57.6458 54.526 58.1406 54.9844C58.6354 55.4427 58.8828 56.1745 58.8828 57.1797V63H57.9375L57.6875 61.7344H57.625C57.3854 62.0469 57.1354 62.3099 56.875 62.5234C56.6146 62.7318 56.3125 62.8906 55.9688 63C55.6302 63.1042 55.2135 63.1562 54.7188 63.1562C54.1979 63.1562 53.7344 63.0651 53.3281 62.8828C52.9271 62.7005 52.6094 62.4245 52.375 62.0547C52.1458 61.6849 52.0312 61.2161 52.0312 60.6484C52.0312 59.7943 52.3698 59.138 53.0469 58.6797C53.724 58.2214 54.7552 57.9714 56.1406 57.9297L57.6172 57.8672V57.3438C57.6172 56.6042 57.4583 56.0859 57.1406 55.7891C56.8229 55.4922 56.375 55.3438 55.7969 55.3438C55.349 55.3438 54.9219 55.4089 54.5156 55.5391C54.1094 55.6693 53.724 55.8229 53.3594 56L52.9609 55.0156C53.3464 54.8177 53.7891 54.6484 54.2891 54.5078C54.7891 54.3672 55.3151 54.2969 55.8672 54.2969ZM57.6016 58.7812L56.2969 58.8359C55.2292 58.8776 54.4766 59.0521 54.0391 59.3594C53.6016 59.6667 53.3828 60.1016 53.3828 60.6641C53.3828 61.1536 53.5312 61.5156 53.8281 61.75C54.125 61.9844 54.5182 62.1016 55.0078 62.1016C55.7682 62.1016 56.3906 61.8906 56.875 61.4688C57.3594 61.0469 57.6016 60.4141 57.6016 59.5703V58.7812ZM65.4453 54.2812C65.6172 54.2812 65.7969 54.2917 65.9844 54.3125C66.1719 54.3281 66.3385 54.3516 66.4844 54.3828L66.3203 55.5859C66.1797 55.5495 66.0234 55.5208 65.8516 55.5C65.6797 55.4792 65.5182 55.4688 65.3672 55.4688C65.0234 55.4688 64.6979 55.5391 64.3906 55.6797C64.0885 55.8151 63.8229 56.013 63.5938 56.2734C63.3646 56.5286 63.1849 56.8385 63.0547 57.2031C62.9245 57.5625 62.8594 57.9635 62.8594 58.4062V63H61.5547V54.4375H62.6328L62.7734 56.0156H62.8281C63.0052 55.6979 63.2188 55.4089 63.4688 55.1484C63.7188 54.8828 64.0078 54.6719 64.3359 54.5156C64.6693 54.3594 65.0391 54.2812 65.4453 54.2812Z" fill="#185EE7"/>
<path d="M82.5625 63V51.5781H83.8906V61.8125H88.9609V63H82.5625ZM94.0234 54.2812C94.7526 54.2812 95.3776 54.4427 95.8984 54.7656C96.4193 55.0885 96.8177 55.5417 97.0938 56.125C97.3698 56.7031 97.5078 57.3802 97.5078 58.1562V58.9609H91.5938C91.6094 59.9661 91.8594 60.7318 92.3438 61.2578C92.8281 61.7839 93.5104 62.0469 94.3906 62.0469C94.9323 62.0469 95.4115 61.9974 95.8281 61.8984C96.2448 61.7995 96.6771 61.6536 97.125 61.4609V62.6016C96.6927 62.7943 96.263 62.9349 95.8359 63.0234C95.4141 63.112 94.9141 63.1562 94.3359 63.1562C93.513 63.1562 92.7943 62.9896 92.1797 62.6562C91.5703 62.3177 91.0964 61.8229 90.7578 61.1719C90.4193 60.5208 90.25 59.724 90.25 58.7812C90.25 57.8594 90.4036 57.0625 90.7109 56.3906C91.0234 55.7135 91.4609 55.1927 92.0234 54.8281C92.5911 54.4635 93.2578 54.2812 94.0234 54.2812ZM94.0078 55.3438C93.3151 55.3438 92.763 55.5703 92.3516 56.0234C91.9401 56.4766 91.6953 57.1094 91.6172 57.9219H96.1484C96.1432 57.4115 96.0625 56.9635 95.9062 56.5781C95.7552 56.1875 95.5234 55.8854 95.2109 55.6719C94.8984 55.4531 94.4974 55.3438 94.0078 55.3438ZM102.102 66.8438C100.977 66.8438 100.109 66.6328 99.5 66.2109C98.8906 65.7943 98.5859 65.2083 98.5859 64.4531C98.5859 63.9167 98.7552 63.4583 99.0938 63.0781C99.4375 62.6979 99.9115 62.4453 100.516 62.3203C100.292 62.2161 100.099 62.0599 99.9375 61.8516C99.7812 61.6432 99.7031 61.4036 99.7031 61.1328C99.7031 60.8203 99.7891 60.5469 99.9609 60.3125C100.138 60.0729 100.406 59.8438 100.766 59.625C100.318 59.4427 99.9531 59.1354 99.6719 58.7031C99.3958 58.2656 99.2578 57.7578 99.2578 57.1797C99.2578 56.5651 99.3854 56.0417 99.6406 55.6094C99.8958 55.1719 100.266 54.8385 100.75 54.6094C101.234 54.3802 101.82 54.2656 102.508 54.2656C102.659 54.2656 102.81 54.2734 102.961 54.2891C103.117 54.2995 103.266 54.3177 103.406 54.3438C103.547 54.3646 103.669 54.3906 103.773 54.4219H106.711V55.2578L105.133 55.4531C105.289 55.6562 105.419 55.901 105.523 56.1875C105.628 56.474 105.68 56.7917 105.68 57.1406C105.68 57.9948 105.391 58.6745 104.812 59.1797C104.234 59.6797 103.44 59.9297 102.43 59.9297C102.19 59.9297 101.945 59.9089 101.695 59.8672C101.44 60.0078 101.245 60.1641 101.109 60.3359C100.979 60.5078 100.914 60.7057 100.914 60.9297C100.914 61.0964 100.964 61.2292 101.062 61.3281C101.167 61.4271 101.315 61.5 101.508 61.5469C101.701 61.5885 101.932 61.6094 102.203 61.6094H103.711C104.643 61.6094 105.357 61.8047 105.852 62.1953C106.352 62.5859 106.602 63.1562 106.602 63.9062C106.602 64.8542 106.216 65.5807 105.445 66.0859C104.674 66.5911 103.56 66.8438 102.102 66.8438ZM102.141 65.8281C102.849 65.8281 103.435 65.7552 103.898 65.6094C104.367 65.4688 104.716 65.263 104.945 64.9922C105.18 64.7266 105.297 64.4089 105.297 64.0391C105.297 63.6953 105.219 63.4349 105.062 63.2578C104.906 63.0859 104.677 62.9714 104.375 62.9141C104.073 62.8516 103.703 62.8203 103.266 62.8203H101.781C101.396 62.8203 101.06 62.8802 100.773 63C100.487 63.1198 100.266 63.2969 100.109 63.5312C99.9583 63.7656 99.8828 64.0573 99.8828 64.4062C99.8828 64.8698 100.078 65.2214 100.469 65.4609C100.859 65.7057 101.417 65.8281 102.141 65.8281ZM102.477 58.9844C103.096 58.9844 103.562 58.8281 103.875 58.5156C104.188 58.2031 104.344 57.7474 104.344 57.1484C104.344 56.5078 104.185 56.0286 103.867 55.7109C103.549 55.388 103.081 55.2266 102.461 55.2266C101.867 55.2266 101.409 55.3932 101.086 55.7266C100.768 56.0547 100.609 56.5365 100.609 57.1719C100.609 57.7552 100.771 58.2031 101.094 58.5156C101.417 58.8281 101.878 58.9844 102.477 58.9844Z" fill="#185EE7"/>
</svg>
